M48
; DRILL file {KiCad 8.0.5} date 2024-11-25T10:29:42+1100
; FORMAT={-:-/ absolute / metric / decimal}
; #@! TF.CreationDate,2024-11-25T10:29:42+11:00
; #@! TF.GenerationSoftware,Kicad,Pcbnew,8.0.5
; #@! TF.FileFunction,Plated,1,2,PTH
FMAT,2
METRIC
; #@! TA.AperFunction,Plated,PTH,ViaDrill
T1C0.300
; #@! TA.AperFunction,Plated,PTH,ComponentDrill
T2C1.000
%
G90
G05
T1
X89.281Y-75.311
X93.828Y-94.64
X94.258Y-113.208
X95.301Y-90.678
X96.52Y-112.522
X97.028Y-97.282
X97.028Y-100.144
X98.069Y-94.437
X98.499Y-91.76
X99.466Y-82.956
X99.822Y-97.282
X99.822Y-101.005
X100.203Y-113.665
X100.457Y-90.414
X100.457Y-92.369
X102.616Y-97.282
X102.616Y-101.005
X102.743Y-112.268
X103.886Y-86.106
X104.267Y-89.814
X104.742Y-101.252
X105.004Y-81.28
X105.41Y-97.282
X105.664Y-86.182
X105.969Y-102.413
X106.274Y-109.474
X106.426Y-100.457
X106.528Y-89.56
X106.731Y-75.336
X110.942Y-107.594
X110.998Y-110.973
X112.166Y-113.411
X112.776Y-98.648
X112.903Y-85.446
X113.894Y-110.998
X115.567Y-77.026
X117.221Y-95.82
X118.107Y-77.026
X118.23Y-95.293
X119.215Y-94.564
X119.215Y-99.073
X119.215Y-101.613
X119.215Y-104.153
X119.215Y-106.693
X119.23Y-96.874
X119.507Y-113.665
X120.61Y-109.601
X120.647Y-77.026
X120.904Y-113.665
X121.641Y-89.713
X122.644Y-95.263
X122.644Y-97.803
X122.732Y-109.464
X122.809Y-82.55
X123.025Y-107.518
X123.288Y-77.006
X123.698Y-110.617
X124.206Y-113.665
X124.358Y-111.379
X124.739Y-88.875
X124.892Y-112.827
X128.636Y-109.87
X128.727Y-107.569
X128.994Y-93.993
X128.994Y-96.533
X128.994Y-99.073
X128.994Y-101.613
X128.994Y-104.153
X128.994Y-106.693
X129.402Y-108.534
X130.988Y-108.814
X132.334Y-113.665
X132.338Y-107.718
X132.563Y-91.923
X133.083Y-95.237
X133.172Y-111.491
X134.588Y-83.14
X134.696Y-112.152
X135.915Y-88.798
X135.992Y-109.118
X135.992Y-113.665
X136.246Y-110.109
X136.576Y-111.658
X137.693Y-109.626
X137.973Y-90.373
X138.151Y-100.94
X138.406Y-92.354
X139.418Y-92.772
X140.216Y-92.357
X141.064Y-91.562
X141.533Y-85.652
X141.533Y-87.253
X142.138Y-96.11
X142.24Y-107.544
X142.336Y-106.078
X142.374Y-84.546
X142.384Y-87.546
X142.61Y-104.255
X143.072Y-108.068
X143.237Y-106.074
X143.307Y-109.83
X143.358Y-94.869
X143.79Y-108.61
X144.135Y-106.01
X144.302Y-87.481
X144.489Y-109.296
X145.048Y-105.969
X145.72Y-110.983
X146.66Y-104.165
X146.736Y-111.277
X147.245Y-93.954
X147.65Y-111.404
X147.676Y-104.14
X147.98Y-92.354
X148.692Y-111.43
X149.214Y-104.851
X149.687Y-111.379
X149.739Y-92.628
X149.809Y-98.298
X149.962Y-90.424
X150.038Y-99.898
X150.114Y-105.664
X151.003Y-92.191
X152.121Y-91.81
X152.324Y-86.385
X153.202Y-93.565
X154.051Y-94.915
X154.127Y-97.485
X154.178Y-99.035
X154.229Y-112.09
X154.356Y-89.891
X154.419Y-100.647
X155.05Y-107.078
X155.092Y-105.831
X155.975Y-106.674
X155.994Y-112.662
X156.997Y-97.409
X157.226Y-106.674
X158.538Y-113.678
X158.623Y-86.78
X159.253Y-90.479
X159.385Y-92.455
X159.436Y-85.967
X160.452Y-101.817
X160.523Y-90.479
X160.528Y-92.729
X162.229Y-110.802
X162.662Y-76.759
X162.916Y-113.692
X163.075Y-107.638
X163.093Y-106.451
X163.233Y-88.101
X163.652Y-105.512
X165.151Y-85.761
X165.202Y-83.287
X165.557Y-111.673
X165.77Y-82.589
X166.051Y-85.761
X166.567Y-113.451
X166.624Y-88.163
X166.751Y-82.713
X167.03Y-108.331
X167.259Y-86.462
X167.3Y-87.514
X167.894Y-109.068
X167.919Y-113.716
X168.629Y-99.377
X170.459Y-112.903
X170.688Y-75.362
X171.075Y-103.595
X171.374Y-95.571
X171.425Y-91.149
X172.39Y-91.149
X172.39Y-94.35
X172.783Y-112.827
X173.065Y-93.08
X173.317Y-91.149
X175.716Y-104.561
X176.225Y-85.192
X177.418Y-113.208
X177.851Y-86.475
X178.537Y-96.723
X179.07Y-85.192
T2
X111.76Y-78.74
X111.76Y-81.28
X111.76Y-83.82
X114.3Y-81.28
X114.3Y-83.82
X116.84Y-81.28
X116.84Y-83.82
X119.38Y-81.28
X119.38Y-83.82
X121.92Y-81.28
X121.92Y-83.82
X124.46Y-81.28
X124.46Y-83.82
X129.54Y-81.28
X132.08Y-81.28
X173.84Y-76.78
X173.84Y-81.28
X180.34Y-76.78
X180.34Y-81.28
M30
