%TF.GenerationSoftware,KiCad,Pcbnew,8.0.5*%
%TF.CreationDate,2024-11-25T10:29:44+11:00*%
%TF.ProjectId,Vic20_FlashCart,56696332-305f-4466-9c61-736843617274,rev?*%
%TF.SameCoordinates,Original*%
%TF.FileFunction,Drillmap*%
%TF.FilePolarity,Positive*%
%FSLAX45Y45*%
G04 Gerber Fmt 4.5, Leading zero omitted, Abs format (unit mm)*
G04 Created by KiCad (PCBNEW 8.0.5) date 2024-11-25 10:29:44*
%MOMM*%
%LPD*%
G01*
G04 APERTURE LIST*
%ADD10C,0.050000*%
%ADD11C,0.200000*%
G04 APERTURE END LIST*
D10*
X18100000Y-11400000D02*
X18297500Y-11400000D01*
X9000000Y-11400000D02*
X8802500Y-11400000D01*
X8802500Y-7405000D02*
X18297500Y-7405000D01*
X17225000Y-12400000D02*
X18000000Y-12400000D01*
X18100000Y-12300000D02*
X18000000Y-12400000D01*
X17075000Y-11400000D02*
X17075000Y-12400000D01*
X8802500Y-7405000D02*
X8802500Y-11400000D01*
X9000000Y-12300000D02*
X9000000Y-11400000D01*
X17225000Y-11400000D02*
X17075000Y-11400000D01*
X17075000Y-12400000D02*
X9100000Y-12400000D01*
X18297500Y-11400000D02*
X18297500Y-7405000D01*
X18100000Y-11400000D02*
X18100000Y-12300000D01*
X9100000Y-12400000D02*
X9000000Y-12300000D01*
X17225000Y-12400000D02*
X17225000Y-11400000D01*
D11*
X9060777Y-12713984D02*
X9060777Y-12513984D01*
X9060777Y-12513984D02*
X9108396Y-12513984D01*
X9108396Y-12513984D02*
X9136967Y-12523508D01*
X9136967Y-12523508D02*
X9156015Y-12542555D01*
X9156015Y-12542555D02*
X9165539Y-12561603D01*
X9165539Y-12561603D02*
X9175063Y-12599698D01*
X9175063Y-12599698D02*
X9175063Y-12628269D01*
X9175063Y-12628269D02*
X9165539Y-12666365D01*
X9165539Y-12666365D02*
X9156015Y-12685412D01*
X9156015Y-12685412D02*
X9136967Y-12704460D01*
X9136967Y-12704460D02*
X9108396Y-12713984D01*
X9108396Y-12713984D02*
X9060777Y-12713984D01*
X9260777Y-12713984D02*
X9260777Y-12580650D01*
X9260777Y-12618746D02*
X9270301Y-12599698D01*
X9270301Y-12599698D02*
X9279824Y-12590174D01*
X9279824Y-12590174D02*
X9298872Y-12580650D01*
X9298872Y-12580650D02*
X9317920Y-12580650D01*
X9384586Y-12713984D02*
X9384586Y-12580650D01*
X9384586Y-12513984D02*
X9375063Y-12523508D01*
X9375063Y-12523508D02*
X9384586Y-12533031D01*
X9384586Y-12533031D02*
X9394110Y-12523508D01*
X9394110Y-12523508D02*
X9384586Y-12513984D01*
X9384586Y-12513984D02*
X9384586Y-12533031D01*
X9508396Y-12713984D02*
X9489348Y-12704460D01*
X9489348Y-12704460D02*
X9479824Y-12685412D01*
X9479824Y-12685412D02*
X9479824Y-12513984D01*
X9613158Y-12713984D02*
X9594110Y-12704460D01*
X9594110Y-12704460D02*
X9584586Y-12685412D01*
X9584586Y-12685412D02*
X9584586Y-12513984D01*
X9841729Y-12713984D02*
X9841729Y-12513984D01*
X9841729Y-12513984D02*
X9908396Y-12656841D01*
X9908396Y-12656841D02*
X9975063Y-12513984D01*
X9975063Y-12513984D02*
X9975063Y-12713984D01*
X10156015Y-12713984D02*
X10156015Y-12609222D01*
X10156015Y-12609222D02*
X10146491Y-12590174D01*
X10146491Y-12590174D02*
X10127444Y-12580650D01*
X10127444Y-12580650D02*
X10089348Y-12580650D01*
X10089348Y-12580650D02*
X10070301Y-12590174D01*
X10156015Y-12704460D02*
X10136967Y-12713984D01*
X10136967Y-12713984D02*
X10089348Y-12713984D01*
X10089348Y-12713984D02*
X10070301Y-12704460D01*
X10070301Y-12704460D02*
X10060777Y-12685412D01*
X10060777Y-12685412D02*
X10060777Y-12666365D01*
X10060777Y-12666365D02*
X10070301Y-12647317D01*
X10070301Y-12647317D02*
X10089348Y-12637793D01*
X10089348Y-12637793D02*
X10136967Y-12637793D01*
X10136967Y-12637793D02*
X10156015Y-12628269D01*
X10251253Y-12580650D02*
X10251253Y-12780650D01*
X10251253Y-12590174D02*
X10270301Y-12580650D01*
X10270301Y-12580650D02*
X10308396Y-12580650D01*
X10308396Y-12580650D02*
X10327444Y-12590174D01*
X10327444Y-12590174D02*
X10336967Y-12599698D01*
X10336967Y-12599698D02*
X10346491Y-12618746D01*
X10346491Y-12618746D02*
X10346491Y-12675888D01*
X10346491Y-12675888D02*
X10336967Y-12694936D01*
X10336967Y-12694936D02*
X10327444Y-12704460D01*
X10327444Y-12704460D02*
X10308396Y-12713984D01*
X10308396Y-12713984D02*
X10270301Y-12713984D01*
X10270301Y-12713984D02*
X10251253Y-12704460D01*
X10432205Y-12694936D02*
X10441729Y-12704460D01*
X10441729Y-12704460D02*
X10432205Y-12713984D01*
X10432205Y-12713984D02*
X10422682Y-12704460D01*
X10422682Y-12704460D02*
X10432205Y-12694936D01*
X10432205Y-12694936D02*
X10432205Y-12713984D01*
X10432205Y-12590174D02*
X10441729Y-12599698D01*
X10441729Y-12599698D02*
X10432205Y-12609222D01*
X10432205Y-12609222D02*
X10422682Y-12599698D01*
X10422682Y-12599698D02*
X10432205Y-12590174D01*
X10432205Y-12590174D02*
X10432205Y-12609222D01*
M02*
