%TF.GenerationSoftware,KiCad,Pcbnew,8.0.5*%
%TF.CreationDate,2024-11-25T10:29:44+11:00*%
%TF.ProjectId,Vic20_FlashCart,56696332-305f-4466-9c61-736843617274,rev?*%
%TF.SameCoordinates,Original*%
%TF.FileFunction,Drillmap*%
%TF.FilePolarity,Positive*%
%FSLAX45Y45*%
G04 Gerber Fmt 4.5, Leading zero omitted, Abs format (unit mm)*
G04 Created by KiCad (PCBNEW 8.0.5) date 2024-11-25 10:29:44*
%MOMM*%
%LPD*%
G01*
G04 APERTURE LIST*
%ADD10C,0.050000*%
%ADD11C,0.200000*%
%ADD12C,0.100000*%
G04 APERTURE END LIST*
D10*
X18100000Y-11400000D02*
X18297500Y-11400000D01*
X9000000Y-11400000D02*
X8802500Y-11400000D01*
X8802500Y-7405000D02*
X18297500Y-7405000D01*
X17225000Y-12400000D02*
X18000000Y-12400000D01*
X18100000Y-12300000D02*
X18000000Y-12400000D01*
X17075000Y-11400000D02*
X17075000Y-12400000D01*
X8802500Y-7405000D02*
X8802500Y-11400000D01*
X9000000Y-12300000D02*
X9000000Y-11400000D01*
X17225000Y-11400000D02*
X17075000Y-11400000D01*
X17075000Y-12400000D02*
X9100000Y-12400000D01*
X18297500Y-11400000D02*
X18297500Y-7405000D01*
X18100000Y-11400000D02*
X18100000Y-12300000D01*
X9100000Y-12400000D02*
X9000000Y-12300000D01*
X17225000Y-12400000D02*
X17225000Y-11400000D01*
D11*
D12*
X8913100Y-7516100D02*
X8943100Y-7546100D01*
X8943100Y-7516100D02*
X8913100Y-7546100D01*
X9367760Y-9449040D02*
X9397760Y-9479040D01*
X9397760Y-9449040D02*
X9367760Y-9479040D01*
X9410800Y-11305780D02*
X9440800Y-11335780D01*
X9440800Y-11305780D02*
X9410800Y-11335780D01*
X9515080Y-9052800D02*
X9545080Y-9082800D01*
X9545080Y-9052800D02*
X9515080Y-9082800D01*
X9637000Y-11237200D02*
X9667000Y-11267200D01*
X9667000Y-11237200D02*
X9637000Y-11267200D01*
X9687800Y-9713200D02*
X9717800Y-9743200D01*
X9717800Y-9713200D02*
X9687800Y-9743200D01*
X9687800Y-9999400D02*
X9717800Y-10029400D01*
X9717800Y-9999400D02*
X9687800Y-10029400D01*
X9791940Y-9428720D02*
X9821940Y-9458720D01*
X9821940Y-9428720D02*
X9791940Y-9458720D01*
X9834875Y-9160980D02*
X9864875Y-9190980D01*
X9864875Y-9160980D02*
X9834875Y-9190980D01*
X9931640Y-8280640D02*
X9961640Y-8310640D01*
X9961640Y-8280640D02*
X9931640Y-8310640D01*
X9967200Y-9713200D02*
X9997200Y-9743200D01*
X9997200Y-9713200D02*
X9967200Y-9743200D01*
X9967200Y-10085500D02*
X9997200Y-10115500D01*
X9997200Y-10085500D02*
X9967200Y-10115500D01*
X10005300Y-11351500D02*
X10035300Y-11381500D01*
X10035300Y-11351500D02*
X10005300Y-11381500D01*
X10030700Y-9026400D02*
X10060700Y-9056400D01*
X10060700Y-9026400D02*
X10030700Y-9056400D01*
X10030700Y-9221900D02*
X10060700Y-9251900D01*
X10060700Y-9221900D02*
X10030700Y-9251900D01*
X10246600Y-9713200D02*
X10276600Y-9743200D01*
X10276600Y-9713200D02*
X10246600Y-9743200D01*
X10246600Y-10085500D02*
X10276600Y-10115500D01*
X10276600Y-10085500D02*
X10246600Y-10115500D01*
X10259300Y-11211800D02*
X10289300Y-11241800D01*
X10289300Y-11211800D02*
X10259300Y-11241800D01*
X10373600Y-8595600D02*
X10403600Y-8625600D01*
X10403600Y-8595600D02*
X10373600Y-8625600D01*
X10411700Y-8966400D02*
X10441700Y-8996400D01*
X10441700Y-8966400D02*
X10411700Y-8996400D01*
X10459220Y-10110180D02*
X10489220Y-10140180D01*
X10489220Y-10110180D02*
X10459220Y-10140180D01*
X10485360Y-8113000D02*
X10515360Y-8143000D01*
X10515360Y-8113000D02*
X10485360Y-8143000D01*
X10526000Y-9713200D02*
X10556000Y-9743200D01*
X10556000Y-9713200D02*
X10526000Y-9743200D01*
X10551400Y-8603220D02*
X10581400Y-8633220D01*
X10581400Y-8603220D02*
X10551400Y-8633220D01*
X10581880Y-10226280D02*
X10611880Y-10256280D01*
X10611880Y-10226280D02*
X10581880Y-10256280D01*
X10612360Y-10932400D02*
X10642360Y-10962400D01*
X10642360Y-10932400D02*
X10612360Y-10962400D01*
X10627600Y-10030700D02*
X10657600Y-10060700D01*
X10657600Y-10030700D02*
X10627600Y-10060700D01*
X10637760Y-8941040D02*
X10667760Y-8971040D01*
X10667760Y-8941040D02*
X10637760Y-8971040D01*
X10658080Y-7518640D02*
X10688080Y-7548640D01*
X10688080Y-7518640D02*
X10658080Y-7548640D01*
X11079200Y-10744440D02*
X11109200Y-10774440D01*
X11109200Y-10744440D02*
X11079200Y-10774440D01*
X11084800Y-11082260D02*
X11114800Y-11112260D01*
X11114800Y-11082260D02*
X11084800Y-11112260D01*
X11201640Y-11326100D02*
X11231640Y-11356100D01*
X11231640Y-11326100D02*
X11201640Y-11356100D01*
X11262600Y-9849840D02*
X11292600Y-9879840D01*
X11292600Y-9849840D02*
X11262600Y-9879840D01*
X11275300Y-8529560D02*
X11305300Y-8559560D01*
X11305300Y-8529560D02*
X11275300Y-8559560D01*
X11374360Y-11084800D02*
X11404360Y-11114800D01*
X11404360Y-11084800D02*
X11374360Y-11114800D01*
X11541674Y-7687600D02*
X11571674Y-7717600D01*
X11571674Y-7687600D02*
X11541674Y-7717600D01*
X11707100Y-9566960D02*
X11737100Y-9596960D01*
X11737100Y-9566960D02*
X11707100Y-9596960D01*
X11795674Y-7687600D02*
X11825674Y-7717600D01*
X11825674Y-7687600D02*
X11795674Y-7717600D01*
X11807960Y-9514340D02*
X11837960Y-9544340D01*
X11837960Y-9514340D02*
X11807960Y-9544340D01*
X11906490Y-9441420D02*
X11936490Y-9471420D01*
X11936490Y-9441420D02*
X11906490Y-9471420D01*
X11906490Y-9892270D02*
X11936490Y-9922270D01*
X11936490Y-9892270D02*
X11906490Y-9922270D01*
X11906490Y-10146270D02*
X11936490Y-10176270D01*
X11936490Y-10146270D02*
X11906490Y-10176270D01*
X11906490Y-10400270D02*
X11936490Y-10430270D01*
X11936490Y-10400270D02*
X11906490Y-10430270D01*
X11906490Y-10654270D02*
X11936490Y-10684270D01*
X11936490Y-10654270D02*
X11906490Y-10684270D01*
X11907960Y-9672360D02*
X11937960Y-9702360D01*
X11937960Y-9672360D02*
X11907960Y-9702360D01*
X11935700Y-11351500D02*
X11965700Y-11381500D01*
X11965700Y-11351500D02*
X11935700Y-11381500D01*
X12046000Y-10945100D02*
X12076000Y-10975100D01*
X12076000Y-10945100D02*
X12046000Y-10975100D01*
X12049674Y-7687600D02*
X12079674Y-7717600D01*
X12079674Y-7687600D02*
X12049674Y-7717600D01*
X12075400Y-11351500D02*
X12105400Y-11381500D01*
X12105400Y-11351500D02*
X12075400Y-11381500D01*
X12149060Y-8956280D02*
X12179060Y-8986280D01*
X12179060Y-8956280D02*
X12149060Y-8986280D01*
X12249390Y-9511270D02*
X12279390Y-9541270D01*
X12279390Y-9511270D02*
X12249390Y-9541270D01*
X12249390Y-9765270D02*
X12279390Y-9795270D01*
X12279390Y-9765270D02*
X12249390Y-9795270D01*
X12258205Y-10931415D02*
X12288205Y-10961415D01*
X12288205Y-10931415D02*
X12258205Y-10961415D01*
X12265900Y-8240000D02*
X12295900Y-8270000D01*
X12295900Y-8240000D02*
X12265900Y-8270000D01*
X12287490Y-10736820D02*
X12317490Y-10766820D01*
X12317490Y-10736820D02*
X12287490Y-10766820D01*
X12313834Y-7685628D02*
X12343834Y-7715628D01*
X12343834Y-7685628D02*
X12313834Y-7715628D01*
X12354800Y-11046700D02*
X12384800Y-11076700D01*
X12384800Y-11046700D02*
X12354800Y-11076700D01*
X12405600Y-11351500D02*
X12435600Y-11381500D01*
X12435600Y-11351500D02*
X12405600Y-11381500D01*
X12420840Y-11122900D02*
X12450840Y-11152900D01*
X12450840Y-11122900D02*
X12420840Y-11152900D01*
X12458940Y-8872460D02*
X12488940Y-8902460D01*
X12488940Y-8872460D02*
X12458940Y-8902460D01*
X12474180Y-11267680D02*
X12504180Y-11297680D01*
X12504180Y-11267680D02*
X12474180Y-11297680D01*
X12848620Y-10971980D02*
X12878620Y-11001980D01*
X12878620Y-10971980D02*
X12848620Y-11001980D01*
X12857720Y-10741900D02*
X12887720Y-10771900D01*
X12887720Y-10741900D02*
X12857720Y-10771900D01*
X12884390Y-9384270D02*
X12914390Y-9414270D01*
X12914390Y-9384270D02*
X12884390Y-9414270D01*
X12884390Y-9638270D02*
X12914390Y-9668270D01*
X12914390Y-9638270D02*
X12884390Y-9668270D01*
X12884390Y-9892270D02*
X12914390Y-9922270D01*
X12914390Y-9892270D02*
X12884390Y-9922270D01*
X12884390Y-10146270D02*
X12914390Y-10176270D01*
X12914390Y-10146270D02*
X12884390Y-10176270D01*
X12884390Y-10400270D02*
X12914390Y-10430270D01*
X12914390Y-10400270D02*
X12884390Y-10430270D01*
X12884390Y-10654270D02*
X12914390Y-10684270D01*
X12914390Y-10654270D02*
X12884390Y-10684270D01*
X12925220Y-10838420D02*
X12955220Y-10868420D01*
X12955220Y-10838420D02*
X12925220Y-10868420D01*
X13083780Y-10866360D02*
X13113780Y-10896360D01*
X13113780Y-10866360D02*
X13083780Y-10896360D01*
X13218400Y-11351500D02*
X13248400Y-11381500D01*
X13248400Y-11351500D02*
X13218400Y-11381500D01*
X13218770Y-10756770D02*
X13248770Y-10786770D01*
X13248770Y-10756770D02*
X13218770Y-10786770D01*
X13241260Y-9177260D02*
X13271260Y-9207260D01*
X13271260Y-9177260D02*
X13241260Y-9207260D01*
X13293330Y-9508730D02*
X13323330Y-9538730D01*
X13323330Y-9508730D02*
X13293330Y-9538730D01*
X13302220Y-11134140D02*
X13332220Y-11164140D01*
X13332220Y-11134140D02*
X13302220Y-11164140D01*
X13443850Y-8299030D02*
X13473850Y-8329030D01*
X13473850Y-8299030D02*
X13443850Y-8329030D01*
X13454620Y-11200180D02*
X13484620Y-11230180D01*
X13484620Y-11200180D02*
X13454620Y-11230180D01*
X13576540Y-8864840D02*
X13606540Y-8894840D01*
X13606540Y-8864840D02*
X13576540Y-8894840D01*
X13584160Y-10896840D02*
X13614160Y-10926840D01*
X13614160Y-10896840D02*
X13584160Y-10926840D01*
X13584160Y-11351500D02*
X13614160Y-11381500D01*
X13614160Y-11351500D02*
X13584160Y-11381500D01*
X13609560Y-10995900D02*
X13639560Y-11025900D01*
X13639560Y-10995900D02*
X13609560Y-11025900D01*
X13642580Y-11150840D02*
X13672580Y-11180840D01*
X13672580Y-11150840D02*
X13642580Y-11180840D01*
X13754340Y-10947640D02*
X13784340Y-10977640D01*
X13784340Y-10947640D02*
X13754340Y-10977640D01*
X13782280Y-9022320D02*
X13812280Y-9052320D01*
X13812280Y-9022320D02*
X13782280Y-9052320D01*
X13800060Y-10078960D02*
X13830060Y-10108960D01*
X13830060Y-10078960D02*
X13800060Y-10108960D01*
X13825598Y-9220440D02*
X13855598Y-9250440D01*
X13855598Y-9220440D02*
X13825598Y-9250440D01*
X13926758Y-9262160D02*
X13956758Y-9292160D01*
X13956758Y-9262160D02*
X13926758Y-9292160D01*
X14006626Y-9220675D02*
X14036626Y-9250675D01*
X14036626Y-9220675D02*
X14006626Y-9250675D01*
X14091368Y-9141170D02*
X14121368Y-9171170D01*
X14121368Y-9141170D02*
X14091368Y-9171170D01*
X14138320Y-8550180D02*
X14168320Y-8580180D01*
X14168320Y-8550180D02*
X14138320Y-8580180D01*
X14138320Y-8710300D02*
X14168320Y-8740300D01*
X14168320Y-8710300D02*
X14138320Y-8740300D01*
X14198840Y-9595980D02*
X14228840Y-9625980D01*
X14228840Y-9595980D02*
X14198840Y-9625980D01*
X14209000Y-10739360D02*
X14239000Y-10769360D01*
X14239000Y-10739360D02*
X14209000Y-10769360D01*
X14218584Y-10592774D02*
X14248584Y-10622774D01*
X14248584Y-10592774D02*
X14218584Y-10622774D01*
X14222440Y-8439644D02*
X14252440Y-8469644D01*
X14252440Y-8439644D02*
X14222440Y-8469644D01*
X14223409Y-8739625D02*
X14253409Y-8769625D01*
X14253409Y-8739625D02*
X14223409Y-8769625D01*
X14245968Y-10410540D02*
X14275968Y-10440540D01*
X14275968Y-10410540D02*
X14245968Y-10440540D01*
X14292220Y-10791806D02*
X14322220Y-10821806D01*
X14322220Y-10791806D02*
X14292220Y-10821806D01*
X14308688Y-10592380D02*
X14338688Y-10622380D01*
X14338688Y-10592380D02*
X14308688Y-10622380D01*
X14315680Y-10967960D02*
X14345680Y-10997960D01*
X14345680Y-10967960D02*
X14315680Y-10997960D01*
X14320760Y-9471900D02*
X14350760Y-9501900D01*
X14350760Y-9471900D02*
X14320760Y-9501900D01*
X14364044Y-10846040D02*
X14394044Y-10876040D01*
X14394044Y-10846040D02*
X14364044Y-10876040D01*
X14398462Y-10585993D02*
X14428462Y-10615993D01*
X14428462Y-10585993D02*
X14398462Y-10615993D01*
X14415180Y-8733060D02*
X14445180Y-8763060D01*
X14445180Y-8733060D02*
X14415180Y-8763060D01*
X14433928Y-10914620D02*
X14463928Y-10944620D01*
X14463928Y-10914620D02*
X14433928Y-10944620D01*
X14489808Y-10581880D02*
X14519808Y-10611880D01*
X14519808Y-10581880D02*
X14489808Y-10611880D01*
X14556980Y-11083340D02*
X14586980Y-11113340D01*
X14586980Y-11083340D02*
X14556980Y-11113340D01*
X14650960Y-10401540D02*
X14680960Y-10431540D01*
X14680960Y-10401540D02*
X14650960Y-10431540D01*
X14658580Y-11112740D02*
X14688580Y-11142740D01*
X14688580Y-11112740D02*
X14658580Y-11142740D01*
X14709475Y-9380365D02*
X14739475Y-9410365D01*
X14739475Y-9380365D02*
X14709475Y-9410365D01*
X14750020Y-11125440D02*
X14780020Y-11155440D01*
X14780020Y-11125440D02*
X14750020Y-11155440D01*
X14752560Y-10399000D02*
X14782560Y-10429000D01*
X14782560Y-10399000D02*
X14752560Y-10429000D01*
X14783040Y-9220440D02*
X14813040Y-9250440D01*
X14813040Y-9220440D02*
X14783040Y-9250440D01*
X14854160Y-11127980D02*
X14884160Y-11157980D01*
X14884160Y-11127980D02*
X14854160Y-11157980D01*
X14906420Y-10470120D02*
X14936420Y-10500120D01*
X14936420Y-10470120D02*
X14906420Y-10500120D01*
X14953680Y-11122900D02*
X14983680Y-11152900D01*
X14983680Y-11122900D02*
X14953680Y-11152900D01*
X14958880Y-9247800D02*
X14988880Y-9277800D01*
X14988880Y-9247800D02*
X14958880Y-9277800D01*
X14965920Y-9814800D02*
X14995920Y-9844800D01*
X14995920Y-9814800D02*
X14965920Y-9844800D01*
X14981160Y-9027400D02*
X15011160Y-9057400D01*
X15011160Y-9027400D02*
X14981160Y-9057400D01*
X14988780Y-9974820D02*
X15018780Y-10004820D01*
X15018780Y-9974820D02*
X14988780Y-10004820D01*
X14996400Y-10551400D02*
X15026400Y-10581400D01*
X15026400Y-10551400D02*
X14996400Y-10581400D01*
X15085300Y-9204120D02*
X15115300Y-9234120D01*
X15115300Y-9204120D02*
X15085300Y-9234120D01*
X15197060Y-9166020D02*
X15227060Y-9196020D01*
X15227060Y-9166020D02*
X15197060Y-9196020D01*
X15217380Y-8623540D02*
X15247380Y-8653540D01*
X15247380Y-8623540D02*
X15217380Y-8653540D01*
X15305200Y-9341520D02*
X15335200Y-9371520D01*
X15335200Y-9341520D02*
X15305200Y-9371520D01*
X15390100Y-9476520D02*
X15420100Y-9506520D01*
X15420100Y-9476520D02*
X15390100Y-9506520D01*
X15397720Y-9733520D02*
X15427720Y-9763520D01*
X15427720Y-9733520D02*
X15397720Y-9763520D01*
X15402800Y-9888460D02*
X15432800Y-9918460D01*
X15432800Y-9888460D02*
X15402800Y-9918460D01*
X15407880Y-11194020D02*
X15437880Y-11224020D01*
X15437880Y-11194020D02*
X15407880Y-11224020D01*
X15420580Y-8974060D02*
X15450580Y-9004060D01*
X15450580Y-8974060D02*
X15420580Y-9004060D01*
X15426930Y-10049750D02*
X15456930Y-10079750D01*
X15456930Y-10049750D02*
X15426930Y-10079750D01*
X15489970Y-10692830D02*
X15519970Y-10722830D01*
X15519970Y-10692830D02*
X15489970Y-10722830D01*
X15494219Y-10568140D02*
X15524219Y-10598140D01*
X15524219Y-10568140D02*
X15494219Y-10598140D01*
X15582520Y-10652380D02*
X15612520Y-10682380D01*
X15612520Y-10652380D02*
X15582520Y-10682380D01*
X15584410Y-11251170D02*
X15614410Y-11281170D01*
X15614410Y-11251170D02*
X15584410Y-11281170D01*
X15684740Y-9725900D02*
X15714740Y-9755900D01*
X15714740Y-9725900D02*
X15684740Y-9755900D01*
X15707600Y-10652380D02*
X15737600Y-10682380D01*
X15737600Y-10652380D02*
X15707600Y-10682380D01*
X15838825Y-11352790D02*
X15868825Y-11382790D01*
X15868825Y-11352790D02*
X15838825Y-11382790D01*
X15847300Y-8663020D02*
X15877300Y-8693020D01*
X15877300Y-8663020D02*
X15847300Y-8693020D01*
X15910262Y-9032894D02*
X15940262Y-9062894D01*
X15940262Y-9032894D02*
X15910262Y-9062894D01*
X15923500Y-9230520D02*
X15953500Y-9260520D01*
X15953500Y-9230520D02*
X15923500Y-9260520D01*
X15928580Y-8581740D02*
X15958580Y-8611740D01*
X15958580Y-8581740D02*
X15928580Y-8611740D01*
X16030180Y-10166700D02*
X16060180Y-10196700D01*
X16060180Y-10166700D02*
X16030180Y-10196700D01*
X16037262Y-9032894D02*
X16067262Y-9062894D01*
X16067262Y-9032894D02*
X16037262Y-9062894D01*
X16037800Y-9257894D02*
X16067800Y-9287894D01*
X16067800Y-9257894D02*
X16037800Y-9287894D01*
X16207876Y-11065155D02*
X16237876Y-11095155D01*
X16237876Y-11065155D02*
X16207876Y-11095155D01*
X16251160Y-7660880D02*
X16281160Y-7690880D01*
X16281160Y-7660880D02*
X16251160Y-7690880D01*
X16276560Y-11354247D02*
X16306560Y-11384247D01*
X16306560Y-11354247D02*
X16276560Y-11384247D01*
X16292540Y-10748780D02*
X16322540Y-10778780D01*
X16322540Y-10748780D02*
X16292540Y-10778780D01*
X16294340Y-10630140D02*
X16324340Y-10660140D01*
X16324340Y-10630140D02*
X16294340Y-10660140D01*
X16308300Y-8795100D02*
X16338300Y-8825100D01*
X16338300Y-8795100D02*
X16308300Y-8825100D01*
X16350220Y-10536160D02*
X16380220Y-10566160D01*
X16380220Y-10536160D02*
X16350220Y-10566160D01*
X16500080Y-8561120D02*
X16530080Y-8591120D01*
X16530080Y-8561120D02*
X16500080Y-8591120D01*
X16505160Y-8313660D02*
X16535160Y-8343660D01*
X16535160Y-8313660D02*
X16505160Y-8343660D01*
X16540720Y-11152300D02*
X16570720Y-11182300D01*
X16570720Y-11152300D02*
X16540720Y-11182300D01*
X16562011Y-8243889D02*
X16592011Y-8273889D01*
X16592011Y-8243889D02*
X16562011Y-8273889D01*
X16590080Y-8561120D02*
X16620080Y-8591120D01*
X16620080Y-8561120D02*
X16590080Y-8591120D01*
X16641692Y-11330100D02*
X16671692Y-11360100D01*
X16671692Y-11330100D02*
X16641692Y-11360100D01*
X16647400Y-8801340D02*
X16677400Y-8831340D01*
X16677400Y-8801340D02*
X16647400Y-8831340D01*
X16660100Y-8256320D02*
X16690100Y-8286320D01*
X16690100Y-8256320D02*
X16660100Y-8286320D01*
X16688040Y-10818100D02*
X16718040Y-10848100D01*
X16718040Y-10818100D02*
X16688040Y-10848100D01*
X16710900Y-8631160D02*
X16740900Y-8661160D01*
X16740900Y-8631160D02*
X16710900Y-8661160D01*
X16714964Y-8736380D02*
X16744964Y-8766380D01*
X16744964Y-8736380D02*
X16714964Y-8766380D01*
X16774400Y-10891760D02*
X16804400Y-10921760D01*
X16804400Y-10891760D02*
X16774400Y-10921760D01*
X16776940Y-11356580D02*
X16806940Y-11386580D01*
X16806940Y-11356580D02*
X16776940Y-11386580D01*
X16847914Y-9922714D02*
X16877914Y-9952714D01*
X16877914Y-9922714D02*
X16847914Y-9952714D01*
X17030940Y-11275300D02*
X17060940Y-11305300D01*
X17060940Y-11275300D02*
X17030940Y-11305300D01*
X17053800Y-7521180D02*
X17083800Y-7551180D01*
X17083800Y-7521180D02*
X17053800Y-7551180D01*
X17092460Y-10344500D02*
X17122460Y-10374500D01*
X17122460Y-10344500D02*
X17092460Y-10374500D01*
X17122380Y-9542149D02*
X17152380Y-9572149D01*
X17152380Y-9542149D02*
X17122380Y-9572149D01*
X17127460Y-9099900D02*
X17157460Y-9129900D01*
X17157460Y-9099900D02*
X17127460Y-9129900D01*
X17223980Y-9099900D02*
X17253980Y-9129900D01*
X17253980Y-9099900D02*
X17223980Y-9129900D01*
X17223980Y-9420020D02*
X17253980Y-9450020D01*
X17253980Y-9420020D02*
X17223980Y-9450020D01*
X17263300Y-11267680D02*
X17293300Y-11297680D01*
X17293300Y-11267680D02*
X17263300Y-11297680D01*
X17291480Y-9293020D02*
X17321480Y-9323020D01*
X17321480Y-9293020D02*
X17291480Y-9323020D01*
X17316707Y-9099900D02*
X17346707Y-9129900D01*
X17346707Y-9099900D02*
X17316707Y-9129900D01*
X17556555Y-10441122D02*
X17586555Y-10471122D01*
X17586555Y-10441122D02*
X17556555Y-10471122D01*
X17607520Y-8504160D02*
X17637520Y-8534160D01*
X17637520Y-8504160D02*
X17607520Y-8534160D01*
X17726800Y-11305780D02*
X17756800Y-11335780D01*
X17756800Y-11305780D02*
X17726800Y-11335780D01*
X17770080Y-8632540D02*
X17800080Y-8662540D01*
X17800080Y-8632540D02*
X17770080Y-8662540D01*
X17838660Y-9657320D02*
X17868660Y-9687320D01*
X17868660Y-9657320D02*
X17838660Y-9687320D01*
X17892000Y-8504160D02*
X17922000Y-8534160D01*
X17922000Y-8504160D02*
X17892000Y-8534160D01*
X11226000Y-7874000D02*
G75*
G02*
X11126000Y-7874000I-50000J0D01*
G01*
X11126000Y-7874000D02*
G75*
G02*
X11226000Y-7874000I50000J0D01*
G01*
X11226000Y-8128000D02*
G75*
G02*
X11126000Y-8128000I-50000J0D01*
G01*
X11126000Y-8128000D02*
G75*
G02*
X11226000Y-8128000I50000J0D01*
G01*
X11226000Y-8382000D02*
G75*
G02*
X11126000Y-8382000I-50000J0D01*
G01*
X11126000Y-8382000D02*
G75*
G02*
X11226000Y-8382000I50000J0D01*
G01*
X11480000Y-8128000D02*
G75*
G02*
X11380000Y-8128000I-50000J0D01*
G01*
X11380000Y-8128000D02*
G75*
G02*
X11480000Y-8128000I50000J0D01*
G01*
X11480000Y-8382000D02*
G75*
G02*
X11380000Y-8382000I-50000J0D01*
G01*
X11380000Y-8382000D02*
G75*
G02*
X11480000Y-8382000I50000J0D01*
G01*
X11734000Y-8128000D02*
G75*
G02*
X11634000Y-8128000I-50000J0D01*
G01*
X11634000Y-8128000D02*
G75*
G02*
X11734000Y-8128000I50000J0D01*
G01*
X11734000Y-8382000D02*
G75*
G02*
X11634000Y-8382000I-50000J0D01*
G01*
X11634000Y-8382000D02*
G75*
G02*
X11734000Y-8382000I50000J0D01*
G01*
X11988000Y-8128000D02*
G75*
G02*
X11888000Y-8128000I-50000J0D01*
G01*
X11888000Y-8128000D02*
G75*
G02*
X11988000Y-8128000I50000J0D01*
G01*
X11988000Y-8382000D02*
G75*
G02*
X11888000Y-8382000I-50000J0D01*
G01*
X11888000Y-8382000D02*
G75*
G02*
X11988000Y-8382000I50000J0D01*
G01*
X12242000Y-8128000D02*
G75*
G02*
X12142000Y-8128000I-50000J0D01*
G01*
X12142000Y-8128000D02*
G75*
G02*
X12242000Y-8128000I50000J0D01*
G01*
X12242000Y-8382000D02*
G75*
G02*
X12142000Y-8382000I-50000J0D01*
G01*
X12142000Y-8382000D02*
G75*
G02*
X12242000Y-8382000I50000J0D01*
G01*
X12496000Y-8128000D02*
G75*
G02*
X12396000Y-8128000I-50000J0D01*
G01*
X12396000Y-8128000D02*
G75*
G02*
X12496000Y-8128000I50000J0D01*
G01*
X12496000Y-8382000D02*
G75*
G02*
X12396000Y-8382000I-50000J0D01*
G01*
X12396000Y-8382000D02*
G75*
G02*
X12496000Y-8382000I50000J0D01*
G01*
X13004000Y-8128000D02*
G75*
G02*
X12904000Y-8128000I-50000J0D01*
G01*
X12904000Y-8128000D02*
G75*
G02*
X13004000Y-8128000I50000J0D01*
G01*
X13258000Y-8128000D02*
G75*
G02*
X13158000Y-8128000I-50000J0D01*
G01*
X13158000Y-8128000D02*
G75*
G02*
X13258000Y-8128000I50000J0D01*
G01*
X17434000Y-7678000D02*
G75*
G02*
X17334000Y-7678000I-50000J0D01*
G01*
X17334000Y-7678000D02*
G75*
G02*
X17434000Y-7678000I50000J0D01*
G01*
X17434000Y-8128000D02*
G75*
G02*
X17334000Y-8128000I-50000J0D01*
G01*
X17334000Y-8128000D02*
G75*
G02*
X17434000Y-8128000I50000J0D01*
G01*
X18084000Y-7678000D02*
G75*
G02*
X17984000Y-7678000I-50000J0D01*
G01*
X17984000Y-7678000D02*
G75*
G02*
X18084000Y-7678000I50000J0D01*
G01*
X18084000Y-8128000D02*
G75*
G02*
X17984000Y-8128000I-50000J0D01*
G01*
X17984000Y-8128000D02*
G75*
G02*
X18084000Y-8128000I50000J0D01*
G01*
D11*
X9060777Y-12713984D02*
X9060777Y-12513984D01*
X9060777Y-12513984D02*
X9108396Y-12513984D01*
X9108396Y-12513984D02*
X9136967Y-12523508D01*
X9136967Y-12523508D02*
X9156015Y-12542555D01*
X9156015Y-12542555D02*
X9165539Y-12561603D01*
X9165539Y-12561603D02*
X9175063Y-12599698D01*
X9175063Y-12599698D02*
X9175063Y-12628269D01*
X9175063Y-12628269D02*
X9165539Y-12666365D01*
X9165539Y-12666365D02*
X9156015Y-12685412D01*
X9156015Y-12685412D02*
X9136967Y-12704460D01*
X9136967Y-12704460D02*
X9108396Y-12713984D01*
X9108396Y-12713984D02*
X9060777Y-12713984D01*
X9260777Y-12713984D02*
X9260777Y-12580650D01*
X9260777Y-12618746D02*
X9270301Y-12599698D01*
X9270301Y-12599698D02*
X9279824Y-12590174D01*
X9279824Y-12590174D02*
X9298872Y-12580650D01*
X9298872Y-12580650D02*
X9317920Y-12580650D01*
X9384586Y-12713984D02*
X9384586Y-12580650D01*
X9384586Y-12513984D02*
X9375063Y-12523508D01*
X9375063Y-12523508D02*
X9384586Y-12533031D01*
X9384586Y-12533031D02*
X9394110Y-12523508D01*
X9394110Y-12523508D02*
X9384586Y-12513984D01*
X9384586Y-12513984D02*
X9384586Y-12533031D01*
X9508396Y-12713984D02*
X9489348Y-12704460D01*
X9489348Y-12704460D02*
X9479824Y-12685412D01*
X9479824Y-12685412D02*
X9479824Y-12513984D01*
X9613158Y-12713984D02*
X9594110Y-12704460D01*
X9594110Y-12704460D02*
X9584586Y-12685412D01*
X9584586Y-12685412D02*
X9584586Y-12513984D01*
X9841729Y-12713984D02*
X9841729Y-12513984D01*
X9841729Y-12513984D02*
X9908396Y-12656841D01*
X9908396Y-12656841D02*
X9975063Y-12513984D01*
X9975063Y-12513984D02*
X9975063Y-12713984D01*
X10156015Y-12713984D02*
X10156015Y-12609222D01*
X10156015Y-12609222D02*
X10146491Y-12590174D01*
X10146491Y-12590174D02*
X10127444Y-12580650D01*
X10127444Y-12580650D02*
X10089348Y-12580650D01*
X10089348Y-12580650D02*
X10070301Y-12590174D01*
X10156015Y-12704460D02*
X10136967Y-12713984D01*
X10136967Y-12713984D02*
X10089348Y-12713984D01*
X10089348Y-12713984D02*
X10070301Y-12704460D01*
X10070301Y-12704460D02*
X10060777Y-12685412D01*
X10060777Y-12685412D02*
X10060777Y-12666365D01*
X10060777Y-12666365D02*
X10070301Y-12647317D01*
X10070301Y-12647317D02*
X10089348Y-12637793D01*
X10089348Y-12637793D02*
X10136967Y-12637793D01*
X10136967Y-12637793D02*
X10156015Y-12628269D01*
X10251253Y-12580650D02*
X10251253Y-12780650D01*
X10251253Y-12590174D02*
X10270301Y-12580650D01*
X10270301Y-12580650D02*
X10308396Y-12580650D01*
X10308396Y-12580650D02*
X10327444Y-12590174D01*
X10327444Y-12590174D02*
X10336967Y-12599698D01*
X10336967Y-12599698D02*
X10346491Y-12618746D01*
X10346491Y-12618746D02*
X10346491Y-12675888D01*
X10346491Y-12675888D02*
X10336967Y-12694936D01*
X10336967Y-12694936D02*
X10327444Y-12704460D01*
X10327444Y-12704460D02*
X10308396Y-12713984D01*
X10308396Y-12713984D02*
X10270301Y-12713984D01*
X10270301Y-12713984D02*
X10251253Y-12704460D01*
X10432205Y-12694936D02*
X10441729Y-12704460D01*
X10441729Y-12704460D02*
X10432205Y-12713984D01*
X10432205Y-12713984D02*
X10422682Y-12704460D01*
X10422682Y-12704460D02*
X10432205Y-12694936D01*
X10432205Y-12694936D02*
X10432205Y-12713984D01*
X10432205Y-12590174D02*
X10441729Y-12599698D01*
X10441729Y-12599698D02*
X10432205Y-12609222D01*
X10432205Y-12609222D02*
X10422682Y-12599698D01*
X10422682Y-12599698D02*
X10432205Y-12590174D01*
X10432205Y-12590174D02*
X10432205Y-12609222D01*
D12*
X8770000Y-13027500D02*
X8800000Y-13057500D01*
X8800000Y-13027500D02*
X8770000Y-13057500D01*
D11*
X9098872Y-12933984D02*
X9117920Y-12933984D01*
X9117920Y-12933984D02*
X9136967Y-12943508D01*
X9136967Y-12943508D02*
X9146491Y-12953031D01*
X9146491Y-12953031D02*
X9156015Y-12972079D01*
X9156015Y-12972079D02*
X9165539Y-13010174D01*
X9165539Y-13010174D02*
X9165539Y-13057793D01*
X9165539Y-13057793D02*
X9156015Y-13095888D01*
X9156015Y-13095888D02*
X9146491Y-13114936D01*
X9146491Y-13114936D02*
X9136967Y-13124460D01*
X9136967Y-13124460D02*
X9117920Y-13133984D01*
X9117920Y-13133984D02*
X9098872Y-13133984D01*
X9098872Y-13133984D02*
X9079824Y-13124460D01*
X9079824Y-13124460D02*
X9070301Y-13114936D01*
X9070301Y-13114936D02*
X9060777Y-13095888D01*
X9060777Y-13095888D02*
X9051253Y-13057793D01*
X9051253Y-13057793D02*
X9051253Y-13010174D01*
X9051253Y-13010174D02*
X9060777Y-12972079D01*
X9060777Y-12972079D02*
X9070301Y-12953031D01*
X9070301Y-12953031D02*
X9079824Y-12943508D01*
X9079824Y-12943508D02*
X9098872Y-12933984D01*
X9251253Y-13114936D02*
X9260777Y-13124460D01*
X9260777Y-13124460D02*
X9251253Y-13133984D01*
X9251253Y-13133984D02*
X9241729Y-13124460D01*
X9241729Y-13124460D02*
X9251253Y-13114936D01*
X9251253Y-13114936D02*
X9251253Y-13133984D01*
X9327444Y-12933984D02*
X9451253Y-12933984D01*
X9451253Y-12933984D02*
X9384586Y-13010174D01*
X9384586Y-13010174D02*
X9413158Y-13010174D01*
X9413158Y-13010174D02*
X9432205Y-13019698D01*
X9432205Y-13019698D02*
X9441729Y-13029222D01*
X9441729Y-13029222D02*
X9451253Y-13048269D01*
X9451253Y-13048269D02*
X9451253Y-13095888D01*
X9451253Y-13095888D02*
X9441729Y-13114936D01*
X9441729Y-13114936D02*
X9432205Y-13124460D01*
X9432205Y-13124460D02*
X9413158Y-13133984D01*
X9413158Y-13133984D02*
X9356015Y-13133984D01*
X9356015Y-13133984D02*
X9336967Y-13124460D01*
X9336967Y-13124460D02*
X9327444Y-13114936D01*
X9575063Y-12933984D02*
X9594110Y-12933984D01*
X9594110Y-12933984D02*
X9613158Y-12943508D01*
X9613158Y-12943508D02*
X9622682Y-12953031D01*
X9622682Y-12953031D02*
X9632205Y-12972079D01*
X9632205Y-12972079D02*
X9641729Y-13010174D01*
X9641729Y-13010174D02*
X9641729Y-13057793D01*
X9641729Y-13057793D02*
X9632205Y-13095888D01*
X9632205Y-13095888D02*
X9622682Y-13114936D01*
X9622682Y-13114936D02*
X9613158Y-13124460D01*
X9613158Y-13124460D02*
X9594110Y-13133984D01*
X9594110Y-13133984D02*
X9575063Y-13133984D01*
X9575063Y-13133984D02*
X9556015Y-13124460D01*
X9556015Y-13124460D02*
X9546491Y-13114936D01*
X9546491Y-13114936D02*
X9536967Y-13095888D01*
X9536967Y-13095888D02*
X9527444Y-13057793D01*
X9527444Y-13057793D02*
X9527444Y-13010174D01*
X9527444Y-13010174D02*
X9536967Y-12972079D01*
X9536967Y-12972079D02*
X9546491Y-12953031D01*
X9546491Y-12953031D02*
X9556015Y-12943508D01*
X9556015Y-12943508D02*
X9575063Y-12933984D01*
X9765539Y-12933984D02*
X9784586Y-12933984D01*
X9784586Y-12933984D02*
X9803634Y-12943508D01*
X9803634Y-12943508D02*
X9813158Y-12953031D01*
X9813158Y-12953031D02*
X9822682Y-12972079D01*
X9822682Y-12972079D02*
X9832205Y-13010174D01*
X9832205Y-13010174D02*
X9832205Y-13057793D01*
X9832205Y-13057793D02*
X9822682Y-13095888D01*
X9822682Y-13095888D02*
X9813158Y-13114936D01*
X9813158Y-13114936D02*
X9803634Y-13124460D01*
X9803634Y-13124460D02*
X9784586Y-13133984D01*
X9784586Y-13133984D02*
X9765539Y-13133984D01*
X9765539Y-13133984D02*
X9746491Y-13124460D01*
X9746491Y-13124460D02*
X9736967Y-13114936D01*
X9736967Y-13114936D02*
X9727444Y-13095888D01*
X9727444Y-13095888D02*
X9717920Y-13057793D01*
X9717920Y-13057793D02*
X9717920Y-13010174D01*
X9717920Y-13010174D02*
X9727444Y-12972079D01*
X9727444Y-12972079D02*
X9736967Y-12953031D01*
X9736967Y-12953031D02*
X9746491Y-12943508D01*
X9746491Y-12943508D02*
X9765539Y-12933984D01*
X9917920Y-13133984D02*
X9917920Y-13000650D01*
X9917920Y-13019698D02*
X9927444Y-13010174D01*
X9927444Y-13010174D02*
X9946491Y-13000650D01*
X9946491Y-13000650D02*
X9975063Y-13000650D01*
X9975063Y-13000650D02*
X9994110Y-13010174D01*
X9994110Y-13010174D02*
X10003634Y-13029222D01*
X10003634Y-13029222D02*
X10003634Y-13133984D01*
X10003634Y-13029222D02*
X10013158Y-13010174D01*
X10013158Y-13010174D02*
X10032205Y-13000650D01*
X10032205Y-13000650D02*
X10060777Y-13000650D01*
X10060777Y-13000650D02*
X10079825Y-13010174D01*
X10079825Y-13010174D02*
X10089348Y-13029222D01*
X10089348Y-13029222D02*
X10089348Y-13133984D01*
X10184586Y-13133984D02*
X10184586Y-13000650D01*
X10184586Y-13019698D02*
X10194110Y-13010174D01*
X10194110Y-13010174D02*
X10213158Y-13000650D01*
X10213158Y-13000650D02*
X10241729Y-13000650D01*
X10241729Y-13000650D02*
X10260777Y-13010174D01*
X10260777Y-13010174D02*
X10270301Y-13029222D01*
X10270301Y-13029222D02*
X10270301Y-13133984D01*
X10270301Y-13029222D02*
X10279825Y-13010174D01*
X10279825Y-13010174D02*
X10298872Y-13000650D01*
X10298872Y-13000650D02*
X10327444Y-13000650D01*
X10327444Y-13000650D02*
X10346491Y-13010174D01*
X10346491Y-13010174D02*
X10356015Y-13029222D01*
X10356015Y-13029222D02*
X10356015Y-13133984D01*
X10746491Y-12924460D02*
X10575063Y-13181603D01*
X11003634Y-12933984D02*
X11022682Y-12933984D01*
X11022682Y-12933984D02*
X11041729Y-12943508D01*
X11041729Y-12943508D02*
X11051253Y-12953031D01*
X11051253Y-12953031D02*
X11060777Y-12972079D01*
X11060777Y-12972079D02*
X11070301Y-13010174D01*
X11070301Y-13010174D02*
X11070301Y-13057793D01*
X11070301Y-13057793D02*
X11060777Y-13095888D01*
X11060777Y-13095888D02*
X11051253Y-13114936D01*
X11051253Y-13114936D02*
X11041729Y-13124460D01*
X11041729Y-13124460D02*
X11022682Y-13133984D01*
X11022682Y-13133984D02*
X11003634Y-13133984D01*
X11003634Y-13133984D02*
X10984587Y-13124460D01*
X10984587Y-13124460D02*
X10975063Y-13114936D01*
X10975063Y-13114936D02*
X10965539Y-13095888D01*
X10965539Y-13095888D02*
X10956015Y-13057793D01*
X10956015Y-13057793D02*
X10956015Y-13010174D01*
X10956015Y-13010174D02*
X10965539Y-12972079D01*
X10965539Y-12972079D02*
X10975063Y-12953031D01*
X10975063Y-12953031D02*
X10984587Y-12943508D01*
X10984587Y-12943508D02*
X11003634Y-12933984D01*
X11156015Y-13114936D02*
X11165539Y-13124460D01*
X11165539Y-13124460D02*
X11156015Y-13133984D01*
X11156015Y-13133984D02*
X11146491Y-13124460D01*
X11146491Y-13124460D02*
X11156015Y-13114936D01*
X11156015Y-13114936D02*
X11156015Y-13133984D01*
X11289348Y-12933984D02*
X11308396Y-12933984D01*
X11308396Y-12933984D02*
X11327444Y-12943508D01*
X11327444Y-12943508D02*
X11336967Y-12953031D01*
X11336967Y-12953031D02*
X11346491Y-12972079D01*
X11346491Y-12972079D02*
X11356015Y-13010174D01*
X11356015Y-13010174D02*
X11356015Y-13057793D01*
X11356015Y-13057793D02*
X11346491Y-13095888D01*
X11346491Y-13095888D02*
X11336967Y-13114936D01*
X11336967Y-13114936D02*
X11327444Y-13124460D01*
X11327444Y-13124460D02*
X11308396Y-13133984D01*
X11308396Y-13133984D02*
X11289348Y-13133984D01*
X11289348Y-13133984D02*
X11270301Y-13124460D01*
X11270301Y-13124460D02*
X11260777Y-13114936D01*
X11260777Y-13114936D02*
X11251253Y-13095888D01*
X11251253Y-13095888D02*
X11241729Y-13057793D01*
X11241729Y-13057793D02*
X11241729Y-13010174D01*
X11241729Y-13010174D02*
X11251253Y-12972079D01*
X11251253Y-12972079D02*
X11260777Y-12953031D01*
X11260777Y-12953031D02*
X11270301Y-12943508D01*
X11270301Y-12943508D02*
X11289348Y-12933984D01*
X11546491Y-13133984D02*
X11432206Y-13133984D01*
X11489348Y-13133984D02*
X11489348Y-12933984D01*
X11489348Y-12933984D02*
X11470301Y-12962555D01*
X11470301Y-12962555D02*
X11451253Y-12981603D01*
X11451253Y-12981603D02*
X11432206Y-12991127D01*
X11736967Y-13133984D02*
X11622682Y-13133984D01*
X11679825Y-13133984D02*
X11679825Y-12933984D01*
X11679825Y-12933984D02*
X11660777Y-12962555D01*
X11660777Y-12962555D02*
X11641729Y-12981603D01*
X11641729Y-12981603D02*
X11622682Y-12991127D01*
X11851253Y-13019698D02*
X11832206Y-13010174D01*
X11832206Y-13010174D02*
X11822682Y-13000650D01*
X11822682Y-13000650D02*
X11813158Y-12981603D01*
X11813158Y-12981603D02*
X11813158Y-12972079D01*
X11813158Y-12972079D02*
X11822682Y-12953031D01*
X11822682Y-12953031D02*
X11832206Y-12943508D01*
X11832206Y-12943508D02*
X11851253Y-12933984D01*
X11851253Y-12933984D02*
X11889348Y-12933984D01*
X11889348Y-12933984D02*
X11908396Y-12943508D01*
X11908396Y-12943508D02*
X11917920Y-12953031D01*
X11917920Y-12953031D02*
X11927444Y-12972079D01*
X11927444Y-12972079D02*
X11927444Y-12981603D01*
X11927444Y-12981603D02*
X11917920Y-13000650D01*
X11917920Y-13000650D02*
X11908396Y-13010174D01*
X11908396Y-13010174D02*
X11889348Y-13019698D01*
X11889348Y-13019698D02*
X11851253Y-13019698D01*
X11851253Y-13019698D02*
X11832206Y-13029222D01*
X11832206Y-13029222D02*
X11822682Y-13038746D01*
X11822682Y-13038746D02*
X11813158Y-13057793D01*
X11813158Y-13057793D02*
X11813158Y-13095888D01*
X11813158Y-13095888D02*
X11822682Y-13114936D01*
X11822682Y-13114936D02*
X11832206Y-13124460D01*
X11832206Y-13124460D02*
X11851253Y-13133984D01*
X11851253Y-13133984D02*
X11889348Y-13133984D01*
X11889348Y-13133984D02*
X11908396Y-13124460D01*
X11908396Y-13124460D02*
X11917920Y-13114936D01*
X11917920Y-13114936D02*
X11927444Y-13095888D01*
X11927444Y-13095888D02*
X11927444Y-13057793D01*
X11927444Y-13057793D02*
X11917920Y-13038746D01*
X11917920Y-13038746D02*
X11908396Y-13029222D01*
X11908396Y-13029222D02*
X11889348Y-13019698D01*
X12003634Y-12933984D02*
X12003634Y-12972079D01*
X12079825Y-12933984D02*
X12079825Y-12972079D01*
X12375063Y-13210174D02*
X12365539Y-13200650D01*
X12365539Y-13200650D02*
X12346491Y-13172079D01*
X12346491Y-13172079D02*
X12336968Y-13153031D01*
X12336968Y-13153031D02*
X12327444Y-13124460D01*
X12327444Y-13124460D02*
X12317920Y-13076841D01*
X12317920Y-13076841D02*
X12317920Y-13038746D01*
X12317920Y-13038746D02*
X12327444Y-12991127D01*
X12327444Y-12991127D02*
X12336968Y-12962555D01*
X12336968Y-12962555D02*
X12346491Y-12943508D01*
X12346491Y-12943508D02*
X12365539Y-12914936D01*
X12365539Y-12914936D02*
X12375063Y-12905412D01*
X12556015Y-13133984D02*
X12441729Y-13133984D01*
X12498872Y-13133984D02*
X12498872Y-12933984D01*
X12498872Y-12933984D02*
X12479825Y-12962555D01*
X12479825Y-12962555D02*
X12460777Y-12981603D01*
X12460777Y-12981603D02*
X12441729Y-12991127D01*
X12670301Y-13019698D02*
X12651253Y-13010174D01*
X12651253Y-13010174D02*
X12641729Y-13000650D01*
X12641729Y-13000650D02*
X12632206Y-12981603D01*
X12632206Y-12981603D02*
X12632206Y-12972079D01*
X12632206Y-12972079D02*
X12641729Y-12953031D01*
X12641729Y-12953031D02*
X12651253Y-12943508D01*
X12651253Y-12943508D02*
X12670301Y-12933984D01*
X12670301Y-12933984D02*
X12708396Y-12933984D01*
X12708396Y-12933984D02*
X12727444Y-12943508D01*
X12727444Y-12943508D02*
X12736968Y-12953031D01*
X12736968Y-12953031D02*
X12746491Y-12972079D01*
X12746491Y-12972079D02*
X12746491Y-12981603D01*
X12746491Y-12981603D02*
X12736968Y-13000650D01*
X12736968Y-13000650D02*
X12727444Y-13010174D01*
X12727444Y-13010174D02*
X12708396Y-13019698D01*
X12708396Y-13019698D02*
X12670301Y-13019698D01*
X12670301Y-13019698D02*
X12651253Y-13029222D01*
X12651253Y-13029222D02*
X12641729Y-13038746D01*
X12641729Y-13038746D02*
X12632206Y-13057793D01*
X12632206Y-13057793D02*
X12632206Y-13095888D01*
X12632206Y-13095888D02*
X12641729Y-13114936D01*
X12641729Y-13114936D02*
X12651253Y-13124460D01*
X12651253Y-13124460D02*
X12670301Y-13133984D01*
X12670301Y-13133984D02*
X12708396Y-13133984D01*
X12708396Y-13133984D02*
X12727444Y-13124460D01*
X12727444Y-13124460D02*
X12736968Y-13114936D01*
X12736968Y-13114936D02*
X12746491Y-13095888D01*
X12746491Y-13095888D02*
X12746491Y-13057793D01*
X12746491Y-13057793D02*
X12736968Y-13038746D01*
X12736968Y-13038746D02*
X12727444Y-13029222D01*
X12727444Y-13029222D02*
X12708396Y-13019698D01*
X12813158Y-12933984D02*
X12936968Y-12933984D01*
X12936968Y-12933984D02*
X12870301Y-13010174D01*
X12870301Y-13010174D02*
X12898872Y-13010174D01*
X12898872Y-13010174D02*
X12917920Y-13019698D01*
X12917920Y-13019698D02*
X12927444Y-13029222D01*
X12927444Y-13029222D02*
X12936968Y-13048269D01*
X12936968Y-13048269D02*
X12936968Y-13095888D01*
X12936968Y-13095888D02*
X12927444Y-13114936D01*
X12927444Y-13114936D02*
X12917920Y-13124460D01*
X12917920Y-13124460D02*
X12898872Y-13133984D01*
X12898872Y-13133984D02*
X12841729Y-13133984D01*
X12841729Y-13133984D02*
X12822682Y-13124460D01*
X12822682Y-13124460D02*
X12813158Y-13114936D01*
X13175063Y-13133984D02*
X13175063Y-12933984D01*
X13260777Y-13133984D02*
X13260777Y-13029222D01*
X13260777Y-13029222D02*
X13251253Y-13010174D01*
X13251253Y-13010174D02*
X13232206Y-13000650D01*
X13232206Y-13000650D02*
X13203634Y-13000650D01*
X13203634Y-13000650D02*
X13184587Y-13010174D01*
X13184587Y-13010174D02*
X13175063Y-13019698D01*
X13384587Y-13133984D02*
X13365539Y-13124460D01*
X13365539Y-13124460D02*
X13356015Y-13114936D01*
X13356015Y-13114936D02*
X13346491Y-13095888D01*
X13346491Y-13095888D02*
X13346491Y-13038746D01*
X13346491Y-13038746D02*
X13356015Y-13019698D01*
X13356015Y-13019698D02*
X13365539Y-13010174D01*
X13365539Y-13010174D02*
X13384587Y-13000650D01*
X13384587Y-13000650D02*
X13413158Y-13000650D01*
X13413158Y-13000650D02*
X13432206Y-13010174D01*
X13432206Y-13010174D02*
X13441730Y-13019698D01*
X13441730Y-13019698D02*
X13451253Y-13038746D01*
X13451253Y-13038746D02*
X13451253Y-13095888D01*
X13451253Y-13095888D02*
X13441730Y-13114936D01*
X13441730Y-13114936D02*
X13432206Y-13124460D01*
X13432206Y-13124460D02*
X13413158Y-13133984D01*
X13413158Y-13133984D02*
X13384587Y-13133984D01*
X13565539Y-13133984D02*
X13546491Y-13124460D01*
X13546491Y-13124460D02*
X13536968Y-13105412D01*
X13536968Y-13105412D02*
X13536968Y-12933984D01*
X13717920Y-13124460D02*
X13698872Y-13133984D01*
X13698872Y-13133984D02*
X13660777Y-13133984D01*
X13660777Y-13133984D02*
X13641730Y-13124460D01*
X13641730Y-13124460D02*
X13632206Y-13105412D01*
X13632206Y-13105412D02*
X13632206Y-13029222D01*
X13632206Y-13029222D02*
X13641730Y-13010174D01*
X13641730Y-13010174D02*
X13660777Y-13000650D01*
X13660777Y-13000650D02*
X13698872Y-13000650D01*
X13698872Y-13000650D02*
X13717920Y-13010174D01*
X13717920Y-13010174D02*
X13727444Y-13029222D01*
X13727444Y-13029222D02*
X13727444Y-13048269D01*
X13727444Y-13048269D02*
X13632206Y-13067317D01*
X13803634Y-13124460D02*
X13822682Y-13133984D01*
X13822682Y-13133984D02*
X13860777Y-13133984D01*
X13860777Y-13133984D02*
X13879825Y-13124460D01*
X13879825Y-13124460D02*
X13889349Y-13105412D01*
X13889349Y-13105412D02*
X13889349Y-13095888D01*
X13889349Y-13095888D02*
X13879825Y-13076841D01*
X13879825Y-13076841D02*
X13860777Y-13067317D01*
X13860777Y-13067317D02*
X13832206Y-13067317D01*
X13832206Y-13067317D02*
X13813158Y-13057793D01*
X13813158Y-13057793D02*
X13803634Y-13038746D01*
X13803634Y-13038746D02*
X13803634Y-13029222D01*
X13803634Y-13029222D02*
X13813158Y-13010174D01*
X13813158Y-13010174D02*
X13832206Y-13000650D01*
X13832206Y-13000650D02*
X13860777Y-13000650D01*
X13860777Y-13000650D02*
X13879825Y-13010174D01*
X13956015Y-13210174D02*
X13965539Y-13200650D01*
X13965539Y-13200650D02*
X13984587Y-13172079D01*
X13984587Y-13172079D02*
X13994111Y-13153031D01*
X13994111Y-13153031D02*
X14003634Y-13124460D01*
X14003634Y-13124460D02*
X14013158Y-13076841D01*
X14013158Y-13076841D02*
X14013158Y-13038746D01*
X14013158Y-13038746D02*
X14003634Y-12991127D01*
X14003634Y-12991127D02*
X13994111Y-12962555D01*
X13994111Y-12962555D02*
X13984587Y-12943508D01*
X13984587Y-12943508D02*
X13965539Y-12914936D01*
X13965539Y-12914936D02*
X13956015Y-12905412D01*
D12*
X8800000Y-13306500D02*
G75*
G02*
X8700000Y-13306500I-50000J0D01*
G01*
X8700000Y-13306500D02*
G75*
G02*
X8800000Y-13306500I50000J0D01*
G01*
D11*
X9165539Y-13397984D02*
X9051253Y-13397984D01*
X9108396Y-13397984D02*
X9108396Y-13197984D01*
X9108396Y-13197984D02*
X9089348Y-13226555D01*
X9089348Y-13226555D02*
X9070301Y-13245603D01*
X9070301Y-13245603D02*
X9051253Y-13255127D01*
X9251253Y-13378936D02*
X9260777Y-13388460D01*
X9260777Y-13388460D02*
X9251253Y-13397984D01*
X9251253Y-13397984D02*
X9241729Y-13388460D01*
X9241729Y-13388460D02*
X9251253Y-13378936D01*
X9251253Y-13378936D02*
X9251253Y-13397984D01*
X9384586Y-13197984D02*
X9403634Y-13197984D01*
X9403634Y-13197984D02*
X9422682Y-13207508D01*
X9422682Y-13207508D02*
X9432205Y-13217031D01*
X9432205Y-13217031D02*
X9441729Y-13236079D01*
X9441729Y-13236079D02*
X9451253Y-13274174D01*
X9451253Y-13274174D02*
X9451253Y-13321793D01*
X9451253Y-13321793D02*
X9441729Y-13359888D01*
X9441729Y-13359888D02*
X9432205Y-13378936D01*
X9432205Y-13378936D02*
X9422682Y-13388460D01*
X9422682Y-13388460D02*
X9403634Y-13397984D01*
X9403634Y-13397984D02*
X9384586Y-13397984D01*
X9384586Y-13397984D02*
X9365539Y-13388460D01*
X9365539Y-13388460D02*
X9356015Y-13378936D01*
X9356015Y-13378936D02*
X9346491Y-13359888D01*
X9346491Y-13359888D02*
X9336967Y-13321793D01*
X9336967Y-13321793D02*
X9336967Y-13274174D01*
X9336967Y-13274174D02*
X9346491Y-13236079D01*
X9346491Y-13236079D02*
X9356015Y-13217031D01*
X9356015Y-13217031D02*
X9365539Y-13207508D01*
X9365539Y-13207508D02*
X9384586Y-13197984D01*
X9575063Y-13197984D02*
X9594110Y-13197984D01*
X9594110Y-13197984D02*
X9613158Y-13207508D01*
X9613158Y-13207508D02*
X9622682Y-13217031D01*
X9622682Y-13217031D02*
X9632205Y-13236079D01*
X9632205Y-13236079D02*
X9641729Y-13274174D01*
X9641729Y-13274174D02*
X9641729Y-13321793D01*
X9641729Y-13321793D02*
X9632205Y-13359888D01*
X9632205Y-13359888D02*
X9622682Y-13378936D01*
X9622682Y-13378936D02*
X9613158Y-13388460D01*
X9613158Y-13388460D02*
X9594110Y-13397984D01*
X9594110Y-13397984D02*
X9575063Y-13397984D01*
X9575063Y-13397984D02*
X9556015Y-13388460D01*
X9556015Y-13388460D02*
X9546491Y-13378936D01*
X9546491Y-13378936D02*
X9536967Y-13359888D01*
X9536967Y-13359888D02*
X9527444Y-13321793D01*
X9527444Y-13321793D02*
X9527444Y-13274174D01*
X9527444Y-13274174D02*
X9536967Y-13236079D01*
X9536967Y-13236079D02*
X9546491Y-13217031D01*
X9546491Y-13217031D02*
X9556015Y-13207508D01*
X9556015Y-13207508D02*
X9575063Y-13197984D01*
X9765539Y-13197984D02*
X9784586Y-13197984D01*
X9784586Y-13197984D02*
X9803634Y-13207508D01*
X9803634Y-13207508D02*
X9813158Y-13217031D01*
X9813158Y-13217031D02*
X9822682Y-13236079D01*
X9822682Y-13236079D02*
X9832205Y-13274174D01*
X9832205Y-13274174D02*
X9832205Y-13321793D01*
X9832205Y-13321793D02*
X9822682Y-13359888D01*
X9822682Y-13359888D02*
X9813158Y-13378936D01*
X9813158Y-13378936D02*
X9803634Y-13388460D01*
X9803634Y-13388460D02*
X9784586Y-13397984D01*
X9784586Y-13397984D02*
X9765539Y-13397984D01*
X9765539Y-13397984D02*
X9746491Y-13388460D01*
X9746491Y-13388460D02*
X9736967Y-13378936D01*
X9736967Y-13378936D02*
X9727444Y-13359888D01*
X9727444Y-13359888D02*
X9717920Y-13321793D01*
X9717920Y-13321793D02*
X9717920Y-13274174D01*
X9717920Y-13274174D02*
X9727444Y-13236079D01*
X9727444Y-13236079D02*
X9736967Y-13217031D01*
X9736967Y-13217031D02*
X9746491Y-13207508D01*
X9746491Y-13207508D02*
X9765539Y-13197984D01*
X9917920Y-13397984D02*
X9917920Y-13264650D01*
X9917920Y-13283698D02*
X9927444Y-13274174D01*
X9927444Y-13274174D02*
X9946491Y-13264650D01*
X9946491Y-13264650D02*
X9975063Y-13264650D01*
X9975063Y-13264650D02*
X9994110Y-13274174D01*
X9994110Y-13274174D02*
X10003634Y-13293222D01*
X10003634Y-13293222D02*
X10003634Y-13397984D01*
X10003634Y-13293222D02*
X10013158Y-13274174D01*
X10013158Y-13274174D02*
X10032205Y-13264650D01*
X10032205Y-13264650D02*
X10060777Y-13264650D01*
X10060777Y-13264650D02*
X10079825Y-13274174D01*
X10079825Y-13274174D02*
X10089348Y-13293222D01*
X10089348Y-13293222D02*
X10089348Y-13397984D01*
X10184586Y-13397984D02*
X10184586Y-13264650D01*
X10184586Y-13283698D02*
X10194110Y-13274174D01*
X10194110Y-13274174D02*
X10213158Y-13264650D01*
X10213158Y-13264650D02*
X10241729Y-13264650D01*
X10241729Y-13264650D02*
X10260777Y-13274174D01*
X10260777Y-13274174D02*
X10270301Y-13293222D01*
X10270301Y-13293222D02*
X10270301Y-13397984D01*
X10270301Y-13293222D02*
X10279825Y-13274174D01*
X10279825Y-13274174D02*
X10298872Y-13264650D01*
X10298872Y-13264650D02*
X10327444Y-13264650D01*
X10327444Y-13264650D02*
X10346491Y-13274174D01*
X10346491Y-13274174D02*
X10356015Y-13293222D01*
X10356015Y-13293222D02*
X10356015Y-13397984D01*
X10746491Y-13188460D02*
X10575063Y-13445603D01*
X11003634Y-13197984D02*
X11022682Y-13197984D01*
X11022682Y-13197984D02*
X11041729Y-13207508D01*
X11041729Y-13207508D02*
X11051253Y-13217031D01*
X11051253Y-13217031D02*
X11060777Y-13236079D01*
X11060777Y-13236079D02*
X11070301Y-13274174D01*
X11070301Y-13274174D02*
X11070301Y-13321793D01*
X11070301Y-13321793D02*
X11060777Y-13359888D01*
X11060777Y-13359888D02*
X11051253Y-13378936D01*
X11051253Y-13378936D02*
X11041729Y-13388460D01*
X11041729Y-13388460D02*
X11022682Y-13397984D01*
X11022682Y-13397984D02*
X11003634Y-13397984D01*
X11003634Y-13397984D02*
X10984587Y-13388460D01*
X10984587Y-13388460D02*
X10975063Y-13378936D01*
X10975063Y-13378936D02*
X10965539Y-13359888D01*
X10965539Y-13359888D02*
X10956015Y-13321793D01*
X10956015Y-13321793D02*
X10956015Y-13274174D01*
X10956015Y-13274174D02*
X10965539Y-13236079D01*
X10965539Y-13236079D02*
X10975063Y-13217031D01*
X10975063Y-13217031D02*
X10984587Y-13207508D01*
X10984587Y-13207508D02*
X11003634Y-13197984D01*
X11156015Y-13378936D02*
X11165539Y-13388460D01*
X11165539Y-13388460D02*
X11156015Y-13397984D01*
X11156015Y-13397984D02*
X11146491Y-13388460D01*
X11146491Y-13388460D02*
X11156015Y-13378936D01*
X11156015Y-13378936D02*
X11156015Y-13397984D01*
X11289348Y-13197984D02*
X11308396Y-13197984D01*
X11308396Y-13197984D02*
X11327444Y-13207508D01*
X11327444Y-13207508D02*
X11336967Y-13217031D01*
X11336967Y-13217031D02*
X11346491Y-13236079D01*
X11346491Y-13236079D02*
X11356015Y-13274174D01*
X11356015Y-13274174D02*
X11356015Y-13321793D01*
X11356015Y-13321793D02*
X11346491Y-13359888D01*
X11346491Y-13359888D02*
X11336967Y-13378936D01*
X11336967Y-13378936D02*
X11327444Y-13388460D01*
X11327444Y-13388460D02*
X11308396Y-13397984D01*
X11308396Y-13397984D02*
X11289348Y-13397984D01*
X11289348Y-13397984D02*
X11270301Y-13388460D01*
X11270301Y-13388460D02*
X11260777Y-13378936D01*
X11260777Y-13378936D02*
X11251253Y-13359888D01*
X11251253Y-13359888D02*
X11241729Y-13321793D01*
X11241729Y-13321793D02*
X11241729Y-13274174D01*
X11241729Y-13274174D02*
X11251253Y-13236079D01*
X11251253Y-13236079D02*
X11260777Y-13217031D01*
X11260777Y-13217031D02*
X11270301Y-13207508D01*
X11270301Y-13207508D02*
X11289348Y-13197984D01*
X11422682Y-13197984D02*
X11546491Y-13197984D01*
X11546491Y-13197984D02*
X11479825Y-13274174D01*
X11479825Y-13274174D02*
X11508396Y-13274174D01*
X11508396Y-13274174D02*
X11527444Y-13283698D01*
X11527444Y-13283698D02*
X11536967Y-13293222D01*
X11536967Y-13293222D02*
X11546491Y-13312269D01*
X11546491Y-13312269D02*
X11546491Y-13359888D01*
X11546491Y-13359888D02*
X11536967Y-13378936D01*
X11536967Y-13378936D02*
X11527444Y-13388460D01*
X11527444Y-13388460D02*
X11508396Y-13397984D01*
X11508396Y-13397984D02*
X11451253Y-13397984D01*
X11451253Y-13397984D02*
X11432206Y-13388460D01*
X11432206Y-13388460D02*
X11422682Y-13378936D01*
X11641729Y-13397984D02*
X11679825Y-13397984D01*
X11679825Y-13397984D02*
X11698872Y-13388460D01*
X11698872Y-13388460D02*
X11708396Y-13378936D01*
X11708396Y-13378936D02*
X11727444Y-13350365D01*
X11727444Y-13350365D02*
X11736967Y-13312269D01*
X11736967Y-13312269D02*
X11736967Y-13236079D01*
X11736967Y-13236079D02*
X11727444Y-13217031D01*
X11727444Y-13217031D02*
X11717920Y-13207508D01*
X11717920Y-13207508D02*
X11698872Y-13197984D01*
X11698872Y-13197984D02*
X11660777Y-13197984D01*
X11660777Y-13197984D02*
X11641729Y-13207508D01*
X11641729Y-13207508D02*
X11632206Y-13217031D01*
X11632206Y-13217031D02*
X11622682Y-13236079D01*
X11622682Y-13236079D02*
X11622682Y-13283698D01*
X11622682Y-13283698D02*
X11632206Y-13302746D01*
X11632206Y-13302746D02*
X11641729Y-13312269D01*
X11641729Y-13312269D02*
X11660777Y-13321793D01*
X11660777Y-13321793D02*
X11698872Y-13321793D01*
X11698872Y-13321793D02*
X11717920Y-13312269D01*
X11717920Y-13312269D02*
X11727444Y-13302746D01*
X11727444Y-13302746D02*
X11736967Y-13283698D01*
X11908396Y-13264650D02*
X11908396Y-13397984D01*
X11860777Y-13188460D02*
X11813158Y-13331317D01*
X11813158Y-13331317D02*
X11936967Y-13331317D01*
X12003634Y-13197984D02*
X12003634Y-13236079D01*
X12079825Y-13197984D02*
X12079825Y-13236079D01*
X12375063Y-13474174D02*
X12365539Y-13464650D01*
X12365539Y-13464650D02*
X12346491Y-13436079D01*
X12346491Y-13436079D02*
X12336968Y-13417031D01*
X12336968Y-13417031D02*
X12327444Y-13388460D01*
X12327444Y-13388460D02*
X12317920Y-13340841D01*
X12317920Y-13340841D02*
X12317920Y-13302746D01*
X12317920Y-13302746D02*
X12327444Y-13255127D01*
X12327444Y-13255127D02*
X12336968Y-13226555D01*
X12336968Y-13226555D02*
X12346491Y-13207508D01*
X12346491Y-13207508D02*
X12365539Y-13178936D01*
X12365539Y-13178936D02*
X12375063Y-13169412D01*
X12556015Y-13397984D02*
X12441729Y-13397984D01*
X12498872Y-13397984D02*
X12498872Y-13197984D01*
X12498872Y-13197984D02*
X12479825Y-13226555D01*
X12479825Y-13226555D02*
X12460777Y-13245603D01*
X12460777Y-13245603D02*
X12441729Y-13255127D01*
X12651253Y-13397984D02*
X12689348Y-13397984D01*
X12689348Y-13397984D02*
X12708396Y-13388460D01*
X12708396Y-13388460D02*
X12717920Y-13378936D01*
X12717920Y-13378936D02*
X12736968Y-13350365D01*
X12736968Y-13350365D02*
X12746491Y-13312269D01*
X12746491Y-13312269D02*
X12746491Y-13236079D01*
X12746491Y-13236079D02*
X12736968Y-13217031D01*
X12736968Y-13217031D02*
X12727444Y-13207508D01*
X12727444Y-13207508D02*
X12708396Y-13197984D01*
X12708396Y-13197984D02*
X12670301Y-13197984D01*
X12670301Y-13197984D02*
X12651253Y-13207508D01*
X12651253Y-13207508D02*
X12641729Y-13217031D01*
X12641729Y-13217031D02*
X12632206Y-13236079D01*
X12632206Y-13236079D02*
X12632206Y-13283698D01*
X12632206Y-13283698D02*
X12641729Y-13302746D01*
X12641729Y-13302746D02*
X12651253Y-13312269D01*
X12651253Y-13312269D02*
X12670301Y-13321793D01*
X12670301Y-13321793D02*
X12708396Y-13321793D01*
X12708396Y-13321793D02*
X12727444Y-13312269D01*
X12727444Y-13312269D02*
X12736968Y-13302746D01*
X12736968Y-13302746D02*
X12746491Y-13283698D01*
X12984587Y-13397984D02*
X12984587Y-13197984D01*
X13070301Y-13397984D02*
X13070301Y-13293222D01*
X13070301Y-13293222D02*
X13060777Y-13274174D01*
X13060777Y-13274174D02*
X13041730Y-13264650D01*
X13041730Y-13264650D02*
X13013158Y-13264650D01*
X13013158Y-13264650D02*
X12994110Y-13274174D01*
X12994110Y-13274174D02*
X12984587Y-13283698D01*
X13194110Y-13397984D02*
X13175063Y-13388460D01*
X13175063Y-13388460D02*
X13165539Y-13378936D01*
X13165539Y-13378936D02*
X13156015Y-13359888D01*
X13156015Y-13359888D02*
X13156015Y-13302746D01*
X13156015Y-13302746D02*
X13165539Y-13283698D01*
X13165539Y-13283698D02*
X13175063Y-13274174D01*
X13175063Y-13274174D02*
X13194110Y-13264650D01*
X13194110Y-13264650D02*
X13222682Y-13264650D01*
X13222682Y-13264650D02*
X13241730Y-13274174D01*
X13241730Y-13274174D02*
X13251253Y-13283698D01*
X13251253Y-13283698D02*
X13260777Y-13302746D01*
X13260777Y-13302746D02*
X13260777Y-13359888D01*
X13260777Y-13359888D02*
X13251253Y-13378936D01*
X13251253Y-13378936D02*
X13241730Y-13388460D01*
X13241730Y-13388460D02*
X13222682Y-13397984D01*
X13222682Y-13397984D02*
X13194110Y-13397984D01*
X13375063Y-13397984D02*
X13356015Y-13388460D01*
X13356015Y-13388460D02*
X13346491Y-13369412D01*
X13346491Y-13369412D02*
X13346491Y-13197984D01*
X13527444Y-13388460D02*
X13508396Y-13397984D01*
X13508396Y-13397984D02*
X13470301Y-13397984D01*
X13470301Y-13397984D02*
X13451253Y-13388460D01*
X13451253Y-13388460D02*
X13441730Y-13369412D01*
X13441730Y-13369412D02*
X13441730Y-13293222D01*
X13441730Y-13293222D02*
X13451253Y-13274174D01*
X13451253Y-13274174D02*
X13470301Y-13264650D01*
X13470301Y-13264650D02*
X13508396Y-13264650D01*
X13508396Y-13264650D02*
X13527444Y-13274174D01*
X13527444Y-13274174D02*
X13536968Y-13293222D01*
X13536968Y-13293222D02*
X13536968Y-13312269D01*
X13536968Y-13312269D02*
X13441730Y-13331317D01*
X13613158Y-13388460D02*
X13632206Y-13397984D01*
X13632206Y-13397984D02*
X13670301Y-13397984D01*
X13670301Y-13397984D02*
X13689349Y-13388460D01*
X13689349Y-13388460D02*
X13698872Y-13369412D01*
X13698872Y-13369412D02*
X13698872Y-13359888D01*
X13698872Y-13359888D02*
X13689349Y-13340841D01*
X13689349Y-13340841D02*
X13670301Y-13331317D01*
X13670301Y-13331317D02*
X13641730Y-13331317D01*
X13641730Y-13331317D02*
X13622682Y-13321793D01*
X13622682Y-13321793D02*
X13613158Y-13302746D01*
X13613158Y-13302746D02*
X13613158Y-13293222D01*
X13613158Y-13293222D02*
X13622682Y-13274174D01*
X13622682Y-13274174D02*
X13641730Y-13264650D01*
X13641730Y-13264650D02*
X13670301Y-13264650D01*
X13670301Y-13264650D02*
X13689349Y-13274174D01*
X13765539Y-13474174D02*
X13775063Y-13464650D01*
X13775063Y-13464650D02*
X13794111Y-13436079D01*
X13794111Y-13436079D02*
X13803634Y-13417031D01*
X13803634Y-13417031D02*
X13813158Y-13388460D01*
X13813158Y-13388460D02*
X13822682Y-13340841D01*
X13822682Y-13340841D02*
X13822682Y-13302746D01*
X13822682Y-13302746D02*
X13813158Y-13255127D01*
X13813158Y-13255127D02*
X13803634Y-13226555D01*
X13803634Y-13226555D02*
X13794111Y-13207508D01*
X13794111Y-13207508D02*
X13775063Y-13178936D01*
X13775063Y-13178936D02*
X13765539Y-13169412D01*
M02*
