G04 #@! TF.GenerationSoftware,KiCad,Pcbnew,8.0.5*
G04 #@! TF.CreationDate,2024-11-25T10:28:40+11:00*
G04 #@! TF.ProjectId,Vic20_FlashCart,56696332-305f-4466-9c61-736843617274,rev?*
G04 #@! TF.SameCoordinates,Original*
G04 #@! TF.FileFunction,Paste,Top*
G04 #@! TF.FilePolarity,Positive*
%FSLAX46Y46*%
G04 Gerber Fmt 4.6, Leading zero omitted, Abs format (unit mm)*
G04 Created by KiCad (PCBNEW 8.0.5) date 2024-11-25 10:28:40*
%MOMM*%
%LPD*%
G01*
G04 APERTURE LIST*
G04 Aperture macros list*
%AMRoundRect*
0 Rectangle with rounded corners*
0 $1 Rounding radius*
0 $2 $3 $4 $5 $6 $7 $8 $9 X,Y pos of 4 corners*
0 Add a 4 corners polygon primitive as box body*
4,1,4,$2,$3,$4,$5,$6,$7,$8,$9,$2,$3,0*
0 Add four circle primitives for the rounded corners*
1,1,$1+$1,$2,$3*
1,1,$1+$1,$4,$5*
1,1,$1+$1,$6,$7*
1,1,$1+$1,$8,$9*
0 Add four rect primitives between the rounded corners*
20,1,$1+$1,$2,$3,$4,$5,0*
20,1,$1+$1,$4,$5,$6,$7,0*
20,1,$1+$1,$6,$7,$8,$9,0*
20,1,$1+$1,$8,$9,$2,$3,0*%
G04 Aperture macros list end*
%ADD10R,0.350000X1.870000*%
%ADD11RoundRect,0.200000X0.200000X0.275000X-0.200000X0.275000X-0.200000X-0.275000X0.200000X-0.275000X0*%
%ADD12RoundRect,0.225000X-0.225000X-0.250000X0.225000X-0.250000X0.225000X0.250000X-0.225000X0.250000X0*%
%ADD13RoundRect,0.150000X-0.825000X-0.150000X0.825000X-0.150000X0.825000X0.150000X-0.825000X0.150000X0*%
%ADD14RoundRect,0.225000X0.225000X0.250000X-0.225000X0.250000X-0.225000X-0.250000X0.225000X-0.250000X0*%
%ADD15RoundRect,0.150000X-0.150000X-0.587500X0.150000X-0.587500X0.150000X0.587500X-0.150000X0.587500X0*%
%ADD16RoundRect,0.150000X-0.587500X-0.150000X0.587500X-0.150000X0.587500X0.150000X-0.587500X0.150000X0*%
%ADD17RoundRect,0.200000X0.275000X-0.200000X0.275000X0.200000X-0.275000X0.200000X-0.275000X-0.200000X0*%
%ADD18RoundRect,0.200000X-0.200000X-0.275000X0.200000X-0.275000X0.200000X0.275000X-0.200000X0.275000X0*%
%ADD19R,0.950000X1.400000*%
%ADD20RoundRect,0.075000X-0.075000X0.712500X-0.075000X-0.712500X0.075000X-0.712500X0.075000X0.712500X0*%
%ADD21RoundRect,0.100000X-0.637500X-0.100000X0.637500X-0.100000X0.637500X0.100000X-0.637500X0.100000X0*%
G04 APERTURE END LIST*
D10*
X142588680Y-89990200D03*
X142038680Y-89990200D03*
X141488680Y-89990200D03*
X140938680Y-89990200D03*
X140388680Y-89990200D03*
X139838680Y-89990200D03*
X139288680Y-89990200D03*
X139288680Y-102530200D03*
X139838680Y-102530200D03*
X140388680Y-102530200D03*
X140938680Y-102530200D03*
X141488680Y-102530200D03*
X142038680Y-102530200D03*
X142588680Y-102530200D03*
X143138680Y-102530200D03*
X143688680Y-102530200D03*
X144238680Y-102530200D03*
X144788680Y-102530200D03*
X145338680Y-102530200D03*
X145888680Y-102530200D03*
X146438680Y-102530200D03*
X146438680Y-89990200D03*
X145888680Y-89990200D03*
X145338680Y-89990200D03*
X144788680Y-89990200D03*
X144238680Y-89990200D03*
X143688680Y-89990200D03*
X143138680Y-89990200D03*
D11*
X131787900Y-93992700D03*
X130137900Y-93992700D03*
X131787900Y-106692700D03*
X130137900Y-106692700D03*
D12*
X112902400Y-97536000D03*
X114452400Y-97536000D03*
D13*
X109285000Y-99974400D03*
X109285000Y-101244400D03*
X109285000Y-102514400D03*
X109285000Y-103784400D03*
X109285000Y-105054400D03*
X109285000Y-106324400D03*
X109285000Y-107594400D03*
X114235000Y-107594400D03*
X114235000Y-106324400D03*
X114235000Y-105054400D03*
X114235000Y-103784400D03*
X114235000Y-102514400D03*
X114235000Y-101244400D03*
X114235000Y-99974400D03*
D14*
X163970000Y-86505700D03*
X162420000Y-86505700D03*
D15*
X161163000Y-89377700D03*
X159893000Y-89377700D03*
X158623000Y-89377700D03*
X157353000Y-89377700D03*
D16*
X155600500Y-91135200D03*
X155600500Y-92405200D03*
X155600500Y-93675200D03*
X155600500Y-94945200D03*
X155600500Y-96215200D03*
X155600500Y-97485200D03*
X155600500Y-98755200D03*
X155600500Y-100025200D03*
X155600500Y-101295200D03*
D15*
X157353000Y-103052700D03*
X158623000Y-103052700D03*
X159893000Y-103052700D03*
X161163000Y-103052700D03*
X162433000Y-103052700D03*
X163703000Y-103052700D03*
X164973000Y-103052700D03*
D16*
X166725500Y-101295200D03*
X166725500Y-100025200D03*
X166725500Y-98755200D03*
X166725500Y-97485200D03*
X166725500Y-96215200D03*
X166725500Y-94945200D03*
X166725500Y-93675200D03*
X166725500Y-92405200D03*
X166725500Y-91135200D03*
D15*
X164973000Y-89377700D03*
X163703000Y-89377700D03*
X162433000Y-89377700D03*
D17*
X121920000Y-78676000D03*
X121920000Y-77026000D03*
D11*
X131787900Y-96532700D03*
X130137900Y-96532700D03*
D18*
X91885000Y-106964000D03*
X93535000Y-106964000D03*
D14*
X177838400Y-87542200D03*
X176288400Y-87542200D03*
X102642000Y-86106000D03*
X101092000Y-86106000D03*
D19*
X90980200Y-77190600D03*
X92880200Y-77190600D03*
D17*
X98272600Y-85852000D03*
X98272600Y-84202000D03*
D11*
X131787900Y-99072700D03*
X130137900Y-99072700D03*
D17*
X116840000Y-78676000D03*
X116840000Y-77026000D03*
X124460000Y-78676000D03*
X124460000Y-77026000D03*
X119380000Y-78676000D03*
X119380000Y-77026000D03*
D18*
X91885000Y-99344000D03*
X93535000Y-99344000D03*
X127890000Y-83896000D03*
X129540000Y-83896000D03*
D20*
X179724600Y-89807700D03*
X179224600Y-89807700D03*
X178724600Y-89807700D03*
X178224600Y-89807700D03*
X177724600Y-89807700D03*
X177224600Y-89807700D03*
X176724600Y-89807700D03*
X176224600Y-89807700D03*
X175724600Y-89807700D03*
X175224600Y-89807700D03*
X174724600Y-89807700D03*
X174224600Y-89807700D03*
X173724600Y-89807700D03*
X173224600Y-89807700D03*
X172724600Y-89807700D03*
X172224600Y-89807700D03*
X172224600Y-103182700D03*
X172724600Y-103182700D03*
X173224600Y-103182700D03*
X173724600Y-103182700D03*
X174224600Y-103182700D03*
X174724600Y-103182700D03*
X175224600Y-103182700D03*
X175724600Y-103182700D03*
X176224600Y-103182700D03*
X176724600Y-103182700D03*
X177224600Y-103182700D03*
X177724600Y-103182700D03*
X178224600Y-103182700D03*
X178724600Y-103182700D03*
X179224600Y-103182700D03*
X179724600Y-103182700D03*
D11*
X131787900Y-101612700D03*
X130137900Y-101612700D03*
X131787900Y-104152700D03*
X130137900Y-104152700D03*
D18*
X132080000Y-83896000D03*
X133730000Y-83896000D03*
D17*
X114300000Y-78676000D03*
X114300000Y-77026000D03*
D11*
X107755743Y-81280000D03*
X106105743Y-81280000D03*
D21*
X97086500Y-87839000D03*
X97086500Y-88489000D03*
X97086500Y-89139000D03*
X97086500Y-89789000D03*
X97086500Y-90439000D03*
X97086500Y-91089000D03*
X97086500Y-91739000D03*
X102811500Y-91739000D03*
X102811500Y-91089000D03*
X102811500Y-90439000D03*
X102811500Y-89789000D03*
X102811500Y-89139000D03*
X102811500Y-88489000D03*
X102811500Y-87839000D03*
D14*
X144688680Y-86453000D03*
X143138680Y-86453000D03*
M02*
