M48
; DRILL file {KiCad 9.0.7} date 2026-01-28T19:45:31+1100
; FORMAT={-:-/ absolute / metric / decimal}
; #@! TF.CreationDate,2026-01-28T19:45:31+11:00
; #@! TF.GenerationSoftware,Kicad,Pcbnew,9.0.7
; #@! TF.FileFunction,Plated,1,2,PTH
FMAT,2
METRIC
; #@! TA.AperFunction,Plated,PTH,ViaDrill
T1C0.300
; #@! TA.AperFunction,Plated,PTH,ComponentDrill
T2C1.000
%
G90
G05
T1
X142.14Y-112.62
X142.3Y-113.92
X142.37Y-90.19
X142.42Y-119.38
X142.57Y-121.3
X142.66Y-105.01
X142.79Y-124.56
X143.05Y-93.55
X143.09Y-98.72
X143.227Y-120.684
X143.28Y-130.35
X143.72Y-96.78
X144.69Y-107.21
X144.87Y-121.32
X146.05Y-90.84
X146.05Y-91.89
X146.07Y-119.64
X146.34Y-129.36
X146.745Y-104.58
X146.76Y-96.48
X146.83Y-111.72
X146.86Y-106.63
X147.34Y-130.62
X147.395Y-101.89
X147.57Y-118.13
X147.59Y-121.5
X148.245Y-129.38
X148.59Y-104.55
X148.7Y-91.94
X148.71Y-117.61
X148.92Y-90.91
X148.98Y-105.74
X150.695Y-104.892
X151.16Y-96.61
X151.29Y-117.66
X151.33Y-130.3
X151.385Y-120.716
X151.57Y-98.69
X151.73Y-124.56
X152.07Y-121.3
X152.16Y-109.972
X152.22Y-119.36
X152.32Y-108.26
X152.37Y-90.07
X152.53Y-92.53
X152.8Y-133.92
T2
X139.7Y-88.9
X139.7Y-91.44
X139.7Y-93.98
X139.7Y-96.52
X139.7Y-99.06
X139.7Y-101.6
X139.7Y-104.14
X139.7Y-106.68
X139.7Y-109.22
X139.7Y-111.76
X139.7Y-114.3
X139.7Y-116.84
X139.7Y-119.38
X139.7Y-121.92
X139.7Y-124.46
X139.7Y-127.0
X139.7Y-129.54
X139.7Y-132.08
X139.7Y-134.62
X139.7Y-137.16
X144.78Y-88.9
X146.045Y-137.16
X147.32Y-88.9
X148.585Y-137.16
X149.86Y-88.9
X154.94Y-88.9
X154.94Y-91.44
X154.94Y-93.98
X154.94Y-96.52
X154.94Y-99.06
X154.94Y-101.6
X154.94Y-104.14
X154.94Y-106.68
X154.94Y-109.22
X154.94Y-111.76
X154.94Y-114.3
X154.94Y-116.84
X154.94Y-119.38
X154.94Y-121.92
X154.94Y-124.46
X154.94Y-127.0
X154.94Y-129.54
X154.94Y-132.08
X154.94Y-134.62
X154.94Y-137.16
M30
