G04 #@! TF.GenerationSoftware,KiCad,Pcbnew,9.0.7*
G04 #@! TF.CreationDate,2026-02-14T15:35:40+11:00*
G04 #@! TF.ProjectId,16BitFlashROM_Adaptor,31364269-7446-46c6-9173-68524f4d5f41,rev?*
G04 #@! TF.SameCoordinates,Original*
G04 #@! TF.FileFunction,Soldermask,Top*
G04 #@! TF.FilePolarity,Negative*
%FSLAX46Y46*%
G04 Gerber Fmt 4.6, Leading zero omitted, Abs format (unit mm)*
G04 Created by KiCad (PCBNEW 9.0.7) date 2026-02-14 15:35:40*
%MOMM*%
%LPD*%
G01*
G04 APERTURE LIST*
%ADD10R,1.700000X1.700000*%
%ADD11C,1.700000*%
%ADD12R,0.300000X1.300000*%
G04 APERTURE END LIST*
D10*
X144740000Y-88860000D03*
D11*
X147280000Y-88860000D03*
X149820000Y-88860000D03*
X144780000Y-91400000D03*
X147280000Y-91400000D03*
D12*
X153070000Y-103185000D03*
X152570000Y-103185000D03*
X152070000Y-103185000D03*
X151570000Y-103185000D03*
X151070000Y-103185000D03*
X150570000Y-103185000D03*
X150070000Y-103185000D03*
X149570000Y-103185000D03*
X149070000Y-103185000D03*
X148570000Y-103185000D03*
X148070000Y-103185000D03*
X147570000Y-103185000D03*
X147070000Y-103185000D03*
X146570000Y-103185000D03*
X146070000Y-103185000D03*
X145570000Y-103185000D03*
X145070000Y-103185000D03*
X144570000Y-103185000D03*
X144070000Y-103185000D03*
X143570000Y-103185000D03*
X143070000Y-103185000D03*
X142570000Y-103185000D03*
X142070000Y-103185000D03*
X141570000Y-103185000D03*
X141570000Y-122885000D03*
X142070000Y-122885000D03*
X142570000Y-122885000D03*
X143070000Y-122885000D03*
X143570000Y-122885000D03*
X144070000Y-122885000D03*
X144570000Y-122885000D03*
X145070000Y-122885000D03*
X145570000Y-122885000D03*
X146070000Y-122885000D03*
X146570000Y-122885000D03*
X147070000Y-122885000D03*
X147570000Y-122885000D03*
X148070000Y-122885000D03*
X148570000Y-122885000D03*
X149070000Y-122885000D03*
X149570000Y-122885000D03*
X150070000Y-122885000D03*
X150570000Y-122885000D03*
X151070000Y-122885000D03*
X151570000Y-122885000D03*
X152070000Y-122885000D03*
X152570000Y-122885000D03*
X153070000Y-122885000D03*
D10*
X146045000Y-137160000D03*
D11*
X148585000Y-137160000D03*
D10*
X139700000Y-88900000D03*
D11*
X139700000Y-91440000D03*
X139700000Y-93980000D03*
X139700000Y-96520000D03*
X139700000Y-99060000D03*
X139700000Y-101600000D03*
X139700000Y-104140000D03*
X139700000Y-106680000D03*
X139700000Y-109220000D03*
X139700000Y-111760000D03*
X139700000Y-114300000D03*
X139700000Y-116840000D03*
X139700000Y-119380000D03*
X139700000Y-121920000D03*
X139700000Y-124460000D03*
X139700000Y-127000000D03*
X139700000Y-129540000D03*
X139700000Y-132080000D03*
X139700000Y-134620000D03*
X139700000Y-137160000D03*
D10*
X154940000Y-137160000D03*
D11*
X154940000Y-134620000D03*
X154940000Y-132080000D03*
X154940000Y-129540000D03*
X154940000Y-127000000D03*
X154940000Y-124460000D03*
X154940000Y-121920000D03*
X154940000Y-119380000D03*
X154940000Y-116840000D03*
X154940000Y-114300000D03*
X154940000Y-111760000D03*
X154940000Y-109220000D03*
X154940000Y-106680000D03*
X154940000Y-104140000D03*
X154940000Y-101600000D03*
X154940000Y-99060000D03*
X154940000Y-96520000D03*
X154940000Y-93980000D03*
X154940000Y-91440000D03*
X154940000Y-88900000D03*
M02*
