G04 #@! TF.GenerationSoftware,KiCad,Pcbnew,9.0.7*
G04 #@! TF.CreationDate,2026-01-28T19:45:35+11:00*
G04 #@! TF.ProjectId,16BitFlashROM_Adaptor,31364269-7446-46c6-9173-68524f4d5f41,rev?*
G04 #@! TF.SameCoordinates,Original*
G04 #@! TF.FileFunction,Copper,L2,Bot*
G04 #@! TF.FilePolarity,Positive*
%FSLAX46Y46*%
G04 Gerber Fmt 4.6, Leading zero omitted, Abs format (unit mm)*
G04 Created by KiCad (PCBNEW 9.0.7) date 2026-01-28 19:45:35*
%MOMM*%
%LPD*%
G01*
G04 APERTURE LIST*
G04 Aperture macros list*
%AMRoundRect*
0 Rectangle with rounded corners*
0 $1 Rounding radius*
0 $2 $3 $4 $5 $6 $7 $8 $9 X,Y pos of 4 corners*
0 Add a 4 corners polygon primitive as box body*
4,1,4,$2,$3,$4,$5,$6,$7,$8,$9,$2,$3,0*
0 Add four circle primitives for the rounded corners*
1,1,$1+$1,$2,$3*
1,1,$1+$1,$4,$5*
1,1,$1+$1,$6,$7*
1,1,$1+$1,$8,$9*
0 Add four rect primitives between the rounded corners*
20,1,$1+$1,$2,$3,$4,$5,0*
20,1,$1+$1,$4,$5,$6,$7,0*
20,1,$1+$1,$6,$7,$8,$9,0*
20,1,$1+$1,$8,$9,$2,$3,0*%
%AMFreePoly0*
4,1,23,0.550000,-0.750000,0.000000,-0.750000,0.000000,-0.745722,-0.065263,-0.745722,-0.191342,-0.711940,-0.304381,-0.646677,-0.396677,-0.554381,-0.461940,-0.441342,-0.495722,-0.315263,-0.495722,-0.250000,-0.500000,-0.250000,-0.500000,0.250000,-0.495722,0.250000,-0.495722,0.315263,-0.461940,0.441342,-0.396677,0.554381,-0.304381,0.646677,-0.191342,0.711940,-0.065263,0.745722,0.000000,0.745722,
0.000000,0.750000,0.550000,0.750000,0.550000,-0.750000,0.550000,-0.750000,$1*%
%AMFreePoly1*
4,1,23,0.000000,0.745722,0.065263,0.745722,0.191342,0.711940,0.304381,0.646677,0.396677,0.554381,0.461940,0.441342,0.495722,0.315263,0.495722,0.250000,0.500000,0.250000,0.500000,-0.250000,0.495722,-0.250000,0.495722,-0.315263,0.461940,-0.441342,0.396677,-0.554381,0.304381,-0.646677,0.191342,-0.711940,0.065263,-0.745722,0.000000,-0.745722,0.000000,-0.750000,-0.550000,-0.750000,
-0.550000,0.750000,0.000000,0.750000,0.000000,0.745722,0.000000,0.745722,$1*%
G04 Aperture macros list end*
G04 #@! TA.AperFunction,EtchedComponent*
%ADD10C,0.000000*%
G04 #@! TD*
G04 #@! TA.AperFunction,ComponentPad*
%ADD11R,1.700000X1.700000*%
G04 #@! TD*
G04 #@! TA.AperFunction,ComponentPad*
%ADD12C,1.700000*%
G04 #@! TD*
G04 #@! TA.AperFunction,SMDPad,CuDef*
%ADD13C,1.000000*%
G04 #@! TD*
G04 #@! TA.AperFunction,SMDPad,CuDef*
%ADD14RoundRect,0.200000X-0.275000X0.200000X-0.275000X-0.200000X0.275000X-0.200000X0.275000X0.200000X0*%
G04 #@! TD*
G04 #@! TA.AperFunction,SMDPad,CuDef*
%ADD15FreePoly0,0.000000*%
G04 #@! TD*
G04 #@! TA.AperFunction,SMDPad,CuDef*
%ADD16R,1.000000X1.500000*%
G04 #@! TD*
G04 #@! TA.AperFunction,SMDPad,CuDef*
%ADD17FreePoly1,0.000000*%
G04 #@! TD*
G04 #@! TA.AperFunction,SMDPad,CuDef*
%ADD18RoundRect,0.200000X0.200000X0.275000X-0.200000X0.275000X-0.200000X-0.275000X0.200000X-0.275000X0*%
G04 #@! TD*
G04 #@! TA.AperFunction,SMDPad,CuDef*
%ADD19RoundRect,0.225000X-0.225000X-0.250000X0.225000X-0.250000X0.225000X0.250000X-0.225000X0.250000X0*%
G04 #@! TD*
G04 #@! TA.AperFunction,SMDPad,CuDef*
%ADD20RoundRect,0.200000X0.275000X-0.200000X0.275000X0.200000X-0.275000X0.200000X-0.275000X-0.200000X0*%
G04 #@! TD*
G04 #@! TA.AperFunction,ViaPad*
%ADD21C,0.700000*%
G04 #@! TD*
G04 #@! TA.AperFunction,Conductor*
%ADD22C,0.250000*%
G04 #@! TD*
G04 APERTURE END LIST*
D10*
G04 #@! TA.AperFunction,EtchedComponent*
G36*
X149020000Y-109772500D02*
G01*
X148520000Y-109772500D01*
X148520000Y-109372500D01*
X149020000Y-109372500D01*
X149020000Y-109772500D01*
G37*
G04 #@! TD.AperFunction*
G04 #@! TA.AperFunction,EtchedComponent*
G36*
X149020000Y-110572500D02*
G01*
X148520000Y-110572500D01*
X148520000Y-110172500D01*
X149020000Y-110172500D01*
X149020000Y-110572500D01*
G37*
G04 #@! TD.AperFunction*
D11*
X144780000Y-88900000D03*
D12*
X147320000Y-88900000D03*
X149860000Y-88900000D03*
D11*
X146045000Y-137160000D03*
D12*
X148585000Y-137160000D03*
D13*
X147560000Y-99190000D03*
D11*
X139700000Y-88900000D03*
D12*
X139700000Y-91440000D03*
X139700000Y-93980000D03*
X139700000Y-96520000D03*
X139700000Y-99060000D03*
X139700000Y-101600000D03*
X139700000Y-104140000D03*
X139700000Y-106680000D03*
X139700000Y-109220000D03*
X139700000Y-111760000D03*
X139700000Y-114300000D03*
X139700000Y-116840000D03*
X139700000Y-119380000D03*
X139700000Y-121920000D03*
X139700000Y-124460000D03*
X139700000Y-127000000D03*
X139700000Y-129540000D03*
X139700000Y-132080000D03*
X139700000Y-134620000D03*
X139700000Y-137160000D03*
D14*
X150695000Y-106382500D03*
X150695000Y-108032500D03*
D15*
X148120000Y-109972500D03*
D16*
X149420000Y-109972500D03*
D17*
X150720000Y-109972500D03*
D14*
X149860000Y-91940000D03*
X149860000Y-93590000D03*
D18*
X152475000Y-137160000D03*
X150825000Y-137160000D03*
D19*
X146040000Y-122820000D03*
X147590000Y-122820000D03*
D11*
X154940000Y-137160000D03*
D12*
X154940000Y-134620000D03*
X154940000Y-132080000D03*
X154940000Y-129540000D03*
X154940000Y-127000000D03*
X154940000Y-124460000D03*
X154940000Y-121920000D03*
X154940000Y-119380000D03*
X154940000Y-116840000D03*
X154940000Y-114300000D03*
X154940000Y-111760000D03*
X154940000Y-109220000D03*
X154940000Y-106680000D03*
X154940000Y-104140000D03*
X154940000Y-101600000D03*
X154940000Y-99060000D03*
X154940000Y-96520000D03*
X154940000Y-93980000D03*
X154940000Y-91440000D03*
X154940000Y-88900000D03*
D20*
X144780000Y-93590000D03*
X144780000Y-91940000D03*
D13*
X146570000Y-100970000D03*
D20*
X147320000Y-93590000D03*
X147320000Y-91940000D03*
D13*
X148570000Y-100950000D03*
D21*
X152800000Y-133920000D03*
X142570000Y-121300000D03*
X148710000Y-117610000D03*
X151160000Y-96610000D03*
X142660000Y-105010000D03*
X152320000Y-108260000D03*
X151570000Y-98690000D03*
X143050000Y-93550000D03*
X146340000Y-129360000D03*
X152370000Y-90070000D03*
X148980000Y-105740000D03*
X142370000Y-90190000D03*
X147340000Y-130620000D03*
X146760000Y-96480000D03*
X143280000Y-130350000D03*
X144870000Y-121320000D03*
X151330000Y-130300000D03*
X151290000Y-117660000D03*
X148245000Y-129380000D03*
X146860000Y-106630000D03*
X143090000Y-98720000D03*
X146050000Y-90840000D03*
X142140000Y-112620000D03*
X151730000Y-124560000D03*
X142790000Y-124560000D03*
X148920000Y-90910000D03*
X146830000Y-111720000D03*
X152070000Y-121300000D03*
X143720000Y-96780000D03*
X152530000Y-92530000D03*
X142300000Y-113920000D03*
X143226585Y-120684451D03*
X144690000Y-107210000D03*
X151385248Y-120715947D03*
X152220000Y-119360000D03*
X142420000Y-119380000D03*
X152160000Y-109972500D03*
X148590000Y-104550000D03*
X147395000Y-101890000D03*
X147590000Y-121500000D03*
X150695000Y-104892500D03*
X146070000Y-119640000D03*
X148700000Y-91940000D03*
X147570000Y-118130000D03*
X146050000Y-91890000D03*
X146745000Y-104580000D03*
D22*
X141860000Y-113920000D02*
X139700000Y-111760000D01*
X142300000Y-113920000D02*
X141860000Y-113920000D01*
X149420000Y-110972500D02*
X150207500Y-111760000D01*
X149420000Y-109972500D02*
X149420000Y-110972500D01*
X150207500Y-111760000D02*
X154940000Y-111760000D01*
X141250000Y-116830000D02*
X139710000Y-116830000D01*
X139710000Y-116830000D02*
X139700000Y-116840000D01*
X143226585Y-120684451D02*
X143226585Y-118806585D01*
X143226585Y-118806585D02*
X141250000Y-116830000D01*
X144690000Y-107210000D02*
X144690000Y-107820000D01*
X144690000Y-107820000D02*
X146842500Y-109972500D01*
X146842500Y-109972500D02*
X148120000Y-109972500D01*
X151385248Y-119192671D02*
X153737919Y-116840000D01*
X153737919Y-116840000D02*
X154940000Y-116840000D01*
X151385248Y-120715947D02*
X151385248Y-119192671D01*
X152240000Y-119380000D02*
X154940000Y-119380000D01*
X152220000Y-119360000D02*
X152240000Y-119380000D01*
X142420000Y-119380000D02*
X139700000Y-119380000D01*
X150695000Y-108032500D02*
X150695000Y-108047500D01*
X150720000Y-109972500D02*
X152160000Y-109972500D01*
X150695000Y-109947500D02*
X150720000Y-109972500D01*
X150695000Y-108032500D02*
X150695000Y-109947500D01*
X148590000Y-104550000D02*
X148570000Y-104530000D01*
X148570000Y-104530000D02*
X148570000Y-100950000D01*
X147560000Y-101725000D02*
X147560000Y-99190000D01*
X147395000Y-101890000D02*
X147560000Y-101725000D01*
X152475000Y-137160000D02*
X154940000Y-137160000D01*
X150695000Y-104892500D02*
X150695000Y-106382500D01*
X149860000Y-99960000D02*
X149860000Y-93590000D01*
X150675000Y-106680000D02*
X150675000Y-100775000D01*
X150675000Y-100775000D02*
X149860000Y-99960000D01*
X147590000Y-121500000D02*
X147590000Y-122820000D01*
X146045000Y-137160000D02*
X146045000Y-133715000D01*
X146045000Y-133715000D02*
X148940000Y-130820000D01*
X148940000Y-121010000D02*
X147570000Y-119640000D01*
X147570000Y-119640000D02*
X146070000Y-119640000D01*
X148940000Y-130820000D02*
X148940000Y-121010000D01*
X147320000Y-91940000D02*
X147320000Y-88900000D01*
X148700000Y-91940000D02*
X147320000Y-91940000D01*
X150825000Y-137160000D02*
X148585000Y-137160000D01*
X150080000Y-120660000D02*
X150080000Y-132620000D01*
X147570000Y-118150000D02*
X150080000Y-120660000D01*
X147570000Y-118130000D02*
X147570000Y-118150000D01*
X150080000Y-132620000D02*
X148585000Y-134115000D01*
X148585000Y-134115000D02*
X148585000Y-137160000D01*
X149860000Y-91940000D02*
X149860000Y-88900000D01*
X144780000Y-91940000D02*
X144780000Y-88900000D01*
X146050000Y-91890000D02*
X146000000Y-91940000D01*
X146000000Y-91940000D02*
X144780000Y-91940000D01*
X146570000Y-104405000D02*
X146570000Y-100970000D01*
X146745000Y-104580000D02*
X146570000Y-104405000D01*
G04 #@! TA.AperFunction,Conductor*
G36*
X156582539Y-87220185D02*
G01*
X156628294Y-87272989D01*
X156639500Y-87324500D01*
X156639500Y-138735500D01*
X156619815Y-138802539D01*
X156567011Y-138848294D01*
X156515500Y-138859500D01*
X138124500Y-138859500D01*
X138057461Y-138839815D01*
X138011706Y-138787011D01*
X138000500Y-138735500D01*
X138000500Y-137056530D01*
X138649500Y-137056530D01*
X138649500Y-137263469D01*
X138689868Y-137466412D01*
X138689870Y-137466420D01*
X138769058Y-137657596D01*
X138884024Y-137829657D01*
X139030342Y-137975975D01*
X139030345Y-137975977D01*
X139202402Y-138090941D01*
X139393580Y-138170130D01*
X139538052Y-138198867D01*
X139596530Y-138210499D01*
X139596534Y-138210500D01*
X139596535Y-138210500D01*
X139803466Y-138210500D01*
X139803467Y-138210499D01*
X140006420Y-138170130D01*
X140197598Y-138090941D01*
X140369655Y-137975977D01*
X140515977Y-137829655D01*
X140630941Y-137657598D01*
X140710130Y-137466420D01*
X140750500Y-137263465D01*
X140750500Y-137056535D01*
X140710130Y-136853580D01*
X140630941Y-136662402D01*
X140515977Y-136490345D01*
X140515975Y-136490342D01*
X140369657Y-136344024D01*
X140310579Y-136304550D01*
X144993969Y-136304550D01*
X144994500Y-136310861D01*
X144994500Y-138029752D01*
X145006131Y-138088229D01*
X145006132Y-138088230D01*
X145050447Y-138154552D01*
X145116769Y-138198867D01*
X145116770Y-138198868D01*
X145175247Y-138210499D01*
X145175250Y-138210500D01*
X145175252Y-138210500D01*
X146914750Y-138210500D01*
X146914751Y-138210499D01*
X146929568Y-138207552D01*
X146973229Y-138198868D01*
X146973229Y-138198867D01*
X146973231Y-138198867D01*
X147039552Y-138154552D01*
X147083867Y-138088231D01*
X147083867Y-138088229D01*
X147083868Y-138088229D01*
X147095499Y-138029752D01*
X147095500Y-138029750D01*
X147095500Y-136290249D01*
X147095499Y-136290247D01*
X147083868Y-136231770D01*
X147083867Y-136231769D01*
X147061430Y-136198191D01*
X147056305Y-136189821D01*
X147044341Y-136168422D01*
X147044339Y-136168419D01*
X147044337Y-136168416D01*
X146400157Y-135413171D01*
X146371628Y-135349391D01*
X146370500Y-135332702D01*
X146370500Y-133901189D01*
X146390185Y-133834150D01*
X146406819Y-133813508D01*
X147786516Y-132433811D01*
X149200465Y-131019862D01*
X149243318Y-130945639D01*
X149265500Y-130862853D01*
X149265500Y-130777147D01*
X149265500Y-121062855D01*
X149265501Y-121062842D01*
X149265501Y-120967149D01*
X149260772Y-120949500D01*
X149243318Y-120884362D01*
X149234738Y-120869500D01*
X149222618Y-120848507D01*
X149222618Y-120848508D01*
X149200465Y-120810138D01*
X149139862Y-120749535D01*
X149139861Y-120749534D01*
X149135531Y-120745204D01*
X149135520Y-120745194D01*
X147769864Y-119379537D01*
X147769863Y-119379536D01*
X147769862Y-119379535D01*
X147732750Y-119358108D01*
X147695640Y-119336682D01*
X147654246Y-119325591D01*
X147612853Y-119314500D01*
X147612852Y-119314500D01*
X146833477Y-119314500D01*
X146792592Y-119307566D01*
X146304011Y-119136932D01*
X146304011Y-119136931D01*
X146292993Y-119133083D01*
X146282485Y-119127016D01*
X146252988Y-119119112D01*
X146248638Y-119117593D01*
X146248631Y-119117591D01*
X146218702Y-119107139D01*
X146205299Y-119102967D01*
X146203644Y-119102513D01*
X146201285Y-119101881D01*
X146194199Y-119100838D01*
X146194201Y-119100822D01*
X146173154Y-119097720D01*
X146142476Y-119089500D01*
X146142475Y-119089500D01*
X145997525Y-119089500D01*
X145892682Y-119117593D01*
X145857511Y-119127017D01*
X145731988Y-119199488D01*
X145731982Y-119199493D01*
X145629493Y-119301982D01*
X145629488Y-119301988D01*
X145557017Y-119427511D01*
X145557016Y-119427515D01*
X145519500Y-119567525D01*
X145519500Y-119712475D01*
X145543089Y-119800509D01*
X145557017Y-119852488D01*
X145629488Y-119978011D01*
X145629490Y-119978013D01*
X145629491Y-119978015D01*
X145731985Y-120080509D01*
X145731986Y-120080510D01*
X145731988Y-120080511D01*
X145857511Y-120152982D01*
X145857512Y-120152982D01*
X145857515Y-120152984D01*
X145997525Y-120190500D01*
X145997528Y-120190500D01*
X146142474Y-120190500D01*
X146142475Y-120190500D01*
X146196851Y-120175929D01*
X146218709Y-120172858D01*
X146252961Y-120160894D01*
X146257409Y-120159703D01*
X146257410Y-120159703D01*
X146282478Y-120152986D01*
X146282478Y-120152985D01*
X146282485Y-120152984D01*
X146282894Y-120152748D01*
X146304016Y-120143065D01*
X146792590Y-119972434D01*
X146833474Y-119965500D01*
X147383811Y-119965500D01*
X147450850Y-119985185D01*
X147471492Y-120001819D01*
X148578181Y-121108507D01*
X148611666Y-121169830D01*
X148614500Y-121196188D01*
X148614500Y-130633811D01*
X148594815Y-130700850D01*
X148578181Y-130721492D01*
X145784537Y-133515135D01*
X145784533Y-133515141D01*
X145741681Y-133589361D01*
X145741682Y-133589362D01*
X145719500Y-133672147D01*
X145719500Y-135332702D01*
X145699815Y-135399741D01*
X145689847Y-135413166D01*
X145511083Y-135622750D01*
X145045656Y-136168422D01*
X145033895Y-136188508D01*
X145033894Y-136188510D01*
X145025798Y-136202337D01*
X145006133Y-136231769D01*
X144994500Y-136290252D01*
X144994500Y-136295517D01*
X144994041Y-136297726D01*
X144994500Y-136300437D01*
X144994500Y-136303006D01*
X144993969Y-136304550D01*
X140310579Y-136304550D01*
X140201655Y-136231770D01*
X140197598Y-136229059D01*
X140006420Y-136149870D01*
X140006412Y-136149868D01*
X139803469Y-136109500D01*
X139803465Y-136109500D01*
X139596535Y-136109500D01*
X139596530Y-136109500D01*
X139393587Y-136149868D01*
X139393579Y-136149870D01*
X139202403Y-136229058D01*
X139030342Y-136344024D01*
X138884024Y-136490342D01*
X138769058Y-136662403D01*
X138689870Y-136853579D01*
X138689868Y-136853587D01*
X138649500Y-137056530D01*
X138000500Y-137056530D01*
X138000500Y-134516530D01*
X138649500Y-134516530D01*
X138649500Y-134723469D01*
X138689868Y-134926412D01*
X138689870Y-134926420D01*
X138769058Y-135117596D01*
X138884024Y-135289657D01*
X139030342Y-135435975D01*
X139030345Y-135435977D01*
X139202402Y-135550941D01*
X139393580Y-135630130D01*
X139596530Y-135670499D01*
X139596534Y-135670500D01*
X139596535Y-135670500D01*
X139803466Y-135670500D01*
X139803467Y-135670499D01*
X140006420Y-135630130D01*
X140197598Y-135550941D01*
X140369655Y-135435977D01*
X140515977Y-135289655D01*
X140630941Y-135117598D01*
X140710130Y-134926420D01*
X140750500Y-134723465D01*
X140750500Y-134516535D01*
X140710130Y-134313580D01*
X140630941Y-134122402D01*
X140515977Y-133950345D01*
X140515975Y-133950342D01*
X140369657Y-133804024D01*
X140283626Y-133746541D01*
X140197598Y-133689059D01*
X140006420Y-133609870D01*
X140006412Y-133609868D01*
X139803469Y-133569500D01*
X139803465Y-133569500D01*
X139596535Y-133569500D01*
X139596530Y-133569500D01*
X139393587Y-133609868D01*
X139393579Y-133609870D01*
X139202403Y-133689058D01*
X139030342Y-133804024D01*
X138884024Y-133950342D01*
X138769058Y-134122403D01*
X138689870Y-134313579D01*
X138689868Y-134313587D01*
X138649500Y-134516530D01*
X138000500Y-134516530D01*
X138000500Y-131976530D01*
X138649500Y-131976530D01*
X138649500Y-132183469D01*
X138689868Y-132386412D01*
X138689870Y-132386420D01*
X138769059Y-132577598D01*
X138826024Y-132662853D01*
X138884024Y-132749657D01*
X139030342Y-132895975D01*
X139030345Y-132895977D01*
X139202402Y-133010941D01*
X139393580Y-133090130D01*
X139596530Y-133130499D01*
X139596534Y-133130500D01*
X139596535Y-133130500D01*
X139803466Y-133130500D01*
X139803467Y-133130499D01*
X140006420Y-133090130D01*
X140197598Y-133010941D01*
X140369655Y-132895977D01*
X140515977Y-132749655D01*
X140630941Y-132577598D01*
X140710130Y-132386420D01*
X140750500Y-132183465D01*
X140750500Y-131976535D01*
X140710130Y-131773580D01*
X140630941Y-131582402D01*
X140515977Y-131410345D01*
X140515975Y-131410342D01*
X140369657Y-131264024D01*
X140283626Y-131206541D01*
X140197598Y-131149059D01*
X140006420Y-131069870D01*
X140006412Y-131069868D01*
X139803469Y-131029500D01*
X139803465Y-131029500D01*
X139596535Y-131029500D01*
X139596530Y-131029500D01*
X139393587Y-131069868D01*
X139393579Y-131069870D01*
X139202403Y-131149058D01*
X139030342Y-131264024D01*
X138884024Y-131410342D01*
X138769058Y-131582403D01*
X138689870Y-131773579D01*
X138689868Y-131773587D01*
X138649500Y-131976530D01*
X138000500Y-131976530D01*
X138000500Y-129436530D01*
X138649500Y-129436530D01*
X138649500Y-129643469D01*
X138689868Y-129846412D01*
X138689870Y-129846420D01*
X138769058Y-130037596D01*
X138884024Y-130209657D01*
X139030342Y-130355975D01*
X139030345Y-130355977D01*
X139202402Y-130470941D01*
X139393580Y-130550130D01*
X139596530Y-130590499D01*
X139596534Y-130590500D01*
X139596535Y-130590500D01*
X139803466Y-130590500D01*
X139803467Y-130590499D01*
X140006420Y-130550130D01*
X140197598Y-130470941D01*
X140369655Y-130355977D01*
X140515977Y-130209655D01*
X140630941Y-130037598D01*
X140710130Y-129846420D01*
X140750500Y-129643465D01*
X140750500Y-129436535D01*
X140710130Y-129233580D01*
X140630941Y-129042402D01*
X140515977Y-128870345D01*
X140515975Y-128870342D01*
X140369657Y-128724024D01*
X140283626Y-128666541D01*
X140197598Y-128609059D01*
X140006420Y-128529870D01*
X140006412Y-128529868D01*
X139803469Y-128489500D01*
X139803465Y-128489500D01*
X139596535Y-128489500D01*
X139596530Y-128489500D01*
X139393587Y-128529868D01*
X139393579Y-128529870D01*
X139202403Y-128609058D01*
X139030342Y-128724024D01*
X138884024Y-128870342D01*
X138769058Y-129042403D01*
X138689870Y-129233579D01*
X138689868Y-129233587D01*
X138649500Y-129436530D01*
X138000500Y-129436530D01*
X138000500Y-126896530D01*
X138649500Y-126896530D01*
X138649500Y-127103469D01*
X138689868Y-127306412D01*
X138689870Y-127306420D01*
X138769058Y-127497596D01*
X138884024Y-127669657D01*
X139030342Y-127815975D01*
X139030345Y-127815977D01*
X139202402Y-127930941D01*
X139393580Y-128010130D01*
X139596530Y-128050499D01*
X139596534Y-128050500D01*
X139596535Y-128050500D01*
X139803466Y-128050500D01*
X139803467Y-128050499D01*
X140006420Y-128010130D01*
X140197598Y-127930941D01*
X140369655Y-127815977D01*
X140515977Y-127669655D01*
X140630941Y-127497598D01*
X140710130Y-127306420D01*
X140750500Y-127103465D01*
X140750500Y-126896535D01*
X140710130Y-126693580D01*
X140630941Y-126502402D01*
X140515977Y-126330345D01*
X140515975Y-126330342D01*
X140369657Y-126184024D01*
X140283626Y-126126541D01*
X140197598Y-126069059D01*
X140006420Y-125989870D01*
X140006412Y-125989868D01*
X139803469Y-125949500D01*
X139803465Y-125949500D01*
X139596535Y-125949500D01*
X139596530Y-125949500D01*
X139393587Y-125989868D01*
X139393579Y-125989870D01*
X139202403Y-126069058D01*
X139030342Y-126184024D01*
X138884024Y-126330342D01*
X138769058Y-126502403D01*
X138689870Y-126693579D01*
X138689868Y-126693587D01*
X138649500Y-126896530D01*
X138000500Y-126896530D01*
X138000500Y-124356530D01*
X138649500Y-124356530D01*
X138649500Y-124563469D01*
X138689868Y-124766412D01*
X138689870Y-124766420D01*
X138769058Y-124957596D01*
X138884024Y-125129657D01*
X139030342Y-125275975D01*
X139030345Y-125275977D01*
X139202402Y-125390941D01*
X139393580Y-125470130D01*
X139596530Y-125510499D01*
X139596534Y-125510500D01*
X139596535Y-125510500D01*
X139803466Y-125510500D01*
X139803467Y-125510499D01*
X140006420Y-125470130D01*
X140197598Y-125390941D01*
X140369655Y-125275977D01*
X140515977Y-125129655D01*
X140630941Y-124957598D01*
X140710130Y-124766420D01*
X140750500Y-124563465D01*
X140750500Y-124356535D01*
X140710130Y-124153580D01*
X140630941Y-123962402D01*
X140515977Y-123790345D01*
X140515975Y-123790342D01*
X140369657Y-123644024D01*
X140283626Y-123586541D01*
X140197598Y-123529059D01*
X140182323Y-123522732D01*
X140006420Y-123449870D01*
X140006412Y-123449868D01*
X139803469Y-123409500D01*
X139803465Y-123409500D01*
X139596535Y-123409500D01*
X139596530Y-123409500D01*
X139393587Y-123449868D01*
X139393579Y-123449870D01*
X139202403Y-123529058D01*
X139030342Y-123644024D01*
X138884024Y-123790342D01*
X138769058Y-123962403D01*
X138689870Y-124153579D01*
X138689868Y-124153587D01*
X138649500Y-124356530D01*
X138000500Y-124356530D01*
X138000500Y-123118322D01*
X145090001Y-123118322D01*
X145100144Y-123217607D01*
X145153452Y-123378481D01*
X145153457Y-123378492D01*
X145242424Y-123522728D01*
X145242427Y-123522732D01*
X145362267Y-123642572D01*
X145362271Y-123642575D01*
X145506507Y-123731542D01*
X145506518Y-123731547D01*
X145667393Y-123784855D01*
X145766683Y-123794999D01*
X145790000Y-123794998D01*
X145790000Y-123070000D01*
X145090001Y-123070000D01*
X145090001Y-123118322D01*
X138000500Y-123118322D01*
X138000500Y-121816530D01*
X138649500Y-121816530D01*
X138649500Y-122023469D01*
X138688493Y-122219498D01*
X138689870Y-122226420D01*
X138769059Y-122417598D01*
X138826541Y-122503626D01*
X138884024Y-122589657D01*
X139030342Y-122735975D01*
X139030345Y-122735977D01*
X139202402Y-122850941D01*
X139393580Y-122930130D01*
X139596530Y-122970499D01*
X139596534Y-122970500D01*
X139596535Y-122970500D01*
X139803466Y-122970500D01*
X139803467Y-122970499D01*
X140006420Y-122930130D01*
X140197598Y-122850941D01*
X140369655Y-122735977D01*
X140515977Y-122589655D01*
X140561398Y-122521677D01*
X145090000Y-122521677D01*
X145090000Y-122570000D01*
X145790000Y-122570000D01*
X145790000Y-121845000D01*
X146290000Y-121845000D01*
X146290000Y-123794999D01*
X146313308Y-123794999D01*
X146313322Y-123794998D01*
X146412607Y-123784855D01*
X146573481Y-123731547D01*
X146573492Y-123731542D01*
X146717728Y-123642575D01*
X146717732Y-123642572D01*
X146837573Y-123522731D01*
X146899606Y-123422160D01*
X146951554Y-123375435D01*
X147020516Y-123364212D01*
X147084599Y-123392056D01*
X147092826Y-123399575D01*
X147111774Y-123418523D01*
X147111778Y-123418526D01*
X147111780Y-123418528D01*
X147231874Y-123479719D01*
X147231876Y-123479719D01*
X147231878Y-123479720D01*
X147331507Y-123495500D01*
X147331512Y-123495500D01*
X147848493Y-123495500D01*
X147948121Y-123479720D01*
X147948121Y-123479719D01*
X147948126Y-123479719D01*
X148068220Y-123418528D01*
X148163528Y-123323220D01*
X148224719Y-123203126D01*
X148238151Y-123118322D01*
X148240500Y-123103493D01*
X148240500Y-122536506D01*
X148224720Y-122436877D01*
X148224719Y-122436875D01*
X148224719Y-122436874D01*
X148212094Y-122412097D01*
X148203596Y-122390714D01*
X148200463Y-122380034D01*
X148063089Y-122117266D01*
X148025708Y-122045764D01*
X148019353Y-122013780D01*
X148011754Y-121982068D01*
X148012398Y-121978772D01*
X148012093Y-121977234D01*
X148018531Y-121947431D01*
X148093068Y-121734008D01*
X148102744Y-121712899D01*
X148102984Y-121712485D01*
X148109703Y-121687406D01*
X148112414Y-121678611D01*
X148122852Y-121648725D01*
X148122858Y-121648709D01*
X148127037Y-121635284D01*
X148127460Y-121633741D01*
X148128117Y-121631285D01*
X148128117Y-121631281D01*
X148128118Y-121631278D01*
X148129158Y-121624209D01*
X148129176Y-121624211D01*
X148132277Y-121603161D01*
X148140500Y-121572475D01*
X148140500Y-121427525D01*
X148102984Y-121287515D01*
X148090820Y-121266447D01*
X148030511Y-121161988D01*
X148030506Y-121161982D01*
X147928017Y-121059493D01*
X147928011Y-121059488D01*
X147802488Y-120987017D01*
X147802489Y-120987017D01*
X147791006Y-120983940D01*
X147662475Y-120949500D01*
X147517525Y-120949500D01*
X147388993Y-120983940D01*
X147377511Y-120987017D01*
X147251988Y-121059488D01*
X147251982Y-121059493D01*
X147149493Y-121161982D01*
X147149488Y-121161988D01*
X147077017Y-121287511D01*
X147077016Y-121287515D01*
X147039500Y-121427525D01*
X147039500Y-121427527D01*
X147039500Y-121572476D01*
X147052105Y-121619521D01*
X147052106Y-121619521D01*
X147054068Y-121626843D01*
X147057141Y-121648709D01*
X147069110Y-121682981D01*
X147077015Y-121712481D01*
X147077017Y-121712488D01*
X147077258Y-121712905D01*
X147086930Y-121734008D01*
X147161467Y-121947430D01*
X147163110Y-121980001D01*
X147166024Y-122012478D01*
X147164907Y-122015643D01*
X147164987Y-122017211D01*
X147154290Y-122045764D01*
X147154290Y-122045765D01*
X147089754Y-122169208D01*
X147041250Y-122219498D01*
X146973256Y-122235582D01*
X146907361Y-122212352D01*
X146874326Y-122176855D01*
X146837571Y-122117266D01*
X146717732Y-121997427D01*
X146717728Y-121997424D01*
X146573492Y-121908457D01*
X146573481Y-121908452D01*
X146412606Y-121855144D01*
X146313322Y-121845000D01*
X146290000Y-121845000D01*
X145790000Y-121845000D01*
X145790000Y-121844999D01*
X145766693Y-121845000D01*
X145766674Y-121845001D01*
X145667392Y-121855144D01*
X145506518Y-121908452D01*
X145506507Y-121908457D01*
X145362271Y-121997424D01*
X145362267Y-121997427D01*
X145242427Y-122117267D01*
X145242424Y-122117271D01*
X145153457Y-122261507D01*
X145153452Y-122261518D01*
X145100144Y-122422393D01*
X145090000Y-122521677D01*
X140561398Y-122521677D01*
X140630941Y-122417598D01*
X140710130Y-122226420D01*
X140750500Y-122023465D01*
X140750500Y-121816535D01*
X140710130Y-121613580D01*
X140630941Y-121422402D01*
X140515977Y-121250345D01*
X140515975Y-121250342D01*
X140369657Y-121104024D01*
X140247589Y-121022462D01*
X140197598Y-120989059D01*
X140192668Y-120987017D01*
X140006420Y-120909870D01*
X140006412Y-120909868D01*
X139803469Y-120869500D01*
X139803465Y-120869500D01*
X139596535Y-120869500D01*
X139596530Y-120869500D01*
X139393587Y-120909868D01*
X139393579Y-120909870D01*
X139202403Y-120989058D01*
X139030342Y-121104024D01*
X138884024Y-121250342D01*
X138769058Y-121422403D01*
X138689870Y-121613579D01*
X138689868Y-121613587D01*
X138649500Y-121816530D01*
X138000500Y-121816530D01*
X138000500Y-114193753D01*
X138350000Y-114193753D01*
X138350000Y-114406246D01*
X138383242Y-114616127D01*
X138383242Y-114616130D01*
X138448904Y-114818217D01*
X138545375Y-115007550D01*
X138584728Y-115061716D01*
X139217037Y-114429408D01*
X139234075Y-114492993D01*
X139299901Y-114607007D01*
X139392993Y-114700099D01*
X139507007Y-114765925D01*
X139570590Y-114782962D01*
X138938282Y-115415269D01*
X138938282Y-115415270D01*
X138992449Y-115454624D01*
X139181782Y-115551095D01*
X139357973Y-115608343D01*
X139415648Y-115647780D01*
X139442847Y-115712139D01*
X139430932Y-115780985D01*
X139383688Y-115832461D01*
X139367108Y-115840835D01*
X139202403Y-115909057D01*
X139030342Y-116024024D01*
X138884024Y-116170342D01*
X138769058Y-116342403D01*
X138689870Y-116533579D01*
X138689868Y-116533587D01*
X138649500Y-116736530D01*
X138649500Y-116943469D01*
X138689868Y-117146412D01*
X138689870Y-117146420D01*
X138769058Y-117337596D01*
X138884024Y-117509657D01*
X139030342Y-117655975D01*
X139030345Y-117655977D01*
X139202402Y-117770941D01*
X139393580Y-117850130D01*
X139555145Y-117882267D01*
X139596530Y-117890499D01*
X139596534Y-117890500D01*
X139596535Y-117890500D01*
X139803466Y-117890500D01*
X139803467Y-117890499D01*
X140006420Y-117850130D01*
X140197598Y-117770941D01*
X140241543Y-117741577D01*
X140266813Y-117728606D01*
X140272219Y-117726574D01*
X140272231Y-117726571D01*
X141139959Y-117299192D01*
X141208794Y-117287232D01*
X141273171Y-117314385D01*
X141282425Y-117322752D01*
X142577492Y-118617819D01*
X142585905Y-118633227D01*
X142598377Y-118645588D01*
X142602303Y-118663257D01*
X142610977Y-118679142D01*
X142609724Y-118696655D01*
X142613533Y-118713794D01*
X142607284Y-118730779D01*
X142605993Y-118748834D01*
X142595471Y-118762889D01*
X142589409Y-118779367D01*
X142574966Y-118790279D01*
X142564121Y-118804767D01*
X142547562Y-118810985D01*
X142533663Y-118821487D01*
X142506264Y-118826493D01*
X142499209Y-118829143D01*
X142492925Y-118829620D01*
X142492475Y-118829500D01*
X142347525Y-118829500D01*
X142293155Y-118844068D01*
X142281744Y-118845671D01*
X142281728Y-118845673D01*
X142271299Y-118847139D01*
X142271285Y-118847142D01*
X142241356Y-118857593D01*
X142241357Y-118857594D01*
X142237010Y-118859111D01*
X142207515Y-118867016D01*
X142196999Y-118873086D01*
X142185991Y-118876931D01*
X142185989Y-118876931D01*
X141697407Y-119047566D01*
X141656522Y-119054500D01*
X141469093Y-119054500D01*
X141415415Y-119042279D01*
X140270344Y-118492396D01*
X140265680Y-118490602D01*
X140266032Y-118489686D01*
X140240524Y-118477741D01*
X140225962Y-118468011D01*
X140197598Y-118449059D01*
X140165356Y-118435704D01*
X140006420Y-118369870D01*
X140006412Y-118369868D01*
X139803469Y-118329500D01*
X139803465Y-118329500D01*
X139596535Y-118329500D01*
X139596530Y-118329500D01*
X139393587Y-118369868D01*
X139393579Y-118369870D01*
X139202403Y-118449058D01*
X139030342Y-118564024D01*
X138884024Y-118710342D01*
X138769058Y-118882403D01*
X138689870Y-119073579D01*
X138689868Y-119073587D01*
X138649500Y-119276530D01*
X138649500Y-119483469D01*
X138689868Y-119686412D01*
X138689870Y-119686420D01*
X138758995Y-119853303D01*
X138769059Y-119877598D01*
X138798913Y-119922278D01*
X138884024Y-120049657D01*
X139030342Y-120195975D01*
X139030345Y-120195977D01*
X139202402Y-120310941D01*
X139393580Y-120390130D01*
X139596530Y-120430499D01*
X139596534Y-120430500D01*
X139596535Y-120430500D01*
X139803466Y-120430500D01*
X139803467Y-120430499D01*
X140006420Y-120390130D01*
X140197598Y-120310941D01*
X140240588Y-120282215D01*
X140267022Y-120268812D01*
X140270324Y-120267608D01*
X140270337Y-120267605D01*
X141415414Y-119717720D01*
X141427094Y-119715061D01*
X141434157Y-119710523D01*
X141469092Y-119705500D01*
X141656526Y-119705500D01*
X141697410Y-119712434D01*
X142100766Y-119853303D01*
X142157119Y-119872984D01*
X142185982Y-119883064D01*
X142207104Y-119892746D01*
X142207515Y-119892984D01*
X142232581Y-119899700D01*
X142241376Y-119902410D01*
X142271290Y-119912858D01*
X142276896Y-119914603D01*
X142284711Y-119917036D01*
X142284715Y-119917037D01*
X142286258Y-119917460D01*
X142288714Y-119918117D01*
X142288716Y-119918117D01*
X142288720Y-119918118D01*
X142295790Y-119919158D01*
X142295787Y-119919176D01*
X142316837Y-119922277D01*
X142347525Y-119930500D01*
X142347528Y-119930500D01*
X142492472Y-119930500D01*
X142492475Y-119930500D01*
X142632485Y-119892984D01*
X142701215Y-119853302D01*
X142769113Y-119836830D01*
X142835140Y-119859682D01*
X142878331Y-119914603D01*
X142884973Y-119984156D01*
X142880280Y-120001575D01*
X142723515Y-120450442D01*
X142719667Y-120461458D01*
X142713601Y-120471966D01*
X142705699Y-120501453D01*
X142704183Y-120505795D01*
X142693725Y-120535741D01*
X142689518Y-120549270D01*
X142689079Y-120550871D01*
X142688466Y-120553165D01*
X142687425Y-120560246D01*
X142687408Y-120560243D01*
X142684305Y-120581294D01*
X142676085Y-120611974D01*
X142676085Y-120611975D01*
X142676085Y-120611976D01*
X142676085Y-120756926D01*
X142710230Y-120884355D01*
X142713602Y-120896939D01*
X142786073Y-121022462D01*
X142786075Y-121022464D01*
X142786076Y-121022466D01*
X142888570Y-121124960D01*
X142888571Y-121124961D01*
X142888573Y-121124962D01*
X143014096Y-121197433D01*
X143014097Y-121197433D01*
X143014100Y-121197435D01*
X143154110Y-121234951D01*
X143154113Y-121234951D01*
X143299057Y-121234951D01*
X143299060Y-121234951D01*
X143439070Y-121197435D01*
X143564600Y-121124960D01*
X143667094Y-121022466D01*
X143739569Y-120896936D01*
X143777085Y-120756926D01*
X143777085Y-120611976D01*
X143777084Y-120611974D01*
X143765141Y-120567403D01*
X143762514Y-120557600D01*
X143759443Y-120535741D01*
X143747476Y-120501476D01*
X143739569Y-120471966D01*
X143739330Y-120471553D01*
X143729650Y-120450435D01*
X143708589Y-120390131D01*
X143563085Y-119973501D01*
X143559019Y-119961859D01*
X143552085Y-119920975D01*
X143552085Y-118763734D01*
X143552085Y-118763732D01*
X143529903Y-118680947D01*
X143528861Y-118679142D01*
X143487054Y-118606729D01*
X143487048Y-118606721D01*
X142937852Y-118057525D01*
X147019500Y-118057525D01*
X147019500Y-118202475D01*
X147053537Y-118329500D01*
X147057017Y-118342488D01*
X147129488Y-118468011D01*
X147129490Y-118468013D01*
X147129491Y-118468015D01*
X147231985Y-118570509D01*
X147276294Y-118596091D01*
X147294261Y-118610210D01*
X147347955Y-118637464D01*
X147350845Y-118639133D01*
X147350850Y-118639136D01*
X147357511Y-118642982D01*
X147357512Y-118642982D01*
X147357515Y-118642984D01*
X147357517Y-118642984D01*
X147360237Y-118644111D01*
X147368906Y-118648099D01*
X147836408Y-118885401D01*
X147867963Y-118908290D01*
X149718181Y-120758508D01*
X149751666Y-120819831D01*
X149754500Y-120846189D01*
X149754500Y-132433811D01*
X149734815Y-132500850D01*
X149718181Y-132521492D01*
X148324537Y-133915135D01*
X148324533Y-133915141D01*
X148281681Y-133989361D01*
X148281682Y-133989362D01*
X148259500Y-134072147D01*
X148259500Y-135390907D01*
X148247279Y-135444585D01*
X147697394Y-136589660D01*
X147695601Y-136594322D01*
X147694700Y-136593975D01*
X147682743Y-136619471D01*
X147654057Y-136662405D01*
X147574870Y-136853579D01*
X147574868Y-136853587D01*
X147534500Y-137056530D01*
X147534500Y-137263469D01*
X147574868Y-137466412D01*
X147574870Y-137466420D01*
X147654058Y-137657596D01*
X147769024Y-137829657D01*
X147915342Y-137975975D01*
X147915345Y-137975977D01*
X148087402Y-138090941D01*
X148278580Y-138170130D01*
X148423052Y-138198867D01*
X148481530Y-138210499D01*
X148481534Y-138210500D01*
X148481535Y-138210500D01*
X148688466Y-138210500D01*
X148688467Y-138210499D01*
X148891420Y-138170130D01*
X149082598Y-138090941D01*
X149125588Y-138062215D01*
X149152022Y-138048812D01*
X149155321Y-138047609D01*
X149155337Y-138047605D01*
X150058859Y-137613718D01*
X150067730Y-137612267D01*
X150075195Y-137607254D01*
X150101670Y-137606716D01*
X150127810Y-137602442D01*
X150137906Y-137605981D01*
X150145050Y-137605837D01*
X150177445Y-137619844D01*
X150336173Y-137717363D01*
X150358939Y-137735331D01*
X150386658Y-137763050D01*
X150499694Y-137820645D01*
X150499698Y-137820647D01*
X150593475Y-137835499D01*
X150593481Y-137835500D01*
X151056518Y-137835499D01*
X151150304Y-137820646D01*
X151263342Y-137763050D01*
X151353050Y-137673342D01*
X151410646Y-137560304D01*
X151410646Y-137560302D01*
X151410647Y-137560301D01*
X151425499Y-137466524D01*
X151425500Y-137466519D01*
X151425499Y-136853482D01*
X151425498Y-136853475D01*
X151874500Y-136853475D01*
X151874500Y-137466517D01*
X151885292Y-137534657D01*
X151889354Y-137560304D01*
X151946950Y-137673342D01*
X151946952Y-137673344D01*
X151946954Y-137673347D01*
X152036652Y-137763045D01*
X152036654Y-137763046D01*
X152036658Y-137763050D01*
X152149694Y-137820645D01*
X152149698Y-137820647D01*
X152243475Y-137835499D01*
X152243481Y-137835500D01*
X152706518Y-137835499D01*
X152800304Y-137820646D01*
X152913342Y-137763050D01*
X152941061Y-137735330D01*
X152963826Y-137717362D01*
X153158150Y-137597974D01*
X153225574Y-137579653D01*
X153292201Y-137600693D01*
X153303529Y-137609285D01*
X153360172Y-137657598D01*
X153948422Y-138159341D01*
X153982351Y-138179210D01*
X154011769Y-138198867D01*
X154070252Y-138210500D01*
X154075524Y-138210500D01*
X154077726Y-138210958D01*
X154080431Y-138210500D01*
X154083004Y-138210500D01*
X154084545Y-138211030D01*
X154090856Y-138210500D01*
X155809750Y-138210500D01*
X155809751Y-138210499D01*
X155824568Y-138207552D01*
X155868229Y-138198868D01*
X155868229Y-138198867D01*
X155868231Y-138198867D01*
X155934552Y-138154552D01*
X155978867Y-138088231D01*
X155978867Y-138088229D01*
X155978868Y-138088229D01*
X155990499Y-138029752D01*
X155990500Y-138029750D01*
X155990500Y-136290249D01*
X155990499Y-136290247D01*
X155978868Y-136231770D01*
X155978867Y-136231769D01*
X155934552Y-136165447D01*
X155868230Y-136121132D01*
X155868229Y-136121131D01*
X155809752Y-136109500D01*
X155809748Y-136109500D01*
X154070252Y-136109500D01*
X154070249Y-136109500D01*
X154011769Y-136121132D01*
X154011766Y-136121133D01*
X153978190Y-136143568D01*
X153969818Y-136148695D01*
X153948428Y-136160655D01*
X153948426Y-136160656D01*
X153948425Y-136160657D01*
X153865052Y-136231769D01*
X153303529Y-136710714D01*
X153280938Y-136720818D01*
X153260400Y-136734614D01*
X153249606Y-136734832D01*
X153239749Y-136739242D01*
X153215283Y-136735529D01*
X153190545Y-136736031D01*
X153175380Y-136729473D01*
X153170670Y-136728759D01*
X153158149Y-136722023D01*
X152963825Y-136602635D01*
X152941057Y-136584665D01*
X152913342Y-136556950D01*
X152836517Y-136517805D01*
X152800301Y-136499352D01*
X152706524Y-136484500D01*
X152243482Y-136484500D01*
X152162519Y-136497323D01*
X152149696Y-136499354D01*
X152036658Y-136556950D01*
X152036657Y-136556951D01*
X152036652Y-136556954D01*
X151946954Y-136646652D01*
X151946951Y-136646657D01*
X151946950Y-136646658D01*
X151927751Y-136684337D01*
X151889352Y-136759698D01*
X151874500Y-136853475D01*
X151425498Y-136853475D01*
X151410646Y-136759696D01*
X151353050Y-136646658D01*
X151353046Y-136646654D01*
X151353045Y-136646652D01*
X151263347Y-136556954D01*
X151263344Y-136556952D01*
X151263342Y-136556950D01*
X151186517Y-136517805D01*
X151150301Y-136499352D01*
X151056524Y-136484500D01*
X150593482Y-136484500D01*
X150512519Y-136497323D01*
X150499696Y-136499354D01*
X150390731Y-136554874D01*
X150386656Y-136556951D01*
X150358944Y-136584663D01*
X150336175Y-136602633D01*
X150177446Y-136700153D01*
X150110021Y-136718475D01*
X150058857Y-136706279D01*
X149408926Y-136394172D01*
X149357014Y-136347407D01*
X149350837Y-136336095D01*
X148922719Y-135444582D01*
X148910500Y-135390908D01*
X148910500Y-134516530D01*
X153889500Y-134516530D01*
X153889500Y-134723469D01*
X153929868Y-134926412D01*
X153929870Y-134926420D01*
X154009058Y-135117596D01*
X154124024Y-135289657D01*
X154270342Y-135435975D01*
X154270345Y-135435977D01*
X154442402Y-135550941D01*
X154633580Y-135630130D01*
X154836530Y-135670499D01*
X154836534Y-135670500D01*
X154836535Y-135670500D01*
X155043466Y-135670500D01*
X155043467Y-135670499D01*
X155246420Y-135630130D01*
X155437598Y-135550941D01*
X155609655Y-135435977D01*
X155755977Y-135289655D01*
X155870941Y-135117598D01*
X155950130Y-134926420D01*
X155990500Y-134723465D01*
X155990500Y-134516535D01*
X155950130Y-134313580D01*
X155870941Y-134122402D01*
X155755977Y-133950345D01*
X155755975Y-133950342D01*
X155609657Y-133804024D01*
X155523626Y-133746541D01*
X155437598Y-133689059D01*
X155246420Y-133609870D01*
X155246412Y-133609868D01*
X155043469Y-133569500D01*
X155043465Y-133569500D01*
X154836535Y-133569500D01*
X154836530Y-133569500D01*
X154633587Y-133609868D01*
X154633579Y-133609870D01*
X154442403Y-133689058D01*
X154270342Y-133804024D01*
X154124024Y-133950342D01*
X154009058Y-134122403D01*
X153929870Y-134313579D01*
X153929868Y-134313587D01*
X153889500Y-134516530D01*
X148910500Y-134516530D01*
X148910500Y-134301189D01*
X148930185Y-134234150D01*
X148946819Y-134213508D01*
X149590827Y-133569500D01*
X150340465Y-132819862D01*
X150383318Y-132745639D01*
X150405500Y-132662853D01*
X150405500Y-132577147D01*
X150405500Y-131976530D01*
X153889500Y-131976530D01*
X153889500Y-132183469D01*
X153929868Y-132386412D01*
X153929870Y-132386420D01*
X154009059Y-132577598D01*
X154066024Y-132662853D01*
X154124024Y-132749657D01*
X154270342Y-132895975D01*
X154270345Y-132895977D01*
X154442402Y-133010941D01*
X154633580Y-133090130D01*
X154836530Y-133130499D01*
X154836534Y-133130500D01*
X154836535Y-133130500D01*
X155043466Y-133130500D01*
X155043467Y-133130499D01*
X155246420Y-133090130D01*
X155437598Y-133010941D01*
X155609655Y-132895977D01*
X155755977Y-132749655D01*
X155870941Y-132577598D01*
X155950130Y-132386420D01*
X155990500Y-132183465D01*
X155990500Y-131976535D01*
X155950130Y-131773580D01*
X155870941Y-131582402D01*
X155755977Y-131410345D01*
X155755975Y-131410342D01*
X155609657Y-131264024D01*
X155523626Y-131206541D01*
X155437598Y-131149059D01*
X155246420Y-131069870D01*
X155246412Y-131069868D01*
X155043469Y-131029500D01*
X155043465Y-131029500D01*
X154836535Y-131029500D01*
X154836530Y-131029500D01*
X154633587Y-131069868D01*
X154633579Y-131069870D01*
X154442403Y-131149058D01*
X154270342Y-131264024D01*
X154124024Y-131410342D01*
X154009058Y-131582403D01*
X153929870Y-131773579D01*
X153929868Y-131773587D01*
X153889500Y-131976530D01*
X150405500Y-131976530D01*
X150405500Y-129436530D01*
X153889500Y-129436530D01*
X153889500Y-129643469D01*
X153929868Y-129846412D01*
X153929870Y-129846420D01*
X154009058Y-130037596D01*
X154124024Y-130209657D01*
X154270342Y-130355975D01*
X154270345Y-130355977D01*
X154442402Y-130470941D01*
X154633580Y-130550130D01*
X154836530Y-130590499D01*
X154836534Y-130590500D01*
X154836535Y-130590500D01*
X155043466Y-130590500D01*
X155043467Y-130590499D01*
X155246420Y-130550130D01*
X155437598Y-130470941D01*
X155609655Y-130355977D01*
X155755977Y-130209655D01*
X155870941Y-130037598D01*
X155950130Y-129846420D01*
X155990500Y-129643465D01*
X155990500Y-129436535D01*
X155950130Y-129233580D01*
X155870941Y-129042402D01*
X155755977Y-128870345D01*
X155755975Y-128870342D01*
X155609657Y-128724024D01*
X155523626Y-128666541D01*
X155437598Y-128609059D01*
X155246420Y-128529870D01*
X155246412Y-128529868D01*
X155043469Y-128489500D01*
X155043465Y-128489500D01*
X154836535Y-128489500D01*
X154836530Y-128489500D01*
X154633587Y-128529868D01*
X154633579Y-128529870D01*
X154442403Y-128609058D01*
X154270342Y-128724024D01*
X154124024Y-128870342D01*
X154009058Y-129042403D01*
X153929870Y-129233579D01*
X153929868Y-129233587D01*
X153889500Y-129436530D01*
X150405500Y-129436530D01*
X150405500Y-126896530D01*
X153889500Y-126896530D01*
X153889500Y-127103469D01*
X153929868Y-127306412D01*
X153929870Y-127306420D01*
X154009058Y-127497596D01*
X154124024Y-127669657D01*
X154270342Y-127815975D01*
X154270345Y-127815977D01*
X154442402Y-127930941D01*
X154633580Y-128010130D01*
X154836530Y-128050499D01*
X154836534Y-128050500D01*
X154836535Y-128050500D01*
X155043466Y-128050500D01*
X155043467Y-128050499D01*
X155246420Y-128010130D01*
X155437598Y-127930941D01*
X155609655Y-127815977D01*
X155755977Y-127669655D01*
X155870941Y-127497598D01*
X155950130Y-127306420D01*
X155990500Y-127103465D01*
X155990500Y-126896535D01*
X155950130Y-126693580D01*
X155870941Y-126502402D01*
X155755977Y-126330345D01*
X155755975Y-126330342D01*
X155609657Y-126184024D01*
X155523626Y-126126541D01*
X155437598Y-126069059D01*
X155246420Y-125989870D01*
X155246412Y-125989868D01*
X155043469Y-125949500D01*
X155043465Y-125949500D01*
X154836535Y-125949500D01*
X154836530Y-125949500D01*
X154633587Y-125989868D01*
X154633579Y-125989870D01*
X154442403Y-126069058D01*
X154270342Y-126184024D01*
X154124024Y-126330342D01*
X154009058Y-126502403D01*
X153929870Y-126693579D01*
X153929868Y-126693587D01*
X153889500Y-126896530D01*
X150405500Y-126896530D01*
X150405500Y-124356530D01*
X153889500Y-124356530D01*
X153889500Y-124563469D01*
X153929868Y-124766412D01*
X153929870Y-124766420D01*
X154009058Y-124957596D01*
X154124024Y-125129657D01*
X154270342Y-125275975D01*
X154270345Y-125275977D01*
X154442402Y-125390941D01*
X154633580Y-125470130D01*
X154836530Y-125510499D01*
X154836534Y-125510500D01*
X154836535Y-125510500D01*
X155043466Y-125510500D01*
X155043467Y-125510499D01*
X155246420Y-125470130D01*
X155437598Y-125390941D01*
X155609655Y-125275977D01*
X155755977Y-125129655D01*
X155870941Y-124957598D01*
X155950130Y-124766420D01*
X155990500Y-124563465D01*
X155990500Y-124356535D01*
X155950130Y-124153580D01*
X155870941Y-123962402D01*
X155755977Y-123790345D01*
X155755975Y-123790342D01*
X155609657Y-123644024D01*
X155523626Y-123586541D01*
X155437598Y-123529059D01*
X155422323Y-123522732D01*
X155246420Y-123449870D01*
X155246412Y-123449868D01*
X155043469Y-123409500D01*
X155043465Y-123409500D01*
X154836535Y-123409500D01*
X154836530Y-123409500D01*
X154633587Y-123449868D01*
X154633579Y-123449870D01*
X154442403Y-123529058D01*
X154270342Y-123644024D01*
X154124024Y-123790342D01*
X154009058Y-123962403D01*
X153929870Y-124153579D01*
X153929868Y-124153587D01*
X153889500Y-124356530D01*
X150405500Y-124356530D01*
X150405500Y-121816530D01*
X153889500Y-121816530D01*
X153889500Y-122023469D01*
X153928493Y-122219498D01*
X153929870Y-122226420D01*
X154009059Y-122417598D01*
X154066541Y-122503626D01*
X154124024Y-122589657D01*
X154270342Y-122735975D01*
X154270345Y-122735977D01*
X154442402Y-122850941D01*
X154633580Y-122930130D01*
X154836530Y-122970499D01*
X154836534Y-122970500D01*
X154836535Y-122970500D01*
X155043466Y-122970500D01*
X155043467Y-122970499D01*
X155246420Y-122930130D01*
X155437598Y-122850941D01*
X155609655Y-122735977D01*
X155755977Y-122589655D01*
X155870941Y-122417598D01*
X155950130Y-122226420D01*
X155990500Y-122023465D01*
X155990500Y-121816535D01*
X155950130Y-121613580D01*
X155870941Y-121422402D01*
X155755977Y-121250345D01*
X155755975Y-121250342D01*
X155609657Y-121104024D01*
X155487589Y-121022462D01*
X155437598Y-120989059D01*
X155432668Y-120987017D01*
X155246420Y-120909870D01*
X155246412Y-120909868D01*
X155043469Y-120869500D01*
X155043465Y-120869500D01*
X154836535Y-120869500D01*
X154836530Y-120869500D01*
X154633587Y-120909868D01*
X154633579Y-120909870D01*
X154442403Y-120989058D01*
X154270342Y-121104024D01*
X154124024Y-121250342D01*
X154009058Y-121422403D01*
X153929870Y-121613579D01*
X153929868Y-121613587D01*
X153889500Y-121816530D01*
X150405500Y-121816530D01*
X150405500Y-120617147D01*
X150404114Y-120611976D01*
X150383318Y-120534361D01*
X150340465Y-120460138D01*
X148331806Y-118451479D01*
X148306743Y-118415419D01*
X148273351Y-118342488D01*
X148088926Y-117939692D01*
X148082984Y-117917515D01*
X148062633Y-117882267D01*
X148053561Y-117862452D01*
X148046259Y-117848031D01*
X148045367Y-117846429D01*
X148045358Y-117846412D01*
X148043124Y-117842503D01*
X148038779Y-117836629D01*
X148038889Y-117836547D01*
X148026992Y-117820535D01*
X148010511Y-117791988D01*
X148010507Y-117791983D01*
X147908017Y-117689493D01*
X147908011Y-117689488D01*
X147782488Y-117617017D01*
X147782489Y-117617017D01*
X147771006Y-117613940D01*
X147642475Y-117579500D01*
X147497525Y-117579500D01*
X147368993Y-117613940D01*
X147357511Y-117617017D01*
X147231988Y-117689488D01*
X147231982Y-117689493D01*
X147129493Y-117791982D01*
X147129488Y-117791988D01*
X147057017Y-117917511D01*
X147057016Y-117917515D01*
X147019500Y-118057525D01*
X142937852Y-118057525D01*
X141449864Y-116569537D01*
X141449862Y-116569535D01*
X141412750Y-116548108D01*
X141375640Y-116526682D01*
X141334246Y-116515591D01*
X141292853Y-116504500D01*
X141292852Y-116504500D01*
X141292333Y-116504500D01*
X141291801Y-116504361D01*
X141284793Y-116503439D01*
X141284907Y-116502569D01*
X141231949Y-116488804D01*
X140281726Y-115959013D01*
X140277439Y-115957532D01*
X140249041Y-115943432D01*
X140197598Y-115909059D01*
X140197599Y-115909059D01*
X140197597Y-115909058D01*
X140086974Y-115863236D01*
X140032890Y-115840834D01*
X139978488Y-115796994D01*
X139956423Y-115730700D01*
X139973702Y-115663001D01*
X140024839Y-115615390D01*
X140042026Y-115608343D01*
X140218217Y-115551095D01*
X140407554Y-115454622D01*
X140461716Y-115415270D01*
X140461717Y-115415270D01*
X139829408Y-114782962D01*
X139892993Y-114765925D01*
X140007007Y-114700099D01*
X140100099Y-114607007D01*
X140165925Y-114492993D01*
X140182962Y-114429408D01*
X140815270Y-115061717D01*
X140815270Y-115061716D01*
X140854622Y-115007554D01*
X140951095Y-114818217D01*
X141016757Y-114616130D01*
X141016757Y-114616127D01*
X141050000Y-114406246D01*
X141050000Y-114193753D01*
X141016757Y-113983872D01*
X141016757Y-113983869D01*
X140961323Y-113813261D01*
X140959328Y-113743420D01*
X140995408Y-113683587D01*
X141058109Y-113652759D01*
X141127523Y-113660724D01*
X141166935Y-113687262D01*
X141469384Y-113989711D01*
X141480712Y-114002248D01*
X141485435Y-114005762D01*
X141599534Y-114119861D01*
X141599535Y-114119862D01*
X141660138Y-114180465D01*
X141660140Y-114180466D01*
X141660144Y-114180469D01*
X141734355Y-114223314D01*
X141734362Y-114223318D01*
X141779390Y-114235383D01*
X141785934Y-114238550D01*
X141790290Y-114238849D01*
X141821314Y-114255672D01*
X141880893Y-114300001D01*
X141954055Y-114354437D01*
X141955460Y-114355651D01*
X141955532Y-114355559D01*
X141965823Y-114363453D01*
X141968814Y-114365419D01*
X141973032Y-114368557D01*
X141977046Y-114371469D01*
X141977088Y-114371498D01*
X141977094Y-114371503D01*
X141977551Y-114371826D01*
X141977552Y-114371826D01*
X141977553Y-114371827D01*
X141986868Y-114375845D01*
X141999760Y-114382319D01*
X142087511Y-114432982D01*
X142087512Y-114432982D01*
X142087515Y-114432984D01*
X142227525Y-114470500D01*
X142227528Y-114470500D01*
X142372472Y-114470500D01*
X142372475Y-114470500D01*
X142512485Y-114432984D01*
X142638015Y-114360509D01*
X142740509Y-114258015D01*
X142812984Y-114132485D01*
X142850500Y-113992475D01*
X142850500Y-113847525D01*
X142812984Y-113707515D01*
X142746550Y-113592449D01*
X142740511Y-113581988D01*
X142740506Y-113581982D01*
X142638017Y-113479493D01*
X142638011Y-113479488D01*
X142512488Y-113407017D01*
X142512489Y-113407017D01*
X142501006Y-113403940D01*
X142372475Y-113369500D01*
X142227525Y-113369500D01*
X142220116Y-113371485D01*
X142193355Y-113374548D01*
X142193408Y-113375366D01*
X142187333Y-113375756D01*
X141896763Y-113423384D01*
X141827422Y-113414802D01*
X141789025Y-113388698D01*
X141181100Y-112780773D01*
X141151786Y-112734178D01*
X140730920Y-111535656D01*
X140730916Y-111535650D01*
X140728893Y-111531093D01*
X140729798Y-111530690D01*
X140720202Y-111504220D01*
X140710130Y-111453580D01*
X140630941Y-111262402D01*
X140515977Y-111090345D01*
X140515975Y-111090342D01*
X140369657Y-110944024D01*
X140253480Y-110866398D01*
X140197598Y-110829059D01*
X140006420Y-110749870D01*
X140006412Y-110749868D01*
X139803469Y-110709500D01*
X139803465Y-110709500D01*
X139596535Y-110709500D01*
X139596530Y-110709500D01*
X139393587Y-110749868D01*
X139393579Y-110749870D01*
X139202403Y-110829058D01*
X139030342Y-110944024D01*
X138884024Y-111090342D01*
X138769058Y-111262403D01*
X138689870Y-111453579D01*
X138689868Y-111453587D01*
X138649500Y-111656530D01*
X138649500Y-111863469D01*
X138689868Y-112066412D01*
X138689870Y-112066420D01*
X138769058Y-112257596D01*
X138884024Y-112429657D01*
X139030342Y-112575975D01*
X139202405Y-112690943D01*
X139305043Y-112733456D01*
X139367108Y-112759164D01*
X139421511Y-112803005D01*
X139443576Y-112869299D01*
X139426297Y-112936998D01*
X139375160Y-112984609D01*
X139357974Y-112991656D01*
X139181781Y-113048905D01*
X138992439Y-113145380D01*
X138938282Y-113184727D01*
X138938282Y-113184728D01*
X139570591Y-113817037D01*
X139507007Y-113834075D01*
X139392993Y-113899901D01*
X139299901Y-113992993D01*
X139234075Y-114107007D01*
X139217037Y-114170591D01*
X138584728Y-113538282D01*
X138584727Y-113538282D01*
X138545380Y-113592439D01*
X138448904Y-113781782D01*
X138383242Y-113983869D01*
X138383242Y-113983872D01*
X138350000Y-114193753D01*
X138000500Y-114193753D01*
X138000500Y-109116530D01*
X138649500Y-109116530D01*
X138649500Y-109323469D01*
X138689868Y-109526412D01*
X138689870Y-109526420D01*
X138769058Y-109717596D01*
X138884024Y-109889657D01*
X139030342Y-110035975D01*
X139030345Y-110035977D01*
X139202402Y-110150941D01*
X139393580Y-110230130D01*
X139596530Y-110270499D01*
X139596534Y-110270500D01*
X139596535Y-110270500D01*
X139803466Y-110270500D01*
X139803467Y-110270499D01*
X140006420Y-110230130D01*
X140197598Y-110150941D01*
X140369655Y-110035977D01*
X140515977Y-109889655D01*
X140630941Y-109717598D01*
X140710130Y-109526420D01*
X140750500Y-109323465D01*
X140750500Y-109116535D01*
X140710130Y-108913580D01*
X140630941Y-108722402D01*
X140515977Y-108550345D01*
X140515975Y-108550342D01*
X140369657Y-108404024D01*
X140283626Y-108346541D01*
X140197598Y-108289059D01*
X140137146Y-108264019D01*
X140006420Y-108209870D01*
X140006412Y-108209868D01*
X139803469Y-108169500D01*
X139803465Y-108169500D01*
X139596535Y-108169500D01*
X139596530Y-108169500D01*
X139393587Y-108209868D01*
X139393579Y-108209870D01*
X139202403Y-108289058D01*
X139030342Y-108404024D01*
X138884024Y-108550342D01*
X138769058Y-108722403D01*
X138689870Y-108913579D01*
X138689868Y-108913587D01*
X138649500Y-109116530D01*
X138000500Y-109116530D01*
X138000500Y-106576530D01*
X138649500Y-106576530D01*
X138649500Y-106783469D01*
X138689868Y-106986412D01*
X138689870Y-106986420D01*
X138769058Y-107177596D01*
X138884024Y-107349657D01*
X139030342Y-107495975D01*
X139030345Y-107495977D01*
X139202402Y-107610941D01*
X139393580Y-107690130D01*
X139596530Y-107730499D01*
X139596534Y-107730500D01*
X139596535Y-107730500D01*
X139803466Y-107730500D01*
X139803467Y-107730499D01*
X140006420Y-107690130D01*
X140197598Y-107610941D01*
X140369655Y-107495977D01*
X140515977Y-107349655D01*
X140630941Y-107177598D01*
X140647540Y-107137525D01*
X144139500Y-107137525D01*
X144139500Y-107282475D01*
X144177016Y-107422485D01*
X144191086Y-107446854D01*
X144204295Y-107469733D01*
X144214240Y-107494553D01*
X144214816Y-107494352D01*
X144216827Y-107500097D01*
X144260529Y-107594152D01*
X144313054Y-107707197D01*
X144352954Y-107793068D01*
X144364500Y-107845319D01*
X144364500Y-107862852D01*
X144386682Y-107945640D01*
X144408108Y-107982750D01*
X144429535Y-108019862D01*
X146582033Y-110172359D01*
X146582035Y-110172362D01*
X146642638Y-110232965D01*
X146675216Y-110251774D01*
X146684632Y-110257210D01*
X146684634Y-110257212D01*
X146716855Y-110275815D01*
X146716858Y-110275817D01*
X146716860Y-110275817D01*
X146716861Y-110275818D01*
X146799647Y-110298001D01*
X146799649Y-110298001D01*
X146892949Y-110298001D01*
X146892965Y-110298000D01*
X147282216Y-110298000D01*
X147294805Y-110300971D01*
X147304176Y-110299960D01*
X147337666Y-110311089D01*
X147375173Y-110329842D01*
X147426332Y-110377428D01*
X147439493Y-110408656D01*
X147455577Y-110468680D01*
X147455579Y-110468685D01*
X147476101Y-110518231D01*
X147476108Y-110518245D01*
X147541934Y-110632259D01*
X147574590Y-110674816D01*
X147574591Y-110674817D01*
X147667683Y-110767909D01*
X147710243Y-110800567D01*
X147824257Y-110866393D01*
X147824262Y-110866395D01*
X147824268Y-110866398D01*
X147873811Y-110886919D01*
X147873813Y-110886919D01*
X147873819Y-110886922D01*
X148000986Y-110920997D01*
X148054174Y-110928000D01*
X148054180Y-110928000D01*
X148670003Y-110928000D01*
X148670003Y-110927999D01*
X148715728Y-110922848D01*
X148736832Y-110912684D01*
X148805770Y-110901330D01*
X148819139Y-110903724D01*
X148836449Y-110907812D01*
X148841769Y-110911367D01*
X148900252Y-110923000D01*
X148900748Y-110923000D01*
X148905558Y-110924136D01*
X148934063Y-110940364D01*
X148963156Y-110955582D01*
X148966167Y-110958641D01*
X148966277Y-110958704D01*
X148966331Y-110958808D01*
X148967638Y-110960136D01*
X149139341Y-111143811D01*
X149156142Y-111166486D01*
X149159535Y-111172362D01*
X149259214Y-111272041D01*
X149350004Y-111369161D01*
X149352485Y-111371769D01*
X149352759Y-111372052D01*
X149372962Y-111385789D01*
X150007638Y-112020465D01*
X150081861Y-112063318D01*
X150164647Y-112085500D01*
X153170908Y-112085500D01*
X153224586Y-112097721D01*
X154369652Y-112647601D01*
X154374310Y-112649393D01*
X154373957Y-112650309D01*
X154399474Y-112662257D01*
X154442402Y-112690941D01*
X154442404Y-112690942D01*
X154442408Y-112690944D01*
X154529562Y-112727044D01*
X154607108Y-112759164D01*
X154661511Y-112803005D01*
X154683576Y-112869299D01*
X154666297Y-112936998D01*
X154615160Y-112984609D01*
X154597974Y-112991656D01*
X154421781Y-113048905D01*
X154232439Y-113145380D01*
X154178282Y-113184727D01*
X154178282Y-113184728D01*
X154810591Y-113817037D01*
X154747007Y-113834075D01*
X154632993Y-113899901D01*
X154539901Y-113992993D01*
X154474075Y-114107007D01*
X154457037Y-114170591D01*
X153824728Y-113538282D01*
X153824727Y-113538282D01*
X153785380Y-113592439D01*
X153688904Y-113781782D01*
X153623242Y-113983869D01*
X153623242Y-113983872D01*
X153590000Y-114193753D01*
X153590000Y-114406246D01*
X153623242Y-114616127D01*
X153623242Y-114616130D01*
X153688904Y-114818217D01*
X153785375Y-115007550D01*
X153824728Y-115061716D01*
X154457037Y-114429408D01*
X154474075Y-114492993D01*
X154539901Y-114607007D01*
X154632993Y-114700099D01*
X154747007Y-114765925D01*
X154810590Y-114782962D01*
X154178282Y-115415269D01*
X154178282Y-115415270D01*
X154232449Y-115454624D01*
X154421782Y-115551095D01*
X154597973Y-115608343D01*
X154655648Y-115647780D01*
X154682847Y-115712139D01*
X154670932Y-115780985D01*
X154623688Y-115832461D01*
X154607108Y-115840835D01*
X154442403Y-115909058D01*
X154367638Y-115959013D01*
X154351178Y-115970011D01*
X154326779Y-115983181D01*
X154307121Y-115999447D01*
X154301835Y-116002979D01*
X154301835Y-116002980D01*
X154270349Y-116024019D01*
X154270338Y-116024029D01*
X154240503Y-116053862D01*
X154231880Y-116061709D01*
X153700588Y-116501359D01*
X153653631Y-116525601D01*
X153612279Y-116536682D01*
X153538058Y-116579534D01*
X153215661Y-116901930D01*
X153215660Y-116901929D01*
X153211519Y-116906069D01*
X153187872Y-116925639D01*
X153180395Y-116932136D01*
X153179598Y-116932863D01*
X153167517Y-116950072D01*
X153159894Y-116957696D01*
X151124785Y-118992806D01*
X151124783Y-118992809D01*
X151081930Y-119067030D01*
X151075910Y-119089500D01*
X151060365Y-119147515D01*
X151060364Y-119147520D01*
X151059748Y-119149816D01*
X151059748Y-119952469D01*
X151052814Y-119993354D01*
X150882178Y-120481938D01*
X150878330Y-120492954D01*
X150872264Y-120503462D01*
X150864362Y-120532949D01*
X150862846Y-120537291D01*
X150852388Y-120567237D01*
X150848181Y-120580766D01*
X150847742Y-120582367D01*
X150847129Y-120584661D01*
X150846088Y-120591742D01*
X150846071Y-120591739D01*
X150842968Y-120612790D01*
X150834748Y-120643470D01*
X150834748Y-120643471D01*
X150834748Y-120643472D01*
X150834748Y-120788422D01*
X150872264Y-120928432D01*
X150872265Y-120928435D01*
X150944736Y-121053958D01*
X150944738Y-121053960D01*
X150944739Y-121053962D01*
X151047233Y-121156456D01*
X151047234Y-121156457D01*
X151047236Y-121156458D01*
X151172759Y-121228929D01*
X151172760Y-121228929D01*
X151172763Y-121228931D01*
X151312773Y-121266447D01*
X151312776Y-121266447D01*
X151457720Y-121266447D01*
X151457723Y-121266447D01*
X151597733Y-121228931D01*
X151723263Y-121156456D01*
X151825757Y-121053962D01*
X151898232Y-120928432D01*
X151935748Y-120788422D01*
X151935748Y-120643472D01*
X151935747Y-120643470D01*
X151923141Y-120596426D01*
X151923140Y-120596423D01*
X151921177Y-120589096D01*
X151918106Y-120567237D01*
X151906139Y-120532972D01*
X151898232Y-120503462D01*
X151897993Y-120503049D01*
X151888313Y-120481931D01*
X151884832Y-120471964D01*
X151717682Y-119993354D01*
X151716996Y-119989312D01*
X151715771Y-119987406D01*
X151710748Y-119952471D01*
X151710748Y-119916419D01*
X151730433Y-119849380D01*
X151783237Y-119803625D01*
X151852395Y-119793681D01*
X151896744Y-119809030D01*
X152007515Y-119872984D01*
X152147525Y-119910500D01*
X152147528Y-119910500D01*
X152292472Y-119910500D01*
X152292475Y-119910500D01*
X152331028Y-119900169D01*
X152349371Y-119896711D01*
X152362850Y-119895211D01*
X152942551Y-119711304D01*
X152944322Y-119711030D01*
X152945112Y-119710523D01*
X152980047Y-119705500D01*
X153170908Y-119705500D01*
X153224586Y-119717721D01*
X154369652Y-120267601D01*
X154374310Y-120269393D01*
X154373957Y-120270309D01*
X154399474Y-120282257D01*
X154442402Y-120310941D01*
X154633580Y-120390130D01*
X154836530Y-120430499D01*
X154836534Y-120430500D01*
X154836535Y-120430500D01*
X155043466Y-120430500D01*
X155043467Y-120430499D01*
X155246420Y-120390130D01*
X155437598Y-120310941D01*
X155609655Y-120195977D01*
X155755977Y-120049655D01*
X155870941Y-119877598D01*
X155950130Y-119686420D01*
X155990500Y-119483465D01*
X155990500Y-119276535D01*
X155950130Y-119073580D01*
X155870941Y-118882402D01*
X155755977Y-118710345D01*
X155755975Y-118710342D01*
X155609657Y-118564024D01*
X155465962Y-118468011D01*
X155437598Y-118449059D01*
X155405356Y-118435704D01*
X155246420Y-118369870D01*
X155246412Y-118369868D01*
X155043469Y-118329500D01*
X155043465Y-118329500D01*
X154836535Y-118329500D01*
X154836530Y-118329500D01*
X154633587Y-118369868D01*
X154633579Y-118369870D01*
X154442403Y-118449058D01*
X154399409Y-118477784D01*
X154372992Y-118491179D01*
X154369665Y-118492391D01*
X153224584Y-119042279D01*
X153212903Y-119044938D01*
X153205841Y-119049477D01*
X153170906Y-119054500D01*
X152987072Y-119054500D01*
X152942899Y-119046365D01*
X152465996Y-118864548D01*
X152448173Y-118856072D01*
X152425450Y-118842954D01*
X152426214Y-118841628D01*
X152378935Y-118803524D01*
X152356875Y-118737228D01*
X152374158Y-118669530D01*
X152393108Y-118645137D01*
X153484490Y-117553754D01*
X153545811Y-117520271D01*
X153609330Y-117523136D01*
X154581332Y-117828488D01*
X154633580Y-117850130D01*
X154678948Y-117859153D01*
X154685345Y-117861163D01*
X154685346Y-117861164D01*
X154685350Y-117861165D01*
X154700160Y-117865818D01*
X154710689Y-117868818D01*
X154710709Y-117868823D01*
X154711926Y-117869135D01*
X154721415Y-117869396D01*
X154742174Y-117871730D01*
X154823185Y-117887844D01*
X154836534Y-117890500D01*
X154836535Y-117890500D01*
X155043466Y-117890500D01*
X155043467Y-117890499D01*
X155246420Y-117850130D01*
X155437598Y-117770941D01*
X155609655Y-117655977D01*
X155755977Y-117509655D01*
X155870941Y-117337598D01*
X155950130Y-117146420D01*
X155990500Y-116943465D01*
X155990500Y-116736535D01*
X155950130Y-116533580D01*
X155870941Y-116342402D01*
X155755977Y-116170345D01*
X155755975Y-116170342D01*
X155609657Y-116024024D01*
X155502334Y-115952314D01*
X155437598Y-115909059D01*
X155437593Y-115909057D01*
X155375891Y-115883499D01*
X155272890Y-115840834D01*
X155218488Y-115796994D01*
X155196423Y-115730700D01*
X155213702Y-115663001D01*
X155264839Y-115615390D01*
X155282026Y-115608343D01*
X155458217Y-115551095D01*
X155647554Y-115454622D01*
X155701716Y-115415270D01*
X155701717Y-115415270D01*
X155069408Y-114782962D01*
X155132993Y-114765925D01*
X155247007Y-114700099D01*
X155340099Y-114607007D01*
X155405925Y-114492993D01*
X155422962Y-114429409D01*
X156055270Y-115061717D01*
X156055270Y-115061716D01*
X156094622Y-115007554D01*
X156191095Y-114818217D01*
X156256757Y-114616130D01*
X156256757Y-114616127D01*
X156290000Y-114406246D01*
X156290000Y-114193753D01*
X156256757Y-113983872D01*
X156256757Y-113983869D01*
X156191095Y-113781782D01*
X156094624Y-113592449D01*
X156055270Y-113538282D01*
X156055269Y-113538282D01*
X155422962Y-114170590D01*
X155405925Y-114107007D01*
X155340099Y-113992993D01*
X155247007Y-113899901D01*
X155132993Y-113834075D01*
X155069409Y-113817037D01*
X155701716Y-113184728D01*
X155647550Y-113145375D01*
X155458216Y-113048904D01*
X155282026Y-112991656D01*
X155224350Y-112952218D01*
X155197152Y-112887860D01*
X155209067Y-112819013D01*
X155256311Y-112767538D01*
X155272882Y-112759168D01*
X155437598Y-112690941D01*
X155609655Y-112575977D01*
X155755977Y-112429655D01*
X155870941Y-112257598D01*
X155950130Y-112066420D01*
X155990500Y-111863465D01*
X155990500Y-111656535D01*
X155950130Y-111453580D01*
X155870941Y-111262402D01*
X155755977Y-111090345D01*
X155755975Y-111090342D01*
X155609657Y-110944024D01*
X155493480Y-110866398D01*
X155437598Y-110829059D01*
X155246420Y-110749870D01*
X155246412Y-110749868D01*
X155043469Y-110709500D01*
X155043465Y-110709500D01*
X154836535Y-110709500D01*
X154836530Y-110709500D01*
X154633587Y-110749868D01*
X154633579Y-110749870D01*
X154442403Y-110829058D01*
X154399409Y-110857784D01*
X154372992Y-110871179D01*
X154369665Y-110872391D01*
X153224584Y-111422279D01*
X153170906Y-111434500D01*
X150393689Y-111434500D01*
X150326650Y-111414815D01*
X150306008Y-111398181D01*
X150041345Y-111133518D01*
X150007860Y-111072195D01*
X150012844Y-111002503D01*
X150054716Y-110946570D01*
X150120180Y-110922153D01*
X150156619Y-110924945D01*
X150170000Y-110928000D01*
X150785820Y-110928000D01*
X150785826Y-110928000D01*
X150839014Y-110920997D01*
X150966181Y-110886922D01*
X151015743Y-110866393D01*
X151129757Y-110800567D01*
X151172317Y-110767909D01*
X151265409Y-110674817D01*
X151298067Y-110632257D01*
X151363893Y-110518243D01*
X151384422Y-110468681D01*
X151394509Y-110431031D01*
X151430873Y-110371372D01*
X151493719Y-110340842D01*
X151555165Y-110346058D01*
X151936997Y-110479411D01*
X151947515Y-110485484D01*
X151977026Y-110493391D01*
X152011290Y-110505358D01*
X152020349Y-110508178D01*
X152024711Y-110509536D01*
X152024715Y-110509537D01*
X152026258Y-110509960D01*
X152028714Y-110510617D01*
X152028716Y-110510617D01*
X152028720Y-110510618D01*
X152035790Y-110511658D01*
X152035787Y-110511676D01*
X152056837Y-110514777D01*
X152087525Y-110523000D01*
X152087528Y-110523000D01*
X152232472Y-110523000D01*
X152232475Y-110523000D01*
X152372485Y-110485484D01*
X152498015Y-110413009D01*
X152600509Y-110310515D01*
X152672984Y-110184985D01*
X152710500Y-110044975D01*
X152710500Y-109900025D01*
X152672984Y-109760015D01*
X152648494Y-109717598D01*
X152600511Y-109634488D01*
X152600506Y-109634482D01*
X152498017Y-109531993D01*
X152498011Y-109531988D01*
X152372488Y-109459517D01*
X152372489Y-109459517D01*
X152347428Y-109452802D01*
X152232475Y-109422000D01*
X152087525Y-109422000D01*
X152080754Y-109423814D01*
X152040479Y-109434604D01*
X152040480Y-109434605D01*
X152033153Y-109436568D01*
X152011291Y-109439641D01*
X151977020Y-109451609D01*
X151972565Y-109452803D01*
X151972562Y-109452802D01*
X151947520Y-109459514D01*
X151947504Y-109459520D01*
X151947083Y-109459764D01*
X151925989Y-109469430D01*
X151555167Y-109598937D01*
X151485387Y-109602457D01*
X151424780Y-109567692D01*
X151394509Y-109513965D01*
X151384422Y-109476319D01*
X151384417Y-109476308D01*
X151384416Y-109476303D01*
X151363898Y-109426768D01*
X151363895Y-109426762D01*
X151363893Y-109426757D01*
X151298067Y-109312743D01*
X151265409Y-109270183D01*
X151172317Y-109177091D01*
X151133353Y-109147192D01*
X151130804Y-109145008D01*
X151120739Y-109129534D01*
X151110658Y-109116530D01*
X153889500Y-109116530D01*
X153889500Y-109323469D01*
X153929868Y-109526412D01*
X153929870Y-109526420D01*
X154009058Y-109717596D01*
X154124024Y-109889657D01*
X154270342Y-110035975D01*
X154270345Y-110035977D01*
X154442402Y-110150941D01*
X154633580Y-110230130D01*
X154836530Y-110270499D01*
X154836534Y-110270500D01*
X154836535Y-110270500D01*
X155043466Y-110270500D01*
X155043467Y-110270499D01*
X155246420Y-110230130D01*
X155437598Y-110150941D01*
X155609655Y-110035977D01*
X155755977Y-109889655D01*
X155870941Y-109717598D01*
X155950130Y-109526420D01*
X155990500Y-109323465D01*
X155990500Y-109116535D01*
X155950130Y-108913580D01*
X155870941Y-108722402D01*
X155755977Y-108550345D01*
X155755975Y-108550342D01*
X155609657Y-108404024D01*
X155523626Y-108346541D01*
X155437598Y-108289059D01*
X155377146Y-108264019D01*
X155246420Y-108209870D01*
X155246412Y-108209868D01*
X155043469Y-108169500D01*
X155043465Y-108169500D01*
X154836535Y-108169500D01*
X154836530Y-108169500D01*
X154633587Y-108209868D01*
X154633579Y-108209870D01*
X154442403Y-108289058D01*
X154270342Y-108404024D01*
X154124024Y-108550342D01*
X154009058Y-108722403D01*
X153929870Y-108913579D01*
X153929868Y-108913587D01*
X153889500Y-109116530D01*
X151110658Y-109116530D01*
X151097403Y-109099431D01*
X151088536Y-109078608D01*
X151040532Y-108965874D01*
X151032380Y-108896483D01*
X151048966Y-108852387D01*
X151252362Y-108521326D01*
X151270330Y-108498561D01*
X151298050Y-108470842D01*
X151355646Y-108357804D01*
X151355646Y-108357802D01*
X151355647Y-108357801D01*
X151370499Y-108264024D01*
X151370500Y-108264019D01*
X151370499Y-107800982D01*
X151355646Y-107707196D01*
X151298050Y-107594158D01*
X151298046Y-107594154D01*
X151298045Y-107594152D01*
X151208347Y-107504454D01*
X151208344Y-107504452D01*
X151208342Y-107504450D01*
X151114463Y-107456616D01*
X151095301Y-107446852D01*
X151001524Y-107432000D01*
X150388482Y-107432000D01*
X150307519Y-107444823D01*
X150294696Y-107446854D01*
X150181658Y-107504450D01*
X150181657Y-107504451D01*
X150181652Y-107504454D01*
X150091954Y-107594152D01*
X150091951Y-107594157D01*
X150034352Y-107707198D01*
X150019500Y-107800975D01*
X150019500Y-108264017D01*
X150030292Y-108332157D01*
X150034354Y-108357804D01*
X150091950Y-108470842D01*
X150119667Y-108498559D01*
X150137637Y-108521327D01*
X150326105Y-108828089D01*
X150344427Y-108895514D01*
X150323387Y-108962140D01*
X150269666Y-109006815D01*
X150240198Y-109015418D01*
X150230390Y-109017000D01*
X150170000Y-109017000D01*
X150124272Y-109022152D01*
X150086916Y-109040141D01*
X150069110Y-109043014D01*
X150051617Y-109040803D01*
X150034224Y-109043668D01*
X150001910Y-109035157D01*
X149998227Y-109033631D01*
X149939752Y-109022000D01*
X149939748Y-109022000D01*
X148900252Y-109022000D01*
X148900249Y-109022000D01*
X148829791Y-109036015D01*
X148829495Y-109034529D01*
X148773670Y-109040528D01*
X148768102Y-109039391D01*
X148670004Y-109017000D01*
X148670000Y-109017000D01*
X148054174Y-109017000D01*
X148054167Y-109017000D01*
X148000992Y-109024002D01*
X148000986Y-109024003D01*
X147873811Y-109058080D01*
X147824268Y-109078601D01*
X147824254Y-109078608D01*
X147710240Y-109144434D01*
X147667683Y-109177090D01*
X147574590Y-109270183D01*
X147541934Y-109312740D01*
X147476108Y-109426754D01*
X147476101Y-109426768D01*
X147455579Y-109476314D01*
X147455578Y-109476316D01*
X147439493Y-109536343D01*
X147421655Y-109565606D01*
X147404177Y-109595037D01*
X147403377Y-109595591D01*
X147403127Y-109596003D01*
X147375177Y-109615154D01*
X147337674Y-109633907D01*
X147282216Y-109647000D01*
X147028688Y-109647000D01*
X146961649Y-109627315D01*
X146941007Y-109610681D01*
X145131757Y-107801430D01*
X145098272Y-107740107D01*
X145103256Y-107670415D01*
X145103559Y-107669611D01*
X145188574Y-107447442D01*
X145202984Y-107422485D01*
X145214334Y-107380123D01*
X145220254Y-107364655D01*
X145225700Y-107348429D01*
X145226245Y-107346549D01*
X145227780Y-107340958D01*
X145227780Y-107340950D01*
X145228876Y-107333640D01*
X145229093Y-107333672D01*
X145231890Y-107314603D01*
X145240500Y-107282475D01*
X145240500Y-107137525D01*
X145202984Y-106997515D01*
X145197042Y-106987224D01*
X145130511Y-106871988D01*
X145130506Y-106871982D01*
X145028017Y-106769493D01*
X145028011Y-106769488D01*
X144902488Y-106697017D01*
X144902489Y-106697017D01*
X144891006Y-106693940D01*
X144762475Y-106659500D01*
X144617525Y-106659500D01*
X144488993Y-106693940D01*
X144477511Y-106697017D01*
X144351988Y-106769488D01*
X144351982Y-106769493D01*
X144249493Y-106871982D01*
X144249488Y-106871988D01*
X144177017Y-106997511D01*
X144177016Y-106997515D01*
X144139500Y-107137525D01*
X140647540Y-107137525D01*
X140710130Y-106986420D01*
X140750500Y-106783465D01*
X140750500Y-106576535D01*
X140710130Y-106373580D01*
X140630941Y-106182402D01*
X140515977Y-106010345D01*
X140515975Y-106010342D01*
X140369657Y-105864024D01*
X140283626Y-105806541D01*
X140197598Y-105749059D01*
X140006420Y-105669870D01*
X140006412Y-105669868D01*
X139803469Y-105629500D01*
X139803465Y-105629500D01*
X139596535Y-105629500D01*
X139596530Y-105629500D01*
X139393587Y-105669868D01*
X139393579Y-105669870D01*
X139202403Y-105749058D01*
X139030342Y-105864024D01*
X138884024Y-106010342D01*
X138769058Y-106182403D01*
X138689870Y-106373579D01*
X138689868Y-106373587D01*
X138649500Y-106576530D01*
X138000500Y-106576530D01*
X138000500Y-104036530D01*
X138649500Y-104036530D01*
X138649500Y-104243469D01*
X138689868Y-104446412D01*
X138689870Y-104446420D01*
X138762793Y-104622472D01*
X138769059Y-104637598D01*
X138797398Y-104680011D01*
X138884024Y-104809657D01*
X139030342Y-104955975D01*
X139030345Y-104955977D01*
X139202402Y-105070941D01*
X139393580Y-105150130D01*
X139596530Y-105190499D01*
X139596534Y-105190500D01*
X139596535Y-105190500D01*
X139803466Y-105190500D01*
X139803467Y-105190499D01*
X140006420Y-105150130D01*
X140197598Y-105070941D01*
X140369655Y-104955977D01*
X140515977Y-104809655D01*
X140630941Y-104637598D01*
X140710130Y-104446420D01*
X140750500Y-104243465D01*
X140750500Y-104036535D01*
X140710130Y-103833580D01*
X140630941Y-103642402D01*
X140515977Y-103470345D01*
X140515975Y-103470342D01*
X140369657Y-103324024D01*
X140283626Y-103266541D01*
X140197598Y-103209059D01*
X140006420Y-103129870D01*
X140006412Y-103129868D01*
X139803469Y-103089500D01*
X139803465Y-103089500D01*
X139596535Y-103089500D01*
X139596530Y-103089500D01*
X139393587Y-103129868D01*
X139393579Y-103129870D01*
X139202403Y-103209058D01*
X139030342Y-103324024D01*
X138884024Y-103470342D01*
X138769058Y-103642403D01*
X138689870Y-103833579D01*
X138689868Y-103833587D01*
X138649500Y-104036530D01*
X138000500Y-104036530D01*
X138000500Y-101496530D01*
X138649500Y-101496530D01*
X138649500Y-101703469D01*
X138684961Y-101881741D01*
X138689870Y-101906420D01*
X138769059Y-102097598D01*
X138787929Y-102125839D01*
X138884024Y-102269657D01*
X139030342Y-102415975D01*
X139030345Y-102415977D01*
X139202402Y-102530941D01*
X139393580Y-102610130D01*
X139596530Y-102650499D01*
X139596534Y-102650500D01*
X139596535Y-102650500D01*
X139803466Y-102650500D01*
X139803467Y-102650499D01*
X140006420Y-102610130D01*
X140197598Y-102530941D01*
X140369655Y-102415977D01*
X140515977Y-102269655D01*
X140630941Y-102097598D01*
X140710130Y-101906420D01*
X140750500Y-101703465D01*
X140750500Y-101496535D01*
X140710130Y-101293580D01*
X140630941Y-101102402D01*
X140588574Y-101038995D01*
X145869499Y-101038995D01*
X145896418Y-101174322D01*
X145896421Y-101174332D01*
X145949222Y-101301806D01*
X145949225Y-101301811D01*
X145953157Y-101307696D01*
X145964816Y-101329619D01*
X146195297Y-101892806D01*
X146235262Y-101990460D01*
X146244500Y-102037426D01*
X146244500Y-103890725D01*
X146239984Y-103923884D01*
X146239260Y-103926490D01*
X146239260Y-103926492D01*
X146197398Y-104488317D01*
X146195508Y-104499460D01*
X146195561Y-104499467D01*
X146194500Y-104507523D01*
X146194500Y-104507525D01*
X146194500Y-104652475D01*
X146232016Y-104792485D01*
X146232017Y-104792488D01*
X146304488Y-104918011D01*
X146304490Y-104918013D01*
X146304491Y-104918015D01*
X146406985Y-105020509D01*
X146406986Y-105020510D01*
X146406988Y-105020511D01*
X146532511Y-105092982D01*
X146532512Y-105092982D01*
X146532515Y-105092984D01*
X146672525Y-105130500D01*
X146672528Y-105130500D01*
X146817472Y-105130500D01*
X146817475Y-105130500D01*
X146957485Y-105092984D01*
X147083015Y-105020509D01*
X147185509Y-104918015D01*
X147257984Y-104792485D01*
X147295500Y-104652475D01*
X147295500Y-104507525D01*
X147257984Y-104367515D01*
X147200368Y-104267721D01*
X147193009Y-104252378D01*
X147186500Y-104243702D01*
X147185513Y-104241991D01*
X147185510Y-104241988D01*
X147185509Y-104241985D01*
X147185506Y-104241982D01*
X147180557Y-104235531D01*
X147180571Y-104235520D01*
X147179042Y-104233757D01*
X146920305Y-103888821D01*
X146895825Y-103823381D01*
X146895500Y-103814415D01*
X146895500Y-102452049D01*
X146915185Y-102385010D01*
X146967989Y-102339255D01*
X147037147Y-102329311D01*
X147081499Y-102344662D01*
X147125783Y-102370229D01*
X147182509Y-102402981D01*
X147182510Y-102402982D01*
X147182512Y-102402982D01*
X147182515Y-102402984D01*
X147322525Y-102440500D01*
X147322528Y-102440500D01*
X147467472Y-102440500D01*
X147467475Y-102440500D01*
X147607485Y-102402984D01*
X147733015Y-102330509D01*
X147835509Y-102228015D01*
X147907984Y-102102485D01*
X147945500Y-101962475D01*
X147945500Y-101892806D01*
X147948748Y-101881741D01*
X147947565Y-101870271D01*
X147958414Y-101848824D01*
X147965185Y-101825767D01*
X147973898Y-101818216D01*
X147979105Y-101807925D01*
X147999828Y-101795748D01*
X148017989Y-101780012D01*
X148029402Y-101778370D01*
X148039345Y-101772529D01*
X148063357Y-101773488D01*
X148087147Y-101770068D01*
X148097636Y-101774858D01*
X148109159Y-101775319D01*
X148128840Y-101789108D01*
X148150703Y-101799093D01*
X148158406Y-101809823D01*
X148166381Y-101815411D01*
X148184260Y-101845838D01*
X148209054Y-101906420D01*
X148235262Y-101970460D01*
X148244500Y-102017426D01*
X148244500Y-103789951D01*
X148238694Y-103827448D01*
X148067172Y-104368113D01*
X148054785Y-104407157D01*
X148051695Y-104417899D01*
X148051387Y-104419092D01*
X148051386Y-104419094D01*
X148051346Y-104420470D01*
X148047177Y-104448871D01*
X148039500Y-104477524D01*
X148039500Y-104477525D01*
X148039500Y-104622475D01*
X148077016Y-104762485D01*
X148077017Y-104762488D01*
X148149488Y-104888011D01*
X148149490Y-104888013D01*
X148149491Y-104888015D01*
X148251985Y-104990509D01*
X148251986Y-104990510D01*
X148251988Y-104990511D01*
X148377511Y-105062982D01*
X148377512Y-105062982D01*
X148377515Y-105062984D01*
X148517525Y-105100500D01*
X148517528Y-105100500D01*
X148662472Y-105100500D01*
X148662475Y-105100500D01*
X148802485Y-105062984D01*
X148928015Y-104990509D01*
X149030509Y-104888015D01*
X149102984Y-104762485D01*
X149140500Y-104622475D01*
X149140500Y-104477525D01*
X149123515Y-104414138D01*
X149120374Y-104395607D01*
X149114235Y-104379505D01*
X149102984Y-104337515D01*
X149093928Y-104321831D01*
X149085450Y-104304003D01*
X148903635Y-103827101D01*
X148895500Y-103782928D01*
X148895500Y-102017425D01*
X148904738Y-101970460D01*
X148930946Y-101906420D01*
X149179908Y-101298074D01*
X149190775Y-101281811D01*
X149243580Y-101154328D01*
X149248660Y-101128788D01*
X149251727Y-101120147D01*
X149252370Y-101118021D01*
X149254557Y-101110244D01*
X149254638Y-101107507D01*
X149256964Y-101087035D01*
X149270500Y-101018993D01*
X149270500Y-100881007D01*
X149270500Y-100881004D01*
X149243581Y-100745677D01*
X149243580Y-100745676D01*
X149243580Y-100745672D01*
X149211846Y-100669058D01*
X149190778Y-100618195D01*
X149190771Y-100618182D01*
X149114114Y-100503458D01*
X149114111Y-100503454D01*
X149016545Y-100405888D01*
X149016541Y-100405885D01*
X148901817Y-100329228D01*
X148901804Y-100329221D01*
X148774332Y-100276421D01*
X148774322Y-100276418D01*
X148638995Y-100249500D01*
X148638993Y-100249500D01*
X148501007Y-100249500D01*
X148501005Y-100249500D01*
X148365677Y-100276418D01*
X148365667Y-100276421D01*
X148238195Y-100329221D01*
X148238182Y-100329228D01*
X148123458Y-100405885D01*
X148123454Y-100405888D01*
X148097181Y-100432162D01*
X148077744Y-100442774D01*
X148061011Y-100457275D01*
X148047679Y-100459191D01*
X148035858Y-100465647D01*
X148013771Y-100464067D01*
X147991853Y-100467219D01*
X147979601Y-100461623D01*
X147966166Y-100460663D01*
X147948439Y-100447392D01*
X147928297Y-100438194D01*
X147921014Y-100426862D01*
X147910233Y-100418791D01*
X147902495Y-100398045D01*
X147890523Y-100379416D01*
X147887371Y-100357497D01*
X147885816Y-100353327D01*
X147885500Y-100344481D01*
X147885500Y-100257425D01*
X147894738Y-100210460D01*
X147915445Y-100159862D01*
X148165183Y-99549618D01*
X148176845Y-99527692D01*
X148180774Y-99521812D01*
X148180775Y-99521811D01*
X148233580Y-99394328D01*
X148238660Y-99368788D01*
X148241727Y-99360147D01*
X148242370Y-99358021D01*
X148244557Y-99350244D01*
X148244948Y-99337172D01*
X148260500Y-99258993D01*
X148260500Y-99121007D01*
X148260500Y-99121004D01*
X148233581Y-98985677D01*
X148233580Y-98985676D01*
X148233580Y-98985672D01*
X148221509Y-98956530D01*
X148180778Y-98858195D01*
X148180771Y-98858182D01*
X148104114Y-98743458D01*
X148104111Y-98743454D01*
X148006545Y-98645888D01*
X148006541Y-98645885D01*
X147891817Y-98569228D01*
X147891804Y-98569221D01*
X147764332Y-98516421D01*
X147764322Y-98516418D01*
X147628995Y-98489500D01*
X147628993Y-98489500D01*
X147491007Y-98489500D01*
X147491005Y-98489500D01*
X147355677Y-98516418D01*
X147355667Y-98516421D01*
X147228195Y-98569221D01*
X147228182Y-98569228D01*
X147113458Y-98645885D01*
X147113454Y-98645888D01*
X147015888Y-98743454D01*
X147015885Y-98743458D01*
X146939228Y-98858182D01*
X146939221Y-98858195D01*
X146886421Y-98985667D01*
X146886418Y-98985677D01*
X146859500Y-99121004D01*
X146859500Y-99121007D01*
X146859500Y-99258993D01*
X146859500Y-99258995D01*
X146859499Y-99258995D01*
X146886418Y-99394322D01*
X146886421Y-99394332D01*
X146939222Y-99521806D01*
X146939225Y-99521811D01*
X146943157Y-99527696D01*
X146954816Y-99549619D01*
X146958081Y-99557596D01*
X147204554Y-100159861D01*
X147225262Y-100210460D01*
X147226813Y-100218345D01*
X147229477Y-100222491D01*
X147234500Y-100257426D01*
X147234500Y-100344481D01*
X147214815Y-100411520D01*
X147162011Y-100457275D01*
X147092853Y-100467219D01*
X147029297Y-100438194D01*
X147022819Y-100432162D01*
X147016545Y-100425888D01*
X147016541Y-100425885D01*
X146901817Y-100349228D01*
X146901804Y-100349221D01*
X146774332Y-100296421D01*
X146774322Y-100296418D01*
X146638995Y-100269500D01*
X146638993Y-100269500D01*
X146501007Y-100269500D01*
X146501005Y-100269500D01*
X146365677Y-100296418D01*
X146365667Y-100296421D01*
X146238195Y-100349221D01*
X146238182Y-100349228D01*
X146123458Y-100425885D01*
X146123454Y-100425888D01*
X146025888Y-100523454D01*
X146025885Y-100523458D01*
X145949228Y-100638182D01*
X145949221Y-100638195D01*
X145896421Y-100765667D01*
X145896418Y-100765677D01*
X145869500Y-100901004D01*
X145869500Y-100901007D01*
X145869500Y-101038993D01*
X145869500Y-101038995D01*
X145869499Y-101038995D01*
X140588574Y-101038995D01*
X140515977Y-100930345D01*
X140515975Y-100930342D01*
X140369657Y-100784024D01*
X140283626Y-100726541D01*
X140197598Y-100669059D01*
X140006420Y-100589870D01*
X140006412Y-100589868D01*
X139803469Y-100549500D01*
X139803465Y-100549500D01*
X139596535Y-100549500D01*
X139596530Y-100549500D01*
X139393587Y-100589868D01*
X139393579Y-100589870D01*
X139202403Y-100669058D01*
X139030342Y-100784024D01*
X138884024Y-100930342D01*
X138769058Y-101102403D01*
X138689870Y-101293579D01*
X138689868Y-101293587D01*
X138649500Y-101496530D01*
X138000500Y-101496530D01*
X138000500Y-98956530D01*
X138649500Y-98956530D01*
X138649500Y-99163469D01*
X138689868Y-99366412D01*
X138689870Y-99366420D01*
X138769058Y-99557596D01*
X138884024Y-99729657D01*
X139030342Y-99875975D01*
X139030345Y-99875977D01*
X139202402Y-99990941D01*
X139393580Y-100070130D01*
X139596530Y-100110499D01*
X139596534Y-100110500D01*
X139596535Y-100110500D01*
X139803466Y-100110500D01*
X139803467Y-100110499D01*
X140006420Y-100070130D01*
X140197598Y-99990941D01*
X140369655Y-99875977D01*
X140515977Y-99729655D01*
X140630941Y-99557598D01*
X140710130Y-99366420D01*
X140750500Y-99163465D01*
X140750500Y-98956535D01*
X140710130Y-98753580D01*
X140630941Y-98562402D01*
X140515977Y-98390345D01*
X140515975Y-98390342D01*
X140369657Y-98244024D01*
X140283626Y-98186541D01*
X140197598Y-98129059D01*
X140006420Y-98049870D01*
X140006412Y-98049868D01*
X139803469Y-98009500D01*
X139803465Y-98009500D01*
X139596535Y-98009500D01*
X139596530Y-98009500D01*
X139393587Y-98049868D01*
X139393579Y-98049870D01*
X139202403Y-98129058D01*
X139030342Y-98244024D01*
X138884024Y-98390342D01*
X138769058Y-98562403D01*
X138689870Y-98753579D01*
X138689868Y-98753587D01*
X138649500Y-98956530D01*
X138000500Y-98956530D01*
X138000500Y-96416530D01*
X138649500Y-96416530D01*
X138649500Y-96623469D01*
X138689868Y-96826412D01*
X138689870Y-96826420D01*
X138769058Y-97017596D01*
X138884024Y-97189657D01*
X139030342Y-97335975D01*
X139030345Y-97335977D01*
X139202402Y-97450941D01*
X139393580Y-97530130D01*
X139596530Y-97570499D01*
X139596534Y-97570500D01*
X139596535Y-97570500D01*
X139803466Y-97570500D01*
X139803467Y-97570499D01*
X140006420Y-97530130D01*
X140197598Y-97450941D01*
X140369655Y-97335977D01*
X140515977Y-97189655D01*
X140630941Y-97017598D01*
X140710130Y-96826420D01*
X140750500Y-96623465D01*
X140750500Y-96416535D01*
X140710130Y-96213580D01*
X140630941Y-96022402D01*
X140515977Y-95850345D01*
X140515975Y-95850342D01*
X140369657Y-95704024D01*
X140283626Y-95646541D01*
X140197598Y-95589059D01*
X140006420Y-95509870D01*
X140006412Y-95509868D01*
X139803469Y-95469500D01*
X139803465Y-95469500D01*
X139596535Y-95469500D01*
X139596530Y-95469500D01*
X139393587Y-95509868D01*
X139393579Y-95509870D01*
X139202403Y-95589058D01*
X139030342Y-95704024D01*
X138884024Y-95850342D01*
X138769058Y-96022403D01*
X138689870Y-96213579D01*
X138689868Y-96213587D01*
X138649500Y-96416530D01*
X138000500Y-96416530D01*
X138000500Y-93876530D01*
X138649500Y-93876530D01*
X138649500Y-94083469D01*
X138689868Y-94286412D01*
X138689870Y-94286420D01*
X138747834Y-94426358D01*
X138769059Y-94477598D01*
X138826541Y-94563626D01*
X138884024Y-94649657D01*
X139030342Y-94795975D01*
X139030345Y-94795977D01*
X139202402Y-94910941D01*
X139393580Y-94990130D01*
X139596530Y-95030499D01*
X139596534Y-95030500D01*
X139596535Y-95030500D01*
X139803466Y-95030500D01*
X139803467Y-95030499D01*
X140006420Y-94990130D01*
X140197598Y-94910941D01*
X140369655Y-94795977D01*
X140515977Y-94649655D01*
X140630941Y-94477598D01*
X140710130Y-94286420D01*
X140750500Y-94083465D01*
X140750500Y-93876535D01*
X140744542Y-93846582D01*
X143805001Y-93846582D01*
X143811408Y-93917102D01*
X143811409Y-93917107D01*
X143861981Y-94079396D01*
X143949927Y-94224877D01*
X144070122Y-94345072D01*
X144215604Y-94433019D01*
X144215603Y-94433019D01*
X144377894Y-94483590D01*
X144377892Y-94483590D01*
X144448418Y-94489999D01*
X145030000Y-94489999D01*
X145111581Y-94489999D01*
X145182102Y-94483591D01*
X145182107Y-94483590D01*
X145344396Y-94433018D01*
X145489877Y-94345072D01*
X145610072Y-94224877D01*
X145698019Y-94079395D01*
X145748590Y-93917106D01*
X145754999Y-93846582D01*
X146345001Y-93846582D01*
X146351408Y-93917102D01*
X146351409Y-93917107D01*
X146401981Y-94079396D01*
X146489927Y-94224877D01*
X146610122Y-94345072D01*
X146755604Y-94433019D01*
X146755603Y-94433019D01*
X146917894Y-94483590D01*
X146917892Y-94483590D01*
X146988418Y-94489999D01*
X147570000Y-94489999D01*
X147651581Y-94489999D01*
X147722102Y-94483591D01*
X147722107Y-94483590D01*
X147884396Y-94433018D01*
X148029877Y-94345072D01*
X148150072Y-94224877D01*
X148238019Y-94079395D01*
X148288590Y-93917106D01*
X148295000Y-93846572D01*
X148295000Y-93840000D01*
X147570000Y-93840000D01*
X147570000Y-94489999D01*
X146988418Y-94489999D01*
X147069999Y-94489998D01*
X147070000Y-94489998D01*
X147070000Y-93840000D01*
X146345001Y-93840000D01*
X146345001Y-93846582D01*
X145754999Y-93846582D01*
X145755000Y-93846572D01*
X145755000Y-93840000D01*
X145030000Y-93840000D01*
X145030000Y-94489999D01*
X144448418Y-94489999D01*
X144529999Y-94489998D01*
X144530000Y-94489998D01*
X144530000Y-93840000D01*
X143805001Y-93840000D01*
X143805001Y-93846582D01*
X140744542Y-93846582D01*
X140737828Y-93812828D01*
X140737828Y-93812825D01*
X140710131Y-93673587D01*
X140710130Y-93673580D01*
X140630941Y-93482402D01*
X140548136Y-93358475D01*
X149184500Y-93358475D01*
X149184500Y-93821517D01*
X149188470Y-93846582D01*
X149199354Y-93915304D01*
X149256950Y-94028342D01*
X149284667Y-94056059D01*
X149302637Y-94078827D01*
X149305487Y-94083466D01*
X149466212Y-94345072D01*
X149516153Y-94426358D01*
X149534500Y-94491269D01*
X149534500Y-100002852D01*
X149556682Y-100085640D01*
X149578108Y-100122750D01*
X149599535Y-100159862D01*
X149599537Y-100159864D01*
X150313181Y-100873508D01*
X150346666Y-100934831D01*
X150349500Y-100961189D01*
X150349500Y-104408114D01*
X150329815Y-104475153D01*
X150313181Y-104495795D01*
X150254493Y-104554482D01*
X150254488Y-104554488D01*
X150182017Y-104680011D01*
X150182016Y-104680015D01*
X150144500Y-104820025D01*
X150144500Y-104820027D01*
X150144500Y-104964976D01*
X150157105Y-105012021D01*
X150157106Y-105012021D01*
X150159068Y-105019343D01*
X150162141Y-105041209D01*
X150174110Y-105075481D01*
X150180814Y-105100500D01*
X150182017Y-105104988D01*
X150182258Y-105105405D01*
X150191930Y-105126508D01*
X150317759Y-105486795D01*
X150321279Y-105556576D01*
X150307877Y-105590031D01*
X150123782Y-105906498D01*
X150104283Y-105931823D01*
X150100064Y-105936043D01*
X150091948Y-105944159D01*
X150034352Y-106057198D01*
X150019500Y-106150975D01*
X150019500Y-106614017D01*
X150026704Y-106659500D01*
X150034354Y-106707804D01*
X150091950Y-106820842D01*
X150091952Y-106820844D01*
X150091954Y-106820847D01*
X150181652Y-106910545D01*
X150181654Y-106910546D01*
X150181658Y-106910550D01*
X150294694Y-106968145D01*
X150294698Y-106968147D01*
X150388475Y-106982999D01*
X150388481Y-106983000D01*
X150531846Y-106982999D01*
X150563939Y-106987223D01*
X150632147Y-107005500D01*
X150632149Y-107005500D01*
X150717851Y-107005500D01*
X150717853Y-107005500D01*
X150779486Y-106988985D01*
X150786061Y-106987224D01*
X150818154Y-106982999D01*
X151001517Y-106982999D01*
X151001518Y-106982999D01*
X151095304Y-106968146D01*
X151208342Y-106910550D01*
X151298050Y-106820842D01*
X151355646Y-106707804D01*
X151355646Y-106707802D01*
X151355647Y-106707801D01*
X151370500Y-106614024D01*
X151370500Y-106576530D01*
X153889500Y-106576530D01*
X153889500Y-106783469D01*
X153929868Y-106986412D01*
X153929870Y-106986420D01*
X154009058Y-107177596D01*
X154124024Y-107349657D01*
X154270342Y-107495975D01*
X154270345Y-107495977D01*
X154442402Y-107610941D01*
X154633580Y-107690130D01*
X154836530Y-107730499D01*
X154836534Y-107730500D01*
X154836535Y-107730500D01*
X155043466Y-107730500D01*
X155043467Y-107730499D01*
X155246420Y-107690130D01*
X155437598Y-107610941D01*
X155609655Y-107495977D01*
X155755977Y-107349655D01*
X155870941Y-107177598D01*
X155950130Y-106986420D01*
X155990500Y-106783465D01*
X155990500Y-106576535D01*
X155950130Y-106373580D01*
X155870941Y-106182402D01*
X155755977Y-106010345D01*
X155755975Y-106010342D01*
X155609657Y-105864024D01*
X155523626Y-105806541D01*
X155437598Y-105749059D01*
X155246420Y-105669870D01*
X155246412Y-105669868D01*
X155043469Y-105629500D01*
X155043465Y-105629500D01*
X154836535Y-105629500D01*
X154836530Y-105629500D01*
X154633587Y-105669868D01*
X154633579Y-105669870D01*
X154442403Y-105749058D01*
X154270342Y-105864024D01*
X154124024Y-106010342D01*
X154009058Y-106182403D01*
X153929870Y-106373579D01*
X153929868Y-106373587D01*
X153889500Y-106576530D01*
X151370500Y-106576530D01*
X151370500Y-106570443D01*
X151370499Y-106150982D01*
X151370498Y-106150975D01*
X151355646Y-106057196D01*
X151298050Y-105944158D01*
X151270330Y-105916438D01*
X151252361Y-105893671D01*
X151077756Y-105609472D01*
X151059434Y-105542047D01*
X151066341Y-105503684D01*
X151201911Y-105115503D01*
X151207984Y-105104985D01*
X151215892Y-105075469D01*
X151227858Y-105041209D01*
X151232037Y-105027784D01*
X151232460Y-105026241D01*
X151233117Y-105023785D01*
X151233117Y-105023781D01*
X151233118Y-105023778D01*
X151234158Y-105016709D01*
X151234176Y-105016711D01*
X151237277Y-104995661D01*
X151245500Y-104964975D01*
X151245500Y-104820025D01*
X151207984Y-104680015D01*
X151183494Y-104637598D01*
X151135511Y-104554488D01*
X151135510Y-104554487D01*
X151135509Y-104554485D01*
X151036818Y-104455794D01*
X151003334Y-104394471D01*
X151000500Y-104368113D01*
X151000500Y-104036530D01*
X153889500Y-104036530D01*
X153889500Y-104243469D01*
X153929868Y-104446412D01*
X153929870Y-104446420D01*
X154002793Y-104622472D01*
X154009059Y-104637598D01*
X154037398Y-104680011D01*
X154124024Y-104809657D01*
X154270342Y-104955975D01*
X154270345Y-104955977D01*
X154442402Y-105070941D01*
X154633580Y-105150130D01*
X154836530Y-105190499D01*
X154836534Y-105190500D01*
X154836535Y-105190500D01*
X155043466Y-105190500D01*
X155043467Y-105190499D01*
X155246420Y-105150130D01*
X155437598Y-105070941D01*
X155609655Y-104955977D01*
X155755977Y-104809655D01*
X155870941Y-104637598D01*
X155950130Y-104446420D01*
X155990500Y-104243465D01*
X155990500Y-104036535D01*
X155950130Y-103833580D01*
X155870941Y-103642402D01*
X155755977Y-103470345D01*
X155755975Y-103470342D01*
X155609657Y-103324024D01*
X155523626Y-103266541D01*
X155437598Y-103209059D01*
X155246420Y-103129870D01*
X155246412Y-103129868D01*
X155043469Y-103089500D01*
X155043465Y-103089500D01*
X154836535Y-103089500D01*
X154836530Y-103089500D01*
X154633587Y-103129868D01*
X154633579Y-103129870D01*
X154442403Y-103209058D01*
X154270342Y-103324024D01*
X154124024Y-103470342D01*
X154009058Y-103642403D01*
X153929870Y-103833579D01*
X153929868Y-103833587D01*
X153889500Y-104036530D01*
X151000500Y-104036530D01*
X151000500Y-101496530D01*
X153889500Y-101496530D01*
X153889500Y-101703469D01*
X153924961Y-101881741D01*
X153929870Y-101906420D01*
X154009059Y-102097598D01*
X154027929Y-102125839D01*
X154124024Y-102269657D01*
X154270342Y-102415975D01*
X154270345Y-102415977D01*
X154442402Y-102530941D01*
X154633580Y-102610130D01*
X154836530Y-102650499D01*
X154836534Y-102650500D01*
X154836535Y-102650500D01*
X155043466Y-102650500D01*
X155043467Y-102650499D01*
X155246420Y-102610130D01*
X155437598Y-102530941D01*
X155609655Y-102415977D01*
X155755977Y-102269655D01*
X155870941Y-102097598D01*
X155950130Y-101906420D01*
X155990500Y-101703465D01*
X155990500Y-101496535D01*
X155950130Y-101293580D01*
X155870941Y-101102402D01*
X155755977Y-100930345D01*
X155755975Y-100930342D01*
X155609657Y-100784024D01*
X155523626Y-100726541D01*
X155437598Y-100669059D01*
X155246420Y-100589870D01*
X155246412Y-100589868D01*
X155043469Y-100549500D01*
X155043465Y-100549500D01*
X154836535Y-100549500D01*
X154836530Y-100549500D01*
X154633587Y-100589868D01*
X154633579Y-100589870D01*
X154442403Y-100669058D01*
X154270342Y-100784024D01*
X154124024Y-100930342D01*
X154009058Y-101102403D01*
X153929870Y-101293579D01*
X153929868Y-101293587D01*
X153889500Y-101496530D01*
X151000500Y-101496530D01*
X151000500Y-100732149D01*
X151000500Y-100732147D01*
X150978318Y-100649362D01*
X150978318Y-100649361D01*
X150935465Y-100575138D01*
X150221819Y-99861492D01*
X150188334Y-99800169D01*
X150185500Y-99773811D01*
X150185500Y-98956530D01*
X153889500Y-98956530D01*
X153889500Y-99163469D01*
X153929868Y-99366412D01*
X153929870Y-99366420D01*
X154009058Y-99557596D01*
X154124024Y-99729657D01*
X154270342Y-99875975D01*
X154270345Y-99875977D01*
X154442402Y-99990941D01*
X154633580Y-100070130D01*
X154836530Y-100110499D01*
X154836534Y-100110500D01*
X154836535Y-100110500D01*
X155043466Y-100110500D01*
X155043467Y-100110499D01*
X155246420Y-100070130D01*
X155437598Y-99990941D01*
X155609655Y-99875977D01*
X155755977Y-99729655D01*
X155870941Y-99557598D01*
X155950130Y-99366420D01*
X155990500Y-99163465D01*
X155990500Y-98956535D01*
X155950130Y-98753580D01*
X155870941Y-98562402D01*
X155755977Y-98390345D01*
X155755975Y-98390342D01*
X155609657Y-98244024D01*
X155523626Y-98186541D01*
X155437598Y-98129059D01*
X155246420Y-98049870D01*
X155246412Y-98049868D01*
X155043469Y-98009500D01*
X155043465Y-98009500D01*
X154836535Y-98009500D01*
X154836530Y-98009500D01*
X154633587Y-98049868D01*
X154633579Y-98049870D01*
X154442403Y-98129058D01*
X154270342Y-98244024D01*
X154124024Y-98390342D01*
X154009058Y-98562403D01*
X153929870Y-98753579D01*
X153929868Y-98753587D01*
X153889500Y-98956530D01*
X150185500Y-98956530D01*
X150185500Y-96416530D01*
X153889500Y-96416530D01*
X153889500Y-96623469D01*
X153929868Y-96826412D01*
X153929870Y-96826420D01*
X154009058Y-97017596D01*
X154124024Y-97189657D01*
X154270342Y-97335975D01*
X154270345Y-97335977D01*
X154442402Y-97450941D01*
X154633580Y-97530130D01*
X154836530Y-97570499D01*
X154836534Y-97570500D01*
X154836535Y-97570500D01*
X155043466Y-97570500D01*
X155043467Y-97570499D01*
X155246420Y-97530130D01*
X155437598Y-97450941D01*
X155609655Y-97335977D01*
X155755977Y-97189655D01*
X155870941Y-97017598D01*
X155950130Y-96826420D01*
X155990500Y-96623465D01*
X155990500Y-96416535D01*
X155950130Y-96213580D01*
X155870941Y-96022402D01*
X155755977Y-95850345D01*
X155755975Y-95850342D01*
X155609657Y-95704024D01*
X155523626Y-95646541D01*
X155437598Y-95589059D01*
X155246420Y-95509870D01*
X155246412Y-95509868D01*
X155043469Y-95469500D01*
X155043465Y-95469500D01*
X154836535Y-95469500D01*
X154836530Y-95469500D01*
X154633587Y-95509868D01*
X154633579Y-95509870D01*
X154442403Y-95589058D01*
X154270342Y-95704024D01*
X154124024Y-95850342D01*
X154009058Y-96022403D01*
X153929870Y-96213579D01*
X153929868Y-96213587D01*
X153889500Y-96416530D01*
X150185500Y-96416530D01*
X150185500Y-94491270D01*
X150203847Y-94426359D01*
X150289827Y-94286412D01*
X150417362Y-94078826D01*
X150435330Y-94056061D01*
X150463050Y-94028342D01*
X150520646Y-93915304D01*
X150520646Y-93915302D01*
X150520647Y-93915301D01*
X150520647Y-93915300D01*
X150526788Y-93876530D01*
X153889500Y-93876530D01*
X153889500Y-94083469D01*
X153929868Y-94286412D01*
X153929870Y-94286420D01*
X153987834Y-94426358D01*
X154009059Y-94477598D01*
X154066541Y-94563626D01*
X154124024Y-94649657D01*
X154270342Y-94795975D01*
X154270345Y-94795977D01*
X154442402Y-94910941D01*
X154633580Y-94990130D01*
X154836530Y-95030499D01*
X154836534Y-95030500D01*
X154836535Y-95030500D01*
X155043466Y-95030500D01*
X155043467Y-95030499D01*
X155246420Y-94990130D01*
X155437598Y-94910941D01*
X155609655Y-94795977D01*
X155755977Y-94649655D01*
X155870941Y-94477598D01*
X155950130Y-94286420D01*
X155990500Y-94083465D01*
X155990500Y-93876535D01*
X155950130Y-93673580D01*
X155870941Y-93482402D01*
X155755977Y-93310345D01*
X155755975Y-93310342D01*
X155609657Y-93164024D01*
X155514740Y-93100603D01*
X155437598Y-93049059D01*
X155329666Y-93004352D01*
X155246420Y-92969870D01*
X155246412Y-92969868D01*
X155043469Y-92929500D01*
X155043465Y-92929500D01*
X154836535Y-92929500D01*
X154836530Y-92929500D01*
X154633587Y-92969868D01*
X154633579Y-92969870D01*
X154442403Y-93049058D01*
X154270342Y-93164024D01*
X154124024Y-93310342D01*
X154009058Y-93482403D01*
X153929870Y-93673579D01*
X153929868Y-93673587D01*
X153889500Y-93876530D01*
X150526788Y-93876530D01*
X150530824Y-93851046D01*
X150530824Y-93851044D01*
X150535499Y-93821523D01*
X150535500Y-93821519D01*
X150535499Y-93358482D01*
X150520646Y-93264696D01*
X150463050Y-93151658D01*
X150463046Y-93151654D01*
X150463045Y-93151652D01*
X150373347Y-93061954D01*
X150373344Y-93061952D01*
X150373342Y-93061950D01*
X150296517Y-93022805D01*
X150260301Y-93004352D01*
X150166524Y-92989500D01*
X149553482Y-92989500D01*
X149472519Y-93002323D01*
X149459696Y-93004354D01*
X149346658Y-93061950D01*
X149346657Y-93061951D01*
X149346652Y-93061954D01*
X149256954Y-93151652D01*
X149256951Y-93151657D01*
X149256950Y-93151658D01*
X149237751Y-93189337D01*
X149199352Y-93264698D01*
X149184500Y-93358475D01*
X140548136Y-93358475D01*
X140515977Y-93310345D01*
X140515975Y-93310342D01*
X140369657Y-93164024D01*
X140274740Y-93100603D01*
X140197598Y-93049059D01*
X140089666Y-93004352D01*
X140006420Y-92969870D01*
X140006412Y-92969868D01*
X139803469Y-92929500D01*
X139803465Y-92929500D01*
X139596535Y-92929500D01*
X139596530Y-92929500D01*
X139393587Y-92969868D01*
X139393579Y-92969870D01*
X139202403Y-93049058D01*
X139030342Y-93164024D01*
X138884024Y-93310342D01*
X138769058Y-93482403D01*
X138689870Y-93673579D01*
X138689868Y-93673587D01*
X138649500Y-93876530D01*
X138000500Y-93876530D01*
X138000500Y-91336530D01*
X138649500Y-91336530D01*
X138649500Y-91543469D01*
X138689868Y-91746412D01*
X138689870Y-91746420D01*
X138769058Y-91937596D01*
X138884024Y-92109657D01*
X139030342Y-92255975D01*
X139030345Y-92255977D01*
X139202402Y-92370941D01*
X139393580Y-92450130D01*
X139555200Y-92482278D01*
X139596530Y-92490499D01*
X139596534Y-92490500D01*
X139596535Y-92490500D01*
X139803466Y-92490500D01*
X139803467Y-92490499D01*
X140006420Y-92450130D01*
X140197598Y-92370941D01*
X140369655Y-92255977D01*
X140515977Y-92109655D01*
X140630941Y-91937598D01*
X140710130Y-91746420D01*
X140750500Y-91543465D01*
X140750500Y-91336535D01*
X140710130Y-91133580D01*
X140630941Y-90942402D01*
X140515977Y-90770345D01*
X140515975Y-90770342D01*
X140369657Y-90624024D01*
X140283626Y-90566541D01*
X140197598Y-90509059D01*
X140006420Y-90429870D01*
X140006412Y-90429868D01*
X139803469Y-90389500D01*
X139803465Y-90389500D01*
X139596535Y-90389500D01*
X139596530Y-90389500D01*
X139393587Y-90429868D01*
X139393579Y-90429870D01*
X139202403Y-90509058D01*
X139030342Y-90624024D01*
X138884024Y-90770342D01*
X138769058Y-90942403D01*
X138689870Y-91133579D01*
X138689868Y-91133587D01*
X138649500Y-91336530D01*
X138000500Y-91336530D01*
X138000500Y-88030247D01*
X138649500Y-88030247D01*
X138649500Y-89769752D01*
X138661131Y-89828229D01*
X138661132Y-89828230D01*
X138705447Y-89894552D01*
X138771769Y-89938867D01*
X138771770Y-89938868D01*
X138830247Y-89950499D01*
X138830250Y-89950500D01*
X138830252Y-89950500D01*
X140569750Y-89950500D01*
X140569751Y-89950499D01*
X140584568Y-89947552D01*
X140628229Y-89938868D01*
X140628229Y-89938867D01*
X140628231Y-89938867D01*
X140694552Y-89894552D01*
X140738867Y-89828231D01*
X140738867Y-89828229D01*
X140738868Y-89828229D01*
X140750499Y-89769752D01*
X140750500Y-89769750D01*
X140750500Y-88030249D01*
X140750499Y-88030247D01*
X143729500Y-88030247D01*
X143729500Y-89769752D01*
X143741131Y-89828229D01*
X143741132Y-89828230D01*
X143763561Y-89861797D01*
X143768689Y-89870171D01*
X143780656Y-89891574D01*
X143780658Y-89891577D01*
X144424844Y-90646829D01*
X144453372Y-90710607D01*
X144454500Y-90727296D01*
X144454500Y-91038729D01*
X144436153Y-91103640D01*
X144222634Y-91451174D01*
X144204664Y-91473943D01*
X144176951Y-91501656D01*
X144119352Y-91614698D01*
X144104500Y-91708475D01*
X144104500Y-92171517D01*
X144111537Y-92215945D01*
X144119354Y-92265304D01*
X144176950Y-92378342D01*
X144176952Y-92378344D01*
X144176954Y-92378347D01*
X144266652Y-92468045D01*
X144266654Y-92468046D01*
X144266658Y-92468050D01*
X144315612Y-92492993D01*
X144366408Y-92540968D01*
X144383203Y-92608789D01*
X144360665Y-92674924D01*
X144305950Y-92718375D01*
X144296208Y-92721863D01*
X144215603Y-92746981D01*
X144070122Y-92834927D01*
X143949927Y-92955122D01*
X143861980Y-93100604D01*
X143811409Y-93262893D01*
X143805000Y-93333427D01*
X143805000Y-93340000D01*
X145754999Y-93340000D01*
X145754999Y-93333417D01*
X145748591Y-93262897D01*
X145748590Y-93262892D01*
X145698018Y-93100603D01*
X145610072Y-92955122D01*
X145489877Y-92834927D01*
X145344396Y-92746981D01*
X145270226Y-92723868D01*
X145212078Y-92685130D01*
X145184105Y-92621105D01*
X145195187Y-92552119D01*
X145241806Y-92500077D01*
X145251981Y-92494416D01*
X145529730Y-92356579D01*
X145598530Y-92344411D01*
X145617081Y-92347916D01*
X145916247Y-92428465D01*
X145922622Y-92430073D01*
X145923349Y-92430244D01*
X145925290Y-92430280D01*
X145955073Y-92434483D01*
X145977525Y-92440500D01*
X145977526Y-92440500D01*
X146122472Y-92440500D01*
X146122475Y-92440500D01*
X146262485Y-92402984D01*
X146388015Y-92330509D01*
X146469096Y-92249427D01*
X146530415Y-92215945D01*
X146600107Y-92220929D01*
X146656041Y-92262800D01*
X146667252Y-92280805D01*
X146716950Y-92378342D01*
X146716951Y-92378343D01*
X146716954Y-92378347D01*
X146806652Y-92468045D01*
X146806654Y-92468046D01*
X146806658Y-92468050D01*
X146855612Y-92492993D01*
X146906408Y-92540968D01*
X146923203Y-92608789D01*
X146900665Y-92674924D01*
X146845950Y-92718375D01*
X146836208Y-92721863D01*
X146755603Y-92746981D01*
X146610122Y-92834927D01*
X146489927Y-92955122D01*
X146401980Y-93100604D01*
X146351409Y-93262893D01*
X146345000Y-93333427D01*
X146345000Y-93340000D01*
X148294999Y-93340000D01*
X148294999Y-93333417D01*
X148288591Y-93262897D01*
X148288590Y-93262892D01*
X148238018Y-93100603D01*
X148150072Y-92955122D01*
X148029877Y-92834927D01*
X147884396Y-92746981D01*
X147810226Y-92723868D01*
X147752078Y-92685130D01*
X147724105Y-92621105D01*
X147735187Y-92552119D01*
X147781806Y-92500077D01*
X147791982Y-92494416D01*
X148084375Y-92349311D01*
X148153176Y-92337143D01*
X148180380Y-92343320D01*
X148465982Y-92443064D01*
X148476997Y-92446911D01*
X148487515Y-92452984D01*
X148517026Y-92460891D01*
X148551290Y-92472858D01*
X148560349Y-92475678D01*
X148564711Y-92477036D01*
X148564715Y-92477037D01*
X148566258Y-92477460D01*
X148568714Y-92478117D01*
X148568716Y-92478117D01*
X148568720Y-92478118D01*
X148575790Y-92479158D01*
X148575787Y-92479176D01*
X148596837Y-92482277D01*
X148627525Y-92490500D01*
X148627528Y-92490500D01*
X148772472Y-92490500D01*
X148772475Y-92490500D01*
X148912485Y-92452984D01*
X149038015Y-92380509D01*
X149063101Y-92355422D01*
X149124420Y-92321939D01*
X149194112Y-92326923D01*
X149250046Y-92368793D01*
X149251122Y-92370518D01*
X149251217Y-92370450D01*
X149256954Y-92378347D01*
X149346652Y-92468045D01*
X149346654Y-92468046D01*
X149346658Y-92468050D01*
X149459694Y-92525645D01*
X149459698Y-92525647D01*
X149553475Y-92540499D01*
X149553481Y-92540500D01*
X150166518Y-92540499D01*
X150260304Y-92525646D01*
X150373342Y-92468050D01*
X150463050Y-92378342D01*
X150520646Y-92265304D01*
X150520646Y-92265302D01*
X150520647Y-92265301D01*
X150535499Y-92171524D01*
X150535500Y-92171519D01*
X150535499Y-91708482D01*
X150520646Y-91614696D01*
X150463050Y-91501658D01*
X150435330Y-91473938D01*
X150417361Y-91451171D01*
X150406564Y-91433597D01*
X150346928Y-91336530D01*
X153889500Y-91336530D01*
X153889500Y-91543469D01*
X153929868Y-91746412D01*
X153929870Y-91746420D01*
X154009058Y-91937596D01*
X154124024Y-92109657D01*
X154270342Y-92255975D01*
X154270345Y-92255977D01*
X154442402Y-92370941D01*
X154633580Y-92450130D01*
X154795200Y-92482278D01*
X154836530Y-92490499D01*
X154836534Y-92490500D01*
X154836535Y-92490500D01*
X155043466Y-92490500D01*
X155043467Y-92490499D01*
X155246420Y-92450130D01*
X155437598Y-92370941D01*
X155609655Y-92255977D01*
X155755977Y-92109655D01*
X155870941Y-91937598D01*
X155950130Y-91746420D01*
X155990500Y-91543465D01*
X155990500Y-91336535D01*
X155950130Y-91133580D01*
X155870941Y-90942402D01*
X155755977Y-90770345D01*
X155755975Y-90770342D01*
X155609657Y-90624024D01*
X155523626Y-90566541D01*
X155437598Y-90509059D01*
X155246420Y-90429870D01*
X155246412Y-90429868D01*
X155043469Y-90389500D01*
X155043465Y-90389500D01*
X154836535Y-90389500D01*
X154836530Y-90389500D01*
X154633587Y-90429868D01*
X154633579Y-90429870D01*
X154442403Y-90509058D01*
X154270342Y-90624024D01*
X154124024Y-90770342D01*
X154009058Y-90942403D01*
X153929870Y-91133579D01*
X153929868Y-91133587D01*
X153889500Y-91336530D01*
X150346928Y-91336530D01*
X150331763Y-91311846D01*
X150203847Y-91103639D01*
X150185500Y-91038729D01*
X150185500Y-90669091D01*
X150197721Y-90615413D01*
X150747601Y-89470346D01*
X150747602Y-89470342D01*
X150747605Y-89470337D01*
X150747606Y-89470331D01*
X150749396Y-89465682D01*
X150750325Y-89466039D01*
X150762259Y-89440523D01*
X150790935Y-89397607D01*
X150790935Y-89397606D01*
X150790941Y-89397598D01*
X150870130Y-89206420D01*
X150910500Y-89003465D01*
X150910500Y-88796535D01*
X150910499Y-88796530D01*
X153889500Y-88796530D01*
X153889500Y-89003469D01*
X153929868Y-89206412D01*
X153929870Y-89206420D01*
X154009059Y-89397598D01*
X154055434Y-89467003D01*
X154124024Y-89569657D01*
X154270342Y-89715975D01*
X154270345Y-89715977D01*
X154442402Y-89830941D01*
X154633580Y-89910130D01*
X154778052Y-89938867D01*
X154836530Y-89950499D01*
X154836534Y-89950500D01*
X154836535Y-89950500D01*
X155043466Y-89950500D01*
X155043467Y-89950499D01*
X155246420Y-89910130D01*
X155437598Y-89830941D01*
X155609655Y-89715977D01*
X155755977Y-89569655D01*
X155870941Y-89397598D01*
X155950130Y-89206420D01*
X155990500Y-89003465D01*
X155990500Y-88796535D01*
X155950130Y-88593580D01*
X155870941Y-88402402D01*
X155755977Y-88230345D01*
X155755975Y-88230342D01*
X155609657Y-88084024D01*
X155441655Y-87971770D01*
X155437598Y-87969059D01*
X155246420Y-87889870D01*
X155246412Y-87889868D01*
X155043469Y-87849500D01*
X155043465Y-87849500D01*
X154836535Y-87849500D01*
X154836530Y-87849500D01*
X154633587Y-87889868D01*
X154633579Y-87889870D01*
X154442403Y-87969058D01*
X154270342Y-88084024D01*
X154124024Y-88230342D01*
X154009058Y-88402403D01*
X153929870Y-88593579D01*
X153929868Y-88593587D01*
X153889500Y-88796530D01*
X150910499Y-88796530D01*
X150870130Y-88593580D01*
X150790941Y-88402402D01*
X150675977Y-88230345D01*
X150675975Y-88230342D01*
X150529657Y-88084024D01*
X150361655Y-87971770D01*
X150357598Y-87969059D01*
X150166420Y-87889870D01*
X150166412Y-87889868D01*
X149963469Y-87849500D01*
X149963465Y-87849500D01*
X149756535Y-87849500D01*
X149756530Y-87849500D01*
X149553587Y-87889868D01*
X149553579Y-87889870D01*
X149362403Y-87969058D01*
X149190342Y-88084024D01*
X149044024Y-88230342D01*
X148929058Y-88402403D01*
X148849870Y-88593579D01*
X148849868Y-88593587D01*
X148809500Y-88796530D01*
X148809500Y-89003469D01*
X148849868Y-89206412D01*
X148849870Y-89206420D01*
X148929059Y-89397598D01*
X148957782Y-89440587D01*
X148971178Y-89467003D01*
X148972392Y-89470334D01*
X149522279Y-90615413D01*
X149534500Y-90669091D01*
X149534500Y-91038729D01*
X149516153Y-91103640D01*
X149302634Y-91451174D01*
X149288578Y-91469845D01*
X149286656Y-91471950D01*
X149256950Y-91501658D01*
X149253664Y-91508106D01*
X149242377Y-91520476D01*
X149226093Y-91530359D01*
X149212972Y-91544170D01*
X149196842Y-91548113D01*
X149182648Y-91556729D01*
X149163605Y-91556239D01*
X149145101Y-91560764D01*
X149129400Y-91555361D01*
X149112801Y-91554935D01*
X149097045Y-91544227D01*
X149079034Y-91538030D01*
X149063099Y-91524575D01*
X149038017Y-91499493D01*
X149038011Y-91499488D01*
X148912488Y-91427017D01*
X148912489Y-91427017D01*
X148887428Y-91420302D01*
X148772475Y-91389500D01*
X148627525Y-91389500D01*
X148620754Y-91391314D01*
X148580479Y-91402104D01*
X148580480Y-91402105D01*
X148573153Y-91404068D01*
X148551291Y-91407141D01*
X148517020Y-91419109D01*
X148512565Y-91420303D01*
X148512562Y-91420302D01*
X148487520Y-91427014D01*
X148487504Y-91427020D01*
X148487083Y-91427264D01*
X148465990Y-91436930D01*
X148180382Y-91536677D01*
X148149067Y-91538256D01*
X148117901Y-91541716D01*
X148112927Y-91540079D01*
X148110601Y-91540197D01*
X148084375Y-91530686D01*
X147961776Y-91469845D01*
X147888731Y-91433595D01*
X147838202Y-91387433D01*
X147738013Y-91224358D01*
X147663847Y-91103640D01*
X147645500Y-91038729D01*
X147645500Y-90669091D01*
X147657721Y-90615413D01*
X148207601Y-89470346D01*
X148207602Y-89470342D01*
X148207605Y-89470337D01*
X148207606Y-89470331D01*
X148209396Y-89465682D01*
X148210325Y-89466039D01*
X148222259Y-89440523D01*
X148250935Y-89397607D01*
X148250935Y-89397606D01*
X148250941Y-89397598D01*
X148330130Y-89206420D01*
X148370500Y-89003465D01*
X148370500Y-88796535D01*
X148330130Y-88593580D01*
X148250941Y-88402402D01*
X148135977Y-88230345D01*
X148135975Y-88230342D01*
X147989657Y-88084024D01*
X147821655Y-87971770D01*
X147817598Y-87969059D01*
X147626420Y-87889870D01*
X147626412Y-87889868D01*
X147423469Y-87849500D01*
X147423465Y-87849500D01*
X147216535Y-87849500D01*
X147216530Y-87849500D01*
X147013587Y-87889868D01*
X147013579Y-87889870D01*
X146822403Y-87969058D01*
X146650342Y-88084024D01*
X146504024Y-88230342D01*
X146389058Y-88402403D01*
X146309870Y-88593579D01*
X146309868Y-88593587D01*
X146269500Y-88796530D01*
X146269500Y-89003469D01*
X146309868Y-89206412D01*
X146309870Y-89206420D01*
X146389059Y-89397598D01*
X146417782Y-89440587D01*
X146431178Y-89467003D01*
X146432392Y-89470334D01*
X146982279Y-90615413D01*
X146994500Y-90669091D01*
X146994500Y-91038729D01*
X146976153Y-91103640D01*
X146762634Y-91451174D01*
X146757024Y-91459526D01*
X146751396Y-91467210D01*
X146716950Y-91501658D01*
X146695863Y-91543041D01*
X146689959Y-91551105D01*
X146669829Y-91566506D01*
X146652425Y-91584934D01*
X146642548Y-91587379D01*
X146634468Y-91593562D01*
X146609205Y-91595636D01*
X146584604Y-91601728D01*
X146574974Y-91598446D01*
X146564833Y-91599279D01*
X146542459Y-91587365D01*
X146518469Y-91579190D01*
X146507720Y-91568867D01*
X146503161Y-91566440D01*
X146500799Y-91562221D01*
X146491545Y-91553334D01*
X146490512Y-91551988D01*
X146388017Y-91449493D01*
X146388011Y-91449488D01*
X146262488Y-91377017D01*
X146262489Y-91377017D01*
X146251006Y-91373940D01*
X146122475Y-91339500D01*
X145977525Y-91339500D01*
X145893519Y-91362009D01*
X145837513Y-91377016D01*
X145837510Y-91377018D01*
X145794497Y-91401851D01*
X145781189Y-91408504D01*
X145770438Y-91413094D01*
X145764954Y-91414276D01*
X145574609Y-91496703D01*
X145574138Y-91496905D01*
X145539737Y-91500980D01*
X145505382Y-91505230D01*
X145504974Y-91505098D01*
X145504754Y-91505125D01*
X145504164Y-91504837D01*
X145470328Y-91493939D01*
X145348731Y-91433595D01*
X145298202Y-91387433D01*
X145298201Y-91387432D01*
X145235590Y-91285522D01*
X145123847Y-91103640D01*
X145105500Y-91038729D01*
X145105500Y-90727295D01*
X145125185Y-90660256D01*
X145135152Y-90646831D01*
X145779341Y-89891576D01*
X145799203Y-89857658D01*
X145818867Y-89828231D01*
X145830500Y-89769748D01*
X145830500Y-89764475D01*
X145830958Y-89762273D01*
X145830500Y-89759567D01*
X145830500Y-89756989D01*
X145831029Y-89755452D01*
X145830500Y-89749148D01*
X145830500Y-88030249D01*
X145830499Y-88030247D01*
X145818868Y-87971770D01*
X145818867Y-87971769D01*
X145774552Y-87905447D01*
X145708230Y-87861132D01*
X145708229Y-87861131D01*
X145649752Y-87849500D01*
X145649748Y-87849500D01*
X143910252Y-87849500D01*
X143910247Y-87849500D01*
X143851770Y-87861131D01*
X143851769Y-87861132D01*
X143785447Y-87905447D01*
X143741132Y-87971769D01*
X143741131Y-87971770D01*
X143729500Y-88030247D01*
X140750499Y-88030247D01*
X140738868Y-87971770D01*
X140738867Y-87971769D01*
X140694552Y-87905447D01*
X140628230Y-87861132D01*
X140628229Y-87861131D01*
X140569752Y-87849500D01*
X140569748Y-87849500D01*
X138830252Y-87849500D01*
X138830247Y-87849500D01*
X138771770Y-87861131D01*
X138771769Y-87861132D01*
X138705447Y-87905447D01*
X138661132Y-87971769D01*
X138661131Y-87971770D01*
X138649500Y-88030247D01*
X138000500Y-88030247D01*
X138000500Y-87324500D01*
X138020185Y-87257461D01*
X138072989Y-87211706D01*
X138124500Y-87200500D01*
X156515500Y-87200500D01*
X156582539Y-87220185D01*
G37*
G04 #@! TD.AperFunction*
G04 #@! TA.AperFunction,Conductor*
G36*
X140532498Y-111597896D02*
G01*
X140537027Y-111603742D01*
X140976482Y-112855199D01*
X140975990Y-112864140D01*
X140973716Y-112867348D01*
X140807348Y-113033716D01*
X140799075Y-113037143D01*
X140795199Y-113036482D01*
X139543742Y-112597027D01*
X139537071Y-112591053D01*
X139536141Y-112583720D01*
X139697772Y-111766977D01*
X139702739Y-111759527D01*
X139706977Y-111757772D01*
X140523719Y-111596141D01*
X140532498Y-111597896D01*
G37*
G04 #@! TD.AperFunction*
G04 #@! TA.AperFunction,Conductor*
G36*
X142229292Y-113580595D02*
G01*
X142233938Y-113587796D01*
X142299748Y-113915926D01*
X142298014Y-113924712D01*
X142297986Y-113924754D01*
X142112397Y-114200827D01*
X142104937Y-114205782D01*
X142096160Y-114204010D01*
X142095703Y-114203687D01*
X141920383Y-114073241D01*
X141603383Y-113837378D01*
X141598792Y-113829692D01*
X141600981Y-113821009D01*
X141602088Y-113819727D01*
X141766634Y-113655181D01*
X141773010Y-113651911D01*
X142220575Y-113578551D01*
X142229292Y-113580595D01*
G37*
G04 #@! TD.AperFunction*
G04 #@! TA.AperFunction,Conductor*
G36*
X149425934Y-109984341D02*
G01*
X149430247Y-109988217D01*
X149915582Y-110715877D01*
X149917321Y-110724661D01*
X149915460Y-110729040D01*
X149685761Y-111060028D01*
X149684422Y-111061630D01*
X149516944Y-111229108D01*
X149508671Y-111232535D01*
X149500398Y-111229108D01*
X149500124Y-111228825D01*
X149032464Y-110728559D01*
X149029318Y-110720175D01*
X149030642Y-110715151D01*
X149410146Y-109989286D01*
X149417015Y-109983544D01*
X149425934Y-109984341D01*
G37*
G04 #@! TD.AperFunction*
G04 #@! TA.AperFunction,Conductor*
G36*
X154473408Y-111061678D02*
G01*
X154936640Y-111753490D01*
X154938395Y-111762271D01*
X154936640Y-111766510D01*
X154473408Y-112458321D01*
X154465957Y-112463288D01*
X154458621Y-112462358D01*
X154450214Y-112458321D01*
X153262968Y-111888186D01*
X153256994Y-111881515D01*
X153256333Y-111877639D01*
X153256333Y-111642360D01*
X153259760Y-111634087D01*
X153262964Y-111631815D01*
X154458623Y-111057640D01*
X154467562Y-111057149D01*
X154473408Y-111061678D01*
G37*
G04 #@! TD.AperFunction*
G04 #@! TA.AperFunction,Conductor*
G36*
X140181651Y-116138500D02*
G01*
X141419379Y-116828587D01*
X141424936Y-116835608D01*
X141423900Y-116844503D01*
X141421954Y-116847078D01*
X141257496Y-117011536D01*
X141254393Y-117013759D01*
X140181433Y-117542218D01*
X140172497Y-117542799D01*
X140166536Y-117538224D01*
X139703644Y-116845801D01*
X139701895Y-116837019D01*
X139703650Y-116832788D01*
X139706465Y-116828586D01*
X140166235Y-116142207D01*
X140173685Y-116137242D01*
X140181651Y-116138500D01*
G37*
G04 #@! TD.AperFunction*
G04 #@! TA.AperFunction,Conductor*
G36*
X143351551Y-119994603D02*
G01*
X143354324Y-119999018D01*
X143565434Y-120603497D01*
X143564926Y-120612438D01*
X143558246Y-120618401D01*
X143556703Y-120618824D01*
X143228900Y-120684983D01*
X143224270Y-120684983D01*
X142896466Y-120618824D01*
X142889035Y-120613828D01*
X142887312Y-120605040D01*
X142887732Y-120603505D01*
X143098846Y-119999017D01*
X143104809Y-119992338D01*
X143109892Y-119991176D01*
X143343278Y-119991176D01*
X143351551Y-119994603D01*
G37*
G04 #@! TD.AperFunction*
G04 #@! TA.AperFunction,Conductor*
G36*
X145019700Y-107275559D02*
G01*
X145027137Y-107280546D01*
X145028871Y-107289332D01*
X145028326Y-107291212D01*
X144838163Y-107788166D01*
X144835509Y-107792258D01*
X144672328Y-107955439D01*
X144664055Y-107958866D01*
X144655782Y-107955439D01*
X144653445Y-107952098D01*
X144403196Y-107413512D01*
X144402819Y-107404566D01*
X144407279Y-107398874D01*
X144685247Y-107212012D01*
X144694020Y-107210241D01*
X145019700Y-107275559D01*
G37*
G04 #@! TD.AperFunction*
G04 #@! TA.AperFunction,Conductor*
G36*
X147625225Y-109725107D02*
G01*
X147864019Y-109844266D01*
X148100020Y-109962031D01*
X148105893Y-109968791D01*
X148105265Y-109977724D01*
X148100020Y-109982969D01*
X147625229Y-110219890D01*
X147616296Y-110220518D01*
X147614773Y-110219886D01*
X147376468Y-110100734D01*
X147370600Y-110093969D01*
X147370000Y-110090269D01*
X147370000Y-109854731D01*
X147373427Y-109846458D01*
X147376468Y-109844266D01*
X147614774Y-109725112D01*
X147623705Y-109724478D01*
X147625225Y-109725107D01*
G37*
G04 #@! TD.AperFunction*
G04 #@! TA.AperFunction,Conductor*
G36*
X154474263Y-116143059D02*
G01*
X154474970Y-116144007D01*
X154938003Y-116835256D01*
X154939760Y-116844036D01*
X154939756Y-116844057D01*
X154776723Y-117660889D01*
X154771743Y-117668331D01*
X154762959Y-117670073D01*
X154761742Y-117669761D01*
X153488511Y-117269780D01*
X153483745Y-117266891D01*
X153318088Y-117101234D01*
X153314661Y-117092961D01*
X153318088Y-117084688D01*
X153318885Y-117083961D01*
X154457792Y-116141503D01*
X154466348Y-116138870D01*
X154474263Y-116143059D01*
G37*
G04 #@! TD.AperFunction*
G04 #@! TA.AperFunction,Conductor*
G36*
X151510214Y-120026099D02*
G01*
X151512987Y-120030514D01*
X151724097Y-120634993D01*
X151723589Y-120643934D01*
X151716909Y-120649897D01*
X151715366Y-120650320D01*
X151387563Y-120716479D01*
X151382933Y-120716479D01*
X151055129Y-120650320D01*
X151047698Y-120645324D01*
X151045975Y-120636536D01*
X151046395Y-120635001D01*
X151257509Y-120030513D01*
X151263472Y-120023834D01*
X151268555Y-120022672D01*
X151501941Y-120022672D01*
X151510214Y-120026099D01*
G37*
G04 #@! TD.AperFunction*
G04 #@! TA.AperFunction,Conductor*
G36*
X154473408Y-118681678D02*
G01*
X154936640Y-119373490D01*
X154938395Y-119382271D01*
X154936640Y-119386510D01*
X154473408Y-120078321D01*
X154465957Y-120083288D01*
X154458621Y-120082358D01*
X154450214Y-120078321D01*
X153262968Y-119508186D01*
X153256994Y-119501515D01*
X153256333Y-119497639D01*
X153256333Y-119262360D01*
X153259760Y-119254087D01*
X153262964Y-119251815D01*
X154458623Y-118677640D01*
X154467562Y-118677149D01*
X154473408Y-118681678D01*
G37*
G04 #@! TD.AperFunction*
G04 #@! TA.AperFunction,Conductor*
G36*
X152301179Y-119021642D02*
G01*
X152905743Y-119252128D01*
X152912253Y-119258277D01*
X152913275Y-119263060D01*
X152913275Y-119496437D01*
X152909848Y-119504710D01*
X152905113Y-119507589D01*
X152300709Y-119699332D01*
X152291787Y-119698568D01*
X152286019Y-119691718D01*
X152285704Y-119690506D01*
X152219467Y-119362313D01*
X152219467Y-119357685D01*
X152239530Y-119258277D01*
X152285550Y-119030258D01*
X152290545Y-119022830D01*
X152299333Y-119021107D01*
X152301179Y-119021642D01*
G37*
G04 #@! TD.AperFunction*
G04 #@! TA.AperFunction,Conductor*
G36*
X140181376Y-118677640D02*
G01*
X141377033Y-119251814D01*
X141383006Y-119258484D01*
X141383667Y-119262360D01*
X141383667Y-119497639D01*
X141380240Y-119505912D01*
X141377032Y-119508186D01*
X140181378Y-120082358D01*
X140172437Y-120082850D01*
X140166592Y-120078322D01*
X139703358Y-119386509D01*
X139701604Y-119377729D01*
X139703359Y-119373490D01*
X139784833Y-119251813D01*
X140166593Y-118681676D01*
X140174042Y-118676711D01*
X140181376Y-118677640D01*
G37*
G04 #@! TD.AperFunction*
G04 #@! TA.AperFunction,Conductor*
G36*
X142347987Y-119041658D02*
G01*
X142353950Y-119048338D01*
X142354373Y-119049881D01*
X142420532Y-119377685D01*
X142420532Y-119382315D01*
X142354373Y-119710118D01*
X142349377Y-119717549D01*
X142340589Y-119719272D01*
X142339046Y-119718849D01*
X141734567Y-119507738D01*
X141727887Y-119501775D01*
X141726725Y-119496692D01*
X141726725Y-119263307D01*
X141730152Y-119255034D01*
X141734566Y-119252261D01*
X142339047Y-119041150D01*
X142347987Y-119041658D01*
G37*
G04 #@! TD.AperFunction*
G04 #@! TA.AperFunction,Conductor*
G36*
X151225226Y-109725113D02*
G01*
X151463532Y-109844266D01*
X151469400Y-109851031D01*
X151470000Y-109854731D01*
X151470000Y-110090269D01*
X151466573Y-110098542D01*
X151463532Y-110100734D01*
X151225226Y-110219886D01*
X151216294Y-110220521D01*
X151214770Y-110219890D01*
X150955009Y-110090269D01*
X150739978Y-109982968D01*
X150734106Y-109976209D01*
X150734734Y-109967276D01*
X150739978Y-109962031D01*
X151214771Y-109725108D01*
X151223703Y-109724481D01*
X151225226Y-109725113D01*
G37*
G04 #@! TD.AperFunction*
G04 #@! TA.AperFunction,Conductor*
G36*
X152087987Y-109634158D02*
G01*
X152093950Y-109640838D01*
X152094373Y-109642381D01*
X152160532Y-109970185D01*
X152160532Y-109974815D01*
X152094373Y-110302618D01*
X152089377Y-110310049D01*
X152080589Y-110311772D01*
X152079046Y-110311349D01*
X151474567Y-110100238D01*
X151467887Y-110094275D01*
X151466725Y-110089192D01*
X151466725Y-109855807D01*
X151470152Y-109847534D01*
X151474566Y-109844761D01*
X152079047Y-109633650D01*
X152087987Y-109634158D01*
G37*
G04 #@! TD.AperFunction*
G04 #@! TA.AperFunction,Conductor*
G36*
X150702747Y-108038344D02*
G01*
X151087628Y-108378380D01*
X151091559Y-108386426D01*
X151089850Y-108393273D01*
X150823425Y-108826925D01*
X150816174Y-108832180D01*
X150813456Y-108832500D01*
X150576544Y-108832500D01*
X150568271Y-108829073D01*
X150566575Y-108826925D01*
X150300149Y-108393273D01*
X150298738Y-108384430D01*
X150302369Y-108378381D01*
X150687253Y-108038343D01*
X150695722Y-108035434D01*
X150702747Y-108038344D01*
G37*
G04 #@! TD.AperFunction*
G04 #@! TA.AperFunction,Conductor*
G36*
X150820538Y-108975927D02*
G01*
X150823030Y-108979616D01*
X150951123Y-109280432D01*
X150951442Y-109288762D01*
X150730766Y-109941645D01*
X150724870Y-109948386D01*
X150715936Y-109948983D01*
X150709195Y-109943087D01*
X150708675Y-109941863D01*
X150452803Y-109227073D01*
X150453242Y-109218132D01*
X150566826Y-108979176D01*
X150573473Y-108973176D01*
X150577393Y-108972500D01*
X150812265Y-108972500D01*
X150820538Y-108975927D01*
G37*
G04 #@! TD.AperFunction*
G04 #@! TA.AperFunction,Conductor*
G36*
X149024248Y-101040281D02*
G01*
X149046504Y-101044754D01*
X149053940Y-101049744D01*
X149055670Y-101058530D01*
X149055027Y-101060656D01*
X148697975Y-101933124D01*
X148691670Y-101939483D01*
X148687147Y-101940393D01*
X148452853Y-101940393D01*
X148444580Y-101936966D01*
X148442025Y-101933124D01*
X148084972Y-101060654D01*
X148085010Y-101051702D01*
X148091369Y-101045397D01*
X148093493Y-101044754D01*
X148567696Y-100949463D01*
X148572304Y-100949463D01*
X149024248Y-101040281D01*
G37*
G04 #@! TD.AperFunction*
G04 #@! TA.AperFunction,Conductor*
G36*
X148695213Y-103860152D02*
G01*
X148697872Y-103864257D01*
X148928355Y-104468813D01*
X148928101Y-104477764D01*
X148921591Y-104483913D01*
X148919738Y-104484450D01*
X148592315Y-104550532D01*
X148587685Y-104550532D01*
X148259504Y-104484297D01*
X148252073Y-104479301D01*
X148250350Y-104470513D01*
X148250663Y-104469302D01*
X148442411Y-103864887D01*
X148448179Y-103858037D01*
X148453563Y-103856725D01*
X148686940Y-103856725D01*
X148695213Y-103860152D01*
G37*
G04 #@! TD.AperFunction*
G04 #@! TA.AperFunction,Conductor*
G36*
X148014248Y-99280281D02*
G01*
X148036504Y-99284754D01*
X148043940Y-99289744D01*
X148045670Y-99298530D01*
X148045027Y-99300656D01*
X147687975Y-100173124D01*
X147681670Y-100179483D01*
X147677147Y-100180393D01*
X147442853Y-100180393D01*
X147434580Y-100176966D01*
X147432025Y-100173124D01*
X147074972Y-99300654D01*
X147075010Y-99291702D01*
X147081369Y-99285397D01*
X147083493Y-99284754D01*
X147557696Y-99189463D01*
X147562304Y-99189463D01*
X148014248Y-99280281D01*
G37*
G04 #@! TD.AperFunction*
G04 #@! TA.AperFunction,Conductor*
G36*
X147682590Y-101240214D02*
G01*
X147685969Y-101247426D01*
X147737322Y-101811264D01*
X147734659Y-101819814D01*
X147727985Y-101823794D01*
X147399785Y-101890034D01*
X147390997Y-101888311D01*
X147390947Y-101888278D01*
X147114031Y-101702296D01*
X147109073Y-101694838D01*
X147110841Y-101686060D01*
X147111066Y-101685737D01*
X147431498Y-101241641D01*
X147439118Y-101236937D01*
X147440986Y-101236787D01*
X147674317Y-101236787D01*
X147682590Y-101240214D01*
G37*
G04 #@! TD.AperFunction*
G04 #@! TA.AperFunction,Conductor*
G36*
X154097642Y-136317633D02*
G01*
X154932712Y-137151722D01*
X154936144Y-137159993D01*
X154932722Y-137168268D01*
X154932712Y-137168278D01*
X154097642Y-138002366D01*
X154089367Y-138005788D01*
X154081781Y-138002990D01*
X154081049Y-138002366D01*
X153244107Y-137288503D01*
X153240037Y-137280527D01*
X153240000Y-137279601D01*
X153240000Y-137040398D01*
X153243427Y-137032125D01*
X153244093Y-137031508D01*
X154081783Y-136317008D01*
X154090300Y-136314248D01*
X154097642Y-136317633D01*
G37*
G04 #@! TD.AperFunction*
G04 #@! TA.AperFunction,Conductor*
G36*
X152835773Y-136765149D02*
G01*
X152839390Y-136767371D01*
X153269426Y-137031575D01*
X153274680Y-137038825D01*
X153275000Y-137041543D01*
X153275000Y-137278456D01*
X153271573Y-137286729D01*
X153269425Y-137288425D01*
X152835773Y-137554850D01*
X152826930Y-137556261D01*
X152820880Y-137552628D01*
X152480844Y-137167747D01*
X152477934Y-137159278D01*
X152480844Y-137152253D01*
X152820881Y-136767370D01*
X152828926Y-136763440D01*
X152835773Y-136765149D01*
G37*
G04 #@! TD.AperFunction*
G04 #@! TA.AperFunction,Conductor*
G36*
X150821729Y-105585927D02*
G01*
X150823425Y-105588075D01*
X151089850Y-106021725D01*
X151091261Y-106030568D01*
X151087628Y-106036618D01*
X150702747Y-106376655D01*
X150694278Y-106379565D01*
X150687253Y-106376655D01*
X150302371Y-106036618D01*
X150298440Y-106028572D01*
X150300149Y-106021725D01*
X150566575Y-105588075D01*
X150573826Y-105582820D01*
X150576544Y-105582500D01*
X150813456Y-105582500D01*
X150821729Y-105585927D01*
G37*
G04 #@! TD.AperFunction*
G04 #@! TA.AperFunction,Conductor*
G36*
X151025119Y-104958126D02*
G01*
X151032549Y-104963122D01*
X151034272Y-104971910D01*
X151033849Y-104973453D01*
X150822739Y-105577933D01*
X150816776Y-105584613D01*
X150811693Y-105585775D01*
X150578307Y-105585775D01*
X150570034Y-105582348D01*
X150567261Y-105577933D01*
X150356150Y-104973453D01*
X150356658Y-104964512D01*
X150363338Y-104958549D01*
X150364870Y-104958128D01*
X150692686Y-104891967D01*
X150697314Y-104891967D01*
X151025119Y-104958126D01*
G37*
G04 #@! TD.AperFunction*
G04 #@! TA.AperFunction,Conductor*
G36*
X149867747Y-93595844D02*
G01*
X150252628Y-93935880D01*
X150256559Y-93943926D01*
X150254850Y-93950773D01*
X149988425Y-94384425D01*
X149981174Y-94389680D01*
X149978456Y-94390000D01*
X149741544Y-94390000D01*
X149733271Y-94386573D01*
X149731575Y-94384425D01*
X149465149Y-93950773D01*
X149463738Y-93941930D01*
X149467369Y-93935881D01*
X149852253Y-93595843D01*
X149860722Y-93592934D01*
X149867747Y-93595844D01*
G37*
G04 #@! TD.AperFunction*
G04 #@! TA.AperFunction,Conductor*
G36*
X150801912Y-105585927D02*
G01*
X150803458Y-105587838D01*
X151080779Y-106015901D01*
X151082402Y-106024708D01*
X151078875Y-106030879D01*
X150702614Y-106376505D01*
X150694203Y-106379578D01*
X150687122Y-106376803D01*
X150293653Y-106042324D01*
X150289569Y-106034355D01*
X150291117Y-106027530D01*
X150546616Y-105588316D01*
X150553738Y-105582889D01*
X150556729Y-105582500D01*
X150793639Y-105582500D01*
X150801912Y-105585927D01*
G37*
G04 #@! TD.AperFunction*
G04 #@! TA.AperFunction,Conductor*
G36*
X150637071Y-104902652D02*
G01*
X150640498Y-104910925D01*
X150637071Y-104919198D01*
X150630390Y-104922515D01*
X150492280Y-104941481D01*
X150483617Y-104939212D01*
X150479097Y-104931482D01*
X150481366Y-104922819D01*
X150487218Y-104918716D01*
X150548306Y-104899751D01*
X150551775Y-104899225D01*
X150628798Y-104899225D01*
X150637071Y-104902652D01*
G37*
G04 #@! TD.AperFunction*
G04 #@! TA.AperFunction,Conductor*
G36*
X147716187Y-121898427D02*
G01*
X147718283Y-121901279D01*
X148018349Y-122475243D01*
X148019145Y-122484163D01*
X148015169Y-122489895D01*
X147597189Y-122815401D01*
X147588556Y-122817781D01*
X147582811Y-122815401D01*
X147164830Y-122489895D01*
X147160408Y-122482108D01*
X147161649Y-122475245D01*
X147461717Y-121901278D01*
X147468587Y-121895535D01*
X147472086Y-121895000D01*
X147707914Y-121895000D01*
X147716187Y-121898427D01*
G37*
G04 #@! TD.AperFunction*
G04 #@! TA.AperFunction,Conductor*
G36*
X147920119Y-121565626D02*
G01*
X147927549Y-121570622D01*
X147929272Y-121579410D01*
X147928849Y-121580953D01*
X147717739Y-122185433D01*
X147711776Y-122192113D01*
X147706693Y-122193275D01*
X147473307Y-122193275D01*
X147465034Y-122189848D01*
X147462261Y-122185433D01*
X147251150Y-121580953D01*
X147251658Y-121572012D01*
X147258338Y-121566049D01*
X147259870Y-121565628D01*
X147587686Y-121499467D01*
X147592314Y-121499467D01*
X147920119Y-121565626D01*
G37*
G04 #@! TD.AperFunction*
G04 #@! TA.AperFunction,Conductor*
G36*
X146172874Y-135463427D02*
G01*
X146173503Y-135464107D01*
X146887990Y-136301781D01*
X146890751Y-136310300D01*
X146887366Y-136317642D01*
X146053278Y-137152712D01*
X146045007Y-137156144D01*
X146036732Y-137152722D01*
X146036722Y-137152712D01*
X145202633Y-136317642D01*
X145199211Y-136309367D01*
X145202007Y-136301783D01*
X145916497Y-135464107D01*
X145924473Y-135460037D01*
X145925399Y-135460000D01*
X146164601Y-135460000D01*
X146172874Y-135463427D01*
G37*
G04 #@! TD.AperFunction*
G04 #@! TA.AperFunction,Conductor*
G36*
X146150949Y-119301149D02*
G01*
X146755433Y-119512261D01*
X146762113Y-119518224D01*
X146763275Y-119523307D01*
X146763275Y-119756692D01*
X146759848Y-119764965D01*
X146755433Y-119767738D01*
X146150953Y-119978849D01*
X146142012Y-119978341D01*
X146136049Y-119971661D01*
X146135628Y-119970125D01*
X146069467Y-119642313D01*
X146069467Y-119637685D01*
X146135627Y-119309879D01*
X146140622Y-119302450D01*
X146149410Y-119300727D01*
X146150949Y-119301149D01*
G37*
G04 #@! TD.AperFunction*
G04 #@! TA.AperFunction,Conductor*
G36*
X147326509Y-88903358D02*
G01*
X148018321Y-89366592D01*
X148023288Y-89374042D01*
X148022358Y-89381378D01*
X147448186Y-90577032D01*
X147441515Y-90583006D01*
X147437639Y-90583667D01*
X147202361Y-90583667D01*
X147194088Y-90580240D01*
X147191814Y-90577032D01*
X147033990Y-90248380D01*
X146617640Y-89381376D01*
X146617149Y-89372437D01*
X146621675Y-89366593D01*
X147313490Y-88903358D01*
X147322271Y-88901604D01*
X147326509Y-88903358D01*
G37*
G04 #@! TD.AperFunction*
G04 #@! TA.AperFunction,Conductor*
G36*
X147446729Y-91143427D02*
G01*
X147448425Y-91145575D01*
X147714850Y-91579225D01*
X147716261Y-91588068D01*
X147712628Y-91594118D01*
X147327747Y-91934155D01*
X147319278Y-91937065D01*
X147312253Y-91934155D01*
X146927371Y-91594118D01*
X146923440Y-91586072D01*
X146925149Y-91579225D01*
X147191575Y-91145575D01*
X147198826Y-91140320D01*
X147201544Y-91140000D01*
X147438456Y-91140000D01*
X147446729Y-91143427D01*
G37*
G04 #@! TD.AperFunction*
G04 #@! TA.AperFunction,Conductor*
G36*
X147679419Y-91559135D02*
G01*
X148188502Y-91811775D01*
X148194388Y-91818521D01*
X148195000Y-91822254D01*
X148195000Y-92057745D01*
X148191573Y-92066018D01*
X148188501Y-92068225D01*
X147679420Y-92320863D01*
X147670486Y-92321471D01*
X147665592Y-92318287D01*
X147434459Y-92066018D01*
X147326240Y-91947902D01*
X147323179Y-91939489D01*
X147326240Y-91932097D01*
X147665593Y-91561711D01*
X147673708Y-91557927D01*
X147679419Y-91559135D01*
G37*
G04 #@! TD.AperFunction*
G04 #@! TA.AperFunction,Conductor*
G36*
X148627987Y-91601658D02*
G01*
X148633950Y-91608338D01*
X148634373Y-91609881D01*
X148700532Y-91937685D01*
X148700532Y-91942315D01*
X148634373Y-92270118D01*
X148629377Y-92277549D01*
X148620589Y-92279272D01*
X148619046Y-92278849D01*
X148014567Y-92067738D01*
X148007887Y-92061775D01*
X148006725Y-92056692D01*
X148006725Y-91823307D01*
X148010152Y-91815034D01*
X148014566Y-91812261D01*
X148619047Y-91601150D01*
X148627987Y-91601658D01*
G37*
G04 #@! TD.AperFunction*
G04 #@! TA.AperFunction,Conductor*
G36*
X149066376Y-136457640D02*
G01*
X150262033Y-137031814D01*
X150268006Y-137038484D01*
X150268667Y-137042360D01*
X150268667Y-137277639D01*
X150265240Y-137285912D01*
X150262032Y-137288186D01*
X149066378Y-137862358D01*
X149057437Y-137862850D01*
X149051592Y-137858322D01*
X148588358Y-137166509D01*
X148586604Y-137157729D01*
X148588359Y-137153490D01*
X148669833Y-137031813D01*
X149051593Y-136461676D01*
X149059042Y-136456711D01*
X149066376Y-136457640D01*
G37*
G04 #@! TD.AperFunction*
G04 #@! TA.AperFunction,Conductor*
G36*
X150479119Y-136767371D02*
G01*
X150819155Y-137152253D01*
X150822065Y-137160722D01*
X150819155Y-137167747D01*
X150479119Y-137552628D01*
X150471073Y-137556559D01*
X150464226Y-137554850D01*
X150030575Y-137288425D01*
X150025320Y-137281174D01*
X150025000Y-137278456D01*
X150025000Y-137041543D01*
X150028427Y-137033270D01*
X150030570Y-137031577D01*
X150464226Y-136765148D01*
X150473069Y-136763738D01*
X150479119Y-136767371D01*
G37*
G04 #@! TD.AperFunction*
G04 #@! TA.AperFunction,Conductor*
G36*
X147865823Y-117946400D02*
G01*
X147866715Y-117948002D01*
X148135221Y-118534437D01*
X148135549Y-118543386D01*
X148132856Y-118547581D01*
X147967832Y-118712605D01*
X147959559Y-118716032D01*
X147954263Y-118714765D01*
X147387275Y-118426965D01*
X147381449Y-118420165D01*
X147382138Y-118411236D01*
X147382820Y-118410066D01*
X147567989Y-118131255D01*
X147571255Y-118127989D01*
X147849605Y-117943126D01*
X147858392Y-117941404D01*
X147865823Y-117946400D01*
G37*
G04 #@! TD.AperFunction*
G04 #@! TA.AperFunction,Conductor*
G36*
X148710912Y-135479760D02*
G01*
X148713186Y-135482968D01*
X149287358Y-136678621D01*
X149287850Y-136687562D01*
X149283321Y-136693408D01*
X148591510Y-137156640D01*
X148582729Y-137158395D01*
X148578490Y-137156640D01*
X147886678Y-136693408D01*
X147881711Y-136685957D01*
X147882640Y-136678624D01*
X148456814Y-135482968D01*
X148463485Y-135476994D01*
X148467361Y-135476333D01*
X148702639Y-135476333D01*
X148710912Y-135479760D01*
G37*
G04 #@! TD.AperFunction*
G04 #@! TA.AperFunction,Conductor*
G36*
X149866509Y-88903358D02*
G01*
X150558321Y-89366592D01*
X150563288Y-89374042D01*
X150562358Y-89381378D01*
X149988186Y-90577032D01*
X149981515Y-90583006D01*
X149977639Y-90583667D01*
X149742361Y-90583667D01*
X149734088Y-90580240D01*
X149731814Y-90577032D01*
X149573990Y-90248380D01*
X149157640Y-89381376D01*
X149157149Y-89372437D01*
X149161675Y-89366593D01*
X149853490Y-88903358D01*
X149862271Y-88901604D01*
X149866509Y-88903358D01*
G37*
G04 #@! TD.AperFunction*
G04 #@! TA.AperFunction,Conductor*
G36*
X149986729Y-91143427D02*
G01*
X149988425Y-91145575D01*
X150254850Y-91579225D01*
X150256261Y-91588068D01*
X150252628Y-91594118D01*
X149867747Y-91934155D01*
X149859278Y-91937065D01*
X149852253Y-91934155D01*
X149467371Y-91594118D01*
X149463440Y-91586072D01*
X149465149Y-91579225D01*
X149731575Y-91145575D01*
X149738826Y-91140320D01*
X149741544Y-91140000D01*
X149978456Y-91140000D01*
X149986729Y-91143427D01*
G37*
G04 #@! TD.AperFunction*
G04 #@! TA.AperFunction,Conductor*
G36*
X144788266Y-88907276D02*
G01*
X145622366Y-89742357D01*
X145625788Y-89750632D01*
X145622990Y-89758218D01*
X144908503Y-90595893D01*
X144900527Y-90599963D01*
X144899601Y-90600000D01*
X144660399Y-90600000D01*
X144652126Y-90596573D01*
X144651497Y-90595893D01*
X143937009Y-89758218D01*
X143934248Y-89749699D01*
X143937632Y-89742358D01*
X144771723Y-88907286D01*
X144779993Y-88903855D01*
X144788266Y-88907276D01*
G37*
G04 #@! TD.AperFunction*
G04 #@! TA.AperFunction,Conductor*
G36*
X144906729Y-91143427D02*
G01*
X144908425Y-91145575D01*
X145174850Y-91579225D01*
X145176261Y-91588068D01*
X145172628Y-91594118D01*
X144787747Y-91934155D01*
X144779278Y-91937065D01*
X144772253Y-91934155D01*
X144387371Y-91594118D01*
X144383440Y-91586072D01*
X144385149Y-91579225D01*
X144651575Y-91145575D01*
X144658826Y-91140320D01*
X144661544Y-91140000D01*
X144898456Y-91140000D01*
X144906729Y-91143427D01*
G37*
G04 #@! TD.AperFunction*
G04 #@! TA.AperFunction,Conductor*
G36*
X145139419Y-91559135D02*
G01*
X145648502Y-91811775D01*
X145654388Y-91818521D01*
X145655000Y-91822254D01*
X145655000Y-92057745D01*
X145651573Y-92066018D01*
X145648501Y-92068225D01*
X145139420Y-92320863D01*
X145130486Y-92321471D01*
X145125592Y-92318287D01*
X144894459Y-92066018D01*
X144786240Y-91947902D01*
X144783179Y-91939489D01*
X144786240Y-91932097D01*
X145125593Y-91561711D01*
X145133708Y-91557927D01*
X145139419Y-91559135D01*
G37*
G04 #@! TD.AperFunction*
G04 #@! TA.AperFunction,Conductor*
G36*
X145860978Y-91607068D02*
G01*
X146000232Y-91814410D01*
X146048278Y-91885947D01*
X146050046Y-91894725D01*
X146050034Y-91894785D01*
X145984185Y-92221049D01*
X145979189Y-92228480D01*
X145970401Y-92230203D01*
X145969674Y-92230032D01*
X145365383Y-92067331D01*
X145358285Y-92061871D01*
X145356725Y-92056033D01*
X145356725Y-91822683D01*
X145360152Y-91814410D01*
X145363773Y-91811947D01*
X145846617Y-91602853D01*
X145855569Y-91602712D01*
X145860978Y-91607068D01*
G37*
G04 #@! TD.AperFunction*
G04 #@! TA.AperFunction,Conductor*
G36*
X147024248Y-101060281D02*
G01*
X147046504Y-101064754D01*
X147053940Y-101069744D01*
X147055670Y-101078530D01*
X147055027Y-101080656D01*
X146697975Y-101953124D01*
X146691670Y-101959483D01*
X146687147Y-101960393D01*
X146452853Y-101960393D01*
X146444580Y-101956966D01*
X146442025Y-101953124D01*
X146084972Y-101080654D01*
X146085010Y-101071702D01*
X146091369Y-101065397D01*
X146093493Y-101064754D01*
X146567696Y-100969463D01*
X146572304Y-100969463D01*
X147024248Y-101060281D01*
G37*
G04 #@! TD.AperFunction*
G04 #@! TA.AperFunction,Conductor*
G36*
X146697423Y-103934356D02*
G01*
X146698508Y-103935605D01*
X146881620Y-104179720D01*
X147028617Y-104375689D01*
X147030840Y-104384364D01*
X147026278Y-104392070D01*
X147025780Y-104392423D01*
X146749052Y-104578278D01*
X146740274Y-104580046D01*
X146740214Y-104580034D01*
X146411845Y-104513760D01*
X146404414Y-104508764D01*
X146402492Y-104501422D01*
X146411861Y-104375689D01*
X146444193Y-103941760D01*
X146448225Y-103933764D01*
X146455861Y-103930929D01*
X146689150Y-103930929D01*
X146697423Y-103934356D01*
G37*
G04 #@! TD.AperFunction*
M02*
