%TF.GenerationSoftware,KiCad,Pcbnew,9.0.7*%
%TF.CreationDate,2026-02-14T15:35:37+11:00*%
%TF.ProjectId,16BitFlashROM_Adaptor,31364269-7446-46c6-9173-68524f4d5f41,rev?*%
%TF.SameCoordinates,Original*%
%TF.FileFunction,Drillmap*%
%TF.FilePolarity,Positive*%
%FSLAX45Y45*%
G04 Gerber Fmt 4.5, Leading zero omitted, Abs format (unit mm)*
G04 Created by KiCad (PCBNEW 9.0.7) date 2026-02-14 15:35:37*
%MOMM*%
%LPD*%
G01*
G04 APERTURE LIST*
%ADD10C,0.100000*%
%ADD11C,0.200000*%
G04 APERTURE END LIST*
D10*
X13770000Y-8690000D02*
X15694000Y-8690000D01*
X15694000Y-13916000D01*
X13770000Y-13916000D01*
X13770000Y-8690000D01*
D11*
D10*
X14171931Y-8785000D02*
X14201931Y-8815000D01*
X14201931Y-8785000D02*
X14171931Y-8815000D01*
X14175000Y-9215000D02*
X14205000Y-9245000D01*
X14205000Y-9215000D02*
X14175000Y-9245000D01*
X14175000Y-9455000D02*
X14205000Y-9485000D01*
X14205000Y-9455000D02*
X14175000Y-9485000D01*
X14199000Y-11247000D02*
X14229000Y-11277000D01*
X14229000Y-11247000D02*
X14199000Y-11277000D01*
X14215000Y-11377000D02*
X14245000Y-11407000D01*
X14245000Y-11377000D02*
X14215000Y-11407000D01*
X14227000Y-11923000D02*
X14257000Y-11953000D01*
X14257000Y-11923000D02*
X14227000Y-11953000D01*
X14242000Y-12115000D02*
X14272000Y-12145000D01*
X14272000Y-12115000D02*
X14242000Y-12145000D01*
X14251000Y-10486000D02*
X14281000Y-10516000D01*
X14281000Y-10486000D02*
X14251000Y-10516000D01*
X14264000Y-12441000D02*
X14294000Y-12471000D01*
X14294000Y-12441000D02*
X14264000Y-12471000D01*
X14294000Y-9857000D02*
X14324000Y-9887000D01*
X14324000Y-9857000D02*
X14294000Y-9887000D01*
X14307658Y-12053445D02*
X14337658Y-12083445D01*
X14337658Y-12053445D02*
X14307658Y-12083445D01*
X14313000Y-13020000D02*
X14343000Y-13050000D01*
X14343000Y-13020000D02*
X14313000Y-13050000D01*
X14454000Y-10706000D02*
X14484000Y-10736000D01*
X14484000Y-10706000D02*
X14454000Y-10736000D01*
X14472000Y-12117000D02*
X14502000Y-12147000D01*
X14502000Y-12117000D02*
X14472000Y-12147000D01*
X14589000Y-9655000D02*
X14619000Y-9685000D01*
X14619000Y-9655000D02*
X14589000Y-9685000D01*
X14592000Y-11949000D02*
X14622000Y-11979000D01*
X14622000Y-11949000D02*
X14592000Y-11979000D01*
X14595000Y-9535000D02*
X14625000Y-9565000D01*
X14625000Y-9535000D02*
X14595000Y-9565000D01*
X14619000Y-12921000D02*
X14649000Y-12951000D01*
X14649000Y-12921000D02*
X14619000Y-12951000D01*
X14659500Y-10443000D02*
X14689500Y-10473000D01*
X14689500Y-10443000D02*
X14659500Y-10473000D01*
X14668000Y-11157000D02*
X14698000Y-11187000D01*
X14698000Y-11157000D02*
X14668000Y-11187000D01*
X14671000Y-10648000D02*
X14701000Y-10678000D01*
X14701000Y-10648000D02*
X14671000Y-10678000D01*
X14719000Y-13047000D02*
X14749000Y-13077000D01*
X14749000Y-13047000D02*
X14719000Y-13077000D01*
X14724500Y-10174000D02*
X14754500Y-10204000D01*
X14754500Y-10174000D02*
X14724500Y-10204000D01*
X14742000Y-11798000D02*
X14772000Y-11828000D01*
X14772000Y-11798000D02*
X14742000Y-11828000D01*
X14744000Y-12135000D02*
X14774000Y-12165000D01*
X14774000Y-12135000D02*
X14744000Y-12165000D01*
X14809500Y-12923000D02*
X14839500Y-12953000D01*
X14839500Y-12923000D02*
X14809500Y-12953000D01*
X14844000Y-10440000D02*
X14874000Y-10470000D01*
X14874000Y-10440000D02*
X14844000Y-10470000D01*
X14855000Y-9655000D02*
X14885000Y-9685000D01*
X14885000Y-9655000D02*
X14855000Y-9685000D01*
X14856000Y-11746000D02*
X14886000Y-11776000D01*
X14886000Y-11746000D02*
X14856000Y-11776000D01*
X14883000Y-10559000D02*
X14913000Y-10589000D01*
X14913000Y-10559000D02*
X14883000Y-10589000D01*
X15054500Y-10474250D02*
X15084500Y-10504250D01*
X15084500Y-10474250D02*
X15054500Y-10504250D01*
X15101000Y-9646000D02*
X15131000Y-9676000D01*
X15131000Y-9646000D02*
X15101000Y-9676000D01*
X15114000Y-11751000D02*
X15144000Y-11781000D01*
X15144000Y-11751000D02*
X15114000Y-11781000D01*
X15118000Y-13015000D02*
X15148000Y-13045000D01*
X15148000Y-13015000D02*
X15118000Y-13045000D01*
X15123525Y-12056595D02*
X15153525Y-12086595D01*
X15153525Y-12056595D02*
X15123525Y-12086595D01*
X15142000Y-9854000D02*
X15172000Y-9884000D01*
X15172000Y-9854000D02*
X15142000Y-9884000D01*
X15158000Y-12441000D02*
X15188000Y-12471000D01*
X15188000Y-12441000D02*
X15158000Y-12471000D01*
X15192000Y-12115000D02*
X15222000Y-12145000D01*
X15222000Y-12115000D02*
X15192000Y-12145000D01*
X15201000Y-10982250D02*
X15231000Y-11012250D01*
X15231000Y-10982250D02*
X15201000Y-11012250D01*
X15207000Y-11921000D02*
X15237000Y-11951000D01*
X15237000Y-11921000D02*
X15207000Y-11951000D01*
X15217000Y-10811000D02*
X15247000Y-10841000D01*
X15247000Y-10811000D02*
X15217000Y-10841000D01*
X15235000Y-9015000D02*
X15265000Y-9045000D01*
X15265000Y-9015000D02*
X15235000Y-9045000D01*
X15265000Y-13377000D02*
X15295000Y-13407000D01*
X15295000Y-13377000D02*
X15265000Y-13407000D01*
X15305000Y-9155000D02*
X15335000Y-9185000D01*
X15335000Y-9155000D02*
X15305000Y-9185000D01*
X14020000Y-8890000D02*
G75*
G02*
X13920000Y-8890000I-50000J0D01*
G01*
X13920000Y-8890000D02*
G75*
G02*
X14020000Y-8890000I50000J0D01*
G01*
X14020000Y-9144000D02*
G75*
G02*
X13920000Y-9144000I-50000J0D01*
G01*
X13920000Y-9144000D02*
G75*
G02*
X14020000Y-9144000I50000J0D01*
G01*
X14020000Y-9398000D02*
G75*
G02*
X13920000Y-9398000I-50000J0D01*
G01*
X13920000Y-9398000D02*
G75*
G02*
X14020000Y-9398000I50000J0D01*
G01*
X14020000Y-9652000D02*
G75*
G02*
X13920000Y-9652000I-50000J0D01*
G01*
X13920000Y-9652000D02*
G75*
G02*
X14020000Y-9652000I50000J0D01*
G01*
X14020000Y-9906000D02*
G75*
G02*
X13920000Y-9906000I-50000J0D01*
G01*
X13920000Y-9906000D02*
G75*
G02*
X14020000Y-9906000I50000J0D01*
G01*
X14020000Y-10160000D02*
G75*
G02*
X13920000Y-10160000I-50000J0D01*
G01*
X13920000Y-10160000D02*
G75*
G02*
X14020000Y-10160000I50000J0D01*
G01*
X14020000Y-10414000D02*
G75*
G02*
X13920000Y-10414000I-50000J0D01*
G01*
X13920000Y-10414000D02*
G75*
G02*
X14020000Y-10414000I50000J0D01*
G01*
X14020000Y-10668000D02*
G75*
G02*
X13920000Y-10668000I-50000J0D01*
G01*
X13920000Y-10668000D02*
G75*
G02*
X14020000Y-10668000I50000J0D01*
G01*
X14020000Y-10922000D02*
G75*
G02*
X13920000Y-10922000I-50000J0D01*
G01*
X13920000Y-10922000D02*
G75*
G02*
X14020000Y-10922000I50000J0D01*
G01*
X14020000Y-11176000D02*
G75*
G02*
X13920000Y-11176000I-50000J0D01*
G01*
X13920000Y-11176000D02*
G75*
G02*
X14020000Y-11176000I50000J0D01*
G01*
X14020000Y-11430000D02*
G75*
G02*
X13920000Y-11430000I-50000J0D01*
G01*
X13920000Y-11430000D02*
G75*
G02*
X14020000Y-11430000I50000J0D01*
G01*
X14020000Y-11684000D02*
G75*
G02*
X13920000Y-11684000I-50000J0D01*
G01*
X13920000Y-11684000D02*
G75*
G02*
X14020000Y-11684000I50000J0D01*
G01*
X14020000Y-11938000D02*
G75*
G02*
X13920000Y-11938000I-50000J0D01*
G01*
X13920000Y-11938000D02*
G75*
G02*
X14020000Y-11938000I50000J0D01*
G01*
X14020000Y-12192000D02*
G75*
G02*
X13920000Y-12192000I-50000J0D01*
G01*
X13920000Y-12192000D02*
G75*
G02*
X14020000Y-12192000I50000J0D01*
G01*
X14020000Y-12446000D02*
G75*
G02*
X13920000Y-12446000I-50000J0D01*
G01*
X13920000Y-12446000D02*
G75*
G02*
X14020000Y-12446000I50000J0D01*
G01*
X14020000Y-12700000D02*
G75*
G02*
X13920000Y-12700000I-50000J0D01*
G01*
X13920000Y-12700000D02*
G75*
G02*
X14020000Y-12700000I50000J0D01*
G01*
X14020000Y-12954000D02*
G75*
G02*
X13920000Y-12954000I-50000J0D01*
G01*
X13920000Y-12954000D02*
G75*
G02*
X14020000Y-12954000I50000J0D01*
G01*
X14020000Y-13208000D02*
G75*
G02*
X13920000Y-13208000I-50000J0D01*
G01*
X13920000Y-13208000D02*
G75*
G02*
X14020000Y-13208000I50000J0D01*
G01*
X14020000Y-13462000D02*
G75*
G02*
X13920000Y-13462000I-50000J0D01*
G01*
X13920000Y-13462000D02*
G75*
G02*
X14020000Y-13462000I50000J0D01*
G01*
X14020000Y-13716000D02*
G75*
G02*
X13920000Y-13716000I-50000J0D01*
G01*
X13920000Y-13716000D02*
G75*
G02*
X14020000Y-13716000I50000J0D01*
G01*
X14524000Y-8886000D02*
G75*
G02*
X14424000Y-8886000I-50000J0D01*
G01*
X14424000Y-8886000D02*
G75*
G02*
X14524000Y-8886000I50000J0D01*
G01*
X14528000Y-9140000D02*
G75*
G02*
X14428000Y-9140000I-50000J0D01*
G01*
X14428000Y-9140000D02*
G75*
G02*
X14528000Y-9140000I50000J0D01*
G01*
X14654500Y-13716000D02*
G75*
G02*
X14554500Y-13716000I-50000J0D01*
G01*
X14554500Y-13716000D02*
G75*
G02*
X14654500Y-13716000I50000J0D01*
G01*
X14778000Y-8886000D02*
G75*
G02*
X14678000Y-8886000I-50000J0D01*
G01*
X14678000Y-8886000D02*
G75*
G02*
X14778000Y-8886000I50000J0D01*
G01*
X14778000Y-9140000D02*
G75*
G02*
X14678000Y-9140000I-50000J0D01*
G01*
X14678000Y-9140000D02*
G75*
G02*
X14778000Y-9140000I50000J0D01*
G01*
X14908500Y-13716000D02*
G75*
G02*
X14808500Y-13716000I-50000J0D01*
G01*
X14808500Y-13716000D02*
G75*
G02*
X14908500Y-13716000I50000J0D01*
G01*
X15032000Y-8886000D02*
G75*
G02*
X14932000Y-8886000I-50000J0D01*
G01*
X14932000Y-8886000D02*
G75*
G02*
X15032000Y-8886000I50000J0D01*
G01*
X15544000Y-8890000D02*
G75*
G02*
X15444000Y-8890000I-50000J0D01*
G01*
X15444000Y-8890000D02*
G75*
G02*
X15544000Y-8890000I50000J0D01*
G01*
X15544000Y-9144000D02*
G75*
G02*
X15444000Y-9144000I-50000J0D01*
G01*
X15444000Y-9144000D02*
G75*
G02*
X15544000Y-9144000I50000J0D01*
G01*
X15544000Y-9398000D02*
G75*
G02*
X15444000Y-9398000I-50000J0D01*
G01*
X15444000Y-9398000D02*
G75*
G02*
X15544000Y-9398000I50000J0D01*
G01*
X15544000Y-9652000D02*
G75*
G02*
X15444000Y-9652000I-50000J0D01*
G01*
X15444000Y-9652000D02*
G75*
G02*
X15544000Y-9652000I50000J0D01*
G01*
X15544000Y-9906000D02*
G75*
G02*
X15444000Y-9906000I-50000J0D01*
G01*
X15444000Y-9906000D02*
G75*
G02*
X15544000Y-9906000I50000J0D01*
G01*
X15544000Y-10160000D02*
G75*
G02*
X15444000Y-10160000I-50000J0D01*
G01*
X15444000Y-10160000D02*
G75*
G02*
X15544000Y-10160000I50000J0D01*
G01*
X15544000Y-10414000D02*
G75*
G02*
X15444000Y-10414000I-50000J0D01*
G01*
X15444000Y-10414000D02*
G75*
G02*
X15544000Y-10414000I50000J0D01*
G01*
X15544000Y-10668000D02*
G75*
G02*
X15444000Y-10668000I-50000J0D01*
G01*
X15444000Y-10668000D02*
G75*
G02*
X15544000Y-10668000I50000J0D01*
G01*
X15544000Y-10922000D02*
G75*
G02*
X15444000Y-10922000I-50000J0D01*
G01*
X15444000Y-10922000D02*
G75*
G02*
X15544000Y-10922000I50000J0D01*
G01*
X15544000Y-11176000D02*
G75*
G02*
X15444000Y-11176000I-50000J0D01*
G01*
X15444000Y-11176000D02*
G75*
G02*
X15544000Y-11176000I50000J0D01*
G01*
X15544000Y-11430000D02*
G75*
G02*
X15444000Y-11430000I-50000J0D01*
G01*
X15444000Y-11430000D02*
G75*
G02*
X15544000Y-11430000I50000J0D01*
G01*
X15544000Y-11684000D02*
G75*
G02*
X15444000Y-11684000I-50000J0D01*
G01*
X15444000Y-11684000D02*
G75*
G02*
X15544000Y-11684000I50000J0D01*
G01*
X15544000Y-11938000D02*
G75*
G02*
X15444000Y-11938000I-50000J0D01*
G01*
X15444000Y-11938000D02*
G75*
G02*
X15544000Y-11938000I50000J0D01*
G01*
X15544000Y-12192000D02*
G75*
G02*
X15444000Y-12192000I-50000J0D01*
G01*
X15444000Y-12192000D02*
G75*
G02*
X15544000Y-12192000I50000J0D01*
G01*
X15544000Y-12446000D02*
G75*
G02*
X15444000Y-12446000I-50000J0D01*
G01*
X15444000Y-12446000D02*
G75*
G02*
X15544000Y-12446000I50000J0D01*
G01*
X15544000Y-12700000D02*
G75*
G02*
X15444000Y-12700000I-50000J0D01*
G01*
X15444000Y-12700000D02*
G75*
G02*
X15544000Y-12700000I50000J0D01*
G01*
X15544000Y-12954000D02*
G75*
G02*
X15444000Y-12954000I-50000J0D01*
G01*
X15444000Y-12954000D02*
G75*
G02*
X15544000Y-12954000I50000J0D01*
G01*
X15544000Y-13208000D02*
G75*
G02*
X15444000Y-13208000I-50000J0D01*
G01*
X15444000Y-13208000D02*
G75*
G02*
X15544000Y-13208000I50000J0D01*
G01*
X15544000Y-13462000D02*
G75*
G02*
X15444000Y-13462000I-50000J0D01*
G01*
X15444000Y-13462000D02*
G75*
G02*
X15544000Y-13462000I50000J0D01*
G01*
X15544000Y-13716000D02*
G75*
G02*
X15444000Y-13716000I-50000J0D01*
G01*
X15444000Y-13716000D02*
G75*
G02*
X15544000Y-13716000I50000J0D01*
G01*
D11*
X14025777Y-14232484D02*
X14025777Y-14032484D01*
X14025777Y-14032484D02*
X14073396Y-14032484D01*
X14073396Y-14032484D02*
X14101967Y-14042008D01*
X14101967Y-14042008D02*
X14121015Y-14061055D01*
X14121015Y-14061055D02*
X14130539Y-14080103D01*
X14130539Y-14080103D02*
X14140062Y-14118198D01*
X14140062Y-14118198D02*
X14140062Y-14146769D01*
X14140062Y-14146769D02*
X14130539Y-14184865D01*
X14130539Y-14184865D02*
X14121015Y-14203912D01*
X14121015Y-14203912D02*
X14101967Y-14222960D01*
X14101967Y-14222960D02*
X14073396Y-14232484D01*
X14073396Y-14232484D02*
X14025777Y-14232484D01*
X14225777Y-14232484D02*
X14225777Y-14099150D01*
X14225777Y-14137246D02*
X14235301Y-14118198D01*
X14235301Y-14118198D02*
X14244824Y-14108674D01*
X14244824Y-14108674D02*
X14263872Y-14099150D01*
X14263872Y-14099150D02*
X14282920Y-14099150D01*
X14349586Y-14232484D02*
X14349586Y-14099150D01*
X14349586Y-14032484D02*
X14340062Y-14042008D01*
X14340062Y-14042008D02*
X14349586Y-14051531D01*
X14349586Y-14051531D02*
X14359110Y-14042008D01*
X14359110Y-14042008D02*
X14349586Y-14032484D01*
X14349586Y-14032484D02*
X14349586Y-14051531D01*
X14473396Y-14232484D02*
X14454348Y-14222960D01*
X14454348Y-14222960D02*
X14444824Y-14203912D01*
X14444824Y-14203912D02*
X14444824Y-14032484D01*
X14578158Y-14232484D02*
X14559110Y-14222960D01*
X14559110Y-14222960D02*
X14549586Y-14203912D01*
X14549586Y-14203912D02*
X14549586Y-14032484D01*
X14806729Y-14232484D02*
X14806729Y-14032484D01*
X14806729Y-14032484D02*
X14873396Y-14175341D01*
X14873396Y-14175341D02*
X14940062Y-14032484D01*
X14940062Y-14032484D02*
X14940062Y-14232484D01*
X15121015Y-14232484D02*
X15121015Y-14127722D01*
X15121015Y-14127722D02*
X15111491Y-14108674D01*
X15111491Y-14108674D02*
X15092443Y-14099150D01*
X15092443Y-14099150D02*
X15054348Y-14099150D01*
X15054348Y-14099150D02*
X15035301Y-14108674D01*
X15121015Y-14222960D02*
X15101967Y-14232484D01*
X15101967Y-14232484D02*
X15054348Y-14232484D01*
X15054348Y-14232484D02*
X15035301Y-14222960D01*
X15035301Y-14222960D02*
X15025777Y-14203912D01*
X15025777Y-14203912D02*
X15025777Y-14184865D01*
X15025777Y-14184865D02*
X15035301Y-14165817D01*
X15035301Y-14165817D02*
X15054348Y-14156293D01*
X15054348Y-14156293D02*
X15101967Y-14156293D01*
X15101967Y-14156293D02*
X15121015Y-14146769D01*
X15216253Y-14099150D02*
X15216253Y-14299150D01*
X15216253Y-14108674D02*
X15235301Y-14099150D01*
X15235301Y-14099150D02*
X15273396Y-14099150D01*
X15273396Y-14099150D02*
X15292443Y-14108674D01*
X15292443Y-14108674D02*
X15301967Y-14118198D01*
X15301967Y-14118198D02*
X15311491Y-14137246D01*
X15311491Y-14137246D02*
X15311491Y-14194388D01*
X15311491Y-14194388D02*
X15301967Y-14213436D01*
X15301967Y-14213436D02*
X15292443Y-14222960D01*
X15292443Y-14222960D02*
X15273396Y-14232484D01*
X15273396Y-14232484D02*
X15235301Y-14232484D01*
X15235301Y-14232484D02*
X15216253Y-14222960D01*
X15397205Y-14213436D02*
X15406729Y-14222960D01*
X15406729Y-14222960D02*
X15397205Y-14232484D01*
X15397205Y-14232484D02*
X15387682Y-14222960D01*
X15387682Y-14222960D02*
X15397205Y-14213436D01*
X15397205Y-14213436D02*
X15397205Y-14232484D01*
X15397205Y-14108674D02*
X15406729Y-14118198D01*
X15406729Y-14118198D02*
X15397205Y-14127722D01*
X15397205Y-14127722D02*
X15387682Y-14118198D01*
X15387682Y-14118198D02*
X15397205Y-14108674D01*
X15397205Y-14108674D02*
X15397205Y-14127722D01*
D10*
X13735000Y-14546000D02*
X13765000Y-14576000D01*
X13765000Y-14546000D02*
X13735000Y-14576000D01*
D11*
X14063872Y-14452484D02*
X14082920Y-14452484D01*
X14082920Y-14452484D02*
X14101967Y-14462008D01*
X14101967Y-14462008D02*
X14111491Y-14471531D01*
X14111491Y-14471531D02*
X14121015Y-14490579D01*
X14121015Y-14490579D02*
X14130539Y-14528674D01*
X14130539Y-14528674D02*
X14130539Y-14576293D01*
X14130539Y-14576293D02*
X14121015Y-14614388D01*
X14121015Y-14614388D02*
X14111491Y-14633436D01*
X14111491Y-14633436D02*
X14101967Y-14642960D01*
X14101967Y-14642960D02*
X14082920Y-14652484D01*
X14082920Y-14652484D02*
X14063872Y-14652484D01*
X14063872Y-14652484D02*
X14044824Y-14642960D01*
X14044824Y-14642960D02*
X14035301Y-14633436D01*
X14035301Y-14633436D02*
X14025777Y-14614388D01*
X14025777Y-14614388D02*
X14016253Y-14576293D01*
X14016253Y-14576293D02*
X14016253Y-14528674D01*
X14016253Y-14528674D02*
X14025777Y-14490579D01*
X14025777Y-14490579D02*
X14035301Y-14471531D01*
X14035301Y-14471531D02*
X14044824Y-14462008D01*
X14044824Y-14462008D02*
X14063872Y-14452484D01*
X14216253Y-14633436D02*
X14225777Y-14642960D01*
X14225777Y-14642960D02*
X14216253Y-14652484D01*
X14216253Y-14652484D02*
X14206729Y-14642960D01*
X14206729Y-14642960D02*
X14216253Y-14633436D01*
X14216253Y-14633436D02*
X14216253Y-14652484D01*
X14292443Y-14452484D02*
X14416253Y-14452484D01*
X14416253Y-14452484D02*
X14349586Y-14528674D01*
X14349586Y-14528674D02*
X14378158Y-14528674D01*
X14378158Y-14528674D02*
X14397205Y-14538198D01*
X14397205Y-14538198D02*
X14406729Y-14547722D01*
X14406729Y-14547722D02*
X14416253Y-14566769D01*
X14416253Y-14566769D02*
X14416253Y-14614388D01*
X14416253Y-14614388D02*
X14406729Y-14633436D01*
X14406729Y-14633436D02*
X14397205Y-14642960D01*
X14397205Y-14642960D02*
X14378158Y-14652484D01*
X14378158Y-14652484D02*
X14321015Y-14652484D01*
X14321015Y-14652484D02*
X14301967Y-14642960D01*
X14301967Y-14642960D02*
X14292443Y-14633436D01*
X14540062Y-14452484D02*
X14559110Y-14452484D01*
X14559110Y-14452484D02*
X14578158Y-14462008D01*
X14578158Y-14462008D02*
X14587682Y-14471531D01*
X14587682Y-14471531D02*
X14597205Y-14490579D01*
X14597205Y-14490579D02*
X14606729Y-14528674D01*
X14606729Y-14528674D02*
X14606729Y-14576293D01*
X14606729Y-14576293D02*
X14597205Y-14614388D01*
X14597205Y-14614388D02*
X14587682Y-14633436D01*
X14587682Y-14633436D02*
X14578158Y-14642960D01*
X14578158Y-14642960D02*
X14559110Y-14652484D01*
X14559110Y-14652484D02*
X14540062Y-14652484D01*
X14540062Y-14652484D02*
X14521015Y-14642960D01*
X14521015Y-14642960D02*
X14511491Y-14633436D01*
X14511491Y-14633436D02*
X14501967Y-14614388D01*
X14501967Y-14614388D02*
X14492443Y-14576293D01*
X14492443Y-14576293D02*
X14492443Y-14528674D01*
X14492443Y-14528674D02*
X14501967Y-14490579D01*
X14501967Y-14490579D02*
X14511491Y-14471531D01*
X14511491Y-14471531D02*
X14521015Y-14462008D01*
X14521015Y-14462008D02*
X14540062Y-14452484D01*
X14730539Y-14452484D02*
X14749586Y-14452484D01*
X14749586Y-14452484D02*
X14768634Y-14462008D01*
X14768634Y-14462008D02*
X14778158Y-14471531D01*
X14778158Y-14471531D02*
X14787682Y-14490579D01*
X14787682Y-14490579D02*
X14797205Y-14528674D01*
X14797205Y-14528674D02*
X14797205Y-14576293D01*
X14797205Y-14576293D02*
X14787682Y-14614388D01*
X14787682Y-14614388D02*
X14778158Y-14633436D01*
X14778158Y-14633436D02*
X14768634Y-14642960D01*
X14768634Y-14642960D02*
X14749586Y-14652484D01*
X14749586Y-14652484D02*
X14730539Y-14652484D01*
X14730539Y-14652484D02*
X14711491Y-14642960D01*
X14711491Y-14642960D02*
X14701967Y-14633436D01*
X14701967Y-14633436D02*
X14692443Y-14614388D01*
X14692443Y-14614388D02*
X14682920Y-14576293D01*
X14682920Y-14576293D02*
X14682920Y-14528674D01*
X14682920Y-14528674D02*
X14692443Y-14490579D01*
X14692443Y-14490579D02*
X14701967Y-14471531D01*
X14701967Y-14471531D02*
X14711491Y-14462008D01*
X14711491Y-14462008D02*
X14730539Y-14452484D01*
X14882920Y-14652484D02*
X14882920Y-14519150D01*
X14882920Y-14538198D02*
X14892443Y-14528674D01*
X14892443Y-14528674D02*
X14911491Y-14519150D01*
X14911491Y-14519150D02*
X14940063Y-14519150D01*
X14940063Y-14519150D02*
X14959110Y-14528674D01*
X14959110Y-14528674D02*
X14968634Y-14547722D01*
X14968634Y-14547722D02*
X14968634Y-14652484D01*
X14968634Y-14547722D02*
X14978158Y-14528674D01*
X14978158Y-14528674D02*
X14997205Y-14519150D01*
X14997205Y-14519150D02*
X15025777Y-14519150D01*
X15025777Y-14519150D02*
X15044824Y-14528674D01*
X15044824Y-14528674D02*
X15054348Y-14547722D01*
X15054348Y-14547722D02*
X15054348Y-14652484D01*
X15149586Y-14652484D02*
X15149586Y-14519150D01*
X15149586Y-14538198D02*
X15159110Y-14528674D01*
X15159110Y-14528674D02*
X15178158Y-14519150D01*
X15178158Y-14519150D02*
X15206729Y-14519150D01*
X15206729Y-14519150D02*
X15225777Y-14528674D01*
X15225777Y-14528674D02*
X15235301Y-14547722D01*
X15235301Y-14547722D02*
X15235301Y-14652484D01*
X15235301Y-14547722D02*
X15244824Y-14528674D01*
X15244824Y-14528674D02*
X15263872Y-14519150D01*
X15263872Y-14519150D02*
X15292443Y-14519150D01*
X15292443Y-14519150D02*
X15311491Y-14528674D01*
X15311491Y-14528674D02*
X15321015Y-14547722D01*
X15321015Y-14547722D02*
X15321015Y-14652484D01*
X15711491Y-14442960D02*
X15540063Y-14700103D01*
X15968634Y-14452484D02*
X15987682Y-14452484D01*
X15987682Y-14452484D02*
X16006729Y-14462008D01*
X16006729Y-14462008D02*
X16016253Y-14471531D01*
X16016253Y-14471531D02*
X16025777Y-14490579D01*
X16025777Y-14490579D02*
X16035301Y-14528674D01*
X16035301Y-14528674D02*
X16035301Y-14576293D01*
X16035301Y-14576293D02*
X16025777Y-14614388D01*
X16025777Y-14614388D02*
X16016253Y-14633436D01*
X16016253Y-14633436D02*
X16006729Y-14642960D01*
X16006729Y-14642960D02*
X15987682Y-14652484D01*
X15987682Y-14652484D02*
X15968634Y-14652484D01*
X15968634Y-14652484D02*
X15949586Y-14642960D01*
X15949586Y-14642960D02*
X15940063Y-14633436D01*
X15940063Y-14633436D02*
X15930539Y-14614388D01*
X15930539Y-14614388D02*
X15921015Y-14576293D01*
X15921015Y-14576293D02*
X15921015Y-14528674D01*
X15921015Y-14528674D02*
X15930539Y-14490579D01*
X15930539Y-14490579D02*
X15940063Y-14471531D01*
X15940063Y-14471531D02*
X15949586Y-14462008D01*
X15949586Y-14462008D02*
X15968634Y-14452484D01*
X16121015Y-14633436D02*
X16130539Y-14642960D01*
X16130539Y-14642960D02*
X16121015Y-14652484D01*
X16121015Y-14652484D02*
X16111491Y-14642960D01*
X16111491Y-14642960D02*
X16121015Y-14633436D01*
X16121015Y-14633436D02*
X16121015Y-14652484D01*
X16254348Y-14452484D02*
X16273396Y-14452484D01*
X16273396Y-14452484D02*
X16292444Y-14462008D01*
X16292444Y-14462008D02*
X16301967Y-14471531D01*
X16301967Y-14471531D02*
X16311491Y-14490579D01*
X16311491Y-14490579D02*
X16321015Y-14528674D01*
X16321015Y-14528674D02*
X16321015Y-14576293D01*
X16321015Y-14576293D02*
X16311491Y-14614388D01*
X16311491Y-14614388D02*
X16301967Y-14633436D01*
X16301967Y-14633436D02*
X16292444Y-14642960D01*
X16292444Y-14642960D02*
X16273396Y-14652484D01*
X16273396Y-14652484D02*
X16254348Y-14652484D01*
X16254348Y-14652484D02*
X16235301Y-14642960D01*
X16235301Y-14642960D02*
X16225777Y-14633436D01*
X16225777Y-14633436D02*
X16216253Y-14614388D01*
X16216253Y-14614388D02*
X16206729Y-14576293D01*
X16206729Y-14576293D02*
X16206729Y-14528674D01*
X16206729Y-14528674D02*
X16216253Y-14490579D01*
X16216253Y-14490579D02*
X16225777Y-14471531D01*
X16225777Y-14471531D02*
X16235301Y-14462008D01*
X16235301Y-14462008D02*
X16254348Y-14452484D01*
X16511491Y-14652484D02*
X16397206Y-14652484D01*
X16454348Y-14652484D02*
X16454348Y-14452484D01*
X16454348Y-14452484D02*
X16435301Y-14481055D01*
X16435301Y-14481055D02*
X16416253Y-14500103D01*
X16416253Y-14500103D02*
X16397206Y-14509627D01*
X16701967Y-14652484D02*
X16587682Y-14652484D01*
X16644825Y-14652484D02*
X16644825Y-14452484D01*
X16644825Y-14452484D02*
X16625777Y-14481055D01*
X16625777Y-14481055D02*
X16606729Y-14500103D01*
X16606729Y-14500103D02*
X16587682Y-14509627D01*
X16816253Y-14538198D02*
X16797206Y-14528674D01*
X16797206Y-14528674D02*
X16787682Y-14519150D01*
X16787682Y-14519150D02*
X16778158Y-14500103D01*
X16778158Y-14500103D02*
X16778158Y-14490579D01*
X16778158Y-14490579D02*
X16787682Y-14471531D01*
X16787682Y-14471531D02*
X16797206Y-14462008D01*
X16797206Y-14462008D02*
X16816253Y-14452484D01*
X16816253Y-14452484D02*
X16854349Y-14452484D01*
X16854349Y-14452484D02*
X16873396Y-14462008D01*
X16873396Y-14462008D02*
X16882920Y-14471531D01*
X16882920Y-14471531D02*
X16892444Y-14490579D01*
X16892444Y-14490579D02*
X16892444Y-14500103D01*
X16892444Y-14500103D02*
X16882920Y-14519150D01*
X16882920Y-14519150D02*
X16873396Y-14528674D01*
X16873396Y-14528674D02*
X16854349Y-14538198D01*
X16854349Y-14538198D02*
X16816253Y-14538198D01*
X16816253Y-14538198D02*
X16797206Y-14547722D01*
X16797206Y-14547722D02*
X16787682Y-14557246D01*
X16787682Y-14557246D02*
X16778158Y-14576293D01*
X16778158Y-14576293D02*
X16778158Y-14614388D01*
X16778158Y-14614388D02*
X16787682Y-14633436D01*
X16787682Y-14633436D02*
X16797206Y-14642960D01*
X16797206Y-14642960D02*
X16816253Y-14652484D01*
X16816253Y-14652484D02*
X16854349Y-14652484D01*
X16854349Y-14652484D02*
X16873396Y-14642960D01*
X16873396Y-14642960D02*
X16882920Y-14633436D01*
X16882920Y-14633436D02*
X16892444Y-14614388D01*
X16892444Y-14614388D02*
X16892444Y-14576293D01*
X16892444Y-14576293D02*
X16882920Y-14557246D01*
X16882920Y-14557246D02*
X16873396Y-14547722D01*
X16873396Y-14547722D02*
X16854349Y-14538198D01*
X16968634Y-14452484D02*
X16968634Y-14490579D01*
X17044825Y-14452484D02*
X17044825Y-14490579D01*
X17340063Y-14728674D02*
X17330539Y-14719150D01*
X17330539Y-14719150D02*
X17311491Y-14690579D01*
X17311491Y-14690579D02*
X17301968Y-14671531D01*
X17301968Y-14671531D02*
X17292444Y-14642960D01*
X17292444Y-14642960D02*
X17282920Y-14595341D01*
X17282920Y-14595341D02*
X17282920Y-14557246D01*
X17282920Y-14557246D02*
X17292444Y-14509627D01*
X17292444Y-14509627D02*
X17301968Y-14481055D01*
X17301968Y-14481055D02*
X17311491Y-14462008D01*
X17311491Y-14462008D02*
X17330539Y-14433436D01*
X17330539Y-14433436D02*
X17340063Y-14423912D01*
X17501968Y-14519150D02*
X17501968Y-14652484D01*
X17454349Y-14442960D02*
X17406730Y-14585817D01*
X17406730Y-14585817D02*
X17530539Y-14585817D01*
X17692444Y-14519150D02*
X17692444Y-14652484D01*
X17644825Y-14442960D02*
X17597206Y-14585817D01*
X17597206Y-14585817D02*
X17721015Y-14585817D01*
X17949587Y-14652484D02*
X17949587Y-14452484D01*
X18035301Y-14652484D02*
X18035301Y-14547722D01*
X18035301Y-14547722D02*
X18025777Y-14528674D01*
X18025777Y-14528674D02*
X18006730Y-14519150D01*
X18006730Y-14519150D02*
X17978158Y-14519150D01*
X17978158Y-14519150D02*
X17959111Y-14528674D01*
X17959111Y-14528674D02*
X17949587Y-14538198D01*
X18159111Y-14652484D02*
X18140063Y-14642960D01*
X18140063Y-14642960D02*
X18130539Y-14633436D01*
X18130539Y-14633436D02*
X18121015Y-14614388D01*
X18121015Y-14614388D02*
X18121015Y-14557246D01*
X18121015Y-14557246D02*
X18130539Y-14538198D01*
X18130539Y-14538198D02*
X18140063Y-14528674D01*
X18140063Y-14528674D02*
X18159111Y-14519150D01*
X18159111Y-14519150D02*
X18187682Y-14519150D01*
X18187682Y-14519150D02*
X18206730Y-14528674D01*
X18206730Y-14528674D02*
X18216253Y-14538198D01*
X18216253Y-14538198D02*
X18225777Y-14557246D01*
X18225777Y-14557246D02*
X18225777Y-14614388D01*
X18225777Y-14614388D02*
X18216253Y-14633436D01*
X18216253Y-14633436D02*
X18206730Y-14642960D01*
X18206730Y-14642960D02*
X18187682Y-14652484D01*
X18187682Y-14652484D02*
X18159111Y-14652484D01*
X18340063Y-14652484D02*
X18321015Y-14642960D01*
X18321015Y-14642960D02*
X18311492Y-14623912D01*
X18311492Y-14623912D02*
X18311492Y-14452484D01*
X18492444Y-14642960D02*
X18473396Y-14652484D01*
X18473396Y-14652484D02*
X18435301Y-14652484D01*
X18435301Y-14652484D02*
X18416253Y-14642960D01*
X18416253Y-14642960D02*
X18406730Y-14623912D01*
X18406730Y-14623912D02*
X18406730Y-14547722D01*
X18406730Y-14547722D02*
X18416253Y-14528674D01*
X18416253Y-14528674D02*
X18435301Y-14519150D01*
X18435301Y-14519150D02*
X18473396Y-14519150D01*
X18473396Y-14519150D02*
X18492444Y-14528674D01*
X18492444Y-14528674D02*
X18501968Y-14547722D01*
X18501968Y-14547722D02*
X18501968Y-14566769D01*
X18501968Y-14566769D02*
X18406730Y-14585817D01*
X18578158Y-14642960D02*
X18597206Y-14652484D01*
X18597206Y-14652484D02*
X18635301Y-14652484D01*
X18635301Y-14652484D02*
X18654349Y-14642960D01*
X18654349Y-14642960D02*
X18663873Y-14623912D01*
X18663873Y-14623912D02*
X18663873Y-14614388D01*
X18663873Y-14614388D02*
X18654349Y-14595341D01*
X18654349Y-14595341D02*
X18635301Y-14585817D01*
X18635301Y-14585817D02*
X18606730Y-14585817D01*
X18606730Y-14585817D02*
X18587682Y-14576293D01*
X18587682Y-14576293D02*
X18578158Y-14557246D01*
X18578158Y-14557246D02*
X18578158Y-14547722D01*
X18578158Y-14547722D02*
X18587682Y-14528674D01*
X18587682Y-14528674D02*
X18606730Y-14519150D01*
X18606730Y-14519150D02*
X18635301Y-14519150D01*
X18635301Y-14519150D02*
X18654349Y-14528674D01*
X18730539Y-14728674D02*
X18740063Y-14719150D01*
X18740063Y-14719150D02*
X18759111Y-14690579D01*
X18759111Y-14690579D02*
X18768634Y-14671531D01*
X18768634Y-14671531D02*
X18778158Y-14642960D01*
X18778158Y-14642960D02*
X18787682Y-14595341D01*
X18787682Y-14595341D02*
X18787682Y-14557246D01*
X18787682Y-14557246D02*
X18778158Y-14509627D01*
X18778158Y-14509627D02*
X18768634Y-14481055D01*
X18768634Y-14481055D02*
X18759111Y-14462008D01*
X18759111Y-14462008D02*
X18740063Y-14433436D01*
X18740063Y-14433436D02*
X18730539Y-14423912D01*
D10*
X13765000Y-14825000D02*
G75*
G02*
X13665000Y-14825000I-50000J0D01*
G01*
X13665000Y-14825000D02*
G75*
G02*
X13765000Y-14825000I50000J0D01*
G01*
D11*
X14130539Y-14916484D02*
X14016253Y-14916484D01*
X14073396Y-14916484D02*
X14073396Y-14716484D01*
X14073396Y-14716484D02*
X14054348Y-14745055D01*
X14054348Y-14745055D02*
X14035301Y-14764103D01*
X14035301Y-14764103D02*
X14016253Y-14773627D01*
X14216253Y-14897436D02*
X14225777Y-14906960D01*
X14225777Y-14906960D02*
X14216253Y-14916484D01*
X14216253Y-14916484D02*
X14206729Y-14906960D01*
X14206729Y-14906960D02*
X14216253Y-14897436D01*
X14216253Y-14897436D02*
X14216253Y-14916484D01*
X14349586Y-14716484D02*
X14368634Y-14716484D01*
X14368634Y-14716484D02*
X14387682Y-14726008D01*
X14387682Y-14726008D02*
X14397205Y-14735531D01*
X14397205Y-14735531D02*
X14406729Y-14754579D01*
X14406729Y-14754579D02*
X14416253Y-14792674D01*
X14416253Y-14792674D02*
X14416253Y-14840293D01*
X14416253Y-14840293D02*
X14406729Y-14878388D01*
X14406729Y-14878388D02*
X14397205Y-14897436D01*
X14397205Y-14897436D02*
X14387682Y-14906960D01*
X14387682Y-14906960D02*
X14368634Y-14916484D01*
X14368634Y-14916484D02*
X14349586Y-14916484D01*
X14349586Y-14916484D02*
X14330539Y-14906960D01*
X14330539Y-14906960D02*
X14321015Y-14897436D01*
X14321015Y-14897436D02*
X14311491Y-14878388D01*
X14311491Y-14878388D02*
X14301967Y-14840293D01*
X14301967Y-14840293D02*
X14301967Y-14792674D01*
X14301967Y-14792674D02*
X14311491Y-14754579D01*
X14311491Y-14754579D02*
X14321015Y-14735531D01*
X14321015Y-14735531D02*
X14330539Y-14726008D01*
X14330539Y-14726008D02*
X14349586Y-14716484D01*
X14540062Y-14716484D02*
X14559110Y-14716484D01*
X14559110Y-14716484D02*
X14578158Y-14726008D01*
X14578158Y-14726008D02*
X14587682Y-14735531D01*
X14587682Y-14735531D02*
X14597205Y-14754579D01*
X14597205Y-14754579D02*
X14606729Y-14792674D01*
X14606729Y-14792674D02*
X14606729Y-14840293D01*
X14606729Y-14840293D02*
X14597205Y-14878388D01*
X14597205Y-14878388D02*
X14587682Y-14897436D01*
X14587682Y-14897436D02*
X14578158Y-14906960D01*
X14578158Y-14906960D02*
X14559110Y-14916484D01*
X14559110Y-14916484D02*
X14540062Y-14916484D01*
X14540062Y-14916484D02*
X14521015Y-14906960D01*
X14521015Y-14906960D02*
X14511491Y-14897436D01*
X14511491Y-14897436D02*
X14501967Y-14878388D01*
X14501967Y-14878388D02*
X14492443Y-14840293D01*
X14492443Y-14840293D02*
X14492443Y-14792674D01*
X14492443Y-14792674D02*
X14501967Y-14754579D01*
X14501967Y-14754579D02*
X14511491Y-14735531D01*
X14511491Y-14735531D02*
X14521015Y-14726008D01*
X14521015Y-14726008D02*
X14540062Y-14716484D01*
X14730539Y-14716484D02*
X14749586Y-14716484D01*
X14749586Y-14716484D02*
X14768634Y-14726008D01*
X14768634Y-14726008D02*
X14778158Y-14735531D01*
X14778158Y-14735531D02*
X14787682Y-14754579D01*
X14787682Y-14754579D02*
X14797205Y-14792674D01*
X14797205Y-14792674D02*
X14797205Y-14840293D01*
X14797205Y-14840293D02*
X14787682Y-14878388D01*
X14787682Y-14878388D02*
X14778158Y-14897436D01*
X14778158Y-14897436D02*
X14768634Y-14906960D01*
X14768634Y-14906960D02*
X14749586Y-14916484D01*
X14749586Y-14916484D02*
X14730539Y-14916484D01*
X14730539Y-14916484D02*
X14711491Y-14906960D01*
X14711491Y-14906960D02*
X14701967Y-14897436D01*
X14701967Y-14897436D02*
X14692443Y-14878388D01*
X14692443Y-14878388D02*
X14682920Y-14840293D01*
X14682920Y-14840293D02*
X14682920Y-14792674D01*
X14682920Y-14792674D02*
X14692443Y-14754579D01*
X14692443Y-14754579D02*
X14701967Y-14735531D01*
X14701967Y-14735531D02*
X14711491Y-14726008D01*
X14711491Y-14726008D02*
X14730539Y-14716484D01*
X14882920Y-14916484D02*
X14882920Y-14783150D01*
X14882920Y-14802198D02*
X14892443Y-14792674D01*
X14892443Y-14792674D02*
X14911491Y-14783150D01*
X14911491Y-14783150D02*
X14940063Y-14783150D01*
X14940063Y-14783150D02*
X14959110Y-14792674D01*
X14959110Y-14792674D02*
X14968634Y-14811722D01*
X14968634Y-14811722D02*
X14968634Y-14916484D01*
X14968634Y-14811722D02*
X14978158Y-14792674D01*
X14978158Y-14792674D02*
X14997205Y-14783150D01*
X14997205Y-14783150D02*
X15025777Y-14783150D01*
X15025777Y-14783150D02*
X15044824Y-14792674D01*
X15044824Y-14792674D02*
X15054348Y-14811722D01*
X15054348Y-14811722D02*
X15054348Y-14916484D01*
X15149586Y-14916484D02*
X15149586Y-14783150D01*
X15149586Y-14802198D02*
X15159110Y-14792674D01*
X15159110Y-14792674D02*
X15178158Y-14783150D01*
X15178158Y-14783150D02*
X15206729Y-14783150D01*
X15206729Y-14783150D02*
X15225777Y-14792674D01*
X15225777Y-14792674D02*
X15235301Y-14811722D01*
X15235301Y-14811722D02*
X15235301Y-14916484D01*
X15235301Y-14811722D02*
X15244824Y-14792674D01*
X15244824Y-14792674D02*
X15263872Y-14783150D01*
X15263872Y-14783150D02*
X15292443Y-14783150D01*
X15292443Y-14783150D02*
X15311491Y-14792674D01*
X15311491Y-14792674D02*
X15321015Y-14811722D01*
X15321015Y-14811722D02*
X15321015Y-14916484D01*
X15711491Y-14706960D02*
X15540063Y-14964103D01*
X15968634Y-14716484D02*
X15987682Y-14716484D01*
X15987682Y-14716484D02*
X16006729Y-14726008D01*
X16006729Y-14726008D02*
X16016253Y-14735531D01*
X16016253Y-14735531D02*
X16025777Y-14754579D01*
X16025777Y-14754579D02*
X16035301Y-14792674D01*
X16035301Y-14792674D02*
X16035301Y-14840293D01*
X16035301Y-14840293D02*
X16025777Y-14878388D01*
X16025777Y-14878388D02*
X16016253Y-14897436D01*
X16016253Y-14897436D02*
X16006729Y-14906960D01*
X16006729Y-14906960D02*
X15987682Y-14916484D01*
X15987682Y-14916484D02*
X15968634Y-14916484D01*
X15968634Y-14916484D02*
X15949586Y-14906960D01*
X15949586Y-14906960D02*
X15940063Y-14897436D01*
X15940063Y-14897436D02*
X15930539Y-14878388D01*
X15930539Y-14878388D02*
X15921015Y-14840293D01*
X15921015Y-14840293D02*
X15921015Y-14792674D01*
X15921015Y-14792674D02*
X15930539Y-14754579D01*
X15930539Y-14754579D02*
X15940063Y-14735531D01*
X15940063Y-14735531D02*
X15949586Y-14726008D01*
X15949586Y-14726008D02*
X15968634Y-14716484D01*
X16121015Y-14897436D02*
X16130539Y-14906960D01*
X16130539Y-14906960D02*
X16121015Y-14916484D01*
X16121015Y-14916484D02*
X16111491Y-14906960D01*
X16111491Y-14906960D02*
X16121015Y-14897436D01*
X16121015Y-14897436D02*
X16121015Y-14916484D01*
X16254348Y-14716484D02*
X16273396Y-14716484D01*
X16273396Y-14716484D02*
X16292444Y-14726008D01*
X16292444Y-14726008D02*
X16301967Y-14735531D01*
X16301967Y-14735531D02*
X16311491Y-14754579D01*
X16311491Y-14754579D02*
X16321015Y-14792674D01*
X16321015Y-14792674D02*
X16321015Y-14840293D01*
X16321015Y-14840293D02*
X16311491Y-14878388D01*
X16311491Y-14878388D02*
X16301967Y-14897436D01*
X16301967Y-14897436D02*
X16292444Y-14906960D01*
X16292444Y-14906960D02*
X16273396Y-14916484D01*
X16273396Y-14916484D02*
X16254348Y-14916484D01*
X16254348Y-14916484D02*
X16235301Y-14906960D01*
X16235301Y-14906960D02*
X16225777Y-14897436D01*
X16225777Y-14897436D02*
X16216253Y-14878388D01*
X16216253Y-14878388D02*
X16206729Y-14840293D01*
X16206729Y-14840293D02*
X16206729Y-14792674D01*
X16206729Y-14792674D02*
X16216253Y-14754579D01*
X16216253Y-14754579D02*
X16225777Y-14735531D01*
X16225777Y-14735531D02*
X16235301Y-14726008D01*
X16235301Y-14726008D02*
X16254348Y-14716484D01*
X16387682Y-14716484D02*
X16511491Y-14716484D01*
X16511491Y-14716484D02*
X16444825Y-14792674D01*
X16444825Y-14792674D02*
X16473396Y-14792674D01*
X16473396Y-14792674D02*
X16492444Y-14802198D01*
X16492444Y-14802198D02*
X16501967Y-14811722D01*
X16501967Y-14811722D02*
X16511491Y-14830769D01*
X16511491Y-14830769D02*
X16511491Y-14878388D01*
X16511491Y-14878388D02*
X16501967Y-14897436D01*
X16501967Y-14897436D02*
X16492444Y-14906960D01*
X16492444Y-14906960D02*
X16473396Y-14916484D01*
X16473396Y-14916484D02*
X16416253Y-14916484D01*
X16416253Y-14916484D02*
X16397206Y-14906960D01*
X16397206Y-14906960D02*
X16387682Y-14897436D01*
X16606729Y-14916484D02*
X16644825Y-14916484D01*
X16644825Y-14916484D02*
X16663872Y-14906960D01*
X16663872Y-14906960D02*
X16673396Y-14897436D01*
X16673396Y-14897436D02*
X16692444Y-14868865D01*
X16692444Y-14868865D02*
X16701967Y-14830769D01*
X16701967Y-14830769D02*
X16701967Y-14754579D01*
X16701967Y-14754579D02*
X16692444Y-14735531D01*
X16692444Y-14735531D02*
X16682920Y-14726008D01*
X16682920Y-14726008D02*
X16663872Y-14716484D01*
X16663872Y-14716484D02*
X16625777Y-14716484D01*
X16625777Y-14716484D02*
X16606729Y-14726008D01*
X16606729Y-14726008D02*
X16597206Y-14735531D01*
X16597206Y-14735531D02*
X16587682Y-14754579D01*
X16587682Y-14754579D02*
X16587682Y-14802198D01*
X16587682Y-14802198D02*
X16597206Y-14821246D01*
X16597206Y-14821246D02*
X16606729Y-14830769D01*
X16606729Y-14830769D02*
X16625777Y-14840293D01*
X16625777Y-14840293D02*
X16663872Y-14840293D01*
X16663872Y-14840293D02*
X16682920Y-14830769D01*
X16682920Y-14830769D02*
X16692444Y-14821246D01*
X16692444Y-14821246D02*
X16701967Y-14802198D01*
X16873396Y-14783150D02*
X16873396Y-14916484D01*
X16825777Y-14706960D02*
X16778158Y-14849817D01*
X16778158Y-14849817D02*
X16901968Y-14849817D01*
X16968634Y-14716484D02*
X16968634Y-14754579D01*
X17044825Y-14716484D02*
X17044825Y-14754579D01*
X17340063Y-14992674D02*
X17330539Y-14983150D01*
X17330539Y-14983150D02*
X17311491Y-14954579D01*
X17311491Y-14954579D02*
X17301968Y-14935531D01*
X17301968Y-14935531D02*
X17292444Y-14906960D01*
X17292444Y-14906960D02*
X17282920Y-14859341D01*
X17282920Y-14859341D02*
X17282920Y-14821246D01*
X17282920Y-14821246D02*
X17292444Y-14773627D01*
X17292444Y-14773627D02*
X17301968Y-14745055D01*
X17301968Y-14745055D02*
X17311491Y-14726008D01*
X17311491Y-14726008D02*
X17330539Y-14697436D01*
X17330539Y-14697436D02*
X17340063Y-14687912D01*
X17501968Y-14783150D02*
X17501968Y-14916484D01*
X17454349Y-14706960D02*
X17406730Y-14849817D01*
X17406730Y-14849817D02*
X17530539Y-14849817D01*
X17587682Y-14716484D02*
X17721015Y-14716484D01*
X17721015Y-14716484D02*
X17635301Y-14916484D01*
X17949587Y-14916484D02*
X17949587Y-14716484D01*
X18035301Y-14916484D02*
X18035301Y-14811722D01*
X18035301Y-14811722D02*
X18025777Y-14792674D01*
X18025777Y-14792674D02*
X18006730Y-14783150D01*
X18006730Y-14783150D02*
X17978158Y-14783150D01*
X17978158Y-14783150D02*
X17959111Y-14792674D01*
X17959111Y-14792674D02*
X17949587Y-14802198D01*
X18159111Y-14916484D02*
X18140063Y-14906960D01*
X18140063Y-14906960D02*
X18130539Y-14897436D01*
X18130539Y-14897436D02*
X18121015Y-14878388D01*
X18121015Y-14878388D02*
X18121015Y-14821246D01*
X18121015Y-14821246D02*
X18130539Y-14802198D01*
X18130539Y-14802198D02*
X18140063Y-14792674D01*
X18140063Y-14792674D02*
X18159111Y-14783150D01*
X18159111Y-14783150D02*
X18187682Y-14783150D01*
X18187682Y-14783150D02*
X18206730Y-14792674D01*
X18206730Y-14792674D02*
X18216253Y-14802198D01*
X18216253Y-14802198D02*
X18225777Y-14821246D01*
X18225777Y-14821246D02*
X18225777Y-14878388D01*
X18225777Y-14878388D02*
X18216253Y-14897436D01*
X18216253Y-14897436D02*
X18206730Y-14906960D01*
X18206730Y-14906960D02*
X18187682Y-14916484D01*
X18187682Y-14916484D02*
X18159111Y-14916484D01*
X18340063Y-14916484D02*
X18321015Y-14906960D01*
X18321015Y-14906960D02*
X18311492Y-14887912D01*
X18311492Y-14887912D02*
X18311492Y-14716484D01*
X18492444Y-14906960D02*
X18473396Y-14916484D01*
X18473396Y-14916484D02*
X18435301Y-14916484D01*
X18435301Y-14916484D02*
X18416253Y-14906960D01*
X18416253Y-14906960D02*
X18406730Y-14887912D01*
X18406730Y-14887912D02*
X18406730Y-14811722D01*
X18406730Y-14811722D02*
X18416253Y-14792674D01*
X18416253Y-14792674D02*
X18435301Y-14783150D01*
X18435301Y-14783150D02*
X18473396Y-14783150D01*
X18473396Y-14783150D02*
X18492444Y-14792674D01*
X18492444Y-14792674D02*
X18501968Y-14811722D01*
X18501968Y-14811722D02*
X18501968Y-14830769D01*
X18501968Y-14830769D02*
X18406730Y-14849817D01*
X18578158Y-14906960D02*
X18597206Y-14916484D01*
X18597206Y-14916484D02*
X18635301Y-14916484D01*
X18635301Y-14916484D02*
X18654349Y-14906960D01*
X18654349Y-14906960D02*
X18663873Y-14887912D01*
X18663873Y-14887912D02*
X18663873Y-14878388D01*
X18663873Y-14878388D02*
X18654349Y-14859341D01*
X18654349Y-14859341D02*
X18635301Y-14849817D01*
X18635301Y-14849817D02*
X18606730Y-14849817D01*
X18606730Y-14849817D02*
X18587682Y-14840293D01*
X18587682Y-14840293D02*
X18578158Y-14821246D01*
X18578158Y-14821246D02*
X18578158Y-14811722D01*
X18578158Y-14811722D02*
X18587682Y-14792674D01*
X18587682Y-14792674D02*
X18606730Y-14783150D01*
X18606730Y-14783150D02*
X18635301Y-14783150D01*
X18635301Y-14783150D02*
X18654349Y-14792674D01*
X18730539Y-14992674D02*
X18740063Y-14983150D01*
X18740063Y-14983150D02*
X18759111Y-14954579D01*
X18759111Y-14954579D02*
X18768634Y-14935531D01*
X18768634Y-14935531D02*
X18778158Y-14906960D01*
X18778158Y-14906960D02*
X18787682Y-14859341D01*
X18787682Y-14859341D02*
X18787682Y-14821246D01*
X18787682Y-14821246D02*
X18778158Y-14773627D01*
X18778158Y-14773627D02*
X18768634Y-14745055D01*
X18768634Y-14745055D02*
X18759111Y-14726008D01*
X18759111Y-14726008D02*
X18740063Y-14697436D01*
X18740063Y-14697436D02*
X18730539Y-14687912D01*
M02*
