G04 #@! TF.GenerationSoftware,KiCad,Pcbnew,9.0.7*
G04 #@! TF.CreationDate,2026-01-28T19:45:35+11:00*
G04 #@! TF.ProjectId,16BitFlashROM_Adaptor,31364269-7446-46c6-9173-68524f4d5f41,rev?*
G04 #@! TF.SameCoordinates,Original*
G04 #@! TF.FileFunction,Paste,Top*
G04 #@! TF.FilePolarity,Positive*
%FSLAX46Y46*%
G04 Gerber Fmt 4.6, Leading zero omitted, Abs format (unit mm)*
G04 Created by KiCad (PCBNEW 9.0.7) date 2026-01-28 19:45:35*
%MOMM*%
%LPD*%
G01*
G04 APERTURE LIST*
%ADD10R,0.300000X1.300000*%
G04 APERTURE END LIST*
D10*
X153070000Y-103185000D03*
X152570000Y-103185000D03*
X152070000Y-103185000D03*
X151570000Y-103185000D03*
X151070000Y-103185000D03*
X150570000Y-103185000D03*
X150070000Y-103185000D03*
X149570000Y-103185000D03*
X149070000Y-103185000D03*
X148570000Y-103185000D03*
X148070000Y-103185000D03*
X147570000Y-103185000D03*
X147070000Y-103185000D03*
X146570000Y-103185000D03*
X146070000Y-103185000D03*
X145570000Y-103185000D03*
X145070000Y-103185000D03*
X144570000Y-103185000D03*
X144070000Y-103185000D03*
X143570000Y-103185000D03*
X143070000Y-103185000D03*
X142570000Y-103185000D03*
X142070000Y-103185000D03*
X141570000Y-103185000D03*
X141570000Y-122885000D03*
X142070000Y-122885000D03*
X142570000Y-122885000D03*
X143070000Y-122885000D03*
X143570000Y-122885000D03*
X144070000Y-122885000D03*
X144570000Y-122885000D03*
X145070000Y-122885000D03*
X145570000Y-122885000D03*
X146070000Y-122885000D03*
X146570000Y-122885000D03*
X147070000Y-122885000D03*
X147570000Y-122885000D03*
X148070000Y-122885000D03*
X148570000Y-122885000D03*
X149070000Y-122885000D03*
X149570000Y-122885000D03*
X150070000Y-122885000D03*
X150570000Y-122885000D03*
X151070000Y-122885000D03*
X151570000Y-122885000D03*
X152070000Y-122885000D03*
X152570000Y-122885000D03*
X153070000Y-122885000D03*
M02*
