M48
; DRILL file {KiCad 9.0.7} date 2026-02-02T16:02:03+1100
; FORMAT={-:-/ absolute / metric / decimal}
; #@! TF.CreationDate,2026-02-02T16:02:03+11:00
; #@! TF.GenerationSoftware,Kicad,Pcbnew,9.0.7
; #@! TF.FileFunction,Plated,1,2,PTH
FMAT,2
METRIC
; #@! TA.AperFunction,Plated,PTH,ViaDrill
T1C0.300
; #@! TA.AperFunction,Plated,PTH,ComponentDrill
T2C0.300
; #@! TA.AperFunction,Plated,PTH,ComponentDrill
T3C0.800
; #@! TA.AperFunction,Plated,PTH,ComponentDrill
T4C0.950
; #@! TA.AperFunction,Plated,PTH,ComponentDrill
T5C1.000
; #@! TA.AperFunction,Plated,PTH,ComponentDrill
T6C1.190
; #@! TA.AperFunction,Plated,PTH,ComponentDrill
T7C1.420
; #@! TA.AperFunction,Plated,PTH,ComponentDrill
T8C2.300
; #@! TA.AperFunction,Plated,PTH,ComponentDrill
T9C3.180
; #@! TA.AperFunction,Plated,PTH,ComponentDrill
T10C3.500
%
G90
G05
T1
X105.61Y-88.72
X109.55Y-97.23
X109.6Y-89.56
X109.6Y-91.97
X109.6Y-94.35
X109.9Y-101.625
X110.525Y-100.625
X111.075Y-103.1
X111.075Y-106.3
X111.9Y-100.95
X112.55Y-103.625
X112.95Y-109.05
X112.95Y-111.25
X112.95Y-113.575
X113.275Y-106.1
X113.85Y-116.025
X114.3Y-108.64
X115.0Y-111.18
X115.2Y-143.2
X116.93Y-117.15
X117.1Y-127.88
X117.2Y-113.6
X117.967Y-123.69
X119.925Y-141.75
X121.075Y-97.05
X121.6Y-140.65
X124.375Y-89.15
X124.82Y-135.14
X124.9Y-132.81
X124.95Y-130.24
X125.19Y-125.14
X125.24Y-122.57
X125.29Y-116.4
X125.76Y-136.59
X125.87Y-139.11
X127.4Y-141.81
X128.675Y-88.425
X131.65Y-77.6
X134.74Y-127.79
X135.55Y-111.725
X136.075Y-80.1
X136.45Y-113.7
X136.63Y-139.11
X137.01Y-94.65
X137.06Y-99.88
X137.06Y-102.37
X137.12Y-104.8
X137.21Y-77.81
X137.23Y-107.4
X138.44Y-77.81
X138.53Y-75.12
X139.41Y-76.14
X141.093Y-134.719
X141.175Y-113.225
X141.743Y-134.043
X141.85Y-131.595
X142.28Y-127.825
X142.75Y-122.05
X142.9Y-80.075
X143.475Y-78.5
X143.5Y-136.1
X143.51Y-143.54
X143.53Y-74.04
X143.92Y-111.56
X144.36Y-79.84
X144.65Y-100.625
X144.65Y-110.25
X144.8Y-76.275
X145.22Y-78.7
X145.275Y-128.45
X145.275Y-130.99
X145.275Y-133.62
X145.82Y-75.7
X147.08Y-80.64
X147.099Y-74.526
X147.425Y-88.05
X147.475Y-116.625
X147.74Y-81.676
X147.78Y-141.66
X147.81Y-143.54
X148.07Y-125.45
X148.5Y-116.025
X149.059Y-120.209
X149.19Y-92.09
X149.84Y-125.45
X150.875Y-91.85
X151.416Y-133.115
X151.74Y-125.45
X151.85Y-143.55
X151.93Y-135.29
X152.275Y-94.375
X152.324Y-84.29
X152.7Y-111.475
X152.81Y-143.03
X152.852Y-83.561
X152.9Y-113.475
X153.056Y-117.025
X153.073Y-115.725
X153.075Y-114.425
X153.075Y-118.35
X153.155Y-136.1
X153.17Y-121.33
X153.24Y-100.6
X153.41Y-82.855
X153.463Y-142.38
X153.7Y-117.702
X153.75Y-115.1
X153.75Y-116.401
X153.996Y-82.172
X154.075Y-81.275
X154.15Y-80.275
X154.33Y-96.2
X154.6Y-119.685
X154.61Y-125.42
X154.875Y-66.25
X154.96Y-142.38
X155.14Y-124.36
X155.25Y-126.72
X155.475Y-120.15
X155.73Y-129.123
X155.78Y-122.19
X155.791Y-120.993
X155.91Y-123.73
X156.166Y-137.44
X156.275Y-66.15
X156.36Y-122.921
X156.63Y-142.22
X156.777Y-136.673
X157.19Y-138.2
X157.413Y-136.037
X158.025Y-67.025
X158.1Y-110.8
X158.124Y-107.751
X158.3Y-109.15
X158.44Y-141.3
X159.0Y-112.4
X159.29Y-124.1
X159.475Y-110.45
X159.56Y-67.51
X159.79Y-128.69
X159.79Y-130.69
X159.79Y-131.89
X159.79Y-133.84
X159.83Y-141.23
X159.839Y-135.29
X159.878Y-68.647
X159.94Y-129.69
X160.261Y-127.47
X160.351Y-110.875
X160.45Y-115.15
X160.91Y-69.65
X160.95Y-119.2
X160.99Y-140.99
X161.03Y-107.49
X161.125Y-70.8
X161.166Y-111.425
X161.24Y-123.27
X161.425Y-86.25
X161.425Y-87.55
X161.425Y-88.85
X161.425Y-90.15
X161.94Y-127.34
X161.98Y-85.25
X162.12Y-72.175
X162.225Y-86.9
X162.225Y-88.2
X162.225Y-89.5
X162.225Y-90.8
X162.54Y-140.777
X162.55Y-106.025
X163.49Y-143.19
X163.54Y-137.09
X163.75Y-113.025
X163.893Y-84.475
X163.94Y-127.34
X163.94Y-135.19
X165.254Y-140.252
X165.475Y-83.65
X165.722Y-144.315
X165.79Y-134.29
X166.39Y-127.54
X167.2Y-82.975
X167.2Y-113.65
X167.315Y-127.334
X167.34Y-129.09
X167.34Y-132.09
X167.34Y-135.19
X167.35Y-106.23
X168.65Y-82.125
X169.79Y-135.093
X170.025Y-81.3
X170.225Y-111.5
X170.46Y-123.95
X170.85Y-115.17
X170.875Y-110.864
X171.295Y-108.721
X171.325Y-80.275
X171.355Y-109.933
X171.39Y-123.19
X171.74Y-139.54
X171.8Y-107.675
X172.225Y-112.45
X172.3Y-123.62
X172.525Y-107.075
X172.83Y-129.95
X173.03Y-124.74
X173.2Y-106.275
X173.32Y-113.15
X173.66Y-120.465
X173.95Y-121.9
X175.685Y-99.91
X176.042Y-129.95
X176.991Y-131.19
X178.535Y-110.78
X178.891Y-130.49
X179.56Y-116.4
X179.67Y-117.92
X179.75Y-108.55
X179.78Y-86.815
X180.191Y-126.145
X180.291Y-127.89
X180.291Y-129.09
X180.46Y-119.965
X180.635Y-117.165
X180.81Y-115.64
X180.925Y-105.625
X181.13Y-88.89
X181.91Y-114.34
X183.685Y-112.315
X183.735Y-117.99
X185.785Y-114.29
X186.36Y-112.315
X188.01Y-110.215
X190.585Y-110.99
X190.585Y-112.09
X190.585Y-113.19
X190.585Y-114.29
X190.585Y-115.39
X190.585Y-117.59
X190.585Y-118.69
X193.13Y-91.59
T2
X162.74Y-130.293
X162.74Y-131.293
X162.74Y-132.293
X163.74Y-130.293
X163.74Y-131.293
X163.74Y-132.293
X164.74Y-130.293
X164.74Y-131.293
X164.74Y-132.293
T3
X179.17Y-138.62
X181.67Y-138.62
T4
X186.53Y-128.27
X186.53Y-130.77
X186.53Y-132.77
X186.53Y-135.27
T5
X102.89Y-81.256
X102.89Y-83.796
X102.89Y-86.336
X102.89Y-88.876
X102.89Y-91.416
X102.89Y-93.956
X102.89Y-96.496
X102.89Y-99.036
X102.89Y-101.576
X102.89Y-104.116
X102.89Y-106.656
X102.89Y-109.196
X102.89Y-111.736
X102.89Y-114.276
X102.89Y-116.816
X102.89Y-119.356
X102.89Y-121.896
X102.89Y-124.436
X102.89Y-126.976
X102.89Y-129.516
X102.89Y-132.056
X102.89Y-134.596
X107.97Y-81.256
X107.97Y-83.796
X107.97Y-86.336
X107.97Y-88.876
X107.97Y-91.416
X107.97Y-93.956
X107.97Y-96.496
X107.97Y-99.036
X107.97Y-101.576
X107.97Y-104.116
X107.97Y-106.656
X107.97Y-109.196
X107.97Y-111.736
X107.97Y-114.276
X107.97Y-116.816
X107.97Y-119.356
X107.97Y-121.896
X107.97Y-124.436
X107.97Y-126.976
X107.97Y-129.516
X107.97Y-132.056
X107.97Y-134.596
X115.12Y-121.61
X115.12Y-124.15
X115.12Y-126.69
X115.12Y-129.23
X115.12Y-131.77
X115.12Y-134.31
X115.12Y-136.85
X115.12Y-139.39
X123.26Y-93.4
X123.26Y-95.94
X123.26Y-98.48
X123.26Y-101.02
X123.26Y-103.56
X123.26Y-106.1
X123.26Y-108.64
X123.26Y-111.18
X123.26Y-113.72
X123.26Y-116.26
X123.26Y-118.8
X123.26Y-121.34
X123.26Y-123.88
X123.26Y-126.42
X123.26Y-128.96
X123.26Y-131.5
X123.26Y-134.04
X123.26Y-136.58
X123.26Y-139.12
X123.26Y-141.66
X130.47Y-71.5
X130.47Y-75.5
X133.01Y-71.5
X133.01Y-75.5
X135.55Y-71.5
X135.55Y-75.5
X138.09Y-71.5
X138.5Y-93.4
X138.5Y-95.94
X138.5Y-98.48
X138.5Y-101.02
X138.5Y-103.56
X138.5Y-106.1
X138.5Y-108.64
X138.5Y-111.18
X138.5Y-113.72
X138.5Y-116.26
X138.5Y-118.8
X138.5Y-121.34
X138.5Y-123.88
X138.5Y-126.42
X138.5Y-128.96
X138.5Y-131.5
X138.5Y-134.04
X138.5Y-136.58
X138.5Y-139.12
X138.5Y-141.66
X140.63Y-71.5
X143.17Y-71.5
X145.71Y-71.5
X148.25Y-71.5
X150.79Y-71.5
X153.33Y-71.5
X153.33Y-146.37
X155.87Y-146.37
X158.41Y-146.37
X176.63Y-143.83
X176.63Y-146.37
X177.335Y-92.92
X177.335Y-95.46
X179.17Y-143.83
X179.17Y-146.37
X181.71Y-143.83
X181.71Y-146.37
T6
X187.53Y-85.48
X187.53Y-87.77
X187.53Y-90.06
X187.53Y-92.35
X187.53Y-94.64
X189.63Y-84.34
X189.63Y-86.63
X189.63Y-88.92
X189.63Y-91.21
X189.63Y-93.5
X191.71Y-85.48
X191.71Y-87.77
X191.71Y-90.06
X191.71Y-92.35
X191.71Y-94.64
T7
X102.7Y-58.62
X102.7Y-63.7
X106.71Y-58.62
X106.71Y-63.7
X110.67Y-58.62
X110.67Y-63.7
X114.63Y-58.62
X114.63Y-63.7
X118.59Y-58.62
X118.59Y-63.7
X122.55Y-58.62
X122.55Y-63.7
X126.51Y-58.62
X126.51Y-63.7
X130.47Y-58.62
X130.47Y-63.7
X134.43Y-58.62
X134.43Y-63.7
X138.39Y-58.62
X138.39Y-63.7
X142.35Y-58.62
X142.35Y-63.7
X146.31Y-58.62
X146.31Y-63.7
X150.27Y-58.62
X150.27Y-63.7
X154.23Y-58.62
X154.23Y-63.7
X158.19Y-58.62
X158.19Y-63.7
X162.15Y-58.62
X162.15Y-63.7
X166.11Y-58.62
X166.11Y-63.7
X170.07Y-58.62
X170.07Y-63.7
X174.03Y-58.62
X174.03Y-63.7
X177.99Y-58.62
X177.99Y-63.7
X181.95Y-58.62
X181.95Y-63.7
X185.91Y-58.62
X185.91Y-63.7
T8
X189.24Y-125.2
X189.24Y-138.34
T9
X189.63Y-77.3
X189.63Y-102.29
T10
X98.63Y-73.381
X98.63Y-142.471
M30
