G04 #@! TF.GenerationSoftware,KiCad,Pcbnew,9.0.7*
G04 #@! TF.CreationDate,2026-02-02T16:02:05+11:00*
G04 #@! TF.ProjectId,FlashCartProgrammer,466c6173-6843-4617-9274-50726f677261,rev?*
G04 #@! TF.SameCoordinates,Original*
G04 #@! TF.FileFunction,Legend,Bot*
G04 #@! TF.FilePolarity,Positive*
%FSLAX46Y46*%
G04 Gerber Fmt 4.6, Leading zero omitted, Abs format (unit mm)*
G04 Created by KiCad (PCBNEW 9.0.7) date 2026-02-02 16:02:05*
%MOMM*%
%LPD*%
G01*
G04 APERTURE LIST*
G04 Aperture macros list*
%AMRoundRect*
0 Rectangle with rounded corners*
0 $1 Rounding radius*
0 $2 $3 $4 $5 $6 $7 $8 $9 X,Y pos of 4 corners*
0 Add a 4 corners polygon primitive as box body*
4,1,4,$2,$3,$4,$5,$6,$7,$8,$9,$2,$3,0*
0 Add four circle primitives for the rounded corners*
1,1,$1+$1,$2,$3*
1,1,$1+$1,$4,$5*
1,1,$1+$1,$6,$7*
1,1,$1+$1,$8,$9*
0 Add four rect primitives between the rounded corners*
20,1,$1+$1,$2,$3,$4,$5,0*
20,1,$1+$1,$4,$5,$6,$7,0*
20,1,$1+$1,$6,$7,$8,$9,0*
20,1,$1+$1,$8,$9,$2,$3,0*%
G04 Aperture macros list end*
%ADD10C,0.300000*%
%ADD11C,0.150000*%
%ADD12C,0.120000*%
%ADD13C,4.770000*%
%ADD14R,1.785000X1.785000*%
%ADD15C,1.785000*%
%ADD16R,1.700000X1.700000*%
%ADD17C,1.700000*%
%ADD18C,3.500000*%
%ADD19C,0.425000*%
%ADD20RoundRect,0.250000X-0.550000X-0.550000X0.550000X-0.550000X0.550000X0.550000X-0.550000X0.550000X0*%
%ADD21C,1.600000*%
%ADD22R,2.130000X2.130000*%
%ADD23C,2.130000*%
%ADD24C,5.000000*%
%ADD25C,1.750000*%
%ADD26R,1.500000X1.600000*%
%ADD27C,3.000000*%
%ADD28R,2.000000X1.440000*%
%ADD29O,2.000000X1.440000*%
%ADD30RoundRect,0.225000X0.250000X-0.225000X0.250000X0.225000X-0.250000X0.225000X-0.250000X-0.225000X0*%
%ADD31RoundRect,0.225000X-0.250000X0.225000X-0.250000X-0.225000X0.250000X-0.225000X0.250000X0.225000X0*%
%ADD32RoundRect,0.200000X0.200000X0.275000X-0.200000X0.275000X-0.200000X-0.275000X0.200000X-0.275000X0*%
%ADD33RoundRect,0.200000X0.275000X-0.200000X0.275000X0.200000X-0.275000X0.200000X-0.275000X-0.200000X0*%
%ADD34RoundRect,0.225000X-0.225000X-0.250000X0.225000X-0.250000X0.225000X0.250000X-0.225000X0.250000X0*%
%ADD35RoundRect,0.200000X-0.275000X0.200000X-0.275000X-0.200000X0.275000X-0.200000X0.275000X0.200000X0*%
%ADD36RoundRect,0.225000X0.225000X0.250000X-0.225000X0.250000X-0.225000X-0.250000X0.225000X-0.250000X0*%
G04 APERTURE END LIST*
D10*
X162298346Y-82548139D02*
X162369774Y-82619568D01*
X162369774Y-82619568D02*
X162584060Y-82690996D01*
X162584060Y-82690996D02*
X162726917Y-82690996D01*
X162726917Y-82690996D02*
X162941203Y-82619568D01*
X162941203Y-82619568D02*
X163084060Y-82476710D01*
X163084060Y-82476710D02*
X163155489Y-82333853D01*
X163155489Y-82333853D02*
X163226917Y-82048139D01*
X163226917Y-82048139D02*
X163226917Y-81833853D01*
X163226917Y-81833853D02*
X163155489Y-81548139D01*
X163155489Y-81548139D02*
X163084060Y-81405282D01*
X163084060Y-81405282D02*
X162941203Y-81262425D01*
X162941203Y-81262425D02*
X162726917Y-81190996D01*
X162726917Y-81190996D02*
X162584060Y-81190996D01*
X162584060Y-81190996D02*
X162369774Y-81262425D01*
X162369774Y-81262425D02*
X162298346Y-81333853D01*
X161012632Y-81190996D02*
X161298346Y-81190996D01*
X161298346Y-81190996D02*
X161441203Y-81262425D01*
X161441203Y-81262425D02*
X161512632Y-81333853D01*
X161512632Y-81333853D02*
X161655489Y-81548139D01*
X161655489Y-81548139D02*
X161726917Y-81833853D01*
X161726917Y-81833853D02*
X161726917Y-82405282D01*
X161726917Y-82405282D02*
X161655489Y-82548139D01*
X161655489Y-82548139D02*
X161584060Y-82619568D01*
X161584060Y-82619568D02*
X161441203Y-82690996D01*
X161441203Y-82690996D02*
X161155489Y-82690996D01*
X161155489Y-82690996D02*
X161012632Y-82619568D01*
X161012632Y-82619568D02*
X160941203Y-82548139D01*
X160941203Y-82548139D02*
X160869774Y-82405282D01*
X160869774Y-82405282D02*
X160869774Y-82048139D01*
X160869774Y-82048139D02*
X160941203Y-81905282D01*
X160941203Y-81905282D02*
X161012632Y-81833853D01*
X161012632Y-81833853D02*
X161155489Y-81762425D01*
X161155489Y-81762425D02*
X161441203Y-81762425D01*
X161441203Y-81762425D02*
X161584060Y-81833853D01*
X161584060Y-81833853D02*
X161655489Y-81905282D01*
X161655489Y-81905282D02*
X161726917Y-82048139D01*
X159584061Y-81690996D02*
X159584061Y-82690996D01*
X159941203Y-81119568D02*
X160298346Y-82190996D01*
X160298346Y-82190996D02*
X159369775Y-82190996D01*
X156441204Y-82690996D02*
X156512633Y-82690996D01*
X156512633Y-82690996D02*
X156655490Y-82619568D01*
X156655490Y-82619568D02*
X156869775Y-82405282D01*
X156869775Y-82405282D02*
X157226918Y-81976710D01*
X157226918Y-81976710D02*
X157369775Y-81762425D01*
X157369775Y-81762425D02*
X157441204Y-81548139D01*
X157441204Y-81548139D02*
X157441204Y-81405282D01*
X157441204Y-81405282D02*
X157369775Y-81262425D01*
X157369775Y-81262425D02*
X157226918Y-81190996D01*
X157226918Y-81190996D02*
X157155490Y-81190996D01*
X157155490Y-81190996D02*
X157012633Y-81262425D01*
X157012633Y-81262425D02*
X156941204Y-81405282D01*
X156941204Y-81405282D02*
X156941204Y-81476710D01*
X156941204Y-81476710D02*
X157012633Y-81619568D01*
X157012633Y-81619568D02*
X157084061Y-81690996D01*
X157084061Y-81690996D02*
X157512633Y-81976710D01*
X157512633Y-81976710D02*
X157584061Y-82048139D01*
X157584061Y-82048139D02*
X157655490Y-82190996D01*
X157655490Y-82190996D02*
X157655490Y-82405282D01*
X157655490Y-82405282D02*
X157584061Y-82548139D01*
X157584061Y-82548139D02*
X157512633Y-82619568D01*
X157512633Y-82619568D02*
X157369775Y-82690996D01*
X157369775Y-82690996D02*
X157155490Y-82690996D01*
X157155490Y-82690996D02*
X157012633Y-82619568D01*
X157012633Y-82619568D02*
X156941204Y-82548139D01*
X156941204Y-82548139D02*
X156726918Y-82262425D01*
X156726918Y-82262425D02*
X156655490Y-82048139D01*
X156655490Y-82048139D02*
X156655490Y-81905282D01*
X154869775Y-81190996D02*
X154369775Y-82690996D01*
X154369775Y-82690996D02*
X153869775Y-81190996D01*
X153369776Y-82690996D02*
X153369776Y-81190996D01*
X151798347Y-82548139D02*
X151869775Y-82619568D01*
X151869775Y-82619568D02*
X152084061Y-82690996D01*
X152084061Y-82690996D02*
X152226918Y-82690996D01*
X152226918Y-82690996D02*
X152441204Y-82619568D01*
X152441204Y-82619568D02*
X152584061Y-82476710D01*
X152584061Y-82476710D02*
X152655490Y-82333853D01*
X152655490Y-82333853D02*
X152726918Y-82048139D01*
X152726918Y-82048139D02*
X152726918Y-81833853D01*
X152726918Y-81833853D02*
X152655490Y-81548139D01*
X152655490Y-81548139D02*
X152584061Y-81405282D01*
X152584061Y-81405282D02*
X152441204Y-81262425D01*
X152441204Y-81262425D02*
X152226918Y-81190996D01*
X152226918Y-81190996D02*
X152084061Y-81190996D01*
X152084061Y-81190996D02*
X151869775Y-81262425D01*
X151869775Y-81262425D02*
X151798347Y-81333853D01*
X151226918Y-81333853D02*
X151155490Y-81262425D01*
X151155490Y-81262425D02*
X151012633Y-81190996D01*
X151012633Y-81190996D02*
X150655490Y-81190996D01*
X150655490Y-81190996D02*
X150512633Y-81262425D01*
X150512633Y-81262425D02*
X150441204Y-81333853D01*
X150441204Y-81333853D02*
X150369775Y-81476710D01*
X150369775Y-81476710D02*
X150369775Y-81619568D01*
X150369775Y-81619568D02*
X150441204Y-81833853D01*
X150441204Y-81833853D02*
X151298347Y-82690996D01*
X151298347Y-82690996D02*
X150369775Y-82690996D01*
X149441204Y-81190996D02*
X149298347Y-81190996D01*
X149298347Y-81190996D02*
X149155490Y-81262425D01*
X149155490Y-81262425D02*
X149084062Y-81333853D01*
X149084062Y-81333853D02*
X149012633Y-81476710D01*
X149012633Y-81476710D02*
X148941204Y-81762425D01*
X148941204Y-81762425D02*
X148941204Y-82119568D01*
X148941204Y-82119568D02*
X149012633Y-82405282D01*
X149012633Y-82405282D02*
X149084062Y-82548139D01*
X149084062Y-82548139D02*
X149155490Y-82619568D01*
X149155490Y-82619568D02*
X149298347Y-82690996D01*
X149298347Y-82690996D02*
X149441204Y-82690996D01*
X149441204Y-82690996D02*
X149584062Y-82619568D01*
X149584062Y-82619568D02*
X149655490Y-82548139D01*
X149655490Y-82548139D02*
X149726919Y-82405282D01*
X149726919Y-82405282D02*
X149798347Y-82119568D01*
X149798347Y-82119568D02*
X149798347Y-81762425D01*
X149798347Y-81762425D02*
X149726919Y-81476710D01*
X149726919Y-81476710D02*
X149655490Y-81333853D01*
X149655490Y-81333853D02*
X149584062Y-81262425D01*
X149584062Y-81262425D02*
X149441204Y-81190996D01*
X146655491Y-81905282D02*
X147155491Y-81905282D01*
X147155491Y-82690996D02*
X147155491Y-81190996D01*
X147155491Y-81190996D02*
X146441205Y-81190996D01*
X145655491Y-82690996D02*
X145798348Y-82619568D01*
X145798348Y-82619568D02*
X145869777Y-82476710D01*
X145869777Y-82476710D02*
X145869777Y-81190996D01*
X144441206Y-82690996D02*
X144441206Y-81905282D01*
X144441206Y-81905282D02*
X144512634Y-81762425D01*
X144512634Y-81762425D02*
X144655491Y-81690996D01*
X144655491Y-81690996D02*
X144941206Y-81690996D01*
X144941206Y-81690996D02*
X145084063Y-81762425D01*
X144441206Y-82619568D02*
X144584063Y-82690996D01*
X144584063Y-82690996D02*
X144941206Y-82690996D01*
X144941206Y-82690996D02*
X145084063Y-82619568D01*
X145084063Y-82619568D02*
X145155491Y-82476710D01*
X145155491Y-82476710D02*
X145155491Y-82333853D01*
X145155491Y-82333853D02*
X145084063Y-82190996D01*
X145084063Y-82190996D02*
X144941206Y-82119568D01*
X144941206Y-82119568D02*
X144584063Y-82119568D01*
X144584063Y-82119568D02*
X144441206Y-82048139D01*
X143798348Y-82619568D02*
X143655491Y-82690996D01*
X143655491Y-82690996D02*
X143369777Y-82690996D01*
X143369777Y-82690996D02*
X143226920Y-82619568D01*
X143226920Y-82619568D02*
X143155491Y-82476710D01*
X143155491Y-82476710D02*
X143155491Y-82405282D01*
X143155491Y-82405282D02*
X143226920Y-82262425D01*
X143226920Y-82262425D02*
X143369777Y-82190996D01*
X143369777Y-82190996D02*
X143584063Y-82190996D01*
X143584063Y-82190996D02*
X143726920Y-82119568D01*
X143726920Y-82119568D02*
X143798348Y-81976710D01*
X143798348Y-81976710D02*
X143798348Y-81905282D01*
X143798348Y-81905282D02*
X143726920Y-81762425D01*
X143726920Y-81762425D02*
X143584063Y-81690996D01*
X143584063Y-81690996D02*
X143369777Y-81690996D01*
X143369777Y-81690996D02*
X143226920Y-81762425D01*
X142512634Y-82690996D02*
X142512634Y-81190996D01*
X141869777Y-82690996D02*
X141869777Y-81905282D01*
X141869777Y-81905282D02*
X141941205Y-81762425D01*
X141941205Y-81762425D02*
X142084062Y-81690996D01*
X142084062Y-81690996D02*
X142298348Y-81690996D01*
X142298348Y-81690996D02*
X142441205Y-81762425D01*
X142441205Y-81762425D02*
X142512634Y-81833853D01*
X140012634Y-82690996D02*
X140012634Y-81190996D01*
X140012634Y-81190996D02*
X139441205Y-81190996D01*
X139441205Y-81190996D02*
X139298348Y-81262425D01*
X139298348Y-81262425D02*
X139226919Y-81333853D01*
X139226919Y-81333853D02*
X139155491Y-81476710D01*
X139155491Y-81476710D02*
X139155491Y-81690996D01*
X139155491Y-81690996D02*
X139226919Y-81833853D01*
X139226919Y-81833853D02*
X139298348Y-81905282D01*
X139298348Y-81905282D02*
X139441205Y-81976710D01*
X139441205Y-81976710D02*
X140012634Y-81976710D01*
X138512634Y-82690996D02*
X138512634Y-81690996D01*
X138512634Y-81976710D02*
X138441205Y-81833853D01*
X138441205Y-81833853D02*
X138369777Y-81762425D01*
X138369777Y-81762425D02*
X138226919Y-81690996D01*
X138226919Y-81690996D02*
X138084062Y-81690996D01*
X137369777Y-82690996D02*
X137512634Y-82619568D01*
X137512634Y-82619568D02*
X137584063Y-82548139D01*
X137584063Y-82548139D02*
X137655491Y-82405282D01*
X137655491Y-82405282D02*
X137655491Y-81976710D01*
X137655491Y-81976710D02*
X137584063Y-81833853D01*
X137584063Y-81833853D02*
X137512634Y-81762425D01*
X137512634Y-81762425D02*
X137369777Y-81690996D01*
X137369777Y-81690996D02*
X137155491Y-81690996D01*
X137155491Y-81690996D02*
X137012634Y-81762425D01*
X137012634Y-81762425D02*
X136941206Y-81833853D01*
X136941206Y-81833853D02*
X136869777Y-81976710D01*
X136869777Y-81976710D02*
X136869777Y-82405282D01*
X136869777Y-82405282D02*
X136941206Y-82548139D01*
X136941206Y-82548139D02*
X137012634Y-82619568D01*
X137012634Y-82619568D02*
X137155491Y-82690996D01*
X137155491Y-82690996D02*
X137369777Y-82690996D01*
X135584063Y-81690996D02*
X135584063Y-82905282D01*
X135584063Y-82905282D02*
X135655491Y-83048139D01*
X135655491Y-83048139D02*
X135726920Y-83119568D01*
X135726920Y-83119568D02*
X135869777Y-83190996D01*
X135869777Y-83190996D02*
X136084063Y-83190996D01*
X136084063Y-83190996D02*
X136226920Y-83119568D01*
X135584063Y-82619568D02*
X135726920Y-82690996D01*
X135726920Y-82690996D02*
X136012634Y-82690996D01*
X136012634Y-82690996D02*
X136155491Y-82619568D01*
X136155491Y-82619568D02*
X136226920Y-82548139D01*
X136226920Y-82548139D02*
X136298348Y-82405282D01*
X136298348Y-82405282D02*
X136298348Y-81976710D01*
X136298348Y-81976710D02*
X136226920Y-81833853D01*
X136226920Y-81833853D02*
X136155491Y-81762425D01*
X136155491Y-81762425D02*
X136012634Y-81690996D01*
X136012634Y-81690996D02*
X135726920Y-81690996D01*
X135726920Y-81690996D02*
X135584063Y-81762425D01*
X134869777Y-82690996D02*
X134869777Y-81690996D01*
X134869777Y-81976710D02*
X134798348Y-81833853D01*
X134798348Y-81833853D02*
X134726920Y-81762425D01*
X134726920Y-81762425D02*
X134584062Y-81690996D01*
X134584062Y-81690996D02*
X134441205Y-81690996D01*
X133298349Y-82690996D02*
X133298349Y-81905282D01*
X133298349Y-81905282D02*
X133369777Y-81762425D01*
X133369777Y-81762425D02*
X133512634Y-81690996D01*
X133512634Y-81690996D02*
X133798349Y-81690996D01*
X133798349Y-81690996D02*
X133941206Y-81762425D01*
X133298349Y-82619568D02*
X133441206Y-82690996D01*
X133441206Y-82690996D02*
X133798349Y-82690996D01*
X133798349Y-82690996D02*
X133941206Y-82619568D01*
X133941206Y-82619568D02*
X134012634Y-82476710D01*
X134012634Y-82476710D02*
X134012634Y-82333853D01*
X134012634Y-82333853D02*
X133941206Y-82190996D01*
X133941206Y-82190996D02*
X133798349Y-82119568D01*
X133798349Y-82119568D02*
X133441206Y-82119568D01*
X133441206Y-82119568D02*
X133298349Y-82048139D01*
X132584063Y-82690996D02*
X132584063Y-81690996D01*
X132584063Y-81833853D02*
X132512634Y-81762425D01*
X132512634Y-81762425D02*
X132369777Y-81690996D01*
X132369777Y-81690996D02*
X132155491Y-81690996D01*
X132155491Y-81690996D02*
X132012634Y-81762425D01*
X132012634Y-81762425D02*
X131941206Y-81905282D01*
X131941206Y-81905282D02*
X131941206Y-82690996D01*
X131941206Y-81905282D02*
X131869777Y-81762425D01*
X131869777Y-81762425D02*
X131726920Y-81690996D01*
X131726920Y-81690996D02*
X131512634Y-81690996D01*
X131512634Y-81690996D02*
X131369777Y-81762425D01*
X131369777Y-81762425D02*
X131298348Y-81905282D01*
X131298348Y-81905282D02*
X131298348Y-82690996D01*
X130584063Y-82690996D02*
X130584063Y-81690996D01*
X130584063Y-81833853D02*
X130512634Y-81762425D01*
X130512634Y-81762425D02*
X130369777Y-81690996D01*
X130369777Y-81690996D02*
X130155491Y-81690996D01*
X130155491Y-81690996D02*
X130012634Y-81762425D01*
X130012634Y-81762425D02*
X129941206Y-81905282D01*
X129941206Y-81905282D02*
X129941206Y-82690996D01*
X129941206Y-81905282D02*
X129869777Y-81762425D01*
X129869777Y-81762425D02*
X129726920Y-81690996D01*
X129726920Y-81690996D02*
X129512634Y-81690996D01*
X129512634Y-81690996D02*
X129369777Y-81762425D01*
X129369777Y-81762425D02*
X129298348Y-81905282D01*
X129298348Y-81905282D02*
X129298348Y-82690996D01*
X128012634Y-82619568D02*
X128155491Y-82690996D01*
X128155491Y-82690996D02*
X128441206Y-82690996D01*
X128441206Y-82690996D02*
X128584063Y-82619568D01*
X128584063Y-82619568D02*
X128655491Y-82476710D01*
X128655491Y-82476710D02*
X128655491Y-81905282D01*
X128655491Y-81905282D02*
X128584063Y-81762425D01*
X128584063Y-81762425D02*
X128441206Y-81690996D01*
X128441206Y-81690996D02*
X128155491Y-81690996D01*
X128155491Y-81690996D02*
X128012634Y-81762425D01*
X128012634Y-81762425D02*
X127941206Y-81905282D01*
X127941206Y-81905282D02*
X127941206Y-82048139D01*
X127941206Y-82048139D02*
X128655491Y-82190996D01*
X127298349Y-82690996D02*
X127298349Y-81690996D01*
X127298349Y-81976710D02*
X127226920Y-81833853D01*
X127226920Y-81833853D02*
X127155492Y-81762425D01*
X127155492Y-81762425D02*
X127012634Y-81690996D01*
X127012634Y-81690996D02*
X126869777Y-81690996D01*
X126369778Y-82548139D02*
X126298349Y-82619568D01*
X126298349Y-82619568D02*
X126369778Y-82690996D01*
X126369778Y-82690996D02*
X126441206Y-82619568D01*
X126441206Y-82619568D02*
X126369778Y-82548139D01*
X126369778Y-82548139D02*
X126369778Y-82690996D01*
X160012632Y-87520828D02*
X160512632Y-86806542D01*
X160869775Y-87520828D02*
X160869775Y-86020828D01*
X160869775Y-86020828D02*
X160298346Y-86020828D01*
X160298346Y-86020828D02*
X160155489Y-86092257D01*
X160155489Y-86092257D02*
X160084060Y-86163685D01*
X160084060Y-86163685D02*
X160012632Y-86306542D01*
X160012632Y-86306542D02*
X160012632Y-86520828D01*
X160012632Y-86520828D02*
X160084060Y-86663685D01*
X160084060Y-86663685D02*
X160155489Y-86735114D01*
X160155489Y-86735114D02*
X160298346Y-86806542D01*
X160298346Y-86806542D02*
X160869775Y-86806542D01*
X158798346Y-87449400D02*
X158941203Y-87520828D01*
X158941203Y-87520828D02*
X159226918Y-87520828D01*
X159226918Y-87520828D02*
X159369775Y-87449400D01*
X159369775Y-87449400D02*
X159441203Y-87306542D01*
X159441203Y-87306542D02*
X159441203Y-86735114D01*
X159441203Y-86735114D02*
X159369775Y-86592257D01*
X159369775Y-86592257D02*
X159226918Y-86520828D01*
X159226918Y-86520828D02*
X158941203Y-86520828D01*
X158941203Y-86520828D02*
X158798346Y-86592257D01*
X158798346Y-86592257D02*
X158726918Y-86735114D01*
X158726918Y-86735114D02*
X158726918Y-86877971D01*
X158726918Y-86877971D02*
X159441203Y-87020828D01*
X158226918Y-86520828D02*
X157869775Y-87520828D01*
X157869775Y-87520828D02*
X157512632Y-86520828D01*
X155298347Y-86735114D02*
X155084061Y-86806542D01*
X155084061Y-86806542D02*
X155012632Y-86877971D01*
X155012632Y-86877971D02*
X154941204Y-87020828D01*
X154941204Y-87020828D02*
X154941204Y-87235114D01*
X154941204Y-87235114D02*
X155012632Y-87377971D01*
X155012632Y-87377971D02*
X155084061Y-87449400D01*
X155084061Y-87449400D02*
X155226918Y-87520828D01*
X155226918Y-87520828D02*
X155798347Y-87520828D01*
X155798347Y-87520828D02*
X155798347Y-86020828D01*
X155798347Y-86020828D02*
X155298347Y-86020828D01*
X155298347Y-86020828D02*
X155155490Y-86092257D01*
X155155490Y-86092257D02*
X155084061Y-86163685D01*
X155084061Y-86163685D02*
X155012632Y-86306542D01*
X155012632Y-86306542D02*
X155012632Y-86449400D01*
X155012632Y-86449400D02*
X155084061Y-86592257D01*
X155084061Y-86592257D02*
X155155490Y-86663685D01*
X155155490Y-86663685D02*
X155298347Y-86735114D01*
X155298347Y-86735114D02*
X155798347Y-86735114D01*
X154298347Y-87377971D02*
X154226918Y-87449400D01*
X154226918Y-87449400D02*
X154298347Y-87520828D01*
X154298347Y-87520828D02*
X154369775Y-87449400D01*
X154369775Y-87449400D02*
X154298347Y-87377971D01*
X154298347Y-87377971D02*
X154298347Y-87520828D01*
X150226918Y-86163685D02*
X150155490Y-86092257D01*
X150155490Y-86092257D02*
X150012633Y-86020828D01*
X150012633Y-86020828D02*
X149655490Y-86020828D01*
X149655490Y-86020828D02*
X149512633Y-86092257D01*
X149512633Y-86092257D02*
X149441204Y-86163685D01*
X149441204Y-86163685D02*
X149369775Y-86306542D01*
X149369775Y-86306542D02*
X149369775Y-86449400D01*
X149369775Y-86449400D02*
X149441204Y-86663685D01*
X149441204Y-86663685D02*
X150298347Y-87520828D01*
X150298347Y-87520828D02*
X149369775Y-87520828D01*
X148441204Y-86020828D02*
X148298347Y-86020828D01*
X148298347Y-86020828D02*
X148155490Y-86092257D01*
X148155490Y-86092257D02*
X148084062Y-86163685D01*
X148084062Y-86163685D02*
X148012633Y-86306542D01*
X148012633Y-86306542D02*
X147941204Y-86592257D01*
X147941204Y-86592257D02*
X147941204Y-86949400D01*
X147941204Y-86949400D02*
X148012633Y-87235114D01*
X148012633Y-87235114D02*
X148084062Y-87377971D01*
X148084062Y-87377971D02*
X148155490Y-87449400D01*
X148155490Y-87449400D02*
X148298347Y-87520828D01*
X148298347Y-87520828D02*
X148441204Y-87520828D01*
X148441204Y-87520828D02*
X148584062Y-87449400D01*
X148584062Y-87449400D02*
X148655490Y-87377971D01*
X148655490Y-87377971D02*
X148726919Y-87235114D01*
X148726919Y-87235114D02*
X148798347Y-86949400D01*
X148798347Y-86949400D02*
X148798347Y-86592257D01*
X148798347Y-86592257D02*
X148726919Y-86306542D01*
X148726919Y-86306542D02*
X148655490Y-86163685D01*
X148655490Y-86163685D02*
X148584062Y-86092257D01*
X148584062Y-86092257D02*
X148441204Y-86020828D01*
X147369776Y-86163685D02*
X147298348Y-86092257D01*
X147298348Y-86092257D02*
X147155491Y-86020828D01*
X147155491Y-86020828D02*
X146798348Y-86020828D01*
X146798348Y-86020828D02*
X146655491Y-86092257D01*
X146655491Y-86092257D02*
X146584062Y-86163685D01*
X146584062Y-86163685D02*
X146512633Y-86306542D01*
X146512633Y-86306542D02*
X146512633Y-86449400D01*
X146512633Y-86449400D02*
X146584062Y-86663685D01*
X146584062Y-86663685D02*
X147441205Y-87520828D01*
X147441205Y-87520828D02*
X146512633Y-87520828D01*
X145226920Y-86520828D02*
X145226920Y-87520828D01*
X145584062Y-85949400D02*
X145941205Y-87020828D01*
X145941205Y-87020828D02*
X145012634Y-87020828D01*
X143298349Y-87520828D02*
X143298349Y-86020828D01*
X143298349Y-86020828D02*
X142941206Y-86020828D01*
X142941206Y-86020828D02*
X142726920Y-86092257D01*
X142726920Y-86092257D02*
X142584063Y-86235114D01*
X142584063Y-86235114D02*
X142512634Y-86377971D01*
X142512634Y-86377971D02*
X142441206Y-86663685D01*
X142441206Y-86663685D02*
X142441206Y-86877971D01*
X142441206Y-86877971D02*
X142512634Y-87163685D01*
X142512634Y-87163685D02*
X142584063Y-87306542D01*
X142584063Y-87306542D02*
X142726920Y-87449400D01*
X142726920Y-87449400D02*
X142941206Y-87520828D01*
X142941206Y-87520828D02*
X143298349Y-87520828D01*
X141155492Y-87520828D02*
X141155492Y-86735114D01*
X141155492Y-86735114D02*
X141226920Y-86592257D01*
X141226920Y-86592257D02*
X141369777Y-86520828D01*
X141369777Y-86520828D02*
X141655492Y-86520828D01*
X141655492Y-86520828D02*
X141798349Y-86592257D01*
X141155492Y-87449400D02*
X141298349Y-87520828D01*
X141298349Y-87520828D02*
X141655492Y-87520828D01*
X141655492Y-87520828D02*
X141798349Y-87449400D01*
X141798349Y-87449400D02*
X141869777Y-87306542D01*
X141869777Y-87306542D02*
X141869777Y-87163685D01*
X141869777Y-87163685D02*
X141798349Y-87020828D01*
X141798349Y-87020828D02*
X141655492Y-86949400D01*
X141655492Y-86949400D02*
X141298349Y-86949400D01*
X141298349Y-86949400D02*
X141155492Y-86877971D01*
X140584063Y-86520828D02*
X140226920Y-87520828D01*
X140226920Y-87520828D02*
X139869777Y-86520828D01*
X138726920Y-87449400D02*
X138869777Y-87520828D01*
X138869777Y-87520828D02*
X139155492Y-87520828D01*
X139155492Y-87520828D02*
X139298349Y-87449400D01*
X139298349Y-87449400D02*
X139369777Y-87306542D01*
X139369777Y-87306542D02*
X139369777Y-86735114D01*
X139369777Y-86735114D02*
X139298349Y-86592257D01*
X139298349Y-86592257D02*
X139155492Y-86520828D01*
X139155492Y-86520828D02*
X138869777Y-86520828D01*
X138869777Y-86520828D02*
X138726920Y-86592257D01*
X138726920Y-86592257D02*
X138655492Y-86735114D01*
X138655492Y-86735114D02*
X138655492Y-86877971D01*
X138655492Y-86877971D02*
X139369777Y-87020828D01*
X136084063Y-86092257D02*
X136226921Y-86020828D01*
X136226921Y-86020828D02*
X136441206Y-86020828D01*
X136441206Y-86020828D02*
X136655492Y-86092257D01*
X136655492Y-86092257D02*
X136798349Y-86235114D01*
X136798349Y-86235114D02*
X136869778Y-86377971D01*
X136869778Y-86377971D02*
X136941206Y-86663685D01*
X136941206Y-86663685D02*
X136941206Y-86877971D01*
X136941206Y-86877971D02*
X136869778Y-87163685D01*
X136869778Y-87163685D02*
X136798349Y-87306542D01*
X136798349Y-87306542D02*
X136655492Y-87449400D01*
X136655492Y-87449400D02*
X136441206Y-87520828D01*
X136441206Y-87520828D02*
X136298349Y-87520828D01*
X136298349Y-87520828D02*
X136084063Y-87449400D01*
X136084063Y-87449400D02*
X136012635Y-87377971D01*
X136012635Y-87377971D02*
X136012635Y-86877971D01*
X136012635Y-86877971D02*
X136298349Y-86877971D01*
X134726921Y-87520828D02*
X134726921Y-86735114D01*
X134726921Y-86735114D02*
X134798349Y-86592257D01*
X134798349Y-86592257D02*
X134941206Y-86520828D01*
X134941206Y-86520828D02*
X135226921Y-86520828D01*
X135226921Y-86520828D02*
X135369778Y-86592257D01*
X134726921Y-87449400D02*
X134869778Y-87520828D01*
X134869778Y-87520828D02*
X135226921Y-87520828D01*
X135226921Y-87520828D02*
X135369778Y-87449400D01*
X135369778Y-87449400D02*
X135441206Y-87306542D01*
X135441206Y-87306542D02*
X135441206Y-87163685D01*
X135441206Y-87163685D02*
X135369778Y-87020828D01*
X135369778Y-87020828D02*
X135226921Y-86949400D01*
X135226921Y-86949400D02*
X134869778Y-86949400D01*
X134869778Y-86949400D02*
X134726921Y-86877971D01*
X133369778Y-86520828D02*
X133369778Y-87520828D01*
X134012635Y-86520828D02*
X134012635Y-87306542D01*
X134012635Y-87306542D02*
X133941206Y-87449400D01*
X133941206Y-87449400D02*
X133798349Y-87520828D01*
X133798349Y-87520828D02*
X133584063Y-87520828D01*
X133584063Y-87520828D02*
X133441206Y-87449400D01*
X133441206Y-87449400D02*
X133369778Y-87377971D01*
X132655492Y-86520828D02*
X132655492Y-87520828D01*
X132655492Y-86663685D02*
X132584063Y-86592257D01*
X132584063Y-86592257D02*
X132441206Y-86520828D01*
X132441206Y-86520828D02*
X132226920Y-86520828D01*
X132226920Y-86520828D02*
X132084063Y-86592257D01*
X132084063Y-86592257D02*
X132012635Y-86735114D01*
X132012635Y-86735114D02*
X132012635Y-87520828D01*
X131512634Y-86520828D02*
X130941206Y-86520828D01*
X131298349Y-86020828D02*
X131298349Y-87306542D01*
X131298349Y-87306542D02*
X131226920Y-87449400D01*
X131226920Y-87449400D02*
X131084063Y-87520828D01*
X131084063Y-87520828D02*
X130941206Y-87520828D01*
X130441206Y-87377971D02*
X130369777Y-87449400D01*
X130369777Y-87449400D02*
X130441206Y-87520828D01*
X130441206Y-87520828D02*
X130512634Y-87449400D01*
X130512634Y-87449400D02*
X130441206Y-87377971D01*
X130441206Y-87377971D02*
X130441206Y-87520828D01*
D11*
X172278187Y-134577958D02*
X172944854Y-134577958D01*
X171897235Y-134339863D02*
X172611520Y-134101768D01*
X172611520Y-134101768D02*
X172611520Y-134720815D01*
X172849615Y-135101768D02*
X172897235Y-135149387D01*
X172897235Y-135149387D02*
X172944854Y-135101768D01*
X172944854Y-135101768D02*
X172897235Y-135054149D01*
X172897235Y-135054149D02*
X172849615Y-135101768D01*
X172849615Y-135101768D02*
X172944854Y-135101768D01*
X171944854Y-135482720D02*
X171944854Y-136149386D01*
X171944854Y-136149386D02*
X172944854Y-135720815D01*
X172278187Y-136958910D02*
X172944854Y-136958910D01*
X172278187Y-136530339D02*
X172801996Y-136530339D01*
X172801996Y-136530339D02*
X172897235Y-136577958D01*
X172897235Y-136577958D02*
X172944854Y-136673196D01*
X172944854Y-136673196D02*
X172944854Y-136816053D01*
X172944854Y-136816053D02*
X172897235Y-136911291D01*
X172897235Y-136911291D02*
X172849615Y-136958910D01*
X172278187Y-137292244D02*
X172278187Y-137673196D01*
X172944854Y-137435101D02*
X172087711Y-137435101D01*
X172087711Y-137435101D02*
X171992473Y-137482720D01*
X171992473Y-137482720D02*
X171944854Y-137577958D01*
X171944854Y-137577958D02*
X171944854Y-137673196D01*
X170299615Y-128073196D02*
X170347235Y-128025577D01*
X170347235Y-128025577D02*
X170394854Y-127882720D01*
X170394854Y-127882720D02*
X170394854Y-127787482D01*
X170394854Y-127787482D02*
X170347235Y-127644625D01*
X170347235Y-127644625D02*
X170251996Y-127549387D01*
X170251996Y-127549387D02*
X170156758Y-127501768D01*
X170156758Y-127501768D02*
X169966282Y-127454149D01*
X169966282Y-127454149D02*
X169823425Y-127454149D01*
X169823425Y-127454149D02*
X169632949Y-127501768D01*
X169632949Y-127501768D02*
X169537711Y-127549387D01*
X169537711Y-127549387D02*
X169442473Y-127644625D01*
X169442473Y-127644625D02*
X169394854Y-127787482D01*
X169394854Y-127787482D02*
X169394854Y-127882720D01*
X169394854Y-127882720D02*
X169442473Y-128025577D01*
X169442473Y-128025577D02*
X169490092Y-128073196D01*
X170394854Y-128549387D02*
X170394854Y-128739863D01*
X170394854Y-128739863D02*
X170347235Y-128835101D01*
X170347235Y-128835101D02*
X170299615Y-128882720D01*
X170299615Y-128882720D02*
X170156758Y-128977958D01*
X170156758Y-128977958D02*
X169966282Y-129025577D01*
X169966282Y-129025577D02*
X169585330Y-129025577D01*
X169585330Y-129025577D02*
X169490092Y-128977958D01*
X169490092Y-128977958D02*
X169442473Y-128930339D01*
X169442473Y-128930339D02*
X169394854Y-128835101D01*
X169394854Y-128835101D02*
X169394854Y-128644625D01*
X169394854Y-128644625D02*
X169442473Y-128549387D01*
X169442473Y-128549387D02*
X169490092Y-128501768D01*
X169490092Y-128501768D02*
X169585330Y-128454149D01*
X169585330Y-128454149D02*
X169823425Y-128454149D01*
X169823425Y-128454149D02*
X169918663Y-128501768D01*
X169918663Y-128501768D02*
X169966282Y-128549387D01*
X169966282Y-128549387D02*
X170013901Y-128644625D01*
X170013901Y-128644625D02*
X170013901Y-128835101D01*
X170013901Y-128835101D02*
X169966282Y-128930339D01*
X169966282Y-128930339D02*
X169918663Y-128977958D01*
X169918663Y-128977958D02*
X169823425Y-129025577D01*
X141204619Y-59338840D02*
X141157000Y-59291221D01*
X141157000Y-59291221D02*
X141061762Y-59243602D01*
X141061762Y-59243602D02*
X140823667Y-59243602D01*
X140823667Y-59243602D02*
X140728429Y-59291221D01*
X140728429Y-59291221D02*
X140680810Y-59338840D01*
X140680810Y-59338840D02*
X140633191Y-59434078D01*
X140633191Y-59434078D02*
X140633191Y-59529316D01*
X140633191Y-59529316D02*
X140680810Y-59672173D01*
X140680810Y-59672173D02*
X141252238Y-60243602D01*
X141252238Y-60243602D02*
X140633191Y-60243602D01*
X140299857Y-59243602D02*
X139633191Y-59243602D01*
X139633191Y-59243602D02*
X140061762Y-60243602D01*
X157369615Y-127272005D02*
X157417235Y-127224386D01*
X157417235Y-127224386D02*
X157464854Y-127081529D01*
X157464854Y-127081529D02*
X157464854Y-126986291D01*
X157464854Y-126986291D02*
X157417235Y-126843434D01*
X157417235Y-126843434D02*
X157321996Y-126748196D01*
X157321996Y-126748196D02*
X157226758Y-126700577D01*
X157226758Y-126700577D02*
X157036282Y-126652958D01*
X157036282Y-126652958D02*
X156893425Y-126652958D01*
X156893425Y-126652958D02*
X156702949Y-126700577D01*
X156702949Y-126700577D02*
X156607711Y-126748196D01*
X156607711Y-126748196D02*
X156512473Y-126843434D01*
X156512473Y-126843434D02*
X156464854Y-126986291D01*
X156464854Y-126986291D02*
X156464854Y-127081529D01*
X156464854Y-127081529D02*
X156512473Y-127224386D01*
X156512473Y-127224386D02*
X156560092Y-127272005D01*
X157464854Y-128224386D02*
X157464854Y-127652958D01*
X157464854Y-127938672D02*
X156464854Y-127938672D01*
X156464854Y-127938672D02*
X156607711Y-127843434D01*
X156607711Y-127843434D02*
X156702949Y-127748196D01*
X156702949Y-127748196D02*
X156750568Y-127652958D01*
X157464854Y-129176767D02*
X157464854Y-128605339D01*
X157464854Y-128891053D02*
X156464854Y-128891053D01*
X156464854Y-128891053D02*
X156607711Y-128795815D01*
X156607711Y-128795815D02*
X156702949Y-128700577D01*
X156702949Y-128700577D02*
X156750568Y-128605339D01*
X189468231Y-106522142D02*
X188992040Y-106188809D01*
X189468231Y-105950714D02*
X188468231Y-105950714D01*
X188468231Y-105950714D02*
X188468231Y-106331666D01*
X188468231Y-106331666D02*
X188515850Y-106426904D01*
X188515850Y-106426904D02*
X188563469Y-106474523D01*
X188563469Y-106474523D02*
X188658707Y-106522142D01*
X188658707Y-106522142D02*
X188801564Y-106522142D01*
X188801564Y-106522142D02*
X188896802Y-106474523D01*
X188896802Y-106474523D02*
X188944421Y-106426904D01*
X188944421Y-106426904D02*
X188992040Y-106331666D01*
X188992040Y-106331666D02*
X188992040Y-105950714D01*
X188563469Y-106903095D02*
X188515850Y-106950714D01*
X188515850Y-106950714D02*
X188468231Y-107045952D01*
X188468231Y-107045952D02*
X188468231Y-107284047D01*
X188468231Y-107284047D02*
X188515850Y-107379285D01*
X188515850Y-107379285D02*
X188563469Y-107426904D01*
X188563469Y-107426904D02*
X188658707Y-107474523D01*
X188658707Y-107474523D02*
X188753945Y-107474523D01*
X188753945Y-107474523D02*
X188896802Y-107426904D01*
X188896802Y-107426904D02*
X189468231Y-106855476D01*
X189468231Y-106855476D02*
X189468231Y-107474523D01*
X188468231Y-108093571D02*
X188468231Y-108188809D01*
X188468231Y-108188809D02*
X188515850Y-108284047D01*
X188515850Y-108284047D02*
X188563469Y-108331666D01*
X188563469Y-108331666D02*
X188658707Y-108379285D01*
X188658707Y-108379285D02*
X188849183Y-108426904D01*
X188849183Y-108426904D02*
X189087278Y-108426904D01*
X189087278Y-108426904D02*
X189277754Y-108379285D01*
X189277754Y-108379285D02*
X189372992Y-108331666D01*
X189372992Y-108331666D02*
X189420612Y-108284047D01*
X189420612Y-108284047D02*
X189468231Y-108188809D01*
X189468231Y-108188809D02*
X189468231Y-108093571D01*
X189468231Y-108093571D02*
X189420612Y-107998333D01*
X189420612Y-107998333D02*
X189372992Y-107950714D01*
X189372992Y-107950714D02*
X189277754Y-107903095D01*
X189277754Y-107903095D02*
X189087278Y-107855476D01*
X189087278Y-107855476D02*
X188849183Y-107855476D01*
X188849183Y-107855476D02*
X188658707Y-107903095D01*
X188658707Y-107903095D02*
X188563469Y-107950714D01*
X188563469Y-107950714D02*
X188515850Y-107998333D01*
X188515850Y-107998333D02*
X188468231Y-108093571D01*
X167282892Y-135549443D02*
X167330511Y-135597063D01*
X167330511Y-135597063D02*
X167473368Y-135644682D01*
X167473368Y-135644682D02*
X167568606Y-135644682D01*
X167568606Y-135644682D02*
X167711463Y-135597063D01*
X167711463Y-135597063D02*
X167806701Y-135501824D01*
X167806701Y-135501824D02*
X167854320Y-135406586D01*
X167854320Y-135406586D02*
X167901939Y-135216110D01*
X167901939Y-135216110D02*
X167901939Y-135073253D01*
X167901939Y-135073253D02*
X167854320Y-134882777D01*
X167854320Y-134882777D02*
X167806701Y-134787539D01*
X167806701Y-134787539D02*
X167711463Y-134692301D01*
X167711463Y-134692301D02*
X167568606Y-134644682D01*
X167568606Y-134644682D02*
X167473368Y-134644682D01*
X167473368Y-134644682D02*
X167330511Y-134692301D01*
X167330511Y-134692301D02*
X167282892Y-134739920D01*
X166330511Y-135644682D02*
X166901939Y-135644682D01*
X166616225Y-135644682D02*
X166616225Y-134644682D01*
X166616225Y-134644682D02*
X166711463Y-134787539D01*
X166711463Y-134787539D02*
X166806701Y-134882777D01*
X166806701Y-134882777D02*
X166901939Y-134930396D01*
X165997177Y-134644682D02*
X165330511Y-134644682D01*
X165330511Y-134644682D02*
X165759082Y-135644682D01*
X187468231Y-120704623D02*
X186992040Y-120371290D01*
X187468231Y-120133195D02*
X186468231Y-120133195D01*
X186468231Y-120133195D02*
X186468231Y-120514147D01*
X186468231Y-120514147D02*
X186515850Y-120609385D01*
X186515850Y-120609385D02*
X186563469Y-120657004D01*
X186563469Y-120657004D02*
X186658707Y-120704623D01*
X186658707Y-120704623D02*
X186801564Y-120704623D01*
X186801564Y-120704623D02*
X186896802Y-120657004D01*
X186896802Y-120657004D02*
X186944421Y-120609385D01*
X186944421Y-120609385D02*
X186992040Y-120514147D01*
X186992040Y-120514147D02*
X186992040Y-120133195D01*
X186563469Y-121085576D02*
X186515850Y-121133195D01*
X186515850Y-121133195D02*
X186468231Y-121228433D01*
X186468231Y-121228433D02*
X186468231Y-121466528D01*
X186468231Y-121466528D02*
X186515850Y-121561766D01*
X186515850Y-121561766D02*
X186563469Y-121609385D01*
X186563469Y-121609385D02*
X186658707Y-121657004D01*
X186658707Y-121657004D02*
X186753945Y-121657004D01*
X186753945Y-121657004D02*
X186896802Y-121609385D01*
X186896802Y-121609385D02*
X187468231Y-121037957D01*
X187468231Y-121037957D02*
X187468231Y-121657004D01*
X186563469Y-122037957D02*
X186515850Y-122085576D01*
X186515850Y-122085576D02*
X186468231Y-122180814D01*
X186468231Y-122180814D02*
X186468231Y-122418909D01*
X186468231Y-122418909D02*
X186515850Y-122514147D01*
X186515850Y-122514147D02*
X186563469Y-122561766D01*
X186563469Y-122561766D02*
X186658707Y-122609385D01*
X186658707Y-122609385D02*
X186753945Y-122609385D01*
X186753945Y-122609385D02*
X186896802Y-122561766D01*
X186896802Y-122561766D02*
X187468231Y-121990338D01*
X187468231Y-121990338D02*
X187468231Y-122609385D01*
X163232892Y-125149443D02*
X163280511Y-125197063D01*
X163280511Y-125197063D02*
X163423368Y-125244682D01*
X163423368Y-125244682D02*
X163518606Y-125244682D01*
X163518606Y-125244682D02*
X163661463Y-125197063D01*
X163661463Y-125197063D02*
X163756701Y-125101824D01*
X163756701Y-125101824D02*
X163804320Y-125006586D01*
X163804320Y-125006586D02*
X163851939Y-124816110D01*
X163851939Y-124816110D02*
X163851939Y-124673253D01*
X163851939Y-124673253D02*
X163804320Y-124482777D01*
X163804320Y-124482777D02*
X163756701Y-124387539D01*
X163756701Y-124387539D02*
X163661463Y-124292301D01*
X163661463Y-124292301D02*
X163518606Y-124244682D01*
X163518606Y-124244682D02*
X163423368Y-124244682D01*
X163423368Y-124244682D02*
X163280511Y-124292301D01*
X163280511Y-124292301D02*
X163232892Y-124339920D01*
X162280511Y-125244682D02*
X162851939Y-125244682D01*
X162566225Y-125244682D02*
X162566225Y-124244682D01*
X162566225Y-124244682D02*
X162661463Y-124387539D01*
X162661463Y-124387539D02*
X162756701Y-124482777D01*
X162756701Y-124482777D02*
X162851939Y-124530396D01*
X161899558Y-124339920D02*
X161851939Y-124292301D01*
X161851939Y-124292301D02*
X161756701Y-124244682D01*
X161756701Y-124244682D02*
X161518606Y-124244682D01*
X161518606Y-124244682D02*
X161423368Y-124292301D01*
X161423368Y-124292301D02*
X161375749Y-124339920D01*
X161375749Y-124339920D02*
X161328130Y-124435158D01*
X161328130Y-124435158D02*
X161328130Y-124530396D01*
X161328130Y-124530396D02*
X161375749Y-124673253D01*
X161375749Y-124673253D02*
X161947177Y-125244682D01*
X161947177Y-125244682D02*
X161328130Y-125244682D01*
X137209542Y-59338840D02*
X137161923Y-59291221D01*
X137161923Y-59291221D02*
X137066685Y-59243602D01*
X137066685Y-59243602D02*
X136828590Y-59243602D01*
X136828590Y-59243602D02*
X136733352Y-59291221D01*
X136733352Y-59291221D02*
X136685733Y-59338840D01*
X136685733Y-59338840D02*
X136638114Y-59434078D01*
X136638114Y-59434078D02*
X136638114Y-59529316D01*
X136638114Y-59529316D02*
X136685733Y-59672173D01*
X136685733Y-59672173D02*
X137257161Y-60243602D01*
X137257161Y-60243602D02*
X136638114Y-60243602D01*
X136304780Y-59243602D02*
X135638114Y-59243602D01*
X135638114Y-59243602D02*
X136066685Y-60243602D01*
X184128095Y-116522142D02*
X183651904Y-116188809D01*
X184128095Y-115950714D02*
X183128095Y-115950714D01*
X183128095Y-115950714D02*
X183128095Y-116331666D01*
X183128095Y-116331666D02*
X183175714Y-116426904D01*
X183175714Y-116426904D02*
X183223333Y-116474523D01*
X183223333Y-116474523D02*
X183318571Y-116522142D01*
X183318571Y-116522142D02*
X183461428Y-116522142D01*
X183461428Y-116522142D02*
X183556666Y-116474523D01*
X183556666Y-116474523D02*
X183604285Y-116426904D01*
X183604285Y-116426904D02*
X183651904Y-116331666D01*
X183651904Y-116331666D02*
X183651904Y-115950714D01*
X184128095Y-117474523D02*
X184128095Y-116903095D01*
X184128095Y-117188809D02*
X183128095Y-117188809D01*
X183128095Y-117188809D02*
X183270952Y-117093571D01*
X183270952Y-117093571D02*
X183366190Y-116998333D01*
X183366190Y-116998333D02*
X183413809Y-116903095D01*
X183128095Y-117807857D02*
X183128095Y-118474523D01*
X183128095Y-118474523D02*
X184128095Y-118045952D01*
X181605713Y-89514819D02*
X180986666Y-89514819D01*
X180986666Y-89514819D02*
X181319999Y-89895771D01*
X181319999Y-89895771D02*
X181177142Y-89895771D01*
X181177142Y-89895771D02*
X181081904Y-89943390D01*
X181081904Y-89943390D02*
X181034285Y-89991009D01*
X181034285Y-89991009D02*
X180986666Y-90086247D01*
X180986666Y-90086247D02*
X180986666Y-90324342D01*
X180986666Y-90324342D02*
X181034285Y-90419580D01*
X181034285Y-90419580D02*
X181081904Y-90467200D01*
X181081904Y-90467200D02*
X181177142Y-90514819D01*
X181177142Y-90514819D02*
X181462856Y-90514819D01*
X181462856Y-90514819D02*
X181558094Y-90467200D01*
X181558094Y-90467200D02*
X181605713Y-90419580D01*
X180129523Y-89848152D02*
X180129523Y-90514819D01*
X180367618Y-89467200D02*
X180605713Y-90181485D01*
X180605713Y-90181485D02*
X179986666Y-90181485D01*
X179415237Y-89514819D02*
X179319999Y-89514819D01*
X179319999Y-89514819D02*
X179224761Y-89562438D01*
X179224761Y-89562438D02*
X179177142Y-89610057D01*
X179177142Y-89610057D02*
X179129523Y-89705295D01*
X179129523Y-89705295D02*
X179081904Y-89895771D01*
X179081904Y-89895771D02*
X179081904Y-90133866D01*
X179081904Y-90133866D02*
X179129523Y-90324342D01*
X179129523Y-90324342D02*
X179177142Y-90419580D01*
X179177142Y-90419580D02*
X179224761Y-90467200D01*
X179224761Y-90467200D02*
X179319999Y-90514819D01*
X179319999Y-90514819D02*
X179415237Y-90514819D01*
X179415237Y-90514819D02*
X179510475Y-90467200D01*
X179510475Y-90467200D02*
X179558094Y-90419580D01*
X179558094Y-90419580D02*
X179605713Y-90324342D01*
X179605713Y-90324342D02*
X179653332Y-90133866D01*
X179653332Y-90133866D02*
X179653332Y-89895771D01*
X179653332Y-89895771D02*
X179605713Y-89705295D01*
X179605713Y-89705295D02*
X179558094Y-89610057D01*
X179558094Y-89610057D02*
X179510475Y-89562438D01*
X179510475Y-89562438D02*
X179415237Y-89514819D01*
X190944819Y-120007142D02*
X190468628Y-119673809D01*
X190944819Y-119435714D02*
X189944819Y-119435714D01*
X189944819Y-119435714D02*
X189944819Y-119816666D01*
X189944819Y-119816666D02*
X189992438Y-119911904D01*
X189992438Y-119911904D02*
X190040057Y-119959523D01*
X190040057Y-119959523D02*
X190135295Y-120007142D01*
X190135295Y-120007142D02*
X190278152Y-120007142D01*
X190278152Y-120007142D02*
X190373390Y-119959523D01*
X190373390Y-119959523D02*
X190421009Y-119911904D01*
X190421009Y-119911904D02*
X190468628Y-119816666D01*
X190468628Y-119816666D02*
X190468628Y-119435714D01*
X190040057Y-120388095D02*
X189992438Y-120435714D01*
X189992438Y-120435714D02*
X189944819Y-120530952D01*
X189944819Y-120530952D02*
X189944819Y-120769047D01*
X189944819Y-120769047D02*
X189992438Y-120864285D01*
X189992438Y-120864285D02*
X190040057Y-120911904D01*
X190040057Y-120911904D02*
X190135295Y-120959523D01*
X190135295Y-120959523D02*
X190230533Y-120959523D01*
X190230533Y-120959523D02*
X190373390Y-120911904D01*
X190373390Y-120911904D02*
X190944819Y-120340476D01*
X190944819Y-120340476D02*
X190944819Y-120959523D01*
X190944819Y-121911904D02*
X190944819Y-121340476D01*
X190944819Y-121626190D02*
X189944819Y-121626190D01*
X189944819Y-121626190D02*
X190087676Y-121530952D01*
X190087676Y-121530952D02*
X190182914Y-121435714D01*
X190182914Y-121435714D02*
X190230533Y-121340476D01*
X181605713Y-87224819D02*
X180986666Y-87224819D01*
X180986666Y-87224819D02*
X181319999Y-87605771D01*
X181319999Y-87605771D02*
X181177142Y-87605771D01*
X181177142Y-87605771D02*
X181081904Y-87653390D01*
X181081904Y-87653390D02*
X181034285Y-87701009D01*
X181034285Y-87701009D02*
X180986666Y-87796247D01*
X180986666Y-87796247D02*
X180986666Y-88034342D01*
X180986666Y-88034342D02*
X181034285Y-88129580D01*
X181034285Y-88129580D02*
X181081904Y-88177200D01*
X181081904Y-88177200D02*
X181177142Y-88224819D01*
X181177142Y-88224819D02*
X181462856Y-88224819D01*
X181462856Y-88224819D02*
X181558094Y-88177200D01*
X181558094Y-88177200D02*
X181605713Y-88129580D01*
X180129523Y-87558152D02*
X180129523Y-88224819D01*
X180367618Y-87177200D02*
X180605713Y-87891485D01*
X180605713Y-87891485D02*
X179986666Y-87891485D01*
X179415237Y-87224819D02*
X179319999Y-87224819D01*
X179319999Y-87224819D02*
X179224761Y-87272438D01*
X179224761Y-87272438D02*
X179177142Y-87320057D01*
X179177142Y-87320057D02*
X179129523Y-87415295D01*
X179129523Y-87415295D02*
X179081904Y-87605771D01*
X179081904Y-87605771D02*
X179081904Y-87843866D01*
X179081904Y-87843866D02*
X179129523Y-88034342D01*
X179129523Y-88034342D02*
X179177142Y-88129580D01*
X179177142Y-88129580D02*
X179224761Y-88177200D01*
X179224761Y-88177200D02*
X179319999Y-88224819D01*
X179319999Y-88224819D02*
X179415237Y-88224819D01*
X179415237Y-88224819D02*
X179510475Y-88177200D01*
X179510475Y-88177200D02*
X179558094Y-88129580D01*
X179558094Y-88129580D02*
X179605713Y-88034342D01*
X179605713Y-88034342D02*
X179653332Y-87843866D01*
X179653332Y-87843866D02*
X179653332Y-87605771D01*
X179653332Y-87605771D02*
X179605713Y-87415295D01*
X179605713Y-87415295D02*
X179558094Y-87320057D01*
X179558094Y-87320057D02*
X179510475Y-87272438D01*
X179510475Y-87272438D02*
X179415237Y-87224819D01*
X161077939Y-144165515D02*
X161077939Y-144832182D01*
X161316034Y-143784563D02*
X161554129Y-144498848D01*
X161554129Y-144498848D02*
X160935082Y-144498848D01*
X160554129Y-144736943D02*
X160506510Y-144784563D01*
X160506510Y-144784563D02*
X160554129Y-144832182D01*
X160554129Y-144832182D02*
X160601748Y-144784563D01*
X160601748Y-144784563D02*
X160554129Y-144736943D01*
X160554129Y-144736943D02*
X160554129Y-144832182D01*
X160173177Y-143832182D02*
X159506511Y-143832182D01*
X159506511Y-143832182D02*
X159935082Y-144832182D01*
X158696987Y-144165515D02*
X158696987Y-144832182D01*
X159125558Y-144165515D02*
X159125558Y-144689324D01*
X159125558Y-144689324D02*
X159077939Y-144784563D01*
X159077939Y-144784563D02*
X158982701Y-144832182D01*
X158982701Y-144832182D02*
X158839844Y-144832182D01*
X158839844Y-144832182D02*
X158744606Y-144784563D01*
X158744606Y-144784563D02*
X158696987Y-144736943D01*
X158363653Y-144165515D02*
X157982701Y-144165515D01*
X158220796Y-144832182D02*
X158220796Y-143975039D01*
X158220796Y-143975039D02*
X158173177Y-143879801D01*
X158173177Y-143879801D02*
X158077939Y-143832182D01*
X158077939Y-143832182D02*
X157982701Y-143832182D01*
X162406701Y-129049443D02*
X162454320Y-129097063D01*
X162454320Y-129097063D02*
X162597177Y-129144682D01*
X162597177Y-129144682D02*
X162692415Y-129144682D01*
X162692415Y-129144682D02*
X162835272Y-129097063D01*
X162835272Y-129097063D02*
X162930510Y-129001824D01*
X162930510Y-129001824D02*
X162978129Y-128906586D01*
X162978129Y-128906586D02*
X163025748Y-128716110D01*
X163025748Y-128716110D02*
X163025748Y-128573253D01*
X163025748Y-128573253D02*
X162978129Y-128382777D01*
X162978129Y-128382777D02*
X162930510Y-128287539D01*
X162930510Y-128287539D02*
X162835272Y-128192301D01*
X162835272Y-128192301D02*
X162692415Y-128144682D01*
X162692415Y-128144682D02*
X162597177Y-128144682D01*
X162597177Y-128144682D02*
X162454320Y-128192301D01*
X162454320Y-128192301D02*
X162406701Y-128239920D01*
X161501939Y-128144682D02*
X161978129Y-128144682D01*
X161978129Y-128144682D02*
X162025748Y-128620872D01*
X162025748Y-128620872D02*
X161978129Y-128573253D01*
X161978129Y-128573253D02*
X161882891Y-128525634D01*
X161882891Y-128525634D02*
X161644796Y-128525634D01*
X161644796Y-128525634D02*
X161549558Y-128573253D01*
X161549558Y-128573253D02*
X161501939Y-128620872D01*
X161501939Y-128620872D02*
X161454320Y-128716110D01*
X161454320Y-128716110D02*
X161454320Y-128954205D01*
X161454320Y-128954205D02*
X161501939Y-129049443D01*
X161501939Y-129049443D02*
X161549558Y-129097063D01*
X161549558Y-129097063D02*
X161644796Y-129144682D01*
X161644796Y-129144682D02*
X161882891Y-129144682D01*
X161882891Y-129144682D02*
X161978129Y-129097063D01*
X161978129Y-129097063D02*
X162025748Y-129049443D01*
X170299615Y-130647005D02*
X170347235Y-130599386D01*
X170347235Y-130599386D02*
X170394854Y-130456529D01*
X170394854Y-130456529D02*
X170394854Y-130361291D01*
X170394854Y-130361291D02*
X170347235Y-130218434D01*
X170347235Y-130218434D02*
X170251996Y-130123196D01*
X170251996Y-130123196D02*
X170156758Y-130075577D01*
X170156758Y-130075577D02*
X169966282Y-130027958D01*
X169966282Y-130027958D02*
X169823425Y-130027958D01*
X169823425Y-130027958D02*
X169632949Y-130075577D01*
X169632949Y-130075577D02*
X169537711Y-130123196D01*
X169537711Y-130123196D02*
X169442473Y-130218434D01*
X169442473Y-130218434D02*
X169394854Y-130361291D01*
X169394854Y-130361291D02*
X169394854Y-130456529D01*
X169394854Y-130456529D02*
X169442473Y-130599386D01*
X169442473Y-130599386D02*
X169490092Y-130647005D01*
X170394854Y-131599386D02*
X170394854Y-131027958D01*
X170394854Y-131313672D02*
X169394854Y-131313672D01*
X169394854Y-131313672D02*
X169537711Y-131218434D01*
X169537711Y-131218434D02*
X169632949Y-131123196D01*
X169632949Y-131123196D02*
X169680568Y-131027958D01*
X169394854Y-132456529D02*
X169394854Y-132266053D01*
X169394854Y-132266053D02*
X169442473Y-132170815D01*
X169442473Y-132170815D02*
X169490092Y-132123196D01*
X169490092Y-132123196D02*
X169632949Y-132027958D01*
X169632949Y-132027958D02*
X169823425Y-131980339D01*
X169823425Y-131980339D02*
X170204377Y-131980339D01*
X170204377Y-131980339D02*
X170299615Y-132027958D01*
X170299615Y-132027958D02*
X170347235Y-132075577D01*
X170347235Y-132075577D02*
X170394854Y-132170815D01*
X170394854Y-132170815D02*
X170394854Y-132361291D01*
X170394854Y-132361291D02*
X170347235Y-132456529D01*
X170347235Y-132456529D02*
X170299615Y-132504148D01*
X170299615Y-132504148D02*
X170204377Y-132551767D01*
X170204377Y-132551767D02*
X169966282Y-132551767D01*
X169966282Y-132551767D02*
X169871044Y-132504148D01*
X169871044Y-132504148D02*
X169823425Y-132456529D01*
X169823425Y-132456529D02*
X169775806Y-132361291D01*
X169775806Y-132361291D02*
X169775806Y-132170815D01*
X169775806Y-132170815D02*
X169823425Y-132075577D01*
X169823425Y-132075577D02*
X169871044Y-132027958D01*
X169871044Y-132027958D02*
X169966282Y-131980339D01*
X159933892Y-138874443D02*
X159981511Y-138922063D01*
X159981511Y-138922063D02*
X160124368Y-138969682D01*
X160124368Y-138969682D02*
X160219606Y-138969682D01*
X160219606Y-138969682D02*
X160362463Y-138922063D01*
X160362463Y-138922063D02*
X160457701Y-138826824D01*
X160457701Y-138826824D02*
X160505320Y-138731586D01*
X160505320Y-138731586D02*
X160552939Y-138541110D01*
X160552939Y-138541110D02*
X160552939Y-138398253D01*
X160552939Y-138398253D02*
X160505320Y-138207777D01*
X160505320Y-138207777D02*
X160457701Y-138112539D01*
X160457701Y-138112539D02*
X160362463Y-138017301D01*
X160362463Y-138017301D02*
X160219606Y-137969682D01*
X160219606Y-137969682D02*
X160124368Y-137969682D01*
X160124368Y-137969682D02*
X159981511Y-138017301D01*
X159981511Y-138017301D02*
X159933892Y-138064920D01*
X158981511Y-138969682D02*
X159552939Y-138969682D01*
X159267225Y-138969682D02*
X159267225Y-137969682D01*
X159267225Y-137969682D02*
X159362463Y-138112539D01*
X159362463Y-138112539D02*
X159457701Y-138207777D01*
X159457701Y-138207777D02*
X159552939Y-138255396D01*
X158362463Y-137969682D02*
X158267225Y-137969682D01*
X158267225Y-137969682D02*
X158171987Y-138017301D01*
X158171987Y-138017301D02*
X158124368Y-138064920D01*
X158124368Y-138064920D02*
X158076749Y-138160158D01*
X158076749Y-138160158D02*
X158029130Y-138350634D01*
X158029130Y-138350634D02*
X158029130Y-138588729D01*
X158029130Y-138588729D02*
X158076749Y-138779205D01*
X158076749Y-138779205D02*
X158124368Y-138874443D01*
X158124368Y-138874443D02*
X158171987Y-138922063D01*
X158171987Y-138922063D02*
X158267225Y-138969682D01*
X158267225Y-138969682D02*
X158362463Y-138969682D01*
X158362463Y-138969682D02*
X158457701Y-138922063D01*
X158457701Y-138922063D02*
X158505320Y-138874443D01*
X158505320Y-138874443D02*
X158552939Y-138779205D01*
X158552939Y-138779205D02*
X158600558Y-138588729D01*
X158600558Y-138588729D02*
X158600558Y-138350634D01*
X158600558Y-138350634D02*
X158552939Y-138160158D01*
X158552939Y-138160158D02*
X158505320Y-138064920D01*
X158505320Y-138064920D02*
X158457701Y-138017301D01*
X158457701Y-138017301D02*
X158362463Y-137969682D01*
X162627939Y-140728015D02*
X162627939Y-141394682D01*
X162866034Y-140347063D02*
X163104129Y-141061348D01*
X163104129Y-141061348D02*
X162485082Y-141061348D01*
X162104129Y-141299443D02*
X162056510Y-141347063D01*
X162056510Y-141347063D02*
X162104129Y-141394682D01*
X162104129Y-141394682D02*
X162151748Y-141347063D01*
X162151748Y-141347063D02*
X162104129Y-141299443D01*
X162104129Y-141299443D02*
X162104129Y-141394682D01*
X161723177Y-140394682D02*
X161056511Y-140394682D01*
X161056511Y-140394682D02*
X161485082Y-141394682D01*
X160246987Y-140728015D02*
X160246987Y-141394682D01*
X160675558Y-140728015D02*
X160675558Y-141251824D01*
X160675558Y-141251824D02*
X160627939Y-141347063D01*
X160627939Y-141347063D02*
X160532701Y-141394682D01*
X160532701Y-141394682D02*
X160389844Y-141394682D01*
X160389844Y-141394682D02*
X160294606Y-141347063D01*
X160294606Y-141347063D02*
X160246987Y-141299443D01*
X159913653Y-140728015D02*
X159532701Y-140728015D01*
X159770796Y-141394682D02*
X159770796Y-140537539D01*
X159770796Y-140537539D02*
X159723177Y-140442301D01*
X159723177Y-140442301D02*
X159627939Y-140394682D01*
X159627939Y-140394682D02*
X159532701Y-140394682D01*
X165556701Y-139699443D02*
X165604320Y-139747063D01*
X165604320Y-139747063D02*
X165747177Y-139794682D01*
X165747177Y-139794682D02*
X165842415Y-139794682D01*
X165842415Y-139794682D02*
X165985272Y-139747063D01*
X165985272Y-139747063D02*
X166080510Y-139651824D01*
X166080510Y-139651824D02*
X166128129Y-139556586D01*
X166128129Y-139556586D02*
X166175748Y-139366110D01*
X166175748Y-139366110D02*
X166175748Y-139223253D01*
X166175748Y-139223253D02*
X166128129Y-139032777D01*
X166128129Y-139032777D02*
X166080510Y-138937539D01*
X166080510Y-138937539D02*
X165985272Y-138842301D01*
X165985272Y-138842301D02*
X165842415Y-138794682D01*
X165842415Y-138794682D02*
X165747177Y-138794682D01*
X165747177Y-138794682D02*
X165604320Y-138842301D01*
X165604320Y-138842301D02*
X165556701Y-138889920D01*
X164985272Y-139223253D02*
X165080510Y-139175634D01*
X165080510Y-139175634D02*
X165128129Y-139128015D01*
X165128129Y-139128015D02*
X165175748Y-139032777D01*
X165175748Y-139032777D02*
X165175748Y-138985158D01*
X165175748Y-138985158D02*
X165128129Y-138889920D01*
X165128129Y-138889920D02*
X165080510Y-138842301D01*
X165080510Y-138842301D02*
X164985272Y-138794682D01*
X164985272Y-138794682D02*
X164794796Y-138794682D01*
X164794796Y-138794682D02*
X164699558Y-138842301D01*
X164699558Y-138842301D02*
X164651939Y-138889920D01*
X164651939Y-138889920D02*
X164604320Y-138985158D01*
X164604320Y-138985158D02*
X164604320Y-139032777D01*
X164604320Y-139032777D02*
X164651939Y-139128015D01*
X164651939Y-139128015D02*
X164699558Y-139175634D01*
X164699558Y-139175634D02*
X164794796Y-139223253D01*
X164794796Y-139223253D02*
X164985272Y-139223253D01*
X164985272Y-139223253D02*
X165080510Y-139270872D01*
X165080510Y-139270872D02*
X165128129Y-139318491D01*
X165128129Y-139318491D02*
X165175748Y-139413729D01*
X165175748Y-139413729D02*
X165175748Y-139604205D01*
X165175748Y-139604205D02*
X165128129Y-139699443D01*
X165128129Y-139699443D02*
X165080510Y-139747063D01*
X165080510Y-139747063D02*
X164985272Y-139794682D01*
X164985272Y-139794682D02*
X164794796Y-139794682D01*
X164794796Y-139794682D02*
X164699558Y-139747063D01*
X164699558Y-139747063D02*
X164651939Y-139699443D01*
X164651939Y-139699443D02*
X164604320Y-139604205D01*
X164604320Y-139604205D02*
X164604320Y-139413729D01*
X164604320Y-139413729D02*
X164651939Y-139318491D01*
X164651939Y-139318491D02*
X164699558Y-139270872D01*
X164699558Y-139270872D02*
X164794796Y-139223253D01*
X161430615Y-130093196D02*
X161478235Y-130045577D01*
X161478235Y-130045577D02*
X161525854Y-129902720D01*
X161525854Y-129902720D02*
X161525854Y-129807482D01*
X161525854Y-129807482D02*
X161478235Y-129664625D01*
X161478235Y-129664625D02*
X161382996Y-129569387D01*
X161382996Y-129569387D02*
X161287758Y-129521768D01*
X161287758Y-129521768D02*
X161097282Y-129474149D01*
X161097282Y-129474149D02*
X160954425Y-129474149D01*
X160954425Y-129474149D02*
X160763949Y-129521768D01*
X160763949Y-129521768D02*
X160668711Y-129569387D01*
X160668711Y-129569387D02*
X160573473Y-129664625D01*
X160573473Y-129664625D02*
X160525854Y-129807482D01*
X160525854Y-129807482D02*
X160525854Y-129902720D01*
X160525854Y-129902720D02*
X160573473Y-130045577D01*
X160573473Y-130045577D02*
X160621092Y-130093196D01*
X160525854Y-130426530D02*
X160525854Y-131045577D01*
X160525854Y-131045577D02*
X160906806Y-130712244D01*
X160906806Y-130712244D02*
X160906806Y-130855101D01*
X160906806Y-130855101D02*
X160954425Y-130950339D01*
X160954425Y-130950339D02*
X161002044Y-130997958D01*
X161002044Y-130997958D02*
X161097282Y-131045577D01*
X161097282Y-131045577D02*
X161335377Y-131045577D01*
X161335377Y-131045577D02*
X161430615Y-130997958D01*
X161430615Y-130997958D02*
X161478235Y-130950339D01*
X161478235Y-130950339D02*
X161525854Y-130855101D01*
X161525854Y-130855101D02*
X161525854Y-130569387D01*
X161525854Y-130569387D02*
X161478235Y-130474149D01*
X161478235Y-130474149D02*
X161430615Y-130426530D01*
X134429580Y-140242142D02*
X134477200Y-140194523D01*
X134477200Y-140194523D02*
X134524819Y-140051666D01*
X134524819Y-140051666D02*
X134524819Y-139956428D01*
X134524819Y-139956428D02*
X134477200Y-139813571D01*
X134477200Y-139813571D02*
X134381961Y-139718333D01*
X134381961Y-139718333D02*
X134286723Y-139670714D01*
X134286723Y-139670714D02*
X134096247Y-139623095D01*
X134096247Y-139623095D02*
X133953390Y-139623095D01*
X133953390Y-139623095D02*
X133762914Y-139670714D01*
X133762914Y-139670714D02*
X133667676Y-139718333D01*
X133667676Y-139718333D02*
X133572438Y-139813571D01*
X133572438Y-139813571D02*
X133524819Y-139956428D01*
X133524819Y-139956428D02*
X133524819Y-140051666D01*
X133524819Y-140051666D02*
X133572438Y-140194523D01*
X133572438Y-140194523D02*
X133620057Y-140242142D01*
X133524819Y-140575476D02*
X133524819Y-141194523D01*
X133524819Y-141194523D02*
X133905771Y-140861190D01*
X133905771Y-140861190D02*
X133905771Y-141004047D01*
X133905771Y-141004047D02*
X133953390Y-141099285D01*
X133953390Y-141099285D02*
X134001009Y-141146904D01*
X134001009Y-141146904D02*
X134096247Y-141194523D01*
X134096247Y-141194523D02*
X134334342Y-141194523D01*
X134334342Y-141194523D02*
X134429580Y-141146904D01*
X134429580Y-141146904D02*
X134477200Y-141099285D01*
X134477200Y-141099285D02*
X134524819Y-141004047D01*
X134524819Y-141004047D02*
X134524819Y-140718333D01*
X134524819Y-140718333D02*
X134477200Y-140623095D01*
X134477200Y-140623095D02*
X134429580Y-140575476D01*
X133620057Y-141575476D02*
X133572438Y-141623095D01*
X133572438Y-141623095D02*
X133524819Y-141718333D01*
X133524819Y-141718333D02*
X133524819Y-141956428D01*
X133524819Y-141956428D02*
X133572438Y-142051666D01*
X133572438Y-142051666D02*
X133620057Y-142099285D01*
X133620057Y-142099285D02*
X133715295Y-142146904D01*
X133715295Y-142146904D02*
X133810533Y-142146904D01*
X133810533Y-142146904D02*
X133953390Y-142099285D01*
X133953390Y-142099285D02*
X134524819Y-141527857D01*
X134524819Y-141527857D02*
X134524819Y-142146904D01*
X157545854Y-133847005D02*
X157069663Y-133513672D01*
X157545854Y-133275577D02*
X156545854Y-133275577D01*
X156545854Y-133275577D02*
X156545854Y-133656529D01*
X156545854Y-133656529D02*
X156593473Y-133751767D01*
X156593473Y-133751767D02*
X156641092Y-133799386D01*
X156641092Y-133799386D02*
X156736330Y-133847005D01*
X156736330Y-133847005D02*
X156879187Y-133847005D01*
X156879187Y-133847005D02*
X156974425Y-133799386D01*
X156974425Y-133799386D02*
X157022044Y-133751767D01*
X157022044Y-133751767D02*
X157069663Y-133656529D01*
X157069663Y-133656529D02*
X157069663Y-133275577D01*
X157545854Y-134799386D02*
X157545854Y-134227958D01*
X157545854Y-134513672D02*
X156545854Y-134513672D01*
X156545854Y-134513672D02*
X156688711Y-134418434D01*
X156688711Y-134418434D02*
X156783949Y-134323196D01*
X156783949Y-134323196D02*
X156831568Y-134227958D01*
X156545854Y-135656529D02*
X156545854Y-135466053D01*
X156545854Y-135466053D02*
X156593473Y-135370815D01*
X156593473Y-135370815D02*
X156641092Y-135323196D01*
X156641092Y-135323196D02*
X156783949Y-135227958D01*
X156783949Y-135227958D02*
X156974425Y-135180339D01*
X156974425Y-135180339D02*
X157355377Y-135180339D01*
X157355377Y-135180339D02*
X157450615Y-135227958D01*
X157450615Y-135227958D02*
X157498235Y-135275577D01*
X157498235Y-135275577D02*
X157545854Y-135370815D01*
X157545854Y-135370815D02*
X157545854Y-135561291D01*
X157545854Y-135561291D02*
X157498235Y-135656529D01*
X157498235Y-135656529D02*
X157450615Y-135704148D01*
X157450615Y-135704148D02*
X157355377Y-135751767D01*
X157355377Y-135751767D02*
X157117282Y-135751767D01*
X157117282Y-135751767D02*
X157022044Y-135704148D01*
X157022044Y-135704148D02*
X156974425Y-135656529D01*
X156974425Y-135656529D02*
X156926806Y-135561291D01*
X156926806Y-135561291D02*
X156926806Y-135370815D01*
X156926806Y-135370815D02*
X156974425Y-135275577D01*
X156974425Y-135275577D02*
X157022044Y-135227958D01*
X157022044Y-135227958D02*
X157117282Y-135180339D01*
X169244854Y-139523196D02*
X168768663Y-139189863D01*
X169244854Y-138951768D02*
X168244854Y-138951768D01*
X168244854Y-138951768D02*
X168244854Y-139332720D01*
X168244854Y-139332720D02*
X168292473Y-139427958D01*
X168292473Y-139427958D02*
X168340092Y-139475577D01*
X168340092Y-139475577D02*
X168435330Y-139523196D01*
X168435330Y-139523196D02*
X168578187Y-139523196D01*
X168578187Y-139523196D02*
X168673425Y-139475577D01*
X168673425Y-139475577D02*
X168721044Y-139427958D01*
X168721044Y-139427958D02*
X168768663Y-139332720D01*
X168768663Y-139332720D02*
X168768663Y-138951768D01*
X168244854Y-139856530D02*
X168244854Y-140523196D01*
X168244854Y-140523196D02*
X169244854Y-140094625D01*
X165806701Y-125149443D02*
X165854320Y-125197063D01*
X165854320Y-125197063D02*
X165997177Y-125244682D01*
X165997177Y-125244682D02*
X166092415Y-125244682D01*
X166092415Y-125244682D02*
X166235272Y-125197063D01*
X166235272Y-125197063D02*
X166330510Y-125101824D01*
X166330510Y-125101824D02*
X166378129Y-125006586D01*
X166378129Y-125006586D02*
X166425748Y-124816110D01*
X166425748Y-124816110D02*
X166425748Y-124673253D01*
X166425748Y-124673253D02*
X166378129Y-124482777D01*
X166378129Y-124482777D02*
X166330510Y-124387539D01*
X166330510Y-124387539D02*
X166235272Y-124292301D01*
X166235272Y-124292301D02*
X166092415Y-124244682D01*
X166092415Y-124244682D02*
X165997177Y-124244682D01*
X165997177Y-124244682D02*
X165854320Y-124292301D01*
X165854320Y-124292301D02*
X165806701Y-124339920D01*
X165473367Y-124244682D02*
X164806701Y-124244682D01*
X164806701Y-124244682D02*
X165235272Y-125244682D01*
X186069580Y-113822142D02*
X186117200Y-113774523D01*
X186117200Y-113774523D02*
X186164819Y-113631666D01*
X186164819Y-113631666D02*
X186164819Y-113536428D01*
X186164819Y-113536428D02*
X186117200Y-113393571D01*
X186117200Y-113393571D02*
X186021961Y-113298333D01*
X186021961Y-113298333D02*
X185926723Y-113250714D01*
X185926723Y-113250714D02*
X185736247Y-113203095D01*
X185736247Y-113203095D02*
X185593390Y-113203095D01*
X185593390Y-113203095D02*
X185402914Y-113250714D01*
X185402914Y-113250714D02*
X185307676Y-113298333D01*
X185307676Y-113298333D02*
X185212438Y-113393571D01*
X185212438Y-113393571D02*
X185164819Y-113536428D01*
X185164819Y-113536428D02*
X185164819Y-113631666D01*
X185164819Y-113631666D02*
X185212438Y-113774523D01*
X185212438Y-113774523D02*
X185260057Y-113822142D01*
X185260057Y-114203095D02*
X185212438Y-114250714D01*
X185212438Y-114250714D02*
X185164819Y-114345952D01*
X185164819Y-114345952D02*
X185164819Y-114584047D01*
X185164819Y-114584047D02*
X185212438Y-114679285D01*
X185212438Y-114679285D02*
X185260057Y-114726904D01*
X185260057Y-114726904D02*
X185355295Y-114774523D01*
X185355295Y-114774523D02*
X185450533Y-114774523D01*
X185450533Y-114774523D02*
X185593390Y-114726904D01*
X185593390Y-114726904D02*
X186164819Y-114155476D01*
X186164819Y-114155476D02*
X186164819Y-114774523D01*
X186164819Y-115726904D02*
X186164819Y-115155476D01*
X186164819Y-115441190D02*
X185164819Y-115441190D01*
X185164819Y-115441190D02*
X185307676Y-115345952D01*
X185307676Y-115345952D02*
X185402914Y-115250714D01*
X185402914Y-115250714D02*
X185450533Y-115155476D01*
X190769580Y-114422142D02*
X190817200Y-114374523D01*
X190817200Y-114374523D02*
X190864819Y-114231666D01*
X190864819Y-114231666D02*
X190864819Y-114136428D01*
X190864819Y-114136428D02*
X190817200Y-113993571D01*
X190817200Y-113993571D02*
X190721961Y-113898333D01*
X190721961Y-113898333D02*
X190626723Y-113850714D01*
X190626723Y-113850714D02*
X190436247Y-113803095D01*
X190436247Y-113803095D02*
X190293390Y-113803095D01*
X190293390Y-113803095D02*
X190102914Y-113850714D01*
X190102914Y-113850714D02*
X190007676Y-113898333D01*
X190007676Y-113898333D02*
X189912438Y-113993571D01*
X189912438Y-113993571D02*
X189864819Y-114136428D01*
X189864819Y-114136428D02*
X189864819Y-114231666D01*
X189864819Y-114231666D02*
X189912438Y-114374523D01*
X189912438Y-114374523D02*
X189960057Y-114422142D01*
X189960057Y-114803095D02*
X189912438Y-114850714D01*
X189912438Y-114850714D02*
X189864819Y-114945952D01*
X189864819Y-114945952D02*
X189864819Y-115184047D01*
X189864819Y-115184047D02*
X189912438Y-115279285D01*
X189912438Y-115279285D02*
X189960057Y-115326904D01*
X189960057Y-115326904D02*
X190055295Y-115374523D01*
X190055295Y-115374523D02*
X190150533Y-115374523D01*
X190150533Y-115374523D02*
X190293390Y-115326904D01*
X190293390Y-115326904D02*
X190864819Y-114755476D01*
X190864819Y-114755476D02*
X190864819Y-115374523D01*
X189864819Y-115993571D02*
X189864819Y-116088809D01*
X189864819Y-116088809D02*
X189912438Y-116184047D01*
X189912438Y-116184047D02*
X189960057Y-116231666D01*
X189960057Y-116231666D02*
X190055295Y-116279285D01*
X190055295Y-116279285D02*
X190245771Y-116326904D01*
X190245771Y-116326904D02*
X190483866Y-116326904D01*
X190483866Y-116326904D02*
X190674342Y-116279285D01*
X190674342Y-116279285D02*
X190769580Y-116231666D01*
X190769580Y-116231666D02*
X190817200Y-116184047D01*
X190817200Y-116184047D02*
X190864819Y-116088809D01*
X190864819Y-116088809D02*
X190864819Y-115993571D01*
X190864819Y-115993571D02*
X190817200Y-115898333D01*
X190817200Y-115898333D02*
X190769580Y-115850714D01*
X190769580Y-115850714D02*
X190674342Y-115803095D01*
X190674342Y-115803095D02*
X190483866Y-115755476D01*
X190483866Y-115755476D02*
X190245771Y-115755476D01*
X190245771Y-115755476D02*
X190055295Y-115803095D01*
X190055295Y-115803095D02*
X189960057Y-115850714D01*
X189960057Y-115850714D02*
X189912438Y-115898333D01*
X189912438Y-115898333D02*
X189864819Y-115993571D01*
X157449615Y-130797005D02*
X157497235Y-130749386D01*
X157497235Y-130749386D02*
X157544854Y-130606529D01*
X157544854Y-130606529D02*
X157544854Y-130511291D01*
X157544854Y-130511291D02*
X157497235Y-130368434D01*
X157497235Y-130368434D02*
X157401996Y-130273196D01*
X157401996Y-130273196D02*
X157306758Y-130225577D01*
X157306758Y-130225577D02*
X157116282Y-130177958D01*
X157116282Y-130177958D02*
X156973425Y-130177958D01*
X156973425Y-130177958D02*
X156782949Y-130225577D01*
X156782949Y-130225577D02*
X156687711Y-130273196D01*
X156687711Y-130273196D02*
X156592473Y-130368434D01*
X156592473Y-130368434D02*
X156544854Y-130511291D01*
X156544854Y-130511291D02*
X156544854Y-130606529D01*
X156544854Y-130606529D02*
X156592473Y-130749386D01*
X156592473Y-130749386D02*
X156640092Y-130797005D01*
X157544854Y-131749386D02*
X157544854Y-131177958D01*
X157544854Y-131463672D02*
X156544854Y-131463672D01*
X156544854Y-131463672D02*
X156687711Y-131368434D01*
X156687711Y-131368434D02*
X156782949Y-131273196D01*
X156782949Y-131273196D02*
X156830568Y-131177958D01*
X156544854Y-132082720D02*
X156544854Y-132701767D01*
X156544854Y-132701767D02*
X156925806Y-132368434D01*
X156925806Y-132368434D02*
X156925806Y-132511291D01*
X156925806Y-132511291D02*
X156973425Y-132606529D01*
X156973425Y-132606529D02*
X157021044Y-132654148D01*
X157021044Y-132654148D02*
X157116282Y-132701767D01*
X157116282Y-132701767D02*
X157354377Y-132701767D01*
X157354377Y-132701767D02*
X157449615Y-132654148D01*
X157449615Y-132654148D02*
X157497235Y-132606529D01*
X157497235Y-132606529D02*
X157544854Y-132511291D01*
X157544854Y-132511291D02*
X157544854Y-132225577D01*
X157544854Y-132225577D02*
X157497235Y-132130339D01*
X157497235Y-132130339D02*
X157449615Y-132082720D01*
X105050057Y-129738095D02*
X105002438Y-129785714D01*
X105002438Y-129785714D02*
X104954819Y-129880952D01*
X104954819Y-129880952D02*
X104954819Y-130119047D01*
X104954819Y-130119047D02*
X105002438Y-130214285D01*
X105002438Y-130214285D02*
X105050057Y-130261904D01*
X105050057Y-130261904D02*
X105145295Y-130309523D01*
X105145295Y-130309523D02*
X105240533Y-130309523D01*
X105240533Y-130309523D02*
X105383390Y-130261904D01*
X105383390Y-130261904D02*
X105954819Y-129690476D01*
X105954819Y-129690476D02*
X105954819Y-130309523D01*
X104954819Y-130642857D02*
X104954819Y-131309523D01*
X104954819Y-131309523D02*
X105954819Y-130880952D01*
X181605713Y-84934819D02*
X180986666Y-84934819D01*
X180986666Y-84934819D02*
X181319999Y-85315771D01*
X181319999Y-85315771D02*
X181177142Y-85315771D01*
X181177142Y-85315771D02*
X181081904Y-85363390D01*
X181081904Y-85363390D02*
X181034285Y-85411009D01*
X181034285Y-85411009D02*
X180986666Y-85506247D01*
X180986666Y-85506247D02*
X180986666Y-85744342D01*
X180986666Y-85744342D02*
X181034285Y-85839580D01*
X181034285Y-85839580D02*
X181081904Y-85887200D01*
X181081904Y-85887200D02*
X181177142Y-85934819D01*
X181177142Y-85934819D02*
X181462856Y-85934819D01*
X181462856Y-85934819D02*
X181558094Y-85887200D01*
X181558094Y-85887200D02*
X181605713Y-85839580D01*
X180129523Y-85268152D02*
X180129523Y-85934819D01*
X180367618Y-84887200D02*
X180605713Y-85601485D01*
X180605713Y-85601485D02*
X179986666Y-85601485D01*
X179415237Y-84934819D02*
X179319999Y-84934819D01*
X179319999Y-84934819D02*
X179224761Y-84982438D01*
X179224761Y-84982438D02*
X179177142Y-85030057D01*
X179177142Y-85030057D02*
X179129523Y-85125295D01*
X179129523Y-85125295D02*
X179081904Y-85315771D01*
X179081904Y-85315771D02*
X179081904Y-85553866D01*
X179081904Y-85553866D02*
X179129523Y-85744342D01*
X179129523Y-85744342D02*
X179177142Y-85839580D01*
X179177142Y-85839580D02*
X179224761Y-85887200D01*
X179224761Y-85887200D02*
X179319999Y-85934819D01*
X179319999Y-85934819D02*
X179415237Y-85934819D01*
X179415237Y-85934819D02*
X179510475Y-85887200D01*
X179510475Y-85887200D02*
X179558094Y-85839580D01*
X179558094Y-85839580D02*
X179605713Y-85744342D01*
X179605713Y-85744342D02*
X179653332Y-85553866D01*
X179653332Y-85553866D02*
X179653332Y-85315771D01*
X179653332Y-85315771D02*
X179605713Y-85125295D01*
X179605713Y-85125295D02*
X179558094Y-85030057D01*
X179558094Y-85030057D02*
X179510475Y-84982438D01*
X179510475Y-84982438D02*
X179415237Y-84934819D01*
X145141231Y-59377816D02*
X145093612Y-59330197D01*
X145093612Y-59330197D02*
X144998374Y-59282578D01*
X144998374Y-59282578D02*
X144760279Y-59282578D01*
X144760279Y-59282578D02*
X144665041Y-59330197D01*
X144665041Y-59330197D02*
X144617422Y-59377816D01*
X144617422Y-59377816D02*
X144569803Y-59473054D01*
X144569803Y-59473054D02*
X144569803Y-59568292D01*
X144569803Y-59568292D02*
X144617422Y-59711149D01*
X144617422Y-59711149D02*
X145188850Y-60282578D01*
X145188850Y-60282578D02*
X144569803Y-60282578D01*
X144236469Y-59282578D02*
X143569803Y-59282578D01*
X143569803Y-59282578D02*
X143998374Y-60282578D01*
X184093219Y-110860342D02*
X183617028Y-110527009D01*
X184093219Y-110288914D02*
X183093219Y-110288914D01*
X183093219Y-110288914D02*
X183093219Y-110669866D01*
X183093219Y-110669866D02*
X183140838Y-110765104D01*
X183140838Y-110765104D02*
X183188457Y-110812723D01*
X183188457Y-110812723D02*
X183283695Y-110860342D01*
X183283695Y-110860342D02*
X183426552Y-110860342D01*
X183426552Y-110860342D02*
X183521790Y-110812723D01*
X183521790Y-110812723D02*
X183569409Y-110765104D01*
X183569409Y-110765104D02*
X183617028Y-110669866D01*
X183617028Y-110669866D02*
X183617028Y-110288914D01*
X184093219Y-111812723D02*
X184093219Y-111241295D01*
X184093219Y-111527009D02*
X183093219Y-111527009D01*
X183093219Y-111527009D02*
X183236076Y-111431771D01*
X183236076Y-111431771D02*
X183331314Y-111336533D01*
X183331314Y-111336533D02*
X183378933Y-111241295D01*
X183521790Y-112384152D02*
X183474171Y-112288914D01*
X183474171Y-112288914D02*
X183426552Y-112241295D01*
X183426552Y-112241295D02*
X183331314Y-112193676D01*
X183331314Y-112193676D02*
X183283695Y-112193676D01*
X183283695Y-112193676D02*
X183188457Y-112241295D01*
X183188457Y-112241295D02*
X183140838Y-112288914D01*
X183140838Y-112288914D02*
X183093219Y-112384152D01*
X183093219Y-112384152D02*
X183093219Y-112574628D01*
X183093219Y-112574628D02*
X183140838Y-112669866D01*
X183140838Y-112669866D02*
X183188457Y-112717485D01*
X183188457Y-112717485D02*
X183283695Y-112765104D01*
X183283695Y-112765104D02*
X183331314Y-112765104D01*
X183331314Y-112765104D02*
X183426552Y-112717485D01*
X183426552Y-112717485D02*
X183474171Y-112669866D01*
X183474171Y-112669866D02*
X183521790Y-112574628D01*
X183521790Y-112574628D02*
X183521790Y-112384152D01*
X183521790Y-112384152D02*
X183569409Y-112288914D01*
X183569409Y-112288914D02*
X183617028Y-112241295D01*
X183617028Y-112241295D02*
X183712266Y-112193676D01*
X183712266Y-112193676D02*
X183902742Y-112193676D01*
X183902742Y-112193676D02*
X183997980Y-112241295D01*
X183997980Y-112241295D02*
X184045600Y-112288914D01*
X184045600Y-112288914D02*
X184093219Y-112384152D01*
X184093219Y-112384152D02*
X184093219Y-112574628D01*
X184093219Y-112574628D02*
X184045600Y-112669866D01*
X184045600Y-112669866D02*
X183997980Y-112717485D01*
X183997980Y-112717485D02*
X183902742Y-112765104D01*
X183902742Y-112765104D02*
X183712266Y-112765104D01*
X183712266Y-112765104D02*
X183617028Y-112717485D01*
X183617028Y-112717485D02*
X183569409Y-112669866D01*
X183569409Y-112669866D02*
X183521790Y-112574628D01*
X187515619Y-106522142D02*
X187039428Y-106188809D01*
X187515619Y-105950714D02*
X186515619Y-105950714D01*
X186515619Y-105950714D02*
X186515619Y-106331666D01*
X186515619Y-106331666D02*
X186563238Y-106426904D01*
X186563238Y-106426904D02*
X186610857Y-106474523D01*
X186610857Y-106474523D02*
X186706095Y-106522142D01*
X186706095Y-106522142D02*
X186848952Y-106522142D01*
X186848952Y-106522142D02*
X186944190Y-106474523D01*
X186944190Y-106474523D02*
X186991809Y-106426904D01*
X186991809Y-106426904D02*
X187039428Y-106331666D01*
X187039428Y-106331666D02*
X187039428Y-105950714D01*
X187515619Y-107474523D02*
X187515619Y-106903095D01*
X187515619Y-107188809D02*
X186515619Y-107188809D01*
X186515619Y-107188809D02*
X186658476Y-107093571D01*
X186658476Y-107093571D02*
X186753714Y-106998333D01*
X186753714Y-106998333D02*
X186801333Y-106903095D01*
X187515619Y-107950714D02*
X187515619Y-108141190D01*
X187515619Y-108141190D02*
X187468000Y-108236428D01*
X187468000Y-108236428D02*
X187420380Y-108284047D01*
X187420380Y-108284047D02*
X187277523Y-108379285D01*
X187277523Y-108379285D02*
X187087047Y-108426904D01*
X187087047Y-108426904D02*
X186706095Y-108426904D01*
X186706095Y-108426904D02*
X186610857Y-108379285D01*
X186610857Y-108379285D02*
X186563238Y-108331666D01*
X186563238Y-108331666D02*
X186515619Y-108236428D01*
X186515619Y-108236428D02*
X186515619Y-108045952D01*
X186515619Y-108045952D02*
X186563238Y-107950714D01*
X186563238Y-107950714D02*
X186610857Y-107903095D01*
X186610857Y-107903095D02*
X186706095Y-107855476D01*
X186706095Y-107855476D02*
X186944190Y-107855476D01*
X186944190Y-107855476D02*
X187039428Y-107903095D01*
X187039428Y-107903095D02*
X187087047Y-107950714D01*
X187087047Y-107950714D02*
X187134666Y-108045952D01*
X187134666Y-108045952D02*
X187134666Y-108236428D01*
X187134666Y-108236428D02*
X187087047Y-108331666D01*
X187087047Y-108331666D02*
X187039428Y-108379285D01*
X187039428Y-108379285D02*
X186944190Y-108426904D01*
X161906701Y-136949443D02*
X161954320Y-136997063D01*
X161954320Y-136997063D02*
X162097177Y-137044682D01*
X162097177Y-137044682D02*
X162192415Y-137044682D01*
X162192415Y-137044682D02*
X162335272Y-136997063D01*
X162335272Y-136997063D02*
X162430510Y-136901824D01*
X162430510Y-136901824D02*
X162478129Y-136806586D01*
X162478129Y-136806586D02*
X162525748Y-136616110D01*
X162525748Y-136616110D02*
X162525748Y-136473253D01*
X162525748Y-136473253D02*
X162478129Y-136282777D01*
X162478129Y-136282777D02*
X162430510Y-136187539D01*
X162430510Y-136187539D02*
X162335272Y-136092301D01*
X162335272Y-136092301D02*
X162192415Y-136044682D01*
X162192415Y-136044682D02*
X162097177Y-136044682D01*
X162097177Y-136044682D02*
X161954320Y-136092301D01*
X161954320Y-136092301D02*
X161906701Y-136139920D01*
X161049558Y-136378015D02*
X161049558Y-137044682D01*
X161287653Y-135997063D02*
X161525748Y-136711348D01*
X161525748Y-136711348D02*
X160906701Y-136711348D01*
X177900615Y-126272005D02*
X177948235Y-126224386D01*
X177948235Y-126224386D02*
X177995854Y-126081529D01*
X177995854Y-126081529D02*
X177995854Y-125986291D01*
X177995854Y-125986291D02*
X177948235Y-125843434D01*
X177948235Y-125843434D02*
X177852996Y-125748196D01*
X177852996Y-125748196D02*
X177757758Y-125700577D01*
X177757758Y-125700577D02*
X177567282Y-125652958D01*
X177567282Y-125652958D02*
X177424425Y-125652958D01*
X177424425Y-125652958D02*
X177233949Y-125700577D01*
X177233949Y-125700577D02*
X177138711Y-125748196D01*
X177138711Y-125748196D02*
X177043473Y-125843434D01*
X177043473Y-125843434D02*
X176995854Y-125986291D01*
X176995854Y-125986291D02*
X176995854Y-126081529D01*
X176995854Y-126081529D02*
X177043473Y-126224386D01*
X177043473Y-126224386D02*
X177091092Y-126272005D01*
X177995854Y-127224386D02*
X177995854Y-126652958D01*
X177995854Y-126938672D02*
X176995854Y-126938672D01*
X176995854Y-126938672D02*
X177138711Y-126843434D01*
X177138711Y-126843434D02*
X177233949Y-126748196D01*
X177233949Y-126748196D02*
X177281568Y-126652958D01*
X177995854Y-127700577D02*
X177995854Y-127891053D01*
X177995854Y-127891053D02*
X177948235Y-127986291D01*
X177948235Y-127986291D02*
X177900615Y-128033910D01*
X177900615Y-128033910D02*
X177757758Y-128129148D01*
X177757758Y-128129148D02*
X177567282Y-128176767D01*
X177567282Y-128176767D02*
X177186330Y-128176767D01*
X177186330Y-128176767D02*
X177091092Y-128129148D01*
X177091092Y-128129148D02*
X177043473Y-128081529D01*
X177043473Y-128081529D02*
X176995854Y-127986291D01*
X176995854Y-127986291D02*
X176995854Y-127795815D01*
X176995854Y-127795815D02*
X177043473Y-127700577D01*
X177043473Y-127700577D02*
X177091092Y-127652958D01*
X177091092Y-127652958D02*
X177186330Y-127605339D01*
X177186330Y-127605339D02*
X177424425Y-127605339D01*
X177424425Y-127605339D02*
X177519663Y-127652958D01*
X177519663Y-127652958D02*
X177567282Y-127700577D01*
X177567282Y-127700577D02*
X177614901Y-127795815D01*
X177614901Y-127795815D02*
X177614901Y-127986291D01*
X177614901Y-127986291D02*
X177567282Y-128081529D01*
X177567282Y-128081529D02*
X177519663Y-128129148D01*
X177519663Y-128129148D02*
X177424425Y-128176767D01*
X149116820Y-59377816D02*
X149069201Y-59330197D01*
X149069201Y-59330197D02*
X148973963Y-59282578D01*
X148973963Y-59282578D02*
X148735868Y-59282578D01*
X148735868Y-59282578D02*
X148640630Y-59330197D01*
X148640630Y-59330197D02*
X148593011Y-59377816D01*
X148593011Y-59377816D02*
X148545392Y-59473054D01*
X148545392Y-59473054D02*
X148545392Y-59568292D01*
X148545392Y-59568292D02*
X148593011Y-59711149D01*
X148593011Y-59711149D02*
X149164439Y-60282578D01*
X149164439Y-60282578D02*
X148545392Y-60282578D01*
X148212058Y-59282578D02*
X147545392Y-59282578D01*
X147545392Y-59282578D02*
X147973963Y-60282578D01*
D12*
X170580035Y-136005443D02*
X170580035Y-135724283D01*
X171600035Y-136005443D02*
X171600035Y-135724283D01*
X168230035Y-128174283D02*
X168230035Y-128455443D01*
X169250035Y-128174283D02*
X169250035Y-128455443D01*
X141762258Y-60637500D02*
X141287742Y-60637500D01*
X141762258Y-61682500D02*
X141287742Y-61682500D01*
X157930035Y-127774283D02*
X157930035Y-128055443D01*
X158950035Y-127774283D02*
X158950035Y-128055443D01*
X188490912Y-110402258D02*
X188490912Y-109927742D01*
X189535912Y-110402258D02*
X189535912Y-109927742D01*
X166424455Y-135929863D02*
X166705615Y-135929863D01*
X166424455Y-136949863D02*
X166705615Y-136949863D01*
X186487500Y-118177742D02*
X186487500Y-118652258D01*
X187532500Y-118177742D02*
X187532500Y-118652258D01*
X162780615Y-125629863D02*
X162499455Y-125629863D01*
X162780615Y-126649863D02*
X162499455Y-126649863D01*
X137802258Y-60637500D02*
X137327742Y-60637500D01*
X137802258Y-61682500D02*
X137327742Y-61682500D01*
X184487500Y-116927742D02*
X184487500Y-117402258D01*
X185532500Y-116927742D02*
X185532500Y-117402258D01*
X183732258Y-89537500D02*
X183257742Y-89537500D01*
X183732258Y-90582500D02*
X183257742Y-90582500D01*
X188490912Y-119277742D02*
X188490912Y-119752258D01*
X189535912Y-119277742D02*
X189535912Y-119752258D01*
X183732258Y-87247500D02*
X183257742Y-87247500D01*
X183732258Y-88292500D02*
X183257742Y-88292500D01*
X163175455Y-143817363D02*
X163456615Y-143817363D01*
X163175455Y-144837363D02*
X163456615Y-144837363D01*
X164855615Y-128079863D02*
X164574455Y-128079863D01*
X164855615Y-129099863D02*
X164574455Y-129099863D01*
X168230035Y-131174283D02*
X168230035Y-131455443D01*
X169250035Y-131174283D02*
X169250035Y-131455443D01*
X159355615Y-136554863D02*
X159074455Y-136554863D01*
X159355615Y-137574863D02*
X159074455Y-137574863D01*
X161624455Y-139067363D02*
X161905615Y-139067363D01*
X161624455Y-140087363D02*
X161905615Y-140087363D01*
X165155615Y-137429863D02*
X164874455Y-137429863D01*
X165155615Y-138449863D02*
X164874455Y-138449863D01*
X160480035Y-132805443D02*
X160480035Y-132524283D01*
X161500035Y-132805443D02*
X161500035Y-132524283D01*
X134990000Y-140744420D02*
X134990000Y-141025580D01*
X136010000Y-140744420D02*
X136010000Y-141025580D01*
X157917535Y-134702121D02*
X157917535Y-134227605D01*
X158962535Y-134702121D02*
X158962535Y-134227605D01*
X168317535Y-137027605D02*
X168317535Y-137502121D01*
X169362535Y-137027605D02*
X169362535Y-137502121D01*
X165474455Y-125629863D02*
X165755615Y-125629863D01*
X165474455Y-126649863D02*
X165755615Y-126649863D01*
X186500000Y-115205580D02*
X186500000Y-114924420D01*
X187520000Y-115205580D02*
X187520000Y-114924420D01*
X188500000Y-115205580D02*
X188500000Y-114924420D01*
X189520000Y-115205580D02*
X189520000Y-114924420D01*
X157930035Y-131605443D02*
X157930035Y-131324283D01*
X158950035Y-131605443D02*
X158950035Y-131324283D01*
X104907300Y-133118658D02*
X104907300Y-132644142D01*
X105952300Y-133118658D02*
X105952300Y-132644142D01*
X183732258Y-84957500D02*
X183257742Y-84957500D01*
X183732258Y-86002500D02*
X183257742Y-86002500D01*
X145722258Y-60637500D02*
X145247742Y-60637500D01*
X145722258Y-61682500D02*
X145247742Y-61682500D01*
X184487500Y-111727258D02*
X184487500Y-111252742D01*
X185532500Y-111727258D02*
X185532500Y-111252742D01*
X186487500Y-110402258D02*
X186487500Y-109927742D01*
X187532500Y-110402258D02*
X187532500Y-109927742D01*
X161624455Y-134679863D02*
X161905615Y-134679863D01*
X161624455Y-135699863D02*
X161905615Y-135699863D01*
X178381035Y-127055443D02*
X178381035Y-126774283D01*
X179401035Y-127055443D02*
X179401035Y-126774283D01*
X149682258Y-60637500D02*
X149207742Y-60637500D01*
X149682258Y-61682500D02*
X149207742Y-61682500D01*
%LPC*%
D13*
X189630000Y-102290000D03*
X189630000Y-77300000D03*
D14*
X187530000Y-85480000D03*
D15*
X187530000Y-87770000D03*
X187530000Y-90060000D03*
X187530000Y-92350000D03*
X187530000Y-94640000D03*
X189630000Y-84340000D03*
X189630000Y-86630000D03*
X189630000Y-88920000D03*
X189630000Y-91210000D03*
X189630000Y-93500000D03*
X191710000Y-85480000D03*
X191710000Y-87770000D03*
X191710000Y-90060000D03*
X191710000Y-92350000D03*
X191710000Y-94640000D03*
D16*
X130470000Y-75500000D03*
D17*
X133010000Y-75500000D03*
X135550000Y-75500000D03*
D16*
X153330000Y-146370000D03*
D17*
X155870000Y-146370000D03*
X158410000Y-146370000D03*
D16*
X177335000Y-95460000D03*
D17*
X177335000Y-92920000D03*
D18*
X190960000Y-144850000D03*
D16*
X181710000Y-143830000D03*
D17*
X181710000Y-146370000D03*
X179170000Y-143830000D03*
X179170000Y-146370000D03*
X176630000Y-143830000D03*
X176630000Y-146370000D03*
D19*
X164740035Y-130293363D03*
X163740035Y-130293363D03*
X162740035Y-130293363D03*
X164740035Y-131293363D03*
X163740035Y-131293363D03*
X162740035Y-131293363D03*
X164740035Y-132293363D03*
X163740035Y-132293363D03*
X162740035Y-132293363D03*
D20*
X179170000Y-138620000D03*
D21*
X181670000Y-138620000D03*
D22*
X185910000Y-63700000D03*
D23*
X181950000Y-63700000D03*
X177990000Y-63700000D03*
X174030000Y-63700000D03*
X170070000Y-63700000D03*
X166110000Y-63700000D03*
X162150000Y-63700000D03*
X158190000Y-63700000D03*
X154230000Y-63700000D03*
X150270000Y-63700000D03*
X146310000Y-63700000D03*
X142350000Y-63700000D03*
X138390000Y-63700000D03*
X134430000Y-63700000D03*
X130470000Y-63700000D03*
X126510000Y-63700000D03*
X122550000Y-63700000D03*
X118590000Y-63700000D03*
X114630000Y-63700000D03*
X110670000Y-63700000D03*
X106710000Y-63700000D03*
X102700000Y-63700000D03*
X185910000Y-58620000D03*
X181950000Y-58620000D03*
X177990000Y-58620000D03*
X174030000Y-58620000D03*
X170070000Y-58620000D03*
X166110000Y-58620000D03*
X162150000Y-58620000D03*
X158190000Y-58620000D03*
X154230000Y-58620000D03*
X150270000Y-58620000D03*
X146310000Y-58620000D03*
X142350000Y-58620000D03*
X138390000Y-58620000D03*
X134430000Y-58620000D03*
X130470000Y-58620000D03*
X126510000Y-58620000D03*
X122550000Y-58620000D03*
X118590000Y-58620000D03*
X114630000Y-58620000D03*
X110670000Y-58620000D03*
X106710000Y-58620000D03*
X102700000Y-58620000D03*
D18*
X190960000Y-69570000D03*
D16*
X130470000Y-71500000D03*
D17*
X133010000Y-71500000D03*
X135550000Y-71500000D03*
X138090000Y-71500000D03*
X140630000Y-71500000D03*
X143170000Y-71500000D03*
X145710000Y-71500000D03*
X148250000Y-71500000D03*
X150790000Y-71500000D03*
X153330000Y-71500000D03*
D24*
X98629800Y-73381400D03*
X98629800Y-142471400D03*
D16*
X107969800Y-134596400D03*
D25*
X107969800Y-132056400D03*
X107969800Y-129516400D03*
X107969800Y-126976400D03*
X107969800Y-124436400D03*
X107969800Y-121896400D03*
X107969800Y-119356400D03*
X107969800Y-116816400D03*
X107969800Y-114276400D03*
X107969800Y-111736400D03*
X107969800Y-109196400D03*
X107969800Y-106656400D03*
X107969800Y-104116400D03*
X107969800Y-101576400D03*
X107969800Y-99036400D03*
X107969800Y-96496400D03*
X107969800Y-93956400D03*
X107969800Y-91416400D03*
X107969800Y-88876400D03*
X107969800Y-86336400D03*
X107969800Y-83796400D03*
X107969800Y-81256400D03*
X102889800Y-134596400D03*
X102889800Y-132056400D03*
X102889800Y-129516400D03*
X102889800Y-126976400D03*
X102889800Y-124436400D03*
X102889800Y-121896400D03*
X102889800Y-119356400D03*
X102889800Y-116816400D03*
X102889800Y-114276400D03*
X102889800Y-111736400D03*
X102889800Y-109196400D03*
X102889800Y-106656400D03*
X102889800Y-104116400D03*
X102889800Y-101576400D03*
X102889800Y-99036400D03*
X102889800Y-96496400D03*
X102889800Y-93956400D03*
X102889800Y-91416400D03*
X102889800Y-88876400D03*
X102889800Y-86336400D03*
X102889800Y-83796400D03*
X102889800Y-81256400D03*
D16*
X115120000Y-121610000D03*
D17*
X115120000Y-124150000D03*
X115120000Y-126690000D03*
X115120000Y-129230000D03*
X115120000Y-131770000D03*
X115120000Y-134310000D03*
X115120000Y-136850000D03*
X115120000Y-139390000D03*
D26*
X186530000Y-135270000D03*
D21*
X186530000Y-132770000D03*
X186530000Y-130770000D03*
X186530000Y-128270000D03*
D27*
X189240000Y-138340000D03*
X189240000Y-125200000D03*
D28*
X123260000Y-93400000D03*
D29*
X123260000Y-95940000D03*
X123260000Y-98480000D03*
X123260000Y-101020000D03*
X123260000Y-103560000D03*
X123260000Y-106100000D03*
X123260000Y-108640000D03*
X123260000Y-111180000D03*
X123260000Y-113720000D03*
X123260000Y-116260000D03*
X123260000Y-118800000D03*
X123260000Y-121340000D03*
X123260000Y-123880000D03*
X123260000Y-126420000D03*
X123260000Y-128960000D03*
X123260000Y-131500000D03*
X123260000Y-134040000D03*
X123260000Y-136580000D03*
X123260000Y-139120000D03*
X123260000Y-141660000D03*
X138500000Y-141660000D03*
X138500000Y-139120000D03*
X138500000Y-136580000D03*
X138500000Y-134040000D03*
X138500000Y-131500000D03*
X138500000Y-128960000D03*
X138500000Y-126420000D03*
X138500000Y-123880000D03*
X138500000Y-121340000D03*
X138500000Y-118800000D03*
X138500000Y-116260000D03*
X138500000Y-113720000D03*
X138500000Y-111180000D03*
X138500000Y-108640000D03*
X138500000Y-106100000D03*
X138500000Y-103560000D03*
X138500000Y-101020000D03*
X138500000Y-98480000D03*
X138500000Y-95940000D03*
X138500000Y-93400000D03*
D30*
X171090035Y-136639863D03*
X171090035Y-135089863D03*
D31*
X168740035Y-127539863D03*
X168740035Y-129089863D03*
D32*
X142350000Y-61160000D03*
X140700000Y-61160000D03*
D31*
X158440035Y-127139863D03*
X158440035Y-128689863D03*
D33*
X189013412Y-110990000D03*
X189013412Y-109340000D03*
D34*
X165790035Y-136439863D03*
X167340035Y-136439863D03*
D35*
X187010000Y-117590000D03*
X187010000Y-119240000D03*
D36*
X163415035Y-126139863D03*
X161865035Y-126139863D03*
D32*
X138390000Y-61160000D03*
X136740000Y-61160000D03*
D35*
X185010000Y-116340000D03*
X185010000Y-117990000D03*
D32*
X184320000Y-90060000D03*
X182670000Y-90060000D03*
D35*
X189013412Y-118690000D03*
X189013412Y-120340000D03*
D32*
X184320000Y-87770000D03*
X182670000Y-87770000D03*
D34*
X162541035Y-144327363D03*
X164091035Y-144327363D03*
D36*
X165490035Y-128589863D03*
X163940035Y-128589863D03*
D31*
X168740035Y-130539863D03*
X168740035Y-132089863D03*
D36*
X159990035Y-137064863D03*
X158440035Y-137064863D03*
D34*
X160990035Y-139577363D03*
X162540035Y-139577363D03*
D36*
X165790035Y-137939863D03*
X164240035Y-137939863D03*
D30*
X160990035Y-133439863D03*
X160990035Y-131889863D03*
D31*
X135500000Y-140110000D03*
X135500000Y-141660000D03*
D33*
X158440035Y-135289863D03*
X158440035Y-133639863D03*
D35*
X168840035Y-136439863D03*
X168840035Y-138089863D03*
D34*
X164840035Y-126139863D03*
X166390035Y-126139863D03*
D30*
X187010000Y-115840000D03*
X187010000Y-114290000D03*
X189010000Y-115840000D03*
X189010000Y-114290000D03*
X158440035Y-132239863D03*
X158440035Y-130689863D03*
D33*
X105429800Y-133706400D03*
X105429800Y-132056400D03*
D32*
X184320000Y-85480000D03*
X182670000Y-85480000D03*
X146310000Y-61160000D03*
X144660000Y-61160000D03*
D33*
X185010000Y-112315000D03*
X185010000Y-110665000D03*
X187010000Y-110990000D03*
X187010000Y-109340000D03*
D34*
X160990035Y-135189863D03*
X162540035Y-135189863D03*
D30*
X178891035Y-127689863D03*
X178891035Y-126139863D03*
D32*
X150270000Y-61160000D03*
X148620000Y-61160000D03*
%LPD*%
M02*
