G04 #@! TF.GenerationSoftware,KiCad,Pcbnew,9.0.7*
G04 #@! TF.CreationDate,2026-02-02T16:02:05+11:00*
G04 #@! TF.ProjectId,FlashCartProgrammer,466c6173-6843-4617-9274-50726f677261,rev?*
G04 #@! TF.SameCoordinates,Original*
G04 #@! TF.FileFunction,Paste,Bot*
G04 #@! TF.FilePolarity,Positive*
%FSLAX46Y46*%
G04 Gerber Fmt 4.6, Leading zero omitted, Abs format (unit mm)*
G04 Created by KiCad (PCBNEW 9.0.7) date 2026-02-02 16:02:05*
%MOMM*%
%LPD*%
G01*
G04 APERTURE LIST*
G04 Aperture macros list*
%AMRoundRect*
0 Rectangle with rounded corners*
0 $1 Rounding radius*
0 $2 $3 $4 $5 $6 $7 $8 $9 X,Y pos of 4 corners*
0 Add a 4 corners polygon primitive as box body*
4,1,4,$2,$3,$4,$5,$6,$7,$8,$9,$2,$3,0*
0 Add four circle primitives for the rounded corners*
1,1,$1+$1,$2,$3*
1,1,$1+$1,$4,$5*
1,1,$1+$1,$6,$7*
1,1,$1+$1,$8,$9*
0 Add four rect primitives between the rounded corners*
20,1,$1+$1,$2,$3,$4,$5,0*
20,1,$1+$1,$4,$5,$6,$7,0*
20,1,$1+$1,$6,$7,$8,$9,0*
20,1,$1+$1,$8,$9,$2,$3,0*%
G04 Aperture macros list end*
%ADD10RoundRect,0.225000X0.250000X-0.225000X0.250000X0.225000X-0.250000X0.225000X-0.250000X-0.225000X0*%
%ADD11RoundRect,0.225000X-0.250000X0.225000X-0.250000X-0.225000X0.250000X-0.225000X0.250000X0.225000X0*%
%ADD12RoundRect,0.200000X0.200000X0.275000X-0.200000X0.275000X-0.200000X-0.275000X0.200000X-0.275000X0*%
%ADD13RoundRect,0.200000X0.275000X-0.200000X0.275000X0.200000X-0.275000X0.200000X-0.275000X-0.200000X0*%
%ADD14RoundRect,0.225000X-0.225000X-0.250000X0.225000X-0.250000X0.225000X0.250000X-0.225000X0.250000X0*%
%ADD15RoundRect,0.200000X-0.275000X0.200000X-0.275000X-0.200000X0.275000X-0.200000X0.275000X0.200000X0*%
%ADD16RoundRect,0.225000X0.225000X0.250000X-0.225000X0.250000X-0.225000X-0.250000X0.225000X-0.250000X0*%
G04 APERTURE END LIST*
D10*
X171090035Y-136639863D03*
X171090035Y-135089863D03*
D11*
X168740035Y-127539863D03*
X168740035Y-129089863D03*
D12*
X142350000Y-61160000D03*
X140700000Y-61160000D03*
D11*
X158440035Y-127139863D03*
X158440035Y-128689863D03*
D13*
X189013412Y-110990000D03*
X189013412Y-109340000D03*
D14*
X165790035Y-136439863D03*
X167340035Y-136439863D03*
D15*
X187010000Y-117590000D03*
X187010000Y-119240000D03*
D16*
X163415035Y-126139863D03*
X161865035Y-126139863D03*
D12*
X138390000Y-61160000D03*
X136740000Y-61160000D03*
D15*
X185010000Y-116340000D03*
X185010000Y-117990000D03*
D12*
X184320000Y-90060000D03*
X182670000Y-90060000D03*
D15*
X189013412Y-118690000D03*
X189013412Y-120340000D03*
D12*
X184320000Y-87770000D03*
X182670000Y-87770000D03*
D14*
X162541035Y-144327363D03*
X164091035Y-144327363D03*
D16*
X165490035Y-128589863D03*
X163940035Y-128589863D03*
D11*
X168740035Y-130539863D03*
X168740035Y-132089863D03*
D16*
X159990035Y-137064863D03*
X158440035Y-137064863D03*
D14*
X160990035Y-139577363D03*
X162540035Y-139577363D03*
D16*
X165790035Y-137939863D03*
X164240035Y-137939863D03*
D10*
X160990035Y-133439863D03*
X160990035Y-131889863D03*
D11*
X135500000Y-140110000D03*
X135500000Y-141660000D03*
D13*
X158440035Y-135289863D03*
X158440035Y-133639863D03*
D15*
X168840035Y-136439863D03*
X168840035Y-138089863D03*
D14*
X164840035Y-126139863D03*
X166390035Y-126139863D03*
D10*
X187010000Y-115840000D03*
X187010000Y-114290000D03*
X189010000Y-115840000D03*
X189010000Y-114290000D03*
X158440035Y-132239863D03*
X158440035Y-130689863D03*
D13*
X105429800Y-133706400D03*
X105429800Y-132056400D03*
D12*
X184320000Y-85480000D03*
X182670000Y-85480000D03*
X146310000Y-61160000D03*
X144660000Y-61160000D03*
D13*
X185010000Y-112315000D03*
X185010000Y-110665000D03*
X187010000Y-110990000D03*
X187010000Y-109340000D03*
D14*
X160990035Y-135189863D03*
X162540035Y-135189863D03*
D10*
X178891035Y-127689863D03*
X178891035Y-126139863D03*
D12*
X150270000Y-61160000D03*
X148620000Y-61160000D03*
M02*
