G04 #@! TF.GenerationSoftware,KiCad,Pcbnew,9.0.7*
G04 #@! TF.CreationDate,2026-02-02T16:02:05+11:00*
G04 #@! TF.ProjectId,FlashCartProgrammer,466c6173-6843-4617-9274-50726f677261,rev?*
G04 #@! TF.SameCoordinates,Original*
G04 #@! TF.FileFunction,Soldermask,Top*
G04 #@! TF.FilePolarity,Negative*
%FSLAX46Y46*%
G04 Gerber Fmt 4.6, Leading zero omitted, Abs format (unit mm)*
G04 Created by KiCad (PCBNEW 9.0.7) date 2026-02-02 16:02:05*
%MOMM*%
%LPD*%
G01*
G04 APERTURE LIST*
G04 Aperture macros list*
%AMRoundRect*
0 Rectangle with rounded corners*
0 $1 Rounding radius*
0 $2 $3 $4 $5 $6 $7 $8 $9 X,Y pos of 4 corners*
0 Add a 4 corners polygon primitive as box body*
4,1,4,$2,$3,$4,$5,$6,$7,$8,$9,$2,$3,0*
0 Add four circle primitives for the rounded corners*
1,1,$1+$1,$2,$3*
1,1,$1+$1,$4,$5*
1,1,$1+$1,$6,$7*
1,1,$1+$1,$8,$9*
0 Add four rect primitives between the rounded corners*
20,1,$1+$1,$2,$3,$4,$5,0*
20,1,$1+$1,$4,$5,$6,$7,0*
20,1,$1+$1,$6,$7,$8,$9,0*
20,1,$1+$1,$8,$9,$2,$3,0*%
G04 Aperture macros list end*
%ADD10RoundRect,0.200000X-0.275000X0.200000X-0.275000X-0.200000X0.275000X-0.200000X0.275000X0.200000X0*%
%ADD11RoundRect,0.100000X0.637500X0.100000X-0.637500X0.100000X-0.637500X-0.100000X0.637500X-0.100000X0*%
%ADD12RoundRect,0.200000X-0.200000X-0.275000X0.200000X-0.275000X0.200000X0.275000X-0.200000X0.275000X0*%
%ADD13RoundRect,0.225000X0.375000X-0.225000X0.375000X0.225000X-0.375000X0.225000X-0.375000X-0.225000X0*%
%ADD14C,4.770000*%
%ADD15R,1.785000X1.785000*%
%ADD16C,1.785000*%
%ADD17RoundRect,0.225000X-0.225000X-0.250000X0.225000X-0.250000X0.225000X0.250000X-0.225000X0.250000X0*%
%ADD18R,1.700000X1.700000*%
%ADD19C,1.700000*%
%ADD20R,1.500000X0.800000*%
%ADD21R,1.500000X1.195000*%
%ADD22R,1.500000X1.500000*%
%ADD23R,1.400000X0.800000*%
%ADD24R,1.750000X0.800000*%
%ADD25R,1.000000X1.450000*%
%ADD26R,1.550000X1.000000*%
%ADD27RoundRect,0.250000X0.350000X-0.450000X0.350000X0.450000X-0.350000X0.450000X-0.350000X-0.450000X0*%
%ADD28RoundRect,0.225000X0.250000X-0.225000X0.250000X0.225000X-0.250000X0.225000X-0.250000X-0.225000X0*%
%ADD29R,0.950000X1.400000*%
%ADD30C,3.500000*%
%ADD31RoundRect,0.150000X0.150000X-0.512500X0.150000X0.512500X-0.150000X0.512500X-0.150000X-0.512500X0*%
%ADD32RoundRect,0.225000X0.225000X0.250000X-0.225000X0.250000X-0.225000X-0.250000X0.225000X-0.250000X0*%
%ADD33R,0.220000X0.780000*%
%ADD34R,0.780000X0.220000*%
%ADD35C,0.425000*%
%ADD36R,3.400000X3.400000*%
%ADD37RoundRect,0.250000X-0.550000X-0.550000X0.550000X-0.550000X0.550000X0.550000X-0.550000X0.550000X0*%
%ADD38C,1.600000*%
%ADD39R,2.130000X2.130000*%
%ADD40C,2.130000*%
%ADD41RoundRect,0.200000X0.200000X0.275000X-0.200000X0.275000X-0.200000X-0.275000X0.200000X-0.275000X0*%
%ADD42C,1.000000*%
%ADD43C,5.000000*%
%ADD44C,1.750000*%
%ADD45R,1.500000X1.600000*%
%ADD46C,3.000000*%
%ADD47RoundRect,0.150000X-0.650000X-0.150000X0.650000X-0.150000X0.650000X0.150000X-0.650000X0.150000X0*%
%ADD48RoundRect,0.200000X0.275000X-0.200000X0.275000X0.200000X-0.275000X0.200000X-0.275000X-0.200000X0*%
%ADD49R,2.000000X1.440000*%
%ADD50O,2.000000X1.440000*%
G04 APERTURE END LIST*
D10*
X156486535Y-130264863D03*
X156486535Y-131914863D03*
D11*
X150625000Y-141950000D03*
X150625000Y-141300000D03*
X150625000Y-140650000D03*
X150625000Y-140000000D03*
X150625000Y-139350000D03*
X150625000Y-138700000D03*
X150625000Y-138050000D03*
X150625000Y-137400000D03*
X150625000Y-136750000D03*
X150625000Y-136100000D03*
X144900000Y-136100000D03*
X144900000Y-136750000D03*
X144900000Y-137400000D03*
X144900000Y-138050000D03*
X144900000Y-138700000D03*
X144900000Y-139350000D03*
X144900000Y-140000000D03*
X144900000Y-140650000D03*
X144900000Y-141300000D03*
X144900000Y-141950000D03*
D12*
X171250000Y-132149530D03*
X172900000Y-132149530D03*
D13*
X175520000Y-140500000D03*
X175520000Y-137200000D03*
D14*
X189630000Y-102290000D03*
X189630000Y-77300000D03*
D15*
X187530000Y-85480000D03*
D16*
X187530000Y-87770000D03*
X187530000Y-90060000D03*
X187530000Y-92350000D03*
X187530000Y-94640000D03*
X189630000Y-84340000D03*
X189630000Y-86630000D03*
X189630000Y-88920000D03*
X189630000Y-91210000D03*
X189630000Y-93500000D03*
X191710000Y-85480000D03*
X191710000Y-87770000D03*
X191710000Y-90060000D03*
X191710000Y-92350000D03*
X191710000Y-94640000D03*
D17*
X145625000Y-108200000D03*
X147175000Y-108200000D03*
D18*
X130470000Y-75500000D03*
D19*
X133010000Y-75500000D03*
X135550000Y-75500000D03*
D18*
X153330000Y-146370000D03*
D19*
X155870000Y-146370000D03*
X158410000Y-146370000D03*
D20*
X184635000Y-120140000D03*
D21*
X192235000Y-119992500D03*
D22*
X192235000Y-108540000D03*
D23*
X183985000Y-108190000D03*
D24*
X192360000Y-110990000D03*
X192360000Y-112090000D03*
X192360000Y-113190000D03*
X192360000Y-114290000D03*
X192360000Y-115390000D03*
X192360000Y-116490000D03*
X192360000Y-117590000D03*
X192360000Y-118690000D03*
D25*
X183135000Y-119815000D03*
D26*
X181560000Y-108640000D03*
D11*
X151675000Y-106475000D03*
X151675000Y-105825000D03*
X151675000Y-105175000D03*
X151675000Y-104525000D03*
X151675000Y-103875000D03*
X151675000Y-103225000D03*
X151675000Y-102575000D03*
X151675000Y-101925000D03*
X151675000Y-101275000D03*
X151675000Y-100625000D03*
X145950000Y-100625000D03*
X145950000Y-101275000D03*
X145950000Y-101925000D03*
X145950000Y-102575000D03*
X145950000Y-103225000D03*
X145950000Y-103875000D03*
X145950000Y-104525000D03*
X145950000Y-105175000D03*
X145950000Y-105825000D03*
X145950000Y-106475000D03*
X168275000Y-113050000D03*
X168275000Y-112400000D03*
X168275000Y-111750000D03*
X168275000Y-111100000D03*
X168275000Y-110450000D03*
X168275000Y-109800000D03*
X168275000Y-109150000D03*
X168275000Y-108500000D03*
X168275000Y-107850000D03*
X168275000Y-107200000D03*
X162550000Y-107200000D03*
X162550000Y-107850000D03*
X162550000Y-108500000D03*
X162550000Y-109150000D03*
X162550000Y-109800000D03*
X162550000Y-110450000D03*
X162550000Y-111100000D03*
X162550000Y-111750000D03*
X162550000Y-112400000D03*
X162550000Y-113050000D03*
D27*
X154486535Y-131089863D03*
X154486535Y-128689863D03*
X152586535Y-128689863D03*
X152586535Y-131089863D03*
D28*
X167510000Y-145864863D03*
X167510000Y-144314863D03*
D29*
X107250000Y-146400000D03*
X109150000Y-146400000D03*
D18*
X177335000Y-95460000D03*
D19*
X177335000Y-92920000D03*
D30*
X190960000Y-144850000D03*
D31*
X170792500Y-143267637D03*
X171742500Y-143267637D03*
X172692500Y-143267637D03*
X172692500Y-140992637D03*
X170792500Y-140992637D03*
D32*
X152025000Y-121300000D03*
X150475000Y-121300000D03*
D11*
X160000000Y-91450000D03*
X160000000Y-90800000D03*
X160000000Y-90150000D03*
X160000000Y-89500000D03*
X160000000Y-88850000D03*
X160000000Y-88200000D03*
X160000000Y-87550000D03*
X160000000Y-86900000D03*
X160000000Y-86250000D03*
X160000000Y-85600000D03*
X154275000Y-85600000D03*
X154275000Y-86250000D03*
X154275000Y-86900000D03*
X154275000Y-87550000D03*
X154275000Y-88200000D03*
X154275000Y-88850000D03*
X154275000Y-89500000D03*
X154275000Y-90150000D03*
X154275000Y-90800000D03*
X154275000Y-91450000D03*
D17*
X144900000Y-143550000D03*
X146450000Y-143550000D03*
D18*
X181710000Y-143830000D03*
D19*
X181710000Y-146370000D03*
X179170000Y-143830000D03*
X179170000Y-146370000D03*
X176630000Y-143830000D03*
X176630000Y-146370000D03*
D11*
X151675000Y-119625000D03*
X151675000Y-118975000D03*
X151675000Y-118325000D03*
X151675000Y-117675000D03*
X151675000Y-117025000D03*
X151675000Y-116375000D03*
X151675000Y-115725000D03*
X151675000Y-115075000D03*
X151675000Y-114425000D03*
X151675000Y-113775000D03*
X145950000Y-113775000D03*
X145950000Y-114425000D03*
X145950000Y-115075000D03*
X145950000Y-115725000D03*
X145950000Y-116375000D03*
X145950000Y-117025000D03*
X145950000Y-117675000D03*
X145950000Y-118325000D03*
X145950000Y-118975000D03*
X145950000Y-119625000D03*
D33*
X167540035Y-126396863D03*
X167140035Y-126396863D03*
X166740035Y-126396863D03*
X166340035Y-126396863D03*
X165940035Y-126396863D03*
X165540035Y-126396863D03*
X165140035Y-126396863D03*
X164740035Y-126396863D03*
X164340035Y-126396863D03*
X163940035Y-126396863D03*
X163540035Y-126396863D03*
X163140035Y-126396863D03*
X162740035Y-126396863D03*
X162340035Y-126396863D03*
X161940035Y-126396863D03*
X161540035Y-126396863D03*
X161140035Y-126396863D03*
X160740035Y-126396863D03*
X160340035Y-126396863D03*
X159940035Y-126396863D03*
D34*
X158843535Y-127493363D03*
X158843535Y-127893363D03*
X158843535Y-128293363D03*
X158843535Y-128693363D03*
X158843535Y-129093363D03*
X158843535Y-129493363D03*
X158843535Y-129893363D03*
X158843535Y-130293363D03*
X158843535Y-130693363D03*
X158843535Y-131093363D03*
X158843535Y-131493363D03*
X158843535Y-131893363D03*
X158843535Y-132293363D03*
X158843535Y-132693363D03*
X158843535Y-133093363D03*
X158843535Y-133493363D03*
X158843535Y-133893363D03*
X158843535Y-134293363D03*
X158843535Y-134693363D03*
X158843535Y-135093363D03*
D33*
X159940035Y-136189863D03*
X160340035Y-136189863D03*
X160740035Y-136189863D03*
X161140035Y-136189863D03*
X161540035Y-136189863D03*
X161940035Y-136189863D03*
X162340035Y-136189863D03*
X162740035Y-136189863D03*
X163140035Y-136189863D03*
X163540035Y-136189863D03*
X163940035Y-136189863D03*
X164340035Y-136189863D03*
X164740035Y-136189863D03*
X165140035Y-136189863D03*
X165540035Y-136189863D03*
X165940035Y-136189863D03*
X166340035Y-136189863D03*
X166740035Y-136189863D03*
X167140035Y-136189863D03*
X167540035Y-136189863D03*
D34*
X168636535Y-135093363D03*
X168636535Y-134693363D03*
X168636535Y-134293363D03*
X168636535Y-133893363D03*
X168636535Y-133493363D03*
X168636535Y-133093363D03*
X168636535Y-132693363D03*
X168636535Y-132293363D03*
X168636535Y-131893363D03*
X168636535Y-131493363D03*
X168636535Y-131093363D03*
X168636535Y-130693363D03*
X168636535Y-130293363D03*
X168636535Y-129893363D03*
X168636535Y-129493363D03*
X168636535Y-129093363D03*
X168636535Y-128693363D03*
X168636535Y-128293363D03*
X168636535Y-127893363D03*
X168636535Y-127493363D03*
D35*
X164740035Y-130293363D03*
X163740035Y-130293363D03*
X162740035Y-130293363D03*
X164740035Y-131293363D03*
X163740035Y-131293363D03*
D36*
X163740035Y-131293363D03*
D35*
X162740035Y-131293363D03*
X164740035Y-132293363D03*
X163740035Y-132293363D03*
X162740035Y-132293363D03*
D37*
X179170000Y-138620000D03*
D38*
X181670000Y-138620000D03*
D32*
X154136535Y-126736363D03*
X152586535Y-126736363D03*
D39*
X185910000Y-63700000D03*
D40*
X181950000Y-63700000D03*
X177990000Y-63700000D03*
X174030000Y-63700000D03*
X170070000Y-63700000D03*
X166110000Y-63700000D03*
X162150000Y-63700000D03*
X158190000Y-63700000D03*
X154230000Y-63700000D03*
X150270000Y-63700000D03*
X146310000Y-63700000D03*
X142350000Y-63700000D03*
X138390000Y-63700000D03*
X134430000Y-63700000D03*
X130470000Y-63700000D03*
X126510000Y-63700000D03*
X122550000Y-63700000D03*
X118590000Y-63700000D03*
X114630000Y-63700000D03*
X110670000Y-63700000D03*
X106710000Y-63700000D03*
X102700000Y-63700000D03*
X185910000Y-58620000D03*
X181950000Y-58620000D03*
X177990000Y-58620000D03*
X174030000Y-58620000D03*
X170070000Y-58620000D03*
X166110000Y-58620000D03*
X162150000Y-58620000D03*
X158190000Y-58620000D03*
X154230000Y-58620000D03*
X150270000Y-58620000D03*
X146310000Y-58620000D03*
X142350000Y-58620000D03*
X138390000Y-58620000D03*
X134430000Y-58620000D03*
X130470000Y-58620000D03*
X126510000Y-58620000D03*
X122550000Y-58620000D03*
X118590000Y-58620000D03*
X114630000Y-58620000D03*
X110670000Y-58620000D03*
X106710000Y-58620000D03*
X102700000Y-58620000D03*
D31*
X162540035Y-144327363D03*
X163490035Y-144327363D03*
X164440035Y-144327363D03*
X164440035Y-142052363D03*
X162540035Y-142052363D03*
D32*
X150575000Y-143550000D03*
X149025000Y-143550000D03*
D41*
X150625000Y-134500000D03*
X148975000Y-134500000D03*
D30*
X190960000Y-69570000D03*
D42*
X167440035Y-140089863D03*
D12*
X177185000Y-119815000D03*
X178835000Y-119815000D03*
X171250000Y-133610000D03*
X172900000Y-133610000D03*
D18*
X130470000Y-71500000D03*
D19*
X133010000Y-71500000D03*
X135550000Y-71500000D03*
X138090000Y-71500000D03*
X140630000Y-71500000D03*
X143170000Y-71500000D03*
X145710000Y-71500000D03*
X148250000Y-71500000D03*
X150790000Y-71500000D03*
X153330000Y-71500000D03*
D43*
X98629800Y-73381400D03*
X98629800Y-142471400D03*
D18*
X107969800Y-134596400D03*
D44*
X107969800Y-132056400D03*
X107969800Y-129516400D03*
X107969800Y-126976400D03*
X107969800Y-124436400D03*
X107969800Y-121896400D03*
X107969800Y-119356400D03*
X107969800Y-116816400D03*
X107969800Y-114276400D03*
X107969800Y-111736400D03*
X107969800Y-109196400D03*
X107969800Y-106656400D03*
X107969800Y-104116400D03*
X107969800Y-101576400D03*
X107969800Y-99036400D03*
X107969800Y-96496400D03*
X107969800Y-93956400D03*
X107969800Y-91416400D03*
X107969800Y-88876400D03*
X107969800Y-86336400D03*
X107969800Y-83796400D03*
X107969800Y-81256400D03*
X102889800Y-134596400D03*
X102889800Y-132056400D03*
X102889800Y-129516400D03*
X102889800Y-126976400D03*
X102889800Y-124436400D03*
X102889800Y-121896400D03*
X102889800Y-119356400D03*
X102889800Y-116816400D03*
X102889800Y-114276400D03*
X102889800Y-111736400D03*
X102889800Y-109196400D03*
X102889800Y-106656400D03*
X102889800Y-104116400D03*
X102889800Y-101576400D03*
X102889800Y-99036400D03*
X102889800Y-96496400D03*
X102889800Y-93956400D03*
X102889800Y-91416400D03*
X102889800Y-88876400D03*
X102889800Y-86336400D03*
X102889800Y-83796400D03*
X102889800Y-81256400D03*
D18*
X115120000Y-121610000D03*
D19*
X115120000Y-124150000D03*
X115120000Y-126690000D03*
X115120000Y-129230000D03*
X115120000Y-131770000D03*
X115120000Y-134310000D03*
X115120000Y-136850000D03*
X115120000Y-139390000D03*
D17*
X152936535Y-133086363D03*
X154486535Y-133086363D03*
D45*
X186530000Y-135270000D03*
D38*
X186530000Y-132770000D03*
X186530000Y-130770000D03*
X186530000Y-128270000D03*
D46*
X189240000Y-138340000D03*
X189240000Y-125200000D03*
D12*
X175685000Y-98510000D03*
X177335000Y-98510000D03*
D47*
X174491035Y-126139863D03*
X174491035Y-127409863D03*
X174491035Y-128679863D03*
X174491035Y-129949863D03*
X181691035Y-129949863D03*
X181691035Y-128679863D03*
X181691035Y-127409863D03*
X181691035Y-126139863D03*
D12*
X115675000Y-146400000D03*
X117325000Y-146400000D03*
D42*
X168840035Y-138389863D03*
D28*
X160450000Y-113950000D03*
X160450000Y-112400000D03*
D17*
X145600000Y-121250000D03*
X147150000Y-121250000D03*
D32*
X172342500Y-145920000D03*
X170792500Y-145920000D03*
D48*
X175685000Y-102760000D03*
X175685000Y-101110000D03*
D49*
X123260000Y-93400000D03*
D50*
X123260000Y-95940000D03*
X123260000Y-98480000D03*
X123260000Y-101020000D03*
X123260000Y-103560000D03*
X123260000Y-106100000D03*
X123260000Y-108640000D03*
X123260000Y-111180000D03*
X123260000Y-113720000D03*
X123260000Y-116260000D03*
X123260000Y-118800000D03*
X123260000Y-121340000D03*
X123260000Y-123880000D03*
X123260000Y-126420000D03*
X123260000Y-128960000D03*
X123260000Y-131500000D03*
X123260000Y-134040000D03*
X123260000Y-136580000D03*
X123260000Y-139120000D03*
X123260000Y-141660000D03*
X138500000Y-141660000D03*
X138500000Y-139120000D03*
X138500000Y-136580000D03*
X138500000Y-134040000D03*
X138500000Y-131500000D03*
X138500000Y-128960000D03*
X138500000Y-126420000D03*
X138500000Y-123880000D03*
X138500000Y-121340000D03*
X138500000Y-118800000D03*
X138500000Y-116260000D03*
X138500000Y-113720000D03*
X138500000Y-111180000D03*
X138500000Y-108640000D03*
X138500000Y-106100000D03*
X138500000Y-103560000D03*
X138500000Y-101020000D03*
X138500000Y-98480000D03*
X138500000Y-95940000D03*
X138500000Y-93400000D03*
D42*
X166040035Y-138389863D03*
D28*
X152250000Y-93000000D03*
X152250000Y-91450000D03*
X170825000Y-114000000D03*
X170825000Y-112450000D03*
M02*
