%TF.GenerationSoftware,KiCad,Pcbnew,9.0.7*%
%TF.CreationDate,2026-02-02T16:02:03+11:00*%
%TF.ProjectId,FlashCartProgrammer,466c6173-6843-4617-9274-50726f677261,rev?*%
%TF.SameCoordinates,Original*%
%TF.FileFunction,Drillmap*%
%TF.FilePolarity,Positive*%
%FSLAX45Y45*%
G04 Gerber Fmt 4.5, Leading zero omitted, Abs format (unit mm)*
G04 Created by KiCad (PCBNEW 9.0.7) date 2026-02-02 16:02:03*
%MOMM*%
%LPD*%
G01*
G04 APERTURE LIST*
%ADD10C,0.100000*%
%ADD11C,0.200000*%
%ADD12C,0.119000*%
%ADD13C,0.142000*%
%ADD14C,0.230000*%
%ADD15C,0.318000*%
%ADD16C,0.350000*%
G04 APERTURE END LIST*
D10*
X9478820Y-4871640D02*
X19478820Y-4871640D01*
X19478820Y-14871640D01*
X9478820Y-14871640D01*
X9478820Y-4871640D01*
D11*
D10*
X10546000Y-8857000D02*
X10576000Y-8887000D01*
X10576000Y-8857000D02*
X10546000Y-8887000D01*
X10940000Y-9708000D02*
X10970000Y-9738000D01*
X10970000Y-9708000D02*
X10940000Y-9738000D01*
X10945000Y-8941000D02*
X10975000Y-8971000D01*
X10975000Y-8941000D02*
X10945000Y-8971000D01*
X10945000Y-9182000D02*
X10975000Y-9212000D01*
X10975000Y-9182000D02*
X10945000Y-9212000D01*
X10945000Y-9420000D02*
X10975000Y-9450000D01*
X10975000Y-9420000D02*
X10945000Y-9450000D01*
X10975000Y-10147500D02*
X11005000Y-10177500D01*
X11005000Y-10147500D02*
X10975000Y-10177500D01*
X11037500Y-10047500D02*
X11067500Y-10077500D01*
X11067500Y-10047500D02*
X11037500Y-10077500D01*
X11092500Y-10295000D02*
X11122500Y-10325000D01*
X11122500Y-10295000D02*
X11092500Y-10325000D01*
X11092500Y-10615000D02*
X11122500Y-10645000D01*
X11122500Y-10615000D02*
X11092500Y-10645000D01*
X11175000Y-10080000D02*
X11205000Y-10110000D01*
X11205000Y-10080000D02*
X11175000Y-10110000D01*
X11240000Y-10347500D02*
X11270000Y-10377500D01*
X11270000Y-10347500D02*
X11240000Y-10377500D01*
X11280000Y-10890000D02*
X11310000Y-10920000D01*
X11310000Y-10890000D02*
X11280000Y-10920000D01*
X11280000Y-11110000D02*
X11310000Y-11140000D01*
X11310000Y-11110000D02*
X11280000Y-11140000D01*
X11280000Y-11342500D02*
X11310000Y-11372500D01*
X11310000Y-11342500D02*
X11280000Y-11372500D01*
X11312500Y-10595000D02*
X11342500Y-10625000D01*
X11342500Y-10595000D02*
X11312500Y-10625000D01*
X11370000Y-11587500D02*
X11400000Y-11617500D01*
X11400000Y-11587500D02*
X11370000Y-11617500D01*
X11415000Y-10849000D02*
X11445000Y-10879000D01*
X11445000Y-10849000D02*
X11415000Y-10879000D01*
X11485000Y-11103000D02*
X11515000Y-11133000D01*
X11515000Y-11103000D02*
X11485000Y-11133000D01*
X11505000Y-14305000D02*
X11535000Y-14335000D01*
X11535000Y-14305000D02*
X11505000Y-14335000D01*
X11678000Y-11700000D02*
X11708000Y-11730000D01*
X11708000Y-11700000D02*
X11678000Y-11730000D01*
X11695000Y-12773000D02*
X11725000Y-12803000D01*
X11725000Y-12773000D02*
X11695000Y-12803000D01*
X11705000Y-11345000D02*
X11735000Y-11375000D01*
X11735000Y-11345000D02*
X11705000Y-11375000D01*
X11781667Y-12353958D02*
X11811667Y-12383958D01*
X11811667Y-12353958D02*
X11781667Y-12383958D01*
X11977500Y-14160000D02*
X12007500Y-14190000D01*
X12007500Y-14160000D02*
X11977500Y-14190000D01*
X12092500Y-9690000D02*
X12122500Y-9720000D01*
X12122500Y-9690000D02*
X12092500Y-9720000D01*
X12145000Y-14050000D02*
X12175000Y-14080000D01*
X12175000Y-14050000D02*
X12145000Y-14080000D01*
X12422500Y-8900000D02*
X12452500Y-8930000D01*
X12452500Y-8900000D02*
X12422500Y-8930000D01*
X12467000Y-13499000D02*
X12497000Y-13529000D01*
X12497000Y-13499000D02*
X12467000Y-13529000D01*
X12475000Y-13266000D02*
X12505000Y-13296000D01*
X12505000Y-13266000D02*
X12475000Y-13296000D01*
X12480000Y-13009000D02*
X12510000Y-13039000D01*
X12510000Y-13009000D02*
X12480000Y-13039000D01*
X12504000Y-12499000D02*
X12534000Y-12529000D01*
X12534000Y-12499000D02*
X12504000Y-12529000D01*
X12509000Y-12242000D02*
X12539000Y-12272000D01*
X12539000Y-12242000D02*
X12509000Y-12272000D01*
X12514000Y-11625000D02*
X12544000Y-11655000D01*
X12544000Y-11625000D02*
X12514000Y-11655000D01*
X12561000Y-13644000D02*
X12591000Y-13674000D01*
X12591000Y-13644000D02*
X12561000Y-13674000D01*
X12572000Y-13896000D02*
X12602000Y-13926000D01*
X12602000Y-13896000D02*
X12572000Y-13926000D01*
X12725000Y-14166000D02*
X12755000Y-14196000D01*
X12755000Y-14166000D02*
X12725000Y-14196000D01*
X12852500Y-8827500D02*
X12882500Y-8857500D01*
X12882500Y-8827500D02*
X12852500Y-8857500D01*
X13150000Y-7745000D02*
X13180000Y-7775000D01*
X13180000Y-7745000D02*
X13150000Y-7775000D01*
X13459000Y-12764000D02*
X13489000Y-12794000D01*
X13489000Y-12764000D02*
X13459000Y-12794000D01*
X13540000Y-11157500D02*
X13570000Y-11187500D01*
X13570000Y-11157500D02*
X13540000Y-11187500D01*
X13592500Y-7995000D02*
X13622500Y-8025000D01*
X13622500Y-7995000D02*
X13592500Y-8025000D01*
X13630000Y-11355000D02*
X13660000Y-11385000D01*
X13660000Y-11355000D02*
X13630000Y-11385000D01*
X13648000Y-13896000D02*
X13678000Y-13926000D01*
X13678000Y-13896000D02*
X13648000Y-13926000D01*
X13686000Y-9450000D02*
X13716000Y-9480000D01*
X13716000Y-9450000D02*
X13686000Y-9480000D01*
X13691000Y-9973000D02*
X13721000Y-10003000D01*
X13721000Y-9973000D02*
X13691000Y-10003000D01*
X13691000Y-10222000D02*
X13721000Y-10252000D01*
X13721000Y-10222000D02*
X13691000Y-10252000D01*
X13697000Y-10465000D02*
X13727000Y-10495000D01*
X13727000Y-10465000D02*
X13697000Y-10495000D01*
X13706000Y-7766000D02*
X13736000Y-7796000D01*
X13736000Y-7766000D02*
X13706000Y-7796000D01*
X13708000Y-10725000D02*
X13738000Y-10755000D01*
X13738000Y-10725000D02*
X13708000Y-10755000D01*
X13829000Y-7766000D02*
X13859000Y-7796000D01*
X13859000Y-7766000D02*
X13829000Y-7796000D01*
X13838000Y-7497000D02*
X13868000Y-7527000D01*
X13868000Y-7497000D02*
X13838000Y-7527000D01*
X13926000Y-7599000D02*
X13956000Y-7629000D01*
X13956000Y-7599000D02*
X13926000Y-7629000D01*
X14094317Y-13456871D02*
X14124317Y-13486871D01*
X14124317Y-13456871D02*
X14094317Y-13486871D01*
X14102500Y-11307500D02*
X14132500Y-11337500D01*
X14132500Y-11307500D02*
X14102500Y-11337500D01*
X14159317Y-13389317D02*
X14189317Y-13419317D01*
X14189317Y-13389317D02*
X14159317Y-13419317D01*
X14169962Y-13144462D02*
X14199962Y-13174462D01*
X14199962Y-13144462D02*
X14169962Y-13174462D01*
X14213000Y-12767500D02*
X14243000Y-12797500D01*
X14243000Y-12767500D02*
X14213000Y-12797500D01*
X14260000Y-12190000D02*
X14290000Y-12220000D01*
X14290000Y-12190000D02*
X14260000Y-12220000D01*
X14275000Y-7992500D02*
X14305000Y-8022500D01*
X14305000Y-7992500D02*
X14275000Y-8022500D01*
X14332500Y-7835000D02*
X14362500Y-7865000D01*
X14362500Y-7835000D02*
X14332500Y-7865000D01*
X14335000Y-13595000D02*
X14365000Y-13625000D01*
X14365000Y-13595000D02*
X14335000Y-13625000D01*
X14336000Y-14339000D02*
X14366000Y-14369000D01*
X14366000Y-14339000D02*
X14336000Y-14369000D01*
X14338000Y-7389000D02*
X14368000Y-7419000D01*
X14368000Y-7389000D02*
X14338000Y-7419000D01*
X14377000Y-11141000D02*
X14407000Y-11171000D01*
X14407000Y-11141000D02*
X14377000Y-11171000D01*
X14421000Y-7969000D02*
X14451000Y-7999000D01*
X14451000Y-7969000D02*
X14421000Y-7999000D01*
X14450000Y-10047500D02*
X14480000Y-10077500D01*
X14480000Y-10047500D02*
X14450000Y-10077500D01*
X14450000Y-11010000D02*
X14480000Y-11040000D01*
X14480000Y-11010000D02*
X14450000Y-11040000D01*
X14465000Y-7612500D02*
X14495000Y-7642500D01*
X14495000Y-7612500D02*
X14465000Y-7642500D01*
X14507000Y-7855000D02*
X14537000Y-7885000D01*
X14537000Y-7855000D02*
X14507000Y-7885000D01*
X14512500Y-12830000D02*
X14542500Y-12860000D01*
X14542500Y-12830000D02*
X14512500Y-12860000D01*
X14512500Y-13084000D02*
X14542500Y-13114000D01*
X14542500Y-13084000D02*
X14512500Y-13114000D01*
X14512500Y-13347000D02*
X14542500Y-13377000D01*
X14542500Y-13347000D02*
X14512500Y-13377000D01*
X14567000Y-7555000D02*
X14597000Y-7585000D01*
X14597000Y-7555000D02*
X14567000Y-7585000D01*
X14693000Y-8049000D02*
X14723000Y-8079000D01*
X14723000Y-8049000D02*
X14693000Y-8079000D01*
X14694900Y-7437600D02*
X14724900Y-7467600D01*
X14724900Y-7437600D02*
X14694900Y-7467600D01*
X14727500Y-8790000D02*
X14757500Y-8820000D01*
X14757500Y-8790000D02*
X14727500Y-8820000D01*
X14732500Y-11647500D02*
X14762500Y-11677500D01*
X14762500Y-11647500D02*
X14732500Y-11677500D01*
X14759000Y-8152600D02*
X14789000Y-8182600D01*
X14789000Y-8152600D02*
X14759000Y-8182600D01*
X14763000Y-14151000D02*
X14793000Y-14181000D01*
X14793000Y-14151000D02*
X14763000Y-14181000D01*
X14766000Y-14339000D02*
X14796000Y-14369000D01*
X14796000Y-14339000D02*
X14766000Y-14369000D01*
X14792000Y-12530000D02*
X14822000Y-12560000D01*
X14822000Y-12530000D02*
X14792000Y-12560000D01*
X14835000Y-11587500D02*
X14865000Y-11617500D01*
X14865000Y-11587500D02*
X14835000Y-11617500D01*
X14890855Y-12005855D02*
X14920855Y-12035855D01*
X14920855Y-12005855D02*
X14890855Y-12035855D01*
X14904000Y-9194000D02*
X14934000Y-9224000D01*
X14934000Y-9194000D02*
X14904000Y-9224000D01*
X14969000Y-12530000D02*
X14999000Y-12560000D01*
X14999000Y-12530000D02*
X14969000Y-12560000D01*
X15072500Y-9170000D02*
X15102500Y-9200000D01*
X15102500Y-9170000D02*
X15072500Y-9200000D01*
X15126603Y-13296486D02*
X15156603Y-13326486D01*
X15156603Y-13296486D02*
X15126603Y-13326486D01*
X15159000Y-12530000D02*
X15189000Y-12560000D01*
X15189000Y-12530000D02*
X15159000Y-12560000D01*
X15170000Y-14340000D02*
X15200000Y-14370000D01*
X15200000Y-14340000D02*
X15170000Y-14370000D01*
X15178000Y-13514000D02*
X15208000Y-13544000D01*
X15208000Y-13514000D02*
X15178000Y-13544000D01*
X15212500Y-9422500D02*
X15242500Y-9452500D01*
X15242500Y-9422500D02*
X15212500Y-9452500D01*
X15217385Y-8413959D02*
X15247385Y-8443959D01*
X15247385Y-8413959D02*
X15217385Y-8443959D01*
X15255000Y-11132500D02*
X15285000Y-11162500D01*
X15285000Y-11132500D02*
X15255000Y-11162500D01*
X15266000Y-14288000D02*
X15296000Y-14318000D01*
X15296000Y-14288000D02*
X15266000Y-14318000D01*
X15270193Y-8341079D02*
X15300193Y-8371079D01*
X15300193Y-8341079D02*
X15270193Y-8371079D01*
X15275000Y-11332500D02*
X15305000Y-11362500D01*
X15305000Y-11332500D02*
X15275000Y-11362500D01*
X15290554Y-11687500D02*
X15320554Y-11717500D01*
X15320554Y-11687500D02*
X15290554Y-11717500D01*
X15292268Y-11557500D02*
X15322268Y-11587500D01*
X15322268Y-11557500D02*
X15292268Y-11587500D01*
X15292500Y-11427500D02*
X15322500Y-11457500D01*
X15322500Y-11427500D02*
X15292500Y-11457500D01*
X15292500Y-11820000D02*
X15322500Y-11850000D01*
X15322500Y-11820000D02*
X15292500Y-11850000D01*
X15300538Y-13595000D02*
X15330538Y-13625000D01*
X15330538Y-13595000D02*
X15300538Y-13625000D01*
X15302000Y-12118000D02*
X15332000Y-12148000D01*
X15332000Y-12118000D02*
X15302000Y-12148000D01*
X15309000Y-10045000D02*
X15339000Y-10075000D01*
X15339000Y-10045000D02*
X15309000Y-10075000D01*
X15326014Y-8270482D02*
X15356014Y-8300482D01*
X15356014Y-8270482D02*
X15326014Y-8300482D01*
X15331259Y-14223000D02*
X15361259Y-14253000D01*
X15361259Y-14223000D02*
X15331259Y-14253000D01*
X15354958Y-11755200D02*
X15384958Y-11785200D01*
X15384958Y-11755200D02*
X15354958Y-11785200D01*
X15360000Y-11495000D02*
X15390000Y-11525000D01*
X15390000Y-11495000D02*
X15360000Y-11525000D01*
X15360000Y-11625100D02*
X15390000Y-11655100D01*
X15390000Y-11625100D02*
X15360000Y-11655100D01*
X15384589Y-8202152D02*
X15414589Y-8232152D01*
X15414589Y-8202152D02*
X15384589Y-8232152D01*
X15392500Y-8112500D02*
X15422500Y-8142500D01*
X15422500Y-8112500D02*
X15392500Y-8142500D01*
X15400000Y-8012500D02*
X15430000Y-8042500D01*
X15430000Y-8012500D02*
X15400000Y-8042500D01*
X15418000Y-9605000D02*
X15448000Y-9635000D01*
X15448000Y-9605000D02*
X15418000Y-9635000D01*
X15445000Y-11953512D02*
X15475000Y-11983512D01*
X15475000Y-11953512D02*
X15445000Y-11983512D01*
X15446000Y-12527000D02*
X15476000Y-12557000D01*
X15476000Y-12527000D02*
X15446000Y-12557000D01*
X15472500Y-6610000D02*
X15502500Y-6640000D01*
X15502500Y-6610000D02*
X15472500Y-6640000D01*
X15481000Y-14223000D02*
X15511000Y-14253000D01*
X15511000Y-14223000D02*
X15481000Y-14253000D01*
X15499000Y-12421000D02*
X15529000Y-12451000D01*
X15529000Y-12421000D02*
X15499000Y-12451000D01*
X15510000Y-12657000D02*
X15540000Y-12687000D01*
X15540000Y-12657000D02*
X15510000Y-12687000D01*
X15532500Y-12000000D02*
X15562500Y-12030000D01*
X15562500Y-12000000D02*
X15532500Y-12030000D01*
X15557954Y-12897261D02*
X15587954Y-12927261D01*
X15587954Y-12897261D02*
X15557954Y-12927261D01*
X15563000Y-12204000D02*
X15593000Y-12234000D01*
X15593000Y-12204000D02*
X15563000Y-12234000D01*
X15564101Y-12084270D02*
X15594101Y-12114270D01*
X15594101Y-12084270D02*
X15564101Y-12114270D01*
X15576000Y-12358000D02*
X15606000Y-12388000D01*
X15606000Y-12358000D02*
X15576000Y-12388000D01*
X15601603Y-13728986D02*
X15631603Y-13758986D01*
X15631603Y-13728986D02*
X15601603Y-13758986D01*
X15612500Y-6600000D02*
X15642500Y-6630000D01*
X15642500Y-6600000D02*
X15612500Y-6630000D01*
X15620984Y-12277092D02*
X15650984Y-12307092D01*
X15650984Y-12277092D02*
X15620984Y-12307092D01*
X15648000Y-14207000D02*
X15678000Y-14237000D01*
X15678000Y-14207000D02*
X15648000Y-14237000D01*
X15662676Y-13652338D02*
X15692676Y-13682338D01*
X15692676Y-13652338D02*
X15662676Y-13682338D01*
X15704000Y-13805000D02*
X15734000Y-13835000D01*
X15734000Y-13805000D02*
X15704000Y-13835000D01*
X15726315Y-13588698D02*
X15756315Y-13618698D01*
X15756315Y-13588698D02*
X15726315Y-13618698D01*
X15787500Y-6687500D02*
X15817500Y-6717500D01*
X15817500Y-6687500D02*
X15787500Y-6717500D01*
X15795000Y-11065000D02*
X15825000Y-11095000D01*
X15825000Y-11065000D02*
X15795000Y-11095000D01*
X15797400Y-10760100D02*
X15827400Y-10790100D01*
X15827400Y-10760100D02*
X15797400Y-10790100D01*
X15815000Y-10900000D02*
X15845000Y-10930000D01*
X15845000Y-10900000D02*
X15815000Y-10930000D01*
X15829003Y-14115000D02*
X15859003Y-14145000D01*
X15859003Y-14115000D02*
X15829003Y-14145000D01*
X15885000Y-11225000D02*
X15915000Y-11255000D01*
X15915000Y-11225000D02*
X15885000Y-11255000D01*
X15914003Y-12395000D02*
X15944003Y-12425000D01*
X15944003Y-12395000D02*
X15914003Y-12425000D01*
X15932500Y-11030000D02*
X15962500Y-11060000D01*
X15962500Y-11030000D02*
X15932500Y-11060000D01*
X15941000Y-6736000D02*
X15971000Y-6766000D01*
X15971000Y-6736000D02*
X15941000Y-6766000D01*
X15964003Y-12853986D02*
X15994003Y-12883986D01*
X15994003Y-12853986D02*
X15964003Y-12883986D01*
X15964003Y-13053986D02*
X15994003Y-13083986D01*
X15994003Y-13053986D02*
X15964003Y-13083986D01*
X15964003Y-13173986D02*
X15994003Y-13203986D01*
X15994003Y-13173986D02*
X15964003Y-13203986D01*
X15964003Y-13368986D02*
X15994003Y-13398986D01*
X15994003Y-13368986D02*
X15964003Y-13398986D01*
X15967962Y-14107962D02*
X15997962Y-14137962D01*
X15997962Y-14107962D02*
X15967962Y-14137962D01*
X15968904Y-13513986D02*
X15998904Y-13543986D01*
X15998904Y-13513986D02*
X15968904Y-13543986D01*
X15972788Y-6849712D02*
X16002788Y-6879712D01*
X16002788Y-6849712D02*
X15972788Y-6879712D01*
X15979003Y-12953986D02*
X16009003Y-12983986D01*
X16009003Y-12953986D02*
X15979003Y-12983986D01*
X16011103Y-12731986D02*
X16041103Y-12761986D01*
X16041103Y-12731986D02*
X16011103Y-12761986D01*
X16020100Y-11072500D02*
X16050100Y-11102500D01*
X16050100Y-11072500D02*
X16020100Y-11102500D01*
X16030000Y-11500000D02*
X16060000Y-11530000D01*
X16060000Y-11500000D02*
X16030000Y-11530000D01*
X16076000Y-6950000D02*
X16106000Y-6980000D01*
X16106000Y-6950000D02*
X16076000Y-6980000D01*
X16080000Y-11905000D02*
X16110000Y-11935000D01*
X16110000Y-11905000D02*
X16080000Y-11935000D01*
X16084003Y-14083986D02*
X16114003Y-14113986D01*
X16114003Y-14083986D02*
X16084003Y-14113986D01*
X16088000Y-10734000D02*
X16118000Y-10764000D01*
X16118000Y-10734000D02*
X16088000Y-10764000D01*
X16097500Y-7065000D02*
X16127500Y-7095000D01*
X16127500Y-7065000D02*
X16097500Y-7095000D01*
X16101573Y-11127500D02*
X16131573Y-11157500D01*
X16131573Y-11127500D02*
X16101573Y-11157500D01*
X16109000Y-12312000D02*
X16139000Y-12342000D01*
X16139000Y-12312000D02*
X16109000Y-12342000D01*
X16127500Y-8610000D02*
X16157500Y-8640000D01*
X16157500Y-8610000D02*
X16127500Y-8640000D01*
X16127500Y-8740000D02*
X16157500Y-8770000D01*
X16157500Y-8740000D02*
X16127500Y-8770000D01*
X16127500Y-8870000D02*
X16157500Y-8900000D01*
X16157500Y-8870000D02*
X16127500Y-8900000D01*
X16127500Y-9000000D02*
X16157500Y-9030000D01*
X16157500Y-9000000D02*
X16127500Y-9030000D01*
X16179003Y-12718986D02*
X16209003Y-12748986D01*
X16209003Y-12718986D02*
X16179003Y-12748986D01*
X16183000Y-8510000D02*
X16213000Y-8540000D01*
X16213000Y-8510000D02*
X16183000Y-8540000D01*
X16197000Y-7202500D02*
X16227000Y-7232500D01*
X16227000Y-7202500D02*
X16197000Y-7232500D01*
X16207500Y-8675000D02*
X16237500Y-8705000D01*
X16237500Y-8675000D02*
X16207500Y-8705000D01*
X16207500Y-8805000D02*
X16237500Y-8835000D01*
X16237500Y-8805000D02*
X16207500Y-8835000D01*
X16207500Y-8935000D02*
X16237500Y-8965000D01*
X16237500Y-8935000D02*
X16207500Y-8965000D01*
X16207500Y-9065000D02*
X16237500Y-9095000D01*
X16237500Y-9065000D02*
X16207500Y-9095000D01*
X16239003Y-14062736D02*
X16269003Y-14092736D01*
X16269003Y-14062736D02*
X16239003Y-14092736D01*
X16240000Y-10587500D02*
X16270000Y-10617500D01*
X16270000Y-10587500D02*
X16240000Y-10617500D01*
X16334003Y-14303986D02*
X16364003Y-14333986D01*
X16364003Y-14303986D02*
X16334003Y-14333986D01*
X16339003Y-13693986D02*
X16369003Y-13723986D01*
X16369003Y-13693986D02*
X16339003Y-13723986D01*
X16360000Y-11287500D02*
X16390000Y-11317500D01*
X16390000Y-11287500D02*
X16360000Y-11317500D01*
X16374300Y-8432500D02*
X16404300Y-8462500D01*
X16404300Y-8432500D02*
X16374300Y-8462500D01*
X16379003Y-12718986D02*
X16409003Y-12748986D01*
X16409003Y-12718986D02*
X16379003Y-12748986D01*
X16379003Y-13503986D02*
X16409003Y-13533986D01*
X16409003Y-13503986D02*
X16379003Y-13533986D01*
X16510353Y-14010236D02*
X16540353Y-14040236D01*
X16540353Y-14010236D02*
X16510353Y-14040236D01*
X16532500Y-8350000D02*
X16562500Y-8380000D01*
X16562500Y-8350000D02*
X16532500Y-8380000D01*
X16557228Y-14416486D02*
X16587228Y-14446486D01*
X16587228Y-14416486D02*
X16557228Y-14446486D01*
X16564003Y-13413986D02*
X16594003Y-13443986D01*
X16594003Y-13413986D02*
X16564003Y-13443986D01*
X16624003Y-12738986D02*
X16654003Y-12768986D01*
X16654003Y-12738986D02*
X16624003Y-12768986D01*
X16705000Y-8282500D02*
X16735000Y-8312500D01*
X16735000Y-8282500D02*
X16705000Y-8312500D01*
X16705000Y-11350000D02*
X16735000Y-11380000D01*
X16735000Y-11350000D02*
X16705000Y-11380000D01*
X16716508Y-12718354D02*
X16746508Y-12748354D01*
X16746508Y-12718354D02*
X16716508Y-12748354D01*
X16719003Y-12893986D02*
X16749003Y-12923986D01*
X16749003Y-12893986D02*
X16719003Y-12923986D01*
X16719003Y-13193986D02*
X16749003Y-13223986D01*
X16749003Y-13193986D02*
X16719003Y-13223986D01*
X16719003Y-13503986D02*
X16749003Y-13533986D01*
X16749003Y-13503986D02*
X16719003Y-13533986D01*
X16720000Y-10608000D02*
X16750000Y-10638000D01*
X16750000Y-10608000D02*
X16720000Y-10638000D01*
X16850000Y-8197500D02*
X16880000Y-8227500D01*
X16880000Y-8197500D02*
X16850000Y-8227500D01*
X16964004Y-13494336D02*
X16994004Y-13524336D01*
X16994004Y-13494336D02*
X16964004Y-13524336D01*
X16987500Y-8115000D02*
X17017500Y-8145000D01*
X17017500Y-8115000D02*
X16987500Y-8145000D01*
X17007500Y-11135000D02*
X17037500Y-11165000D01*
X17037500Y-11135000D02*
X17007500Y-11165000D01*
X17031000Y-12380000D02*
X17061000Y-12410000D01*
X17061000Y-12380000D02*
X17031000Y-12410000D01*
X17070000Y-11502000D02*
X17100000Y-11532000D01*
X17100000Y-11502000D02*
X17070000Y-11532000D01*
X17072500Y-11071361D02*
X17102500Y-11101361D01*
X17102500Y-11071361D02*
X17072500Y-11101361D01*
X17114466Y-10857124D02*
X17144466Y-10887124D01*
X17144466Y-10857124D02*
X17114466Y-10887124D01*
X17117500Y-8012500D02*
X17147500Y-8042500D01*
X17147500Y-8012500D02*
X17117500Y-8042500D01*
X17120478Y-10978288D02*
X17150478Y-11008288D01*
X17150478Y-10978288D02*
X17120478Y-11008288D01*
X17124000Y-12304000D02*
X17154000Y-12334000D01*
X17154000Y-12304000D02*
X17124000Y-12334000D01*
X17159000Y-13939000D02*
X17189000Y-13969000D01*
X17189000Y-13939000D02*
X17159000Y-13969000D01*
X17165000Y-10752500D02*
X17195000Y-10782500D01*
X17195000Y-10752500D02*
X17165000Y-10782500D01*
X17207500Y-11230000D02*
X17237500Y-11260000D01*
X17237500Y-11230000D02*
X17207500Y-11260000D01*
X17215000Y-12347000D02*
X17245000Y-12377000D01*
X17245000Y-12347000D02*
X17215000Y-12377000D01*
X17237500Y-10692500D02*
X17267500Y-10722500D01*
X17267500Y-10692500D02*
X17237500Y-10722500D01*
X17268004Y-12979986D02*
X17298004Y-13009986D01*
X17298004Y-12979986D02*
X17268004Y-13009986D01*
X17288000Y-12459000D02*
X17318000Y-12489000D01*
X17318000Y-12459000D02*
X17288000Y-12489000D01*
X17305000Y-10612500D02*
X17335000Y-10642500D01*
X17335000Y-10612500D02*
X17305000Y-10642500D01*
X17317000Y-11300000D02*
X17347000Y-11330000D01*
X17347000Y-11300000D02*
X17317000Y-11330000D01*
X17351000Y-12031500D02*
X17381000Y-12061500D01*
X17381000Y-12031500D02*
X17351000Y-12061500D01*
X17380000Y-12175000D02*
X17410000Y-12205000D01*
X17410000Y-12175000D02*
X17380000Y-12205000D01*
X17553500Y-9976000D02*
X17583500Y-10006000D01*
X17583500Y-9976000D02*
X17553500Y-10006000D01*
X17589204Y-12979986D02*
X17619204Y-13009986D01*
X17619204Y-12979986D02*
X17589204Y-13009986D01*
X17684104Y-13103986D02*
X17714104Y-13133986D01*
X17714104Y-13103986D02*
X17684104Y-13133986D01*
X17838500Y-11063000D02*
X17868500Y-11093000D01*
X17868500Y-11063000D02*
X17838500Y-11093000D01*
X17874104Y-13033986D02*
X17904104Y-13063986D01*
X17904104Y-13033986D02*
X17874104Y-13063986D01*
X17941000Y-11625000D02*
X17971000Y-11655000D01*
X17971000Y-11625000D02*
X17941000Y-11655000D01*
X17952000Y-11777000D02*
X17982000Y-11807000D01*
X17982000Y-11777000D02*
X17952000Y-11807000D01*
X17960000Y-10840000D02*
X17990000Y-10870000D01*
X17990000Y-10840000D02*
X17960000Y-10870000D01*
X17963000Y-8666500D02*
X17993000Y-8696500D01*
X17993000Y-8666500D02*
X17963000Y-8696500D01*
X18004104Y-12599486D02*
X18034104Y-12629486D01*
X18034104Y-12599486D02*
X18004104Y-12629486D01*
X18014104Y-12773986D02*
X18044104Y-12803986D01*
X18044104Y-12773986D02*
X18014104Y-12803986D01*
X18014104Y-12893986D02*
X18044104Y-12923986D01*
X18044104Y-12893986D02*
X18014104Y-12923986D01*
X18031000Y-11981500D02*
X18061000Y-12011500D01*
X18061000Y-11981500D02*
X18031000Y-12011500D01*
X18048500Y-11701500D02*
X18078500Y-11731500D01*
X18078500Y-11701500D02*
X18048500Y-11731500D01*
X18066000Y-11549000D02*
X18096000Y-11579000D01*
X18096000Y-11549000D02*
X18066000Y-11579000D01*
X18077500Y-10547500D02*
X18107500Y-10577500D01*
X18107500Y-10547500D02*
X18077500Y-10577500D01*
X18098000Y-8874000D02*
X18128000Y-8904000D01*
X18128000Y-8874000D02*
X18098000Y-8904000D01*
X18176000Y-11419000D02*
X18206000Y-11449000D01*
X18206000Y-11419000D02*
X18176000Y-11449000D01*
X18353500Y-11216500D02*
X18383500Y-11246500D01*
X18383500Y-11216500D02*
X18353500Y-11246500D01*
X18358500Y-11784000D02*
X18388500Y-11814000D01*
X18388500Y-11784000D02*
X18358500Y-11814000D01*
X18563500Y-11414000D02*
X18593500Y-11444000D01*
X18593500Y-11414000D02*
X18563500Y-11444000D01*
X18621000Y-11216500D02*
X18651000Y-11246500D01*
X18651000Y-11216500D02*
X18621000Y-11246500D01*
X18786000Y-11006500D02*
X18816000Y-11036500D01*
X18816000Y-11006500D02*
X18786000Y-11036500D01*
X19043500Y-11084000D02*
X19073500Y-11114000D01*
X19073500Y-11084000D02*
X19043500Y-11114000D01*
X19043500Y-11194000D02*
X19073500Y-11224000D01*
X19073500Y-11194000D02*
X19043500Y-11224000D01*
X19043500Y-11304000D02*
X19073500Y-11334000D01*
X19073500Y-11304000D02*
X19043500Y-11334000D01*
X19043500Y-11414000D02*
X19073500Y-11444000D01*
X19073500Y-11414000D02*
X19043500Y-11444000D01*
X19043500Y-11524000D02*
X19073500Y-11554000D01*
X19073500Y-11524000D02*
X19043500Y-11554000D01*
X19043500Y-11744000D02*
X19073500Y-11774000D01*
X19073500Y-11744000D02*
X19043500Y-11774000D01*
X19043500Y-11854000D02*
X19073500Y-11884000D01*
X19073500Y-11854000D02*
X19043500Y-11884000D01*
X19298000Y-9144000D02*
X19328000Y-9174000D01*
X19328000Y-9144000D02*
X19298000Y-9174000D01*
X16289003Y-13029336D02*
G75*
G02*
X16259003Y-13029336I-15000J0D01*
G01*
X16259003Y-13029336D02*
G75*
G02*
X16289003Y-13029336I15000J0D01*
G01*
X16289003Y-13129336D02*
G75*
G02*
X16259003Y-13129336I-15000J0D01*
G01*
X16259003Y-13129336D02*
G75*
G02*
X16289003Y-13129336I15000J0D01*
G01*
X16289003Y-13229336D02*
G75*
G02*
X16259003Y-13229336I-15000J0D01*
G01*
X16259003Y-13229336D02*
G75*
G02*
X16289003Y-13229336I15000J0D01*
G01*
X16389003Y-13029336D02*
G75*
G02*
X16359003Y-13029336I-15000J0D01*
G01*
X16359003Y-13029336D02*
G75*
G02*
X16389003Y-13029336I15000J0D01*
G01*
X16389003Y-13129336D02*
G75*
G02*
X16359003Y-13129336I-15000J0D01*
G01*
X16359003Y-13129336D02*
G75*
G02*
X16389003Y-13129336I15000J0D01*
G01*
X16389003Y-13229336D02*
G75*
G02*
X16359003Y-13229336I-15000J0D01*
G01*
X16359003Y-13229336D02*
G75*
G02*
X16389003Y-13229336I15000J0D01*
G01*
X16489003Y-13029336D02*
G75*
G02*
X16459003Y-13029336I-15000J0D01*
G01*
X16459003Y-13029336D02*
G75*
G02*
X16489003Y-13029336I15000J0D01*
G01*
X16489003Y-13129336D02*
G75*
G02*
X16459003Y-13129336I-15000J0D01*
G01*
X16459003Y-13129336D02*
G75*
G02*
X16489003Y-13129336I15000J0D01*
G01*
X16489003Y-13229336D02*
G75*
G02*
X16459003Y-13229336I-15000J0D01*
G01*
X16459003Y-13229336D02*
G75*
G02*
X16489003Y-13229336I15000J0D01*
G01*
X17917000Y-13822000D02*
X17917000Y-13902000D01*
X17877000Y-13862000D02*
X17957000Y-13862000D01*
X18167000Y-13822000D02*
X18167000Y-13902000D01*
X18127000Y-13862000D02*
X18207000Y-13862000D01*
X18686588Y-12860588D02*
X18686588Y-12793412D01*
X18619412Y-12793412D01*
X18619412Y-12860588D01*
X18686588Y-12860588D01*
X18686588Y-13110588D02*
X18686588Y-13043412D01*
X18619412Y-13043412D01*
X18619412Y-13110588D01*
X18686588Y-13110588D01*
X18686588Y-13310588D02*
X18686588Y-13243412D01*
X18619412Y-13243412D01*
X18619412Y-13310588D01*
X18686588Y-13310588D01*
X18686588Y-13560588D02*
X18686588Y-13493412D01*
X18619412Y-13493412D01*
X18619412Y-13560588D01*
X18686588Y-13560588D01*
X10288980Y-8175640D02*
X10338980Y-8125640D01*
X10288980Y-8075640D01*
X10238980Y-8125640D01*
X10288980Y-8175640D01*
X10288980Y-8429640D02*
X10338980Y-8379640D01*
X10288980Y-8329640D01*
X10238980Y-8379640D01*
X10288980Y-8429640D01*
X10288980Y-8683640D02*
X10338980Y-8633640D01*
X10288980Y-8583640D01*
X10238980Y-8633640D01*
X10288980Y-8683640D01*
X10288980Y-8937640D02*
X10338980Y-8887640D01*
X10288980Y-8837640D01*
X10238980Y-8887640D01*
X10288980Y-8937640D01*
X10288980Y-9191640D02*
X10338980Y-9141640D01*
X10288980Y-9091640D01*
X10238980Y-9141640D01*
X10288980Y-9191640D01*
X10288980Y-9445640D02*
X10338980Y-9395640D01*
X10288980Y-9345640D01*
X10238980Y-9395640D01*
X10288980Y-9445640D01*
X10288980Y-9699640D02*
X10338980Y-9649640D01*
X10288980Y-9599640D01*
X10238980Y-9649640D01*
X10288980Y-9699640D01*
X10288980Y-9953640D02*
X10338980Y-9903640D01*
X10288980Y-9853640D01*
X10238980Y-9903640D01*
X10288980Y-9953640D01*
X10288980Y-10207640D02*
X10338980Y-10157640D01*
X10288980Y-10107640D01*
X10238980Y-10157640D01*
X10288980Y-10207640D01*
X10288980Y-10461640D02*
X10338980Y-10411640D01*
X10288980Y-10361640D01*
X10238980Y-10411640D01*
X10288980Y-10461640D01*
X10288980Y-10715640D02*
X10338980Y-10665640D01*
X10288980Y-10615640D01*
X10238980Y-10665640D01*
X10288980Y-10715640D01*
X10288980Y-10969640D02*
X10338980Y-10919640D01*
X10288980Y-10869640D01*
X10238980Y-10919640D01*
X10288980Y-10969640D01*
X10288980Y-11223640D02*
X10338980Y-11173640D01*
X10288980Y-11123640D01*
X10238980Y-11173640D01*
X10288980Y-11223640D01*
X10288980Y-11477640D02*
X10338980Y-11427640D01*
X10288980Y-11377640D01*
X10238980Y-11427640D01*
X10288980Y-11477640D01*
X10288980Y-11731640D02*
X10338980Y-11681640D01*
X10288980Y-11631640D01*
X10238980Y-11681640D01*
X10288980Y-11731640D01*
X10288980Y-11985640D02*
X10338980Y-11935640D01*
X10288980Y-11885640D01*
X10238980Y-11935640D01*
X10288980Y-11985640D01*
X10288980Y-12239640D02*
X10338980Y-12189640D01*
X10288980Y-12139640D01*
X10238980Y-12189640D01*
X10288980Y-12239640D01*
X10288980Y-12493640D02*
X10338980Y-12443640D01*
X10288980Y-12393640D01*
X10238980Y-12443640D01*
X10288980Y-12493640D01*
X10288980Y-12747640D02*
X10338980Y-12697640D01*
X10288980Y-12647640D01*
X10238980Y-12697640D01*
X10288980Y-12747640D01*
X10288980Y-13001640D02*
X10338980Y-12951640D01*
X10288980Y-12901640D01*
X10238980Y-12951640D01*
X10288980Y-13001640D01*
X10288980Y-13255640D02*
X10338980Y-13205640D01*
X10288980Y-13155640D01*
X10238980Y-13205640D01*
X10288980Y-13255640D01*
X10288980Y-13509640D02*
X10338980Y-13459640D01*
X10288980Y-13409640D01*
X10238980Y-13459640D01*
X10288980Y-13509640D01*
X10796980Y-8175640D02*
X10846980Y-8125640D01*
X10796980Y-8075640D01*
X10746980Y-8125640D01*
X10796980Y-8175640D01*
X10796980Y-8429640D02*
X10846980Y-8379640D01*
X10796980Y-8329640D01*
X10746980Y-8379640D01*
X10796980Y-8429640D01*
X10796980Y-8683640D02*
X10846980Y-8633640D01*
X10796980Y-8583640D01*
X10746980Y-8633640D01*
X10796980Y-8683640D01*
X10796980Y-8937640D02*
X10846980Y-8887640D01*
X10796980Y-8837640D01*
X10746980Y-8887640D01*
X10796980Y-8937640D01*
X10796980Y-9191640D02*
X10846980Y-9141640D01*
X10796980Y-9091640D01*
X10746980Y-9141640D01*
X10796980Y-9191640D01*
X10796980Y-9445640D02*
X10846980Y-9395640D01*
X10796980Y-9345640D01*
X10746980Y-9395640D01*
X10796980Y-9445640D01*
X10796980Y-9699640D02*
X10846980Y-9649640D01*
X10796980Y-9599640D01*
X10746980Y-9649640D01*
X10796980Y-9699640D01*
X10796980Y-9953640D02*
X10846980Y-9903640D01*
X10796980Y-9853640D01*
X10746980Y-9903640D01*
X10796980Y-9953640D01*
X10796980Y-10207640D02*
X10846980Y-10157640D01*
X10796980Y-10107640D01*
X10746980Y-10157640D01*
X10796980Y-10207640D01*
X10796980Y-10461640D02*
X10846980Y-10411640D01*
X10796980Y-10361640D01*
X10746980Y-10411640D01*
X10796980Y-10461640D01*
X10796980Y-10715640D02*
X10846980Y-10665640D01*
X10796980Y-10615640D01*
X10746980Y-10665640D01*
X10796980Y-10715640D01*
X10796980Y-10969640D02*
X10846980Y-10919640D01*
X10796980Y-10869640D01*
X10746980Y-10919640D01*
X10796980Y-10969640D01*
X10796980Y-11223640D02*
X10846980Y-11173640D01*
X10796980Y-11123640D01*
X10746980Y-11173640D01*
X10796980Y-11223640D01*
X10796980Y-11477640D02*
X10846980Y-11427640D01*
X10796980Y-11377640D01*
X10746980Y-11427640D01*
X10796980Y-11477640D01*
X10796980Y-11731640D02*
X10846980Y-11681640D01*
X10796980Y-11631640D01*
X10746980Y-11681640D01*
X10796980Y-11731640D01*
X10796980Y-11985640D02*
X10846980Y-11935640D01*
X10796980Y-11885640D01*
X10746980Y-11935640D01*
X10796980Y-11985640D01*
X10796980Y-12239640D02*
X10846980Y-12189640D01*
X10796980Y-12139640D01*
X10746980Y-12189640D01*
X10796980Y-12239640D01*
X10796980Y-12493640D02*
X10846980Y-12443640D01*
X10796980Y-12393640D01*
X10746980Y-12443640D01*
X10796980Y-12493640D01*
X10796980Y-12747640D02*
X10846980Y-12697640D01*
X10796980Y-12647640D01*
X10746980Y-12697640D01*
X10796980Y-12747640D01*
X10796980Y-13001640D02*
X10846980Y-12951640D01*
X10796980Y-12901640D01*
X10746980Y-12951640D01*
X10796980Y-13001640D01*
X10796980Y-13255640D02*
X10846980Y-13205640D01*
X10796980Y-13155640D01*
X10746980Y-13205640D01*
X10796980Y-13255640D01*
X10796980Y-13509640D02*
X10846980Y-13459640D01*
X10796980Y-13409640D01*
X10746980Y-13459640D01*
X10796980Y-13509640D01*
X11512000Y-12211000D02*
X11562000Y-12161000D01*
X11512000Y-12111000D01*
X11462000Y-12161000D01*
X11512000Y-12211000D01*
X11512000Y-12465000D02*
X11562000Y-12415000D01*
X11512000Y-12365000D01*
X11462000Y-12415000D01*
X11512000Y-12465000D01*
X11512000Y-12719000D02*
X11562000Y-12669000D01*
X11512000Y-12619000D01*
X11462000Y-12669000D01*
X11512000Y-12719000D01*
X11512000Y-12973000D02*
X11562000Y-12923000D01*
X11512000Y-12873000D01*
X11462000Y-12923000D01*
X11512000Y-12973000D01*
X11512000Y-13227000D02*
X11562000Y-13177000D01*
X11512000Y-13127000D01*
X11462000Y-13177000D01*
X11512000Y-13227000D01*
X11512000Y-13481000D02*
X11562000Y-13431000D01*
X11512000Y-13381000D01*
X11462000Y-13431000D01*
X11512000Y-13481000D01*
X11512000Y-13735000D02*
X11562000Y-13685000D01*
X11512000Y-13635000D01*
X11462000Y-13685000D01*
X11512000Y-13735000D01*
X11512000Y-13989000D02*
X11562000Y-13939000D01*
X11512000Y-13889000D01*
X11462000Y-13939000D01*
X11512000Y-13989000D01*
X12326000Y-9390000D02*
X12376000Y-9340000D01*
X12326000Y-9290000D01*
X12276000Y-9340000D01*
X12326000Y-9390000D01*
X12326000Y-9644000D02*
X12376000Y-9594000D01*
X12326000Y-9544000D01*
X12276000Y-9594000D01*
X12326000Y-9644000D01*
X12326000Y-9898000D02*
X12376000Y-9848000D01*
X12326000Y-9798000D01*
X12276000Y-9848000D01*
X12326000Y-9898000D01*
X12326000Y-10152000D02*
X12376000Y-10102000D01*
X12326000Y-10052000D01*
X12276000Y-10102000D01*
X12326000Y-10152000D01*
X12326000Y-10406000D02*
X12376000Y-10356000D01*
X12326000Y-10306000D01*
X12276000Y-10356000D01*
X12326000Y-10406000D01*
X12326000Y-10660000D02*
X12376000Y-10610000D01*
X12326000Y-10560000D01*
X12276000Y-10610000D01*
X12326000Y-10660000D01*
X12326000Y-10914000D02*
X12376000Y-10864000D01*
X12326000Y-10814000D01*
X12276000Y-10864000D01*
X12326000Y-10914000D01*
X12326000Y-11168000D02*
X12376000Y-11118000D01*
X12326000Y-11068000D01*
X12276000Y-11118000D01*
X12326000Y-11168000D01*
X12326000Y-11422000D02*
X12376000Y-11372000D01*
X12326000Y-11322000D01*
X12276000Y-11372000D01*
X12326000Y-11422000D01*
X12326000Y-11676000D02*
X12376000Y-11626000D01*
X12326000Y-11576000D01*
X12276000Y-11626000D01*
X12326000Y-11676000D01*
X12326000Y-11930000D02*
X12376000Y-11880000D01*
X12326000Y-11830000D01*
X12276000Y-11880000D01*
X12326000Y-11930000D01*
X12326000Y-12184000D02*
X12376000Y-12134000D01*
X12326000Y-12084000D01*
X12276000Y-12134000D01*
X12326000Y-12184000D01*
X12326000Y-12438000D02*
X12376000Y-12388000D01*
X12326000Y-12338000D01*
X12276000Y-12388000D01*
X12326000Y-12438000D01*
X12326000Y-12692000D02*
X12376000Y-12642000D01*
X12326000Y-12592000D01*
X12276000Y-12642000D01*
X12326000Y-12692000D01*
X12326000Y-12946000D02*
X12376000Y-12896000D01*
X12326000Y-12846000D01*
X12276000Y-12896000D01*
X12326000Y-12946000D01*
X12326000Y-13200000D02*
X12376000Y-13150000D01*
X12326000Y-13100000D01*
X12276000Y-13150000D01*
X12326000Y-13200000D01*
X12326000Y-13454000D02*
X12376000Y-13404000D01*
X12326000Y-13354000D01*
X12276000Y-13404000D01*
X12326000Y-13454000D01*
X12326000Y-13708000D02*
X12376000Y-13658000D01*
X12326000Y-13608000D01*
X12276000Y-13658000D01*
X12326000Y-13708000D01*
X12326000Y-13962000D02*
X12376000Y-13912000D01*
X12326000Y-13862000D01*
X12276000Y-13912000D01*
X12326000Y-13962000D01*
X12326000Y-14216000D02*
X12376000Y-14166000D01*
X12326000Y-14116000D01*
X12276000Y-14166000D01*
X12326000Y-14216000D01*
X13047000Y-7200000D02*
X13097000Y-7150000D01*
X13047000Y-7100000D01*
X12997000Y-7150000D01*
X13047000Y-7200000D01*
X13047000Y-7600000D02*
X13097000Y-7550000D01*
X13047000Y-7500000D01*
X12997000Y-7550000D01*
X13047000Y-7600000D01*
X13301000Y-7200000D02*
X13351000Y-7150000D01*
X13301000Y-7100000D01*
X13251000Y-7150000D01*
X13301000Y-7200000D01*
X13301000Y-7600000D02*
X13351000Y-7550000D01*
X13301000Y-7500000D01*
X13251000Y-7550000D01*
X13301000Y-7600000D01*
X13555000Y-7200000D02*
X13605000Y-7150000D01*
X13555000Y-7100000D01*
X13505000Y-7150000D01*
X13555000Y-7200000D01*
X13555000Y-7600000D02*
X13605000Y-7550000D01*
X13555000Y-7500000D01*
X13505000Y-7550000D01*
X13555000Y-7600000D01*
X13809000Y-7200000D02*
X13859000Y-7150000D01*
X13809000Y-7100000D01*
X13759000Y-7150000D01*
X13809000Y-7200000D01*
X13850000Y-9390000D02*
X13900000Y-9340000D01*
X13850000Y-9290000D01*
X13800000Y-9340000D01*
X13850000Y-9390000D01*
X13850000Y-9644000D02*
X13900000Y-9594000D01*
X13850000Y-9544000D01*
X13800000Y-9594000D01*
X13850000Y-9644000D01*
X13850000Y-9898000D02*
X13900000Y-9848000D01*
X13850000Y-9798000D01*
X13800000Y-9848000D01*
X13850000Y-9898000D01*
X13850000Y-10152000D02*
X13900000Y-10102000D01*
X13850000Y-10052000D01*
X13800000Y-10102000D01*
X13850000Y-10152000D01*
X13850000Y-10406000D02*
X13900000Y-10356000D01*
X13850000Y-10306000D01*
X13800000Y-10356000D01*
X13850000Y-10406000D01*
X13850000Y-10660000D02*
X13900000Y-10610000D01*
X13850000Y-10560000D01*
X13800000Y-10610000D01*
X13850000Y-10660000D01*
X13850000Y-10914000D02*
X13900000Y-10864000D01*
X13850000Y-10814000D01*
X13800000Y-10864000D01*
X13850000Y-10914000D01*
X13850000Y-11168000D02*
X13900000Y-11118000D01*
X13850000Y-11068000D01*
X13800000Y-11118000D01*
X13850000Y-11168000D01*
X13850000Y-11422000D02*
X13900000Y-11372000D01*
X13850000Y-11322000D01*
X13800000Y-11372000D01*
X13850000Y-11422000D01*
X13850000Y-11676000D02*
X13900000Y-11626000D01*
X13850000Y-11576000D01*
X13800000Y-11626000D01*
X13850000Y-11676000D01*
X13850000Y-11930000D02*
X13900000Y-11880000D01*
X13850000Y-11830000D01*
X13800000Y-11880000D01*
X13850000Y-11930000D01*
X13850000Y-12184000D02*
X13900000Y-12134000D01*
X13850000Y-12084000D01*
X13800000Y-12134000D01*
X13850000Y-12184000D01*
X13850000Y-12438000D02*
X13900000Y-12388000D01*
X13850000Y-12338000D01*
X13800000Y-12388000D01*
X13850000Y-12438000D01*
X13850000Y-12692000D02*
X13900000Y-12642000D01*
X13850000Y-12592000D01*
X13800000Y-12642000D01*
X13850000Y-12692000D01*
X13850000Y-12946000D02*
X13900000Y-12896000D01*
X13850000Y-12846000D01*
X13800000Y-12896000D01*
X13850000Y-12946000D01*
X13850000Y-13200000D02*
X13900000Y-13150000D01*
X13850000Y-13100000D01*
X13800000Y-13150000D01*
X13850000Y-13200000D01*
X13850000Y-13454000D02*
X13900000Y-13404000D01*
X13850000Y-13354000D01*
X13800000Y-13404000D01*
X13850000Y-13454000D01*
X13850000Y-13708000D02*
X13900000Y-13658000D01*
X13850000Y-13608000D01*
X13800000Y-13658000D01*
X13850000Y-13708000D01*
X13850000Y-13962000D02*
X13900000Y-13912000D01*
X13850000Y-13862000D01*
X13800000Y-13912000D01*
X13850000Y-13962000D01*
X13850000Y-14216000D02*
X13900000Y-14166000D01*
X13850000Y-14116000D01*
X13800000Y-14166000D01*
X13850000Y-14216000D01*
X14063000Y-7200000D02*
X14113000Y-7150000D01*
X14063000Y-7100000D01*
X14013000Y-7150000D01*
X14063000Y-7200000D01*
X14317000Y-7200000D02*
X14367000Y-7150000D01*
X14317000Y-7100000D01*
X14267000Y-7150000D01*
X14317000Y-7200000D01*
X14571000Y-7200000D02*
X14621000Y-7150000D01*
X14571000Y-7100000D01*
X14521000Y-7150000D01*
X14571000Y-7200000D01*
X14825000Y-7200000D02*
X14875000Y-7150000D01*
X14825000Y-7100000D01*
X14775000Y-7150000D01*
X14825000Y-7200000D01*
X15079000Y-7200000D02*
X15129000Y-7150000D01*
X15079000Y-7100000D01*
X15029000Y-7150000D01*
X15079000Y-7200000D01*
X15333000Y-7200000D02*
X15383000Y-7150000D01*
X15333000Y-7100000D01*
X15283000Y-7150000D01*
X15333000Y-7200000D01*
X15333000Y-14687000D02*
X15383000Y-14637000D01*
X15333000Y-14587000D01*
X15283000Y-14637000D01*
X15333000Y-14687000D01*
X15587000Y-14687000D02*
X15637000Y-14637000D01*
X15587000Y-14587000D01*
X15537000Y-14637000D01*
X15587000Y-14687000D01*
X15841000Y-14687000D02*
X15891000Y-14637000D01*
X15841000Y-14587000D01*
X15791000Y-14637000D01*
X15841000Y-14687000D01*
X17663000Y-14433000D02*
X17713000Y-14383000D01*
X17663000Y-14333000D01*
X17613000Y-14383000D01*
X17663000Y-14433000D01*
X17663000Y-14687000D02*
X17713000Y-14637000D01*
X17663000Y-14587000D01*
X17613000Y-14637000D01*
X17663000Y-14687000D01*
X17733500Y-9342000D02*
X17783500Y-9292000D01*
X17733500Y-9242000D01*
X17683500Y-9292000D01*
X17733500Y-9342000D01*
X17733500Y-9596000D02*
X17783500Y-9546000D01*
X17733500Y-9496000D01*
X17683500Y-9546000D01*
X17733500Y-9596000D01*
X17917000Y-14433000D02*
X17967000Y-14383000D01*
X17917000Y-14333000D01*
X17867000Y-14383000D01*
X17917000Y-14433000D01*
X17917000Y-14687000D02*
X17967000Y-14637000D01*
X17917000Y-14587000D01*
X17867000Y-14637000D01*
X17917000Y-14687000D01*
X18171000Y-14433000D02*
X18221000Y-14383000D01*
X18171000Y-14333000D01*
X18121000Y-14383000D01*
X18171000Y-14433000D01*
X18171000Y-14687000D02*
X18221000Y-14637000D01*
X18171000Y-14587000D01*
X18121000Y-14637000D01*
X18171000Y-14687000D01*
D12*
X18693500Y-8488500D02*
X18812500Y-8607500D01*
X18812500Y-8488500D02*
X18693500Y-8607500D01*
X18812500Y-8548000D02*
G75*
G02*
X18693500Y-8548000I-59500J0D01*
G01*
X18693500Y-8548000D02*
G75*
G02*
X18812500Y-8548000I59500J0D01*
G01*
X18693500Y-8717500D02*
X18812500Y-8836500D01*
X18812500Y-8717500D02*
X18693500Y-8836500D01*
X18812500Y-8777000D02*
G75*
G02*
X18693500Y-8777000I-59500J0D01*
G01*
X18693500Y-8777000D02*
G75*
G02*
X18812500Y-8777000I59500J0D01*
G01*
X18693500Y-8946500D02*
X18812500Y-9065500D01*
X18812500Y-8946500D02*
X18693500Y-9065500D01*
X18812500Y-9006000D02*
G75*
G02*
X18693500Y-9006000I-59500J0D01*
G01*
X18693500Y-9006000D02*
G75*
G02*
X18812500Y-9006000I59500J0D01*
G01*
X18693500Y-9175500D02*
X18812500Y-9294500D01*
X18812500Y-9175500D02*
X18693500Y-9294500D01*
X18812500Y-9235000D02*
G75*
G02*
X18693500Y-9235000I-59500J0D01*
G01*
X18693500Y-9235000D02*
G75*
G02*
X18812500Y-9235000I59500J0D01*
G01*
X18693500Y-9404500D02*
X18812500Y-9523500D01*
X18812500Y-9404500D02*
X18693500Y-9523500D01*
X18812500Y-9464000D02*
G75*
G02*
X18693500Y-9464000I-59500J0D01*
G01*
X18693500Y-9464000D02*
G75*
G02*
X18812500Y-9464000I59500J0D01*
G01*
X18903500Y-8374500D02*
X19022500Y-8493500D01*
X19022500Y-8374500D02*
X18903500Y-8493500D01*
X19022500Y-8434000D02*
G75*
G02*
X18903500Y-8434000I-59500J0D01*
G01*
X18903500Y-8434000D02*
G75*
G02*
X19022500Y-8434000I59500J0D01*
G01*
X18903500Y-8603500D02*
X19022500Y-8722500D01*
X19022500Y-8603500D02*
X18903500Y-8722500D01*
X19022500Y-8663000D02*
G75*
G02*
X18903500Y-8663000I-59500J0D01*
G01*
X18903500Y-8663000D02*
G75*
G02*
X19022500Y-8663000I59500J0D01*
G01*
X18903500Y-8832500D02*
X19022500Y-8951500D01*
X19022500Y-8832500D02*
X18903500Y-8951500D01*
X19022500Y-8892000D02*
G75*
G02*
X18903500Y-8892000I-59500J0D01*
G01*
X18903500Y-8892000D02*
G75*
G02*
X19022500Y-8892000I59500J0D01*
G01*
X18903500Y-9061500D02*
X19022500Y-9180500D01*
X19022500Y-9061500D02*
X18903500Y-9180500D01*
X19022500Y-9121000D02*
G75*
G02*
X18903500Y-9121000I-59500J0D01*
G01*
X18903500Y-9121000D02*
G75*
G02*
X19022500Y-9121000I59500J0D01*
G01*
X18903500Y-9290500D02*
X19022500Y-9409500D01*
X19022500Y-9290500D02*
X18903500Y-9409500D01*
X19022500Y-9350000D02*
G75*
G02*
X18903500Y-9350000I-59500J0D01*
G01*
X18903500Y-9350000D02*
G75*
G02*
X19022500Y-9350000I59500J0D01*
G01*
X19111500Y-8488500D02*
X19230500Y-8607500D01*
X19230500Y-8488500D02*
X19111500Y-8607500D01*
X19230500Y-8548000D02*
G75*
G02*
X19111500Y-8548000I-59500J0D01*
G01*
X19111500Y-8548000D02*
G75*
G02*
X19230500Y-8548000I59500J0D01*
G01*
X19111500Y-8717500D02*
X19230500Y-8836500D01*
X19230500Y-8717500D02*
X19111500Y-8836500D01*
X19230500Y-8777000D02*
G75*
G02*
X19111500Y-8777000I-59500J0D01*
G01*
X19111500Y-8777000D02*
G75*
G02*
X19230500Y-8777000I59500J0D01*
G01*
X19111500Y-8946500D02*
X19230500Y-9065500D01*
X19230500Y-8946500D02*
X19111500Y-9065500D01*
X19230500Y-9006000D02*
G75*
G02*
X19111500Y-9006000I-59500J0D01*
G01*
X19111500Y-9006000D02*
G75*
G02*
X19230500Y-9006000I59500J0D01*
G01*
X19111500Y-9175500D02*
X19230500Y-9294500D01*
X19230500Y-9175500D02*
X19111500Y-9294500D01*
X19230500Y-9235000D02*
G75*
G02*
X19111500Y-9235000I-59500J0D01*
G01*
X19111500Y-9235000D02*
G75*
G02*
X19230500Y-9235000I59500J0D01*
G01*
X19111500Y-9404500D02*
X19230500Y-9523500D01*
X19230500Y-9404500D02*
X19111500Y-9523500D01*
X19230500Y-9464000D02*
G75*
G02*
X19111500Y-9464000I-59500J0D01*
G01*
X19111500Y-9464000D02*
G75*
G02*
X19230500Y-9464000I59500J0D01*
G01*
D13*
X10199000Y-5791000D02*
X10341000Y-5933000D01*
X10341000Y-5791000D02*
X10199000Y-5933000D01*
X10270000Y-5791000D02*
X10270000Y-5933000D01*
X10199000Y-5862000D02*
X10341000Y-5862000D01*
X10199000Y-6299000D02*
X10341000Y-6441000D01*
X10341000Y-6299000D02*
X10199000Y-6441000D01*
X10270000Y-6299000D02*
X10270000Y-6441000D01*
X10199000Y-6370000D02*
X10341000Y-6370000D01*
X10600000Y-5791000D02*
X10742000Y-5933000D01*
X10742000Y-5791000D02*
X10600000Y-5933000D01*
X10671000Y-5791000D02*
X10671000Y-5933000D01*
X10600000Y-5862000D02*
X10742000Y-5862000D01*
X10600000Y-6299000D02*
X10742000Y-6441000D01*
X10742000Y-6299000D02*
X10600000Y-6441000D01*
X10671000Y-6299000D02*
X10671000Y-6441000D01*
X10600000Y-6370000D02*
X10742000Y-6370000D01*
X10996000Y-5791000D02*
X11138000Y-5933000D01*
X11138000Y-5791000D02*
X10996000Y-5933000D01*
X11067000Y-5791000D02*
X11067000Y-5933000D01*
X10996000Y-5862000D02*
X11138000Y-5862000D01*
X10996000Y-6299000D02*
X11138000Y-6441000D01*
X11138000Y-6299000D02*
X10996000Y-6441000D01*
X11067000Y-6299000D02*
X11067000Y-6441000D01*
X10996000Y-6370000D02*
X11138000Y-6370000D01*
X11392000Y-5791000D02*
X11534000Y-5933000D01*
X11534000Y-5791000D02*
X11392000Y-5933000D01*
X11463000Y-5791000D02*
X11463000Y-5933000D01*
X11392000Y-5862000D02*
X11534000Y-5862000D01*
X11392000Y-6299000D02*
X11534000Y-6441000D01*
X11534000Y-6299000D02*
X11392000Y-6441000D01*
X11463000Y-6299000D02*
X11463000Y-6441000D01*
X11392000Y-6370000D02*
X11534000Y-6370000D01*
X11788000Y-5791000D02*
X11930000Y-5933000D01*
X11930000Y-5791000D02*
X11788000Y-5933000D01*
X11859000Y-5791000D02*
X11859000Y-5933000D01*
X11788000Y-5862000D02*
X11930000Y-5862000D01*
X11788000Y-6299000D02*
X11930000Y-6441000D01*
X11930000Y-6299000D02*
X11788000Y-6441000D01*
X11859000Y-6299000D02*
X11859000Y-6441000D01*
X11788000Y-6370000D02*
X11930000Y-6370000D01*
X12184000Y-5791000D02*
X12326000Y-5933000D01*
X12326000Y-5791000D02*
X12184000Y-5933000D01*
X12255000Y-5791000D02*
X12255000Y-5933000D01*
X12184000Y-5862000D02*
X12326000Y-5862000D01*
X12184000Y-6299000D02*
X12326000Y-6441000D01*
X12326000Y-6299000D02*
X12184000Y-6441000D01*
X12255000Y-6299000D02*
X12255000Y-6441000D01*
X12184000Y-6370000D02*
X12326000Y-6370000D01*
X12580000Y-5791000D02*
X12722000Y-5933000D01*
X12722000Y-5791000D02*
X12580000Y-5933000D01*
X12651000Y-5791000D02*
X12651000Y-5933000D01*
X12580000Y-5862000D02*
X12722000Y-5862000D01*
X12580000Y-6299000D02*
X12722000Y-6441000D01*
X12722000Y-6299000D02*
X12580000Y-6441000D01*
X12651000Y-6299000D02*
X12651000Y-6441000D01*
X12580000Y-6370000D02*
X12722000Y-6370000D01*
X12976000Y-5791000D02*
X13118000Y-5933000D01*
X13118000Y-5791000D02*
X12976000Y-5933000D01*
X13047000Y-5791000D02*
X13047000Y-5933000D01*
X12976000Y-5862000D02*
X13118000Y-5862000D01*
X12976000Y-6299000D02*
X13118000Y-6441000D01*
X13118000Y-6299000D02*
X12976000Y-6441000D01*
X13047000Y-6299000D02*
X13047000Y-6441000D01*
X12976000Y-6370000D02*
X13118000Y-6370000D01*
X13372000Y-5791000D02*
X13514000Y-5933000D01*
X13514000Y-5791000D02*
X13372000Y-5933000D01*
X13443000Y-5791000D02*
X13443000Y-5933000D01*
X13372000Y-5862000D02*
X13514000Y-5862000D01*
X13372000Y-6299000D02*
X13514000Y-6441000D01*
X13514000Y-6299000D02*
X13372000Y-6441000D01*
X13443000Y-6299000D02*
X13443000Y-6441000D01*
X13372000Y-6370000D02*
X13514000Y-6370000D01*
X13768000Y-5791000D02*
X13910000Y-5933000D01*
X13910000Y-5791000D02*
X13768000Y-5933000D01*
X13839000Y-5791000D02*
X13839000Y-5933000D01*
X13768000Y-5862000D02*
X13910000Y-5862000D01*
X13768000Y-6299000D02*
X13910000Y-6441000D01*
X13910000Y-6299000D02*
X13768000Y-6441000D01*
X13839000Y-6299000D02*
X13839000Y-6441000D01*
X13768000Y-6370000D02*
X13910000Y-6370000D01*
X14164000Y-5791000D02*
X14306000Y-5933000D01*
X14306000Y-5791000D02*
X14164000Y-5933000D01*
X14235000Y-5791000D02*
X14235000Y-5933000D01*
X14164000Y-5862000D02*
X14306000Y-5862000D01*
X14164000Y-6299000D02*
X14306000Y-6441000D01*
X14306000Y-6299000D02*
X14164000Y-6441000D01*
X14235000Y-6299000D02*
X14235000Y-6441000D01*
X14164000Y-6370000D02*
X14306000Y-6370000D01*
X14560000Y-5791000D02*
X14702000Y-5933000D01*
X14702000Y-5791000D02*
X14560000Y-5933000D01*
X14631000Y-5791000D02*
X14631000Y-5933000D01*
X14560000Y-5862000D02*
X14702000Y-5862000D01*
X14560000Y-6299000D02*
X14702000Y-6441000D01*
X14702000Y-6299000D02*
X14560000Y-6441000D01*
X14631000Y-6299000D02*
X14631000Y-6441000D01*
X14560000Y-6370000D02*
X14702000Y-6370000D01*
X14956000Y-5791000D02*
X15098000Y-5933000D01*
X15098000Y-5791000D02*
X14956000Y-5933000D01*
X15027000Y-5791000D02*
X15027000Y-5933000D01*
X14956000Y-5862000D02*
X15098000Y-5862000D01*
X14956000Y-6299000D02*
X15098000Y-6441000D01*
X15098000Y-6299000D02*
X14956000Y-6441000D01*
X15027000Y-6299000D02*
X15027000Y-6441000D01*
X14956000Y-6370000D02*
X15098000Y-6370000D01*
X15352000Y-5791000D02*
X15494000Y-5933000D01*
X15494000Y-5791000D02*
X15352000Y-5933000D01*
X15423000Y-5791000D02*
X15423000Y-5933000D01*
X15352000Y-5862000D02*
X15494000Y-5862000D01*
X15352000Y-6299000D02*
X15494000Y-6441000D01*
X15494000Y-6299000D02*
X15352000Y-6441000D01*
X15423000Y-6299000D02*
X15423000Y-6441000D01*
X15352000Y-6370000D02*
X15494000Y-6370000D01*
X15748000Y-5791000D02*
X15890000Y-5933000D01*
X15890000Y-5791000D02*
X15748000Y-5933000D01*
X15819000Y-5791000D02*
X15819000Y-5933000D01*
X15748000Y-5862000D02*
X15890000Y-5862000D01*
X15748000Y-6299000D02*
X15890000Y-6441000D01*
X15890000Y-6299000D02*
X15748000Y-6441000D01*
X15819000Y-6299000D02*
X15819000Y-6441000D01*
X15748000Y-6370000D02*
X15890000Y-6370000D01*
X16144000Y-5791000D02*
X16286000Y-5933000D01*
X16286000Y-5791000D02*
X16144000Y-5933000D01*
X16215000Y-5791000D02*
X16215000Y-5933000D01*
X16144000Y-5862000D02*
X16286000Y-5862000D01*
X16144000Y-6299000D02*
X16286000Y-6441000D01*
X16286000Y-6299000D02*
X16144000Y-6441000D01*
X16215000Y-6299000D02*
X16215000Y-6441000D01*
X16144000Y-6370000D02*
X16286000Y-6370000D01*
X16540000Y-5791000D02*
X16682000Y-5933000D01*
X16682000Y-5791000D02*
X16540000Y-5933000D01*
X16611000Y-5791000D02*
X16611000Y-5933000D01*
X16540000Y-5862000D02*
X16682000Y-5862000D01*
X16540000Y-6299000D02*
X16682000Y-6441000D01*
X16682000Y-6299000D02*
X16540000Y-6441000D01*
X16611000Y-6299000D02*
X16611000Y-6441000D01*
X16540000Y-6370000D02*
X16682000Y-6370000D01*
X16936000Y-5791000D02*
X17078000Y-5933000D01*
X17078000Y-5791000D02*
X16936000Y-5933000D01*
X17007000Y-5791000D02*
X17007000Y-5933000D01*
X16936000Y-5862000D02*
X17078000Y-5862000D01*
X16936000Y-6299000D02*
X17078000Y-6441000D01*
X17078000Y-6299000D02*
X16936000Y-6441000D01*
X17007000Y-6299000D02*
X17007000Y-6441000D01*
X16936000Y-6370000D02*
X17078000Y-6370000D01*
X17332000Y-5791000D02*
X17474000Y-5933000D01*
X17474000Y-5791000D02*
X17332000Y-5933000D01*
X17403000Y-5791000D02*
X17403000Y-5933000D01*
X17332000Y-5862000D02*
X17474000Y-5862000D01*
X17332000Y-6299000D02*
X17474000Y-6441000D01*
X17474000Y-6299000D02*
X17332000Y-6441000D01*
X17403000Y-6299000D02*
X17403000Y-6441000D01*
X17332000Y-6370000D02*
X17474000Y-6370000D01*
X17728000Y-5791000D02*
X17870000Y-5933000D01*
X17870000Y-5791000D02*
X17728000Y-5933000D01*
X17799000Y-5791000D02*
X17799000Y-5933000D01*
X17728000Y-5862000D02*
X17870000Y-5862000D01*
X17728000Y-6299000D02*
X17870000Y-6441000D01*
X17870000Y-6299000D02*
X17728000Y-6441000D01*
X17799000Y-6299000D02*
X17799000Y-6441000D01*
X17728000Y-6370000D02*
X17870000Y-6370000D01*
X18124000Y-5791000D02*
X18266000Y-5933000D01*
X18266000Y-5791000D02*
X18124000Y-5933000D01*
X18195000Y-5791000D02*
X18195000Y-5933000D01*
X18124000Y-5862000D02*
X18266000Y-5862000D01*
X18124000Y-6299000D02*
X18266000Y-6441000D01*
X18266000Y-6299000D02*
X18124000Y-6441000D01*
X18195000Y-6299000D02*
X18195000Y-6441000D01*
X18124000Y-6370000D02*
X18266000Y-6370000D01*
X18520000Y-5791000D02*
X18662000Y-5933000D01*
X18662000Y-5791000D02*
X18520000Y-5933000D01*
X18591000Y-5791000D02*
X18591000Y-5933000D01*
X18520000Y-5862000D02*
X18662000Y-5862000D01*
X18520000Y-6299000D02*
X18662000Y-6441000D01*
X18662000Y-6299000D02*
X18520000Y-6441000D01*
X18591000Y-6299000D02*
X18591000Y-6441000D01*
X18520000Y-6370000D02*
X18662000Y-6370000D01*
D14*
X18809000Y-12405000D02*
X19039000Y-12635000D01*
X19039000Y-12405000D02*
X18809000Y-12635000D01*
X19005318Y-12601318D02*
X19005318Y-12438682D01*
X18842682Y-12438682D01*
X18842682Y-12601318D01*
X19005318Y-12601318D01*
X18809000Y-13719000D02*
X19039000Y-13949000D01*
X19039000Y-13719000D02*
X18809000Y-13949000D01*
X19005318Y-13915318D02*
X19005318Y-13752682D01*
X18842682Y-13752682D01*
X18842682Y-13915318D01*
X19005318Y-13915318D01*
D15*
X18804000Y-7571000D02*
X19122000Y-7889000D01*
X19122000Y-7571000D02*
X18804000Y-7889000D01*
X18963000Y-7889000D02*
X19122000Y-7730000D01*
X18963000Y-7571000D01*
X18804000Y-7730000D01*
X18963000Y-7889000D01*
X18804000Y-10070000D02*
X19122000Y-10388000D01*
X19122000Y-10070000D02*
X18804000Y-10388000D01*
X18963000Y-10388000D02*
X19122000Y-10229000D01*
X18963000Y-10070000D01*
X18804000Y-10229000D01*
X18963000Y-10388000D01*
D16*
X9862980Y-7163140D02*
X9862980Y-7513140D01*
X9687980Y-7338140D02*
X10037980Y-7338140D01*
X10037980Y-7338140D02*
G75*
G02*
X9687980Y-7338140I-175000J0D01*
G01*
X9687980Y-7338140D02*
G75*
G02*
X10037980Y-7338140I175000J0D01*
G01*
X9862980Y-14072140D02*
X9862980Y-14422140D01*
X9687980Y-14247140D02*
X10037980Y-14247140D01*
X10037980Y-14247140D02*
G75*
G02*
X9687980Y-14247140I-175000J0D01*
G01*
X9687980Y-14247140D02*
G75*
G02*
X10037980Y-14247140I175000J0D01*
G01*
D11*
X9734597Y-15188124D02*
X9734597Y-14988124D01*
X9734597Y-14988124D02*
X9782216Y-14988124D01*
X9782216Y-14988124D02*
X9810787Y-14997647D01*
X9810787Y-14997647D02*
X9829835Y-15016695D01*
X9829835Y-15016695D02*
X9839359Y-15035743D01*
X9839359Y-15035743D02*
X9848883Y-15073838D01*
X9848883Y-15073838D02*
X9848883Y-15102409D01*
X9848883Y-15102409D02*
X9839359Y-15140505D01*
X9839359Y-15140505D02*
X9829835Y-15159552D01*
X9829835Y-15159552D02*
X9810787Y-15178600D01*
X9810787Y-15178600D02*
X9782216Y-15188124D01*
X9782216Y-15188124D02*
X9734597Y-15188124D01*
X9934597Y-15188124D02*
X9934597Y-15054790D01*
X9934597Y-15092886D02*
X9944121Y-15073838D01*
X9944121Y-15073838D02*
X9953644Y-15064314D01*
X9953644Y-15064314D02*
X9972692Y-15054790D01*
X9972692Y-15054790D02*
X9991740Y-15054790D01*
X10058406Y-15188124D02*
X10058406Y-15054790D01*
X10058406Y-14988124D02*
X10048883Y-14997647D01*
X10048883Y-14997647D02*
X10058406Y-15007171D01*
X10058406Y-15007171D02*
X10067930Y-14997647D01*
X10067930Y-14997647D02*
X10058406Y-14988124D01*
X10058406Y-14988124D02*
X10058406Y-15007171D01*
X10182216Y-15188124D02*
X10163168Y-15178600D01*
X10163168Y-15178600D02*
X10153644Y-15159552D01*
X10153644Y-15159552D02*
X10153644Y-14988124D01*
X10286978Y-15188124D02*
X10267930Y-15178600D01*
X10267930Y-15178600D02*
X10258406Y-15159552D01*
X10258406Y-15159552D02*
X10258406Y-14988124D01*
X10515549Y-15188124D02*
X10515549Y-14988124D01*
X10515549Y-14988124D02*
X10582216Y-15130981D01*
X10582216Y-15130981D02*
X10648883Y-14988124D01*
X10648883Y-14988124D02*
X10648883Y-15188124D01*
X10829835Y-15188124D02*
X10829835Y-15083362D01*
X10829835Y-15083362D02*
X10820311Y-15064314D01*
X10820311Y-15064314D02*
X10801264Y-15054790D01*
X10801264Y-15054790D02*
X10763168Y-15054790D01*
X10763168Y-15054790D02*
X10744121Y-15064314D01*
X10829835Y-15178600D02*
X10810787Y-15188124D01*
X10810787Y-15188124D02*
X10763168Y-15188124D01*
X10763168Y-15188124D02*
X10744121Y-15178600D01*
X10744121Y-15178600D02*
X10734597Y-15159552D01*
X10734597Y-15159552D02*
X10734597Y-15140505D01*
X10734597Y-15140505D02*
X10744121Y-15121457D01*
X10744121Y-15121457D02*
X10763168Y-15111933D01*
X10763168Y-15111933D02*
X10810787Y-15111933D01*
X10810787Y-15111933D02*
X10829835Y-15102409D01*
X10925073Y-15054790D02*
X10925073Y-15254790D01*
X10925073Y-15064314D02*
X10944121Y-15054790D01*
X10944121Y-15054790D02*
X10982216Y-15054790D01*
X10982216Y-15054790D02*
X11001264Y-15064314D01*
X11001264Y-15064314D02*
X11010787Y-15073838D01*
X11010787Y-15073838D02*
X11020311Y-15092886D01*
X11020311Y-15092886D02*
X11020311Y-15150028D01*
X11020311Y-15150028D02*
X11010787Y-15169076D01*
X11010787Y-15169076D02*
X11001264Y-15178600D01*
X11001264Y-15178600D02*
X10982216Y-15188124D01*
X10982216Y-15188124D02*
X10944121Y-15188124D01*
X10944121Y-15188124D02*
X10925073Y-15178600D01*
X11106025Y-15169076D02*
X11115549Y-15178600D01*
X11115549Y-15178600D02*
X11106025Y-15188124D01*
X11106025Y-15188124D02*
X11096502Y-15178600D01*
X11096502Y-15178600D02*
X11106025Y-15169076D01*
X11106025Y-15169076D02*
X11106025Y-15188124D01*
X11106025Y-15064314D02*
X11115549Y-15073838D01*
X11115549Y-15073838D02*
X11106025Y-15083362D01*
X11106025Y-15083362D02*
X11096502Y-15073838D01*
X11096502Y-15073838D02*
X11106025Y-15064314D01*
X11106025Y-15064314D02*
X11106025Y-15083362D01*
D10*
X9443820Y-15501640D02*
X9473820Y-15531640D01*
X9473820Y-15501640D02*
X9443820Y-15531640D01*
D11*
X9772692Y-15408124D02*
X9791740Y-15408124D01*
X9791740Y-15408124D02*
X9810787Y-15417647D01*
X9810787Y-15417647D02*
X9820311Y-15427171D01*
X9820311Y-15427171D02*
X9829835Y-15446219D01*
X9829835Y-15446219D02*
X9839359Y-15484314D01*
X9839359Y-15484314D02*
X9839359Y-15531933D01*
X9839359Y-15531933D02*
X9829835Y-15570028D01*
X9829835Y-15570028D02*
X9820311Y-15589076D01*
X9820311Y-15589076D02*
X9810787Y-15598600D01*
X9810787Y-15598600D02*
X9791740Y-15608124D01*
X9791740Y-15608124D02*
X9772692Y-15608124D01*
X9772692Y-15608124D02*
X9753644Y-15598600D01*
X9753644Y-15598600D02*
X9744121Y-15589076D01*
X9744121Y-15589076D02*
X9734597Y-15570028D01*
X9734597Y-15570028D02*
X9725073Y-15531933D01*
X9725073Y-15531933D02*
X9725073Y-15484314D01*
X9725073Y-15484314D02*
X9734597Y-15446219D01*
X9734597Y-15446219D02*
X9744121Y-15427171D01*
X9744121Y-15427171D02*
X9753644Y-15417647D01*
X9753644Y-15417647D02*
X9772692Y-15408124D01*
X9925073Y-15589076D02*
X9934597Y-15598600D01*
X9934597Y-15598600D02*
X9925073Y-15608124D01*
X9925073Y-15608124D02*
X9915549Y-15598600D01*
X9915549Y-15598600D02*
X9925073Y-15589076D01*
X9925073Y-15589076D02*
X9925073Y-15608124D01*
X10001264Y-15408124D02*
X10125073Y-15408124D01*
X10125073Y-15408124D02*
X10058406Y-15484314D01*
X10058406Y-15484314D02*
X10086978Y-15484314D01*
X10086978Y-15484314D02*
X10106025Y-15493838D01*
X10106025Y-15493838D02*
X10115549Y-15503362D01*
X10115549Y-15503362D02*
X10125073Y-15522409D01*
X10125073Y-15522409D02*
X10125073Y-15570028D01*
X10125073Y-15570028D02*
X10115549Y-15589076D01*
X10115549Y-15589076D02*
X10106025Y-15598600D01*
X10106025Y-15598600D02*
X10086978Y-15608124D01*
X10086978Y-15608124D02*
X10029835Y-15608124D01*
X10029835Y-15608124D02*
X10010787Y-15598600D01*
X10010787Y-15598600D02*
X10001264Y-15589076D01*
X10248883Y-15408124D02*
X10267930Y-15408124D01*
X10267930Y-15408124D02*
X10286978Y-15417647D01*
X10286978Y-15417647D02*
X10296502Y-15427171D01*
X10296502Y-15427171D02*
X10306025Y-15446219D01*
X10306025Y-15446219D02*
X10315549Y-15484314D01*
X10315549Y-15484314D02*
X10315549Y-15531933D01*
X10315549Y-15531933D02*
X10306025Y-15570028D01*
X10306025Y-15570028D02*
X10296502Y-15589076D01*
X10296502Y-15589076D02*
X10286978Y-15598600D01*
X10286978Y-15598600D02*
X10267930Y-15608124D01*
X10267930Y-15608124D02*
X10248883Y-15608124D01*
X10248883Y-15608124D02*
X10229835Y-15598600D01*
X10229835Y-15598600D02*
X10220311Y-15589076D01*
X10220311Y-15589076D02*
X10210787Y-15570028D01*
X10210787Y-15570028D02*
X10201264Y-15531933D01*
X10201264Y-15531933D02*
X10201264Y-15484314D01*
X10201264Y-15484314D02*
X10210787Y-15446219D01*
X10210787Y-15446219D02*
X10220311Y-15427171D01*
X10220311Y-15427171D02*
X10229835Y-15417647D01*
X10229835Y-15417647D02*
X10248883Y-15408124D01*
X10439359Y-15408124D02*
X10458406Y-15408124D01*
X10458406Y-15408124D02*
X10477454Y-15417647D01*
X10477454Y-15417647D02*
X10486978Y-15427171D01*
X10486978Y-15427171D02*
X10496502Y-15446219D01*
X10496502Y-15446219D02*
X10506025Y-15484314D01*
X10506025Y-15484314D02*
X10506025Y-15531933D01*
X10506025Y-15531933D02*
X10496502Y-15570028D01*
X10496502Y-15570028D02*
X10486978Y-15589076D01*
X10486978Y-15589076D02*
X10477454Y-15598600D01*
X10477454Y-15598600D02*
X10458406Y-15608124D01*
X10458406Y-15608124D02*
X10439359Y-15608124D01*
X10439359Y-15608124D02*
X10420311Y-15598600D01*
X10420311Y-15598600D02*
X10410787Y-15589076D01*
X10410787Y-15589076D02*
X10401264Y-15570028D01*
X10401264Y-15570028D02*
X10391740Y-15531933D01*
X10391740Y-15531933D02*
X10391740Y-15484314D01*
X10391740Y-15484314D02*
X10401264Y-15446219D01*
X10401264Y-15446219D02*
X10410787Y-15427171D01*
X10410787Y-15427171D02*
X10420311Y-15417647D01*
X10420311Y-15417647D02*
X10439359Y-15408124D01*
X10591740Y-15608124D02*
X10591740Y-15474790D01*
X10591740Y-15493838D02*
X10601264Y-15484314D01*
X10601264Y-15484314D02*
X10620311Y-15474790D01*
X10620311Y-15474790D02*
X10648883Y-15474790D01*
X10648883Y-15474790D02*
X10667930Y-15484314D01*
X10667930Y-15484314D02*
X10677454Y-15503362D01*
X10677454Y-15503362D02*
X10677454Y-15608124D01*
X10677454Y-15503362D02*
X10686978Y-15484314D01*
X10686978Y-15484314D02*
X10706025Y-15474790D01*
X10706025Y-15474790D02*
X10734597Y-15474790D01*
X10734597Y-15474790D02*
X10753645Y-15484314D01*
X10753645Y-15484314D02*
X10763168Y-15503362D01*
X10763168Y-15503362D02*
X10763168Y-15608124D01*
X10858406Y-15608124D02*
X10858406Y-15474790D01*
X10858406Y-15493838D02*
X10867930Y-15484314D01*
X10867930Y-15484314D02*
X10886978Y-15474790D01*
X10886978Y-15474790D02*
X10915549Y-15474790D01*
X10915549Y-15474790D02*
X10934597Y-15484314D01*
X10934597Y-15484314D02*
X10944121Y-15503362D01*
X10944121Y-15503362D02*
X10944121Y-15608124D01*
X10944121Y-15503362D02*
X10953645Y-15484314D01*
X10953645Y-15484314D02*
X10972692Y-15474790D01*
X10972692Y-15474790D02*
X11001264Y-15474790D01*
X11001264Y-15474790D02*
X11020311Y-15484314D01*
X11020311Y-15484314D02*
X11029835Y-15503362D01*
X11029835Y-15503362D02*
X11029835Y-15608124D01*
X11420311Y-15398600D02*
X11248883Y-15655743D01*
X11677454Y-15408124D02*
X11696502Y-15408124D01*
X11696502Y-15408124D02*
X11715549Y-15417647D01*
X11715549Y-15417647D02*
X11725073Y-15427171D01*
X11725073Y-15427171D02*
X11734597Y-15446219D01*
X11734597Y-15446219D02*
X11744121Y-15484314D01*
X11744121Y-15484314D02*
X11744121Y-15531933D01*
X11744121Y-15531933D02*
X11734597Y-15570028D01*
X11734597Y-15570028D02*
X11725073Y-15589076D01*
X11725073Y-15589076D02*
X11715549Y-15598600D01*
X11715549Y-15598600D02*
X11696502Y-15608124D01*
X11696502Y-15608124D02*
X11677454Y-15608124D01*
X11677454Y-15608124D02*
X11658406Y-15598600D01*
X11658406Y-15598600D02*
X11648883Y-15589076D01*
X11648883Y-15589076D02*
X11639359Y-15570028D01*
X11639359Y-15570028D02*
X11629835Y-15531933D01*
X11629835Y-15531933D02*
X11629835Y-15484314D01*
X11629835Y-15484314D02*
X11639359Y-15446219D01*
X11639359Y-15446219D02*
X11648883Y-15427171D01*
X11648883Y-15427171D02*
X11658406Y-15417647D01*
X11658406Y-15417647D02*
X11677454Y-15408124D01*
X11829835Y-15589076D02*
X11839359Y-15598600D01*
X11839359Y-15598600D02*
X11829835Y-15608124D01*
X11829835Y-15608124D02*
X11820311Y-15598600D01*
X11820311Y-15598600D02*
X11829835Y-15589076D01*
X11829835Y-15589076D02*
X11829835Y-15608124D01*
X11963168Y-15408124D02*
X11982216Y-15408124D01*
X11982216Y-15408124D02*
X12001264Y-15417647D01*
X12001264Y-15417647D02*
X12010787Y-15427171D01*
X12010787Y-15427171D02*
X12020311Y-15446219D01*
X12020311Y-15446219D02*
X12029835Y-15484314D01*
X12029835Y-15484314D02*
X12029835Y-15531933D01*
X12029835Y-15531933D02*
X12020311Y-15570028D01*
X12020311Y-15570028D02*
X12010787Y-15589076D01*
X12010787Y-15589076D02*
X12001264Y-15598600D01*
X12001264Y-15598600D02*
X11982216Y-15608124D01*
X11982216Y-15608124D02*
X11963168Y-15608124D01*
X11963168Y-15608124D02*
X11944121Y-15598600D01*
X11944121Y-15598600D02*
X11934597Y-15589076D01*
X11934597Y-15589076D02*
X11925073Y-15570028D01*
X11925073Y-15570028D02*
X11915549Y-15531933D01*
X11915549Y-15531933D02*
X11915549Y-15484314D01*
X11915549Y-15484314D02*
X11925073Y-15446219D01*
X11925073Y-15446219D02*
X11934597Y-15427171D01*
X11934597Y-15427171D02*
X11944121Y-15417647D01*
X11944121Y-15417647D02*
X11963168Y-15408124D01*
X12220311Y-15608124D02*
X12106026Y-15608124D01*
X12163168Y-15608124D02*
X12163168Y-15408124D01*
X12163168Y-15408124D02*
X12144121Y-15436695D01*
X12144121Y-15436695D02*
X12125073Y-15455743D01*
X12125073Y-15455743D02*
X12106026Y-15465266D01*
X12410787Y-15608124D02*
X12296502Y-15608124D01*
X12353645Y-15608124D02*
X12353645Y-15408124D01*
X12353645Y-15408124D02*
X12334597Y-15436695D01*
X12334597Y-15436695D02*
X12315549Y-15455743D01*
X12315549Y-15455743D02*
X12296502Y-15465266D01*
X12525073Y-15493838D02*
X12506026Y-15484314D01*
X12506026Y-15484314D02*
X12496502Y-15474790D01*
X12496502Y-15474790D02*
X12486978Y-15455743D01*
X12486978Y-15455743D02*
X12486978Y-15446219D01*
X12486978Y-15446219D02*
X12496502Y-15427171D01*
X12496502Y-15427171D02*
X12506026Y-15417647D01*
X12506026Y-15417647D02*
X12525073Y-15408124D01*
X12525073Y-15408124D02*
X12563168Y-15408124D01*
X12563168Y-15408124D02*
X12582216Y-15417647D01*
X12582216Y-15417647D02*
X12591740Y-15427171D01*
X12591740Y-15427171D02*
X12601264Y-15446219D01*
X12601264Y-15446219D02*
X12601264Y-15455743D01*
X12601264Y-15455743D02*
X12591740Y-15474790D01*
X12591740Y-15474790D02*
X12582216Y-15484314D01*
X12582216Y-15484314D02*
X12563168Y-15493838D01*
X12563168Y-15493838D02*
X12525073Y-15493838D01*
X12525073Y-15493838D02*
X12506026Y-15503362D01*
X12506026Y-15503362D02*
X12496502Y-15512886D01*
X12496502Y-15512886D02*
X12486978Y-15531933D01*
X12486978Y-15531933D02*
X12486978Y-15570028D01*
X12486978Y-15570028D02*
X12496502Y-15589076D01*
X12496502Y-15589076D02*
X12506026Y-15598600D01*
X12506026Y-15598600D02*
X12525073Y-15608124D01*
X12525073Y-15608124D02*
X12563168Y-15608124D01*
X12563168Y-15608124D02*
X12582216Y-15598600D01*
X12582216Y-15598600D02*
X12591740Y-15589076D01*
X12591740Y-15589076D02*
X12601264Y-15570028D01*
X12601264Y-15570028D02*
X12601264Y-15531933D01*
X12601264Y-15531933D02*
X12591740Y-15512886D01*
X12591740Y-15512886D02*
X12582216Y-15503362D01*
X12582216Y-15503362D02*
X12563168Y-15493838D01*
X12677454Y-15408124D02*
X12677454Y-15446219D01*
X12753645Y-15408124D02*
X12753645Y-15446219D01*
X13048883Y-15684314D02*
X13039359Y-15674790D01*
X13039359Y-15674790D02*
X13020311Y-15646219D01*
X13020311Y-15646219D02*
X13010788Y-15627171D01*
X13010788Y-15627171D02*
X13001264Y-15598600D01*
X13001264Y-15598600D02*
X12991740Y-15550981D01*
X12991740Y-15550981D02*
X12991740Y-15512886D01*
X12991740Y-15512886D02*
X13001264Y-15465266D01*
X13001264Y-15465266D02*
X13010788Y-15436695D01*
X13010788Y-15436695D02*
X13020311Y-15417647D01*
X13020311Y-15417647D02*
X13039359Y-15389076D01*
X13039359Y-15389076D02*
X13048883Y-15379552D01*
X13115549Y-15427171D02*
X13125073Y-15417647D01*
X13125073Y-15417647D02*
X13144121Y-15408124D01*
X13144121Y-15408124D02*
X13191740Y-15408124D01*
X13191740Y-15408124D02*
X13210788Y-15417647D01*
X13210788Y-15417647D02*
X13220311Y-15427171D01*
X13220311Y-15427171D02*
X13229835Y-15446219D01*
X13229835Y-15446219D02*
X13229835Y-15465266D01*
X13229835Y-15465266D02*
X13220311Y-15493838D01*
X13220311Y-15493838D02*
X13106026Y-15608124D01*
X13106026Y-15608124D02*
X13229835Y-15608124D01*
X13401264Y-15474790D02*
X13401264Y-15608124D01*
X13353645Y-15398600D02*
X13306026Y-15541457D01*
X13306026Y-15541457D02*
X13429835Y-15541457D01*
X13610788Y-15608124D02*
X13496502Y-15608124D01*
X13553645Y-15608124D02*
X13553645Y-15408124D01*
X13553645Y-15408124D02*
X13534597Y-15436695D01*
X13534597Y-15436695D02*
X13515549Y-15455743D01*
X13515549Y-15455743D02*
X13496502Y-15465266D01*
X13848883Y-15608124D02*
X13848883Y-15408124D01*
X13934597Y-15608124D02*
X13934597Y-15503362D01*
X13934597Y-15503362D02*
X13925073Y-15484314D01*
X13925073Y-15484314D02*
X13906026Y-15474790D01*
X13906026Y-15474790D02*
X13877454Y-15474790D01*
X13877454Y-15474790D02*
X13858407Y-15484314D01*
X13858407Y-15484314D02*
X13848883Y-15493838D01*
X14058407Y-15608124D02*
X14039359Y-15598600D01*
X14039359Y-15598600D02*
X14029835Y-15589076D01*
X14029835Y-15589076D02*
X14020311Y-15570028D01*
X14020311Y-15570028D02*
X14020311Y-15512886D01*
X14020311Y-15512886D02*
X14029835Y-15493838D01*
X14029835Y-15493838D02*
X14039359Y-15484314D01*
X14039359Y-15484314D02*
X14058407Y-15474790D01*
X14058407Y-15474790D02*
X14086978Y-15474790D01*
X14086978Y-15474790D02*
X14106026Y-15484314D01*
X14106026Y-15484314D02*
X14115550Y-15493838D01*
X14115550Y-15493838D02*
X14125073Y-15512886D01*
X14125073Y-15512886D02*
X14125073Y-15570028D01*
X14125073Y-15570028D02*
X14115550Y-15589076D01*
X14115550Y-15589076D02*
X14106026Y-15598600D01*
X14106026Y-15598600D02*
X14086978Y-15608124D01*
X14086978Y-15608124D02*
X14058407Y-15608124D01*
X14239359Y-15608124D02*
X14220311Y-15598600D01*
X14220311Y-15598600D02*
X14210788Y-15579552D01*
X14210788Y-15579552D02*
X14210788Y-15408124D01*
X14391740Y-15598600D02*
X14372692Y-15608124D01*
X14372692Y-15608124D02*
X14334597Y-15608124D01*
X14334597Y-15608124D02*
X14315550Y-15598600D01*
X14315550Y-15598600D02*
X14306026Y-15579552D01*
X14306026Y-15579552D02*
X14306026Y-15503362D01*
X14306026Y-15503362D02*
X14315550Y-15484314D01*
X14315550Y-15484314D02*
X14334597Y-15474790D01*
X14334597Y-15474790D02*
X14372692Y-15474790D01*
X14372692Y-15474790D02*
X14391740Y-15484314D01*
X14391740Y-15484314D02*
X14401264Y-15503362D01*
X14401264Y-15503362D02*
X14401264Y-15522409D01*
X14401264Y-15522409D02*
X14306026Y-15541457D01*
X14477454Y-15598600D02*
X14496502Y-15608124D01*
X14496502Y-15608124D02*
X14534597Y-15608124D01*
X14534597Y-15608124D02*
X14553645Y-15598600D01*
X14553645Y-15598600D02*
X14563169Y-15579552D01*
X14563169Y-15579552D02*
X14563169Y-15570028D01*
X14563169Y-15570028D02*
X14553645Y-15550981D01*
X14553645Y-15550981D02*
X14534597Y-15541457D01*
X14534597Y-15541457D02*
X14506026Y-15541457D01*
X14506026Y-15541457D02*
X14486978Y-15531933D01*
X14486978Y-15531933D02*
X14477454Y-15512886D01*
X14477454Y-15512886D02*
X14477454Y-15503362D01*
X14477454Y-15503362D02*
X14486978Y-15484314D01*
X14486978Y-15484314D02*
X14506026Y-15474790D01*
X14506026Y-15474790D02*
X14534597Y-15474790D01*
X14534597Y-15474790D02*
X14553645Y-15484314D01*
X14629835Y-15684314D02*
X14639359Y-15674790D01*
X14639359Y-15674790D02*
X14658407Y-15646219D01*
X14658407Y-15646219D02*
X14667931Y-15627171D01*
X14667931Y-15627171D02*
X14677454Y-15598600D01*
X14677454Y-15598600D02*
X14686978Y-15550981D01*
X14686978Y-15550981D02*
X14686978Y-15512886D01*
X14686978Y-15512886D02*
X14677454Y-15465266D01*
X14677454Y-15465266D02*
X14667931Y-15436695D01*
X14667931Y-15436695D02*
X14658407Y-15417647D01*
X14658407Y-15417647D02*
X14639359Y-15389076D01*
X14639359Y-15389076D02*
X14629835Y-15379552D01*
D10*
X9473820Y-15780640D02*
G75*
G02*
X9443820Y-15780640I-15000J0D01*
G01*
X9443820Y-15780640D02*
G75*
G02*
X9473820Y-15780640I15000J0D01*
G01*
D11*
X9772692Y-15672124D02*
X9791740Y-15672124D01*
X9791740Y-15672124D02*
X9810787Y-15681647D01*
X9810787Y-15681647D02*
X9820311Y-15691171D01*
X9820311Y-15691171D02*
X9829835Y-15710219D01*
X9829835Y-15710219D02*
X9839359Y-15748314D01*
X9839359Y-15748314D02*
X9839359Y-15795933D01*
X9839359Y-15795933D02*
X9829835Y-15834028D01*
X9829835Y-15834028D02*
X9820311Y-15853076D01*
X9820311Y-15853076D02*
X9810787Y-15862600D01*
X9810787Y-15862600D02*
X9791740Y-15872124D01*
X9791740Y-15872124D02*
X9772692Y-15872124D01*
X9772692Y-15872124D02*
X9753644Y-15862600D01*
X9753644Y-15862600D02*
X9744121Y-15853076D01*
X9744121Y-15853076D02*
X9734597Y-15834028D01*
X9734597Y-15834028D02*
X9725073Y-15795933D01*
X9725073Y-15795933D02*
X9725073Y-15748314D01*
X9725073Y-15748314D02*
X9734597Y-15710219D01*
X9734597Y-15710219D02*
X9744121Y-15691171D01*
X9744121Y-15691171D02*
X9753644Y-15681647D01*
X9753644Y-15681647D02*
X9772692Y-15672124D01*
X9925073Y-15853076D02*
X9934597Y-15862600D01*
X9934597Y-15862600D02*
X9925073Y-15872124D01*
X9925073Y-15872124D02*
X9915549Y-15862600D01*
X9915549Y-15862600D02*
X9925073Y-15853076D01*
X9925073Y-15853076D02*
X9925073Y-15872124D01*
X10001264Y-15672124D02*
X10125073Y-15672124D01*
X10125073Y-15672124D02*
X10058406Y-15748314D01*
X10058406Y-15748314D02*
X10086978Y-15748314D01*
X10086978Y-15748314D02*
X10106025Y-15757838D01*
X10106025Y-15757838D02*
X10115549Y-15767362D01*
X10115549Y-15767362D02*
X10125073Y-15786409D01*
X10125073Y-15786409D02*
X10125073Y-15834028D01*
X10125073Y-15834028D02*
X10115549Y-15853076D01*
X10115549Y-15853076D02*
X10106025Y-15862600D01*
X10106025Y-15862600D02*
X10086978Y-15872124D01*
X10086978Y-15872124D02*
X10029835Y-15872124D01*
X10029835Y-15872124D02*
X10010787Y-15862600D01*
X10010787Y-15862600D02*
X10001264Y-15853076D01*
X10248883Y-15672124D02*
X10267930Y-15672124D01*
X10267930Y-15672124D02*
X10286978Y-15681647D01*
X10286978Y-15681647D02*
X10296502Y-15691171D01*
X10296502Y-15691171D02*
X10306025Y-15710219D01*
X10306025Y-15710219D02*
X10315549Y-15748314D01*
X10315549Y-15748314D02*
X10315549Y-15795933D01*
X10315549Y-15795933D02*
X10306025Y-15834028D01*
X10306025Y-15834028D02*
X10296502Y-15853076D01*
X10296502Y-15853076D02*
X10286978Y-15862600D01*
X10286978Y-15862600D02*
X10267930Y-15872124D01*
X10267930Y-15872124D02*
X10248883Y-15872124D01*
X10248883Y-15872124D02*
X10229835Y-15862600D01*
X10229835Y-15862600D02*
X10220311Y-15853076D01*
X10220311Y-15853076D02*
X10210787Y-15834028D01*
X10210787Y-15834028D02*
X10201264Y-15795933D01*
X10201264Y-15795933D02*
X10201264Y-15748314D01*
X10201264Y-15748314D02*
X10210787Y-15710219D01*
X10210787Y-15710219D02*
X10220311Y-15691171D01*
X10220311Y-15691171D02*
X10229835Y-15681647D01*
X10229835Y-15681647D02*
X10248883Y-15672124D01*
X10439359Y-15672124D02*
X10458406Y-15672124D01*
X10458406Y-15672124D02*
X10477454Y-15681647D01*
X10477454Y-15681647D02*
X10486978Y-15691171D01*
X10486978Y-15691171D02*
X10496502Y-15710219D01*
X10496502Y-15710219D02*
X10506025Y-15748314D01*
X10506025Y-15748314D02*
X10506025Y-15795933D01*
X10506025Y-15795933D02*
X10496502Y-15834028D01*
X10496502Y-15834028D02*
X10486978Y-15853076D01*
X10486978Y-15853076D02*
X10477454Y-15862600D01*
X10477454Y-15862600D02*
X10458406Y-15872124D01*
X10458406Y-15872124D02*
X10439359Y-15872124D01*
X10439359Y-15872124D02*
X10420311Y-15862600D01*
X10420311Y-15862600D02*
X10410787Y-15853076D01*
X10410787Y-15853076D02*
X10401264Y-15834028D01*
X10401264Y-15834028D02*
X10391740Y-15795933D01*
X10391740Y-15795933D02*
X10391740Y-15748314D01*
X10391740Y-15748314D02*
X10401264Y-15710219D01*
X10401264Y-15710219D02*
X10410787Y-15691171D01*
X10410787Y-15691171D02*
X10420311Y-15681647D01*
X10420311Y-15681647D02*
X10439359Y-15672124D01*
X10591740Y-15872124D02*
X10591740Y-15738790D01*
X10591740Y-15757838D02*
X10601264Y-15748314D01*
X10601264Y-15748314D02*
X10620311Y-15738790D01*
X10620311Y-15738790D02*
X10648883Y-15738790D01*
X10648883Y-15738790D02*
X10667930Y-15748314D01*
X10667930Y-15748314D02*
X10677454Y-15767362D01*
X10677454Y-15767362D02*
X10677454Y-15872124D01*
X10677454Y-15767362D02*
X10686978Y-15748314D01*
X10686978Y-15748314D02*
X10706025Y-15738790D01*
X10706025Y-15738790D02*
X10734597Y-15738790D01*
X10734597Y-15738790D02*
X10753645Y-15748314D01*
X10753645Y-15748314D02*
X10763168Y-15767362D01*
X10763168Y-15767362D02*
X10763168Y-15872124D01*
X10858406Y-15872124D02*
X10858406Y-15738790D01*
X10858406Y-15757838D02*
X10867930Y-15748314D01*
X10867930Y-15748314D02*
X10886978Y-15738790D01*
X10886978Y-15738790D02*
X10915549Y-15738790D01*
X10915549Y-15738790D02*
X10934597Y-15748314D01*
X10934597Y-15748314D02*
X10944121Y-15767362D01*
X10944121Y-15767362D02*
X10944121Y-15872124D01*
X10944121Y-15767362D02*
X10953645Y-15748314D01*
X10953645Y-15748314D02*
X10972692Y-15738790D01*
X10972692Y-15738790D02*
X11001264Y-15738790D01*
X11001264Y-15738790D02*
X11020311Y-15748314D01*
X11020311Y-15748314D02*
X11029835Y-15767362D01*
X11029835Y-15767362D02*
X11029835Y-15872124D01*
X11420311Y-15662600D02*
X11248883Y-15919743D01*
X11677454Y-15672124D02*
X11696502Y-15672124D01*
X11696502Y-15672124D02*
X11715549Y-15681647D01*
X11715549Y-15681647D02*
X11725073Y-15691171D01*
X11725073Y-15691171D02*
X11734597Y-15710219D01*
X11734597Y-15710219D02*
X11744121Y-15748314D01*
X11744121Y-15748314D02*
X11744121Y-15795933D01*
X11744121Y-15795933D02*
X11734597Y-15834028D01*
X11734597Y-15834028D02*
X11725073Y-15853076D01*
X11725073Y-15853076D02*
X11715549Y-15862600D01*
X11715549Y-15862600D02*
X11696502Y-15872124D01*
X11696502Y-15872124D02*
X11677454Y-15872124D01*
X11677454Y-15872124D02*
X11658406Y-15862600D01*
X11658406Y-15862600D02*
X11648883Y-15853076D01*
X11648883Y-15853076D02*
X11639359Y-15834028D01*
X11639359Y-15834028D02*
X11629835Y-15795933D01*
X11629835Y-15795933D02*
X11629835Y-15748314D01*
X11629835Y-15748314D02*
X11639359Y-15710219D01*
X11639359Y-15710219D02*
X11648883Y-15691171D01*
X11648883Y-15691171D02*
X11658406Y-15681647D01*
X11658406Y-15681647D02*
X11677454Y-15672124D01*
X11829835Y-15853076D02*
X11839359Y-15862600D01*
X11839359Y-15862600D02*
X11829835Y-15872124D01*
X11829835Y-15872124D02*
X11820311Y-15862600D01*
X11820311Y-15862600D02*
X11829835Y-15853076D01*
X11829835Y-15853076D02*
X11829835Y-15872124D01*
X11963168Y-15672124D02*
X11982216Y-15672124D01*
X11982216Y-15672124D02*
X12001264Y-15681647D01*
X12001264Y-15681647D02*
X12010787Y-15691171D01*
X12010787Y-15691171D02*
X12020311Y-15710219D01*
X12020311Y-15710219D02*
X12029835Y-15748314D01*
X12029835Y-15748314D02*
X12029835Y-15795933D01*
X12029835Y-15795933D02*
X12020311Y-15834028D01*
X12020311Y-15834028D02*
X12010787Y-15853076D01*
X12010787Y-15853076D02*
X12001264Y-15862600D01*
X12001264Y-15862600D02*
X11982216Y-15872124D01*
X11982216Y-15872124D02*
X11963168Y-15872124D01*
X11963168Y-15872124D02*
X11944121Y-15862600D01*
X11944121Y-15862600D02*
X11934597Y-15853076D01*
X11934597Y-15853076D02*
X11925073Y-15834028D01*
X11925073Y-15834028D02*
X11915549Y-15795933D01*
X11915549Y-15795933D02*
X11915549Y-15748314D01*
X11915549Y-15748314D02*
X11925073Y-15710219D01*
X11925073Y-15710219D02*
X11934597Y-15691171D01*
X11934597Y-15691171D02*
X11944121Y-15681647D01*
X11944121Y-15681647D02*
X11963168Y-15672124D01*
X12220311Y-15872124D02*
X12106026Y-15872124D01*
X12163168Y-15872124D02*
X12163168Y-15672124D01*
X12163168Y-15672124D02*
X12144121Y-15700695D01*
X12144121Y-15700695D02*
X12125073Y-15719743D01*
X12125073Y-15719743D02*
X12106026Y-15729266D01*
X12410787Y-15872124D02*
X12296502Y-15872124D01*
X12353645Y-15872124D02*
X12353645Y-15672124D01*
X12353645Y-15672124D02*
X12334597Y-15700695D01*
X12334597Y-15700695D02*
X12315549Y-15719743D01*
X12315549Y-15719743D02*
X12296502Y-15729266D01*
X12525073Y-15757838D02*
X12506026Y-15748314D01*
X12506026Y-15748314D02*
X12496502Y-15738790D01*
X12496502Y-15738790D02*
X12486978Y-15719743D01*
X12486978Y-15719743D02*
X12486978Y-15710219D01*
X12486978Y-15710219D02*
X12496502Y-15691171D01*
X12496502Y-15691171D02*
X12506026Y-15681647D01*
X12506026Y-15681647D02*
X12525073Y-15672124D01*
X12525073Y-15672124D02*
X12563168Y-15672124D01*
X12563168Y-15672124D02*
X12582216Y-15681647D01*
X12582216Y-15681647D02*
X12591740Y-15691171D01*
X12591740Y-15691171D02*
X12601264Y-15710219D01*
X12601264Y-15710219D02*
X12601264Y-15719743D01*
X12601264Y-15719743D02*
X12591740Y-15738790D01*
X12591740Y-15738790D02*
X12582216Y-15748314D01*
X12582216Y-15748314D02*
X12563168Y-15757838D01*
X12563168Y-15757838D02*
X12525073Y-15757838D01*
X12525073Y-15757838D02*
X12506026Y-15767362D01*
X12506026Y-15767362D02*
X12496502Y-15776886D01*
X12496502Y-15776886D02*
X12486978Y-15795933D01*
X12486978Y-15795933D02*
X12486978Y-15834028D01*
X12486978Y-15834028D02*
X12496502Y-15853076D01*
X12496502Y-15853076D02*
X12506026Y-15862600D01*
X12506026Y-15862600D02*
X12525073Y-15872124D01*
X12525073Y-15872124D02*
X12563168Y-15872124D01*
X12563168Y-15872124D02*
X12582216Y-15862600D01*
X12582216Y-15862600D02*
X12591740Y-15853076D01*
X12591740Y-15853076D02*
X12601264Y-15834028D01*
X12601264Y-15834028D02*
X12601264Y-15795933D01*
X12601264Y-15795933D02*
X12591740Y-15776886D01*
X12591740Y-15776886D02*
X12582216Y-15767362D01*
X12582216Y-15767362D02*
X12563168Y-15757838D01*
X12677454Y-15672124D02*
X12677454Y-15710219D01*
X12753645Y-15672124D02*
X12753645Y-15710219D01*
X13048883Y-15948314D02*
X13039359Y-15938790D01*
X13039359Y-15938790D02*
X13020311Y-15910219D01*
X13020311Y-15910219D02*
X13010788Y-15891171D01*
X13010788Y-15891171D02*
X13001264Y-15862600D01*
X13001264Y-15862600D02*
X12991740Y-15814981D01*
X12991740Y-15814981D02*
X12991740Y-15776886D01*
X12991740Y-15776886D02*
X13001264Y-15729266D01*
X13001264Y-15729266D02*
X13010788Y-15700695D01*
X13010788Y-15700695D02*
X13020311Y-15681647D01*
X13020311Y-15681647D02*
X13039359Y-15653076D01*
X13039359Y-15653076D02*
X13048883Y-15643552D01*
X13134597Y-15872124D02*
X13172692Y-15872124D01*
X13172692Y-15872124D02*
X13191740Y-15862600D01*
X13191740Y-15862600D02*
X13201264Y-15853076D01*
X13201264Y-15853076D02*
X13220311Y-15824505D01*
X13220311Y-15824505D02*
X13229835Y-15786409D01*
X13229835Y-15786409D02*
X13229835Y-15710219D01*
X13229835Y-15710219D02*
X13220311Y-15691171D01*
X13220311Y-15691171D02*
X13210788Y-15681647D01*
X13210788Y-15681647D02*
X13191740Y-15672124D01*
X13191740Y-15672124D02*
X13153645Y-15672124D01*
X13153645Y-15672124D02*
X13134597Y-15681647D01*
X13134597Y-15681647D02*
X13125073Y-15691171D01*
X13125073Y-15691171D02*
X13115549Y-15710219D01*
X13115549Y-15710219D02*
X13115549Y-15757838D01*
X13115549Y-15757838D02*
X13125073Y-15776886D01*
X13125073Y-15776886D02*
X13134597Y-15786409D01*
X13134597Y-15786409D02*
X13153645Y-15795933D01*
X13153645Y-15795933D02*
X13191740Y-15795933D01*
X13191740Y-15795933D02*
X13210788Y-15786409D01*
X13210788Y-15786409D02*
X13220311Y-15776886D01*
X13220311Y-15776886D02*
X13229835Y-15757838D01*
X13467930Y-15872124D02*
X13467930Y-15672124D01*
X13553645Y-15872124D02*
X13553645Y-15767362D01*
X13553645Y-15767362D02*
X13544121Y-15748314D01*
X13544121Y-15748314D02*
X13525073Y-15738790D01*
X13525073Y-15738790D02*
X13496502Y-15738790D01*
X13496502Y-15738790D02*
X13477454Y-15748314D01*
X13477454Y-15748314D02*
X13467930Y-15757838D01*
X13677454Y-15872124D02*
X13658407Y-15862600D01*
X13658407Y-15862600D02*
X13648883Y-15853076D01*
X13648883Y-15853076D02*
X13639359Y-15834028D01*
X13639359Y-15834028D02*
X13639359Y-15776886D01*
X13639359Y-15776886D02*
X13648883Y-15757838D01*
X13648883Y-15757838D02*
X13658407Y-15748314D01*
X13658407Y-15748314D02*
X13677454Y-15738790D01*
X13677454Y-15738790D02*
X13706026Y-15738790D01*
X13706026Y-15738790D02*
X13725073Y-15748314D01*
X13725073Y-15748314D02*
X13734597Y-15757838D01*
X13734597Y-15757838D02*
X13744121Y-15776886D01*
X13744121Y-15776886D02*
X13744121Y-15834028D01*
X13744121Y-15834028D02*
X13734597Y-15853076D01*
X13734597Y-15853076D02*
X13725073Y-15862600D01*
X13725073Y-15862600D02*
X13706026Y-15872124D01*
X13706026Y-15872124D02*
X13677454Y-15872124D01*
X13858407Y-15872124D02*
X13839359Y-15862600D01*
X13839359Y-15862600D02*
X13829835Y-15843552D01*
X13829835Y-15843552D02*
X13829835Y-15672124D01*
X14010788Y-15862600D02*
X13991740Y-15872124D01*
X13991740Y-15872124D02*
X13953645Y-15872124D01*
X13953645Y-15872124D02*
X13934597Y-15862600D01*
X13934597Y-15862600D02*
X13925073Y-15843552D01*
X13925073Y-15843552D02*
X13925073Y-15767362D01*
X13925073Y-15767362D02*
X13934597Y-15748314D01*
X13934597Y-15748314D02*
X13953645Y-15738790D01*
X13953645Y-15738790D02*
X13991740Y-15738790D01*
X13991740Y-15738790D02*
X14010788Y-15748314D01*
X14010788Y-15748314D02*
X14020311Y-15767362D01*
X14020311Y-15767362D02*
X14020311Y-15786409D01*
X14020311Y-15786409D02*
X13925073Y-15805457D01*
X14096502Y-15862600D02*
X14115550Y-15872124D01*
X14115550Y-15872124D02*
X14153645Y-15872124D01*
X14153645Y-15872124D02*
X14172692Y-15862600D01*
X14172692Y-15862600D02*
X14182216Y-15843552D01*
X14182216Y-15843552D02*
X14182216Y-15834028D01*
X14182216Y-15834028D02*
X14172692Y-15814981D01*
X14172692Y-15814981D02*
X14153645Y-15805457D01*
X14153645Y-15805457D02*
X14125073Y-15805457D01*
X14125073Y-15805457D02*
X14106026Y-15795933D01*
X14106026Y-15795933D02*
X14096502Y-15776886D01*
X14096502Y-15776886D02*
X14096502Y-15767362D01*
X14096502Y-15767362D02*
X14106026Y-15748314D01*
X14106026Y-15748314D02*
X14125073Y-15738790D01*
X14125073Y-15738790D02*
X14153645Y-15738790D01*
X14153645Y-15738790D02*
X14172692Y-15748314D01*
X14248883Y-15948314D02*
X14258407Y-15938790D01*
X14258407Y-15938790D02*
X14277454Y-15910219D01*
X14277454Y-15910219D02*
X14286978Y-15891171D01*
X14286978Y-15891171D02*
X14296502Y-15862600D01*
X14296502Y-15862600D02*
X14306026Y-15814981D01*
X14306026Y-15814981D02*
X14306026Y-15776886D01*
X14306026Y-15776886D02*
X14296502Y-15729266D01*
X14296502Y-15729266D02*
X14286978Y-15700695D01*
X14286978Y-15700695D02*
X14277454Y-15681647D01*
X14277454Y-15681647D02*
X14258407Y-15653076D01*
X14258407Y-15653076D02*
X14248883Y-15643552D01*
D10*
X9433820Y-16004640D02*
X9433820Y-16084640D01*
X9393820Y-16044640D02*
X9473820Y-16044640D01*
D11*
X9772692Y-15936124D02*
X9791740Y-15936124D01*
X9791740Y-15936124D02*
X9810787Y-15945647D01*
X9810787Y-15945647D02*
X9820311Y-15955171D01*
X9820311Y-15955171D02*
X9829835Y-15974219D01*
X9829835Y-15974219D02*
X9839359Y-16012314D01*
X9839359Y-16012314D02*
X9839359Y-16059933D01*
X9839359Y-16059933D02*
X9829835Y-16098028D01*
X9829835Y-16098028D02*
X9820311Y-16117076D01*
X9820311Y-16117076D02*
X9810787Y-16126600D01*
X9810787Y-16126600D02*
X9791740Y-16136124D01*
X9791740Y-16136124D02*
X9772692Y-16136124D01*
X9772692Y-16136124D02*
X9753644Y-16126600D01*
X9753644Y-16126600D02*
X9744121Y-16117076D01*
X9744121Y-16117076D02*
X9734597Y-16098028D01*
X9734597Y-16098028D02*
X9725073Y-16059933D01*
X9725073Y-16059933D02*
X9725073Y-16012314D01*
X9725073Y-16012314D02*
X9734597Y-15974219D01*
X9734597Y-15974219D02*
X9744121Y-15955171D01*
X9744121Y-15955171D02*
X9753644Y-15945647D01*
X9753644Y-15945647D02*
X9772692Y-15936124D01*
X9925073Y-16117076D02*
X9934597Y-16126600D01*
X9934597Y-16126600D02*
X9925073Y-16136124D01*
X9925073Y-16136124D02*
X9915549Y-16126600D01*
X9915549Y-16126600D02*
X9925073Y-16117076D01*
X9925073Y-16117076D02*
X9925073Y-16136124D01*
X10048883Y-16021838D02*
X10029835Y-16012314D01*
X10029835Y-16012314D02*
X10020311Y-16002790D01*
X10020311Y-16002790D02*
X10010787Y-15983743D01*
X10010787Y-15983743D02*
X10010787Y-15974219D01*
X10010787Y-15974219D02*
X10020311Y-15955171D01*
X10020311Y-15955171D02*
X10029835Y-15945647D01*
X10029835Y-15945647D02*
X10048883Y-15936124D01*
X10048883Y-15936124D02*
X10086978Y-15936124D01*
X10086978Y-15936124D02*
X10106025Y-15945647D01*
X10106025Y-15945647D02*
X10115549Y-15955171D01*
X10115549Y-15955171D02*
X10125073Y-15974219D01*
X10125073Y-15974219D02*
X10125073Y-15983743D01*
X10125073Y-15983743D02*
X10115549Y-16002790D01*
X10115549Y-16002790D02*
X10106025Y-16012314D01*
X10106025Y-16012314D02*
X10086978Y-16021838D01*
X10086978Y-16021838D02*
X10048883Y-16021838D01*
X10048883Y-16021838D02*
X10029835Y-16031362D01*
X10029835Y-16031362D02*
X10020311Y-16040886D01*
X10020311Y-16040886D02*
X10010787Y-16059933D01*
X10010787Y-16059933D02*
X10010787Y-16098028D01*
X10010787Y-16098028D02*
X10020311Y-16117076D01*
X10020311Y-16117076D02*
X10029835Y-16126600D01*
X10029835Y-16126600D02*
X10048883Y-16136124D01*
X10048883Y-16136124D02*
X10086978Y-16136124D01*
X10086978Y-16136124D02*
X10106025Y-16126600D01*
X10106025Y-16126600D02*
X10115549Y-16117076D01*
X10115549Y-16117076D02*
X10125073Y-16098028D01*
X10125073Y-16098028D02*
X10125073Y-16059933D01*
X10125073Y-16059933D02*
X10115549Y-16040886D01*
X10115549Y-16040886D02*
X10106025Y-16031362D01*
X10106025Y-16031362D02*
X10086978Y-16021838D01*
X10248883Y-15936124D02*
X10267930Y-15936124D01*
X10267930Y-15936124D02*
X10286978Y-15945647D01*
X10286978Y-15945647D02*
X10296502Y-15955171D01*
X10296502Y-15955171D02*
X10306025Y-15974219D01*
X10306025Y-15974219D02*
X10315549Y-16012314D01*
X10315549Y-16012314D02*
X10315549Y-16059933D01*
X10315549Y-16059933D02*
X10306025Y-16098028D01*
X10306025Y-16098028D02*
X10296502Y-16117076D01*
X10296502Y-16117076D02*
X10286978Y-16126600D01*
X10286978Y-16126600D02*
X10267930Y-16136124D01*
X10267930Y-16136124D02*
X10248883Y-16136124D01*
X10248883Y-16136124D02*
X10229835Y-16126600D01*
X10229835Y-16126600D02*
X10220311Y-16117076D01*
X10220311Y-16117076D02*
X10210787Y-16098028D01*
X10210787Y-16098028D02*
X10201264Y-16059933D01*
X10201264Y-16059933D02*
X10201264Y-16012314D01*
X10201264Y-16012314D02*
X10210787Y-15974219D01*
X10210787Y-15974219D02*
X10220311Y-15955171D01*
X10220311Y-15955171D02*
X10229835Y-15945647D01*
X10229835Y-15945647D02*
X10248883Y-15936124D01*
X10439359Y-15936124D02*
X10458406Y-15936124D01*
X10458406Y-15936124D02*
X10477454Y-15945647D01*
X10477454Y-15945647D02*
X10486978Y-15955171D01*
X10486978Y-15955171D02*
X10496502Y-15974219D01*
X10496502Y-15974219D02*
X10506025Y-16012314D01*
X10506025Y-16012314D02*
X10506025Y-16059933D01*
X10506025Y-16059933D02*
X10496502Y-16098028D01*
X10496502Y-16098028D02*
X10486978Y-16117076D01*
X10486978Y-16117076D02*
X10477454Y-16126600D01*
X10477454Y-16126600D02*
X10458406Y-16136124D01*
X10458406Y-16136124D02*
X10439359Y-16136124D01*
X10439359Y-16136124D02*
X10420311Y-16126600D01*
X10420311Y-16126600D02*
X10410787Y-16117076D01*
X10410787Y-16117076D02*
X10401264Y-16098028D01*
X10401264Y-16098028D02*
X10391740Y-16059933D01*
X10391740Y-16059933D02*
X10391740Y-16012314D01*
X10391740Y-16012314D02*
X10401264Y-15974219D01*
X10401264Y-15974219D02*
X10410787Y-15955171D01*
X10410787Y-15955171D02*
X10420311Y-15945647D01*
X10420311Y-15945647D02*
X10439359Y-15936124D01*
X10591740Y-16136124D02*
X10591740Y-16002790D01*
X10591740Y-16021838D02*
X10601264Y-16012314D01*
X10601264Y-16012314D02*
X10620311Y-16002790D01*
X10620311Y-16002790D02*
X10648883Y-16002790D01*
X10648883Y-16002790D02*
X10667930Y-16012314D01*
X10667930Y-16012314D02*
X10677454Y-16031362D01*
X10677454Y-16031362D02*
X10677454Y-16136124D01*
X10677454Y-16031362D02*
X10686978Y-16012314D01*
X10686978Y-16012314D02*
X10706025Y-16002790D01*
X10706025Y-16002790D02*
X10734597Y-16002790D01*
X10734597Y-16002790D02*
X10753645Y-16012314D01*
X10753645Y-16012314D02*
X10763168Y-16031362D01*
X10763168Y-16031362D02*
X10763168Y-16136124D01*
X10858406Y-16136124D02*
X10858406Y-16002790D01*
X10858406Y-16021838D02*
X10867930Y-16012314D01*
X10867930Y-16012314D02*
X10886978Y-16002790D01*
X10886978Y-16002790D02*
X10915549Y-16002790D01*
X10915549Y-16002790D02*
X10934597Y-16012314D01*
X10934597Y-16012314D02*
X10944121Y-16031362D01*
X10944121Y-16031362D02*
X10944121Y-16136124D01*
X10944121Y-16031362D02*
X10953645Y-16012314D01*
X10953645Y-16012314D02*
X10972692Y-16002790D01*
X10972692Y-16002790D02*
X11001264Y-16002790D01*
X11001264Y-16002790D02*
X11020311Y-16012314D01*
X11020311Y-16012314D02*
X11029835Y-16031362D01*
X11029835Y-16031362D02*
X11029835Y-16136124D01*
X11420311Y-15926600D02*
X11248883Y-16183743D01*
X11677454Y-15936124D02*
X11696502Y-15936124D01*
X11696502Y-15936124D02*
X11715549Y-15945647D01*
X11715549Y-15945647D02*
X11725073Y-15955171D01*
X11725073Y-15955171D02*
X11734597Y-15974219D01*
X11734597Y-15974219D02*
X11744121Y-16012314D01*
X11744121Y-16012314D02*
X11744121Y-16059933D01*
X11744121Y-16059933D02*
X11734597Y-16098028D01*
X11734597Y-16098028D02*
X11725073Y-16117076D01*
X11725073Y-16117076D02*
X11715549Y-16126600D01*
X11715549Y-16126600D02*
X11696502Y-16136124D01*
X11696502Y-16136124D02*
X11677454Y-16136124D01*
X11677454Y-16136124D02*
X11658406Y-16126600D01*
X11658406Y-16126600D02*
X11648883Y-16117076D01*
X11648883Y-16117076D02*
X11639359Y-16098028D01*
X11639359Y-16098028D02*
X11629835Y-16059933D01*
X11629835Y-16059933D02*
X11629835Y-16012314D01*
X11629835Y-16012314D02*
X11639359Y-15974219D01*
X11639359Y-15974219D02*
X11648883Y-15955171D01*
X11648883Y-15955171D02*
X11658406Y-15945647D01*
X11658406Y-15945647D02*
X11677454Y-15936124D01*
X11829835Y-16117076D02*
X11839359Y-16126600D01*
X11839359Y-16126600D02*
X11829835Y-16136124D01*
X11829835Y-16136124D02*
X11820311Y-16126600D01*
X11820311Y-16126600D02*
X11829835Y-16117076D01*
X11829835Y-16117076D02*
X11829835Y-16136124D01*
X11963168Y-15936124D02*
X11982216Y-15936124D01*
X11982216Y-15936124D02*
X12001264Y-15945647D01*
X12001264Y-15945647D02*
X12010787Y-15955171D01*
X12010787Y-15955171D02*
X12020311Y-15974219D01*
X12020311Y-15974219D02*
X12029835Y-16012314D01*
X12029835Y-16012314D02*
X12029835Y-16059933D01*
X12029835Y-16059933D02*
X12020311Y-16098028D01*
X12020311Y-16098028D02*
X12010787Y-16117076D01*
X12010787Y-16117076D02*
X12001264Y-16126600D01*
X12001264Y-16126600D02*
X11982216Y-16136124D01*
X11982216Y-16136124D02*
X11963168Y-16136124D01*
X11963168Y-16136124D02*
X11944121Y-16126600D01*
X11944121Y-16126600D02*
X11934597Y-16117076D01*
X11934597Y-16117076D02*
X11925073Y-16098028D01*
X11925073Y-16098028D02*
X11915549Y-16059933D01*
X11915549Y-16059933D02*
X11915549Y-16012314D01*
X11915549Y-16012314D02*
X11925073Y-15974219D01*
X11925073Y-15974219D02*
X11934597Y-15955171D01*
X11934597Y-15955171D02*
X11944121Y-15945647D01*
X11944121Y-15945647D02*
X11963168Y-15936124D01*
X12096502Y-15936124D02*
X12220311Y-15936124D01*
X12220311Y-15936124D02*
X12153645Y-16012314D01*
X12153645Y-16012314D02*
X12182216Y-16012314D01*
X12182216Y-16012314D02*
X12201264Y-16021838D01*
X12201264Y-16021838D02*
X12210787Y-16031362D01*
X12210787Y-16031362D02*
X12220311Y-16050409D01*
X12220311Y-16050409D02*
X12220311Y-16098028D01*
X12220311Y-16098028D02*
X12210787Y-16117076D01*
X12210787Y-16117076D02*
X12201264Y-16126600D01*
X12201264Y-16126600D02*
X12182216Y-16136124D01*
X12182216Y-16136124D02*
X12125073Y-16136124D01*
X12125073Y-16136124D02*
X12106026Y-16126600D01*
X12106026Y-16126600D02*
X12096502Y-16117076D01*
X12410787Y-16136124D02*
X12296502Y-16136124D01*
X12353645Y-16136124D02*
X12353645Y-15936124D01*
X12353645Y-15936124D02*
X12334597Y-15964695D01*
X12334597Y-15964695D02*
X12315549Y-15983743D01*
X12315549Y-15983743D02*
X12296502Y-15993266D01*
X12591740Y-15936124D02*
X12496502Y-15936124D01*
X12496502Y-15936124D02*
X12486978Y-16031362D01*
X12486978Y-16031362D02*
X12496502Y-16021838D01*
X12496502Y-16021838D02*
X12515549Y-16012314D01*
X12515549Y-16012314D02*
X12563168Y-16012314D01*
X12563168Y-16012314D02*
X12582216Y-16021838D01*
X12582216Y-16021838D02*
X12591740Y-16031362D01*
X12591740Y-16031362D02*
X12601264Y-16050409D01*
X12601264Y-16050409D02*
X12601264Y-16098028D01*
X12601264Y-16098028D02*
X12591740Y-16117076D01*
X12591740Y-16117076D02*
X12582216Y-16126600D01*
X12582216Y-16126600D02*
X12563168Y-16136124D01*
X12563168Y-16136124D02*
X12515549Y-16136124D01*
X12515549Y-16136124D02*
X12496502Y-16126600D01*
X12496502Y-16126600D02*
X12486978Y-16117076D01*
X12677454Y-15936124D02*
X12677454Y-15974219D01*
X12753645Y-15936124D02*
X12753645Y-15974219D01*
X13048883Y-16212314D02*
X13039359Y-16202790D01*
X13039359Y-16202790D02*
X13020311Y-16174219D01*
X13020311Y-16174219D02*
X13010788Y-16155171D01*
X13010788Y-16155171D02*
X13001264Y-16126600D01*
X13001264Y-16126600D02*
X12991740Y-16078981D01*
X12991740Y-16078981D02*
X12991740Y-16040886D01*
X12991740Y-16040886D02*
X13001264Y-15993266D01*
X13001264Y-15993266D02*
X13010788Y-15964695D01*
X13010788Y-15964695D02*
X13020311Y-15945647D01*
X13020311Y-15945647D02*
X13039359Y-15917076D01*
X13039359Y-15917076D02*
X13048883Y-15907552D01*
X13115549Y-15955171D02*
X13125073Y-15945647D01*
X13125073Y-15945647D02*
X13144121Y-15936124D01*
X13144121Y-15936124D02*
X13191740Y-15936124D01*
X13191740Y-15936124D02*
X13210788Y-15945647D01*
X13210788Y-15945647D02*
X13220311Y-15955171D01*
X13220311Y-15955171D02*
X13229835Y-15974219D01*
X13229835Y-15974219D02*
X13229835Y-15993266D01*
X13229835Y-15993266D02*
X13220311Y-16021838D01*
X13220311Y-16021838D02*
X13106026Y-16136124D01*
X13106026Y-16136124D02*
X13229835Y-16136124D01*
X13467930Y-16136124D02*
X13467930Y-15936124D01*
X13553645Y-16136124D02*
X13553645Y-16031362D01*
X13553645Y-16031362D02*
X13544121Y-16012314D01*
X13544121Y-16012314D02*
X13525073Y-16002790D01*
X13525073Y-16002790D02*
X13496502Y-16002790D01*
X13496502Y-16002790D02*
X13477454Y-16012314D01*
X13477454Y-16012314D02*
X13467930Y-16021838D01*
X13677454Y-16136124D02*
X13658407Y-16126600D01*
X13658407Y-16126600D02*
X13648883Y-16117076D01*
X13648883Y-16117076D02*
X13639359Y-16098028D01*
X13639359Y-16098028D02*
X13639359Y-16040886D01*
X13639359Y-16040886D02*
X13648883Y-16021838D01*
X13648883Y-16021838D02*
X13658407Y-16012314D01*
X13658407Y-16012314D02*
X13677454Y-16002790D01*
X13677454Y-16002790D02*
X13706026Y-16002790D01*
X13706026Y-16002790D02*
X13725073Y-16012314D01*
X13725073Y-16012314D02*
X13734597Y-16021838D01*
X13734597Y-16021838D02*
X13744121Y-16040886D01*
X13744121Y-16040886D02*
X13744121Y-16098028D01*
X13744121Y-16098028D02*
X13734597Y-16117076D01*
X13734597Y-16117076D02*
X13725073Y-16126600D01*
X13725073Y-16126600D02*
X13706026Y-16136124D01*
X13706026Y-16136124D02*
X13677454Y-16136124D01*
X13858407Y-16136124D02*
X13839359Y-16126600D01*
X13839359Y-16126600D02*
X13829835Y-16107552D01*
X13829835Y-16107552D02*
X13829835Y-15936124D01*
X14010788Y-16126600D02*
X13991740Y-16136124D01*
X13991740Y-16136124D02*
X13953645Y-16136124D01*
X13953645Y-16136124D02*
X13934597Y-16126600D01*
X13934597Y-16126600D02*
X13925073Y-16107552D01*
X13925073Y-16107552D02*
X13925073Y-16031362D01*
X13925073Y-16031362D02*
X13934597Y-16012314D01*
X13934597Y-16012314D02*
X13953645Y-16002790D01*
X13953645Y-16002790D02*
X13991740Y-16002790D01*
X13991740Y-16002790D02*
X14010788Y-16012314D01*
X14010788Y-16012314D02*
X14020311Y-16031362D01*
X14020311Y-16031362D02*
X14020311Y-16050409D01*
X14020311Y-16050409D02*
X13925073Y-16069457D01*
X14096502Y-16126600D02*
X14115550Y-16136124D01*
X14115550Y-16136124D02*
X14153645Y-16136124D01*
X14153645Y-16136124D02*
X14172692Y-16126600D01*
X14172692Y-16126600D02*
X14182216Y-16107552D01*
X14182216Y-16107552D02*
X14182216Y-16098028D01*
X14182216Y-16098028D02*
X14172692Y-16078981D01*
X14172692Y-16078981D02*
X14153645Y-16069457D01*
X14153645Y-16069457D02*
X14125073Y-16069457D01*
X14125073Y-16069457D02*
X14106026Y-16059933D01*
X14106026Y-16059933D02*
X14096502Y-16040886D01*
X14096502Y-16040886D02*
X14096502Y-16031362D01*
X14096502Y-16031362D02*
X14106026Y-16012314D01*
X14106026Y-16012314D02*
X14125073Y-16002790D01*
X14125073Y-16002790D02*
X14153645Y-16002790D01*
X14153645Y-16002790D02*
X14172692Y-16012314D01*
X14248883Y-16212314D02*
X14258407Y-16202790D01*
X14258407Y-16202790D02*
X14277454Y-16174219D01*
X14277454Y-16174219D02*
X14286978Y-16155171D01*
X14286978Y-16155171D02*
X14296502Y-16126600D01*
X14296502Y-16126600D02*
X14306026Y-16078981D01*
X14306026Y-16078981D02*
X14306026Y-16040886D01*
X14306026Y-16040886D02*
X14296502Y-15993266D01*
X14296502Y-15993266D02*
X14286978Y-15964695D01*
X14286978Y-15964695D02*
X14277454Y-15945647D01*
X14277454Y-15945647D02*
X14258407Y-15917076D01*
X14258407Y-15917076D02*
X14248883Y-15907552D01*
D10*
X9459908Y-16342228D02*
X9459908Y-16275052D01*
X9392732Y-16275052D01*
X9392732Y-16342228D01*
X9459908Y-16342228D01*
D11*
X9772692Y-16200124D02*
X9791740Y-16200124D01*
X9791740Y-16200124D02*
X9810787Y-16209647D01*
X9810787Y-16209647D02*
X9820311Y-16219171D01*
X9820311Y-16219171D02*
X9829835Y-16238219D01*
X9829835Y-16238219D02*
X9839359Y-16276314D01*
X9839359Y-16276314D02*
X9839359Y-16323933D01*
X9839359Y-16323933D02*
X9829835Y-16362028D01*
X9829835Y-16362028D02*
X9820311Y-16381076D01*
X9820311Y-16381076D02*
X9810787Y-16390600D01*
X9810787Y-16390600D02*
X9791740Y-16400124D01*
X9791740Y-16400124D02*
X9772692Y-16400124D01*
X9772692Y-16400124D02*
X9753644Y-16390600D01*
X9753644Y-16390600D02*
X9744121Y-16381076D01*
X9744121Y-16381076D02*
X9734597Y-16362028D01*
X9734597Y-16362028D02*
X9725073Y-16323933D01*
X9725073Y-16323933D02*
X9725073Y-16276314D01*
X9725073Y-16276314D02*
X9734597Y-16238219D01*
X9734597Y-16238219D02*
X9744121Y-16219171D01*
X9744121Y-16219171D02*
X9753644Y-16209647D01*
X9753644Y-16209647D02*
X9772692Y-16200124D01*
X9925073Y-16381076D02*
X9934597Y-16390600D01*
X9934597Y-16390600D02*
X9925073Y-16400124D01*
X9925073Y-16400124D02*
X9915549Y-16390600D01*
X9915549Y-16390600D02*
X9925073Y-16381076D01*
X9925073Y-16381076D02*
X9925073Y-16400124D01*
X10029835Y-16400124D02*
X10067930Y-16400124D01*
X10067930Y-16400124D02*
X10086978Y-16390600D01*
X10086978Y-16390600D02*
X10096502Y-16381076D01*
X10096502Y-16381076D02*
X10115549Y-16352505D01*
X10115549Y-16352505D02*
X10125073Y-16314409D01*
X10125073Y-16314409D02*
X10125073Y-16238219D01*
X10125073Y-16238219D02*
X10115549Y-16219171D01*
X10115549Y-16219171D02*
X10106025Y-16209647D01*
X10106025Y-16209647D02*
X10086978Y-16200124D01*
X10086978Y-16200124D02*
X10048883Y-16200124D01*
X10048883Y-16200124D02*
X10029835Y-16209647D01*
X10029835Y-16209647D02*
X10020311Y-16219171D01*
X10020311Y-16219171D02*
X10010787Y-16238219D01*
X10010787Y-16238219D02*
X10010787Y-16285838D01*
X10010787Y-16285838D02*
X10020311Y-16304886D01*
X10020311Y-16304886D02*
X10029835Y-16314409D01*
X10029835Y-16314409D02*
X10048883Y-16323933D01*
X10048883Y-16323933D02*
X10086978Y-16323933D01*
X10086978Y-16323933D02*
X10106025Y-16314409D01*
X10106025Y-16314409D02*
X10115549Y-16304886D01*
X10115549Y-16304886D02*
X10125073Y-16285838D01*
X10306025Y-16200124D02*
X10210787Y-16200124D01*
X10210787Y-16200124D02*
X10201264Y-16295362D01*
X10201264Y-16295362D02*
X10210787Y-16285838D01*
X10210787Y-16285838D02*
X10229835Y-16276314D01*
X10229835Y-16276314D02*
X10277454Y-16276314D01*
X10277454Y-16276314D02*
X10296502Y-16285838D01*
X10296502Y-16285838D02*
X10306025Y-16295362D01*
X10306025Y-16295362D02*
X10315549Y-16314409D01*
X10315549Y-16314409D02*
X10315549Y-16362028D01*
X10315549Y-16362028D02*
X10306025Y-16381076D01*
X10306025Y-16381076D02*
X10296502Y-16390600D01*
X10296502Y-16390600D02*
X10277454Y-16400124D01*
X10277454Y-16400124D02*
X10229835Y-16400124D01*
X10229835Y-16400124D02*
X10210787Y-16390600D01*
X10210787Y-16390600D02*
X10201264Y-16381076D01*
X10439359Y-16200124D02*
X10458406Y-16200124D01*
X10458406Y-16200124D02*
X10477454Y-16209647D01*
X10477454Y-16209647D02*
X10486978Y-16219171D01*
X10486978Y-16219171D02*
X10496502Y-16238219D01*
X10496502Y-16238219D02*
X10506025Y-16276314D01*
X10506025Y-16276314D02*
X10506025Y-16323933D01*
X10506025Y-16323933D02*
X10496502Y-16362028D01*
X10496502Y-16362028D02*
X10486978Y-16381076D01*
X10486978Y-16381076D02*
X10477454Y-16390600D01*
X10477454Y-16390600D02*
X10458406Y-16400124D01*
X10458406Y-16400124D02*
X10439359Y-16400124D01*
X10439359Y-16400124D02*
X10420311Y-16390600D01*
X10420311Y-16390600D02*
X10410787Y-16381076D01*
X10410787Y-16381076D02*
X10401264Y-16362028D01*
X10401264Y-16362028D02*
X10391740Y-16323933D01*
X10391740Y-16323933D02*
X10391740Y-16276314D01*
X10391740Y-16276314D02*
X10401264Y-16238219D01*
X10401264Y-16238219D02*
X10410787Y-16219171D01*
X10410787Y-16219171D02*
X10420311Y-16209647D01*
X10420311Y-16209647D02*
X10439359Y-16200124D01*
X10591740Y-16400124D02*
X10591740Y-16266790D01*
X10591740Y-16285838D02*
X10601264Y-16276314D01*
X10601264Y-16276314D02*
X10620311Y-16266790D01*
X10620311Y-16266790D02*
X10648883Y-16266790D01*
X10648883Y-16266790D02*
X10667930Y-16276314D01*
X10667930Y-16276314D02*
X10677454Y-16295362D01*
X10677454Y-16295362D02*
X10677454Y-16400124D01*
X10677454Y-16295362D02*
X10686978Y-16276314D01*
X10686978Y-16276314D02*
X10706025Y-16266790D01*
X10706025Y-16266790D02*
X10734597Y-16266790D01*
X10734597Y-16266790D02*
X10753645Y-16276314D01*
X10753645Y-16276314D02*
X10763168Y-16295362D01*
X10763168Y-16295362D02*
X10763168Y-16400124D01*
X10858406Y-16400124D02*
X10858406Y-16266790D01*
X10858406Y-16285838D02*
X10867930Y-16276314D01*
X10867930Y-16276314D02*
X10886978Y-16266790D01*
X10886978Y-16266790D02*
X10915549Y-16266790D01*
X10915549Y-16266790D02*
X10934597Y-16276314D01*
X10934597Y-16276314D02*
X10944121Y-16295362D01*
X10944121Y-16295362D02*
X10944121Y-16400124D01*
X10944121Y-16295362D02*
X10953645Y-16276314D01*
X10953645Y-16276314D02*
X10972692Y-16266790D01*
X10972692Y-16266790D02*
X11001264Y-16266790D01*
X11001264Y-16266790D02*
X11020311Y-16276314D01*
X11020311Y-16276314D02*
X11029835Y-16295362D01*
X11029835Y-16295362D02*
X11029835Y-16400124D01*
X11420311Y-16190600D02*
X11248883Y-16447743D01*
X11677454Y-16200124D02*
X11696502Y-16200124D01*
X11696502Y-16200124D02*
X11715549Y-16209647D01*
X11715549Y-16209647D02*
X11725073Y-16219171D01*
X11725073Y-16219171D02*
X11734597Y-16238219D01*
X11734597Y-16238219D02*
X11744121Y-16276314D01*
X11744121Y-16276314D02*
X11744121Y-16323933D01*
X11744121Y-16323933D02*
X11734597Y-16362028D01*
X11734597Y-16362028D02*
X11725073Y-16381076D01*
X11725073Y-16381076D02*
X11715549Y-16390600D01*
X11715549Y-16390600D02*
X11696502Y-16400124D01*
X11696502Y-16400124D02*
X11677454Y-16400124D01*
X11677454Y-16400124D02*
X11658406Y-16390600D01*
X11658406Y-16390600D02*
X11648883Y-16381076D01*
X11648883Y-16381076D02*
X11639359Y-16362028D01*
X11639359Y-16362028D02*
X11629835Y-16323933D01*
X11629835Y-16323933D02*
X11629835Y-16276314D01*
X11629835Y-16276314D02*
X11639359Y-16238219D01*
X11639359Y-16238219D02*
X11648883Y-16219171D01*
X11648883Y-16219171D02*
X11658406Y-16209647D01*
X11658406Y-16209647D02*
X11677454Y-16200124D01*
X11829835Y-16381076D02*
X11839359Y-16390600D01*
X11839359Y-16390600D02*
X11829835Y-16400124D01*
X11829835Y-16400124D02*
X11820311Y-16390600D01*
X11820311Y-16390600D02*
X11829835Y-16381076D01*
X11829835Y-16381076D02*
X11829835Y-16400124D01*
X11963168Y-16200124D02*
X11982216Y-16200124D01*
X11982216Y-16200124D02*
X12001264Y-16209647D01*
X12001264Y-16209647D02*
X12010787Y-16219171D01*
X12010787Y-16219171D02*
X12020311Y-16238219D01*
X12020311Y-16238219D02*
X12029835Y-16276314D01*
X12029835Y-16276314D02*
X12029835Y-16323933D01*
X12029835Y-16323933D02*
X12020311Y-16362028D01*
X12020311Y-16362028D02*
X12010787Y-16381076D01*
X12010787Y-16381076D02*
X12001264Y-16390600D01*
X12001264Y-16390600D02*
X11982216Y-16400124D01*
X11982216Y-16400124D02*
X11963168Y-16400124D01*
X11963168Y-16400124D02*
X11944121Y-16390600D01*
X11944121Y-16390600D02*
X11934597Y-16381076D01*
X11934597Y-16381076D02*
X11925073Y-16362028D01*
X11925073Y-16362028D02*
X11915549Y-16323933D01*
X11915549Y-16323933D02*
X11915549Y-16276314D01*
X11915549Y-16276314D02*
X11925073Y-16238219D01*
X11925073Y-16238219D02*
X11934597Y-16219171D01*
X11934597Y-16219171D02*
X11944121Y-16209647D01*
X11944121Y-16209647D02*
X11963168Y-16200124D01*
X12096502Y-16200124D02*
X12220311Y-16200124D01*
X12220311Y-16200124D02*
X12153645Y-16276314D01*
X12153645Y-16276314D02*
X12182216Y-16276314D01*
X12182216Y-16276314D02*
X12201264Y-16285838D01*
X12201264Y-16285838D02*
X12210787Y-16295362D01*
X12210787Y-16295362D02*
X12220311Y-16314409D01*
X12220311Y-16314409D02*
X12220311Y-16362028D01*
X12220311Y-16362028D02*
X12210787Y-16381076D01*
X12210787Y-16381076D02*
X12201264Y-16390600D01*
X12201264Y-16390600D02*
X12182216Y-16400124D01*
X12182216Y-16400124D02*
X12125073Y-16400124D01*
X12125073Y-16400124D02*
X12106026Y-16390600D01*
X12106026Y-16390600D02*
X12096502Y-16381076D01*
X12286978Y-16200124D02*
X12420311Y-16200124D01*
X12420311Y-16200124D02*
X12334597Y-16400124D01*
X12582216Y-16266790D02*
X12582216Y-16400124D01*
X12534597Y-16190600D02*
X12486978Y-16333457D01*
X12486978Y-16333457D02*
X12610787Y-16333457D01*
X12677454Y-16200124D02*
X12677454Y-16238219D01*
X12753645Y-16200124D02*
X12753645Y-16238219D01*
X13048883Y-16476314D02*
X13039359Y-16466790D01*
X13039359Y-16466790D02*
X13020311Y-16438219D01*
X13020311Y-16438219D02*
X13010788Y-16419171D01*
X13010788Y-16419171D02*
X13001264Y-16390600D01*
X13001264Y-16390600D02*
X12991740Y-16342981D01*
X12991740Y-16342981D02*
X12991740Y-16304886D01*
X12991740Y-16304886D02*
X13001264Y-16257266D01*
X13001264Y-16257266D02*
X13010788Y-16228695D01*
X13010788Y-16228695D02*
X13020311Y-16209647D01*
X13020311Y-16209647D02*
X13039359Y-16181076D01*
X13039359Y-16181076D02*
X13048883Y-16171552D01*
X13210788Y-16266790D02*
X13210788Y-16400124D01*
X13163168Y-16190600D02*
X13115549Y-16333457D01*
X13115549Y-16333457D02*
X13239359Y-16333457D01*
X13467930Y-16400124D02*
X13467930Y-16200124D01*
X13553645Y-16400124D02*
X13553645Y-16295362D01*
X13553645Y-16295362D02*
X13544121Y-16276314D01*
X13544121Y-16276314D02*
X13525073Y-16266790D01*
X13525073Y-16266790D02*
X13496502Y-16266790D01*
X13496502Y-16266790D02*
X13477454Y-16276314D01*
X13477454Y-16276314D02*
X13467930Y-16285838D01*
X13677454Y-16400124D02*
X13658407Y-16390600D01*
X13658407Y-16390600D02*
X13648883Y-16381076D01*
X13648883Y-16381076D02*
X13639359Y-16362028D01*
X13639359Y-16362028D02*
X13639359Y-16304886D01*
X13639359Y-16304886D02*
X13648883Y-16285838D01*
X13648883Y-16285838D02*
X13658407Y-16276314D01*
X13658407Y-16276314D02*
X13677454Y-16266790D01*
X13677454Y-16266790D02*
X13706026Y-16266790D01*
X13706026Y-16266790D02*
X13725073Y-16276314D01*
X13725073Y-16276314D02*
X13734597Y-16285838D01*
X13734597Y-16285838D02*
X13744121Y-16304886D01*
X13744121Y-16304886D02*
X13744121Y-16362028D01*
X13744121Y-16362028D02*
X13734597Y-16381076D01*
X13734597Y-16381076D02*
X13725073Y-16390600D01*
X13725073Y-16390600D02*
X13706026Y-16400124D01*
X13706026Y-16400124D02*
X13677454Y-16400124D01*
X13858407Y-16400124D02*
X13839359Y-16390600D01*
X13839359Y-16390600D02*
X13829835Y-16371552D01*
X13829835Y-16371552D02*
X13829835Y-16200124D01*
X14010788Y-16390600D02*
X13991740Y-16400124D01*
X13991740Y-16400124D02*
X13953645Y-16400124D01*
X13953645Y-16400124D02*
X13934597Y-16390600D01*
X13934597Y-16390600D02*
X13925073Y-16371552D01*
X13925073Y-16371552D02*
X13925073Y-16295362D01*
X13925073Y-16295362D02*
X13934597Y-16276314D01*
X13934597Y-16276314D02*
X13953645Y-16266790D01*
X13953645Y-16266790D02*
X13991740Y-16266790D01*
X13991740Y-16266790D02*
X14010788Y-16276314D01*
X14010788Y-16276314D02*
X14020311Y-16295362D01*
X14020311Y-16295362D02*
X14020311Y-16314409D01*
X14020311Y-16314409D02*
X13925073Y-16333457D01*
X14096502Y-16390600D02*
X14115550Y-16400124D01*
X14115550Y-16400124D02*
X14153645Y-16400124D01*
X14153645Y-16400124D02*
X14172692Y-16390600D01*
X14172692Y-16390600D02*
X14182216Y-16371552D01*
X14182216Y-16371552D02*
X14182216Y-16362028D01*
X14182216Y-16362028D02*
X14172692Y-16342981D01*
X14172692Y-16342981D02*
X14153645Y-16333457D01*
X14153645Y-16333457D02*
X14125073Y-16333457D01*
X14125073Y-16333457D02*
X14106026Y-16323933D01*
X14106026Y-16323933D02*
X14096502Y-16304886D01*
X14096502Y-16304886D02*
X14096502Y-16295362D01*
X14096502Y-16295362D02*
X14106026Y-16276314D01*
X14106026Y-16276314D02*
X14125073Y-16266790D01*
X14125073Y-16266790D02*
X14153645Y-16266790D01*
X14153645Y-16266790D02*
X14172692Y-16276314D01*
X14248883Y-16476314D02*
X14258407Y-16466790D01*
X14258407Y-16466790D02*
X14277454Y-16438219D01*
X14277454Y-16438219D02*
X14286978Y-16419171D01*
X14286978Y-16419171D02*
X14296502Y-16390600D01*
X14296502Y-16390600D02*
X14306026Y-16342981D01*
X14306026Y-16342981D02*
X14306026Y-16304886D01*
X14306026Y-16304886D02*
X14296502Y-16257266D01*
X14296502Y-16257266D02*
X14286978Y-16228695D01*
X14286978Y-16228695D02*
X14277454Y-16209647D01*
X14277454Y-16209647D02*
X14258407Y-16181076D01*
X14258407Y-16181076D02*
X14248883Y-16171552D01*
D10*
X9423820Y-16622640D02*
X9473820Y-16572640D01*
X9423820Y-16522640D01*
X9373820Y-16572640D01*
X9423820Y-16622640D01*
D11*
X9839359Y-16664124D02*
X9725073Y-16664124D01*
X9782216Y-16664124D02*
X9782216Y-16464124D01*
X9782216Y-16464124D02*
X9763168Y-16492695D01*
X9763168Y-16492695D02*
X9744121Y-16511743D01*
X9744121Y-16511743D02*
X9725073Y-16521266D01*
X9925073Y-16645076D02*
X9934597Y-16654600D01*
X9934597Y-16654600D02*
X9925073Y-16664124D01*
X9925073Y-16664124D02*
X9915549Y-16654600D01*
X9915549Y-16654600D02*
X9925073Y-16645076D01*
X9925073Y-16645076D02*
X9925073Y-16664124D01*
X10058406Y-16464124D02*
X10077454Y-16464124D01*
X10077454Y-16464124D02*
X10096502Y-16473647D01*
X10096502Y-16473647D02*
X10106025Y-16483171D01*
X10106025Y-16483171D02*
X10115549Y-16502219D01*
X10115549Y-16502219D02*
X10125073Y-16540314D01*
X10125073Y-16540314D02*
X10125073Y-16587933D01*
X10125073Y-16587933D02*
X10115549Y-16626028D01*
X10115549Y-16626028D02*
X10106025Y-16645076D01*
X10106025Y-16645076D02*
X10096502Y-16654600D01*
X10096502Y-16654600D02*
X10077454Y-16664124D01*
X10077454Y-16664124D02*
X10058406Y-16664124D01*
X10058406Y-16664124D02*
X10039359Y-16654600D01*
X10039359Y-16654600D02*
X10029835Y-16645076D01*
X10029835Y-16645076D02*
X10020311Y-16626028D01*
X10020311Y-16626028D02*
X10010787Y-16587933D01*
X10010787Y-16587933D02*
X10010787Y-16540314D01*
X10010787Y-16540314D02*
X10020311Y-16502219D01*
X10020311Y-16502219D02*
X10029835Y-16483171D01*
X10029835Y-16483171D02*
X10039359Y-16473647D01*
X10039359Y-16473647D02*
X10058406Y-16464124D01*
X10248883Y-16464124D02*
X10267930Y-16464124D01*
X10267930Y-16464124D02*
X10286978Y-16473647D01*
X10286978Y-16473647D02*
X10296502Y-16483171D01*
X10296502Y-16483171D02*
X10306025Y-16502219D01*
X10306025Y-16502219D02*
X10315549Y-16540314D01*
X10315549Y-16540314D02*
X10315549Y-16587933D01*
X10315549Y-16587933D02*
X10306025Y-16626028D01*
X10306025Y-16626028D02*
X10296502Y-16645076D01*
X10296502Y-16645076D02*
X10286978Y-16654600D01*
X10286978Y-16654600D02*
X10267930Y-16664124D01*
X10267930Y-16664124D02*
X10248883Y-16664124D01*
X10248883Y-16664124D02*
X10229835Y-16654600D01*
X10229835Y-16654600D02*
X10220311Y-16645076D01*
X10220311Y-16645076D02*
X10210787Y-16626028D01*
X10210787Y-16626028D02*
X10201264Y-16587933D01*
X10201264Y-16587933D02*
X10201264Y-16540314D01*
X10201264Y-16540314D02*
X10210787Y-16502219D01*
X10210787Y-16502219D02*
X10220311Y-16483171D01*
X10220311Y-16483171D02*
X10229835Y-16473647D01*
X10229835Y-16473647D02*
X10248883Y-16464124D01*
X10439359Y-16464124D02*
X10458406Y-16464124D01*
X10458406Y-16464124D02*
X10477454Y-16473647D01*
X10477454Y-16473647D02*
X10486978Y-16483171D01*
X10486978Y-16483171D02*
X10496502Y-16502219D01*
X10496502Y-16502219D02*
X10506025Y-16540314D01*
X10506025Y-16540314D02*
X10506025Y-16587933D01*
X10506025Y-16587933D02*
X10496502Y-16626028D01*
X10496502Y-16626028D02*
X10486978Y-16645076D01*
X10486978Y-16645076D02*
X10477454Y-16654600D01*
X10477454Y-16654600D02*
X10458406Y-16664124D01*
X10458406Y-16664124D02*
X10439359Y-16664124D01*
X10439359Y-16664124D02*
X10420311Y-16654600D01*
X10420311Y-16654600D02*
X10410787Y-16645076D01*
X10410787Y-16645076D02*
X10401264Y-16626028D01*
X10401264Y-16626028D02*
X10391740Y-16587933D01*
X10391740Y-16587933D02*
X10391740Y-16540314D01*
X10391740Y-16540314D02*
X10401264Y-16502219D01*
X10401264Y-16502219D02*
X10410787Y-16483171D01*
X10410787Y-16483171D02*
X10420311Y-16473647D01*
X10420311Y-16473647D02*
X10439359Y-16464124D01*
X10591740Y-16664124D02*
X10591740Y-16530790D01*
X10591740Y-16549838D02*
X10601264Y-16540314D01*
X10601264Y-16540314D02*
X10620311Y-16530790D01*
X10620311Y-16530790D02*
X10648883Y-16530790D01*
X10648883Y-16530790D02*
X10667930Y-16540314D01*
X10667930Y-16540314D02*
X10677454Y-16559362D01*
X10677454Y-16559362D02*
X10677454Y-16664124D01*
X10677454Y-16559362D02*
X10686978Y-16540314D01*
X10686978Y-16540314D02*
X10706025Y-16530790D01*
X10706025Y-16530790D02*
X10734597Y-16530790D01*
X10734597Y-16530790D02*
X10753645Y-16540314D01*
X10753645Y-16540314D02*
X10763168Y-16559362D01*
X10763168Y-16559362D02*
X10763168Y-16664124D01*
X10858406Y-16664124D02*
X10858406Y-16530790D01*
X10858406Y-16549838D02*
X10867930Y-16540314D01*
X10867930Y-16540314D02*
X10886978Y-16530790D01*
X10886978Y-16530790D02*
X10915549Y-16530790D01*
X10915549Y-16530790D02*
X10934597Y-16540314D01*
X10934597Y-16540314D02*
X10944121Y-16559362D01*
X10944121Y-16559362D02*
X10944121Y-16664124D01*
X10944121Y-16559362D02*
X10953645Y-16540314D01*
X10953645Y-16540314D02*
X10972692Y-16530790D01*
X10972692Y-16530790D02*
X11001264Y-16530790D01*
X11001264Y-16530790D02*
X11020311Y-16540314D01*
X11020311Y-16540314D02*
X11029835Y-16559362D01*
X11029835Y-16559362D02*
X11029835Y-16664124D01*
X11420311Y-16454600D02*
X11248883Y-16711743D01*
X11677454Y-16464124D02*
X11696502Y-16464124D01*
X11696502Y-16464124D02*
X11715549Y-16473647D01*
X11715549Y-16473647D02*
X11725073Y-16483171D01*
X11725073Y-16483171D02*
X11734597Y-16502219D01*
X11734597Y-16502219D02*
X11744121Y-16540314D01*
X11744121Y-16540314D02*
X11744121Y-16587933D01*
X11744121Y-16587933D02*
X11734597Y-16626028D01*
X11734597Y-16626028D02*
X11725073Y-16645076D01*
X11725073Y-16645076D02*
X11715549Y-16654600D01*
X11715549Y-16654600D02*
X11696502Y-16664124D01*
X11696502Y-16664124D02*
X11677454Y-16664124D01*
X11677454Y-16664124D02*
X11658406Y-16654600D01*
X11658406Y-16654600D02*
X11648883Y-16645076D01*
X11648883Y-16645076D02*
X11639359Y-16626028D01*
X11639359Y-16626028D02*
X11629835Y-16587933D01*
X11629835Y-16587933D02*
X11629835Y-16540314D01*
X11629835Y-16540314D02*
X11639359Y-16502219D01*
X11639359Y-16502219D02*
X11648883Y-16483171D01*
X11648883Y-16483171D02*
X11658406Y-16473647D01*
X11658406Y-16473647D02*
X11677454Y-16464124D01*
X11829835Y-16645076D02*
X11839359Y-16654600D01*
X11839359Y-16654600D02*
X11829835Y-16664124D01*
X11829835Y-16664124D02*
X11820311Y-16654600D01*
X11820311Y-16654600D02*
X11829835Y-16645076D01*
X11829835Y-16645076D02*
X11829835Y-16664124D01*
X11963168Y-16464124D02*
X11982216Y-16464124D01*
X11982216Y-16464124D02*
X12001264Y-16473647D01*
X12001264Y-16473647D02*
X12010787Y-16483171D01*
X12010787Y-16483171D02*
X12020311Y-16502219D01*
X12020311Y-16502219D02*
X12029835Y-16540314D01*
X12029835Y-16540314D02*
X12029835Y-16587933D01*
X12029835Y-16587933D02*
X12020311Y-16626028D01*
X12020311Y-16626028D02*
X12010787Y-16645076D01*
X12010787Y-16645076D02*
X12001264Y-16654600D01*
X12001264Y-16654600D02*
X11982216Y-16664124D01*
X11982216Y-16664124D02*
X11963168Y-16664124D01*
X11963168Y-16664124D02*
X11944121Y-16654600D01*
X11944121Y-16654600D02*
X11934597Y-16645076D01*
X11934597Y-16645076D02*
X11925073Y-16626028D01*
X11925073Y-16626028D02*
X11915549Y-16587933D01*
X11915549Y-16587933D02*
X11915549Y-16540314D01*
X11915549Y-16540314D02*
X11925073Y-16502219D01*
X11925073Y-16502219D02*
X11934597Y-16483171D01*
X11934597Y-16483171D02*
X11944121Y-16473647D01*
X11944121Y-16473647D02*
X11963168Y-16464124D01*
X12096502Y-16464124D02*
X12220311Y-16464124D01*
X12220311Y-16464124D02*
X12153645Y-16540314D01*
X12153645Y-16540314D02*
X12182216Y-16540314D01*
X12182216Y-16540314D02*
X12201264Y-16549838D01*
X12201264Y-16549838D02*
X12210787Y-16559362D01*
X12210787Y-16559362D02*
X12220311Y-16578409D01*
X12220311Y-16578409D02*
X12220311Y-16626028D01*
X12220311Y-16626028D02*
X12210787Y-16645076D01*
X12210787Y-16645076D02*
X12201264Y-16654600D01*
X12201264Y-16654600D02*
X12182216Y-16664124D01*
X12182216Y-16664124D02*
X12125073Y-16664124D01*
X12125073Y-16664124D02*
X12106026Y-16654600D01*
X12106026Y-16654600D02*
X12096502Y-16645076D01*
X12315549Y-16664124D02*
X12353645Y-16664124D01*
X12353645Y-16664124D02*
X12372692Y-16654600D01*
X12372692Y-16654600D02*
X12382216Y-16645076D01*
X12382216Y-16645076D02*
X12401264Y-16616505D01*
X12401264Y-16616505D02*
X12410787Y-16578409D01*
X12410787Y-16578409D02*
X12410787Y-16502219D01*
X12410787Y-16502219D02*
X12401264Y-16483171D01*
X12401264Y-16483171D02*
X12391740Y-16473647D01*
X12391740Y-16473647D02*
X12372692Y-16464124D01*
X12372692Y-16464124D02*
X12334597Y-16464124D01*
X12334597Y-16464124D02*
X12315549Y-16473647D01*
X12315549Y-16473647D02*
X12306026Y-16483171D01*
X12306026Y-16483171D02*
X12296502Y-16502219D01*
X12296502Y-16502219D02*
X12296502Y-16549838D01*
X12296502Y-16549838D02*
X12306026Y-16568886D01*
X12306026Y-16568886D02*
X12315549Y-16578409D01*
X12315549Y-16578409D02*
X12334597Y-16587933D01*
X12334597Y-16587933D02*
X12372692Y-16587933D01*
X12372692Y-16587933D02*
X12391740Y-16578409D01*
X12391740Y-16578409D02*
X12401264Y-16568886D01*
X12401264Y-16568886D02*
X12410787Y-16549838D01*
X12582216Y-16530790D02*
X12582216Y-16664124D01*
X12534597Y-16454600D02*
X12486978Y-16597457D01*
X12486978Y-16597457D02*
X12610787Y-16597457D01*
X12677454Y-16464124D02*
X12677454Y-16502219D01*
X12753645Y-16464124D02*
X12753645Y-16502219D01*
X13048883Y-16740314D02*
X13039359Y-16730790D01*
X13039359Y-16730790D02*
X13020311Y-16702219D01*
X13020311Y-16702219D02*
X13010788Y-16683171D01*
X13010788Y-16683171D02*
X13001264Y-16654600D01*
X13001264Y-16654600D02*
X12991740Y-16606981D01*
X12991740Y-16606981D02*
X12991740Y-16568886D01*
X12991740Y-16568886D02*
X13001264Y-16521266D01*
X13001264Y-16521266D02*
X13010788Y-16492695D01*
X13010788Y-16492695D02*
X13020311Y-16473647D01*
X13020311Y-16473647D02*
X13039359Y-16445076D01*
X13039359Y-16445076D02*
X13048883Y-16435552D01*
X13229835Y-16664124D02*
X13115549Y-16664124D01*
X13172692Y-16664124D02*
X13172692Y-16464124D01*
X13172692Y-16464124D02*
X13153645Y-16492695D01*
X13153645Y-16492695D02*
X13134597Y-16511743D01*
X13134597Y-16511743D02*
X13115549Y-16521266D01*
X13420311Y-16664124D02*
X13306026Y-16664124D01*
X13363168Y-16664124D02*
X13363168Y-16464124D01*
X13363168Y-16464124D02*
X13344121Y-16492695D01*
X13344121Y-16492695D02*
X13325073Y-16511743D01*
X13325073Y-16511743D02*
X13306026Y-16521266D01*
X13591740Y-16464124D02*
X13553645Y-16464124D01*
X13553645Y-16464124D02*
X13534597Y-16473647D01*
X13534597Y-16473647D02*
X13525073Y-16483171D01*
X13525073Y-16483171D02*
X13506026Y-16511743D01*
X13506026Y-16511743D02*
X13496502Y-16549838D01*
X13496502Y-16549838D02*
X13496502Y-16626028D01*
X13496502Y-16626028D02*
X13506026Y-16645076D01*
X13506026Y-16645076D02*
X13515549Y-16654600D01*
X13515549Y-16654600D02*
X13534597Y-16664124D01*
X13534597Y-16664124D02*
X13572692Y-16664124D01*
X13572692Y-16664124D02*
X13591740Y-16654600D01*
X13591740Y-16654600D02*
X13601264Y-16645076D01*
X13601264Y-16645076D02*
X13610788Y-16626028D01*
X13610788Y-16626028D02*
X13610788Y-16578409D01*
X13610788Y-16578409D02*
X13601264Y-16559362D01*
X13601264Y-16559362D02*
X13591740Y-16549838D01*
X13591740Y-16549838D02*
X13572692Y-16540314D01*
X13572692Y-16540314D02*
X13534597Y-16540314D01*
X13534597Y-16540314D02*
X13515549Y-16549838D01*
X13515549Y-16549838D02*
X13506026Y-16559362D01*
X13506026Y-16559362D02*
X13496502Y-16578409D01*
X13848883Y-16664124D02*
X13848883Y-16464124D01*
X13934597Y-16664124D02*
X13934597Y-16559362D01*
X13934597Y-16559362D02*
X13925073Y-16540314D01*
X13925073Y-16540314D02*
X13906026Y-16530790D01*
X13906026Y-16530790D02*
X13877454Y-16530790D01*
X13877454Y-16530790D02*
X13858407Y-16540314D01*
X13858407Y-16540314D02*
X13848883Y-16549838D01*
X14058407Y-16664124D02*
X14039359Y-16654600D01*
X14039359Y-16654600D02*
X14029835Y-16645076D01*
X14029835Y-16645076D02*
X14020311Y-16626028D01*
X14020311Y-16626028D02*
X14020311Y-16568886D01*
X14020311Y-16568886D02*
X14029835Y-16549838D01*
X14029835Y-16549838D02*
X14039359Y-16540314D01*
X14039359Y-16540314D02*
X14058407Y-16530790D01*
X14058407Y-16530790D02*
X14086978Y-16530790D01*
X14086978Y-16530790D02*
X14106026Y-16540314D01*
X14106026Y-16540314D02*
X14115550Y-16549838D01*
X14115550Y-16549838D02*
X14125073Y-16568886D01*
X14125073Y-16568886D02*
X14125073Y-16626028D01*
X14125073Y-16626028D02*
X14115550Y-16645076D01*
X14115550Y-16645076D02*
X14106026Y-16654600D01*
X14106026Y-16654600D02*
X14086978Y-16664124D01*
X14086978Y-16664124D02*
X14058407Y-16664124D01*
X14239359Y-16664124D02*
X14220311Y-16654600D01*
X14220311Y-16654600D02*
X14210788Y-16635552D01*
X14210788Y-16635552D02*
X14210788Y-16464124D01*
X14391740Y-16654600D02*
X14372692Y-16664124D01*
X14372692Y-16664124D02*
X14334597Y-16664124D01*
X14334597Y-16664124D02*
X14315550Y-16654600D01*
X14315550Y-16654600D02*
X14306026Y-16635552D01*
X14306026Y-16635552D02*
X14306026Y-16559362D01*
X14306026Y-16559362D02*
X14315550Y-16540314D01*
X14315550Y-16540314D02*
X14334597Y-16530790D01*
X14334597Y-16530790D02*
X14372692Y-16530790D01*
X14372692Y-16530790D02*
X14391740Y-16540314D01*
X14391740Y-16540314D02*
X14401264Y-16559362D01*
X14401264Y-16559362D02*
X14401264Y-16578409D01*
X14401264Y-16578409D02*
X14306026Y-16597457D01*
X14477454Y-16654600D02*
X14496502Y-16664124D01*
X14496502Y-16664124D02*
X14534597Y-16664124D01*
X14534597Y-16664124D02*
X14553645Y-16654600D01*
X14553645Y-16654600D02*
X14563169Y-16635552D01*
X14563169Y-16635552D02*
X14563169Y-16626028D01*
X14563169Y-16626028D02*
X14553645Y-16606981D01*
X14553645Y-16606981D02*
X14534597Y-16597457D01*
X14534597Y-16597457D02*
X14506026Y-16597457D01*
X14506026Y-16597457D02*
X14486978Y-16587933D01*
X14486978Y-16587933D02*
X14477454Y-16568886D01*
X14477454Y-16568886D02*
X14477454Y-16559362D01*
X14477454Y-16559362D02*
X14486978Y-16540314D01*
X14486978Y-16540314D02*
X14506026Y-16530790D01*
X14506026Y-16530790D02*
X14534597Y-16530790D01*
X14534597Y-16530790D02*
X14553645Y-16540314D01*
X14629835Y-16740314D02*
X14639359Y-16730790D01*
X14639359Y-16730790D02*
X14658407Y-16702219D01*
X14658407Y-16702219D02*
X14667931Y-16683171D01*
X14667931Y-16683171D02*
X14677454Y-16654600D01*
X14677454Y-16654600D02*
X14686978Y-16606981D01*
X14686978Y-16606981D02*
X14686978Y-16568886D01*
X14686978Y-16568886D02*
X14677454Y-16521266D01*
X14677454Y-16521266D02*
X14667931Y-16492695D01*
X14667931Y-16492695D02*
X14658407Y-16473647D01*
X14658407Y-16473647D02*
X14639359Y-16445076D01*
X14639359Y-16445076D02*
X14629835Y-16435552D01*
D12*
X9354820Y-16777140D02*
X9473820Y-16896140D01*
X9473820Y-16777140D02*
X9354820Y-16896140D01*
X9473820Y-16836640D02*
G75*
G02*
X9354820Y-16836640I-59500J0D01*
G01*
X9354820Y-16836640D02*
G75*
G02*
X9473820Y-16836640I59500J0D01*
G01*
D11*
X9839359Y-16928124D02*
X9725073Y-16928124D01*
X9782216Y-16928124D02*
X9782216Y-16728124D01*
X9782216Y-16728124D02*
X9763168Y-16756695D01*
X9763168Y-16756695D02*
X9744121Y-16775743D01*
X9744121Y-16775743D02*
X9725073Y-16785267D01*
X9925073Y-16909076D02*
X9934597Y-16918600D01*
X9934597Y-16918600D02*
X9925073Y-16928124D01*
X9925073Y-16928124D02*
X9915549Y-16918600D01*
X9915549Y-16918600D02*
X9925073Y-16909076D01*
X9925073Y-16909076D02*
X9925073Y-16928124D01*
X10125073Y-16928124D02*
X10010787Y-16928124D01*
X10067930Y-16928124D02*
X10067930Y-16728124D01*
X10067930Y-16728124D02*
X10048883Y-16756695D01*
X10048883Y-16756695D02*
X10029835Y-16775743D01*
X10029835Y-16775743D02*
X10010787Y-16785267D01*
X10220311Y-16928124D02*
X10258406Y-16928124D01*
X10258406Y-16928124D02*
X10277454Y-16918600D01*
X10277454Y-16918600D02*
X10286978Y-16909076D01*
X10286978Y-16909076D02*
X10306025Y-16880505D01*
X10306025Y-16880505D02*
X10315549Y-16842409D01*
X10315549Y-16842409D02*
X10315549Y-16766219D01*
X10315549Y-16766219D02*
X10306025Y-16747171D01*
X10306025Y-16747171D02*
X10296502Y-16737647D01*
X10296502Y-16737647D02*
X10277454Y-16728124D01*
X10277454Y-16728124D02*
X10239359Y-16728124D01*
X10239359Y-16728124D02*
X10220311Y-16737647D01*
X10220311Y-16737647D02*
X10210787Y-16747171D01*
X10210787Y-16747171D02*
X10201264Y-16766219D01*
X10201264Y-16766219D02*
X10201264Y-16813838D01*
X10201264Y-16813838D02*
X10210787Y-16832886D01*
X10210787Y-16832886D02*
X10220311Y-16842409D01*
X10220311Y-16842409D02*
X10239359Y-16851933D01*
X10239359Y-16851933D02*
X10277454Y-16851933D01*
X10277454Y-16851933D02*
X10296502Y-16842409D01*
X10296502Y-16842409D02*
X10306025Y-16832886D01*
X10306025Y-16832886D02*
X10315549Y-16813838D01*
X10439359Y-16728124D02*
X10458406Y-16728124D01*
X10458406Y-16728124D02*
X10477454Y-16737647D01*
X10477454Y-16737647D02*
X10486978Y-16747171D01*
X10486978Y-16747171D02*
X10496502Y-16766219D01*
X10496502Y-16766219D02*
X10506025Y-16804314D01*
X10506025Y-16804314D02*
X10506025Y-16851933D01*
X10506025Y-16851933D02*
X10496502Y-16890028D01*
X10496502Y-16890028D02*
X10486978Y-16909076D01*
X10486978Y-16909076D02*
X10477454Y-16918600D01*
X10477454Y-16918600D02*
X10458406Y-16928124D01*
X10458406Y-16928124D02*
X10439359Y-16928124D01*
X10439359Y-16928124D02*
X10420311Y-16918600D01*
X10420311Y-16918600D02*
X10410787Y-16909076D01*
X10410787Y-16909076D02*
X10401264Y-16890028D01*
X10401264Y-16890028D02*
X10391740Y-16851933D01*
X10391740Y-16851933D02*
X10391740Y-16804314D01*
X10391740Y-16804314D02*
X10401264Y-16766219D01*
X10401264Y-16766219D02*
X10410787Y-16747171D01*
X10410787Y-16747171D02*
X10420311Y-16737647D01*
X10420311Y-16737647D02*
X10439359Y-16728124D01*
X10591740Y-16928124D02*
X10591740Y-16794790D01*
X10591740Y-16813838D02*
X10601264Y-16804314D01*
X10601264Y-16804314D02*
X10620311Y-16794790D01*
X10620311Y-16794790D02*
X10648883Y-16794790D01*
X10648883Y-16794790D02*
X10667930Y-16804314D01*
X10667930Y-16804314D02*
X10677454Y-16823362D01*
X10677454Y-16823362D02*
X10677454Y-16928124D01*
X10677454Y-16823362D02*
X10686978Y-16804314D01*
X10686978Y-16804314D02*
X10706025Y-16794790D01*
X10706025Y-16794790D02*
X10734597Y-16794790D01*
X10734597Y-16794790D02*
X10753645Y-16804314D01*
X10753645Y-16804314D02*
X10763168Y-16823362D01*
X10763168Y-16823362D02*
X10763168Y-16928124D01*
X10858406Y-16928124D02*
X10858406Y-16794790D01*
X10858406Y-16813838D02*
X10867930Y-16804314D01*
X10867930Y-16804314D02*
X10886978Y-16794790D01*
X10886978Y-16794790D02*
X10915549Y-16794790D01*
X10915549Y-16794790D02*
X10934597Y-16804314D01*
X10934597Y-16804314D02*
X10944121Y-16823362D01*
X10944121Y-16823362D02*
X10944121Y-16928124D01*
X10944121Y-16823362D02*
X10953645Y-16804314D01*
X10953645Y-16804314D02*
X10972692Y-16794790D01*
X10972692Y-16794790D02*
X11001264Y-16794790D01*
X11001264Y-16794790D02*
X11020311Y-16804314D01*
X11020311Y-16804314D02*
X11029835Y-16823362D01*
X11029835Y-16823362D02*
X11029835Y-16928124D01*
X11420311Y-16718600D02*
X11248883Y-16975743D01*
X11677454Y-16728124D02*
X11696502Y-16728124D01*
X11696502Y-16728124D02*
X11715549Y-16737647D01*
X11715549Y-16737647D02*
X11725073Y-16747171D01*
X11725073Y-16747171D02*
X11734597Y-16766219D01*
X11734597Y-16766219D02*
X11744121Y-16804314D01*
X11744121Y-16804314D02*
X11744121Y-16851933D01*
X11744121Y-16851933D02*
X11734597Y-16890028D01*
X11734597Y-16890028D02*
X11725073Y-16909076D01*
X11725073Y-16909076D02*
X11715549Y-16918600D01*
X11715549Y-16918600D02*
X11696502Y-16928124D01*
X11696502Y-16928124D02*
X11677454Y-16928124D01*
X11677454Y-16928124D02*
X11658406Y-16918600D01*
X11658406Y-16918600D02*
X11648883Y-16909076D01*
X11648883Y-16909076D02*
X11639359Y-16890028D01*
X11639359Y-16890028D02*
X11629835Y-16851933D01*
X11629835Y-16851933D02*
X11629835Y-16804314D01*
X11629835Y-16804314D02*
X11639359Y-16766219D01*
X11639359Y-16766219D02*
X11648883Y-16747171D01*
X11648883Y-16747171D02*
X11658406Y-16737647D01*
X11658406Y-16737647D02*
X11677454Y-16728124D01*
X11829835Y-16909076D02*
X11839359Y-16918600D01*
X11839359Y-16918600D02*
X11829835Y-16928124D01*
X11829835Y-16928124D02*
X11820311Y-16918600D01*
X11820311Y-16918600D02*
X11829835Y-16909076D01*
X11829835Y-16909076D02*
X11829835Y-16928124D01*
X11963168Y-16728124D02*
X11982216Y-16728124D01*
X11982216Y-16728124D02*
X12001264Y-16737647D01*
X12001264Y-16737647D02*
X12010787Y-16747171D01*
X12010787Y-16747171D02*
X12020311Y-16766219D01*
X12020311Y-16766219D02*
X12029835Y-16804314D01*
X12029835Y-16804314D02*
X12029835Y-16851933D01*
X12029835Y-16851933D02*
X12020311Y-16890028D01*
X12020311Y-16890028D02*
X12010787Y-16909076D01*
X12010787Y-16909076D02*
X12001264Y-16918600D01*
X12001264Y-16918600D02*
X11982216Y-16928124D01*
X11982216Y-16928124D02*
X11963168Y-16928124D01*
X11963168Y-16928124D02*
X11944121Y-16918600D01*
X11944121Y-16918600D02*
X11934597Y-16909076D01*
X11934597Y-16909076D02*
X11925073Y-16890028D01*
X11925073Y-16890028D02*
X11915549Y-16851933D01*
X11915549Y-16851933D02*
X11915549Y-16804314D01*
X11915549Y-16804314D02*
X11925073Y-16766219D01*
X11925073Y-16766219D02*
X11934597Y-16747171D01*
X11934597Y-16747171D02*
X11944121Y-16737647D01*
X11944121Y-16737647D02*
X11963168Y-16728124D01*
X12201264Y-16794790D02*
X12201264Y-16928124D01*
X12153645Y-16718600D02*
X12106026Y-16861457D01*
X12106026Y-16861457D02*
X12229835Y-16861457D01*
X12391740Y-16728124D02*
X12353645Y-16728124D01*
X12353645Y-16728124D02*
X12334597Y-16737647D01*
X12334597Y-16737647D02*
X12325073Y-16747171D01*
X12325073Y-16747171D02*
X12306026Y-16775743D01*
X12306026Y-16775743D02*
X12296502Y-16813838D01*
X12296502Y-16813838D02*
X12296502Y-16890028D01*
X12296502Y-16890028D02*
X12306026Y-16909076D01*
X12306026Y-16909076D02*
X12315549Y-16918600D01*
X12315549Y-16918600D02*
X12334597Y-16928124D01*
X12334597Y-16928124D02*
X12372692Y-16928124D01*
X12372692Y-16928124D02*
X12391740Y-16918600D01*
X12391740Y-16918600D02*
X12401264Y-16909076D01*
X12401264Y-16909076D02*
X12410787Y-16890028D01*
X12410787Y-16890028D02*
X12410787Y-16842409D01*
X12410787Y-16842409D02*
X12401264Y-16823362D01*
X12401264Y-16823362D02*
X12391740Y-16813838D01*
X12391740Y-16813838D02*
X12372692Y-16804314D01*
X12372692Y-16804314D02*
X12334597Y-16804314D01*
X12334597Y-16804314D02*
X12315549Y-16813838D01*
X12315549Y-16813838D02*
X12306026Y-16823362D01*
X12306026Y-16823362D02*
X12296502Y-16842409D01*
X12506026Y-16928124D02*
X12544121Y-16928124D01*
X12544121Y-16928124D02*
X12563168Y-16918600D01*
X12563168Y-16918600D02*
X12572692Y-16909076D01*
X12572692Y-16909076D02*
X12591740Y-16880505D01*
X12591740Y-16880505D02*
X12601264Y-16842409D01*
X12601264Y-16842409D02*
X12601264Y-16766219D01*
X12601264Y-16766219D02*
X12591740Y-16747171D01*
X12591740Y-16747171D02*
X12582216Y-16737647D01*
X12582216Y-16737647D02*
X12563168Y-16728124D01*
X12563168Y-16728124D02*
X12525073Y-16728124D01*
X12525073Y-16728124D02*
X12506026Y-16737647D01*
X12506026Y-16737647D02*
X12496502Y-16747171D01*
X12496502Y-16747171D02*
X12486978Y-16766219D01*
X12486978Y-16766219D02*
X12486978Y-16813838D01*
X12486978Y-16813838D02*
X12496502Y-16832886D01*
X12496502Y-16832886D02*
X12506026Y-16842409D01*
X12506026Y-16842409D02*
X12525073Y-16851933D01*
X12525073Y-16851933D02*
X12563168Y-16851933D01*
X12563168Y-16851933D02*
X12582216Y-16842409D01*
X12582216Y-16842409D02*
X12591740Y-16832886D01*
X12591740Y-16832886D02*
X12601264Y-16813838D01*
X12677454Y-16728124D02*
X12677454Y-16766219D01*
X12753645Y-16728124D02*
X12753645Y-16766219D01*
X13048883Y-17004314D02*
X13039359Y-16994790D01*
X13039359Y-16994790D02*
X13020311Y-16966219D01*
X13020311Y-16966219D02*
X13010788Y-16947171D01*
X13010788Y-16947171D02*
X13001264Y-16918600D01*
X13001264Y-16918600D02*
X12991740Y-16870981D01*
X12991740Y-16870981D02*
X12991740Y-16832886D01*
X12991740Y-16832886D02*
X13001264Y-16785267D01*
X13001264Y-16785267D02*
X13010788Y-16756695D01*
X13010788Y-16756695D02*
X13020311Y-16737647D01*
X13020311Y-16737647D02*
X13039359Y-16709076D01*
X13039359Y-16709076D02*
X13048883Y-16699552D01*
X13229835Y-16928124D02*
X13115549Y-16928124D01*
X13172692Y-16928124D02*
X13172692Y-16728124D01*
X13172692Y-16728124D02*
X13153645Y-16756695D01*
X13153645Y-16756695D02*
X13134597Y-16775743D01*
X13134597Y-16775743D02*
X13115549Y-16785267D01*
X13410788Y-16728124D02*
X13315549Y-16728124D01*
X13315549Y-16728124D02*
X13306026Y-16823362D01*
X13306026Y-16823362D02*
X13315549Y-16813838D01*
X13315549Y-16813838D02*
X13334597Y-16804314D01*
X13334597Y-16804314D02*
X13382216Y-16804314D01*
X13382216Y-16804314D02*
X13401264Y-16813838D01*
X13401264Y-16813838D02*
X13410788Y-16823362D01*
X13410788Y-16823362D02*
X13420311Y-16842409D01*
X13420311Y-16842409D02*
X13420311Y-16890028D01*
X13420311Y-16890028D02*
X13410788Y-16909076D01*
X13410788Y-16909076D02*
X13401264Y-16918600D01*
X13401264Y-16918600D02*
X13382216Y-16928124D01*
X13382216Y-16928124D02*
X13334597Y-16928124D01*
X13334597Y-16928124D02*
X13315549Y-16918600D01*
X13315549Y-16918600D02*
X13306026Y-16909076D01*
X13658407Y-16928124D02*
X13658407Y-16728124D01*
X13744121Y-16928124D02*
X13744121Y-16823362D01*
X13744121Y-16823362D02*
X13734597Y-16804314D01*
X13734597Y-16804314D02*
X13715550Y-16794790D01*
X13715550Y-16794790D02*
X13686978Y-16794790D01*
X13686978Y-16794790D02*
X13667930Y-16804314D01*
X13667930Y-16804314D02*
X13658407Y-16813838D01*
X13867930Y-16928124D02*
X13848883Y-16918600D01*
X13848883Y-16918600D02*
X13839359Y-16909076D01*
X13839359Y-16909076D02*
X13829835Y-16890028D01*
X13829835Y-16890028D02*
X13829835Y-16832886D01*
X13829835Y-16832886D02*
X13839359Y-16813838D01*
X13839359Y-16813838D02*
X13848883Y-16804314D01*
X13848883Y-16804314D02*
X13867930Y-16794790D01*
X13867930Y-16794790D02*
X13896502Y-16794790D01*
X13896502Y-16794790D02*
X13915550Y-16804314D01*
X13915550Y-16804314D02*
X13925073Y-16813838D01*
X13925073Y-16813838D02*
X13934597Y-16832886D01*
X13934597Y-16832886D02*
X13934597Y-16890028D01*
X13934597Y-16890028D02*
X13925073Y-16909076D01*
X13925073Y-16909076D02*
X13915550Y-16918600D01*
X13915550Y-16918600D02*
X13896502Y-16928124D01*
X13896502Y-16928124D02*
X13867930Y-16928124D01*
X14048883Y-16928124D02*
X14029835Y-16918600D01*
X14029835Y-16918600D02*
X14020311Y-16899552D01*
X14020311Y-16899552D02*
X14020311Y-16728124D01*
X14201264Y-16918600D02*
X14182216Y-16928124D01*
X14182216Y-16928124D02*
X14144121Y-16928124D01*
X14144121Y-16928124D02*
X14125073Y-16918600D01*
X14125073Y-16918600D02*
X14115550Y-16899552D01*
X14115550Y-16899552D02*
X14115550Y-16823362D01*
X14115550Y-16823362D02*
X14125073Y-16804314D01*
X14125073Y-16804314D02*
X14144121Y-16794790D01*
X14144121Y-16794790D02*
X14182216Y-16794790D01*
X14182216Y-16794790D02*
X14201264Y-16804314D01*
X14201264Y-16804314D02*
X14210788Y-16823362D01*
X14210788Y-16823362D02*
X14210788Y-16842409D01*
X14210788Y-16842409D02*
X14115550Y-16861457D01*
X14286978Y-16918600D02*
X14306026Y-16928124D01*
X14306026Y-16928124D02*
X14344121Y-16928124D01*
X14344121Y-16928124D02*
X14363169Y-16918600D01*
X14363169Y-16918600D02*
X14372692Y-16899552D01*
X14372692Y-16899552D02*
X14372692Y-16890028D01*
X14372692Y-16890028D02*
X14363169Y-16870981D01*
X14363169Y-16870981D02*
X14344121Y-16861457D01*
X14344121Y-16861457D02*
X14315550Y-16861457D01*
X14315550Y-16861457D02*
X14296502Y-16851933D01*
X14296502Y-16851933D02*
X14286978Y-16832886D01*
X14286978Y-16832886D02*
X14286978Y-16823362D01*
X14286978Y-16823362D02*
X14296502Y-16804314D01*
X14296502Y-16804314D02*
X14315550Y-16794790D01*
X14315550Y-16794790D02*
X14344121Y-16794790D01*
X14344121Y-16794790D02*
X14363169Y-16804314D01*
X14439359Y-17004314D02*
X14448883Y-16994790D01*
X14448883Y-16994790D02*
X14467931Y-16966219D01*
X14467931Y-16966219D02*
X14477454Y-16947171D01*
X14477454Y-16947171D02*
X14486978Y-16918600D01*
X14486978Y-16918600D02*
X14496502Y-16870981D01*
X14496502Y-16870981D02*
X14496502Y-16832886D01*
X14496502Y-16832886D02*
X14486978Y-16785267D01*
X14486978Y-16785267D02*
X14477454Y-16756695D01*
X14477454Y-16756695D02*
X14467931Y-16737647D01*
X14467931Y-16737647D02*
X14448883Y-16709076D01*
X14448883Y-16709076D02*
X14439359Y-16699552D01*
D13*
X9331820Y-17029640D02*
X9473820Y-17171640D01*
X9473820Y-17029640D02*
X9331820Y-17171640D01*
X9402820Y-17029640D02*
X9402820Y-17171640D01*
X9331820Y-17100640D02*
X9473820Y-17100640D01*
D11*
X9839359Y-17192124D02*
X9725073Y-17192124D01*
X9782216Y-17192124D02*
X9782216Y-16992124D01*
X9782216Y-16992124D02*
X9763168Y-17020695D01*
X9763168Y-17020695D02*
X9744121Y-17039743D01*
X9744121Y-17039743D02*
X9725073Y-17049267D01*
X9925073Y-17173076D02*
X9934597Y-17182600D01*
X9934597Y-17182600D02*
X9925073Y-17192124D01*
X9925073Y-17192124D02*
X9915549Y-17182600D01*
X9915549Y-17182600D02*
X9925073Y-17173076D01*
X9925073Y-17173076D02*
X9925073Y-17192124D01*
X10106025Y-17058790D02*
X10106025Y-17192124D01*
X10058406Y-16982600D02*
X10010787Y-17125457D01*
X10010787Y-17125457D02*
X10134597Y-17125457D01*
X10201264Y-17011171D02*
X10210787Y-17001648D01*
X10210787Y-17001648D02*
X10229835Y-16992124D01*
X10229835Y-16992124D02*
X10277454Y-16992124D01*
X10277454Y-16992124D02*
X10296502Y-17001648D01*
X10296502Y-17001648D02*
X10306025Y-17011171D01*
X10306025Y-17011171D02*
X10315549Y-17030219D01*
X10315549Y-17030219D02*
X10315549Y-17049267D01*
X10315549Y-17049267D02*
X10306025Y-17077838D01*
X10306025Y-17077838D02*
X10191740Y-17192124D01*
X10191740Y-17192124D02*
X10315549Y-17192124D01*
X10439359Y-16992124D02*
X10458406Y-16992124D01*
X10458406Y-16992124D02*
X10477454Y-17001648D01*
X10477454Y-17001648D02*
X10486978Y-17011171D01*
X10486978Y-17011171D02*
X10496502Y-17030219D01*
X10496502Y-17030219D02*
X10506025Y-17068314D01*
X10506025Y-17068314D02*
X10506025Y-17115933D01*
X10506025Y-17115933D02*
X10496502Y-17154028D01*
X10496502Y-17154028D02*
X10486978Y-17173076D01*
X10486978Y-17173076D02*
X10477454Y-17182600D01*
X10477454Y-17182600D02*
X10458406Y-17192124D01*
X10458406Y-17192124D02*
X10439359Y-17192124D01*
X10439359Y-17192124D02*
X10420311Y-17182600D01*
X10420311Y-17182600D02*
X10410787Y-17173076D01*
X10410787Y-17173076D02*
X10401264Y-17154028D01*
X10401264Y-17154028D02*
X10391740Y-17115933D01*
X10391740Y-17115933D02*
X10391740Y-17068314D01*
X10391740Y-17068314D02*
X10401264Y-17030219D01*
X10401264Y-17030219D02*
X10410787Y-17011171D01*
X10410787Y-17011171D02*
X10420311Y-17001648D01*
X10420311Y-17001648D02*
X10439359Y-16992124D01*
X10591740Y-17192124D02*
X10591740Y-17058790D01*
X10591740Y-17077838D02*
X10601264Y-17068314D01*
X10601264Y-17068314D02*
X10620311Y-17058790D01*
X10620311Y-17058790D02*
X10648883Y-17058790D01*
X10648883Y-17058790D02*
X10667930Y-17068314D01*
X10667930Y-17068314D02*
X10677454Y-17087362D01*
X10677454Y-17087362D02*
X10677454Y-17192124D01*
X10677454Y-17087362D02*
X10686978Y-17068314D01*
X10686978Y-17068314D02*
X10706025Y-17058790D01*
X10706025Y-17058790D02*
X10734597Y-17058790D01*
X10734597Y-17058790D02*
X10753645Y-17068314D01*
X10753645Y-17068314D02*
X10763168Y-17087362D01*
X10763168Y-17087362D02*
X10763168Y-17192124D01*
X10858406Y-17192124D02*
X10858406Y-17058790D01*
X10858406Y-17077838D02*
X10867930Y-17068314D01*
X10867930Y-17068314D02*
X10886978Y-17058790D01*
X10886978Y-17058790D02*
X10915549Y-17058790D01*
X10915549Y-17058790D02*
X10934597Y-17068314D01*
X10934597Y-17068314D02*
X10944121Y-17087362D01*
X10944121Y-17087362D02*
X10944121Y-17192124D01*
X10944121Y-17087362D02*
X10953645Y-17068314D01*
X10953645Y-17068314D02*
X10972692Y-17058790D01*
X10972692Y-17058790D02*
X11001264Y-17058790D01*
X11001264Y-17058790D02*
X11020311Y-17068314D01*
X11020311Y-17068314D02*
X11029835Y-17087362D01*
X11029835Y-17087362D02*
X11029835Y-17192124D01*
X11420311Y-16982600D02*
X11248883Y-17239743D01*
X11677454Y-16992124D02*
X11696502Y-16992124D01*
X11696502Y-16992124D02*
X11715549Y-17001648D01*
X11715549Y-17001648D02*
X11725073Y-17011171D01*
X11725073Y-17011171D02*
X11734597Y-17030219D01*
X11734597Y-17030219D02*
X11744121Y-17068314D01*
X11744121Y-17068314D02*
X11744121Y-17115933D01*
X11744121Y-17115933D02*
X11734597Y-17154028D01*
X11734597Y-17154028D02*
X11725073Y-17173076D01*
X11725073Y-17173076D02*
X11715549Y-17182600D01*
X11715549Y-17182600D02*
X11696502Y-17192124D01*
X11696502Y-17192124D02*
X11677454Y-17192124D01*
X11677454Y-17192124D02*
X11658406Y-17182600D01*
X11658406Y-17182600D02*
X11648883Y-17173076D01*
X11648883Y-17173076D02*
X11639359Y-17154028D01*
X11639359Y-17154028D02*
X11629835Y-17115933D01*
X11629835Y-17115933D02*
X11629835Y-17068314D01*
X11629835Y-17068314D02*
X11639359Y-17030219D01*
X11639359Y-17030219D02*
X11648883Y-17011171D01*
X11648883Y-17011171D02*
X11658406Y-17001648D01*
X11658406Y-17001648D02*
X11677454Y-16992124D01*
X11829835Y-17173076D02*
X11839359Y-17182600D01*
X11839359Y-17182600D02*
X11829835Y-17192124D01*
X11829835Y-17192124D02*
X11820311Y-17182600D01*
X11820311Y-17182600D02*
X11829835Y-17173076D01*
X11829835Y-17173076D02*
X11829835Y-17192124D01*
X11963168Y-16992124D02*
X11982216Y-16992124D01*
X11982216Y-16992124D02*
X12001264Y-17001648D01*
X12001264Y-17001648D02*
X12010787Y-17011171D01*
X12010787Y-17011171D02*
X12020311Y-17030219D01*
X12020311Y-17030219D02*
X12029835Y-17068314D01*
X12029835Y-17068314D02*
X12029835Y-17115933D01*
X12029835Y-17115933D02*
X12020311Y-17154028D01*
X12020311Y-17154028D02*
X12010787Y-17173076D01*
X12010787Y-17173076D02*
X12001264Y-17182600D01*
X12001264Y-17182600D02*
X11982216Y-17192124D01*
X11982216Y-17192124D02*
X11963168Y-17192124D01*
X11963168Y-17192124D02*
X11944121Y-17182600D01*
X11944121Y-17182600D02*
X11934597Y-17173076D01*
X11934597Y-17173076D02*
X11925073Y-17154028D01*
X11925073Y-17154028D02*
X11915549Y-17115933D01*
X11915549Y-17115933D02*
X11915549Y-17068314D01*
X11915549Y-17068314D02*
X11925073Y-17030219D01*
X11925073Y-17030219D02*
X11934597Y-17011171D01*
X11934597Y-17011171D02*
X11944121Y-17001648D01*
X11944121Y-17001648D02*
X11963168Y-16992124D01*
X12210787Y-16992124D02*
X12115549Y-16992124D01*
X12115549Y-16992124D02*
X12106026Y-17087362D01*
X12106026Y-17087362D02*
X12115549Y-17077838D01*
X12115549Y-17077838D02*
X12134597Y-17068314D01*
X12134597Y-17068314D02*
X12182216Y-17068314D01*
X12182216Y-17068314D02*
X12201264Y-17077838D01*
X12201264Y-17077838D02*
X12210787Y-17087362D01*
X12210787Y-17087362D02*
X12220311Y-17106409D01*
X12220311Y-17106409D02*
X12220311Y-17154028D01*
X12220311Y-17154028D02*
X12210787Y-17173076D01*
X12210787Y-17173076D02*
X12201264Y-17182600D01*
X12201264Y-17182600D02*
X12182216Y-17192124D01*
X12182216Y-17192124D02*
X12134597Y-17192124D01*
X12134597Y-17192124D02*
X12115549Y-17182600D01*
X12115549Y-17182600D02*
X12106026Y-17173076D01*
X12401264Y-16992124D02*
X12306026Y-16992124D01*
X12306026Y-16992124D02*
X12296502Y-17087362D01*
X12296502Y-17087362D02*
X12306026Y-17077838D01*
X12306026Y-17077838D02*
X12325073Y-17068314D01*
X12325073Y-17068314D02*
X12372692Y-17068314D01*
X12372692Y-17068314D02*
X12391740Y-17077838D01*
X12391740Y-17077838D02*
X12401264Y-17087362D01*
X12401264Y-17087362D02*
X12410787Y-17106409D01*
X12410787Y-17106409D02*
X12410787Y-17154028D01*
X12410787Y-17154028D02*
X12401264Y-17173076D01*
X12401264Y-17173076D02*
X12391740Y-17182600D01*
X12391740Y-17182600D02*
X12372692Y-17192124D01*
X12372692Y-17192124D02*
X12325073Y-17192124D01*
X12325073Y-17192124D02*
X12306026Y-17182600D01*
X12306026Y-17182600D02*
X12296502Y-17173076D01*
X12506026Y-17192124D02*
X12544121Y-17192124D01*
X12544121Y-17192124D02*
X12563168Y-17182600D01*
X12563168Y-17182600D02*
X12572692Y-17173076D01*
X12572692Y-17173076D02*
X12591740Y-17144505D01*
X12591740Y-17144505D02*
X12601264Y-17106409D01*
X12601264Y-17106409D02*
X12601264Y-17030219D01*
X12601264Y-17030219D02*
X12591740Y-17011171D01*
X12591740Y-17011171D02*
X12582216Y-17001648D01*
X12582216Y-17001648D02*
X12563168Y-16992124D01*
X12563168Y-16992124D02*
X12525073Y-16992124D01*
X12525073Y-16992124D02*
X12506026Y-17001648D01*
X12506026Y-17001648D02*
X12496502Y-17011171D01*
X12496502Y-17011171D02*
X12486978Y-17030219D01*
X12486978Y-17030219D02*
X12486978Y-17077838D01*
X12486978Y-17077838D02*
X12496502Y-17096886D01*
X12496502Y-17096886D02*
X12506026Y-17106409D01*
X12506026Y-17106409D02*
X12525073Y-17115933D01*
X12525073Y-17115933D02*
X12563168Y-17115933D01*
X12563168Y-17115933D02*
X12582216Y-17106409D01*
X12582216Y-17106409D02*
X12591740Y-17096886D01*
X12591740Y-17096886D02*
X12601264Y-17077838D01*
X12677454Y-16992124D02*
X12677454Y-17030219D01*
X12753645Y-16992124D02*
X12753645Y-17030219D01*
X13048883Y-17268314D02*
X13039359Y-17258790D01*
X13039359Y-17258790D02*
X13020311Y-17230219D01*
X13020311Y-17230219D02*
X13010788Y-17211171D01*
X13010788Y-17211171D02*
X13001264Y-17182600D01*
X13001264Y-17182600D02*
X12991740Y-17134981D01*
X12991740Y-17134981D02*
X12991740Y-17096886D01*
X12991740Y-17096886D02*
X13001264Y-17049267D01*
X13001264Y-17049267D02*
X13010788Y-17020695D01*
X13010788Y-17020695D02*
X13020311Y-17001648D01*
X13020311Y-17001648D02*
X13039359Y-16973076D01*
X13039359Y-16973076D02*
X13048883Y-16963552D01*
X13210788Y-17058790D02*
X13210788Y-17192124D01*
X13163168Y-16982600D02*
X13115549Y-17125457D01*
X13115549Y-17125457D02*
X13239359Y-17125457D01*
X13401264Y-17058790D02*
X13401264Y-17192124D01*
X13353645Y-16982600D02*
X13306026Y-17125457D01*
X13306026Y-17125457D02*
X13429835Y-17125457D01*
X13658407Y-17192124D02*
X13658407Y-16992124D01*
X13744121Y-17192124D02*
X13744121Y-17087362D01*
X13744121Y-17087362D02*
X13734597Y-17068314D01*
X13734597Y-17068314D02*
X13715550Y-17058790D01*
X13715550Y-17058790D02*
X13686978Y-17058790D01*
X13686978Y-17058790D02*
X13667930Y-17068314D01*
X13667930Y-17068314D02*
X13658407Y-17077838D01*
X13867930Y-17192124D02*
X13848883Y-17182600D01*
X13848883Y-17182600D02*
X13839359Y-17173076D01*
X13839359Y-17173076D02*
X13829835Y-17154028D01*
X13829835Y-17154028D02*
X13829835Y-17096886D01*
X13829835Y-17096886D02*
X13839359Y-17077838D01*
X13839359Y-17077838D02*
X13848883Y-17068314D01*
X13848883Y-17068314D02*
X13867930Y-17058790D01*
X13867930Y-17058790D02*
X13896502Y-17058790D01*
X13896502Y-17058790D02*
X13915550Y-17068314D01*
X13915550Y-17068314D02*
X13925073Y-17077838D01*
X13925073Y-17077838D02*
X13934597Y-17096886D01*
X13934597Y-17096886D02*
X13934597Y-17154028D01*
X13934597Y-17154028D02*
X13925073Y-17173076D01*
X13925073Y-17173076D02*
X13915550Y-17182600D01*
X13915550Y-17182600D02*
X13896502Y-17192124D01*
X13896502Y-17192124D02*
X13867930Y-17192124D01*
X14048883Y-17192124D02*
X14029835Y-17182600D01*
X14029835Y-17182600D02*
X14020311Y-17163552D01*
X14020311Y-17163552D02*
X14020311Y-16992124D01*
X14201264Y-17182600D02*
X14182216Y-17192124D01*
X14182216Y-17192124D02*
X14144121Y-17192124D01*
X14144121Y-17192124D02*
X14125073Y-17182600D01*
X14125073Y-17182600D02*
X14115550Y-17163552D01*
X14115550Y-17163552D02*
X14115550Y-17087362D01*
X14115550Y-17087362D02*
X14125073Y-17068314D01*
X14125073Y-17068314D02*
X14144121Y-17058790D01*
X14144121Y-17058790D02*
X14182216Y-17058790D01*
X14182216Y-17058790D02*
X14201264Y-17068314D01*
X14201264Y-17068314D02*
X14210788Y-17087362D01*
X14210788Y-17087362D02*
X14210788Y-17106409D01*
X14210788Y-17106409D02*
X14115550Y-17125457D01*
X14286978Y-17182600D02*
X14306026Y-17192124D01*
X14306026Y-17192124D02*
X14344121Y-17192124D01*
X14344121Y-17192124D02*
X14363169Y-17182600D01*
X14363169Y-17182600D02*
X14372692Y-17163552D01*
X14372692Y-17163552D02*
X14372692Y-17154028D01*
X14372692Y-17154028D02*
X14363169Y-17134981D01*
X14363169Y-17134981D02*
X14344121Y-17125457D01*
X14344121Y-17125457D02*
X14315550Y-17125457D01*
X14315550Y-17125457D02*
X14296502Y-17115933D01*
X14296502Y-17115933D02*
X14286978Y-17096886D01*
X14286978Y-17096886D02*
X14286978Y-17087362D01*
X14286978Y-17087362D02*
X14296502Y-17068314D01*
X14296502Y-17068314D02*
X14315550Y-17058790D01*
X14315550Y-17058790D02*
X14344121Y-17058790D01*
X14344121Y-17058790D02*
X14363169Y-17068314D01*
X14439359Y-17268314D02*
X14448883Y-17258790D01*
X14448883Y-17258790D02*
X14467931Y-17230219D01*
X14467931Y-17230219D02*
X14477454Y-17211171D01*
X14477454Y-17211171D02*
X14486978Y-17182600D01*
X14486978Y-17182600D02*
X14496502Y-17134981D01*
X14496502Y-17134981D02*
X14496502Y-17096886D01*
X14496502Y-17096886D02*
X14486978Y-17049267D01*
X14486978Y-17049267D02*
X14477454Y-17020695D01*
X14477454Y-17020695D02*
X14467931Y-17001648D01*
X14467931Y-17001648D02*
X14448883Y-16973076D01*
X14448883Y-16973076D02*
X14439359Y-16963552D01*
X9273820Y-17264640D02*
X9473820Y-17464640D01*
X9473820Y-17264640D02*
X9273820Y-17464640D01*
X9444531Y-17435351D02*
X9444531Y-17293929D01*
X9303109Y-17293929D01*
X9303109Y-17435351D01*
X9444531Y-17435351D01*
X9725073Y-17275171D02*
X9734597Y-17265648D01*
X9734597Y-17265648D02*
X9753644Y-17256124D01*
X9753644Y-17256124D02*
X9801264Y-17256124D01*
X9801264Y-17256124D02*
X9820311Y-17265648D01*
X9820311Y-17265648D02*
X9829835Y-17275171D01*
X9829835Y-17275171D02*
X9839359Y-17294219D01*
X9839359Y-17294219D02*
X9839359Y-17313267D01*
X9839359Y-17313267D02*
X9829835Y-17341838D01*
X9829835Y-17341838D02*
X9715549Y-17456124D01*
X9715549Y-17456124D02*
X9839359Y-17456124D01*
X9925073Y-17437076D02*
X9934597Y-17446600D01*
X9934597Y-17446600D02*
X9925073Y-17456124D01*
X9925073Y-17456124D02*
X9915549Y-17446600D01*
X9915549Y-17446600D02*
X9925073Y-17437076D01*
X9925073Y-17437076D02*
X9925073Y-17456124D01*
X10001264Y-17256124D02*
X10125073Y-17256124D01*
X10125073Y-17256124D02*
X10058406Y-17332314D01*
X10058406Y-17332314D02*
X10086978Y-17332314D01*
X10086978Y-17332314D02*
X10106025Y-17341838D01*
X10106025Y-17341838D02*
X10115549Y-17351362D01*
X10115549Y-17351362D02*
X10125073Y-17370409D01*
X10125073Y-17370409D02*
X10125073Y-17418028D01*
X10125073Y-17418028D02*
X10115549Y-17437076D01*
X10115549Y-17437076D02*
X10106025Y-17446600D01*
X10106025Y-17446600D02*
X10086978Y-17456124D01*
X10086978Y-17456124D02*
X10029835Y-17456124D01*
X10029835Y-17456124D02*
X10010787Y-17446600D01*
X10010787Y-17446600D02*
X10001264Y-17437076D01*
X10248883Y-17256124D02*
X10267930Y-17256124D01*
X10267930Y-17256124D02*
X10286978Y-17265648D01*
X10286978Y-17265648D02*
X10296502Y-17275171D01*
X10296502Y-17275171D02*
X10306025Y-17294219D01*
X10306025Y-17294219D02*
X10315549Y-17332314D01*
X10315549Y-17332314D02*
X10315549Y-17379933D01*
X10315549Y-17379933D02*
X10306025Y-17418028D01*
X10306025Y-17418028D02*
X10296502Y-17437076D01*
X10296502Y-17437076D02*
X10286978Y-17446600D01*
X10286978Y-17446600D02*
X10267930Y-17456124D01*
X10267930Y-17456124D02*
X10248883Y-17456124D01*
X10248883Y-17456124D02*
X10229835Y-17446600D01*
X10229835Y-17446600D02*
X10220311Y-17437076D01*
X10220311Y-17437076D02*
X10210787Y-17418028D01*
X10210787Y-17418028D02*
X10201264Y-17379933D01*
X10201264Y-17379933D02*
X10201264Y-17332314D01*
X10201264Y-17332314D02*
X10210787Y-17294219D01*
X10210787Y-17294219D02*
X10220311Y-17275171D01*
X10220311Y-17275171D02*
X10229835Y-17265648D01*
X10229835Y-17265648D02*
X10248883Y-17256124D01*
X10439359Y-17256124D02*
X10458406Y-17256124D01*
X10458406Y-17256124D02*
X10477454Y-17265648D01*
X10477454Y-17265648D02*
X10486978Y-17275171D01*
X10486978Y-17275171D02*
X10496502Y-17294219D01*
X10496502Y-17294219D02*
X10506025Y-17332314D01*
X10506025Y-17332314D02*
X10506025Y-17379933D01*
X10506025Y-17379933D02*
X10496502Y-17418028D01*
X10496502Y-17418028D02*
X10486978Y-17437076D01*
X10486978Y-17437076D02*
X10477454Y-17446600D01*
X10477454Y-17446600D02*
X10458406Y-17456124D01*
X10458406Y-17456124D02*
X10439359Y-17456124D01*
X10439359Y-17456124D02*
X10420311Y-17446600D01*
X10420311Y-17446600D02*
X10410787Y-17437076D01*
X10410787Y-17437076D02*
X10401264Y-17418028D01*
X10401264Y-17418028D02*
X10391740Y-17379933D01*
X10391740Y-17379933D02*
X10391740Y-17332314D01*
X10391740Y-17332314D02*
X10401264Y-17294219D01*
X10401264Y-17294219D02*
X10410787Y-17275171D01*
X10410787Y-17275171D02*
X10420311Y-17265648D01*
X10420311Y-17265648D02*
X10439359Y-17256124D01*
X10591740Y-17456124D02*
X10591740Y-17322790D01*
X10591740Y-17341838D02*
X10601264Y-17332314D01*
X10601264Y-17332314D02*
X10620311Y-17322790D01*
X10620311Y-17322790D02*
X10648883Y-17322790D01*
X10648883Y-17322790D02*
X10667930Y-17332314D01*
X10667930Y-17332314D02*
X10677454Y-17351362D01*
X10677454Y-17351362D02*
X10677454Y-17456124D01*
X10677454Y-17351362D02*
X10686978Y-17332314D01*
X10686978Y-17332314D02*
X10706025Y-17322790D01*
X10706025Y-17322790D02*
X10734597Y-17322790D01*
X10734597Y-17322790D02*
X10753645Y-17332314D01*
X10753645Y-17332314D02*
X10763168Y-17351362D01*
X10763168Y-17351362D02*
X10763168Y-17456124D01*
X10858406Y-17456124D02*
X10858406Y-17322790D01*
X10858406Y-17341838D02*
X10867930Y-17332314D01*
X10867930Y-17332314D02*
X10886978Y-17322790D01*
X10886978Y-17322790D02*
X10915549Y-17322790D01*
X10915549Y-17322790D02*
X10934597Y-17332314D01*
X10934597Y-17332314D02*
X10944121Y-17351362D01*
X10944121Y-17351362D02*
X10944121Y-17456124D01*
X10944121Y-17351362D02*
X10953645Y-17332314D01*
X10953645Y-17332314D02*
X10972692Y-17322790D01*
X10972692Y-17322790D02*
X11001264Y-17322790D01*
X11001264Y-17322790D02*
X11020311Y-17332314D01*
X11020311Y-17332314D02*
X11029835Y-17351362D01*
X11029835Y-17351362D02*
X11029835Y-17456124D01*
X11420311Y-17246600D02*
X11248883Y-17503743D01*
X11677454Y-17256124D02*
X11696502Y-17256124D01*
X11696502Y-17256124D02*
X11715549Y-17265648D01*
X11715549Y-17265648D02*
X11725073Y-17275171D01*
X11725073Y-17275171D02*
X11734597Y-17294219D01*
X11734597Y-17294219D02*
X11744121Y-17332314D01*
X11744121Y-17332314D02*
X11744121Y-17379933D01*
X11744121Y-17379933D02*
X11734597Y-17418028D01*
X11734597Y-17418028D02*
X11725073Y-17437076D01*
X11725073Y-17437076D02*
X11715549Y-17446600D01*
X11715549Y-17446600D02*
X11696502Y-17456124D01*
X11696502Y-17456124D02*
X11677454Y-17456124D01*
X11677454Y-17456124D02*
X11658406Y-17446600D01*
X11658406Y-17446600D02*
X11648883Y-17437076D01*
X11648883Y-17437076D02*
X11639359Y-17418028D01*
X11639359Y-17418028D02*
X11629835Y-17379933D01*
X11629835Y-17379933D02*
X11629835Y-17332314D01*
X11629835Y-17332314D02*
X11639359Y-17294219D01*
X11639359Y-17294219D02*
X11648883Y-17275171D01*
X11648883Y-17275171D02*
X11658406Y-17265648D01*
X11658406Y-17265648D02*
X11677454Y-17256124D01*
X11829835Y-17437076D02*
X11839359Y-17446600D01*
X11839359Y-17446600D02*
X11829835Y-17456124D01*
X11829835Y-17456124D02*
X11820311Y-17446600D01*
X11820311Y-17446600D02*
X11829835Y-17437076D01*
X11829835Y-17437076D02*
X11829835Y-17456124D01*
X11963168Y-17256124D02*
X11982216Y-17256124D01*
X11982216Y-17256124D02*
X12001264Y-17265648D01*
X12001264Y-17265648D02*
X12010787Y-17275171D01*
X12010787Y-17275171D02*
X12020311Y-17294219D01*
X12020311Y-17294219D02*
X12029835Y-17332314D01*
X12029835Y-17332314D02*
X12029835Y-17379933D01*
X12029835Y-17379933D02*
X12020311Y-17418028D01*
X12020311Y-17418028D02*
X12010787Y-17437076D01*
X12010787Y-17437076D02*
X12001264Y-17446600D01*
X12001264Y-17446600D02*
X11982216Y-17456124D01*
X11982216Y-17456124D02*
X11963168Y-17456124D01*
X11963168Y-17456124D02*
X11944121Y-17446600D01*
X11944121Y-17446600D02*
X11934597Y-17437076D01*
X11934597Y-17437076D02*
X11925073Y-17418028D01*
X11925073Y-17418028D02*
X11915549Y-17379933D01*
X11915549Y-17379933D02*
X11915549Y-17332314D01*
X11915549Y-17332314D02*
X11925073Y-17294219D01*
X11925073Y-17294219D02*
X11934597Y-17275171D01*
X11934597Y-17275171D02*
X11944121Y-17265648D01*
X11944121Y-17265648D02*
X11963168Y-17256124D01*
X12125073Y-17456124D02*
X12163168Y-17456124D01*
X12163168Y-17456124D02*
X12182216Y-17446600D01*
X12182216Y-17446600D02*
X12191740Y-17437076D01*
X12191740Y-17437076D02*
X12210787Y-17408505D01*
X12210787Y-17408505D02*
X12220311Y-17370409D01*
X12220311Y-17370409D02*
X12220311Y-17294219D01*
X12220311Y-17294219D02*
X12210787Y-17275171D01*
X12210787Y-17275171D02*
X12201264Y-17265648D01*
X12201264Y-17265648D02*
X12182216Y-17256124D01*
X12182216Y-17256124D02*
X12144121Y-17256124D01*
X12144121Y-17256124D02*
X12125073Y-17265648D01*
X12125073Y-17265648D02*
X12115549Y-17275171D01*
X12115549Y-17275171D02*
X12106026Y-17294219D01*
X12106026Y-17294219D02*
X12106026Y-17341838D01*
X12106026Y-17341838D02*
X12115549Y-17360886D01*
X12115549Y-17360886D02*
X12125073Y-17370409D01*
X12125073Y-17370409D02*
X12144121Y-17379933D01*
X12144121Y-17379933D02*
X12182216Y-17379933D01*
X12182216Y-17379933D02*
X12201264Y-17370409D01*
X12201264Y-17370409D02*
X12210787Y-17360886D01*
X12210787Y-17360886D02*
X12220311Y-17341838D01*
X12344121Y-17256124D02*
X12363168Y-17256124D01*
X12363168Y-17256124D02*
X12382216Y-17265648D01*
X12382216Y-17265648D02*
X12391740Y-17275171D01*
X12391740Y-17275171D02*
X12401264Y-17294219D01*
X12401264Y-17294219D02*
X12410787Y-17332314D01*
X12410787Y-17332314D02*
X12410787Y-17379933D01*
X12410787Y-17379933D02*
X12401264Y-17418028D01*
X12401264Y-17418028D02*
X12391740Y-17437076D01*
X12391740Y-17437076D02*
X12382216Y-17446600D01*
X12382216Y-17446600D02*
X12363168Y-17456124D01*
X12363168Y-17456124D02*
X12344121Y-17456124D01*
X12344121Y-17456124D02*
X12325073Y-17446600D01*
X12325073Y-17446600D02*
X12315549Y-17437076D01*
X12315549Y-17437076D02*
X12306026Y-17418028D01*
X12306026Y-17418028D02*
X12296502Y-17379933D01*
X12296502Y-17379933D02*
X12296502Y-17332314D01*
X12296502Y-17332314D02*
X12306026Y-17294219D01*
X12306026Y-17294219D02*
X12315549Y-17275171D01*
X12315549Y-17275171D02*
X12325073Y-17265648D01*
X12325073Y-17265648D02*
X12344121Y-17256124D01*
X12582216Y-17256124D02*
X12544121Y-17256124D01*
X12544121Y-17256124D02*
X12525073Y-17265648D01*
X12525073Y-17265648D02*
X12515549Y-17275171D01*
X12515549Y-17275171D02*
X12496502Y-17303743D01*
X12496502Y-17303743D02*
X12486978Y-17341838D01*
X12486978Y-17341838D02*
X12486978Y-17418028D01*
X12486978Y-17418028D02*
X12496502Y-17437076D01*
X12496502Y-17437076D02*
X12506026Y-17446600D01*
X12506026Y-17446600D02*
X12525073Y-17456124D01*
X12525073Y-17456124D02*
X12563168Y-17456124D01*
X12563168Y-17456124D02*
X12582216Y-17446600D01*
X12582216Y-17446600D02*
X12591740Y-17437076D01*
X12591740Y-17437076D02*
X12601264Y-17418028D01*
X12601264Y-17418028D02*
X12601264Y-17370409D01*
X12601264Y-17370409D02*
X12591740Y-17351362D01*
X12591740Y-17351362D02*
X12582216Y-17341838D01*
X12582216Y-17341838D02*
X12563168Y-17332314D01*
X12563168Y-17332314D02*
X12525073Y-17332314D01*
X12525073Y-17332314D02*
X12506026Y-17341838D01*
X12506026Y-17341838D02*
X12496502Y-17351362D01*
X12496502Y-17351362D02*
X12486978Y-17370409D01*
X12677454Y-17256124D02*
X12677454Y-17294219D01*
X12753645Y-17256124D02*
X12753645Y-17294219D01*
X13048883Y-17532314D02*
X13039359Y-17522790D01*
X13039359Y-17522790D02*
X13020311Y-17494219D01*
X13020311Y-17494219D02*
X13010788Y-17475171D01*
X13010788Y-17475171D02*
X13001264Y-17446600D01*
X13001264Y-17446600D02*
X12991740Y-17398981D01*
X12991740Y-17398981D02*
X12991740Y-17360886D01*
X12991740Y-17360886D02*
X13001264Y-17313267D01*
X13001264Y-17313267D02*
X13010788Y-17284695D01*
X13010788Y-17284695D02*
X13020311Y-17265648D01*
X13020311Y-17265648D02*
X13039359Y-17237076D01*
X13039359Y-17237076D02*
X13048883Y-17227552D01*
X13115549Y-17275171D02*
X13125073Y-17265648D01*
X13125073Y-17265648D02*
X13144121Y-17256124D01*
X13144121Y-17256124D02*
X13191740Y-17256124D01*
X13191740Y-17256124D02*
X13210788Y-17265648D01*
X13210788Y-17265648D02*
X13220311Y-17275171D01*
X13220311Y-17275171D02*
X13229835Y-17294219D01*
X13229835Y-17294219D02*
X13229835Y-17313267D01*
X13229835Y-17313267D02*
X13220311Y-17341838D01*
X13220311Y-17341838D02*
X13106026Y-17456124D01*
X13106026Y-17456124D02*
X13229835Y-17456124D01*
X13467930Y-17456124D02*
X13467930Y-17256124D01*
X13553645Y-17456124D02*
X13553645Y-17351362D01*
X13553645Y-17351362D02*
X13544121Y-17332314D01*
X13544121Y-17332314D02*
X13525073Y-17322790D01*
X13525073Y-17322790D02*
X13496502Y-17322790D01*
X13496502Y-17322790D02*
X13477454Y-17332314D01*
X13477454Y-17332314D02*
X13467930Y-17341838D01*
X13677454Y-17456124D02*
X13658407Y-17446600D01*
X13658407Y-17446600D02*
X13648883Y-17437076D01*
X13648883Y-17437076D02*
X13639359Y-17418028D01*
X13639359Y-17418028D02*
X13639359Y-17360886D01*
X13639359Y-17360886D02*
X13648883Y-17341838D01*
X13648883Y-17341838D02*
X13658407Y-17332314D01*
X13658407Y-17332314D02*
X13677454Y-17322790D01*
X13677454Y-17322790D02*
X13706026Y-17322790D01*
X13706026Y-17322790D02*
X13725073Y-17332314D01*
X13725073Y-17332314D02*
X13734597Y-17341838D01*
X13734597Y-17341838D02*
X13744121Y-17360886D01*
X13744121Y-17360886D02*
X13744121Y-17418028D01*
X13744121Y-17418028D02*
X13734597Y-17437076D01*
X13734597Y-17437076D02*
X13725073Y-17446600D01*
X13725073Y-17446600D02*
X13706026Y-17456124D01*
X13706026Y-17456124D02*
X13677454Y-17456124D01*
X13858407Y-17456124D02*
X13839359Y-17446600D01*
X13839359Y-17446600D02*
X13829835Y-17427552D01*
X13829835Y-17427552D02*
X13829835Y-17256124D01*
X14010788Y-17446600D02*
X13991740Y-17456124D01*
X13991740Y-17456124D02*
X13953645Y-17456124D01*
X13953645Y-17456124D02*
X13934597Y-17446600D01*
X13934597Y-17446600D02*
X13925073Y-17427552D01*
X13925073Y-17427552D02*
X13925073Y-17351362D01*
X13925073Y-17351362D02*
X13934597Y-17332314D01*
X13934597Y-17332314D02*
X13953645Y-17322790D01*
X13953645Y-17322790D02*
X13991740Y-17322790D01*
X13991740Y-17322790D02*
X14010788Y-17332314D01*
X14010788Y-17332314D02*
X14020311Y-17351362D01*
X14020311Y-17351362D02*
X14020311Y-17370409D01*
X14020311Y-17370409D02*
X13925073Y-17389457D01*
X14096502Y-17446600D02*
X14115550Y-17456124D01*
X14115550Y-17456124D02*
X14153645Y-17456124D01*
X14153645Y-17456124D02*
X14172692Y-17446600D01*
X14172692Y-17446600D02*
X14182216Y-17427552D01*
X14182216Y-17427552D02*
X14182216Y-17418028D01*
X14182216Y-17418028D02*
X14172692Y-17398981D01*
X14172692Y-17398981D02*
X14153645Y-17389457D01*
X14153645Y-17389457D02*
X14125073Y-17389457D01*
X14125073Y-17389457D02*
X14106026Y-17379933D01*
X14106026Y-17379933D02*
X14096502Y-17360886D01*
X14096502Y-17360886D02*
X14096502Y-17351362D01*
X14096502Y-17351362D02*
X14106026Y-17332314D01*
X14106026Y-17332314D02*
X14125073Y-17322790D01*
X14125073Y-17322790D02*
X14153645Y-17322790D01*
X14153645Y-17322790D02*
X14172692Y-17332314D01*
X14248883Y-17532314D02*
X14258407Y-17522790D01*
X14258407Y-17522790D02*
X14277454Y-17494219D01*
X14277454Y-17494219D02*
X14286978Y-17475171D01*
X14286978Y-17475171D02*
X14296502Y-17446600D01*
X14296502Y-17446600D02*
X14306026Y-17398981D01*
X14306026Y-17398981D02*
X14306026Y-17360886D01*
X14306026Y-17360886D02*
X14296502Y-17313267D01*
X14296502Y-17313267D02*
X14286978Y-17284695D01*
X14286978Y-17284695D02*
X14277454Y-17265648D01*
X14277454Y-17265648D02*
X14258407Y-17237076D01*
X14258407Y-17237076D02*
X14248883Y-17227552D01*
X9273820Y-17584640D02*
X9473820Y-17784640D01*
X9473820Y-17584640D02*
X9273820Y-17784640D01*
X9373820Y-17784640D02*
X9473820Y-17684640D01*
X9373820Y-17584640D01*
X9273820Y-17684640D01*
X9373820Y-17784640D01*
X9715549Y-17576124D02*
X9839359Y-17576124D01*
X9839359Y-17576124D02*
X9772692Y-17652314D01*
X9772692Y-17652314D02*
X9801264Y-17652314D01*
X9801264Y-17652314D02*
X9820311Y-17661838D01*
X9820311Y-17661838D02*
X9829835Y-17671362D01*
X9829835Y-17671362D02*
X9839359Y-17690409D01*
X9839359Y-17690409D02*
X9839359Y-17738028D01*
X9839359Y-17738028D02*
X9829835Y-17757076D01*
X9829835Y-17757076D02*
X9820311Y-17766600D01*
X9820311Y-17766600D02*
X9801264Y-17776124D01*
X9801264Y-17776124D02*
X9744121Y-17776124D01*
X9744121Y-17776124D02*
X9725073Y-17766600D01*
X9725073Y-17766600D02*
X9715549Y-17757076D01*
X9925073Y-17757076D02*
X9934597Y-17766600D01*
X9934597Y-17766600D02*
X9925073Y-17776124D01*
X9925073Y-17776124D02*
X9915549Y-17766600D01*
X9915549Y-17766600D02*
X9925073Y-17757076D01*
X9925073Y-17757076D02*
X9925073Y-17776124D01*
X10125073Y-17776124D02*
X10010787Y-17776124D01*
X10067930Y-17776124D02*
X10067930Y-17576124D01*
X10067930Y-17576124D02*
X10048883Y-17604695D01*
X10048883Y-17604695D02*
X10029835Y-17623743D01*
X10029835Y-17623743D02*
X10010787Y-17633267D01*
X10239359Y-17661838D02*
X10220311Y-17652314D01*
X10220311Y-17652314D02*
X10210787Y-17642790D01*
X10210787Y-17642790D02*
X10201264Y-17623743D01*
X10201264Y-17623743D02*
X10201264Y-17614219D01*
X10201264Y-17614219D02*
X10210787Y-17595171D01*
X10210787Y-17595171D02*
X10220311Y-17585648D01*
X10220311Y-17585648D02*
X10239359Y-17576124D01*
X10239359Y-17576124D02*
X10277454Y-17576124D01*
X10277454Y-17576124D02*
X10296502Y-17585648D01*
X10296502Y-17585648D02*
X10306025Y-17595171D01*
X10306025Y-17595171D02*
X10315549Y-17614219D01*
X10315549Y-17614219D02*
X10315549Y-17623743D01*
X10315549Y-17623743D02*
X10306025Y-17642790D01*
X10306025Y-17642790D02*
X10296502Y-17652314D01*
X10296502Y-17652314D02*
X10277454Y-17661838D01*
X10277454Y-17661838D02*
X10239359Y-17661838D01*
X10239359Y-17661838D02*
X10220311Y-17671362D01*
X10220311Y-17671362D02*
X10210787Y-17680886D01*
X10210787Y-17680886D02*
X10201264Y-17699933D01*
X10201264Y-17699933D02*
X10201264Y-17738028D01*
X10201264Y-17738028D02*
X10210787Y-17757076D01*
X10210787Y-17757076D02*
X10220311Y-17766600D01*
X10220311Y-17766600D02*
X10239359Y-17776124D01*
X10239359Y-17776124D02*
X10277454Y-17776124D01*
X10277454Y-17776124D02*
X10296502Y-17766600D01*
X10296502Y-17766600D02*
X10306025Y-17757076D01*
X10306025Y-17757076D02*
X10315549Y-17738028D01*
X10315549Y-17738028D02*
X10315549Y-17699933D01*
X10315549Y-17699933D02*
X10306025Y-17680886D01*
X10306025Y-17680886D02*
X10296502Y-17671362D01*
X10296502Y-17671362D02*
X10277454Y-17661838D01*
X10439359Y-17576124D02*
X10458406Y-17576124D01*
X10458406Y-17576124D02*
X10477454Y-17585648D01*
X10477454Y-17585648D02*
X10486978Y-17595171D01*
X10486978Y-17595171D02*
X10496502Y-17614219D01*
X10496502Y-17614219D02*
X10506025Y-17652314D01*
X10506025Y-17652314D02*
X10506025Y-17699933D01*
X10506025Y-17699933D02*
X10496502Y-17738028D01*
X10496502Y-17738028D02*
X10486978Y-17757076D01*
X10486978Y-17757076D02*
X10477454Y-17766600D01*
X10477454Y-17766600D02*
X10458406Y-17776124D01*
X10458406Y-17776124D02*
X10439359Y-17776124D01*
X10439359Y-17776124D02*
X10420311Y-17766600D01*
X10420311Y-17766600D02*
X10410787Y-17757076D01*
X10410787Y-17757076D02*
X10401264Y-17738028D01*
X10401264Y-17738028D02*
X10391740Y-17699933D01*
X10391740Y-17699933D02*
X10391740Y-17652314D01*
X10391740Y-17652314D02*
X10401264Y-17614219D01*
X10401264Y-17614219D02*
X10410787Y-17595171D01*
X10410787Y-17595171D02*
X10420311Y-17585648D01*
X10420311Y-17585648D02*
X10439359Y-17576124D01*
X10591740Y-17776124D02*
X10591740Y-17642790D01*
X10591740Y-17661838D02*
X10601264Y-17652314D01*
X10601264Y-17652314D02*
X10620311Y-17642790D01*
X10620311Y-17642790D02*
X10648883Y-17642790D01*
X10648883Y-17642790D02*
X10667930Y-17652314D01*
X10667930Y-17652314D02*
X10677454Y-17671362D01*
X10677454Y-17671362D02*
X10677454Y-17776124D01*
X10677454Y-17671362D02*
X10686978Y-17652314D01*
X10686978Y-17652314D02*
X10706025Y-17642790D01*
X10706025Y-17642790D02*
X10734597Y-17642790D01*
X10734597Y-17642790D02*
X10753645Y-17652314D01*
X10753645Y-17652314D02*
X10763168Y-17671362D01*
X10763168Y-17671362D02*
X10763168Y-17776124D01*
X10858406Y-17776124D02*
X10858406Y-17642790D01*
X10858406Y-17661838D02*
X10867930Y-17652314D01*
X10867930Y-17652314D02*
X10886978Y-17642790D01*
X10886978Y-17642790D02*
X10915549Y-17642790D01*
X10915549Y-17642790D02*
X10934597Y-17652314D01*
X10934597Y-17652314D02*
X10944121Y-17671362D01*
X10944121Y-17671362D02*
X10944121Y-17776124D01*
X10944121Y-17671362D02*
X10953645Y-17652314D01*
X10953645Y-17652314D02*
X10972692Y-17642790D01*
X10972692Y-17642790D02*
X11001264Y-17642790D01*
X11001264Y-17642790D02*
X11020311Y-17652314D01*
X11020311Y-17652314D02*
X11029835Y-17671362D01*
X11029835Y-17671362D02*
X11029835Y-17776124D01*
X11420311Y-17566600D02*
X11248883Y-17823743D01*
X11677454Y-17576124D02*
X11696502Y-17576124D01*
X11696502Y-17576124D02*
X11715549Y-17585648D01*
X11715549Y-17585648D02*
X11725073Y-17595171D01*
X11725073Y-17595171D02*
X11734597Y-17614219D01*
X11734597Y-17614219D02*
X11744121Y-17652314D01*
X11744121Y-17652314D02*
X11744121Y-17699933D01*
X11744121Y-17699933D02*
X11734597Y-17738028D01*
X11734597Y-17738028D02*
X11725073Y-17757076D01*
X11725073Y-17757076D02*
X11715549Y-17766600D01*
X11715549Y-17766600D02*
X11696502Y-17776124D01*
X11696502Y-17776124D02*
X11677454Y-17776124D01*
X11677454Y-17776124D02*
X11658406Y-17766600D01*
X11658406Y-17766600D02*
X11648883Y-17757076D01*
X11648883Y-17757076D02*
X11639359Y-17738028D01*
X11639359Y-17738028D02*
X11629835Y-17699933D01*
X11629835Y-17699933D02*
X11629835Y-17652314D01*
X11629835Y-17652314D02*
X11639359Y-17614219D01*
X11639359Y-17614219D02*
X11648883Y-17595171D01*
X11648883Y-17595171D02*
X11658406Y-17585648D01*
X11658406Y-17585648D02*
X11677454Y-17576124D01*
X11829835Y-17757076D02*
X11839359Y-17766600D01*
X11839359Y-17766600D02*
X11829835Y-17776124D01*
X11829835Y-17776124D02*
X11820311Y-17766600D01*
X11820311Y-17766600D02*
X11829835Y-17757076D01*
X11829835Y-17757076D02*
X11829835Y-17776124D01*
X12029835Y-17776124D02*
X11915549Y-17776124D01*
X11972692Y-17776124D02*
X11972692Y-17576124D01*
X11972692Y-17576124D02*
X11953645Y-17604695D01*
X11953645Y-17604695D02*
X11934597Y-17623743D01*
X11934597Y-17623743D02*
X11915549Y-17633267D01*
X12106026Y-17595171D02*
X12115549Y-17585648D01*
X12115549Y-17585648D02*
X12134597Y-17576124D01*
X12134597Y-17576124D02*
X12182216Y-17576124D01*
X12182216Y-17576124D02*
X12201264Y-17585648D01*
X12201264Y-17585648D02*
X12210787Y-17595171D01*
X12210787Y-17595171D02*
X12220311Y-17614219D01*
X12220311Y-17614219D02*
X12220311Y-17633267D01*
X12220311Y-17633267D02*
X12210787Y-17661838D01*
X12210787Y-17661838D02*
X12096502Y-17776124D01*
X12096502Y-17776124D02*
X12220311Y-17776124D01*
X12401264Y-17576124D02*
X12306026Y-17576124D01*
X12306026Y-17576124D02*
X12296502Y-17671362D01*
X12296502Y-17671362D02*
X12306026Y-17661838D01*
X12306026Y-17661838D02*
X12325073Y-17652314D01*
X12325073Y-17652314D02*
X12372692Y-17652314D01*
X12372692Y-17652314D02*
X12391740Y-17661838D01*
X12391740Y-17661838D02*
X12401264Y-17671362D01*
X12401264Y-17671362D02*
X12410787Y-17690409D01*
X12410787Y-17690409D02*
X12410787Y-17738028D01*
X12410787Y-17738028D02*
X12401264Y-17757076D01*
X12401264Y-17757076D02*
X12391740Y-17766600D01*
X12391740Y-17766600D02*
X12372692Y-17776124D01*
X12372692Y-17776124D02*
X12325073Y-17776124D01*
X12325073Y-17776124D02*
X12306026Y-17766600D01*
X12306026Y-17766600D02*
X12296502Y-17757076D01*
X12486978Y-17595171D02*
X12496502Y-17585648D01*
X12496502Y-17585648D02*
X12515549Y-17576124D01*
X12515549Y-17576124D02*
X12563168Y-17576124D01*
X12563168Y-17576124D02*
X12582216Y-17585648D01*
X12582216Y-17585648D02*
X12591740Y-17595171D01*
X12591740Y-17595171D02*
X12601264Y-17614219D01*
X12601264Y-17614219D02*
X12601264Y-17633267D01*
X12601264Y-17633267D02*
X12591740Y-17661838D01*
X12591740Y-17661838D02*
X12477454Y-17776124D01*
X12477454Y-17776124D02*
X12601264Y-17776124D01*
X12677454Y-17576124D02*
X12677454Y-17614219D01*
X12753645Y-17576124D02*
X12753645Y-17614219D01*
X13048883Y-17852314D02*
X13039359Y-17842790D01*
X13039359Y-17842790D02*
X13020311Y-17814219D01*
X13020311Y-17814219D02*
X13010788Y-17795171D01*
X13010788Y-17795171D02*
X13001264Y-17766600D01*
X13001264Y-17766600D02*
X12991740Y-17718981D01*
X12991740Y-17718981D02*
X12991740Y-17680886D01*
X12991740Y-17680886D02*
X13001264Y-17633267D01*
X13001264Y-17633267D02*
X13010788Y-17604695D01*
X13010788Y-17604695D02*
X13020311Y-17585648D01*
X13020311Y-17585648D02*
X13039359Y-17557076D01*
X13039359Y-17557076D02*
X13048883Y-17547552D01*
X13115549Y-17595171D02*
X13125073Y-17585648D01*
X13125073Y-17585648D02*
X13144121Y-17576124D01*
X13144121Y-17576124D02*
X13191740Y-17576124D01*
X13191740Y-17576124D02*
X13210788Y-17585648D01*
X13210788Y-17585648D02*
X13220311Y-17595171D01*
X13220311Y-17595171D02*
X13229835Y-17614219D01*
X13229835Y-17614219D02*
X13229835Y-17633267D01*
X13229835Y-17633267D02*
X13220311Y-17661838D01*
X13220311Y-17661838D02*
X13106026Y-17776124D01*
X13106026Y-17776124D02*
X13229835Y-17776124D01*
X13467930Y-17776124D02*
X13467930Y-17576124D01*
X13553645Y-17776124D02*
X13553645Y-17671362D01*
X13553645Y-17671362D02*
X13544121Y-17652314D01*
X13544121Y-17652314D02*
X13525073Y-17642790D01*
X13525073Y-17642790D02*
X13496502Y-17642790D01*
X13496502Y-17642790D02*
X13477454Y-17652314D01*
X13477454Y-17652314D02*
X13467930Y-17661838D01*
X13677454Y-17776124D02*
X13658407Y-17766600D01*
X13658407Y-17766600D02*
X13648883Y-17757076D01*
X13648883Y-17757076D02*
X13639359Y-17738028D01*
X13639359Y-17738028D02*
X13639359Y-17680886D01*
X13639359Y-17680886D02*
X13648883Y-17661838D01*
X13648883Y-17661838D02*
X13658407Y-17652314D01*
X13658407Y-17652314D02*
X13677454Y-17642790D01*
X13677454Y-17642790D02*
X13706026Y-17642790D01*
X13706026Y-17642790D02*
X13725073Y-17652314D01*
X13725073Y-17652314D02*
X13734597Y-17661838D01*
X13734597Y-17661838D02*
X13744121Y-17680886D01*
X13744121Y-17680886D02*
X13744121Y-17738028D01*
X13744121Y-17738028D02*
X13734597Y-17757076D01*
X13734597Y-17757076D02*
X13725073Y-17766600D01*
X13725073Y-17766600D02*
X13706026Y-17776124D01*
X13706026Y-17776124D02*
X13677454Y-17776124D01*
X13858407Y-17776124D02*
X13839359Y-17766600D01*
X13839359Y-17766600D02*
X13829835Y-17747552D01*
X13829835Y-17747552D02*
X13829835Y-17576124D01*
X14010788Y-17766600D02*
X13991740Y-17776124D01*
X13991740Y-17776124D02*
X13953645Y-17776124D01*
X13953645Y-17776124D02*
X13934597Y-17766600D01*
X13934597Y-17766600D02*
X13925073Y-17747552D01*
X13925073Y-17747552D02*
X13925073Y-17671362D01*
X13925073Y-17671362D02*
X13934597Y-17652314D01*
X13934597Y-17652314D02*
X13953645Y-17642790D01*
X13953645Y-17642790D02*
X13991740Y-17642790D01*
X13991740Y-17642790D02*
X14010788Y-17652314D01*
X14010788Y-17652314D02*
X14020311Y-17671362D01*
X14020311Y-17671362D02*
X14020311Y-17690409D01*
X14020311Y-17690409D02*
X13925073Y-17709457D01*
X14096502Y-17766600D02*
X14115550Y-17776124D01*
X14115550Y-17776124D02*
X14153645Y-17776124D01*
X14153645Y-17776124D02*
X14172692Y-17766600D01*
X14172692Y-17766600D02*
X14182216Y-17747552D01*
X14182216Y-17747552D02*
X14182216Y-17738028D01*
X14182216Y-17738028D02*
X14172692Y-17718981D01*
X14172692Y-17718981D02*
X14153645Y-17709457D01*
X14153645Y-17709457D02*
X14125073Y-17709457D01*
X14125073Y-17709457D02*
X14106026Y-17699933D01*
X14106026Y-17699933D02*
X14096502Y-17680886D01*
X14096502Y-17680886D02*
X14096502Y-17671362D01*
X14096502Y-17671362D02*
X14106026Y-17652314D01*
X14106026Y-17652314D02*
X14125073Y-17642790D01*
X14125073Y-17642790D02*
X14153645Y-17642790D01*
X14153645Y-17642790D02*
X14172692Y-17652314D01*
X14248883Y-17852314D02*
X14258407Y-17842790D01*
X14258407Y-17842790D02*
X14277454Y-17814219D01*
X14277454Y-17814219D02*
X14286978Y-17795171D01*
X14286978Y-17795171D02*
X14296502Y-17766600D01*
X14296502Y-17766600D02*
X14306026Y-17718981D01*
X14306026Y-17718981D02*
X14306026Y-17680886D01*
X14306026Y-17680886D02*
X14296502Y-17633267D01*
X14296502Y-17633267D02*
X14286978Y-17604695D01*
X14286978Y-17604695D02*
X14277454Y-17585648D01*
X14277454Y-17585648D02*
X14258407Y-17557076D01*
X14258407Y-17557076D02*
X14248883Y-17547552D01*
X9373820Y-17904640D02*
X9373820Y-18104640D01*
X9273820Y-18004640D02*
X9473820Y-18004640D01*
X9473820Y-18004640D02*
G75*
G02*
X9273820Y-18004640I-100000J0D01*
G01*
X9273820Y-18004640D02*
G75*
G02*
X9473820Y-18004640I100000J0D01*
G01*
X9715549Y-17896124D02*
X9839359Y-17896124D01*
X9839359Y-17896124D02*
X9772692Y-17972314D01*
X9772692Y-17972314D02*
X9801264Y-17972314D01*
X9801264Y-17972314D02*
X9820311Y-17981838D01*
X9820311Y-17981838D02*
X9829835Y-17991362D01*
X9829835Y-17991362D02*
X9839359Y-18010409D01*
X9839359Y-18010409D02*
X9839359Y-18058028D01*
X9839359Y-18058028D02*
X9829835Y-18077076D01*
X9829835Y-18077076D02*
X9820311Y-18086600D01*
X9820311Y-18086600D02*
X9801264Y-18096124D01*
X9801264Y-18096124D02*
X9744121Y-18096124D01*
X9744121Y-18096124D02*
X9725073Y-18086600D01*
X9725073Y-18086600D02*
X9715549Y-18077076D01*
X9925073Y-18077076D02*
X9934597Y-18086600D01*
X9934597Y-18086600D02*
X9925073Y-18096124D01*
X9925073Y-18096124D02*
X9915549Y-18086600D01*
X9915549Y-18086600D02*
X9925073Y-18077076D01*
X9925073Y-18077076D02*
X9925073Y-18096124D01*
X10115549Y-17896124D02*
X10020311Y-17896124D01*
X10020311Y-17896124D02*
X10010787Y-17991362D01*
X10010787Y-17991362D02*
X10020311Y-17981838D01*
X10020311Y-17981838D02*
X10039359Y-17972314D01*
X10039359Y-17972314D02*
X10086978Y-17972314D01*
X10086978Y-17972314D02*
X10106025Y-17981838D01*
X10106025Y-17981838D02*
X10115549Y-17991362D01*
X10115549Y-17991362D02*
X10125073Y-18010409D01*
X10125073Y-18010409D02*
X10125073Y-18058028D01*
X10125073Y-18058028D02*
X10115549Y-18077076D01*
X10115549Y-18077076D02*
X10106025Y-18086600D01*
X10106025Y-18086600D02*
X10086978Y-18096124D01*
X10086978Y-18096124D02*
X10039359Y-18096124D01*
X10039359Y-18096124D02*
X10020311Y-18086600D01*
X10020311Y-18086600D02*
X10010787Y-18077076D01*
X10248883Y-17896124D02*
X10267930Y-17896124D01*
X10267930Y-17896124D02*
X10286978Y-17905648D01*
X10286978Y-17905648D02*
X10296502Y-17915171D01*
X10296502Y-17915171D02*
X10306025Y-17934219D01*
X10306025Y-17934219D02*
X10315549Y-17972314D01*
X10315549Y-17972314D02*
X10315549Y-18019933D01*
X10315549Y-18019933D02*
X10306025Y-18058028D01*
X10306025Y-18058028D02*
X10296502Y-18077076D01*
X10296502Y-18077076D02*
X10286978Y-18086600D01*
X10286978Y-18086600D02*
X10267930Y-18096124D01*
X10267930Y-18096124D02*
X10248883Y-18096124D01*
X10248883Y-18096124D02*
X10229835Y-18086600D01*
X10229835Y-18086600D02*
X10220311Y-18077076D01*
X10220311Y-18077076D02*
X10210787Y-18058028D01*
X10210787Y-18058028D02*
X10201264Y-18019933D01*
X10201264Y-18019933D02*
X10201264Y-17972314D01*
X10201264Y-17972314D02*
X10210787Y-17934219D01*
X10210787Y-17934219D02*
X10220311Y-17915171D01*
X10220311Y-17915171D02*
X10229835Y-17905648D01*
X10229835Y-17905648D02*
X10248883Y-17896124D01*
X10439359Y-17896124D02*
X10458406Y-17896124D01*
X10458406Y-17896124D02*
X10477454Y-17905648D01*
X10477454Y-17905648D02*
X10486978Y-17915171D01*
X10486978Y-17915171D02*
X10496502Y-17934219D01*
X10496502Y-17934219D02*
X10506025Y-17972314D01*
X10506025Y-17972314D02*
X10506025Y-18019933D01*
X10506025Y-18019933D02*
X10496502Y-18058028D01*
X10496502Y-18058028D02*
X10486978Y-18077076D01*
X10486978Y-18077076D02*
X10477454Y-18086600D01*
X10477454Y-18086600D02*
X10458406Y-18096124D01*
X10458406Y-18096124D02*
X10439359Y-18096124D01*
X10439359Y-18096124D02*
X10420311Y-18086600D01*
X10420311Y-18086600D02*
X10410787Y-18077076D01*
X10410787Y-18077076D02*
X10401264Y-18058028D01*
X10401264Y-18058028D02*
X10391740Y-18019933D01*
X10391740Y-18019933D02*
X10391740Y-17972314D01*
X10391740Y-17972314D02*
X10401264Y-17934219D01*
X10401264Y-17934219D02*
X10410787Y-17915171D01*
X10410787Y-17915171D02*
X10420311Y-17905648D01*
X10420311Y-17905648D02*
X10439359Y-17896124D01*
X10591740Y-18096124D02*
X10591740Y-17962790D01*
X10591740Y-17981838D02*
X10601264Y-17972314D01*
X10601264Y-17972314D02*
X10620311Y-17962790D01*
X10620311Y-17962790D02*
X10648883Y-17962790D01*
X10648883Y-17962790D02*
X10667930Y-17972314D01*
X10667930Y-17972314D02*
X10677454Y-17991362D01*
X10677454Y-17991362D02*
X10677454Y-18096124D01*
X10677454Y-17991362D02*
X10686978Y-17972314D01*
X10686978Y-17972314D02*
X10706025Y-17962790D01*
X10706025Y-17962790D02*
X10734597Y-17962790D01*
X10734597Y-17962790D02*
X10753645Y-17972314D01*
X10753645Y-17972314D02*
X10763168Y-17991362D01*
X10763168Y-17991362D02*
X10763168Y-18096124D01*
X10858406Y-18096124D02*
X10858406Y-17962790D01*
X10858406Y-17981838D02*
X10867930Y-17972314D01*
X10867930Y-17972314D02*
X10886978Y-17962790D01*
X10886978Y-17962790D02*
X10915549Y-17962790D01*
X10915549Y-17962790D02*
X10934597Y-17972314D01*
X10934597Y-17972314D02*
X10944121Y-17991362D01*
X10944121Y-17991362D02*
X10944121Y-18096124D01*
X10944121Y-17991362D02*
X10953645Y-17972314D01*
X10953645Y-17972314D02*
X10972692Y-17962790D01*
X10972692Y-17962790D02*
X11001264Y-17962790D01*
X11001264Y-17962790D02*
X11020311Y-17972314D01*
X11020311Y-17972314D02*
X11029835Y-17991362D01*
X11029835Y-17991362D02*
X11029835Y-18096124D01*
X11420311Y-17886600D02*
X11248883Y-18143743D01*
X11677454Y-17896124D02*
X11696502Y-17896124D01*
X11696502Y-17896124D02*
X11715549Y-17905648D01*
X11715549Y-17905648D02*
X11725073Y-17915171D01*
X11725073Y-17915171D02*
X11734597Y-17934219D01*
X11734597Y-17934219D02*
X11744121Y-17972314D01*
X11744121Y-17972314D02*
X11744121Y-18019933D01*
X11744121Y-18019933D02*
X11734597Y-18058028D01*
X11734597Y-18058028D02*
X11725073Y-18077076D01*
X11725073Y-18077076D02*
X11715549Y-18086600D01*
X11715549Y-18086600D02*
X11696502Y-18096124D01*
X11696502Y-18096124D02*
X11677454Y-18096124D01*
X11677454Y-18096124D02*
X11658406Y-18086600D01*
X11658406Y-18086600D02*
X11648883Y-18077076D01*
X11648883Y-18077076D02*
X11639359Y-18058028D01*
X11639359Y-18058028D02*
X11629835Y-18019933D01*
X11629835Y-18019933D02*
X11629835Y-17972314D01*
X11629835Y-17972314D02*
X11639359Y-17934219D01*
X11639359Y-17934219D02*
X11648883Y-17915171D01*
X11648883Y-17915171D02*
X11658406Y-17905648D01*
X11658406Y-17905648D02*
X11677454Y-17896124D01*
X11829835Y-18077076D02*
X11839359Y-18086600D01*
X11839359Y-18086600D02*
X11829835Y-18096124D01*
X11829835Y-18096124D02*
X11820311Y-18086600D01*
X11820311Y-18086600D02*
X11829835Y-18077076D01*
X11829835Y-18077076D02*
X11829835Y-18096124D01*
X12029835Y-18096124D02*
X11915549Y-18096124D01*
X11972692Y-18096124D02*
X11972692Y-17896124D01*
X11972692Y-17896124D02*
X11953645Y-17924695D01*
X11953645Y-17924695D02*
X11934597Y-17943743D01*
X11934597Y-17943743D02*
X11915549Y-17953267D01*
X12096502Y-17896124D02*
X12220311Y-17896124D01*
X12220311Y-17896124D02*
X12153645Y-17972314D01*
X12153645Y-17972314D02*
X12182216Y-17972314D01*
X12182216Y-17972314D02*
X12201264Y-17981838D01*
X12201264Y-17981838D02*
X12210787Y-17991362D01*
X12210787Y-17991362D02*
X12220311Y-18010409D01*
X12220311Y-18010409D02*
X12220311Y-18058028D01*
X12220311Y-18058028D02*
X12210787Y-18077076D01*
X12210787Y-18077076D02*
X12201264Y-18086600D01*
X12201264Y-18086600D02*
X12182216Y-18096124D01*
X12182216Y-18096124D02*
X12125073Y-18096124D01*
X12125073Y-18096124D02*
X12106026Y-18086600D01*
X12106026Y-18086600D02*
X12096502Y-18077076D01*
X12286978Y-17896124D02*
X12420311Y-17896124D01*
X12420311Y-17896124D02*
X12334597Y-18096124D01*
X12525073Y-17981838D02*
X12506026Y-17972314D01*
X12506026Y-17972314D02*
X12496502Y-17962790D01*
X12496502Y-17962790D02*
X12486978Y-17943743D01*
X12486978Y-17943743D02*
X12486978Y-17934219D01*
X12486978Y-17934219D02*
X12496502Y-17915171D01*
X12496502Y-17915171D02*
X12506026Y-17905648D01*
X12506026Y-17905648D02*
X12525073Y-17896124D01*
X12525073Y-17896124D02*
X12563168Y-17896124D01*
X12563168Y-17896124D02*
X12582216Y-17905648D01*
X12582216Y-17905648D02*
X12591740Y-17915171D01*
X12591740Y-17915171D02*
X12601264Y-17934219D01*
X12601264Y-17934219D02*
X12601264Y-17943743D01*
X12601264Y-17943743D02*
X12591740Y-17962790D01*
X12591740Y-17962790D02*
X12582216Y-17972314D01*
X12582216Y-17972314D02*
X12563168Y-17981838D01*
X12563168Y-17981838D02*
X12525073Y-17981838D01*
X12525073Y-17981838D02*
X12506026Y-17991362D01*
X12506026Y-17991362D02*
X12496502Y-18000886D01*
X12496502Y-18000886D02*
X12486978Y-18019933D01*
X12486978Y-18019933D02*
X12486978Y-18058028D01*
X12486978Y-18058028D02*
X12496502Y-18077076D01*
X12496502Y-18077076D02*
X12506026Y-18086600D01*
X12506026Y-18086600D02*
X12525073Y-18096124D01*
X12525073Y-18096124D02*
X12563168Y-18096124D01*
X12563168Y-18096124D02*
X12582216Y-18086600D01*
X12582216Y-18086600D02*
X12591740Y-18077076D01*
X12591740Y-18077076D02*
X12601264Y-18058028D01*
X12601264Y-18058028D02*
X12601264Y-18019933D01*
X12601264Y-18019933D02*
X12591740Y-18000886D01*
X12591740Y-18000886D02*
X12582216Y-17991362D01*
X12582216Y-17991362D02*
X12563168Y-17981838D01*
X12677454Y-17896124D02*
X12677454Y-17934219D01*
X12753645Y-17896124D02*
X12753645Y-17934219D01*
X13048883Y-18172314D02*
X13039359Y-18162790D01*
X13039359Y-18162790D02*
X13020311Y-18134219D01*
X13020311Y-18134219D02*
X13010788Y-18115171D01*
X13010788Y-18115171D02*
X13001264Y-18086600D01*
X13001264Y-18086600D02*
X12991740Y-18038981D01*
X12991740Y-18038981D02*
X12991740Y-18000886D01*
X12991740Y-18000886D02*
X13001264Y-17953267D01*
X13001264Y-17953267D02*
X13010788Y-17924695D01*
X13010788Y-17924695D02*
X13020311Y-17905648D01*
X13020311Y-17905648D02*
X13039359Y-17877076D01*
X13039359Y-17877076D02*
X13048883Y-17867552D01*
X13115549Y-17915171D02*
X13125073Y-17905648D01*
X13125073Y-17905648D02*
X13144121Y-17896124D01*
X13144121Y-17896124D02*
X13191740Y-17896124D01*
X13191740Y-17896124D02*
X13210788Y-17905648D01*
X13210788Y-17905648D02*
X13220311Y-17915171D01*
X13220311Y-17915171D02*
X13229835Y-17934219D01*
X13229835Y-17934219D02*
X13229835Y-17953267D01*
X13229835Y-17953267D02*
X13220311Y-17981838D01*
X13220311Y-17981838D02*
X13106026Y-18096124D01*
X13106026Y-18096124D02*
X13229835Y-18096124D01*
X13467930Y-18096124D02*
X13467930Y-17896124D01*
X13553645Y-18096124D02*
X13553645Y-17991362D01*
X13553645Y-17991362D02*
X13544121Y-17972314D01*
X13544121Y-17972314D02*
X13525073Y-17962790D01*
X13525073Y-17962790D02*
X13496502Y-17962790D01*
X13496502Y-17962790D02*
X13477454Y-17972314D01*
X13477454Y-17972314D02*
X13467930Y-17981838D01*
X13677454Y-18096124D02*
X13658407Y-18086600D01*
X13658407Y-18086600D02*
X13648883Y-18077076D01*
X13648883Y-18077076D02*
X13639359Y-18058028D01*
X13639359Y-18058028D02*
X13639359Y-18000886D01*
X13639359Y-18000886D02*
X13648883Y-17981838D01*
X13648883Y-17981838D02*
X13658407Y-17972314D01*
X13658407Y-17972314D02*
X13677454Y-17962790D01*
X13677454Y-17962790D02*
X13706026Y-17962790D01*
X13706026Y-17962790D02*
X13725073Y-17972314D01*
X13725073Y-17972314D02*
X13734597Y-17981838D01*
X13734597Y-17981838D02*
X13744121Y-18000886D01*
X13744121Y-18000886D02*
X13744121Y-18058028D01*
X13744121Y-18058028D02*
X13734597Y-18077076D01*
X13734597Y-18077076D02*
X13725073Y-18086600D01*
X13725073Y-18086600D02*
X13706026Y-18096124D01*
X13706026Y-18096124D02*
X13677454Y-18096124D01*
X13858407Y-18096124D02*
X13839359Y-18086600D01*
X13839359Y-18086600D02*
X13829835Y-18067552D01*
X13829835Y-18067552D02*
X13829835Y-17896124D01*
X14010788Y-18086600D02*
X13991740Y-18096124D01*
X13991740Y-18096124D02*
X13953645Y-18096124D01*
X13953645Y-18096124D02*
X13934597Y-18086600D01*
X13934597Y-18086600D02*
X13925073Y-18067552D01*
X13925073Y-18067552D02*
X13925073Y-17991362D01*
X13925073Y-17991362D02*
X13934597Y-17972314D01*
X13934597Y-17972314D02*
X13953645Y-17962790D01*
X13953645Y-17962790D02*
X13991740Y-17962790D01*
X13991740Y-17962790D02*
X14010788Y-17972314D01*
X14010788Y-17972314D02*
X14020311Y-17991362D01*
X14020311Y-17991362D02*
X14020311Y-18010409D01*
X14020311Y-18010409D02*
X13925073Y-18029457D01*
X14096502Y-18086600D02*
X14115550Y-18096124D01*
X14115550Y-18096124D02*
X14153645Y-18096124D01*
X14153645Y-18096124D02*
X14172692Y-18086600D01*
X14172692Y-18086600D02*
X14182216Y-18067552D01*
X14182216Y-18067552D02*
X14182216Y-18058028D01*
X14182216Y-18058028D02*
X14172692Y-18038981D01*
X14172692Y-18038981D02*
X14153645Y-18029457D01*
X14153645Y-18029457D02*
X14125073Y-18029457D01*
X14125073Y-18029457D02*
X14106026Y-18019933D01*
X14106026Y-18019933D02*
X14096502Y-18000886D01*
X14096502Y-18000886D02*
X14096502Y-17991362D01*
X14096502Y-17991362D02*
X14106026Y-17972314D01*
X14106026Y-17972314D02*
X14125073Y-17962790D01*
X14125073Y-17962790D02*
X14153645Y-17962790D01*
X14153645Y-17962790D02*
X14172692Y-17972314D01*
X14248883Y-18172314D02*
X14258407Y-18162790D01*
X14258407Y-18162790D02*
X14277454Y-18134219D01*
X14277454Y-18134219D02*
X14286978Y-18115171D01*
X14286978Y-18115171D02*
X14296502Y-18086600D01*
X14296502Y-18086600D02*
X14306026Y-18038981D01*
X14306026Y-18038981D02*
X14306026Y-18000886D01*
X14306026Y-18000886D02*
X14296502Y-17953267D01*
X14296502Y-17953267D02*
X14286978Y-17924695D01*
X14286978Y-17924695D02*
X14277454Y-17905648D01*
X14277454Y-17905648D02*
X14258407Y-17877076D01*
X14258407Y-17877076D02*
X14248883Y-17867552D01*
M02*
