G04 #@! TF.GenerationSoftware,KiCad,Pcbnew,9.0.7*
G04 #@! TF.CreationDate,2026-02-02T16:02:05+11:00*
G04 #@! TF.ProjectId,FlashCartProgrammer,466c6173-6843-4617-9274-50726f677261,rev?*
G04 #@! TF.SameCoordinates,Original*
G04 #@! TF.FileFunction,Paste,Top*
G04 #@! TF.FilePolarity,Positive*
%FSLAX46Y46*%
G04 Gerber Fmt 4.6, Leading zero omitted, Abs format (unit mm)*
G04 Created by KiCad (PCBNEW 9.0.7) date 2026-02-02 16:02:05*
%MOMM*%
%LPD*%
G01*
G04 APERTURE LIST*
G04 Aperture macros list*
%AMRoundRect*
0 Rectangle with rounded corners*
0 $1 Rounding radius*
0 $2 $3 $4 $5 $6 $7 $8 $9 X,Y pos of 4 corners*
0 Add a 4 corners polygon primitive as box body*
4,1,4,$2,$3,$4,$5,$6,$7,$8,$9,$2,$3,0*
0 Add four circle primitives for the rounded corners*
1,1,$1+$1,$2,$3*
1,1,$1+$1,$4,$5*
1,1,$1+$1,$6,$7*
1,1,$1+$1,$8,$9*
0 Add four rect primitives between the rounded corners*
20,1,$1+$1,$2,$3,$4,$5,0*
20,1,$1+$1,$4,$5,$6,$7,0*
20,1,$1+$1,$6,$7,$8,$9,0*
20,1,$1+$1,$8,$9,$2,$3,0*%
G04 Aperture macros list end*
%ADD10RoundRect,0.200000X-0.275000X0.200000X-0.275000X-0.200000X0.275000X-0.200000X0.275000X0.200000X0*%
%ADD11RoundRect,0.100000X0.637500X0.100000X-0.637500X0.100000X-0.637500X-0.100000X0.637500X-0.100000X0*%
%ADD12RoundRect,0.200000X-0.200000X-0.275000X0.200000X-0.275000X0.200000X0.275000X-0.200000X0.275000X0*%
%ADD13RoundRect,0.225000X0.375000X-0.225000X0.375000X0.225000X-0.375000X0.225000X-0.375000X-0.225000X0*%
%ADD14RoundRect,0.225000X-0.225000X-0.250000X0.225000X-0.250000X0.225000X0.250000X-0.225000X0.250000X0*%
%ADD15R,1.500000X0.800000*%
%ADD16R,1.500000X1.195000*%
%ADD17R,1.500000X1.500000*%
%ADD18R,1.400000X0.800000*%
%ADD19R,1.750000X0.800000*%
%ADD20R,1.000000X1.450000*%
%ADD21R,1.550000X1.000000*%
%ADD22RoundRect,0.250000X0.350000X-0.450000X0.350000X0.450000X-0.350000X0.450000X-0.350000X-0.450000X0*%
%ADD23RoundRect,0.225000X0.250000X-0.225000X0.250000X0.225000X-0.250000X0.225000X-0.250000X-0.225000X0*%
%ADD24R,0.950000X1.400000*%
%ADD25RoundRect,0.150000X0.150000X-0.512500X0.150000X0.512500X-0.150000X0.512500X-0.150000X-0.512500X0*%
%ADD26RoundRect,0.225000X0.225000X0.250000X-0.225000X0.250000X-0.225000X-0.250000X0.225000X-0.250000X0*%
%ADD27R,0.100000X0.100000*%
%ADD28R,0.220000X0.780000*%
%ADD29R,0.780000X0.220000*%
%ADD30RoundRect,0.200000X0.200000X0.275000X-0.200000X0.275000X-0.200000X-0.275000X0.200000X-0.275000X0*%
%ADD31RoundRect,0.150000X-0.650000X-0.150000X0.650000X-0.150000X0.650000X0.150000X-0.650000X0.150000X0*%
%ADD32RoundRect,0.200000X0.275000X-0.200000X0.275000X0.200000X-0.275000X0.200000X-0.275000X-0.200000X0*%
G04 APERTURE END LIST*
D10*
X156486535Y-130264863D03*
X156486535Y-131914863D03*
D11*
X150625000Y-141950000D03*
X150625000Y-141300000D03*
X150625000Y-140650000D03*
X150625000Y-140000000D03*
X150625000Y-139350000D03*
X150625000Y-138700000D03*
X150625000Y-138050000D03*
X150625000Y-137400000D03*
X150625000Y-136750000D03*
X150625000Y-136100000D03*
X144900000Y-136100000D03*
X144900000Y-136750000D03*
X144900000Y-137400000D03*
X144900000Y-138050000D03*
X144900000Y-138700000D03*
X144900000Y-139350000D03*
X144900000Y-140000000D03*
X144900000Y-140650000D03*
X144900000Y-141300000D03*
X144900000Y-141950000D03*
D12*
X171250000Y-132149530D03*
X172900000Y-132149530D03*
D13*
X175520000Y-140500000D03*
X175520000Y-137200000D03*
D14*
X145625000Y-108200000D03*
X147175000Y-108200000D03*
D15*
X184635000Y-120140000D03*
D16*
X192235000Y-119992500D03*
D17*
X192235000Y-108540000D03*
D18*
X183985000Y-108190000D03*
D19*
X192360000Y-110990000D03*
X192360000Y-112090000D03*
X192360000Y-113190000D03*
X192360000Y-114290000D03*
X192360000Y-115390000D03*
X192360000Y-116490000D03*
X192360000Y-117590000D03*
X192360000Y-118690000D03*
D20*
X183135000Y-119815000D03*
D21*
X181560000Y-108640000D03*
D11*
X151675000Y-106475000D03*
X151675000Y-105825000D03*
X151675000Y-105175000D03*
X151675000Y-104525000D03*
X151675000Y-103875000D03*
X151675000Y-103225000D03*
X151675000Y-102575000D03*
X151675000Y-101925000D03*
X151675000Y-101275000D03*
X151675000Y-100625000D03*
X145950000Y-100625000D03*
X145950000Y-101275000D03*
X145950000Y-101925000D03*
X145950000Y-102575000D03*
X145950000Y-103225000D03*
X145950000Y-103875000D03*
X145950000Y-104525000D03*
X145950000Y-105175000D03*
X145950000Y-105825000D03*
X145950000Y-106475000D03*
X168275000Y-113050000D03*
X168275000Y-112400000D03*
X168275000Y-111750000D03*
X168275000Y-111100000D03*
X168275000Y-110450000D03*
X168275000Y-109800000D03*
X168275000Y-109150000D03*
X168275000Y-108500000D03*
X168275000Y-107850000D03*
X168275000Y-107200000D03*
X162550000Y-107200000D03*
X162550000Y-107850000D03*
X162550000Y-108500000D03*
X162550000Y-109150000D03*
X162550000Y-109800000D03*
X162550000Y-110450000D03*
X162550000Y-111100000D03*
X162550000Y-111750000D03*
X162550000Y-112400000D03*
X162550000Y-113050000D03*
D22*
X154486535Y-131089863D03*
X154486535Y-128689863D03*
X152586535Y-128689863D03*
X152586535Y-131089863D03*
D23*
X167510000Y-145864863D03*
X167510000Y-144314863D03*
D24*
X107250000Y-146400000D03*
X109150000Y-146400000D03*
D25*
X170792500Y-143267637D03*
X171742500Y-143267637D03*
X172692500Y-143267637D03*
X172692500Y-140992637D03*
X170792500Y-140992637D03*
D26*
X152025000Y-121300000D03*
X150475000Y-121300000D03*
D11*
X160000000Y-91450000D03*
X160000000Y-90800000D03*
X160000000Y-90150000D03*
X160000000Y-89500000D03*
X160000000Y-88850000D03*
X160000000Y-88200000D03*
X160000000Y-87550000D03*
X160000000Y-86900000D03*
X160000000Y-86250000D03*
X160000000Y-85600000D03*
X154275000Y-85600000D03*
X154275000Y-86250000D03*
X154275000Y-86900000D03*
X154275000Y-87550000D03*
X154275000Y-88200000D03*
X154275000Y-88850000D03*
X154275000Y-89500000D03*
X154275000Y-90150000D03*
X154275000Y-90800000D03*
X154275000Y-91450000D03*
D14*
X144900000Y-143550000D03*
X146450000Y-143550000D03*
D11*
X151675000Y-119625000D03*
X151675000Y-118975000D03*
X151675000Y-118325000D03*
X151675000Y-117675000D03*
X151675000Y-117025000D03*
X151675000Y-116375000D03*
X151675000Y-115725000D03*
X151675000Y-115075000D03*
X151675000Y-114425000D03*
X151675000Y-113775000D03*
X145950000Y-113775000D03*
X145950000Y-114425000D03*
X145950000Y-115075000D03*
X145950000Y-115725000D03*
X145950000Y-116375000D03*
X145950000Y-117025000D03*
X145950000Y-117675000D03*
X145950000Y-118325000D03*
X145950000Y-118975000D03*
X145950000Y-119625000D03*
D27*
X165015035Y-130018363D03*
X164165035Y-130018363D03*
X163315035Y-130018363D03*
X162465035Y-130018363D03*
X165015035Y-130868363D03*
X164165035Y-130868363D03*
X163315035Y-130868363D03*
X162465035Y-130868363D03*
X165015035Y-131718363D03*
X164165035Y-131718363D03*
X163315035Y-131718363D03*
X162465035Y-131718363D03*
X165015035Y-132568363D03*
X164165035Y-132568363D03*
X163315035Y-132568363D03*
X162465035Y-132568363D03*
D28*
X167540035Y-126396863D03*
X167140035Y-126396863D03*
X166740035Y-126396863D03*
X166340035Y-126396863D03*
X165940035Y-126396863D03*
X165540035Y-126396863D03*
X165140035Y-126396863D03*
X164740035Y-126396863D03*
X164340035Y-126396863D03*
X163940035Y-126396863D03*
X163540035Y-126396863D03*
X163140035Y-126396863D03*
X162740035Y-126396863D03*
X162340035Y-126396863D03*
X161940035Y-126396863D03*
X161540035Y-126396863D03*
X161140035Y-126396863D03*
X160740035Y-126396863D03*
X160340035Y-126396863D03*
X159940035Y-126396863D03*
D29*
X158843535Y-127493363D03*
X158843535Y-127893363D03*
X158843535Y-128293363D03*
X158843535Y-128693363D03*
X158843535Y-129093363D03*
X158843535Y-129493363D03*
X158843535Y-129893363D03*
X158843535Y-130293363D03*
X158843535Y-130693363D03*
X158843535Y-131093363D03*
X158843535Y-131493363D03*
X158843535Y-131893363D03*
X158843535Y-132293363D03*
X158843535Y-132693363D03*
X158843535Y-133093363D03*
X158843535Y-133493363D03*
X158843535Y-133893363D03*
X158843535Y-134293363D03*
X158843535Y-134693363D03*
X158843535Y-135093363D03*
D28*
X159940035Y-136189863D03*
X160340035Y-136189863D03*
X160740035Y-136189863D03*
X161140035Y-136189863D03*
X161540035Y-136189863D03*
X161940035Y-136189863D03*
X162340035Y-136189863D03*
X162740035Y-136189863D03*
X163140035Y-136189863D03*
X163540035Y-136189863D03*
X163940035Y-136189863D03*
X164340035Y-136189863D03*
X164740035Y-136189863D03*
X165140035Y-136189863D03*
X165540035Y-136189863D03*
X165940035Y-136189863D03*
X166340035Y-136189863D03*
X166740035Y-136189863D03*
X167140035Y-136189863D03*
X167540035Y-136189863D03*
D29*
X168636535Y-135093363D03*
X168636535Y-134693363D03*
X168636535Y-134293363D03*
X168636535Y-133893363D03*
X168636535Y-133493363D03*
X168636535Y-133093363D03*
X168636535Y-132693363D03*
X168636535Y-132293363D03*
X168636535Y-131893363D03*
X168636535Y-131493363D03*
X168636535Y-131093363D03*
X168636535Y-130693363D03*
X168636535Y-130293363D03*
X168636535Y-129893363D03*
X168636535Y-129493363D03*
X168636535Y-129093363D03*
X168636535Y-128693363D03*
X168636535Y-128293363D03*
X168636535Y-127893363D03*
X168636535Y-127493363D03*
D26*
X154136535Y-126736363D03*
X152586535Y-126736363D03*
D25*
X162540035Y-144327363D03*
X163490035Y-144327363D03*
X164440035Y-144327363D03*
X164440035Y-142052363D03*
X162540035Y-142052363D03*
D26*
X150575000Y-143550000D03*
X149025000Y-143550000D03*
D30*
X150625000Y-134500000D03*
X148975000Y-134500000D03*
D12*
X177185000Y-119815000D03*
X178835000Y-119815000D03*
X171250000Y-133610000D03*
X172900000Y-133610000D03*
D14*
X152936535Y-133086363D03*
X154486535Y-133086363D03*
D12*
X175685000Y-98510000D03*
X177335000Y-98510000D03*
D31*
X174491035Y-126139863D03*
X174491035Y-127409863D03*
X174491035Y-128679863D03*
X174491035Y-129949863D03*
X181691035Y-129949863D03*
X181691035Y-128679863D03*
X181691035Y-127409863D03*
X181691035Y-126139863D03*
D12*
X115675000Y-146400000D03*
X117325000Y-146400000D03*
D23*
X160450000Y-113950000D03*
X160450000Y-112400000D03*
D14*
X145600000Y-121250000D03*
X147150000Y-121250000D03*
D26*
X172342500Y-145920000D03*
X170792500Y-145920000D03*
D32*
X175685000Y-102760000D03*
X175685000Y-101110000D03*
D23*
X152250000Y-93000000D03*
X152250000Y-91450000D03*
X170825000Y-114000000D03*
X170825000Y-112450000D03*
M02*
