G04 #@! TF.GenerationSoftware,KiCad,Pcbnew,9.0.7*
G04 #@! TF.CreationDate,2026-02-02T16:02:05+11:00*
G04 #@! TF.ProjectId,FlashCartProgrammer,466c6173-6843-4617-9274-50726f677261,rev?*
G04 #@! TF.SameCoordinates,Original*
G04 #@! TF.FileFunction,Soldermask,Bot*
G04 #@! TF.FilePolarity,Negative*
%FSLAX46Y46*%
G04 Gerber Fmt 4.6, Leading zero omitted, Abs format (unit mm)*
G04 Created by KiCad (PCBNEW 9.0.7) date 2026-02-02 16:02:05*
%MOMM*%
%LPD*%
G01*
G04 APERTURE LIST*
G04 Aperture macros list*
%AMRoundRect*
0 Rectangle with rounded corners*
0 $1 Rounding radius*
0 $2 $3 $4 $5 $6 $7 $8 $9 X,Y pos of 4 corners*
0 Add a 4 corners polygon primitive as box body*
4,1,4,$2,$3,$4,$5,$6,$7,$8,$9,$2,$3,0*
0 Add four circle primitives for the rounded corners*
1,1,$1+$1,$2,$3*
1,1,$1+$1,$4,$5*
1,1,$1+$1,$6,$7*
1,1,$1+$1,$8,$9*
0 Add four rect primitives between the rounded corners*
20,1,$1+$1,$2,$3,$4,$5,0*
20,1,$1+$1,$4,$5,$6,$7,0*
20,1,$1+$1,$6,$7,$8,$9,0*
20,1,$1+$1,$8,$9,$2,$3,0*%
G04 Aperture macros list end*
%ADD10C,4.770000*%
%ADD11R,1.785000X1.785000*%
%ADD12C,1.785000*%
%ADD13R,1.700000X1.700000*%
%ADD14C,1.700000*%
%ADD15C,3.500000*%
%ADD16C,0.425000*%
%ADD17RoundRect,0.250000X-0.550000X-0.550000X0.550000X-0.550000X0.550000X0.550000X-0.550000X0.550000X0*%
%ADD18C,1.600000*%
%ADD19R,2.130000X2.130000*%
%ADD20C,2.130000*%
%ADD21C,5.000000*%
%ADD22C,1.750000*%
%ADD23R,1.500000X1.600000*%
%ADD24C,3.000000*%
%ADD25R,2.000000X1.440000*%
%ADD26O,2.000000X1.440000*%
%ADD27RoundRect,0.225000X0.250000X-0.225000X0.250000X0.225000X-0.250000X0.225000X-0.250000X-0.225000X0*%
%ADD28RoundRect,0.225000X-0.250000X0.225000X-0.250000X-0.225000X0.250000X-0.225000X0.250000X0.225000X0*%
%ADD29RoundRect,0.200000X0.200000X0.275000X-0.200000X0.275000X-0.200000X-0.275000X0.200000X-0.275000X0*%
%ADD30RoundRect,0.200000X0.275000X-0.200000X0.275000X0.200000X-0.275000X0.200000X-0.275000X-0.200000X0*%
%ADD31RoundRect,0.225000X-0.225000X-0.250000X0.225000X-0.250000X0.225000X0.250000X-0.225000X0.250000X0*%
%ADD32RoundRect,0.200000X-0.275000X0.200000X-0.275000X-0.200000X0.275000X-0.200000X0.275000X0.200000X0*%
%ADD33RoundRect,0.225000X0.225000X0.250000X-0.225000X0.250000X-0.225000X-0.250000X0.225000X-0.250000X0*%
G04 APERTURE END LIST*
D10*
X189630000Y-102290000D03*
X189630000Y-77300000D03*
D11*
X187530000Y-85480000D03*
D12*
X187530000Y-87770000D03*
X187530000Y-90060000D03*
X187530000Y-92350000D03*
X187530000Y-94640000D03*
X189630000Y-84340000D03*
X189630000Y-86630000D03*
X189630000Y-88920000D03*
X189630000Y-91210000D03*
X189630000Y-93500000D03*
X191710000Y-85480000D03*
X191710000Y-87770000D03*
X191710000Y-90060000D03*
X191710000Y-92350000D03*
X191710000Y-94640000D03*
D13*
X130470000Y-75500000D03*
D14*
X133010000Y-75500000D03*
X135550000Y-75500000D03*
D13*
X153330000Y-146370000D03*
D14*
X155870000Y-146370000D03*
X158410000Y-146370000D03*
D13*
X177335000Y-95460000D03*
D14*
X177335000Y-92920000D03*
D15*
X190960000Y-144850000D03*
D13*
X181710000Y-143830000D03*
D14*
X181710000Y-146370000D03*
X179170000Y-143830000D03*
X179170000Y-146370000D03*
X176630000Y-143830000D03*
X176630000Y-146370000D03*
D16*
X164740035Y-130293363D03*
X163740035Y-130293363D03*
X162740035Y-130293363D03*
X164740035Y-131293363D03*
X163740035Y-131293363D03*
X162740035Y-131293363D03*
X164740035Y-132293363D03*
X163740035Y-132293363D03*
X162740035Y-132293363D03*
D17*
X179170000Y-138620000D03*
D18*
X181670000Y-138620000D03*
D19*
X185910000Y-63700000D03*
D20*
X181950000Y-63700000D03*
X177990000Y-63700000D03*
X174030000Y-63700000D03*
X170070000Y-63700000D03*
X166110000Y-63700000D03*
X162150000Y-63700000D03*
X158190000Y-63700000D03*
X154230000Y-63700000D03*
X150270000Y-63700000D03*
X146310000Y-63700000D03*
X142350000Y-63700000D03*
X138390000Y-63700000D03*
X134430000Y-63700000D03*
X130470000Y-63700000D03*
X126510000Y-63700000D03*
X122550000Y-63700000D03*
X118590000Y-63700000D03*
X114630000Y-63700000D03*
X110670000Y-63700000D03*
X106710000Y-63700000D03*
X102700000Y-63700000D03*
X185910000Y-58620000D03*
X181950000Y-58620000D03*
X177990000Y-58620000D03*
X174030000Y-58620000D03*
X170070000Y-58620000D03*
X166110000Y-58620000D03*
X162150000Y-58620000D03*
X158190000Y-58620000D03*
X154230000Y-58620000D03*
X150270000Y-58620000D03*
X146310000Y-58620000D03*
X142350000Y-58620000D03*
X138390000Y-58620000D03*
X134430000Y-58620000D03*
X130470000Y-58620000D03*
X126510000Y-58620000D03*
X122550000Y-58620000D03*
X118590000Y-58620000D03*
X114630000Y-58620000D03*
X110670000Y-58620000D03*
X106710000Y-58620000D03*
X102700000Y-58620000D03*
D15*
X190960000Y-69570000D03*
D13*
X130470000Y-71500000D03*
D14*
X133010000Y-71500000D03*
X135550000Y-71500000D03*
X138090000Y-71500000D03*
X140630000Y-71500000D03*
X143170000Y-71500000D03*
X145710000Y-71500000D03*
X148250000Y-71500000D03*
X150790000Y-71500000D03*
X153330000Y-71500000D03*
D21*
X98629800Y-73381400D03*
X98629800Y-142471400D03*
D13*
X107969800Y-134596400D03*
D22*
X107969800Y-132056400D03*
X107969800Y-129516400D03*
X107969800Y-126976400D03*
X107969800Y-124436400D03*
X107969800Y-121896400D03*
X107969800Y-119356400D03*
X107969800Y-116816400D03*
X107969800Y-114276400D03*
X107969800Y-111736400D03*
X107969800Y-109196400D03*
X107969800Y-106656400D03*
X107969800Y-104116400D03*
X107969800Y-101576400D03*
X107969800Y-99036400D03*
X107969800Y-96496400D03*
X107969800Y-93956400D03*
X107969800Y-91416400D03*
X107969800Y-88876400D03*
X107969800Y-86336400D03*
X107969800Y-83796400D03*
X107969800Y-81256400D03*
X102889800Y-134596400D03*
X102889800Y-132056400D03*
X102889800Y-129516400D03*
X102889800Y-126976400D03*
X102889800Y-124436400D03*
X102889800Y-121896400D03*
X102889800Y-119356400D03*
X102889800Y-116816400D03*
X102889800Y-114276400D03*
X102889800Y-111736400D03*
X102889800Y-109196400D03*
X102889800Y-106656400D03*
X102889800Y-104116400D03*
X102889800Y-101576400D03*
X102889800Y-99036400D03*
X102889800Y-96496400D03*
X102889800Y-93956400D03*
X102889800Y-91416400D03*
X102889800Y-88876400D03*
X102889800Y-86336400D03*
X102889800Y-83796400D03*
X102889800Y-81256400D03*
D13*
X115120000Y-121610000D03*
D14*
X115120000Y-124150000D03*
X115120000Y-126690000D03*
X115120000Y-129230000D03*
X115120000Y-131770000D03*
X115120000Y-134310000D03*
X115120000Y-136850000D03*
X115120000Y-139390000D03*
D23*
X186530000Y-135270000D03*
D18*
X186530000Y-132770000D03*
X186530000Y-130770000D03*
X186530000Y-128270000D03*
D24*
X189240000Y-138340000D03*
X189240000Y-125200000D03*
D25*
X123260000Y-93400000D03*
D26*
X123260000Y-95940000D03*
X123260000Y-98480000D03*
X123260000Y-101020000D03*
X123260000Y-103560000D03*
X123260000Y-106100000D03*
X123260000Y-108640000D03*
X123260000Y-111180000D03*
X123260000Y-113720000D03*
X123260000Y-116260000D03*
X123260000Y-118800000D03*
X123260000Y-121340000D03*
X123260000Y-123880000D03*
X123260000Y-126420000D03*
X123260000Y-128960000D03*
X123260000Y-131500000D03*
X123260000Y-134040000D03*
X123260000Y-136580000D03*
X123260000Y-139120000D03*
X123260000Y-141660000D03*
X138500000Y-141660000D03*
X138500000Y-139120000D03*
X138500000Y-136580000D03*
X138500000Y-134040000D03*
X138500000Y-131500000D03*
X138500000Y-128960000D03*
X138500000Y-126420000D03*
X138500000Y-123880000D03*
X138500000Y-121340000D03*
X138500000Y-118800000D03*
X138500000Y-116260000D03*
X138500000Y-113720000D03*
X138500000Y-111180000D03*
X138500000Y-108640000D03*
X138500000Y-106100000D03*
X138500000Y-103560000D03*
X138500000Y-101020000D03*
X138500000Y-98480000D03*
X138500000Y-95940000D03*
X138500000Y-93400000D03*
D27*
X171090035Y-136639863D03*
X171090035Y-135089863D03*
D28*
X168740035Y-127539863D03*
X168740035Y-129089863D03*
D29*
X142350000Y-61160000D03*
X140700000Y-61160000D03*
D28*
X158440035Y-127139863D03*
X158440035Y-128689863D03*
D30*
X189013412Y-110990000D03*
X189013412Y-109340000D03*
D31*
X165790035Y-136439863D03*
X167340035Y-136439863D03*
D32*
X187010000Y-117590000D03*
X187010000Y-119240000D03*
D33*
X163415035Y-126139863D03*
X161865035Y-126139863D03*
D29*
X138390000Y-61160000D03*
X136740000Y-61160000D03*
D32*
X185010000Y-116340000D03*
X185010000Y-117990000D03*
D29*
X184320000Y-90060000D03*
X182670000Y-90060000D03*
D32*
X189013412Y-118690000D03*
X189013412Y-120340000D03*
D29*
X184320000Y-87770000D03*
X182670000Y-87770000D03*
D31*
X162541035Y-144327363D03*
X164091035Y-144327363D03*
D33*
X165490035Y-128589863D03*
X163940035Y-128589863D03*
D28*
X168740035Y-130539863D03*
X168740035Y-132089863D03*
D33*
X159990035Y-137064863D03*
X158440035Y-137064863D03*
D31*
X160990035Y-139577363D03*
X162540035Y-139577363D03*
D33*
X165790035Y-137939863D03*
X164240035Y-137939863D03*
D27*
X160990035Y-133439863D03*
X160990035Y-131889863D03*
D28*
X135500000Y-140110000D03*
X135500000Y-141660000D03*
D30*
X158440035Y-135289863D03*
X158440035Y-133639863D03*
D32*
X168840035Y-136439863D03*
X168840035Y-138089863D03*
D31*
X164840035Y-126139863D03*
X166390035Y-126139863D03*
D27*
X187010000Y-115840000D03*
X187010000Y-114290000D03*
X189010000Y-115840000D03*
X189010000Y-114290000D03*
X158440035Y-132239863D03*
X158440035Y-130689863D03*
D30*
X105429800Y-133706400D03*
X105429800Y-132056400D03*
D29*
X184320000Y-85480000D03*
X182670000Y-85480000D03*
X146310000Y-61160000D03*
X144660000Y-61160000D03*
D30*
X185010000Y-112315000D03*
X185010000Y-110665000D03*
X187010000Y-110990000D03*
X187010000Y-109340000D03*
D31*
X160990035Y-135189863D03*
X162540035Y-135189863D03*
D27*
X178891035Y-127689863D03*
X178891035Y-126139863D03*
D29*
X150270000Y-61160000D03*
X148620000Y-61160000D03*
M02*
