G04 #@! TF.GenerationSoftware,KiCad,Pcbnew,9.0.7*
G04 #@! TF.CreationDate,2026-02-02T16:02:05+11:00*
G04 #@! TF.ProjectId,FlashCartProgrammer,466c6173-6843-4617-9274-50726f677261,rev?*
G04 #@! TF.SameCoordinates,Original*
G04 #@! TF.FileFunction,Legend,Top*
G04 #@! TF.FilePolarity,Positive*
%FSLAX46Y46*%
G04 Gerber Fmt 4.6, Leading zero omitted, Abs format (unit mm)*
G04 Created by KiCad (PCBNEW 9.0.7) date 2026-02-02 16:02:05*
%MOMM*%
%LPD*%
G01*
G04 APERTURE LIST*
G04 Aperture macros list*
%AMRoundRect*
0 Rectangle with rounded corners*
0 $1 Rounding radius*
0 $2 $3 $4 $5 $6 $7 $8 $9 X,Y pos of 4 corners*
0 Add a 4 corners polygon primitive as box body*
4,1,4,$2,$3,$4,$5,$6,$7,$8,$9,$2,$3,0*
0 Add four circle primitives for the rounded corners*
1,1,$1+$1,$2,$3*
1,1,$1+$1,$4,$5*
1,1,$1+$1,$6,$7*
1,1,$1+$1,$8,$9*
0 Add four rect primitives between the rounded corners*
20,1,$1+$1,$2,$3,$4,$5,0*
20,1,$1+$1,$4,$5,$6,$7,0*
20,1,$1+$1,$6,$7,$8,$9,0*
20,1,$1+$1,$8,$9,$2,$3,0*%
G04 Aperture macros list end*
%ADD10C,0.150000*%
%ADD11C,0.120000*%
%ADD12C,0.100000*%
%ADD13C,0.200000*%
%ADD14C,0.539246*%
%ADD15RoundRect,0.200000X-0.275000X0.200000X-0.275000X-0.200000X0.275000X-0.200000X0.275000X0.200000X0*%
%ADD16RoundRect,0.100000X0.637500X0.100000X-0.637500X0.100000X-0.637500X-0.100000X0.637500X-0.100000X0*%
%ADD17RoundRect,0.200000X-0.200000X-0.275000X0.200000X-0.275000X0.200000X0.275000X-0.200000X0.275000X0*%
%ADD18RoundRect,0.225000X0.375000X-0.225000X0.375000X0.225000X-0.375000X0.225000X-0.375000X-0.225000X0*%
%ADD19C,4.770000*%
%ADD20R,1.785000X1.785000*%
%ADD21C,1.785000*%
%ADD22RoundRect,0.225000X-0.225000X-0.250000X0.225000X-0.250000X0.225000X0.250000X-0.225000X0.250000X0*%
%ADD23R,1.700000X1.700000*%
%ADD24C,1.700000*%
%ADD25R,1.500000X0.800000*%
%ADD26R,1.500000X1.195000*%
%ADD27R,1.500000X1.500000*%
%ADD28R,1.400000X0.800000*%
%ADD29R,1.750000X0.800000*%
%ADD30R,1.000000X1.450000*%
%ADD31R,1.550000X1.000000*%
%ADD32RoundRect,0.250000X0.350000X-0.450000X0.350000X0.450000X-0.350000X0.450000X-0.350000X-0.450000X0*%
%ADD33RoundRect,0.225000X0.250000X-0.225000X0.250000X0.225000X-0.250000X0.225000X-0.250000X-0.225000X0*%
%ADD34R,0.950000X1.400000*%
%ADD35C,3.500000*%
%ADD36RoundRect,0.150000X0.150000X-0.512500X0.150000X0.512500X-0.150000X0.512500X-0.150000X-0.512500X0*%
%ADD37RoundRect,0.225000X0.225000X0.250000X-0.225000X0.250000X-0.225000X-0.250000X0.225000X-0.250000X0*%
%ADD38R,0.220000X0.780000*%
%ADD39R,0.780000X0.220000*%
%ADD40C,0.425000*%
%ADD41R,3.400000X3.400000*%
%ADD42RoundRect,0.250000X-0.550000X-0.550000X0.550000X-0.550000X0.550000X0.550000X-0.550000X0.550000X0*%
%ADD43C,1.600000*%
%ADD44R,2.130000X2.130000*%
%ADD45C,2.130000*%
%ADD46RoundRect,0.200000X0.200000X0.275000X-0.200000X0.275000X-0.200000X-0.275000X0.200000X-0.275000X0*%
%ADD47C,1.000000*%
%ADD48C,5.000000*%
%ADD49C,1.750000*%
%ADD50R,1.500000X1.600000*%
%ADD51C,3.000000*%
%ADD52RoundRect,0.150000X-0.650000X-0.150000X0.650000X-0.150000X0.650000X0.150000X-0.650000X0.150000X0*%
%ADD53RoundRect,0.200000X0.275000X-0.200000X0.275000X0.200000X-0.275000X0.200000X-0.275000X-0.200000X0*%
%ADD54R,2.000000X1.440000*%
%ADD55O,2.000000X1.440000*%
G04 APERTURE END LIST*
D10*
X184270588Y-145889188D02*
X184175350Y-145841569D01*
X184175350Y-145841569D02*
X184032493Y-145841569D01*
X184032493Y-145841569D02*
X183889636Y-145889188D01*
X183889636Y-145889188D02*
X183794398Y-145984426D01*
X183794398Y-145984426D02*
X183746779Y-146079664D01*
X183746779Y-146079664D02*
X183699160Y-146270140D01*
X183699160Y-146270140D02*
X183699160Y-146412997D01*
X183699160Y-146412997D02*
X183746779Y-146603473D01*
X183746779Y-146603473D02*
X183794398Y-146698711D01*
X183794398Y-146698711D02*
X183889636Y-146793950D01*
X183889636Y-146793950D02*
X184032493Y-146841569D01*
X184032493Y-146841569D02*
X184127731Y-146841569D01*
X184127731Y-146841569D02*
X184270588Y-146793950D01*
X184270588Y-146793950D02*
X184318207Y-146746330D01*
X184318207Y-146746330D02*
X184318207Y-146412997D01*
X184318207Y-146412997D02*
X184127731Y-146412997D01*
X184746779Y-146841569D02*
X184746779Y-145841569D01*
X184746779Y-145841569D02*
X185318207Y-146841569D01*
X185318207Y-146841569D02*
X185318207Y-145841569D01*
X185794398Y-146841569D02*
X185794398Y-145841569D01*
X185794398Y-145841569D02*
X186032493Y-145841569D01*
X186032493Y-145841569D02*
X186175350Y-145889188D01*
X186175350Y-145889188D02*
X186270588Y-145984426D01*
X186270588Y-145984426D02*
X186318207Y-146079664D01*
X186318207Y-146079664D02*
X186365826Y-146270140D01*
X186365826Y-146270140D02*
X186365826Y-146412997D01*
X186365826Y-146412997D02*
X186318207Y-146603473D01*
X186318207Y-146603473D02*
X186270588Y-146698711D01*
X186270588Y-146698711D02*
X186175350Y-146793950D01*
X186175350Y-146793950D02*
X186032493Y-146841569D01*
X186032493Y-146841569D02*
X185794398Y-146841569D01*
X156991354Y-134661220D02*
X156515163Y-134994553D01*
X156991354Y-135232648D02*
X155991354Y-135232648D01*
X155991354Y-135232648D02*
X155991354Y-134851696D01*
X155991354Y-134851696D02*
X156038973Y-134756458D01*
X156038973Y-134756458D02*
X156086592Y-134708839D01*
X156086592Y-134708839D02*
X156181830Y-134661220D01*
X156181830Y-134661220D02*
X156324687Y-134661220D01*
X156324687Y-134661220D02*
X156419925Y-134708839D01*
X156419925Y-134708839D02*
X156467544Y-134756458D01*
X156467544Y-134756458D02*
X156515163Y-134851696D01*
X156515163Y-134851696D02*
X156515163Y-135232648D01*
X156991354Y-133708839D02*
X156991354Y-134280267D01*
X156991354Y-133994553D02*
X155991354Y-133994553D01*
X155991354Y-133994553D02*
X156134211Y-134089791D01*
X156134211Y-134089791D02*
X156229449Y-134185029D01*
X156229449Y-134185029D02*
X156277068Y-134280267D01*
X155991354Y-132804077D02*
X155991354Y-133280267D01*
X155991354Y-133280267D02*
X156467544Y-133327886D01*
X156467544Y-133327886D02*
X156419925Y-133280267D01*
X156419925Y-133280267D02*
X156372306Y-133185029D01*
X156372306Y-133185029D02*
X156372306Y-132946934D01*
X156372306Y-132946934D02*
X156419925Y-132851696D01*
X156419925Y-132851696D02*
X156467544Y-132804077D01*
X156467544Y-132804077D02*
X156562782Y-132756458D01*
X156562782Y-132756458D02*
X156800877Y-132756458D01*
X156800877Y-132756458D02*
X156896115Y-132804077D01*
X156896115Y-132804077D02*
X156943735Y-132851696D01*
X156943735Y-132851696D02*
X156991354Y-132946934D01*
X156991354Y-132946934D02*
X156991354Y-133185029D01*
X156991354Y-133185029D02*
X156943735Y-133280267D01*
X156943735Y-133280267D02*
X156896115Y-133327886D01*
X152259880Y-141295182D02*
X152259880Y-142104705D01*
X152259880Y-142104705D02*
X152307499Y-142199943D01*
X152307499Y-142199943D02*
X152355118Y-142247563D01*
X152355118Y-142247563D02*
X152450356Y-142295182D01*
X152450356Y-142295182D02*
X152640832Y-142295182D01*
X152640832Y-142295182D02*
X152736070Y-142247563D01*
X152736070Y-142247563D02*
X152783689Y-142199943D01*
X152783689Y-142199943D02*
X152831308Y-142104705D01*
X152831308Y-142104705D02*
X152831308Y-141295182D01*
X153355118Y-142295182D02*
X153545594Y-142295182D01*
X153545594Y-142295182D02*
X153640832Y-142247563D01*
X153640832Y-142247563D02*
X153688451Y-142199943D01*
X153688451Y-142199943D02*
X153783689Y-142057086D01*
X153783689Y-142057086D02*
X153831308Y-141866610D01*
X153831308Y-141866610D02*
X153831308Y-141485658D01*
X153831308Y-141485658D02*
X153783689Y-141390420D01*
X153783689Y-141390420D02*
X153736070Y-141342801D01*
X153736070Y-141342801D02*
X153640832Y-141295182D01*
X153640832Y-141295182D02*
X153450356Y-141295182D01*
X153450356Y-141295182D02*
X153355118Y-141342801D01*
X153355118Y-141342801D02*
X153307499Y-141390420D01*
X153307499Y-141390420D02*
X153259880Y-141485658D01*
X153259880Y-141485658D02*
X153259880Y-141723753D01*
X153259880Y-141723753D02*
X153307499Y-141818991D01*
X153307499Y-141818991D02*
X153355118Y-141866610D01*
X153355118Y-141866610D02*
X153450356Y-141914229D01*
X153450356Y-141914229D02*
X153640832Y-141914229D01*
X153640832Y-141914229D02*
X153736070Y-141866610D01*
X153736070Y-141866610D02*
X153783689Y-141818991D01*
X153783689Y-141818991D02*
X153831308Y-141723753D01*
X173807688Y-131734403D02*
X173855307Y-131686784D01*
X173855307Y-131686784D02*
X173950545Y-131639165D01*
X173950545Y-131639165D02*
X174188640Y-131639165D01*
X174188640Y-131639165D02*
X174283878Y-131686784D01*
X174283878Y-131686784D02*
X174331497Y-131734403D01*
X174331497Y-131734403D02*
X174379116Y-131829641D01*
X174379116Y-131829641D02*
X174379116Y-131924879D01*
X174379116Y-131924879D02*
X174331497Y-132067736D01*
X174331497Y-132067736D02*
X173760069Y-132639165D01*
X173760069Y-132639165D02*
X174379116Y-132639165D01*
X174712450Y-131639165D02*
X175379116Y-131639165D01*
X175379116Y-131639165D02*
X174950545Y-132639165D01*
X174164819Y-139388094D02*
X173164819Y-139388094D01*
X173164819Y-139388094D02*
X173164819Y-139149999D01*
X173164819Y-139149999D02*
X173212438Y-139007142D01*
X173212438Y-139007142D02*
X173307676Y-138911904D01*
X173307676Y-138911904D02*
X173402914Y-138864285D01*
X173402914Y-138864285D02*
X173593390Y-138816666D01*
X173593390Y-138816666D02*
X173736247Y-138816666D01*
X173736247Y-138816666D02*
X173926723Y-138864285D01*
X173926723Y-138864285D02*
X174021961Y-138911904D01*
X174021961Y-138911904D02*
X174117200Y-139007142D01*
X174117200Y-139007142D02*
X174164819Y-139149999D01*
X174164819Y-139149999D02*
X174164819Y-139388094D01*
X174164819Y-137864285D02*
X174164819Y-138435713D01*
X174164819Y-138149999D02*
X173164819Y-138149999D01*
X173164819Y-138149999D02*
X173307676Y-138245237D01*
X173307676Y-138245237D02*
X173402914Y-138340475D01*
X173402914Y-138340475D02*
X173450533Y-138435713D01*
X145707142Y-110159580D02*
X145659523Y-110207200D01*
X145659523Y-110207200D02*
X145516666Y-110254819D01*
X145516666Y-110254819D02*
X145421428Y-110254819D01*
X145421428Y-110254819D02*
X145278571Y-110207200D01*
X145278571Y-110207200D02*
X145183333Y-110111961D01*
X145183333Y-110111961D02*
X145135714Y-110016723D01*
X145135714Y-110016723D02*
X145088095Y-109826247D01*
X145088095Y-109826247D02*
X145088095Y-109683390D01*
X145088095Y-109683390D02*
X145135714Y-109492914D01*
X145135714Y-109492914D02*
X145183333Y-109397676D01*
X145183333Y-109397676D02*
X145278571Y-109302438D01*
X145278571Y-109302438D02*
X145421428Y-109254819D01*
X145421428Y-109254819D02*
X145516666Y-109254819D01*
X145516666Y-109254819D02*
X145659523Y-109302438D01*
X145659523Y-109302438D02*
X145707142Y-109350057D01*
X146088095Y-109350057D02*
X146135714Y-109302438D01*
X146135714Y-109302438D02*
X146230952Y-109254819D01*
X146230952Y-109254819D02*
X146469047Y-109254819D01*
X146469047Y-109254819D02*
X146564285Y-109302438D01*
X146564285Y-109302438D02*
X146611904Y-109350057D01*
X146611904Y-109350057D02*
X146659523Y-109445295D01*
X146659523Y-109445295D02*
X146659523Y-109540533D01*
X146659523Y-109540533D02*
X146611904Y-109683390D01*
X146611904Y-109683390D02*
X146040476Y-110254819D01*
X146040476Y-110254819D02*
X146659523Y-110254819D01*
X147564285Y-109254819D02*
X147088095Y-109254819D01*
X147088095Y-109254819D02*
X147040476Y-109731009D01*
X147040476Y-109731009D02*
X147088095Y-109683390D01*
X147088095Y-109683390D02*
X147183333Y-109635771D01*
X147183333Y-109635771D02*
X147421428Y-109635771D01*
X147421428Y-109635771D02*
X147516666Y-109683390D01*
X147516666Y-109683390D02*
X147564285Y-109731009D01*
X147564285Y-109731009D02*
X147611904Y-109826247D01*
X147611904Y-109826247D02*
X147611904Y-110064342D01*
X147611904Y-110064342D02*
X147564285Y-110159580D01*
X147564285Y-110159580D02*
X147516666Y-110207200D01*
X147516666Y-110207200D02*
X147421428Y-110254819D01*
X147421428Y-110254819D02*
X147183333Y-110254819D01*
X147183333Y-110254819D02*
X147088095Y-110207200D01*
X147088095Y-110207200D02*
X147040476Y-110159580D01*
X129023809Y-77354819D02*
X129690475Y-77354819D01*
X129690475Y-77354819D02*
X129023809Y-78354819D01*
X129023809Y-78354819D02*
X129690475Y-78354819D01*
X130071428Y-78354819D02*
X130071428Y-77354819D01*
X130880951Y-77831009D02*
X130547618Y-77831009D01*
X130547618Y-78354819D02*
X130547618Y-77354819D01*
X130547618Y-77354819D02*
X131023808Y-77354819D01*
X132166666Y-78354819D02*
X132166666Y-77354819D01*
X132166666Y-77831009D02*
X132738094Y-77831009D01*
X132738094Y-78354819D02*
X132738094Y-77354819D01*
X133595237Y-78307200D02*
X133499999Y-78354819D01*
X133499999Y-78354819D02*
X133309523Y-78354819D01*
X133309523Y-78354819D02*
X133214285Y-78307200D01*
X133214285Y-78307200D02*
X133166666Y-78211961D01*
X133166666Y-78211961D02*
X133166666Y-77831009D01*
X133166666Y-77831009D02*
X133214285Y-77735771D01*
X133214285Y-77735771D02*
X133309523Y-77688152D01*
X133309523Y-77688152D02*
X133499999Y-77688152D01*
X133499999Y-77688152D02*
X133595237Y-77735771D01*
X133595237Y-77735771D02*
X133642856Y-77831009D01*
X133642856Y-77831009D02*
X133642856Y-77926247D01*
X133642856Y-77926247D02*
X133166666Y-78021485D01*
X134499999Y-78354819D02*
X134499999Y-77831009D01*
X134499999Y-77831009D02*
X134452380Y-77735771D01*
X134452380Y-77735771D02*
X134357142Y-77688152D01*
X134357142Y-77688152D02*
X134166666Y-77688152D01*
X134166666Y-77688152D02*
X134071428Y-77735771D01*
X134499999Y-78307200D02*
X134404761Y-78354819D01*
X134404761Y-78354819D02*
X134166666Y-78354819D01*
X134166666Y-78354819D02*
X134071428Y-78307200D01*
X134071428Y-78307200D02*
X134023809Y-78211961D01*
X134023809Y-78211961D02*
X134023809Y-78116723D01*
X134023809Y-78116723D02*
X134071428Y-78021485D01*
X134071428Y-78021485D02*
X134166666Y-77973866D01*
X134166666Y-77973866D02*
X134404761Y-77973866D01*
X134404761Y-77973866D02*
X134499999Y-77926247D01*
X135404761Y-78354819D02*
X135404761Y-77354819D01*
X135404761Y-78307200D02*
X135309523Y-78354819D01*
X135309523Y-78354819D02*
X135119047Y-78354819D01*
X135119047Y-78354819D02*
X135023809Y-78307200D01*
X135023809Y-78307200D02*
X134976190Y-78259580D01*
X134976190Y-78259580D02*
X134928571Y-78164342D01*
X134928571Y-78164342D02*
X134928571Y-77878628D01*
X134928571Y-77878628D02*
X134976190Y-77783390D01*
X134976190Y-77783390D02*
X135023809Y-77735771D01*
X135023809Y-77735771D02*
X135119047Y-77688152D01*
X135119047Y-77688152D02*
X135309523Y-77688152D01*
X135309523Y-77688152D02*
X135404761Y-77735771D01*
X136261904Y-78307200D02*
X136166666Y-78354819D01*
X136166666Y-78354819D02*
X135976190Y-78354819D01*
X135976190Y-78354819D02*
X135880952Y-78307200D01*
X135880952Y-78307200D02*
X135833333Y-78211961D01*
X135833333Y-78211961D02*
X135833333Y-77831009D01*
X135833333Y-77831009D02*
X135880952Y-77735771D01*
X135880952Y-77735771D02*
X135976190Y-77688152D01*
X135976190Y-77688152D02*
X136166666Y-77688152D01*
X136166666Y-77688152D02*
X136261904Y-77735771D01*
X136261904Y-77735771D02*
X136309523Y-77831009D01*
X136309523Y-77831009D02*
X136309523Y-77926247D01*
X136309523Y-77926247D02*
X135833333Y-78021485D01*
X136738095Y-78354819D02*
X136738095Y-77688152D01*
X136738095Y-77878628D02*
X136785714Y-77783390D01*
X136785714Y-77783390D02*
X136833333Y-77735771D01*
X136833333Y-77735771D02*
X136928571Y-77688152D01*
X136928571Y-77688152D02*
X137023809Y-77688152D01*
X154562857Y-144592200D02*
X154705714Y-144639819D01*
X154705714Y-144639819D02*
X154943809Y-144639819D01*
X154943809Y-144639819D02*
X155039047Y-144592200D01*
X155039047Y-144592200D02*
X155086666Y-144544580D01*
X155086666Y-144544580D02*
X155134285Y-144449342D01*
X155134285Y-144449342D02*
X155134285Y-144354104D01*
X155134285Y-144354104D02*
X155086666Y-144258866D01*
X155086666Y-144258866D02*
X155039047Y-144211247D01*
X155039047Y-144211247D02*
X154943809Y-144163628D01*
X154943809Y-144163628D02*
X154753333Y-144116009D01*
X154753333Y-144116009D02*
X154658095Y-144068390D01*
X154658095Y-144068390D02*
X154610476Y-144020771D01*
X154610476Y-144020771D02*
X154562857Y-143925533D01*
X154562857Y-143925533D02*
X154562857Y-143830295D01*
X154562857Y-143830295D02*
X154610476Y-143735057D01*
X154610476Y-143735057D02*
X154658095Y-143687438D01*
X154658095Y-143687438D02*
X154753333Y-143639819D01*
X154753333Y-143639819D02*
X154991428Y-143639819D01*
X154991428Y-143639819D02*
X155134285Y-143687438D01*
X155467619Y-143639819D02*
X155705714Y-144639819D01*
X155705714Y-144639819D02*
X155896190Y-143925533D01*
X155896190Y-143925533D02*
X156086666Y-144639819D01*
X156086666Y-144639819D02*
X156324762Y-143639819D01*
X156705714Y-144639819D02*
X156705714Y-143639819D01*
X156705714Y-143639819D02*
X156943809Y-143639819D01*
X156943809Y-143639819D02*
X157086666Y-143687438D01*
X157086666Y-143687438D02*
X157181904Y-143782676D01*
X157181904Y-143782676D02*
X157229523Y-143877914D01*
X157229523Y-143877914D02*
X157277142Y-144068390D01*
X157277142Y-144068390D02*
X157277142Y-144211247D01*
X157277142Y-144211247D02*
X157229523Y-144401723D01*
X157229523Y-144401723D02*
X157181904Y-144496961D01*
X157181904Y-144496961D02*
X157086666Y-144592200D01*
X157086666Y-144592200D02*
X156943809Y-144639819D01*
X156943809Y-144639819D02*
X156705714Y-144639819D01*
X153488095Y-106054819D02*
X153488095Y-106864342D01*
X153488095Y-106864342D02*
X153535714Y-106959580D01*
X153535714Y-106959580D02*
X153583333Y-107007200D01*
X153583333Y-107007200D02*
X153678571Y-107054819D01*
X153678571Y-107054819D02*
X153869047Y-107054819D01*
X153869047Y-107054819D02*
X153964285Y-107007200D01*
X153964285Y-107007200D02*
X154011904Y-106959580D01*
X154011904Y-106959580D02*
X154059523Y-106864342D01*
X154059523Y-106864342D02*
X154059523Y-106054819D01*
X154964285Y-106054819D02*
X154773809Y-106054819D01*
X154773809Y-106054819D02*
X154678571Y-106102438D01*
X154678571Y-106102438D02*
X154630952Y-106150057D01*
X154630952Y-106150057D02*
X154535714Y-106292914D01*
X154535714Y-106292914D02*
X154488095Y-106483390D01*
X154488095Y-106483390D02*
X154488095Y-106864342D01*
X154488095Y-106864342D02*
X154535714Y-106959580D01*
X154535714Y-106959580D02*
X154583333Y-107007200D01*
X154583333Y-107007200D02*
X154678571Y-107054819D01*
X154678571Y-107054819D02*
X154869047Y-107054819D01*
X154869047Y-107054819D02*
X154964285Y-107007200D01*
X154964285Y-107007200D02*
X155011904Y-106959580D01*
X155011904Y-106959580D02*
X155059523Y-106864342D01*
X155059523Y-106864342D02*
X155059523Y-106626247D01*
X155059523Y-106626247D02*
X155011904Y-106531009D01*
X155011904Y-106531009D02*
X154964285Y-106483390D01*
X154964285Y-106483390D02*
X154869047Y-106435771D01*
X154869047Y-106435771D02*
X154678571Y-106435771D01*
X154678571Y-106435771D02*
X154583333Y-106483390D01*
X154583333Y-106483390D02*
X154535714Y-106531009D01*
X154535714Y-106531009D02*
X154488095Y-106626247D01*
X168028095Y-113944819D02*
X168028095Y-114754342D01*
X168028095Y-114754342D02*
X168075714Y-114849580D01*
X168075714Y-114849580D02*
X168123333Y-114897200D01*
X168123333Y-114897200D02*
X168218571Y-114944819D01*
X168218571Y-114944819D02*
X168409047Y-114944819D01*
X168409047Y-114944819D02*
X168504285Y-114897200D01*
X168504285Y-114897200D02*
X168551904Y-114849580D01*
X168551904Y-114849580D02*
X168599523Y-114754342D01*
X168599523Y-114754342D02*
X168599523Y-113944819D01*
X168980476Y-113944819D02*
X169647142Y-113944819D01*
X169647142Y-113944819D02*
X169218571Y-114944819D01*
X151191354Y-132030339D02*
X151191354Y-132601767D01*
X151191354Y-132316053D02*
X150191354Y-132316053D01*
X150191354Y-132316053D02*
X150334211Y-132411291D01*
X150334211Y-132411291D02*
X150429449Y-132506529D01*
X150429449Y-132506529D02*
X150477068Y-132601767D01*
X150286592Y-131649386D02*
X150238973Y-131601767D01*
X150238973Y-131601767D02*
X150191354Y-131506529D01*
X150191354Y-131506529D02*
X150191354Y-131268434D01*
X150191354Y-131268434D02*
X150238973Y-131173196D01*
X150238973Y-131173196D02*
X150286592Y-131125577D01*
X150286592Y-131125577D02*
X150381830Y-131077958D01*
X150381830Y-131077958D02*
X150477068Y-131077958D01*
X150477068Y-131077958D02*
X150619925Y-131125577D01*
X150619925Y-131125577D02*
X151191354Y-131697005D01*
X151191354Y-131697005D02*
X151191354Y-131077958D01*
X151191354Y-130649386D02*
X150191354Y-130649386D01*
X150191354Y-130649386D02*
X150905639Y-130316053D01*
X150905639Y-130316053D02*
X150191354Y-129982720D01*
X150191354Y-129982720D02*
X151191354Y-129982720D01*
X151191354Y-129506529D02*
X150191354Y-129506529D01*
X150667544Y-129506529D02*
X150667544Y-128935101D01*
X151191354Y-128935101D02*
X150191354Y-128935101D01*
X150524687Y-128554148D02*
X150524687Y-128030339D01*
X150524687Y-128030339D02*
X151191354Y-128554148D01*
X151191354Y-128554148D02*
X151191354Y-128030339D01*
X166048152Y-146831904D02*
X166714819Y-146831904D01*
X165667200Y-147069999D02*
X166381485Y-147308094D01*
X166381485Y-147308094D02*
X166381485Y-146689047D01*
X166619580Y-146308094D02*
X166667200Y-146260475D01*
X166667200Y-146260475D02*
X166714819Y-146308094D01*
X166714819Y-146308094D02*
X166667200Y-146355713D01*
X166667200Y-146355713D02*
X166619580Y-146308094D01*
X166619580Y-146308094D02*
X166714819Y-146308094D01*
X165714819Y-145927142D02*
X165714819Y-145260476D01*
X165714819Y-145260476D02*
X166714819Y-145689047D01*
X166048152Y-144450952D02*
X166714819Y-144450952D01*
X166048152Y-144879523D02*
X166571961Y-144879523D01*
X166571961Y-144879523D02*
X166667200Y-144831904D01*
X166667200Y-144831904D02*
X166714819Y-144736666D01*
X166714819Y-144736666D02*
X166714819Y-144593809D01*
X166714819Y-144593809D02*
X166667200Y-144498571D01*
X166667200Y-144498571D02*
X166619580Y-144450952D01*
X166048152Y-144117618D02*
X166048152Y-143736666D01*
X166714819Y-143974761D02*
X165857676Y-143974761D01*
X165857676Y-143974761D02*
X165762438Y-143927142D01*
X165762438Y-143927142D02*
X165714819Y-143831904D01*
X165714819Y-143831904D02*
X165714819Y-143736666D01*
X105940476Y-144204819D02*
X105940476Y-143204819D01*
X105940476Y-143204819D02*
X106321428Y-143204819D01*
X106321428Y-143204819D02*
X106416666Y-143252438D01*
X106416666Y-143252438D02*
X106464285Y-143300057D01*
X106464285Y-143300057D02*
X106511904Y-143395295D01*
X106511904Y-143395295D02*
X106511904Y-143538152D01*
X106511904Y-143538152D02*
X106464285Y-143633390D01*
X106464285Y-143633390D02*
X106416666Y-143681009D01*
X106416666Y-143681009D02*
X106321428Y-143728628D01*
X106321428Y-143728628D02*
X105940476Y-143728628D01*
X107130952Y-143204819D02*
X107321428Y-143204819D01*
X107321428Y-143204819D02*
X107416666Y-143252438D01*
X107416666Y-143252438D02*
X107511904Y-143347676D01*
X107511904Y-143347676D02*
X107559523Y-143538152D01*
X107559523Y-143538152D02*
X107559523Y-143871485D01*
X107559523Y-143871485D02*
X107511904Y-144061961D01*
X107511904Y-144061961D02*
X107416666Y-144157200D01*
X107416666Y-144157200D02*
X107321428Y-144204819D01*
X107321428Y-144204819D02*
X107130952Y-144204819D01*
X107130952Y-144204819D02*
X107035714Y-144157200D01*
X107035714Y-144157200D02*
X106940476Y-144061961D01*
X106940476Y-144061961D02*
X106892857Y-143871485D01*
X106892857Y-143871485D02*
X106892857Y-143538152D01*
X106892857Y-143538152D02*
X106940476Y-143347676D01*
X106940476Y-143347676D02*
X107035714Y-143252438D01*
X107035714Y-143252438D02*
X107130952Y-143204819D01*
X107892857Y-143204819D02*
X108130952Y-144204819D01*
X108130952Y-144204819D02*
X108321428Y-143490533D01*
X108321428Y-143490533D02*
X108511904Y-144204819D01*
X108511904Y-144204819D02*
X108750000Y-143204819D01*
X109130952Y-143681009D02*
X109464285Y-143681009D01*
X109607142Y-144204819D02*
X109130952Y-144204819D01*
X109130952Y-144204819D02*
X109130952Y-143204819D01*
X109130952Y-143204819D02*
X109607142Y-143204819D01*
X110607142Y-144204819D02*
X110273809Y-143728628D01*
X110035714Y-144204819D02*
X110035714Y-143204819D01*
X110035714Y-143204819D02*
X110416666Y-143204819D01*
X110416666Y-143204819D02*
X110511904Y-143252438D01*
X110511904Y-143252438D02*
X110559523Y-143300057D01*
X110559523Y-143300057D02*
X110607142Y-143395295D01*
X110607142Y-143395295D02*
X110607142Y-143538152D01*
X110607142Y-143538152D02*
X110559523Y-143633390D01*
X110559523Y-143633390D02*
X110511904Y-143681009D01*
X110511904Y-143681009D02*
X110416666Y-143728628D01*
X110416666Y-143728628D02*
X110035714Y-143728628D01*
X174591009Y-97006428D02*
X174638628Y-96863571D01*
X174638628Y-96863571D02*
X174686247Y-96815952D01*
X174686247Y-96815952D02*
X174781485Y-96768333D01*
X174781485Y-96768333D02*
X174924342Y-96768333D01*
X174924342Y-96768333D02*
X175019580Y-96815952D01*
X175019580Y-96815952D02*
X175067200Y-96863571D01*
X175067200Y-96863571D02*
X175114819Y-96958809D01*
X175114819Y-96958809D02*
X175114819Y-97339761D01*
X175114819Y-97339761D02*
X174114819Y-97339761D01*
X174114819Y-97339761D02*
X174114819Y-97006428D01*
X174114819Y-97006428D02*
X174162438Y-96911190D01*
X174162438Y-96911190D02*
X174210057Y-96863571D01*
X174210057Y-96863571D02*
X174305295Y-96815952D01*
X174305295Y-96815952D02*
X174400533Y-96815952D01*
X174400533Y-96815952D02*
X174495771Y-96863571D01*
X174495771Y-96863571D02*
X174543390Y-96911190D01*
X174543390Y-96911190D02*
X174591009Y-97006428D01*
X174591009Y-97006428D02*
X174591009Y-97339761D01*
X174114819Y-96149285D02*
X174114819Y-95958809D01*
X174114819Y-95958809D02*
X174162438Y-95863571D01*
X174162438Y-95863571D02*
X174257676Y-95768333D01*
X174257676Y-95768333D02*
X174448152Y-95720714D01*
X174448152Y-95720714D02*
X174781485Y-95720714D01*
X174781485Y-95720714D02*
X174971961Y-95768333D01*
X174971961Y-95768333D02*
X175067200Y-95863571D01*
X175067200Y-95863571D02*
X175114819Y-95958809D01*
X175114819Y-95958809D02*
X175114819Y-96149285D01*
X175114819Y-96149285D02*
X175067200Y-96244523D01*
X175067200Y-96244523D02*
X174971961Y-96339761D01*
X174971961Y-96339761D02*
X174781485Y-96387380D01*
X174781485Y-96387380D02*
X174448152Y-96387380D01*
X174448152Y-96387380D02*
X174257676Y-96339761D01*
X174257676Y-96339761D02*
X174162438Y-96244523D01*
X174162438Y-96244523D02*
X174114819Y-96149285D01*
X174114819Y-95101666D02*
X174114819Y-94911190D01*
X174114819Y-94911190D02*
X174162438Y-94815952D01*
X174162438Y-94815952D02*
X174257676Y-94720714D01*
X174257676Y-94720714D02*
X174448152Y-94673095D01*
X174448152Y-94673095D02*
X174781485Y-94673095D01*
X174781485Y-94673095D02*
X174971961Y-94720714D01*
X174971961Y-94720714D02*
X175067200Y-94815952D01*
X175067200Y-94815952D02*
X175114819Y-94911190D01*
X175114819Y-94911190D02*
X175114819Y-95101666D01*
X175114819Y-95101666D02*
X175067200Y-95196904D01*
X175067200Y-95196904D02*
X174971961Y-95292142D01*
X174971961Y-95292142D02*
X174781485Y-95339761D01*
X174781485Y-95339761D02*
X174448152Y-95339761D01*
X174448152Y-95339761D02*
X174257676Y-95292142D01*
X174257676Y-95292142D02*
X174162438Y-95196904D01*
X174162438Y-95196904D02*
X174114819Y-95101666D01*
X174114819Y-94387380D02*
X174114819Y-93815952D01*
X175114819Y-94101666D02*
X174114819Y-94101666D01*
X175067200Y-92768332D02*
X175114819Y-92625475D01*
X175114819Y-92625475D02*
X175114819Y-92387380D01*
X175114819Y-92387380D02*
X175067200Y-92292142D01*
X175067200Y-92292142D02*
X175019580Y-92244523D01*
X175019580Y-92244523D02*
X174924342Y-92196904D01*
X174924342Y-92196904D02*
X174829104Y-92196904D01*
X174829104Y-92196904D02*
X174733866Y-92244523D01*
X174733866Y-92244523D02*
X174686247Y-92292142D01*
X174686247Y-92292142D02*
X174638628Y-92387380D01*
X174638628Y-92387380D02*
X174591009Y-92577856D01*
X174591009Y-92577856D02*
X174543390Y-92673094D01*
X174543390Y-92673094D02*
X174495771Y-92720713D01*
X174495771Y-92720713D02*
X174400533Y-92768332D01*
X174400533Y-92768332D02*
X174305295Y-92768332D01*
X174305295Y-92768332D02*
X174210057Y-92720713D01*
X174210057Y-92720713D02*
X174162438Y-92673094D01*
X174162438Y-92673094D02*
X174114819Y-92577856D01*
X174114819Y-92577856D02*
X174114819Y-92339761D01*
X174114819Y-92339761D02*
X174162438Y-92196904D01*
X174591009Y-91768332D02*
X174591009Y-91434999D01*
X175114819Y-91292142D02*
X175114819Y-91768332D01*
X175114819Y-91768332D02*
X174114819Y-91768332D01*
X174114819Y-91768332D02*
X174114819Y-91292142D01*
X175114819Y-90387380D02*
X175114819Y-90863570D01*
X175114819Y-90863570D02*
X174114819Y-90863570D01*
X168797319Y-142892041D02*
X169606842Y-142892041D01*
X169606842Y-142892041D02*
X169702080Y-142844422D01*
X169702080Y-142844422D02*
X169749700Y-142796803D01*
X169749700Y-142796803D02*
X169797319Y-142701565D01*
X169797319Y-142701565D02*
X169797319Y-142511089D01*
X169797319Y-142511089D02*
X169749700Y-142415851D01*
X169749700Y-142415851D02*
X169702080Y-142368232D01*
X169702080Y-142368232D02*
X169606842Y-142320613D01*
X169606842Y-142320613D02*
X168797319Y-142320613D01*
X168892557Y-141892041D02*
X168844938Y-141844422D01*
X168844938Y-141844422D02*
X168797319Y-141749184D01*
X168797319Y-141749184D02*
X168797319Y-141511089D01*
X168797319Y-141511089D02*
X168844938Y-141415851D01*
X168844938Y-141415851D02*
X168892557Y-141368232D01*
X168892557Y-141368232D02*
X168987795Y-141320613D01*
X168987795Y-141320613D02*
X169083033Y-141320613D01*
X169083033Y-141320613D02*
X169225890Y-141368232D01*
X169225890Y-141368232D02*
X169797319Y-141939660D01*
X169797319Y-141939660D02*
X169797319Y-141320613D01*
X169699524Y-138864819D02*
X170318571Y-138864819D01*
X170318571Y-138864819D02*
X169985238Y-139245771D01*
X169985238Y-139245771D02*
X170128095Y-139245771D01*
X170128095Y-139245771D02*
X170223333Y-139293390D01*
X170223333Y-139293390D02*
X170270952Y-139341009D01*
X170270952Y-139341009D02*
X170318571Y-139436247D01*
X170318571Y-139436247D02*
X170318571Y-139674342D01*
X170318571Y-139674342D02*
X170270952Y-139769580D01*
X170270952Y-139769580D02*
X170223333Y-139817200D01*
X170223333Y-139817200D02*
X170128095Y-139864819D01*
X170128095Y-139864819D02*
X169842381Y-139864819D01*
X169842381Y-139864819D02*
X169747143Y-139817200D01*
X169747143Y-139817200D02*
X169699524Y-139769580D01*
X170651905Y-139198152D02*
X170890000Y-139864819D01*
X170890000Y-139864819D02*
X171128095Y-139198152D01*
X171413810Y-138864819D02*
X172032857Y-138864819D01*
X172032857Y-138864819D02*
X171699524Y-139245771D01*
X171699524Y-139245771D02*
X171842381Y-139245771D01*
X171842381Y-139245771D02*
X171937619Y-139293390D01*
X171937619Y-139293390D02*
X171985238Y-139341009D01*
X171985238Y-139341009D02*
X172032857Y-139436247D01*
X172032857Y-139436247D02*
X172032857Y-139674342D01*
X172032857Y-139674342D02*
X171985238Y-139769580D01*
X171985238Y-139769580D02*
X171937619Y-139817200D01*
X171937619Y-139817200D02*
X171842381Y-139864819D01*
X171842381Y-139864819D02*
X171556667Y-139864819D01*
X171556667Y-139864819D02*
X171461429Y-139817200D01*
X171461429Y-139817200D02*
X171413810Y-139769580D01*
X150607142Y-123089580D02*
X150559523Y-123137200D01*
X150559523Y-123137200D02*
X150416666Y-123184819D01*
X150416666Y-123184819D02*
X150321428Y-123184819D01*
X150321428Y-123184819D02*
X150178571Y-123137200D01*
X150178571Y-123137200D02*
X150083333Y-123041961D01*
X150083333Y-123041961D02*
X150035714Y-122946723D01*
X150035714Y-122946723D02*
X149988095Y-122756247D01*
X149988095Y-122756247D02*
X149988095Y-122613390D01*
X149988095Y-122613390D02*
X150035714Y-122422914D01*
X150035714Y-122422914D02*
X150083333Y-122327676D01*
X150083333Y-122327676D02*
X150178571Y-122232438D01*
X150178571Y-122232438D02*
X150321428Y-122184819D01*
X150321428Y-122184819D02*
X150416666Y-122184819D01*
X150416666Y-122184819D02*
X150559523Y-122232438D01*
X150559523Y-122232438D02*
X150607142Y-122280057D01*
X150988095Y-122280057D02*
X151035714Y-122232438D01*
X151035714Y-122232438D02*
X151130952Y-122184819D01*
X151130952Y-122184819D02*
X151369047Y-122184819D01*
X151369047Y-122184819D02*
X151464285Y-122232438D01*
X151464285Y-122232438D02*
X151511904Y-122280057D01*
X151511904Y-122280057D02*
X151559523Y-122375295D01*
X151559523Y-122375295D02*
X151559523Y-122470533D01*
X151559523Y-122470533D02*
X151511904Y-122613390D01*
X151511904Y-122613390D02*
X150940476Y-123184819D01*
X150940476Y-123184819D02*
X151559523Y-123184819D01*
X152130952Y-122613390D02*
X152035714Y-122565771D01*
X152035714Y-122565771D02*
X151988095Y-122518152D01*
X151988095Y-122518152D02*
X151940476Y-122422914D01*
X151940476Y-122422914D02*
X151940476Y-122375295D01*
X151940476Y-122375295D02*
X151988095Y-122280057D01*
X151988095Y-122280057D02*
X152035714Y-122232438D01*
X152035714Y-122232438D02*
X152130952Y-122184819D01*
X152130952Y-122184819D02*
X152321428Y-122184819D01*
X152321428Y-122184819D02*
X152416666Y-122232438D01*
X152416666Y-122232438D02*
X152464285Y-122280057D01*
X152464285Y-122280057D02*
X152511904Y-122375295D01*
X152511904Y-122375295D02*
X152511904Y-122422914D01*
X152511904Y-122422914D02*
X152464285Y-122518152D01*
X152464285Y-122518152D02*
X152416666Y-122565771D01*
X152416666Y-122565771D02*
X152321428Y-122613390D01*
X152321428Y-122613390D02*
X152130952Y-122613390D01*
X152130952Y-122613390D02*
X152035714Y-122661009D01*
X152035714Y-122661009D02*
X151988095Y-122708628D01*
X151988095Y-122708628D02*
X151940476Y-122803866D01*
X151940476Y-122803866D02*
X151940476Y-122994342D01*
X151940476Y-122994342D02*
X151988095Y-123089580D01*
X151988095Y-123089580D02*
X152035714Y-123137200D01*
X152035714Y-123137200D02*
X152130952Y-123184819D01*
X152130952Y-123184819D02*
X152321428Y-123184819D01*
X152321428Y-123184819D02*
X152416666Y-123137200D01*
X152416666Y-123137200D02*
X152464285Y-123089580D01*
X152464285Y-123089580D02*
X152511904Y-122994342D01*
X152511904Y-122994342D02*
X152511904Y-122803866D01*
X152511904Y-122803866D02*
X152464285Y-122708628D01*
X152464285Y-122708628D02*
X152416666Y-122661009D01*
X152416666Y-122661009D02*
X152321428Y-122613390D01*
X161763095Y-90929819D02*
X161763095Y-91739342D01*
X161763095Y-91739342D02*
X161810714Y-91834580D01*
X161810714Y-91834580D02*
X161858333Y-91882200D01*
X161858333Y-91882200D02*
X161953571Y-91929819D01*
X161953571Y-91929819D02*
X162144047Y-91929819D01*
X162144047Y-91929819D02*
X162239285Y-91882200D01*
X162239285Y-91882200D02*
X162286904Y-91834580D01*
X162286904Y-91834580D02*
X162334523Y-91739342D01*
X162334523Y-91739342D02*
X162334523Y-90929819D01*
X163286904Y-90929819D02*
X162810714Y-90929819D01*
X162810714Y-90929819D02*
X162763095Y-91406009D01*
X162763095Y-91406009D02*
X162810714Y-91358390D01*
X162810714Y-91358390D02*
X162905952Y-91310771D01*
X162905952Y-91310771D02*
X163144047Y-91310771D01*
X163144047Y-91310771D02*
X163239285Y-91358390D01*
X163239285Y-91358390D02*
X163286904Y-91406009D01*
X163286904Y-91406009D02*
X163334523Y-91501247D01*
X163334523Y-91501247D02*
X163334523Y-91739342D01*
X163334523Y-91739342D02*
X163286904Y-91834580D01*
X163286904Y-91834580D02*
X163239285Y-91882200D01*
X163239285Y-91882200D02*
X163144047Y-91929819D01*
X163144047Y-91929819D02*
X162905952Y-91929819D01*
X162905952Y-91929819D02*
X162810714Y-91882200D01*
X162810714Y-91882200D02*
X162763095Y-91834580D01*
X145107142Y-145484580D02*
X145059523Y-145532200D01*
X145059523Y-145532200D02*
X144916666Y-145579819D01*
X144916666Y-145579819D02*
X144821428Y-145579819D01*
X144821428Y-145579819D02*
X144678571Y-145532200D01*
X144678571Y-145532200D02*
X144583333Y-145436961D01*
X144583333Y-145436961D02*
X144535714Y-145341723D01*
X144535714Y-145341723D02*
X144488095Y-145151247D01*
X144488095Y-145151247D02*
X144488095Y-145008390D01*
X144488095Y-145008390D02*
X144535714Y-144817914D01*
X144535714Y-144817914D02*
X144583333Y-144722676D01*
X144583333Y-144722676D02*
X144678571Y-144627438D01*
X144678571Y-144627438D02*
X144821428Y-144579819D01*
X144821428Y-144579819D02*
X144916666Y-144579819D01*
X144916666Y-144579819D02*
X145059523Y-144627438D01*
X145059523Y-144627438D02*
X145107142Y-144675057D01*
X145440476Y-144579819D02*
X146059523Y-144579819D01*
X146059523Y-144579819D02*
X145726190Y-144960771D01*
X145726190Y-144960771D02*
X145869047Y-144960771D01*
X145869047Y-144960771D02*
X145964285Y-145008390D01*
X145964285Y-145008390D02*
X146011904Y-145056009D01*
X146011904Y-145056009D02*
X146059523Y-145151247D01*
X146059523Y-145151247D02*
X146059523Y-145389342D01*
X146059523Y-145389342D02*
X146011904Y-145484580D01*
X146011904Y-145484580D02*
X145964285Y-145532200D01*
X145964285Y-145532200D02*
X145869047Y-145579819D01*
X145869047Y-145579819D02*
X145583333Y-145579819D01*
X145583333Y-145579819D02*
X145488095Y-145532200D01*
X145488095Y-145532200D02*
X145440476Y-145484580D01*
X147011904Y-145579819D02*
X146440476Y-145579819D01*
X146726190Y-145579819D02*
X146726190Y-144579819D01*
X146726190Y-144579819D02*
X146630952Y-144722676D01*
X146630952Y-144722676D02*
X146535714Y-144817914D01*
X146535714Y-144817914D02*
X146440476Y-144865533D01*
X183746779Y-143903866D02*
X184508684Y-143903866D01*
X184127731Y-144284819D02*
X184127731Y-143522914D01*
X185461064Y-143284819D02*
X184984874Y-143284819D01*
X184984874Y-143284819D02*
X184937255Y-143761009D01*
X184937255Y-143761009D02*
X184984874Y-143713390D01*
X184984874Y-143713390D02*
X185080112Y-143665771D01*
X185080112Y-143665771D02*
X185318207Y-143665771D01*
X185318207Y-143665771D02*
X185413445Y-143713390D01*
X185413445Y-143713390D02*
X185461064Y-143761009D01*
X185461064Y-143761009D02*
X185508683Y-143856247D01*
X185508683Y-143856247D02*
X185508683Y-144094342D01*
X185508683Y-144094342D02*
X185461064Y-144189580D01*
X185461064Y-144189580D02*
X185413445Y-144237200D01*
X185413445Y-144237200D02*
X185318207Y-144284819D01*
X185318207Y-144284819D02*
X185080112Y-144284819D01*
X185080112Y-144284819D02*
X184984874Y-144237200D01*
X184984874Y-144237200D02*
X184937255Y-144189580D01*
X185794398Y-143284819D02*
X186127731Y-144284819D01*
X186127731Y-144284819D02*
X186461064Y-143284819D01*
X153338095Y-118974819D02*
X153338095Y-119784342D01*
X153338095Y-119784342D02*
X153385714Y-119879580D01*
X153385714Y-119879580D02*
X153433333Y-119927200D01*
X153433333Y-119927200D02*
X153528571Y-119974819D01*
X153528571Y-119974819D02*
X153719047Y-119974819D01*
X153719047Y-119974819D02*
X153814285Y-119927200D01*
X153814285Y-119927200D02*
X153861904Y-119879580D01*
X153861904Y-119879580D02*
X153909523Y-119784342D01*
X153909523Y-119784342D02*
X153909523Y-118974819D01*
X154528571Y-119403390D02*
X154433333Y-119355771D01*
X154433333Y-119355771D02*
X154385714Y-119308152D01*
X154385714Y-119308152D02*
X154338095Y-119212914D01*
X154338095Y-119212914D02*
X154338095Y-119165295D01*
X154338095Y-119165295D02*
X154385714Y-119070057D01*
X154385714Y-119070057D02*
X154433333Y-119022438D01*
X154433333Y-119022438D02*
X154528571Y-118974819D01*
X154528571Y-118974819D02*
X154719047Y-118974819D01*
X154719047Y-118974819D02*
X154814285Y-119022438D01*
X154814285Y-119022438D02*
X154861904Y-119070057D01*
X154861904Y-119070057D02*
X154909523Y-119165295D01*
X154909523Y-119165295D02*
X154909523Y-119212914D01*
X154909523Y-119212914D02*
X154861904Y-119308152D01*
X154861904Y-119308152D02*
X154814285Y-119355771D01*
X154814285Y-119355771D02*
X154719047Y-119403390D01*
X154719047Y-119403390D02*
X154528571Y-119403390D01*
X154528571Y-119403390D02*
X154433333Y-119451009D01*
X154433333Y-119451009D02*
X154385714Y-119498628D01*
X154385714Y-119498628D02*
X154338095Y-119593866D01*
X154338095Y-119593866D02*
X154338095Y-119784342D01*
X154338095Y-119784342D02*
X154385714Y-119879580D01*
X154385714Y-119879580D02*
X154433333Y-119927200D01*
X154433333Y-119927200D02*
X154528571Y-119974819D01*
X154528571Y-119974819D02*
X154719047Y-119974819D01*
X154719047Y-119974819D02*
X154814285Y-119927200D01*
X154814285Y-119927200D02*
X154861904Y-119879580D01*
X154861904Y-119879580D02*
X154909523Y-119784342D01*
X154909523Y-119784342D02*
X154909523Y-119593866D01*
X154909523Y-119593866D02*
X154861904Y-119498628D01*
X154861904Y-119498628D02*
X154814285Y-119451009D01*
X154814285Y-119451009D02*
X154719047Y-119403390D01*
X183473333Y-141079580D02*
X183425714Y-141127200D01*
X183425714Y-141127200D02*
X183282857Y-141174819D01*
X183282857Y-141174819D02*
X183187619Y-141174819D01*
X183187619Y-141174819D02*
X183044762Y-141127200D01*
X183044762Y-141127200D02*
X182949524Y-141031961D01*
X182949524Y-141031961D02*
X182901905Y-140936723D01*
X182901905Y-140936723D02*
X182854286Y-140746247D01*
X182854286Y-140746247D02*
X182854286Y-140603390D01*
X182854286Y-140603390D02*
X182901905Y-140412914D01*
X182901905Y-140412914D02*
X182949524Y-140317676D01*
X182949524Y-140317676D02*
X183044762Y-140222438D01*
X183044762Y-140222438D02*
X183187619Y-140174819D01*
X183187619Y-140174819D02*
X183282857Y-140174819D01*
X183282857Y-140174819D02*
X183425714Y-140222438D01*
X183425714Y-140222438D02*
X183473333Y-140270057D01*
X184330476Y-140174819D02*
X184140000Y-140174819D01*
X184140000Y-140174819D02*
X184044762Y-140222438D01*
X184044762Y-140222438D02*
X183997143Y-140270057D01*
X183997143Y-140270057D02*
X183901905Y-140412914D01*
X183901905Y-140412914D02*
X183854286Y-140603390D01*
X183854286Y-140603390D02*
X183854286Y-140984342D01*
X183854286Y-140984342D02*
X183901905Y-141079580D01*
X183901905Y-141079580D02*
X183949524Y-141127200D01*
X183949524Y-141127200D02*
X184044762Y-141174819D01*
X184044762Y-141174819D02*
X184235238Y-141174819D01*
X184235238Y-141174819D02*
X184330476Y-141127200D01*
X184330476Y-141127200D02*
X184378095Y-141079580D01*
X184378095Y-141079580D02*
X184425714Y-140984342D01*
X184425714Y-140984342D02*
X184425714Y-140746247D01*
X184425714Y-140746247D02*
X184378095Y-140651009D01*
X184378095Y-140651009D02*
X184330476Y-140603390D01*
X184330476Y-140603390D02*
X184235238Y-140555771D01*
X184235238Y-140555771D02*
X184044762Y-140555771D01*
X184044762Y-140555771D02*
X183949524Y-140603390D01*
X183949524Y-140603390D02*
X183901905Y-140651009D01*
X183901905Y-140651009D02*
X183854286Y-140746247D01*
X178969999Y-134888152D02*
X178969999Y-135554819D01*
X178731904Y-134507200D02*
X178493809Y-135221485D01*
X178493809Y-135221485D02*
X179112856Y-135221485D01*
X179398571Y-134554819D02*
X180065237Y-134554819D01*
X180065237Y-134554819D02*
X179636666Y-135554819D01*
X180636666Y-134554819D02*
X180731904Y-134554819D01*
X180731904Y-134554819D02*
X180827142Y-134602438D01*
X180827142Y-134602438D02*
X180874761Y-134650057D01*
X180874761Y-134650057D02*
X180922380Y-134745295D01*
X180922380Y-134745295D02*
X180969999Y-134935771D01*
X180969999Y-134935771D02*
X180969999Y-135173866D01*
X180969999Y-135173866D02*
X180922380Y-135364342D01*
X180922380Y-135364342D02*
X180874761Y-135459580D01*
X180874761Y-135459580D02*
X180827142Y-135507200D01*
X180827142Y-135507200D02*
X180731904Y-135554819D01*
X180731904Y-135554819D02*
X180636666Y-135554819D01*
X180636666Y-135554819D02*
X180541428Y-135507200D01*
X180541428Y-135507200D02*
X180493809Y-135459580D01*
X180493809Y-135459580D02*
X180446190Y-135364342D01*
X180446190Y-135364342D02*
X180398571Y-135173866D01*
X180398571Y-135173866D02*
X180398571Y-134935771D01*
X180398571Y-134935771D02*
X180446190Y-134745295D01*
X180446190Y-134745295D02*
X180493809Y-134650057D01*
X180493809Y-134650057D02*
X180541428Y-134602438D01*
X180541428Y-134602438D02*
X180636666Y-134554819D01*
X181827142Y-134888152D02*
X181827142Y-135554819D01*
X181398571Y-134888152D02*
X181398571Y-135411961D01*
X181398571Y-135411961D02*
X181446190Y-135507200D01*
X181446190Y-135507200D02*
X181541428Y-135554819D01*
X181541428Y-135554819D02*
X181684285Y-135554819D01*
X181684285Y-135554819D02*
X181779523Y-135507200D01*
X181779523Y-135507200D02*
X181827142Y-135459580D01*
X182160476Y-134888152D02*
X182541428Y-134888152D01*
X182303333Y-135554819D02*
X182303333Y-134697676D01*
X182303333Y-134697676D02*
X182350952Y-134602438D01*
X182350952Y-134602438D02*
X182446190Y-134554819D01*
X182446190Y-134554819D02*
X182541428Y-134554819D01*
X152528201Y-125169753D02*
X152432963Y-125122134D01*
X152432963Y-125122134D02*
X152385344Y-125074515D01*
X152385344Y-125074515D02*
X152337725Y-124979277D01*
X152337725Y-124979277D02*
X152337725Y-124931658D01*
X152337725Y-124931658D02*
X152385344Y-124836420D01*
X152385344Y-124836420D02*
X152432963Y-124788801D01*
X152432963Y-124788801D02*
X152528201Y-124741182D01*
X152528201Y-124741182D02*
X152718677Y-124741182D01*
X152718677Y-124741182D02*
X152813915Y-124788801D01*
X152813915Y-124788801D02*
X152861534Y-124836420D01*
X152861534Y-124836420D02*
X152909153Y-124931658D01*
X152909153Y-124931658D02*
X152909153Y-124979277D01*
X152909153Y-124979277D02*
X152861534Y-125074515D01*
X152861534Y-125074515D02*
X152813915Y-125122134D01*
X152813915Y-125122134D02*
X152718677Y-125169753D01*
X152718677Y-125169753D02*
X152528201Y-125169753D01*
X152528201Y-125169753D02*
X152432963Y-125217372D01*
X152432963Y-125217372D02*
X152385344Y-125264991D01*
X152385344Y-125264991D02*
X152337725Y-125360229D01*
X152337725Y-125360229D02*
X152337725Y-125550705D01*
X152337725Y-125550705D02*
X152385344Y-125645943D01*
X152385344Y-125645943D02*
X152432963Y-125693563D01*
X152432963Y-125693563D02*
X152528201Y-125741182D01*
X152528201Y-125741182D02*
X152718677Y-125741182D01*
X152718677Y-125741182D02*
X152813915Y-125693563D01*
X152813915Y-125693563D02*
X152861534Y-125645943D01*
X152861534Y-125645943D02*
X152909153Y-125550705D01*
X152909153Y-125550705D02*
X152909153Y-125360229D01*
X152909153Y-125360229D02*
X152861534Y-125264991D01*
X152861534Y-125264991D02*
X152813915Y-125217372D01*
X152813915Y-125217372D02*
X152718677Y-125169753D01*
X153337725Y-125074515D02*
X153337725Y-126074515D01*
X153337725Y-125122134D02*
X153432963Y-125074515D01*
X153432963Y-125074515D02*
X153623439Y-125074515D01*
X153623439Y-125074515D02*
X153718677Y-125122134D01*
X153718677Y-125122134D02*
X153766296Y-125169753D01*
X153766296Y-125169753D02*
X153813915Y-125264991D01*
X153813915Y-125264991D02*
X153813915Y-125550705D01*
X153813915Y-125550705D02*
X153766296Y-125645943D01*
X153766296Y-125645943D02*
X153718677Y-125693563D01*
X153718677Y-125693563D02*
X153623439Y-125741182D01*
X153623439Y-125741182D02*
X153432963Y-125741182D01*
X153432963Y-125741182D02*
X153337725Y-125693563D01*
X154099630Y-125074515D02*
X154480582Y-125074515D01*
X154242487Y-125741182D02*
X154242487Y-124884039D01*
X154242487Y-124884039D02*
X154290106Y-124788801D01*
X154290106Y-124788801D02*
X154385344Y-124741182D01*
X154385344Y-124741182D02*
X154480582Y-124741182D01*
X160048095Y-142564819D02*
X160048095Y-143374342D01*
X160048095Y-143374342D02*
X160095714Y-143469580D01*
X160095714Y-143469580D02*
X160143333Y-143517200D01*
X160143333Y-143517200D02*
X160238571Y-143564819D01*
X160238571Y-143564819D02*
X160429047Y-143564819D01*
X160429047Y-143564819D02*
X160524285Y-143517200D01*
X160524285Y-143517200D02*
X160571904Y-143469580D01*
X160571904Y-143469580D02*
X160619523Y-143374342D01*
X160619523Y-143374342D02*
X160619523Y-142564819D01*
X161619523Y-143564819D02*
X161048095Y-143564819D01*
X161333809Y-143564819D02*
X161333809Y-142564819D01*
X161333809Y-142564819D02*
X161238571Y-142707676D01*
X161238571Y-142707676D02*
X161143333Y-142802914D01*
X161143333Y-142802914D02*
X161048095Y-142850533D01*
X162038571Y-140244819D02*
X161467143Y-140244819D01*
X161752857Y-140244819D02*
X161752857Y-139244819D01*
X161752857Y-139244819D02*
X161657619Y-139387676D01*
X161657619Y-139387676D02*
X161562381Y-139482914D01*
X161562381Y-139482914D02*
X161467143Y-139530533D01*
X162371905Y-139578152D02*
X162610000Y-140244819D01*
X162610000Y-140244819D02*
X162848095Y-139578152D01*
X163752857Y-140244819D02*
X163181429Y-140244819D01*
X163467143Y-140244819D02*
X163467143Y-139244819D01*
X163467143Y-139244819D02*
X163371905Y-139387676D01*
X163371905Y-139387676D02*
X163276667Y-139482914D01*
X163276667Y-139482914D02*
X163181429Y-139530533D01*
X149207142Y-145434580D02*
X149159523Y-145482200D01*
X149159523Y-145482200D02*
X149016666Y-145529819D01*
X149016666Y-145529819D02*
X148921428Y-145529819D01*
X148921428Y-145529819D02*
X148778571Y-145482200D01*
X148778571Y-145482200D02*
X148683333Y-145386961D01*
X148683333Y-145386961D02*
X148635714Y-145291723D01*
X148635714Y-145291723D02*
X148588095Y-145101247D01*
X148588095Y-145101247D02*
X148588095Y-144958390D01*
X148588095Y-144958390D02*
X148635714Y-144767914D01*
X148635714Y-144767914D02*
X148683333Y-144672676D01*
X148683333Y-144672676D02*
X148778571Y-144577438D01*
X148778571Y-144577438D02*
X148921428Y-144529819D01*
X148921428Y-144529819D02*
X149016666Y-144529819D01*
X149016666Y-144529819D02*
X149159523Y-144577438D01*
X149159523Y-144577438D02*
X149207142Y-144625057D01*
X149540476Y-144529819D02*
X150159523Y-144529819D01*
X150159523Y-144529819D02*
X149826190Y-144910771D01*
X149826190Y-144910771D02*
X149969047Y-144910771D01*
X149969047Y-144910771D02*
X150064285Y-144958390D01*
X150064285Y-144958390D02*
X150111904Y-145006009D01*
X150111904Y-145006009D02*
X150159523Y-145101247D01*
X150159523Y-145101247D02*
X150159523Y-145339342D01*
X150159523Y-145339342D02*
X150111904Y-145434580D01*
X150111904Y-145434580D02*
X150064285Y-145482200D01*
X150064285Y-145482200D02*
X149969047Y-145529819D01*
X149969047Y-145529819D02*
X149683333Y-145529819D01*
X149683333Y-145529819D02*
X149588095Y-145482200D01*
X149588095Y-145482200D02*
X149540476Y-145434580D01*
X150778571Y-144529819D02*
X150873809Y-144529819D01*
X150873809Y-144529819D02*
X150969047Y-144577438D01*
X150969047Y-144577438D02*
X151016666Y-144625057D01*
X151016666Y-144625057D02*
X151064285Y-144720295D01*
X151064285Y-144720295D02*
X151111904Y-144910771D01*
X151111904Y-144910771D02*
X151111904Y-145148866D01*
X151111904Y-145148866D02*
X151064285Y-145339342D01*
X151064285Y-145339342D02*
X151016666Y-145434580D01*
X151016666Y-145434580D02*
X150969047Y-145482200D01*
X150969047Y-145482200D02*
X150873809Y-145529819D01*
X150873809Y-145529819D02*
X150778571Y-145529819D01*
X150778571Y-145529819D02*
X150683333Y-145482200D01*
X150683333Y-145482200D02*
X150635714Y-145434580D01*
X150635714Y-145434580D02*
X150588095Y-145339342D01*
X150588095Y-145339342D02*
X150540476Y-145148866D01*
X150540476Y-145148866D02*
X150540476Y-144910771D01*
X150540476Y-144910771D02*
X150588095Y-144720295D01*
X150588095Y-144720295D02*
X150635714Y-144625057D01*
X150635714Y-144625057D02*
X150683333Y-144577438D01*
X150683333Y-144577438D02*
X150778571Y-144529819D01*
X146157142Y-135024819D02*
X145823809Y-134548628D01*
X145585714Y-135024819D02*
X145585714Y-134024819D01*
X145585714Y-134024819D02*
X145966666Y-134024819D01*
X145966666Y-134024819D02*
X146061904Y-134072438D01*
X146061904Y-134072438D02*
X146109523Y-134120057D01*
X146109523Y-134120057D02*
X146157142Y-134215295D01*
X146157142Y-134215295D02*
X146157142Y-134358152D01*
X146157142Y-134358152D02*
X146109523Y-134453390D01*
X146109523Y-134453390D02*
X146061904Y-134501009D01*
X146061904Y-134501009D02*
X145966666Y-134548628D01*
X145966666Y-134548628D02*
X145585714Y-134548628D01*
X146538095Y-134120057D02*
X146585714Y-134072438D01*
X146585714Y-134072438D02*
X146680952Y-134024819D01*
X146680952Y-134024819D02*
X146919047Y-134024819D01*
X146919047Y-134024819D02*
X147014285Y-134072438D01*
X147014285Y-134072438D02*
X147061904Y-134120057D01*
X147061904Y-134120057D02*
X147109523Y-134215295D01*
X147109523Y-134215295D02*
X147109523Y-134310533D01*
X147109523Y-134310533D02*
X147061904Y-134453390D01*
X147061904Y-134453390D02*
X146490476Y-135024819D01*
X146490476Y-135024819D02*
X147109523Y-135024819D01*
X147966666Y-134358152D02*
X147966666Y-135024819D01*
X147728571Y-133977200D02*
X147490476Y-134691485D01*
X147490476Y-134691485D02*
X148109523Y-134691485D01*
X177492142Y-119044819D02*
X177158809Y-118568628D01*
X176920714Y-119044819D02*
X176920714Y-118044819D01*
X176920714Y-118044819D02*
X177301666Y-118044819D01*
X177301666Y-118044819D02*
X177396904Y-118092438D01*
X177396904Y-118092438D02*
X177444523Y-118140057D01*
X177444523Y-118140057D02*
X177492142Y-118235295D01*
X177492142Y-118235295D02*
X177492142Y-118378152D01*
X177492142Y-118378152D02*
X177444523Y-118473390D01*
X177444523Y-118473390D02*
X177396904Y-118521009D01*
X177396904Y-118521009D02*
X177301666Y-118568628D01*
X177301666Y-118568628D02*
X176920714Y-118568628D01*
X177873095Y-118140057D02*
X177920714Y-118092438D01*
X177920714Y-118092438D02*
X178015952Y-118044819D01*
X178015952Y-118044819D02*
X178254047Y-118044819D01*
X178254047Y-118044819D02*
X178349285Y-118092438D01*
X178349285Y-118092438D02*
X178396904Y-118140057D01*
X178396904Y-118140057D02*
X178444523Y-118235295D01*
X178444523Y-118235295D02*
X178444523Y-118330533D01*
X178444523Y-118330533D02*
X178396904Y-118473390D01*
X178396904Y-118473390D02*
X177825476Y-119044819D01*
X177825476Y-119044819D02*
X178444523Y-119044819D01*
X178777857Y-118044819D02*
X179396904Y-118044819D01*
X179396904Y-118044819D02*
X179063571Y-118425771D01*
X179063571Y-118425771D02*
X179206428Y-118425771D01*
X179206428Y-118425771D02*
X179301666Y-118473390D01*
X179301666Y-118473390D02*
X179349285Y-118521009D01*
X179349285Y-118521009D02*
X179396904Y-118616247D01*
X179396904Y-118616247D02*
X179396904Y-118854342D01*
X179396904Y-118854342D02*
X179349285Y-118949580D01*
X179349285Y-118949580D02*
X179301666Y-118997200D01*
X179301666Y-118997200D02*
X179206428Y-119044819D01*
X179206428Y-119044819D02*
X178920714Y-119044819D01*
X178920714Y-119044819D02*
X178825476Y-118997200D01*
X178825476Y-118997200D02*
X178777857Y-118949580D01*
X173807688Y-133184403D02*
X173855307Y-133136784D01*
X173855307Y-133136784D02*
X173950545Y-133089165D01*
X173950545Y-133089165D02*
X174188640Y-133089165D01*
X174188640Y-133089165D02*
X174283878Y-133136784D01*
X174283878Y-133136784D02*
X174331497Y-133184403D01*
X174331497Y-133184403D02*
X174379116Y-133279641D01*
X174379116Y-133279641D02*
X174379116Y-133374879D01*
X174379116Y-133374879D02*
X174331497Y-133517736D01*
X174331497Y-133517736D02*
X173760069Y-134089165D01*
X173760069Y-134089165D02*
X174379116Y-134089165D01*
X174712450Y-133089165D02*
X175379116Y-133089165D01*
X175379116Y-133089165D02*
X174950545Y-134089165D01*
X137541428Y-68584819D02*
X137874761Y-69584819D01*
X137874761Y-69584819D02*
X138208094Y-68584819D01*
X138541428Y-69584819D02*
X138541428Y-68918152D01*
X138541428Y-68584819D02*
X138493809Y-68632438D01*
X138493809Y-68632438D02*
X138541428Y-68680057D01*
X138541428Y-68680057D02*
X138589047Y-68632438D01*
X138589047Y-68632438D02*
X138541428Y-68584819D01*
X138541428Y-68584819D02*
X138541428Y-68680057D01*
X139446189Y-69537200D02*
X139350951Y-69584819D01*
X139350951Y-69584819D02*
X139160475Y-69584819D01*
X139160475Y-69584819D02*
X139065237Y-69537200D01*
X139065237Y-69537200D02*
X139017618Y-69489580D01*
X139017618Y-69489580D02*
X138969999Y-69394342D01*
X138969999Y-69394342D02*
X138969999Y-69108628D01*
X138969999Y-69108628D02*
X139017618Y-69013390D01*
X139017618Y-69013390D02*
X139065237Y-68965771D01*
X139065237Y-68965771D02*
X139160475Y-68918152D01*
X139160475Y-68918152D02*
X139350951Y-68918152D01*
X139350951Y-68918152D02*
X139446189Y-68965771D01*
X139827142Y-68680057D02*
X139874761Y-68632438D01*
X139874761Y-68632438D02*
X139969999Y-68584819D01*
X139969999Y-68584819D02*
X140208094Y-68584819D01*
X140208094Y-68584819D02*
X140303332Y-68632438D01*
X140303332Y-68632438D02*
X140350951Y-68680057D01*
X140350951Y-68680057D02*
X140398570Y-68775295D01*
X140398570Y-68775295D02*
X140398570Y-68870533D01*
X140398570Y-68870533D02*
X140350951Y-69013390D01*
X140350951Y-69013390D02*
X139779523Y-69584819D01*
X139779523Y-69584819D02*
X140398570Y-69584819D01*
X141017618Y-68584819D02*
X141112856Y-68584819D01*
X141112856Y-68584819D02*
X141208094Y-68632438D01*
X141208094Y-68632438D02*
X141255713Y-68680057D01*
X141255713Y-68680057D02*
X141303332Y-68775295D01*
X141303332Y-68775295D02*
X141350951Y-68965771D01*
X141350951Y-68965771D02*
X141350951Y-69203866D01*
X141350951Y-69203866D02*
X141303332Y-69394342D01*
X141303332Y-69394342D02*
X141255713Y-69489580D01*
X141255713Y-69489580D02*
X141208094Y-69537200D01*
X141208094Y-69537200D02*
X141112856Y-69584819D01*
X141112856Y-69584819D02*
X141017618Y-69584819D01*
X141017618Y-69584819D02*
X140922380Y-69537200D01*
X140922380Y-69537200D02*
X140874761Y-69489580D01*
X140874761Y-69489580D02*
X140827142Y-69394342D01*
X140827142Y-69394342D02*
X140779523Y-69203866D01*
X140779523Y-69203866D02*
X140779523Y-68965771D01*
X140779523Y-68965771D02*
X140827142Y-68775295D01*
X140827142Y-68775295D02*
X140874761Y-68680057D01*
X140874761Y-68680057D02*
X140922380Y-68632438D01*
X140922380Y-68632438D02*
X141017618Y-68584819D01*
X142541428Y-69584819D02*
X142541428Y-68584819D01*
X142541428Y-69061009D02*
X143112856Y-69061009D01*
X143112856Y-69584819D02*
X143112856Y-68584819D01*
X143969999Y-69537200D02*
X143874761Y-69584819D01*
X143874761Y-69584819D02*
X143684285Y-69584819D01*
X143684285Y-69584819D02*
X143589047Y-69537200D01*
X143589047Y-69537200D02*
X143541428Y-69441961D01*
X143541428Y-69441961D02*
X143541428Y-69061009D01*
X143541428Y-69061009D02*
X143589047Y-68965771D01*
X143589047Y-68965771D02*
X143684285Y-68918152D01*
X143684285Y-68918152D02*
X143874761Y-68918152D01*
X143874761Y-68918152D02*
X143969999Y-68965771D01*
X143969999Y-68965771D02*
X144017618Y-69061009D01*
X144017618Y-69061009D02*
X144017618Y-69156247D01*
X144017618Y-69156247D02*
X143541428Y-69251485D01*
X144874761Y-69584819D02*
X144874761Y-69061009D01*
X144874761Y-69061009D02*
X144827142Y-68965771D01*
X144827142Y-68965771D02*
X144731904Y-68918152D01*
X144731904Y-68918152D02*
X144541428Y-68918152D01*
X144541428Y-68918152D02*
X144446190Y-68965771D01*
X144874761Y-69537200D02*
X144779523Y-69584819D01*
X144779523Y-69584819D02*
X144541428Y-69584819D01*
X144541428Y-69584819D02*
X144446190Y-69537200D01*
X144446190Y-69537200D02*
X144398571Y-69441961D01*
X144398571Y-69441961D02*
X144398571Y-69346723D01*
X144398571Y-69346723D02*
X144446190Y-69251485D01*
X144446190Y-69251485D02*
X144541428Y-69203866D01*
X144541428Y-69203866D02*
X144779523Y-69203866D01*
X144779523Y-69203866D02*
X144874761Y-69156247D01*
X145779523Y-69584819D02*
X145779523Y-68584819D01*
X145779523Y-69537200D02*
X145684285Y-69584819D01*
X145684285Y-69584819D02*
X145493809Y-69584819D01*
X145493809Y-69584819D02*
X145398571Y-69537200D01*
X145398571Y-69537200D02*
X145350952Y-69489580D01*
X145350952Y-69489580D02*
X145303333Y-69394342D01*
X145303333Y-69394342D02*
X145303333Y-69108628D01*
X145303333Y-69108628D02*
X145350952Y-69013390D01*
X145350952Y-69013390D02*
X145398571Y-68965771D01*
X145398571Y-68965771D02*
X145493809Y-68918152D01*
X145493809Y-68918152D02*
X145684285Y-68918152D01*
X145684285Y-68918152D02*
X145779523Y-68965771D01*
X146636666Y-69537200D02*
X146541428Y-69584819D01*
X146541428Y-69584819D02*
X146350952Y-69584819D01*
X146350952Y-69584819D02*
X146255714Y-69537200D01*
X146255714Y-69537200D02*
X146208095Y-69441961D01*
X146208095Y-69441961D02*
X146208095Y-69061009D01*
X146208095Y-69061009D02*
X146255714Y-68965771D01*
X146255714Y-68965771D02*
X146350952Y-68918152D01*
X146350952Y-68918152D02*
X146541428Y-68918152D01*
X146541428Y-68918152D02*
X146636666Y-68965771D01*
X146636666Y-68965771D02*
X146684285Y-69061009D01*
X146684285Y-69061009D02*
X146684285Y-69156247D01*
X146684285Y-69156247D02*
X146208095Y-69251485D01*
X147112857Y-69584819D02*
X147112857Y-68918152D01*
X147112857Y-69108628D02*
X147160476Y-69013390D01*
X147160476Y-69013390D02*
X147208095Y-68965771D01*
X147208095Y-68965771D02*
X147303333Y-68918152D01*
X147303333Y-68918152D02*
X147398571Y-68918152D01*
X112859580Y-134119048D02*
X112907200Y-134166667D01*
X112907200Y-134166667D02*
X112954819Y-134309524D01*
X112954819Y-134309524D02*
X112954819Y-134404762D01*
X112954819Y-134404762D02*
X112907200Y-134547619D01*
X112907200Y-134547619D02*
X112811961Y-134642857D01*
X112811961Y-134642857D02*
X112716723Y-134690476D01*
X112716723Y-134690476D02*
X112526247Y-134738095D01*
X112526247Y-134738095D02*
X112383390Y-134738095D01*
X112383390Y-134738095D02*
X112192914Y-134690476D01*
X112192914Y-134690476D02*
X112097676Y-134642857D01*
X112097676Y-134642857D02*
X112002438Y-134547619D01*
X112002438Y-134547619D02*
X111954819Y-134404762D01*
X111954819Y-134404762D02*
X111954819Y-134309524D01*
X111954819Y-134309524D02*
X112002438Y-134166667D01*
X112002438Y-134166667D02*
X112050057Y-134119048D01*
X111954819Y-133261905D02*
X111954819Y-133452381D01*
X111954819Y-133452381D02*
X112002438Y-133547619D01*
X112002438Y-133547619D02*
X112050057Y-133595238D01*
X112050057Y-133595238D02*
X112192914Y-133690476D01*
X112192914Y-133690476D02*
X112383390Y-133738095D01*
X112383390Y-133738095D02*
X112764342Y-133738095D01*
X112764342Y-133738095D02*
X112859580Y-133690476D01*
X112859580Y-133690476D02*
X112907200Y-133642857D01*
X112907200Y-133642857D02*
X112954819Y-133547619D01*
X112954819Y-133547619D02*
X112954819Y-133357143D01*
X112954819Y-133357143D02*
X112907200Y-133261905D01*
X112907200Y-133261905D02*
X112859580Y-133214286D01*
X112859580Y-133214286D02*
X112764342Y-133166667D01*
X112764342Y-133166667D02*
X112526247Y-133166667D01*
X112526247Y-133166667D02*
X112431009Y-133214286D01*
X112431009Y-133214286D02*
X112383390Y-133261905D01*
X112383390Y-133261905D02*
X112335771Y-133357143D01*
X112335771Y-133357143D02*
X112335771Y-133547619D01*
X112335771Y-133547619D02*
X112383390Y-133642857D01*
X112383390Y-133642857D02*
X112431009Y-133690476D01*
X112431009Y-133690476D02*
X112526247Y-133738095D01*
X112288152Y-132309524D02*
X112954819Y-132309524D01*
X111907200Y-132547619D02*
X112621485Y-132785714D01*
X112621485Y-132785714D02*
X112621485Y-132166667D01*
X112954819Y-131023809D02*
X111954819Y-131023809D01*
X112431009Y-131023809D02*
X112431009Y-130452381D01*
X112954819Y-130452381D02*
X111954819Y-130452381D01*
X112907200Y-129595238D02*
X112954819Y-129690476D01*
X112954819Y-129690476D02*
X112954819Y-129880952D01*
X112954819Y-129880952D02*
X112907200Y-129976190D01*
X112907200Y-129976190D02*
X112811961Y-130023809D01*
X112811961Y-130023809D02*
X112431009Y-130023809D01*
X112431009Y-130023809D02*
X112335771Y-129976190D01*
X112335771Y-129976190D02*
X112288152Y-129880952D01*
X112288152Y-129880952D02*
X112288152Y-129690476D01*
X112288152Y-129690476D02*
X112335771Y-129595238D01*
X112335771Y-129595238D02*
X112431009Y-129547619D01*
X112431009Y-129547619D02*
X112526247Y-129547619D01*
X112526247Y-129547619D02*
X112621485Y-130023809D01*
X112954819Y-128690476D02*
X112431009Y-128690476D01*
X112431009Y-128690476D02*
X112335771Y-128738095D01*
X112335771Y-128738095D02*
X112288152Y-128833333D01*
X112288152Y-128833333D02*
X112288152Y-129023809D01*
X112288152Y-129023809D02*
X112335771Y-129119047D01*
X112907200Y-128690476D02*
X112954819Y-128785714D01*
X112954819Y-128785714D02*
X112954819Y-129023809D01*
X112954819Y-129023809D02*
X112907200Y-129119047D01*
X112907200Y-129119047D02*
X112811961Y-129166666D01*
X112811961Y-129166666D02*
X112716723Y-129166666D01*
X112716723Y-129166666D02*
X112621485Y-129119047D01*
X112621485Y-129119047D02*
X112573866Y-129023809D01*
X112573866Y-129023809D02*
X112573866Y-128785714D01*
X112573866Y-128785714D02*
X112526247Y-128690476D01*
X112954819Y-127785714D02*
X111954819Y-127785714D01*
X112907200Y-127785714D02*
X112954819Y-127880952D01*
X112954819Y-127880952D02*
X112954819Y-128071428D01*
X112954819Y-128071428D02*
X112907200Y-128166666D01*
X112907200Y-128166666D02*
X112859580Y-128214285D01*
X112859580Y-128214285D02*
X112764342Y-128261904D01*
X112764342Y-128261904D02*
X112478628Y-128261904D01*
X112478628Y-128261904D02*
X112383390Y-128214285D01*
X112383390Y-128214285D02*
X112335771Y-128166666D01*
X112335771Y-128166666D02*
X112288152Y-128071428D01*
X112288152Y-128071428D02*
X112288152Y-127880952D01*
X112288152Y-127880952D02*
X112335771Y-127785714D01*
X112907200Y-126928571D02*
X112954819Y-127023809D01*
X112954819Y-127023809D02*
X112954819Y-127214285D01*
X112954819Y-127214285D02*
X112907200Y-127309523D01*
X112907200Y-127309523D02*
X112811961Y-127357142D01*
X112811961Y-127357142D02*
X112431009Y-127357142D01*
X112431009Y-127357142D02*
X112335771Y-127309523D01*
X112335771Y-127309523D02*
X112288152Y-127214285D01*
X112288152Y-127214285D02*
X112288152Y-127023809D01*
X112288152Y-127023809D02*
X112335771Y-126928571D01*
X112335771Y-126928571D02*
X112431009Y-126880952D01*
X112431009Y-126880952D02*
X112526247Y-126880952D01*
X112526247Y-126880952D02*
X112621485Y-127357142D01*
X112954819Y-126452380D02*
X112288152Y-126452380D01*
X112478628Y-126452380D02*
X112383390Y-126404761D01*
X112383390Y-126404761D02*
X112335771Y-126357142D01*
X112335771Y-126357142D02*
X112288152Y-126261904D01*
X112288152Y-126261904D02*
X112288152Y-126166666D01*
X152878201Y-134569753D02*
X152782963Y-134522134D01*
X152782963Y-134522134D02*
X152735344Y-134474515D01*
X152735344Y-134474515D02*
X152687725Y-134379277D01*
X152687725Y-134379277D02*
X152687725Y-134331658D01*
X152687725Y-134331658D02*
X152735344Y-134236420D01*
X152735344Y-134236420D02*
X152782963Y-134188801D01*
X152782963Y-134188801D02*
X152878201Y-134141182D01*
X152878201Y-134141182D02*
X153068677Y-134141182D01*
X153068677Y-134141182D02*
X153163915Y-134188801D01*
X153163915Y-134188801D02*
X153211534Y-134236420D01*
X153211534Y-134236420D02*
X153259153Y-134331658D01*
X153259153Y-134331658D02*
X153259153Y-134379277D01*
X153259153Y-134379277D02*
X153211534Y-134474515D01*
X153211534Y-134474515D02*
X153163915Y-134522134D01*
X153163915Y-134522134D02*
X153068677Y-134569753D01*
X153068677Y-134569753D02*
X152878201Y-134569753D01*
X152878201Y-134569753D02*
X152782963Y-134617372D01*
X152782963Y-134617372D02*
X152735344Y-134664991D01*
X152735344Y-134664991D02*
X152687725Y-134760229D01*
X152687725Y-134760229D02*
X152687725Y-134950705D01*
X152687725Y-134950705D02*
X152735344Y-135045943D01*
X152735344Y-135045943D02*
X152782963Y-135093563D01*
X152782963Y-135093563D02*
X152878201Y-135141182D01*
X152878201Y-135141182D02*
X153068677Y-135141182D01*
X153068677Y-135141182D02*
X153163915Y-135093563D01*
X153163915Y-135093563D02*
X153211534Y-135045943D01*
X153211534Y-135045943D02*
X153259153Y-134950705D01*
X153259153Y-134950705D02*
X153259153Y-134760229D01*
X153259153Y-134760229D02*
X153211534Y-134664991D01*
X153211534Y-134664991D02*
X153163915Y-134617372D01*
X153163915Y-134617372D02*
X153068677Y-134569753D01*
X153687725Y-134474515D02*
X153687725Y-135474515D01*
X153687725Y-134522134D02*
X153782963Y-134474515D01*
X153782963Y-134474515D02*
X153973439Y-134474515D01*
X153973439Y-134474515D02*
X154068677Y-134522134D01*
X154068677Y-134522134D02*
X154116296Y-134569753D01*
X154116296Y-134569753D02*
X154163915Y-134664991D01*
X154163915Y-134664991D02*
X154163915Y-134950705D01*
X154163915Y-134950705D02*
X154116296Y-135045943D01*
X154116296Y-135045943D02*
X154068677Y-135093563D01*
X154068677Y-135093563D02*
X153973439Y-135141182D01*
X153973439Y-135141182D02*
X153782963Y-135141182D01*
X153782963Y-135141182D02*
X153687725Y-135093563D01*
X154449630Y-134474515D02*
X154830582Y-134474515D01*
X154592487Y-135141182D02*
X154592487Y-134284039D01*
X154592487Y-134284039D02*
X154640106Y-134188801D01*
X154640106Y-134188801D02*
X154735344Y-134141182D01*
X154735344Y-134141182D02*
X154830582Y-134141182D01*
X178875952Y-98984819D02*
X178304524Y-98984819D01*
X178590238Y-98984819D02*
X178590238Y-97984819D01*
X178590238Y-97984819D02*
X178495000Y-98127676D01*
X178495000Y-98127676D02*
X178399762Y-98222914D01*
X178399762Y-98222914D02*
X178304524Y-98270533D01*
X179304524Y-98984819D02*
X179304524Y-97984819D01*
X179399762Y-98603866D02*
X179685476Y-98984819D01*
X179685476Y-98318152D02*
X179304524Y-98699104D01*
X173929130Y-123939682D02*
X173929130Y-124749205D01*
X173929130Y-124749205D02*
X173976749Y-124844443D01*
X173976749Y-124844443D02*
X174024368Y-124892063D01*
X174024368Y-124892063D02*
X174119606Y-124939682D01*
X174119606Y-124939682D02*
X174310082Y-124939682D01*
X174310082Y-124939682D02*
X174405320Y-124892063D01*
X174405320Y-124892063D02*
X174452939Y-124844443D01*
X174452939Y-124844443D02*
X174500558Y-124749205D01*
X174500558Y-124749205D02*
X174500558Y-123939682D01*
X174881511Y-123939682D02*
X175500558Y-123939682D01*
X175500558Y-123939682D02*
X175167225Y-124320634D01*
X175167225Y-124320634D02*
X175310082Y-124320634D01*
X175310082Y-124320634D02*
X175405320Y-124368253D01*
X175405320Y-124368253D02*
X175452939Y-124415872D01*
X175452939Y-124415872D02*
X175500558Y-124511110D01*
X175500558Y-124511110D02*
X175500558Y-124749205D01*
X175500558Y-124749205D02*
X175452939Y-124844443D01*
X175452939Y-124844443D02*
X175405320Y-124892063D01*
X175405320Y-124892063D02*
X175310082Y-124939682D01*
X175310082Y-124939682D02*
X175024368Y-124939682D01*
X175024368Y-124939682D02*
X174929130Y-124892063D01*
X174929130Y-124892063D02*
X174881511Y-124844443D01*
X116480952Y-148304819D02*
X115909524Y-148304819D01*
X116195238Y-148304819D02*
X116195238Y-147304819D01*
X116195238Y-147304819D02*
X116100000Y-147447676D01*
X116100000Y-147447676D02*
X116004762Y-147542914D01*
X116004762Y-147542914D02*
X115909524Y-147590533D01*
X116909524Y-148304819D02*
X116909524Y-147304819D01*
X117004762Y-147923866D02*
X117290476Y-148304819D01*
X117290476Y-147638152D02*
X116909524Y-148019104D01*
X159449580Y-114952857D02*
X159497200Y-115000476D01*
X159497200Y-115000476D02*
X159544819Y-115143333D01*
X159544819Y-115143333D02*
X159544819Y-115238571D01*
X159544819Y-115238571D02*
X159497200Y-115381428D01*
X159497200Y-115381428D02*
X159401961Y-115476666D01*
X159401961Y-115476666D02*
X159306723Y-115524285D01*
X159306723Y-115524285D02*
X159116247Y-115571904D01*
X159116247Y-115571904D02*
X158973390Y-115571904D01*
X158973390Y-115571904D02*
X158782914Y-115524285D01*
X158782914Y-115524285D02*
X158687676Y-115476666D01*
X158687676Y-115476666D02*
X158592438Y-115381428D01*
X158592438Y-115381428D02*
X158544819Y-115238571D01*
X158544819Y-115238571D02*
X158544819Y-115143333D01*
X158544819Y-115143333D02*
X158592438Y-115000476D01*
X158592438Y-115000476D02*
X158640057Y-114952857D01*
X158640057Y-114571904D02*
X158592438Y-114524285D01*
X158592438Y-114524285D02*
X158544819Y-114429047D01*
X158544819Y-114429047D02*
X158544819Y-114190952D01*
X158544819Y-114190952D02*
X158592438Y-114095714D01*
X158592438Y-114095714D02*
X158640057Y-114048095D01*
X158640057Y-114048095D02*
X158735295Y-114000476D01*
X158735295Y-114000476D02*
X158830533Y-114000476D01*
X158830533Y-114000476D02*
X158973390Y-114048095D01*
X158973390Y-114048095D02*
X159544819Y-114619523D01*
X159544819Y-114619523D02*
X159544819Y-114000476D01*
X158544819Y-113143333D02*
X158544819Y-113333809D01*
X158544819Y-113333809D02*
X158592438Y-113429047D01*
X158592438Y-113429047D02*
X158640057Y-113476666D01*
X158640057Y-113476666D02*
X158782914Y-113571904D01*
X158782914Y-113571904D02*
X158973390Y-113619523D01*
X158973390Y-113619523D02*
X159354342Y-113619523D01*
X159354342Y-113619523D02*
X159449580Y-113571904D01*
X159449580Y-113571904D02*
X159497200Y-113524285D01*
X159497200Y-113524285D02*
X159544819Y-113429047D01*
X159544819Y-113429047D02*
X159544819Y-113238571D01*
X159544819Y-113238571D02*
X159497200Y-113143333D01*
X159497200Y-113143333D02*
X159449580Y-113095714D01*
X159449580Y-113095714D02*
X159354342Y-113048095D01*
X159354342Y-113048095D02*
X159116247Y-113048095D01*
X159116247Y-113048095D02*
X159021009Y-113095714D01*
X159021009Y-113095714D02*
X158973390Y-113143333D01*
X158973390Y-113143333D02*
X158925771Y-113238571D01*
X158925771Y-113238571D02*
X158925771Y-113429047D01*
X158925771Y-113429047D02*
X158973390Y-113524285D01*
X158973390Y-113524285D02*
X159021009Y-113571904D01*
X159021009Y-113571904D02*
X159116247Y-113619523D01*
X145732142Y-123009580D02*
X145684523Y-123057200D01*
X145684523Y-123057200D02*
X145541666Y-123104819D01*
X145541666Y-123104819D02*
X145446428Y-123104819D01*
X145446428Y-123104819D02*
X145303571Y-123057200D01*
X145303571Y-123057200D02*
X145208333Y-122961961D01*
X145208333Y-122961961D02*
X145160714Y-122866723D01*
X145160714Y-122866723D02*
X145113095Y-122676247D01*
X145113095Y-122676247D02*
X145113095Y-122533390D01*
X145113095Y-122533390D02*
X145160714Y-122342914D01*
X145160714Y-122342914D02*
X145208333Y-122247676D01*
X145208333Y-122247676D02*
X145303571Y-122152438D01*
X145303571Y-122152438D02*
X145446428Y-122104819D01*
X145446428Y-122104819D02*
X145541666Y-122104819D01*
X145541666Y-122104819D02*
X145684523Y-122152438D01*
X145684523Y-122152438D02*
X145732142Y-122200057D01*
X146113095Y-122200057D02*
X146160714Y-122152438D01*
X146160714Y-122152438D02*
X146255952Y-122104819D01*
X146255952Y-122104819D02*
X146494047Y-122104819D01*
X146494047Y-122104819D02*
X146589285Y-122152438D01*
X146589285Y-122152438D02*
X146636904Y-122200057D01*
X146636904Y-122200057D02*
X146684523Y-122295295D01*
X146684523Y-122295295D02*
X146684523Y-122390533D01*
X146684523Y-122390533D02*
X146636904Y-122533390D01*
X146636904Y-122533390D02*
X146065476Y-123104819D01*
X146065476Y-123104819D02*
X146684523Y-123104819D01*
X147160714Y-123104819D02*
X147351190Y-123104819D01*
X147351190Y-123104819D02*
X147446428Y-123057200D01*
X147446428Y-123057200D02*
X147494047Y-123009580D01*
X147494047Y-123009580D02*
X147589285Y-122866723D01*
X147589285Y-122866723D02*
X147636904Y-122676247D01*
X147636904Y-122676247D02*
X147636904Y-122295295D01*
X147636904Y-122295295D02*
X147589285Y-122200057D01*
X147589285Y-122200057D02*
X147541666Y-122152438D01*
X147541666Y-122152438D02*
X147446428Y-122104819D01*
X147446428Y-122104819D02*
X147255952Y-122104819D01*
X147255952Y-122104819D02*
X147160714Y-122152438D01*
X147160714Y-122152438D02*
X147113095Y-122200057D01*
X147113095Y-122200057D02*
X147065476Y-122295295D01*
X147065476Y-122295295D02*
X147065476Y-122533390D01*
X147065476Y-122533390D02*
X147113095Y-122628628D01*
X147113095Y-122628628D02*
X147160714Y-122676247D01*
X147160714Y-122676247D02*
X147255952Y-122723866D01*
X147255952Y-122723866D02*
X147446428Y-122723866D01*
X147446428Y-122723866D02*
X147541666Y-122676247D01*
X147541666Y-122676247D02*
X147589285Y-122628628D01*
X147589285Y-122628628D02*
X147636904Y-122533390D01*
X171114642Y-147904580D02*
X171067023Y-147952200D01*
X171067023Y-147952200D02*
X170924166Y-147999819D01*
X170924166Y-147999819D02*
X170828928Y-147999819D01*
X170828928Y-147999819D02*
X170686071Y-147952200D01*
X170686071Y-147952200D02*
X170590833Y-147856961D01*
X170590833Y-147856961D02*
X170543214Y-147761723D01*
X170543214Y-147761723D02*
X170495595Y-147571247D01*
X170495595Y-147571247D02*
X170495595Y-147428390D01*
X170495595Y-147428390D02*
X170543214Y-147237914D01*
X170543214Y-147237914D02*
X170590833Y-147142676D01*
X170590833Y-147142676D02*
X170686071Y-147047438D01*
X170686071Y-147047438D02*
X170828928Y-146999819D01*
X170828928Y-146999819D02*
X170924166Y-146999819D01*
X170924166Y-146999819D02*
X171067023Y-147047438D01*
X171067023Y-147047438D02*
X171114642Y-147095057D01*
X172067023Y-147999819D02*
X171495595Y-147999819D01*
X171781309Y-147999819D02*
X171781309Y-146999819D01*
X171781309Y-146999819D02*
X171686071Y-147142676D01*
X171686071Y-147142676D02*
X171590833Y-147237914D01*
X171590833Y-147237914D02*
X171495595Y-147285533D01*
X172924166Y-147333152D02*
X172924166Y-147999819D01*
X172686071Y-146952200D02*
X172447976Y-147666485D01*
X172447976Y-147666485D02*
X173067023Y-147666485D01*
X177569819Y-102412857D02*
X177093628Y-102746190D01*
X177569819Y-102984285D02*
X176569819Y-102984285D01*
X176569819Y-102984285D02*
X176569819Y-102603333D01*
X176569819Y-102603333D02*
X176617438Y-102508095D01*
X176617438Y-102508095D02*
X176665057Y-102460476D01*
X176665057Y-102460476D02*
X176760295Y-102412857D01*
X176760295Y-102412857D02*
X176903152Y-102412857D01*
X176903152Y-102412857D02*
X176998390Y-102460476D01*
X176998390Y-102460476D02*
X177046009Y-102508095D01*
X177046009Y-102508095D02*
X177093628Y-102603333D01*
X177093628Y-102603333D02*
X177093628Y-102984285D01*
X177569819Y-101460476D02*
X177569819Y-102031904D01*
X177569819Y-101746190D02*
X176569819Y-101746190D01*
X176569819Y-101746190D02*
X176712676Y-101841428D01*
X176712676Y-101841428D02*
X176807914Y-101936666D01*
X176807914Y-101936666D02*
X176855533Y-102031904D01*
X177569819Y-100508095D02*
X177569819Y-101079523D01*
X177569819Y-100793809D02*
X176569819Y-100793809D01*
X176569819Y-100793809D02*
X176712676Y-100889047D01*
X176712676Y-100889047D02*
X176807914Y-100984285D01*
X176807914Y-100984285D02*
X176855533Y-101079523D01*
X119181905Y-81014819D02*
X119181905Y-81824342D01*
X119181905Y-81824342D02*
X119229524Y-81919580D01*
X119229524Y-81919580D02*
X119277143Y-81967200D01*
X119277143Y-81967200D02*
X119372381Y-82014819D01*
X119372381Y-82014819D02*
X119562857Y-82014819D01*
X119562857Y-82014819D02*
X119658095Y-81967200D01*
X119658095Y-81967200D02*
X119705714Y-81919580D01*
X119705714Y-81919580D02*
X119753333Y-81824342D01*
X119753333Y-81824342D02*
X119753333Y-81014819D01*
X120753333Y-82014819D02*
X120181905Y-82014819D01*
X120467619Y-82014819D02*
X120467619Y-81014819D01*
X120467619Y-81014819D02*
X120372381Y-81157676D01*
X120372381Y-81157676D02*
X120277143Y-81252914D01*
X120277143Y-81252914D02*
X120181905Y-81300533D01*
X121372381Y-81014819D02*
X121467619Y-81014819D01*
X121467619Y-81014819D02*
X121562857Y-81062438D01*
X121562857Y-81062438D02*
X121610476Y-81110057D01*
X121610476Y-81110057D02*
X121658095Y-81205295D01*
X121658095Y-81205295D02*
X121705714Y-81395771D01*
X121705714Y-81395771D02*
X121705714Y-81633866D01*
X121705714Y-81633866D02*
X121658095Y-81824342D01*
X121658095Y-81824342D02*
X121610476Y-81919580D01*
X121610476Y-81919580D02*
X121562857Y-81967200D01*
X121562857Y-81967200D02*
X121467619Y-82014819D01*
X121467619Y-82014819D02*
X121372381Y-82014819D01*
X121372381Y-82014819D02*
X121277143Y-81967200D01*
X121277143Y-81967200D02*
X121229524Y-81919580D01*
X121229524Y-81919580D02*
X121181905Y-81824342D01*
X121181905Y-81824342D02*
X121134286Y-81633866D01*
X121134286Y-81633866D02*
X121134286Y-81395771D01*
X121134286Y-81395771D02*
X121181905Y-81205295D01*
X121181905Y-81205295D02*
X121229524Y-81110057D01*
X121229524Y-81110057D02*
X121277143Y-81062438D01*
X121277143Y-81062438D02*
X121372381Y-81014819D01*
X151179580Y-92867857D02*
X151227200Y-92915476D01*
X151227200Y-92915476D02*
X151274819Y-93058333D01*
X151274819Y-93058333D02*
X151274819Y-93153571D01*
X151274819Y-93153571D02*
X151227200Y-93296428D01*
X151227200Y-93296428D02*
X151131961Y-93391666D01*
X151131961Y-93391666D02*
X151036723Y-93439285D01*
X151036723Y-93439285D02*
X150846247Y-93486904D01*
X150846247Y-93486904D02*
X150703390Y-93486904D01*
X150703390Y-93486904D02*
X150512914Y-93439285D01*
X150512914Y-93439285D02*
X150417676Y-93391666D01*
X150417676Y-93391666D02*
X150322438Y-93296428D01*
X150322438Y-93296428D02*
X150274819Y-93153571D01*
X150274819Y-93153571D02*
X150274819Y-93058333D01*
X150274819Y-93058333D02*
X150322438Y-92915476D01*
X150322438Y-92915476D02*
X150370057Y-92867857D01*
X150370057Y-92486904D02*
X150322438Y-92439285D01*
X150322438Y-92439285D02*
X150274819Y-92344047D01*
X150274819Y-92344047D02*
X150274819Y-92105952D01*
X150274819Y-92105952D02*
X150322438Y-92010714D01*
X150322438Y-92010714D02*
X150370057Y-91963095D01*
X150370057Y-91963095D02*
X150465295Y-91915476D01*
X150465295Y-91915476D02*
X150560533Y-91915476D01*
X150560533Y-91915476D02*
X150703390Y-91963095D01*
X150703390Y-91963095D02*
X151274819Y-92534523D01*
X151274819Y-92534523D02*
X151274819Y-91915476D01*
X150608152Y-91058333D02*
X151274819Y-91058333D01*
X150227200Y-91296428D02*
X150941485Y-91534523D01*
X150941485Y-91534523D02*
X150941485Y-90915476D01*
X172659580Y-113892857D02*
X172707200Y-113940476D01*
X172707200Y-113940476D02*
X172754819Y-114083333D01*
X172754819Y-114083333D02*
X172754819Y-114178571D01*
X172754819Y-114178571D02*
X172707200Y-114321428D01*
X172707200Y-114321428D02*
X172611961Y-114416666D01*
X172611961Y-114416666D02*
X172516723Y-114464285D01*
X172516723Y-114464285D02*
X172326247Y-114511904D01*
X172326247Y-114511904D02*
X172183390Y-114511904D01*
X172183390Y-114511904D02*
X171992914Y-114464285D01*
X171992914Y-114464285D02*
X171897676Y-114416666D01*
X171897676Y-114416666D02*
X171802438Y-114321428D01*
X171802438Y-114321428D02*
X171754819Y-114178571D01*
X171754819Y-114178571D02*
X171754819Y-114083333D01*
X171754819Y-114083333D02*
X171802438Y-113940476D01*
X171802438Y-113940476D02*
X171850057Y-113892857D01*
X171850057Y-113511904D02*
X171802438Y-113464285D01*
X171802438Y-113464285D02*
X171754819Y-113369047D01*
X171754819Y-113369047D02*
X171754819Y-113130952D01*
X171754819Y-113130952D02*
X171802438Y-113035714D01*
X171802438Y-113035714D02*
X171850057Y-112988095D01*
X171850057Y-112988095D02*
X171945295Y-112940476D01*
X171945295Y-112940476D02*
X172040533Y-112940476D01*
X172040533Y-112940476D02*
X172183390Y-112988095D01*
X172183390Y-112988095D02*
X172754819Y-113559523D01*
X172754819Y-113559523D02*
X172754819Y-112940476D01*
X171754819Y-112607142D02*
X171754819Y-111940476D01*
X171754819Y-111940476D02*
X172754819Y-112369047D01*
D11*
X155964035Y-130852605D02*
X155964035Y-131327121D01*
X157009035Y-130852605D02*
X157009035Y-131327121D01*
X145452500Y-135640000D02*
X150072500Y-135640000D01*
X150072500Y-142410000D02*
X145452500Y-142410000D01*
X151952500Y-142195000D02*
X151622500Y-141955000D01*
X151952500Y-141715000D01*
X151952500Y-142195000D01*
G36*
X151952500Y-142195000D02*
G01*
X151622500Y-141955000D01*
X151952500Y-141715000D01*
X151952500Y-142195000D01*
G37*
X171837742Y-131627030D02*
X172312258Y-131627030D01*
X171837742Y-132672030D02*
X172312258Y-132672030D01*
X174520000Y-141210000D02*
X174520000Y-137200000D01*
X174520000Y-141210000D02*
X176520000Y-141210000D01*
X176520000Y-141210000D02*
X176520000Y-137200000D01*
D12*
X184490000Y-85480000D02*
X184490000Y-85480000D01*
X184590000Y-85480000D02*
X184590000Y-85480000D01*
D13*
X185060000Y-74395000D02*
X194590000Y-74395000D01*
X185060000Y-105195000D02*
X185060000Y-74395000D01*
X194590000Y-105195000D02*
X185060000Y-105195000D01*
D12*
X184490000Y-85480000D02*
G75*
G02*
X184590000Y-85480000I50000J0D01*
G01*
X184590000Y-85480000D02*
G75*
G02*
X184490000Y-85480000I-50000J0D01*
G01*
D11*
X146259420Y-107690000D02*
X146540580Y-107690000D01*
X146259420Y-108710000D02*
X146540580Y-108710000D01*
X129090000Y-76880000D02*
X129090000Y-75500000D01*
X130470000Y-76880000D02*
X129090000Y-76880000D01*
X131740000Y-74120000D02*
X136930000Y-74120000D01*
X131740000Y-76880000D02*
X131740000Y-74120000D01*
X131740000Y-76880000D02*
X136930000Y-76880000D01*
X136930000Y-76880000D02*
X136930000Y-74120000D01*
X151950000Y-147750000D02*
X151950000Y-146370000D01*
X153330000Y-147750000D02*
X151950000Y-147750000D01*
X154600000Y-144990000D02*
X159790000Y-144990000D01*
X154600000Y-147750000D02*
X154600000Y-144990000D01*
X154600000Y-147750000D02*
X159790000Y-147750000D01*
X159790000Y-147750000D02*
X159790000Y-144990000D01*
D12*
X181285000Y-110190000D02*
X181285000Y-120140000D01*
X181285000Y-120140000D02*
X181985000Y-120140000D01*
X185985000Y-120140000D02*
X190485000Y-120140000D01*
X190485000Y-108190000D02*
X185485000Y-108190000D01*
X194010000Y-110815000D02*
X194010000Y-110815000D01*
X194110000Y-110815000D02*
X194110000Y-110815000D01*
X194010000Y-110815000D02*
G75*
G02*
X194110000Y-110815000I50000J0D01*
G01*
X194110000Y-110815000D02*
G75*
G02*
X194010000Y-110815000I-50000J0D01*
G01*
D11*
X146502500Y-100165000D02*
X151122500Y-100165000D01*
X151122500Y-106935000D02*
X146502500Y-106935000D01*
X153002500Y-106720000D02*
X152672500Y-106480000D01*
X153002500Y-106240000D01*
X153002500Y-106720000D01*
G36*
X153002500Y-106720000D02*
G01*
X152672500Y-106480000D01*
X153002500Y-106240000D01*
X153002500Y-106720000D01*
G37*
X163102500Y-106740000D02*
X167722500Y-106740000D01*
X167722500Y-113510000D02*
X163102500Y-113510000D01*
X169602500Y-113295000D02*
X169272500Y-113055000D01*
X169602500Y-112815000D01*
X169602500Y-113295000D01*
G36*
X169602500Y-113295000D02*
G01*
X169272500Y-113055000D01*
X169602500Y-112815000D01*
X169602500Y-113295000D01*
G37*
X151726535Y-132049863D02*
X155346535Y-132049863D01*
X155346535Y-132049863D02*
X155346535Y-127729863D01*
X167000000Y-145230443D02*
X167000000Y-144949283D01*
X168020000Y-145230443D02*
X168020000Y-144949283D01*
D13*
X106425000Y-145350000D02*
X106425000Y-147450000D01*
X106425000Y-147450000D02*
X109150000Y-147450000D01*
X109150000Y-145350000D02*
X106425000Y-145350000D01*
D11*
X175955000Y-94190000D02*
X175955000Y-91540000D01*
X178715000Y-91540000D02*
X175955000Y-91540000D01*
X178715000Y-94190000D02*
X175955000Y-94190000D01*
X178715000Y-94190000D02*
X178715000Y-91540000D01*
X178715000Y-95460000D02*
X178715000Y-96840000D01*
X178715000Y-96840000D02*
X177335000Y-96840000D01*
X170182500Y-141220137D02*
X170232500Y-141220137D01*
X170182500Y-143040137D02*
X170182500Y-141220137D01*
X170232500Y-143040137D02*
X170182500Y-143040137D01*
X171352500Y-141220137D02*
X172132500Y-141220137D01*
X173252500Y-141220137D02*
X173302500Y-141220137D01*
X173302500Y-141220137D02*
X173302500Y-143040137D01*
X173302500Y-143040137D02*
X173252500Y-143040137D01*
X170232500Y-143580137D02*
X169902500Y-143820137D01*
X169902500Y-143340137D01*
X170232500Y-143580137D01*
G36*
X170232500Y-143580137D02*
G01*
X169902500Y-143820137D01*
X169902500Y-143340137D01*
X170232500Y-143580137D01*
G37*
X151390580Y-120790000D02*
X151109420Y-120790000D01*
X151390580Y-121810000D02*
X151109420Y-121810000D01*
X154827500Y-85140000D02*
X159447500Y-85140000D01*
X159447500Y-91910000D02*
X154827500Y-91910000D01*
X161327500Y-91695000D02*
X160997500Y-91455000D01*
X161327500Y-91215000D01*
X161327500Y-91695000D01*
G36*
X161327500Y-91695000D02*
G01*
X160997500Y-91455000D01*
X161327500Y-91215000D01*
X161327500Y-91695000D01*
G37*
X145534420Y-143040000D02*
X145815580Y-143040000D01*
X145534420Y-144060000D02*
X145815580Y-144060000D01*
X175250000Y-142450000D02*
X175250000Y-147750000D01*
X180440000Y-142450000D02*
X175250000Y-142450000D01*
X180440000Y-142450000D02*
X180440000Y-145100000D01*
X180440000Y-145100000D02*
X183090000Y-145100000D01*
X181710000Y-142450000D02*
X183090000Y-142450000D01*
X183090000Y-142450000D02*
X183090000Y-143830000D01*
X183090000Y-145100000D02*
X183090000Y-147750000D01*
X183090000Y-147750000D02*
X175250000Y-147750000D01*
X146502500Y-113315000D02*
X151122500Y-113315000D01*
X151122500Y-120085000D02*
X146502500Y-120085000D01*
X153002500Y-119870000D02*
X152672500Y-119630000D01*
X153002500Y-119390000D01*
X153002500Y-119870000D01*
G36*
X153002500Y-119870000D02*
G01*
X152672500Y-119630000D01*
X153002500Y-119390000D01*
X153002500Y-119870000D01*
G37*
X158303535Y-125856863D02*
X159540035Y-125856863D01*
X158303535Y-127093363D02*
X158303535Y-125856863D01*
X158303535Y-135493363D02*
X158303535Y-136729863D01*
X158303535Y-136729863D02*
X159540035Y-136729863D01*
X169176535Y-135493363D02*
X169176535Y-136729863D01*
X169176535Y-136729863D02*
X167940035Y-136729863D01*
D14*
X169343658Y-125937317D02*
G75*
G02*
X168804412Y-125937317I-269623J0D01*
G01*
X168804412Y-125937317D02*
G75*
G02*
X169343658Y-125937317I269623J0D01*
G01*
D11*
X177615225Y-137145000D02*
X178115225Y-137145000D01*
X177865225Y-136895000D02*
X177865225Y-137395000D01*
X180420000Y-136040000D02*
X180420000Y-141200000D01*
X180460000Y-136040000D02*
X180460000Y-141200000D01*
X180500000Y-136041000D02*
X180500000Y-141199000D01*
X180540000Y-136043000D02*
X180540000Y-141197000D01*
X180580000Y-136045000D02*
X180580000Y-141195000D01*
X180620000Y-136048000D02*
X180620000Y-141192000D01*
X180660000Y-136051000D02*
X180660000Y-137580000D01*
X180660000Y-139660000D02*
X180660000Y-141189000D01*
X180700000Y-136055000D02*
X180700000Y-137580000D01*
X180700000Y-139660000D02*
X180700000Y-141185000D01*
X180740000Y-136060000D02*
X180740000Y-137580000D01*
X180740000Y-139660000D02*
X180740000Y-141180000D01*
X180780000Y-136065000D02*
X180780000Y-137580000D01*
X180780000Y-139660000D02*
X180780000Y-141175000D01*
X180820000Y-136071000D02*
X180820000Y-137580000D01*
X180820000Y-139660000D02*
X180820000Y-141169000D01*
X180860000Y-136077000D02*
X180860000Y-137580000D01*
X180860000Y-139660000D02*
X180860000Y-141163000D01*
X180900000Y-136084000D02*
X180900000Y-137580000D01*
X180900000Y-139660000D02*
X180900000Y-141156000D01*
X180940000Y-136092000D02*
X180940000Y-137580000D01*
X180940000Y-139660000D02*
X180940000Y-141148000D01*
X180980000Y-136101000D02*
X180980000Y-137580000D01*
X180980000Y-139660000D02*
X180980000Y-141139000D01*
X181020000Y-136110000D02*
X181020000Y-137580000D01*
X181020000Y-139660000D02*
X181020000Y-141130000D01*
X181060000Y-136119000D02*
X181060000Y-137580000D01*
X181060000Y-139660000D02*
X181060000Y-141121000D01*
X181100000Y-136130000D02*
X181100000Y-137580000D01*
X181100000Y-139660000D02*
X181100000Y-141110000D01*
X181140000Y-136141000D02*
X181140000Y-137580000D01*
X181140000Y-139660000D02*
X181140000Y-141099000D01*
X181180000Y-136153000D02*
X181180000Y-137580000D01*
X181180000Y-139660000D02*
X181180000Y-141087000D01*
X181220000Y-136165000D02*
X181220000Y-137580000D01*
X181220000Y-139660000D02*
X181220000Y-141075000D01*
X181260000Y-136178000D02*
X181260000Y-137580000D01*
X181260000Y-139660000D02*
X181260000Y-141062000D01*
X181300000Y-136192000D02*
X181300000Y-137580000D01*
X181300000Y-139660000D02*
X181300000Y-141048000D01*
X181340000Y-136207000D02*
X181340000Y-137580000D01*
X181340000Y-139660000D02*
X181340000Y-141033000D01*
X181380000Y-136222000D02*
X181380000Y-137580000D01*
X181380000Y-139660000D02*
X181380000Y-141018000D01*
X181420000Y-136238000D02*
X181420000Y-137580000D01*
X181420000Y-139660000D02*
X181420000Y-141002000D01*
X181460000Y-136255000D02*
X181460000Y-137580000D01*
X181460000Y-139660000D02*
X181460000Y-140985000D01*
X181500000Y-136273000D02*
X181500000Y-137580000D01*
X181500000Y-139660000D02*
X181500000Y-140967000D01*
X181540000Y-136291000D02*
X181540000Y-137580000D01*
X181540000Y-139660000D02*
X181540000Y-140949000D01*
X181580000Y-136311000D02*
X181580000Y-137580000D01*
X181580000Y-139660000D02*
X181580000Y-140929000D01*
X181620000Y-136331000D02*
X181620000Y-137580000D01*
X181620000Y-139660000D02*
X181620000Y-140909000D01*
X181660000Y-136352000D02*
X181660000Y-137580000D01*
X181660000Y-139660000D02*
X181660000Y-140888000D01*
X181700000Y-136374000D02*
X181700000Y-137580000D01*
X181700000Y-139660000D02*
X181700000Y-140866000D01*
X181740000Y-136397000D02*
X181740000Y-137580000D01*
X181740000Y-139660000D02*
X181740000Y-140843000D01*
X181780000Y-136421000D02*
X181780000Y-137580000D01*
X181780000Y-139660000D02*
X181780000Y-140819000D01*
X181820000Y-136445000D02*
X181820000Y-137580000D01*
X181820000Y-139660000D02*
X181820000Y-140795000D01*
X181860000Y-136471000D02*
X181860000Y-137580000D01*
X181860000Y-139660000D02*
X181860000Y-140769000D01*
X181900000Y-136498000D02*
X181900000Y-137580000D01*
X181900000Y-139660000D02*
X181900000Y-140742000D01*
X181940000Y-136526000D02*
X181940000Y-137580000D01*
X181940000Y-139660000D02*
X181940000Y-140714000D01*
X181980000Y-136555000D02*
X181980000Y-137580000D01*
X181980000Y-139660000D02*
X181980000Y-140685000D01*
X182020000Y-136585000D02*
X182020000Y-137580000D01*
X182020000Y-139660000D02*
X182020000Y-140655000D01*
X182060000Y-136617000D02*
X182060000Y-137580000D01*
X182060000Y-139660000D02*
X182060000Y-140623000D01*
X182100000Y-136650000D02*
X182100000Y-137580000D01*
X182100000Y-139660000D02*
X182100000Y-140590000D01*
X182140000Y-136684000D02*
X182140000Y-137580000D01*
X182140000Y-139660000D02*
X182140000Y-140556000D01*
X182180000Y-136719000D02*
X182180000Y-137580000D01*
X182180000Y-139660000D02*
X182180000Y-140521000D01*
X182220000Y-136756000D02*
X182220000Y-137580000D01*
X182220000Y-139660000D02*
X182220000Y-140484000D01*
X182260000Y-136795000D02*
X182260000Y-137580000D01*
X182260000Y-139660000D02*
X182260000Y-140445000D01*
X182300000Y-136835000D02*
X182300000Y-137580000D01*
X182300000Y-139660000D02*
X182300000Y-140405000D01*
X182340000Y-136877000D02*
X182340000Y-137580000D01*
X182340000Y-139660000D02*
X182340000Y-140363000D01*
X182380000Y-136921000D02*
X182380000Y-137580000D01*
X182380000Y-139660000D02*
X182380000Y-140319000D01*
X182420000Y-136968000D02*
X182420000Y-137580000D01*
X182420000Y-139660000D02*
X182420000Y-140272000D01*
X182460000Y-137016000D02*
X182460000Y-137580000D01*
X182460000Y-139660000D02*
X182460000Y-140224000D01*
X182500000Y-137067000D02*
X182500000Y-137580000D01*
X182500000Y-139660000D02*
X182500000Y-140173000D01*
X182540000Y-137121000D02*
X182540000Y-137580000D01*
X182540000Y-139660000D02*
X182540000Y-140119000D01*
X182580000Y-137177000D02*
X182580000Y-137580000D01*
X182580000Y-139660000D02*
X182580000Y-140063000D01*
X182620000Y-137237000D02*
X182620000Y-137580000D01*
X182620000Y-139660000D02*
X182620000Y-140003000D01*
X182660000Y-137301000D02*
X182660000Y-137580000D01*
X182660000Y-139660000D02*
X182660000Y-139939000D01*
X182700000Y-137369000D02*
X182700000Y-137580000D01*
X182700000Y-139660000D02*
X182700000Y-139871000D01*
X182740000Y-137443000D02*
X182740000Y-139797000D01*
X182780000Y-137522000D02*
X182780000Y-139718000D01*
X182820000Y-137609000D02*
X182820000Y-139631000D01*
X182860000Y-137706000D02*
X182860000Y-139534000D01*
X182900000Y-137815000D02*
X182900000Y-139425000D01*
X182940000Y-137943000D02*
X182940000Y-139297000D01*
X182980000Y-138103000D02*
X182980000Y-139137000D01*
X183020000Y-138337000D02*
X183020000Y-138903000D01*
X183040000Y-138620000D02*
G75*
G02*
X177800000Y-138620000I-2620000J0D01*
G01*
X177800000Y-138620000D02*
G75*
G02*
X183040000Y-138620000I2620000J0D01*
G01*
X153502115Y-126226363D02*
X153220955Y-126226363D01*
X153502115Y-127246363D02*
X153220955Y-127246363D01*
D13*
X96780000Y-57045000D02*
X96780000Y-53700000D01*
D12*
X188010000Y-63700000D02*
X188010000Y-63700000D01*
X188110000Y-63700000D02*
X188110000Y-63700000D01*
D13*
X191830000Y-53700000D02*
X191830000Y-57045000D01*
X191830000Y-57045000D02*
X96780000Y-57045000D01*
D12*
X188010000Y-63700000D02*
G75*
G02*
X188110000Y-63700000I50000J0D01*
G01*
X188110000Y-63700000D02*
G75*
G02*
X188010000Y-63700000I-50000J0D01*
G01*
D11*
X161930035Y-142279863D02*
X161980035Y-142279863D01*
X161930035Y-144099863D02*
X161930035Y-142279863D01*
X161980035Y-144099863D02*
X161930035Y-144099863D01*
X163100035Y-142279863D02*
X163880035Y-142279863D01*
X165000035Y-142279863D02*
X165050035Y-142279863D01*
X165050035Y-142279863D02*
X165050035Y-144099863D01*
X165050035Y-144099863D02*
X165000035Y-144099863D01*
X161980035Y-144639863D02*
X161650035Y-144879863D01*
X161650035Y-144399863D01*
X161980035Y-144639863D01*
G36*
X161980035Y-144639863D02*
G01*
X161650035Y-144879863D01*
X161650035Y-144399863D01*
X161980035Y-144639863D01*
G37*
X149940580Y-143040000D02*
X149659420Y-143040000D01*
X149940580Y-144060000D02*
X149659420Y-144060000D01*
X150037258Y-133977500D02*
X149562742Y-133977500D01*
X150037258Y-135022500D02*
X149562742Y-135022500D01*
X168140035Y-140089863D02*
G75*
G02*
X166740035Y-140089863I-700000J0D01*
G01*
X166740035Y-140089863D02*
G75*
G02*
X168140035Y-140089863I700000J0D01*
G01*
X177772742Y-119292500D02*
X178247258Y-119292500D01*
X177772742Y-120337500D02*
X178247258Y-120337500D01*
X171837742Y-133087500D02*
X172312258Y-133087500D01*
X171837742Y-134132500D02*
X172312258Y-134132500D01*
X129090000Y-72880000D02*
X129090000Y-71500000D01*
X130470000Y-72880000D02*
X129090000Y-72880000D01*
X131740000Y-70120000D02*
X154710000Y-70120000D01*
X131740000Y-72880000D02*
X131740000Y-70120000D01*
X131740000Y-72880000D02*
X154710000Y-72880000D01*
X154710000Y-72880000D02*
X154710000Y-70120000D01*
D13*
X95129800Y-69381400D02*
X102129800Y-69381400D01*
X95129800Y-146471400D02*
X95129800Y-69381400D01*
X102129800Y-69381400D02*
X102129800Y-76781400D01*
X102129800Y-76781400D02*
X110129800Y-76781400D01*
X102129800Y-139071400D02*
X110129800Y-139071400D01*
X102129800Y-146471400D02*
X95129800Y-146471400D01*
X102129800Y-146471400D02*
X102129800Y-139071400D01*
X110129800Y-76781400D02*
X110129800Y-139071400D01*
D12*
X110569800Y-134596400D02*
X110569800Y-134596400D01*
X110669800Y-134596400D02*
X110669800Y-134596400D01*
X110569800Y-134596400D02*
G75*
G02*
X110669800Y-134596400I50000J0D01*
G01*
X110669800Y-134596400D02*
G75*
G02*
X110569800Y-134596400I-50000J0D01*
G01*
D11*
X113740000Y-120230000D02*
X115120000Y-120230000D01*
X113740000Y-121610000D02*
X113740000Y-120230000D01*
X113740000Y-122880000D02*
X113740000Y-140770000D01*
X113740000Y-122880000D02*
X116500000Y-122880000D01*
X113740000Y-140770000D02*
X116500000Y-140770000D01*
X116500000Y-122880000D02*
X116500000Y-140770000D01*
X153570955Y-132576363D02*
X153852115Y-132576363D01*
X153570955Y-133596363D02*
X153852115Y-133596363D01*
X183930000Y-136170000D02*
X183930000Y-134370000D01*
X184150000Y-125110000D02*
X187480000Y-125110000D01*
X184150000Y-138430000D02*
X184150000Y-125110000D01*
X184150000Y-138430000D02*
X187480000Y-138430000D01*
X191000000Y-125110000D02*
X199110000Y-125110000D01*
X199110000Y-124460000D02*
X199110000Y-125110000D01*
X199110000Y-138430000D02*
X191000000Y-138430000D01*
X199110000Y-138430000D02*
X199110000Y-139080000D01*
X199110000Y-139080000D02*
X199630000Y-139080000D01*
X199630000Y-124460000D02*
X199110000Y-124460000D01*
X199630000Y-139080000D02*
X199630000Y-124460000D01*
X176272742Y-97987500D02*
X176747258Y-97987500D01*
X176272742Y-99032500D02*
X176747258Y-99032500D01*
X175366035Y-125319863D02*
X175366035Y-125579863D01*
X175366035Y-130769863D02*
X175366035Y-130509863D01*
X178091035Y-125319863D02*
X175366035Y-125319863D01*
X178091035Y-125319863D02*
X180816035Y-125319863D01*
X178091035Y-130769863D02*
X175366035Y-130769863D01*
X178091035Y-130769863D02*
X180816035Y-130769863D01*
X180816035Y-125319863D02*
X180816035Y-125579863D01*
X180816035Y-130769863D02*
X180816035Y-130509863D01*
X174583535Y-125579863D02*
X174343535Y-125249863D01*
X174823535Y-125249863D01*
X174583535Y-125579863D01*
G36*
X174583535Y-125579863D02*
G01*
X174343535Y-125249863D01*
X174823535Y-125249863D01*
X174583535Y-125579863D01*
G37*
X116262742Y-145877500D02*
X116737258Y-145877500D01*
X116262742Y-146922500D02*
X116737258Y-146922500D01*
X169540035Y-138389863D02*
G75*
G02*
X168140035Y-138389863I-700000J0D01*
G01*
X168140035Y-138389863D02*
G75*
G02*
X169540035Y-138389863I700000J0D01*
G01*
X159940000Y-113315580D02*
X159940000Y-113034420D01*
X160960000Y-113315580D02*
X160960000Y-113034420D01*
X146234420Y-120740000D02*
X146515580Y-120740000D01*
X146234420Y-121760000D02*
X146515580Y-121760000D01*
X171708080Y-145410000D02*
X171426920Y-145410000D01*
X171708080Y-146430000D02*
X171426920Y-146430000D01*
X175162500Y-102172258D02*
X175162500Y-101697742D01*
X176207500Y-102172258D02*
X176207500Y-101697742D01*
X118310000Y-94670000D02*
X118310000Y-92130000D01*
X119330000Y-82740000D02*
X119330000Y-84600000D01*
X119330000Y-89500000D02*
X119330000Y-148540000D01*
X119330000Y-148540000D02*
X142430000Y-148540000D01*
X121610000Y-82740000D02*
X121610000Y-85000000D01*
X142430000Y-82740000D02*
X119330000Y-82740000D01*
X142430000Y-148540000D02*
X142430000Y-82740000D01*
X120960000Y-87050000D02*
G75*
G02*
X119160000Y-87050000I-900000J0D01*
G01*
X119160000Y-87050000D02*
G75*
G02*
X120960000Y-87050000I900000J0D01*
G01*
X122610000Y-87050000D02*
G75*
G02*
X117510000Y-87050000I-2550000J0D01*
G01*
X117510000Y-87050000D02*
G75*
G02*
X122610000Y-87050000I2550000J0D01*
G01*
X166740035Y-138389863D02*
G75*
G02*
X165340035Y-138389863I-700000J0D01*
G01*
X165340035Y-138389863D02*
G75*
G02*
X166740035Y-138389863I700000J0D01*
G01*
X151740000Y-92365580D02*
X151740000Y-92084420D01*
X152760000Y-92365580D02*
X152760000Y-92084420D01*
X170315000Y-113365580D02*
X170315000Y-113084420D01*
X171335000Y-113365580D02*
X171335000Y-113084420D01*
%LPC*%
D15*
X156486535Y-130264863D03*
X156486535Y-131914863D03*
D16*
X150625000Y-141950000D03*
X150625000Y-141300000D03*
X150625000Y-140650000D03*
X150625000Y-140000000D03*
X150625000Y-139350000D03*
X150625000Y-138700000D03*
X150625000Y-138050000D03*
X150625000Y-137400000D03*
X150625000Y-136750000D03*
X150625000Y-136100000D03*
X144900000Y-136100000D03*
X144900000Y-136750000D03*
X144900000Y-137400000D03*
X144900000Y-138050000D03*
X144900000Y-138700000D03*
X144900000Y-139350000D03*
X144900000Y-140000000D03*
X144900000Y-140650000D03*
X144900000Y-141300000D03*
X144900000Y-141950000D03*
D17*
X171250000Y-132149530D03*
X172900000Y-132149530D03*
D18*
X175520000Y-140500000D03*
X175520000Y-137200000D03*
D19*
X189630000Y-102290000D03*
X189630000Y-77300000D03*
D20*
X187530000Y-85480000D03*
D21*
X187530000Y-87770000D03*
X187530000Y-90060000D03*
X187530000Y-92350000D03*
X187530000Y-94640000D03*
X189630000Y-84340000D03*
X189630000Y-86630000D03*
X189630000Y-88920000D03*
X189630000Y-91210000D03*
X189630000Y-93500000D03*
X191710000Y-85480000D03*
X191710000Y-87770000D03*
X191710000Y-90060000D03*
X191710000Y-92350000D03*
X191710000Y-94640000D03*
D22*
X145625000Y-108200000D03*
X147175000Y-108200000D03*
D23*
X130470000Y-75500000D03*
D24*
X133010000Y-75500000D03*
X135550000Y-75500000D03*
D23*
X153330000Y-146370000D03*
D24*
X155870000Y-146370000D03*
X158410000Y-146370000D03*
D25*
X184635000Y-120140000D03*
D26*
X192235000Y-119992500D03*
D27*
X192235000Y-108540000D03*
D28*
X183985000Y-108190000D03*
D29*
X192360000Y-110990000D03*
X192360000Y-112090000D03*
X192360000Y-113190000D03*
X192360000Y-114290000D03*
X192360000Y-115390000D03*
X192360000Y-116490000D03*
X192360000Y-117590000D03*
X192360000Y-118690000D03*
D30*
X183135000Y-119815000D03*
D31*
X181560000Y-108640000D03*
D16*
X151675000Y-106475000D03*
X151675000Y-105825000D03*
X151675000Y-105175000D03*
X151675000Y-104525000D03*
X151675000Y-103875000D03*
X151675000Y-103225000D03*
X151675000Y-102575000D03*
X151675000Y-101925000D03*
X151675000Y-101275000D03*
X151675000Y-100625000D03*
X145950000Y-100625000D03*
X145950000Y-101275000D03*
X145950000Y-101925000D03*
X145950000Y-102575000D03*
X145950000Y-103225000D03*
X145950000Y-103875000D03*
X145950000Y-104525000D03*
X145950000Y-105175000D03*
X145950000Y-105825000D03*
X145950000Y-106475000D03*
X168275000Y-113050000D03*
X168275000Y-112400000D03*
X168275000Y-111750000D03*
X168275000Y-111100000D03*
X168275000Y-110450000D03*
X168275000Y-109800000D03*
X168275000Y-109150000D03*
X168275000Y-108500000D03*
X168275000Y-107850000D03*
X168275000Y-107200000D03*
X162550000Y-107200000D03*
X162550000Y-107850000D03*
X162550000Y-108500000D03*
X162550000Y-109150000D03*
X162550000Y-109800000D03*
X162550000Y-110450000D03*
X162550000Y-111100000D03*
X162550000Y-111750000D03*
X162550000Y-112400000D03*
X162550000Y-113050000D03*
D32*
X154486535Y-131089863D03*
X154486535Y-128689863D03*
X152586535Y-128689863D03*
X152586535Y-131089863D03*
D33*
X167510000Y-145864863D03*
X167510000Y-144314863D03*
D34*
X107250000Y-146400000D03*
X109150000Y-146400000D03*
D23*
X177335000Y-95460000D03*
D24*
X177335000Y-92920000D03*
D35*
X190960000Y-144850000D03*
D36*
X170792500Y-143267637D03*
X171742500Y-143267637D03*
X172692500Y-143267637D03*
X172692500Y-140992637D03*
X170792500Y-140992637D03*
D37*
X152025000Y-121300000D03*
X150475000Y-121300000D03*
D16*
X160000000Y-91450000D03*
X160000000Y-90800000D03*
X160000000Y-90150000D03*
X160000000Y-89500000D03*
X160000000Y-88850000D03*
X160000000Y-88200000D03*
X160000000Y-87550000D03*
X160000000Y-86900000D03*
X160000000Y-86250000D03*
X160000000Y-85600000D03*
X154275000Y-85600000D03*
X154275000Y-86250000D03*
X154275000Y-86900000D03*
X154275000Y-87550000D03*
X154275000Y-88200000D03*
X154275000Y-88850000D03*
X154275000Y-89500000D03*
X154275000Y-90150000D03*
X154275000Y-90800000D03*
X154275000Y-91450000D03*
D22*
X144900000Y-143550000D03*
X146450000Y-143550000D03*
D23*
X181710000Y-143830000D03*
D24*
X181710000Y-146370000D03*
X179170000Y-143830000D03*
X179170000Y-146370000D03*
X176630000Y-143830000D03*
X176630000Y-146370000D03*
D16*
X151675000Y-119625000D03*
X151675000Y-118975000D03*
X151675000Y-118325000D03*
X151675000Y-117675000D03*
X151675000Y-117025000D03*
X151675000Y-116375000D03*
X151675000Y-115725000D03*
X151675000Y-115075000D03*
X151675000Y-114425000D03*
X151675000Y-113775000D03*
X145950000Y-113775000D03*
X145950000Y-114425000D03*
X145950000Y-115075000D03*
X145950000Y-115725000D03*
X145950000Y-116375000D03*
X145950000Y-117025000D03*
X145950000Y-117675000D03*
X145950000Y-118325000D03*
X145950000Y-118975000D03*
X145950000Y-119625000D03*
D38*
X167540035Y-126396863D03*
X167140035Y-126396863D03*
X166740035Y-126396863D03*
X166340035Y-126396863D03*
X165940035Y-126396863D03*
X165540035Y-126396863D03*
X165140035Y-126396863D03*
X164740035Y-126396863D03*
X164340035Y-126396863D03*
X163940035Y-126396863D03*
X163540035Y-126396863D03*
X163140035Y-126396863D03*
X162740035Y-126396863D03*
X162340035Y-126396863D03*
X161940035Y-126396863D03*
X161540035Y-126396863D03*
X161140035Y-126396863D03*
X160740035Y-126396863D03*
X160340035Y-126396863D03*
X159940035Y-126396863D03*
D39*
X158843535Y-127493363D03*
X158843535Y-127893363D03*
X158843535Y-128293363D03*
X158843535Y-128693363D03*
X158843535Y-129093363D03*
X158843535Y-129493363D03*
X158843535Y-129893363D03*
X158843535Y-130293363D03*
X158843535Y-130693363D03*
X158843535Y-131093363D03*
X158843535Y-131493363D03*
X158843535Y-131893363D03*
X158843535Y-132293363D03*
X158843535Y-132693363D03*
X158843535Y-133093363D03*
X158843535Y-133493363D03*
X158843535Y-133893363D03*
X158843535Y-134293363D03*
X158843535Y-134693363D03*
X158843535Y-135093363D03*
D38*
X159940035Y-136189863D03*
X160340035Y-136189863D03*
X160740035Y-136189863D03*
X161140035Y-136189863D03*
X161540035Y-136189863D03*
X161940035Y-136189863D03*
X162340035Y-136189863D03*
X162740035Y-136189863D03*
X163140035Y-136189863D03*
X163540035Y-136189863D03*
X163940035Y-136189863D03*
X164340035Y-136189863D03*
X164740035Y-136189863D03*
X165140035Y-136189863D03*
X165540035Y-136189863D03*
X165940035Y-136189863D03*
X166340035Y-136189863D03*
X166740035Y-136189863D03*
X167140035Y-136189863D03*
X167540035Y-136189863D03*
D39*
X168636535Y-135093363D03*
X168636535Y-134693363D03*
X168636535Y-134293363D03*
X168636535Y-133893363D03*
X168636535Y-133493363D03*
X168636535Y-133093363D03*
X168636535Y-132693363D03*
X168636535Y-132293363D03*
X168636535Y-131893363D03*
X168636535Y-131493363D03*
X168636535Y-131093363D03*
X168636535Y-130693363D03*
X168636535Y-130293363D03*
X168636535Y-129893363D03*
X168636535Y-129493363D03*
X168636535Y-129093363D03*
X168636535Y-128693363D03*
X168636535Y-128293363D03*
X168636535Y-127893363D03*
X168636535Y-127493363D03*
D40*
X164740035Y-130293363D03*
X163740035Y-130293363D03*
X162740035Y-130293363D03*
X164740035Y-131293363D03*
X163740035Y-131293363D03*
D41*
X163740035Y-131293363D03*
D40*
X162740035Y-131293363D03*
X164740035Y-132293363D03*
X163740035Y-132293363D03*
X162740035Y-132293363D03*
D42*
X179170000Y-138620000D03*
D43*
X181670000Y-138620000D03*
D37*
X154136535Y-126736363D03*
X152586535Y-126736363D03*
D44*
X185910000Y-63700000D03*
D45*
X181950000Y-63700000D03*
X177990000Y-63700000D03*
X174030000Y-63700000D03*
X170070000Y-63700000D03*
X166110000Y-63700000D03*
X162150000Y-63700000D03*
X158190000Y-63700000D03*
X154230000Y-63700000D03*
X150270000Y-63700000D03*
X146310000Y-63700000D03*
X142350000Y-63700000D03*
X138390000Y-63700000D03*
X134430000Y-63700000D03*
X130470000Y-63700000D03*
X126510000Y-63700000D03*
X122550000Y-63700000D03*
X118590000Y-63700000D03*
X114630000Y-63700000D03*
X110670000Y-63700000D03*
X106710000Y-63700000D03*
X102700000Y-63700000D03*
X185910000Y-58620000D03*
X181950000Y-58620000D03*
X177990000Y-58620000D03*
X174030000Y-58620000D03*
X170070000Y-58620000D03*
X166110000Y-58620000D03*
X162150000Y-58620000D03*
X158190000Y-58620000D03*
X154230000Y-58620000D03*
X150270000Y-58620000D03*
X146310000Y-58620000D03*
X142350000Y-58620000D03*
X138390000Y-58620000D03*
X134430000Y-58620000D03*
X130470000Y-58620000D03*
X126510000Y-58620000D03*
X122550000Y-58620000D03*
X118590000Y-58620000D03*
X114630000Y-58620000D03*
X110670000Y-58620000D03*
X106710000Y-58620000D03*
X102700000Y-58620000D03*
D36*
X162540035Y-144327363D03*
X163490035Y-144327363D03*
X164440035Y-144327363D03*
X164440035Y-142052363D03*
X162540035Y-142052363D03*
D37*
X150575000Y-143550000D03*
X149025000Y-143550000D03*
D46*
X150625000Y-134500000D03*
X148975000Y-134500000D03*
D35*
X190960000Y-69570000D03*
D47*
X167440035Y-140089863D03*
D17*
X177185000Y-119815000D03*
X178835000Y-119815000D03*
X171250000Y-133610000D03*
X172900000Y-133610000D03*
D23*
X130470000Y-71500000D03*
D24*
X133010000Y-71500000D03*
X135550000Y-71500000D03*
X138090000Y-71500000D03*
X140630000Y-71500000D03*
X143170000Y-71500000D03*
X145710000Y-71500000D03*
X148250000Y-71500000D03*
X150790000Y-71500000D03*
X153330000Y-71500000D03*
D48*
X98629800Y-73381400D03*
X98629800Y-142471400D03*
D23*
X107969800Y-134596400D03*
D49*
X107969800Y-132056400D03*
X107969800Y-129516400D03*
X107969800Y-126976400D03*
X107969800Y-124436400D03*
X107969800Y-121896400D03*
X107969800Y-119356400D03*
X107969800Y-116816400D03*
X107969800Y-114276400D03*
X107969800Y-111736400D03*
X107969800Y-109196400D03*
X107969800Y-106656400D03*
X107969800Y-104116400D03*
X107969800Y-101576400D03*
X107969800Y-99036400D03*
X107969800Y-96496400D03*
X107969800Y-93956400D03*
X107969800Y-91416400D03*
X107969800Y-88876400D03*
X107969800Y-86336400D03*
X107969800Y-83796400D03*
X107969800Y-81256400D03*
X102889800Y-134596400D03*
X102889800Y-132056400D03*
X102889800Y-129516400D03*
X102889800Y-126976400D03*
X102889800Y-124436400D03*
X102889800Y-121896400D03*
X102889800Y-119356400D03*
X102889800Y-116816400D03*
X102889800Y-114276400D03*
X102889800Y-111736400D03*
X102889800Y-109196400D03*
X102889800Y-106656400D03*
X102889800Y-104116400D03*
X102889800Y-101576400D03*
X102889800Y-99036400D03*
X102889800Y-96496400D03*
X102889800Y-93956400D03*
X102889800Y-91416400D03*
X102889800Y-88876400D03*
X102889800Y-86336400D03*
X102889800Y-83796400D03*
X102889800Y-81256400D03*
D23*
X115120000Y-121610000D03*
D24*
X115120000Y-124150000D03*
X115120000Y-126690000D03*
X115120000Y-129230000D03*
X115120000Y-131770000D03*
X115120000Y-134310000D03*
X115120000Y-136850000D03*
X115120000Y-139390000D03*
D22*
X152936535Y-133086363D03*
X154486535Y-133086363D03*
D50*
X186530000Y-135270000D03*
D43*
X186530000Y-132770000D03*
X186530000Y-130770000D03*
X186530000Y-128270000D03*
D51*
X189240000Y-138340000D03*
X189240000Y-125200000D03*
D17*
X175685000Y-98510000D03*
X177335000Y-98510000D03*
D52*
X174491035Y-126139863D03*
X174491035Y-127409863D03*
X174491035Y-128679863D03*
X174491035Y-129949863D03*
X181691035Y-129949863D03*
X181691035Y-128679863D03*
X181691035Y-127409863D03*
X181691035Y-126139863D03*
D17*
X115675000Y-146400000D03*
X117325000Y-146400000D03*
D47*
X168840035Y-138389863D03*
D33*
X160450000Y-113950000D03*
X160450000Y-112400000D03*
D22*
X145600000Y-121250000D03*
X147150000Y-121250000D03*
D37*
X172342500Y-145920000D03*
X170792500Y-145920000D03*
D53*
X175685000Y-102760000D03*
X175685000Y-101110000D03*
D54*
X123260000Y-93400000D03*
D55*
X123260000Y-95940000D03*
X123260000Y-98480000D03*
X123260000Y-101020000D03*
X123260000Y-103560000D03*
X123260000Y-106100000D03*
X123260000Y-108640000D03*
X123260000Y-111180000D03*
X123260000Y-113720000D03*
X123260000Y-116260000D03*
X123260000Y-118800000D03*
X123260000Y-121340000D03*
X123260000Y-123880000D03*
X123260000Y-126420000D03*
X123260000Y-128960000D03*
X123260000Y-131500000D03*
X123260000Y-134040000D03*
X123260000Y-136580000D03*
X123260000Y-139120000D03*
X123260000Y-141660000D03*
X138500000Y-141660000D03*
X138500000Y-139120000D03*
X138500000Y-136580000D03*
X138500000Y-134040000D03*
X138500000Y-131500000D03*
X138500000Y-128960000D03*
X138500000Y-126420000D03*
X138500000Y-123880000D03*
X138500000Y-121340000D03*
X138500000Y-118800000D03*
X138500000Y-116260000D03*
X138500000Y-113720000D03*
X138500000Y-111180000D03*
X138500000Y-108640000D03*
X138500000Y-106100000D03*
X138500000Y-103560000D03*
X138500000Y-101020000D03*
X138500000Y-98480000D03*
X138500000Y-95940000D03*
X138500000Y-93400000D03*
D47*
X166040035Y-138389863D03*
D33*
X152250000Y-93000000D03*
X152250000Y-91450000D03*
X170825000Y-114000000D03*
X170825000Y-112450000D03*
%LPD*%
M02*
