%TF.GenerationSoftware,KiCad,Pcbnew,9.0.7*%
%TF.CreationDate,2026-02-02T16:02:03+11:00*%
%TF.ProjectId,FlashCartProgrammer,466c6173-6843-4617-9274-50726f677261,rev?*%
%TF.SameCoordinates,Original*%
%TF.FileFunction,Drillmap*%
%TF.FilePolarity,Positive*%
%FSLAX45Y45*%
G04 Gerber Fmt 4.5, Leading zero omitted, Abs format (unit mm)*
G04 Created by KiCad (PCBNEW 9.0.7) date 2026-02-02 16:02:03*
%MOMM*%
%LPD*%
G01*
G04 APERTURE LIST*
%ADD10C,0.100000*%
%ADD11C,0.200000*%
%ADD12C,0.350000*%
G04 APERTURE END LIST*
D10*
X9478820Y-4871640D02*
X19478820Y-4871640D01*
X19478820Y-14871640D01*
X9478820Y-14871640D01*
X9478820Y-4871640D01*
D11*
D12*
X18921000Y-6782000D02*
X19271000Y-7132000D01*
X19271000Y-6782000D02*
X18921000Y-7132000D01*
X18921000Y-14310000D02*
X19271000Y-14660000D01*
X19271000Y-14310000D02*
X18921000Y-14660000D01*
D11*
X9734597Y-15188124D02*
X9734597Y-14988124D01*
X9734597Y-14988124D02*
X9782216Y-14988124D01*
X9782216Y-14988124D02*
X9810787Y-14997647D01*
X9810787Y-14997647D02*
X9829835Y-15016695D01*
X9829835Y-15016695D02*
X9839359Y-15035743D01*
X9839359Y-15035743D02*
X9848883Y-15073838D01*
X9848883Y-15073838D02*
X9848883Y-15102409D01*
X9848883Y-15102409D02*
X9839359Y-15140505D01*
X9839359Y-15140505D02*
X9829835Y-15159552D01*
X9829835Y-15159552D02*
X9810787Y-15178600D01*
X9810787Y-15178600D02*
X9782216Y-15188124D01*
X9782216Y-15188124D02*
X9734597Y-15188124D01*
X9934597Y-15188124D02*
X9934597Y-15054790D01*
X9934597Y-15092886D02*
X9944121Y-15073838D01*
X9944121Y-15073838D02*
X9953644Y-15064314D01*
X9953644Y-15064314D02*
X9972692Y-15054790D01*
X9972692Y-15054790D02*
X9991740Y-15054790D01*
X10058406Y-15188124D02*
X10058406Y-15054790D01*
X10058406Y-14988124D02*
X10048883Y-14997647D01*
X10048883Y-14997647D02*
X10058406Y-15007171D01*
X10058406Y-15007171D02*
X10067930Y-14997647D01*
X10067930Y-14997647D02*
X10058406Y-14988124D01*
X10058406Y-14988124D02*
X10058406Y-15007171D01*
X10182216Y-15188124D02*
X10163168Y-15178600D01*
X10163168Y-15178600D02*
X10153644Y-15159552D01*
X10153644Y-15159552D02*
X10153644Y-14988124D01*
X10286978Y-15188124D02*
X10267930Y-15178600D01*
X10267930Y-15178600D02*
X10258406Y-15159552D01*
X10258406Y-15159552D02*
X10258406Y-14988124D01*
X10515549Y-15188124D02*
X10515549Y-14988124D01*
X10515549Y-14988124D02*
X10582216Y-15130981D01*
X10582216Y-15130981D02*
X10648883Y-14988124D01*
X10648883Y-14988124D02*
X10648883Y-15188124D01*
X10829835Y-15188124D02*
X10829835Y-15083362D01*
X10829835Y-15083362D02*
X10820311Y-15064314D01*
X10820311Y-15064314D02*
X10801264Y-15054790D01*
X10801264Y-15054790D02*
X10763168Y-15054790D01*
X10763168Y-15054790D02*
X10744121Y-15064314D01*
X10829835Y-15178600D02*
X10810787Y-15188124D01*
X10810787Y-15188124D02*
X10763168Y-15188124D01*
X10763168Y-15188124D02*
X10744121Y-15178600D01*
X10744121Y-15178600D02*
X10734597Y-15159552D01*
X10734597Y-15159552D02*
X10734597Y-15140505D01*
X10734597Y-15140505D02*
X10744121Y-15121457D01*
X10744121Y-15121457D02*
X10763168Y-15111933D01*
X10763168Y-15111933D02*
X10810787Y-15111933D01*
X10810787Y-15111933D02*
X10829835Y-15102409D01*
X10925073Y-15054790D02*
X10925073Y-15254790D01*
X10925073Y-15064314D02*
X10944121Y-15054790D01*
X10944121Y-15054790D02*
X10982216Y-15054790D01*
X10982216Y-15054790D02*
X11001264Y-15064314D01*
X11001264Y-15064314D02*
X11010787Y-15073838D01*
X11010787Y-15073838D02*
X11020311Y-15092886D01*
X11020311Y-15092886D02*
X11020311Y-15150028D01*
X11020311Y-15150028D02*
X11010787Y-15169076D01*
X11010787Y-15169076D02*
X11001264Y-15178600D01*
X11001264Y-15178600D02*
X10982216Y-15188124D01*
X10982216Y-15188124D02*
X10944121Y-15188124D01*
X10944121Y-15188124D02*
X10925073Y-15178600D01*
X11106025Y-15169076D02*
X11115549Y-15178600D01*
X11115549Y-15178600D02*
X11106025Y-15188124D01*
X11106025Y-15188124D02*
X11096502Y-15178600D01*
X11096502Y-15178600D02*
X11106025Y-15169076D01*
X11106025Y-15169076D02*
X11106025Y-15188124D01*
X11106025Y-15064314D02*
X11115549Y-15073838D01*
X11115549Y-15073838D02*
X11106025Y-15083362D01*
X11106025Y-15083362D02*
X11096502Y-15073838D01*
X11096502Y-15073838D02*
X11106025Y-15064314D01*
X11106025Y-15064314D02*
X11106025Y-15083362D01*
X9273820Y-15416640D02*
X9473820Y-15616640D01*
X9473820Y-15416640D02*
X9273820Y-15616640D01*
X9715549Y-15408124D02*
X9839359Y-15408124D01*
X9839359Y-15408124D02*
X9772692Y-15484314D01*
X9772692Y-15484314D02*
X9801264Y-15484314D01*
X9801264Y-15484314D02*
X9820311Y-15493838D01*
X9820311Y-15493838D02*
X9829835Y-15503362D01*
X9829835Y-15503362D02*
X9839359Y-15522409D01*
X9839359Y-15522409D02*
X9839359Y-15570028D01*
X9839359Y-15570028D02*
X9829835Y-15589076D01*
X9829835Y-15589076D02*
X9820311Y-15598600D01*
X9820311Y-15598600D02*
X9801264Y-15608124D01*
X9801264Y-15608124D02*
X9744121Y-15608124D01*
X9744121Y-15608124D02*
X9725073Y-15598600D01*
X9725073Y-15598600D02*
X9715549Y-15589076D01*
X9925073Y-15589076D02*
X9934597Y-15598600D01*
X9934597Y-15598600D02*
X9925073Y-15608124D01*
X9925073Y-15608124D02*
X9915549Y-15598600D01*
X9915549Y-15598600D02*
X9925073Y-15589076D01*
X9925073Y-15589076D02*
X9925073Y-15608124D01*
X10115549Y-15408124D02*
X10020311Y-15408124D01*
X10020311Y-15408124D02*
X10010787Y-15503362D01*
X10010787Y-15503362D02*
X10020311Y-15493838D01*
X10020311Y-15493838D02*
X10039359Y-15484314D01*
X10039359Y-15484314D02*
X10086978Y-15484314D01*
X10086978Y-15484314D02*
X10106025Y-15493838D01*
X10106025Y-15493838D02*
X10115549Y-15503362D01*
X10115549Y-15503362D02*
X10125073Y-15522409D01*
X10125073Y-15522409D02*
X10125073Y-15570028D01*
X10125073Y-15570028D02*
X10115549Y-15589076D01*
X10115549Y-15589076D02*
X10106025Y-15598600D01*
X10106025Y-15598600D02*
X10086978Y-15608124D01*
X10086978Y-15608124D02*
X10039359Y-15608124D01*
X10039359Y-15608124D02*
X10020311Y-15598600D01*
X10020311Y-15598600D02*
X10010787Y-15589076D01*
X10248883Y-15408124D02*
X10267930Y-15408124D01*
X10267930Y-15408124D02*
X10286978Y-15417647D01*
X10286978Y-15417647D02*
X10296502Y-15427171D01*
X10296502Y-15427171D02*
X10306025Y-15446219D01*
X10306025Y-15446219D02*
X10315549Y-15484314D01*
X10315549Y-15484314D02*
X10315549Y-15531933D01*
X10315549Y-15531933D02*
X10306025Y-15570028D01*
X10306025Y-15570028D02*
X10296502Y-15589076D01*
X10296502Y-15589076D02*
X10286978Y-15598600D01*
X10286978Y-15598600D02*
X10267930Y-15608124D01*
X10267930Y-15608124D02*
X10248883Y-15608124D01*
X10248883Y-15608124D02*
X10229835Y-15598600D01*
X10229835Y-15598600D02*
X10220311Y-15589076D01*
X10220311Y-15589076D02*
X10210787Y-15570028D01*
X10210787Y-15570028D02*
X10201264Y-15531933D01*
X10201264Y-15531933D02*
X10201264Y-15484314D01*
X10201264Y-15484314D02*
X10210787Y-15446219D01*
X10210787Y-15446219D02*
X10220311Y-15427171D01*
X10220311Y-15427171D02*
X10229835Y-15417647D01*
X10229835Y-15417647D02*
X10248883Y-15408124D01*
X10439359Y-15408124D02*
X10458406Y-15408124D01*
X10458406Y-15408124D02*
X10477454Y-15417647D01*
X10477454Y-15417647D02*
X10486978Y-15427171D01*
X10486978Y-15427171D02*
X10496502Y-15446219D01*
X10496502Y-15446219D02*
X10506025Y-15484314D01*
X10506025Y-15484314D02*
X10506025Y-15531933D01*
X10506025Y-15531933D02*
X10496502Y-15570028D01*
X10496502Y-15570028D02*
X10486978Y-15589076D01*
X10486978Y-15589076D02*
X10477454Y-15598600D01*
X10477454Y-15598600D02*
X10458406Y-15608124D01*
X10458406Y-15608124D02*
X10439359Y-15608124D01*
X10439359Y-15608124D02*
X10420311Y-15598600D01*
X10420311Y-15598600D02*
X10410787Y-15589076D01*
X10410787Y-15589076D02*
X10401264Y-15570028D01*
X10401264Y-15570028D02*
X10391740Y-15531933D01*
X10391740Y-15531933D02*
X10391740Y-15484314D01*
X10391740Y-15484314D02*
X10401264Y-15446219D01*
X10401264Y-15446219D02*
X10410787Y-15427171D01*
X10410787Y-15427171D02*
X10420311Y-15417647D01*
X10420311Y-15417647D02*
X10439359Y-15408124D01*
X10591740Y-15608124D02*
X10591740Y-15474790D01*
X10591740Y-15493838D02*
X10601264Y-15484314D01*
X10601264Y-15484314D02*
X10620311Y-15474790D01*
X10620311Y-15474790D02*
X10648883Y-15474790D01*
X10648883Y-15474790D02*
X10667930Y-15484314D01*
X10667930Y-15484314D02*
X10677454Y-15503362D01*
X10677454Y-15503362D02*
X10677454Y-15608124D01*
X10677454Y-15503362D02*
X10686978Y-15484314D01*
X10686978Y-15484314D02*
X10706025Y-15474790D01*
X10706025Y-15474790D02*
X10734597Y-15474790D01*
X10734597Y-15474790D02*
X10753645Y-15484314D01*
X10753645Y-15484314D02*
X10763168Y-15503362D01*
X10763168Y-15503362D02*
X10763168Y-15608124D01*
X10858406Y-15608124D02*
X10858406Y-15474790D01*
X10858406Y-15493838D02*
X10867930Y-15484314D01*
X10867930Y-15484314D02*
X10886978Y-15474790D01*
X10886978Y-15474790D02*
X10915549Y-15474790D01*
X10915549Y-15474790D02*
X10934597Y-15484314D01*
X10934597Y-15484314D02*
X10944121Y-15503362D01*
X10944121Y-15503362D02*
X10944121Y-15608124D01*
X10944121Y-15503362D02*
X10953645Y-15484314D01*
X10953645Y-15484314D02*
X10972692Y-15474790D01*
X10972692Y-15474790D02*
X11001264Y-15474790D01*
X11001264Y-15474790D02*
X11020311Y-15484314D01*
X11020311Y-15484314D02*
X11029835Y-15503362D01*
X11029835Y-15503362D02*
X11029835Y-15608124D01*
X11420311Y-15398600D02*
X11248883Y-15655743D01*
X11677454Y-15408124D02*
X11696502Y-15408124D01*
X11696502Y-15408124D02*
X11715549Y-15417647D01*
X11715549Y-15417647D02*
X11725073Y-15427171D01*
X11725073Y-15427171D02*
X11734597Y-15446219D01*
X11734597Y-15446219D02*
X11744121Y-15484314D01*
X11744121Y-15484314D02*
X11744121Y-15531933D01*
X11744121Y-15531933D02*
X11734597Y-15570028D01*
X11734597Y-15570028D02*
X11725073Y-15589076D01*
X11725073Y-15589076D02*
X11715549Y-15598600D01*
X11715549Y-15598600D02*
X11696502Y-15608124D01*
X11696502Y-15608124D02*
X11677454Y-15608124D01*
X11677454Y-15608124D02*
X11658406Y-15598600D01*
X11658406Y-15598600D02*
X11648883Y-15589076D01*
X11648883Y-15589076D02*
X11639359Y-15570028D01*
X11639359Y-15570028D02*
X11629835Y-15531933D01*
X11629835Y-15531933D02*
X11629835Y-15484314D01*
X11629835Y-15484314D02*
X11639359Y-15446219D01*
X11639359Y-15446219D02*
X11648883Y-15427171D01*
X11648883Y-15427171D02*
X11658406Y-15417647D01*
X11658406Y-15417647D02*
X11677454Y-15408124D01*
X11829835Y-15589076D02*
X11839359Y-15598600D01*
X11839359Y-15598600D02*
X11829835Y-15608124D01*
X11829835Y-15608124D02*
X11820311Y-15598600D01*
X11820311Y-15598600D02*
X11829835Y-15589076D01*
X11829835Y-15589076D02*
X11829835Y-15608124D01*
X12029835Y-15608124D02*
X11915549Y-15608124D01*
X11972692Y-15608124D02*
X11972692Y-15408124D01*
X11972692Y-15408124D02*
X11953645Y-15436695D01*
X11953645Y-15436695D02*
X11934597Y-15455743D01*
X11934597Y-15455743D02*
X11915549Y-15465266D01*
X12096502Y-15408124D02*
X12220311Y-15408124D01*
X12220311Y-15408124D02*
X12153645Y-15484314D01*
X12153645Y-15484314D02*
X12182216Y-15484314D01*
X12182216Y-15484314D02*
X12201264Y-15493838D01*
X12201264Y-15493838D02*
X12210787Y-15503362D01*
X12210787Y-15503362D02*
X12220311Y-15522409D01*
X12220311Y-15522409D02*
X12220311Y-15570028D01*
X12220311Y-15570028D02*
X12210787Y-15589076D01*
X12210787Y-15589076D02*
X12201264Y-15598600D01*
X12201264Y-15598600D02*
X12182216Y-15608124D01*
X12182216Y-15608124D02*
X12125073Y-15608124D01*
X12125073Y-15608124D02*
X12106026Y-15598600D01*
X12106026Y-15598600D02*
X12096502Y-15589076D01*
X12286978Y-15408124D02*
X12420311Y-15408124D01*
X12420311Y-15408124D02*
X12334597Y-15608124D01*
X12525073Y-15493838D02*
X12506026Y-15484314D01*
X12506026Y-15484314D02*
X12496502Y-15474790D01*
X12496502Y-15474790D02*
X12486978Y-15455743D01*
X12486978Y-15455743D02*
X12486978Y-15446219D01*
X12486978Y-15446219D02*
X12496502Y-15427171D01*
X12496502Y-15427171D02*
X12506026Y-15417647D01*
X12506026Y-15417647D02*
X12525073Y-15408124D01*
X12525073Y-15408124D02*
X12563168Y-15408124D01*
X12563168Y-15408124D02*
X12582216Y-15417647D01*
X12582216Y-15417647D02*
X12591740Y-15427171D01*
X12591740Y-15427171D02*
X12601264Y-15446219D01*
X12601264Y-15446219D02*
X12601264Y-15455743D01*
X12601264Y-15455743D02*
X12591740Y-15474790D01*
X12591740Y-15474790D02*
X12582216Y-15484314D01*
X12582216Y-15484314D02*
X12563168Y-15493838D01*
X12563168Y-15493838D02*
X12525073Y-15493838D01*
X12525073Y-15493838D02*
X12506026Y-15503362D01*
X12506026Y-15503362D02*
X12496502Y-15512886D01*
X12496502Y-15512886D02*
X12486978Y-15531933D01*
X12486978Y-15531933D02*
X12486978Y-15570028D01*
X12486978Y-15570028D02*
X12496502Y-15589076D01*
X12496502Y-15589076D02*
X12506026Y-15598600D01*
X12506026Y-15598600D02*
X12525073Y-15608124D01*
X12525073Y-15608124D02*
X12563168Y-15608124D01*
X12563168Y-15608124D02*
X12582216Y-15598600D01*
X12582216Y-15598600D02*
X12591740Y-15589076D01*
X12591740Y-15589076D02*
X12601264Y-15570028D01*
X12601264Y-15570028D02*
X12601264Y-15531933D01*
X12601264Y-15531933D02*
X12591740Y-15512886D01*
X12591740Y-15512886D02*
X12582216Y-15503362D01*
X12582216Y-15503362D02*
X12563168Y-15493838D01*
X12677454Y-15408124D02*
X12677454Y-15446219D01*
X12753645Y-15408124D02*
X12753645Y-15446219D01*
X13048883Y-15684314D02*
X13039359Y-15674790D01*
X13039359Y-15674790D02*
X13020311Y-15646219D01*
X13020311Y-15646219D02*
X13010788Y-15627171D01*
X13010788Y-15627171D02*
X13001264Y-15598600D01*
X13001264Y-15598600D02*
X12991740Y-15550981D01*
X12991740Y-15550981D02*
X12991740Y-15512886D01*
X12991740Y-15512886D02*
X13001264Y-15465266D01*
X13001264Y-15465266D02*
X13010788Y-15436695D01*
X13010788Y-15436695D02*
X13020311Y-15417647D01*
X13020311Y-15417647D02*
X13039359Y-15389076D01*
X13039359Y-15389076D02*
X13048883Y-15379552D01*
X13115549Y-15427171D02*
X13125073Y-15417647D01*
X13125073Y-15417647D02*
X13144121Y-15408124D01*
X13144121Y-15408124D02*
X13191740Y-15408124D01*
X13191740Y-15408124D02*
X13210788Y-15417647D01*
X13210788Y-15417647D02*
X13220311Y-15427171D01*
X13220311Y-15427171D02*
X13229835Y-15446219D01*
X13229835Y-15446219D02*
X13229835Y-15465266D01*
X13229835Y-15465266D02*
X13220311Y-15493838D01*
X13220311Y-15493838D02*
X13106026Y-15608124D01*
X13106026Y-15608124D02*
X13229835Y-15608124D01*
X13467930Y-15608124D02*
X13467930Y-15408124D01*
X13553645Y-15608124D02*
X13553645Y-15503362D01*
X13553645Y-15503362D02*
X13544121Y-15484314D01*
X13544121Y-15484314D02*
X13525073Y-15474790D01*
X13525073Y-15474790D02*
X13496502Y-15474790D01*
X13496502Y-15474790D02*
X13477454Y-15484314D01*
X13477454Y-15484314D02*
X13467930Y-15493838D01*
X13677454Y-15608124D02*
X13658407Y-15598600D01*
X13658407Y-15598600D02*
X13648883Y-15589076D01*
X13648883Y-15589076D02*
X13639359Y-15570028D01*
X13639359Y-15570028D02*
X13639359Y-15512886D01*
X13639359Y-15512886D02*
X13648883Y-15493838D01*
X13648883Y-15493838D02*
X13658407Y-15484314D01*
X13658407Y-15484314D02*
X13677454Y-15474790D01*
X13677454Y-15474790D02*
X13706026Y-15474790D01*
X13706026Y-15474790D02*
X13725073Y-15484314D01*
X13725073Y-15484314D02*
X13734597Y-15493838D01*
X13734597Y-15493838D02*
X13744121Y-15512886D01*
X13744121Y-15512886D02*
X13744121Y-15570028D01*
X13744121Y-15570028D02*
X13734597Y-15589076D01*
X13734597Y-15589076D02*
X13725073Y-15598600D01*
X13725073Y-15598600D02*
X13706026Y-15608124D01*
X13706026Y-15608124D02*
X13677454Y-15608124D01*
X13858407Y-15608124D02*
X13839359Y-15598600D01*
X13839359Y-15598600D02*
X13829835Y-15579552D01*
X13829835Y-15579552D02*
X13829835Y-15408124D01*
X14010788Y-15598600D02*
X13991740Y-15608124D01*
X13991740Y-15608124D02*
X13953645Y-15608124D01*
X13953645Y-15608124D02*
X13934597Y-15598600D01*
X13934597Y-15598600D02*
X13925073Y-15579552D01*
X13925073Y-15579552D02*
X13925073Y-15503362D01*
X13925073Y-15503362D02*
X13934597Y-15484314D01*
X13934597Y-15484314D02*
X13953645Y-15474790D01*
X13953645Y-15474790D02*
X13991740Y-15474790D01*
X13991740Y-15474790D02*
X14010788Y-15484314D01*
X14010788Y-15484314D02*
X14020311Y-15503362D01*
X14020311Y-15503362D02*
X14020311Y-15522409D01*
X14020311Y-15522409D02*
X13925073Y-15541457D01*
X14096502Y-15598600D02*
X14115550Y-15608124D01*
X14115550Y-15608124D02*
X14153645Y-15608124D01*
X14153645Y-15608124D02*
X14172692Y-15598600D01*
X14172692Y-15598600D02*
X14182216Y-15579552D01*
X14182216Y-15579552D02*
X14182216Y-15570028D01*
X14182216Y-15570028D02*
X14172692Y-15550981D01*
X14172692Y-15550981D02*
X14153645Y-15541457D01*
X14153645Y-15541457D02*
X14125073Y-15541457D01*
X14125073Y-15541457D02*
X14106026Y-15531933D01*
X14106026Y-15531933D02*
X14096502Y-15512886D01*
X14096502Y-15512886D02*
X14096502Y-15503362D01*
X14096502Y-15503362D02*
X14106026Y-15484314D01*
X14106026Y-15484314D02*
X14125073Y-15474790D01*
X14125073Y-15474790D02*
X14153645Y-15474790D01*
X14153645Y-15474790D02*
X14172692Y-15484314D01*
X14248883Y-15684314D02*
X14258407Y-15674790D01*
X14258407Y-15674790D02*
X14277454Y-15646219D01*
X14277454Y-15646219D02*
X14286978Y-15627171D01*
X14286978Y-15627171D02*
X14296502Y-15598600D01*
X14296502Y-15598600D02*
X14306026Y-15550981D01*
X14306026Y-15550981D02*
X14306026Y-15512886D01*
X14306026Y-15512886D02*
X14296502Y-15465266D01*
X14296502Y-15465266D02*
X14286978Y-15436695D01*
X14286978Y-15436695D02*
X14277454Y-15417647D01*
X14277454Y-15417647D02*
X14258407Y-15389076D01*
X14258407Y-15389076D02*
X14248883Y-15379552D01*
X14610788Y-15684314D02*
X14601264Y-15674790D01*
X14601264Y-15674790D02*
X14582216Y-15646219D01*
X14582216Y-15646219D02*
X14572692Y-15627171D01*
X14572692Y-15627171D02*
X14563169Y-15598600D01*
X14563169Y-15598600D02*
X14553645Y-15550981D01*
X14553645Y-15550981D02*
X14553645Y-15512886D01*
X14553645Y-15512886D02*
X14563169Y-15465266D01*
X14563169Y-15465266D02*
X14572692Y-15436695D01*
X14572692Y-15436695D02*
X14582216Y-15417647D01*
X14582216Y-15417647D02*
X14601264Y-15389076D01*
X14601264Y-15389076D02*
X14610788Y-15379552D01*
X14686978Y-15474790D02*
X14686978Y-15608124D01*
X14686978Y-15493838D02*
X14696502Y-15484314D01*
X14696502Y-15484314D02*
X14715550Y-15474790D01*
X14715550Y-15474790D02*
X14744121Y-15474790D01*
X14744121Y-15474790D02*
X14763169Y-15484314D01*
X14763169Y-15484314D02*
X14772692Y-15503362D01*
X14772692Y-15503362D02*
X14772692Y-15608124D01*
X14896502Y-15608124D02*
X14877454Y-15598600D01*
X14877454Y-15598600D02*
X14867931Y-15589076D01*
X14867931Y-15589076D02*
X14858407Y-15570028D01*
X14858407Y-15570028D02*
X14858407Y-15512886D01*
X14858407Y-15512886D02*
X14867931Y-15493838D01*
X14867931Y-15493838D02*
X14877454Y-15484314D01*
X14877454Y-15484314D02*
X14896502Y-15474790D01*
X14896502Y-15474790D02*
X14925073Y-15474790D01*
X14925073Y-15474790D02*
X14944121Y-15484314D01*
X14944121Y-15484314D02*
X14953645Y-15493838D01*
X14953645Y-15493838D02*
X14963169Y-15512886D01*
X14963169Y-15512886D02*
X14963169Y-15570028D01*
X14963169Y-15570028D02*
X14953645Y-15589076D01*
X14953645Y-15589076D02*
X14944121Y-15598600D01*
X14944121Y-15598600D02*
X14925073Y-15608124D01*
X14925073Y-15608124D02*
X14896502Y-15608124D01*
X15020312Y-15474790D02*
X15096502Y-15474790D01*
X15048883Y-15408124D02*
X15048883Y-15579552D01*
X15048883Y-15579552D02*
X15058407Y-15598600D01*
X15058407Y-15598600D02*
X15077454Y-15608124D01*
X15077454Y-15608124D02*
X15096502Y-15608124D01*
X15315550Y-15474790D02*
X15315550Y-15674790D01*
X15315550Y-15484314D02*
X15334597Y-15474790D01*
X15334597Y-15474790D02*
X15372693Y-15474790D01*
X15372693Y-15474790D02*
X15391740Y-15484314D01*
X15391740Y-15484314D02*
X15401264Y-15493838D01*
X15401264Y-15493838D02*
X15410788Y-15512886D01*
X15410788Y-15512886D02*
X15410788Y-15570028D01*
X15410788Y-15570028D02*
X15401264Y-15589076D01*
X15401264Y-15589076D02*
X15391740Y-15598600D01*
X15391740Y-15598600D02*
X15372693Y-15608124D01*
X15372693Y-15608124D02*
X15334597Y-15608124D01*
X15334597Y-15608124D02*
X15315550Y-15598600D01*
X15525073Y-15608124D02*
X15506026Y-15598600D01*
X15506026Y-15598600D02*
X15496502Y-15579552D01*
X15496502Y-15579552D02*
X15496502Y-15408124D01*
X15686978Y-15608124D02*
X15686978Y-15503362D01*
X15686978Y-15503362D02*
X15677454Y-15484314D01*
X15677454Y-15484314D02*
X15658407Y-15474790D01*
X15658407Y-15474790D02*
X15620312Y-15474790D01*
X15620312Y-15474790D02*
X15601264Y-15484314D01*
X15686978Y-15598600D02*
X15667931Y-15608124D01*
X15667931Y-15608124D02*
X15620312Y-15608124D01*
X15620312Y-15608124D02*
X15601264Y-15598600D01*
X15601264Y-15598600D02*
X15591740Y-15579552D01*
X15591740Y-15579552D02*
X15591740Y-15560505D01*
X15591740Y-15560505D02*
X15601264Y-15541457D01*
X15601264Y-15541457D02*
X15620312Y-15531933D01*
X15620312Y-15531933D02*
X15667931Y-15531933D01*
X15667931Y-15531933D02*
X15686978Y-15522409D01*
X15753645Y-15474790D02*
X15829835Y-15474790D01*
X15782216Y-15408124D02*
X15782216Y-15579552D01*
X15782216Y-15579552D02*
X15791740Y-15598600D01*
X15791740Y-15598600D02*
X15810788Y-15608124D01*
X15810788Y-15608124D02*
X15829835Y-15608124D01*
X15972693Y-15598600D02*
X15953645Y-15608124D01*
X15953645Y-15608124D02*
X15915550Y-15608124D01*
X15915550Y-15608124D02*
X15896502Y-15598600D01*
X15896502Y-15598600D02*
X15886978Y-15579552D01*
X15886978Y-15579552D02*
X15886978Y-15503362D01*
X15886978Y-15503362D02*
X15896502Y-15484314D01*
X15896502Y-15484314D02*
X15915550Y-15474790D01*
X15915550Y-15474790D02*
X15953645Y-15474790D01*
X15953645Y-15474790D02*
X15972693Y-15484314D01*
X15972693Y-15484314D02*
X15982216Y-15503362D01*
X15982216Y-15503362D02*
X15982216Y-15522409D01*
X15982216Y-15522409D02*
X15886978Y-15541457D01*
X16153645Y-15608124D02*
X16153645Y-15408124D01*
X16153645Y-15598600D02*
X16134597Y-15608124D01*
X16134597Y-15608124D02*
X16096502Y-15608124D01*
X16096502Y-15608124D02*
X16077454Y-15598600D01*
X16077454Y-15598600D02*
X16067931Y-15589076D01*
X16067931Y-15589076D02*
X16058407Y-15570028D01*
X16058407Y-15570028D02*
X16058407Y-15512886D01*
X16058407Y-15512886D02*
X16067931Y-15493838D01*
X16067931Y-15493838D02*
X16077454Y-15484314D01*
X16077454Y-15484314D02*
X16096502Y-15474790D01*
X16096502Y-15474790D02*
X16134597Y-15474790D01*
X16134597Y-15474790D02*
X16153645Y-15484314D01*
X16229835Y-15684314D02*
X16239359Y-15674790D01*
X16239359Y-15674790D02*
X16258407Y-15646219D01*
X16258407Y-15646219D02*
X16267931Y-15627171D01*
X16267931Y-15627171D02*
X16277454Y-15598600D01*
X16277454Y-15598600D02*
X16286978Y-15550981D01*
X16286978Y-15550981D02*
X16286978Y-15512886D01*
X16286978Y-15512886D02*
X16277454Y-15465266D01*
X16277454Y-15465266D02*
X16267931Y-15436695D01*
X16267931Y-15436695D02*
X16258407Y-15417647D01*
X16258407Y-15417647D02*
X16239359Y-15389076D01*
X16239359Y-15389076D02*
X16229835Y-15379552D01*
M02*
