G04 #@! TF.GenerationSoftware,KiCad,Pcbnew,9.0.7*
G04 #@! TF.CreationDate,2026-02-14T15:35:40+11:00*
G04 #@! TF.ProjectId,16BitFlashROM_Adaptor,31364269-7446-46c6-9173-68524f4d5f41,rev?*
G04 #@! TF.SameCoordinates,Original*
G04 #@! TF.FileFunction,Legend,Top*
G04 #@! TF.FilePolarity,Positive*
%FSLAX46Y46*%
G04 Gerber Fmt 4.6, Leading zero omitted, Abs format (unit mm)*
G04 Created by KiCad (PCBNEW 9.0.7) date 2026-02-14 15:35:40*
%MOMM*%
%LPD*%
G01*
G04 APERTURE LIST*
%ADD10C,0.550000*%
%ADD11C,0.150000*%
%ADD12C,0.254000*%
%ADD13C,0.120000*%
%ADD14C,0.200000*%
%ADD15R,1.700000X1.700000*%
%ADD16C,1.700000*%
%ADD17R,0.300000X1.300000*%
G04 APERTURE END LIST*
D10*
X138585000Y-87520000D02*
G75*
G02*
X138035000Y-87520000I-275000J0D01*
G01*
X138035000Y-87520000D02*
G75*
G02*
X138585000Y-87520000I275000J0D01*
G01*
D11*
X151656088Y-89328137D02*
X152706647Y-89974634D01*
X152706647Y-89974634D02*
X152262179Y-89206918D01*
X152262179Y-89206918D02*
X153029895Y-89651385D01*
X153029895Y-89651385D02*
X152383398Y-88600827D01*
X153110708Y-88681639D02*
X153393551Y-88398796D01*
X153959236Y-88722045D02*
X153555175Y-89126106D01*
X153555175Y-89126106D02*
X152706647Y-88277578D01*
X152706647Y-88277578D02*
X153110708Y-87873517D01*
X151384155Y-89128934D02*
X152951912Y-87561178D01*
X141096495Y-90799913D02*
X141500556Y-90395852D01*
X141258119Y-91123162D02*
X140692434Y-89991791D01*
X140692434Y-89991791D02*
X141823804Y-90557476D01*
X142551114Y-89830167D02*
X142066241Y-90315040D01*
X142308677Y-90072603D02*
X141460149Y-89224075D01*
X141460149Y-89224075D02*
X141500555Y-89426106D01*
X141500555Y-89426106D02*
X141500555Y-89587730D01*
X141500555Y-89587730D02*
X141460149Y-89708948D01*
X142551114Y-88860420D02*
X142429896Y-88900827D01*
X142429896Y-88900827D02*
X142349083Y-88900827D01*
X142349083Y-88900827D02*
X142227865Y-88860420D01*
X142227865Y-88860420D02*
X142187459Y-88820014D01*
X142187459Y-88820014D02*
X142147053Y-88698796D01*
X142147053Y-88698796D02*
X142147053Y-88617984D01*
X142147053Y-88617984D02*
X142187459Y-88496765D01*
X142187459Y-88496765D02*
X142349083Y-88335141D01*
X142349083Y-88335141D02*
X142470302Y-88294735D01*
X142470302Y-88294735D02*
X142551114Y-88294735D01*
X142551114Y-88294735D02*
X142672332Y-88335141D01*
X142672332Y-88335141D02*
X142712738Y-88375547D01*
X142712738Y-88375547D02*
X142753144Y-88496765D01*
X142753144Y-88496765D02*
X142753144Y-88577578D01*
X142753144Y-88577578D02*
X142712738Y-88698796D01*
X142712738Y-88698796D02*
X142551114Y-88860420D01*
X142551114Y-88860420D02*
X142510708Y-88981639D01*
X142510708Y-88981639D02*
X142510708Y-89062451D01*
X142510708Y-89062451D02*
X142551114Y-89183669D01*
X142551114Y-89183669D02*
X142712738Y-89345294D01*
X142712738Y-89345294D02*
X142833957Y-89385700D01*
X142833957Y-89385700D02*
X142914769Y-89385700D01*
X142914769Y-89385700D02*
X143035987Y-89345294D01*
X143035987Y-89345294D02*
X143197612Y-89183669D01*
X143197612Y-89183669D02*
X143238018Y-89062451D01*
X143238018Y-89062451D02*
X143238018Y-88981639D01*
X143238018Y-88981639D02*
X143197612Y-88860420D01*
X143197612Y-88860420D02*
X143035987Y-88698796D01*
X143035987Y-88698796D02*
X142914769Y-88658390D01*
X142914769Y-88658390D02*
X142833957Y-88658390D01*
X142833957Y-88658390D02*
X142712738Y-88698796D01*
X145293458Y-93245342D02*
X144722030Y-93245342D01*
X144722030Y-93245342D02*
X144664887Y-93816771D01*
X144664887Y-93816771D02*
X144722030Y-93759628D01*
X144722030Y-93759628D02*
X144836316Y-93702485D01*
X144836316Y-93702485D02*
X145122030Y-93702485D01*
X145122030Y-93702485D02*
X145236316Y-93759628D01*
X145236316Y-93759628D02*
X145293458Y-93816771D01*
X145293458Y-93816771D02*
X145350601Y-93931057D01*
X145350601Y-93931057D02*
X145350601Y-94216771D01*
X145350601Y-94216771D02*
X145293458Y-94331057D01*
X145293458Y-94331057D02*
X145236316Y-94388200D01*
X145236316Y-94388200D02*
X145122030Y-94445342D01*
X145122030Y-94445342D02*
X144836316Y-94445342D01*
X144836316Y-94445342D02*
X144722030Y-94388200D01*
X144722030Y-94388200D02*
X144664887Y-94331057D01*
X145750601Y-93645342D02*
X146036315Y-94445342D01*
X146036315Y-94445342D02*
X146322030Y-93645342D01*
X147007744Y-93245342D02*
X147122030Y-93245342D01*
X147122030Y-93245342D02*
X147236316Y-93302485D01*
X147236316Y-93302485D02*
X147293459Y-93359628D01*
X147293459Y-93359628D02*
X147350601Y-93473914D01*
X147350601Y-93473914D02*
X147407744Y-93702485D01*
X147407744Y-93702485D02*
X147407744Y-93988200D01*
X147407744Y-93988200D02*
X147350601Y-94216771D01*
X147350601Y-94216771D02*
X147293459Y-94331057D01*
X147293459Y-94331057D02*
X147236316Y-94388200D01*
X147236316Y-94388200D02*
X147122030Y-94445342D01*
X147122030Y-94445342D02*
X147007744Y-94445342D01*
X147007744Y-94445342D02*
X146893459Y-94388200D01*
X146893459Y-94388200D02*
X146836316Y-94331057D01*
X146836316Y-94331057D02*
X146779173Y-94216771D01*
X146779173Y-94216771D02*
X146722030Y-93988200D01*
X146722030Y-93988200D02*
X146722030Y-93702485D01*
X146722030Y-93702485D02*
X146779173Y-93473914D01*
X146779173Y-93473914D02*
X146836316Y-93359628D01*
X146836316Y-93359628D02*
X146893459Y-93302485D01*
X146893459Y-93302485D02*
X147007744Y-93245342D01*
X146657324Y-134883957D02*
X145970421Y-134762738D01*
X146172451Y-135368830D02*
X145323923Y-134520302D01*
X145323923Y-134520302D02*
X145647172Y-134197053D01*
X145647172Y-134197053D02*
X145768390Y-134156647D01*
X145768390Y-134156647D02*
X145849202Y-134156647D01*
X145849202Y-134156647D02*
X145970421Y-134197053D01*
X145970421Y-134197053D02*
X146091639Y-134318271D01*
X146091639Y-134318271D02*
X146132045Y-134439489D01*
X146132045Y-134439489D02*
X146132045Y-134520302D01*
X146132045Y-134520302D02*
X146091639Y-134641520D01*
X146091639Y-134641520D02*
X145768390Y-134964769D01*
X147020979Y-134520302D02*
X146172451Y-133671773D01*
X146172451Y-133671773D02*
X146374482Y-133469743D01*
X146374482Y-133469743D02*
X146536106Y-133388931D01*
X146536106Y-133388931D02*
X146697730Y-133388931D01*
X146697730Y-133388931D02*
X146818949Y-133429337D01*
X146818949Y-133429337D02*
X147020979Y-133550555D01*
X147020979Y-133550555D02*
X147142197Y-133671773D01*
X147142197Y-133671773D02*
X147263416Y-133873804D01*
X147263416Y-133873804D02*
X147303822Y-133995022D01*
X147303822Y-133995022D02*
X147303822Y-134156647D01*
X147303822Y-134156647D02*
X147223010Y-134318271D01*
X147223010Y-134318271D02*
X147020979Y-134520302D01*
X147627071Y-133106088D02*
X148031132Y-133510149D01*
X146899761Y-132944464D02*
X147627071Y-133106088D01*
X147627071Y-133106088D02*
X147465446Y-132378778D01*
X150127324Y-134839762D02*
X149440421Y-134718543D01*
X149642451Y-135324635D02*
X148793923Y-134476107D01*
X148793923Y-134476107D02*
X149117172Y-134152858D01*
X149117172Y-134152858D02*
X149238390Y-134112452D01*
X149238390Y-134112452D02*
X149319202Y-134112452D01*
X149319202Y-134112452D02*
X149440421Y-134152858D01*
X149440421Y-134152858D02*
X149561639Y-134274076D01*
X149561639Y-134274076D02*
X149602045Y-134395294D01*
X149602045Y-134395294D02*
X149602045Y-134476107D01*
X149602045Y-134476107D02*
X149561639Y-134597325D01*
X149561639Y-134597325D02*
X149238390Y-134920574D01*
X150410167Y-134476107D02*
X150571791Y-134395294D01*
X150571791Y-134395294D02*
X150773822Y-134193264D01*
X150773822Y-134193264D02*
X150814228Y-134072046D01*
X150814228Y-134072046D02*
X150814228Y-133991233D01*
X150814228Y-133991233D02*
X150773822Y-133870015D01*
X150773822Y-133870015D02*
X150693010Y-133789203D01*
X150693010Y-133789203D02*
X150571791Y-133748797D01*
X150571791Y-133748797D02*
X150490979Y-133748797D01*
X150490979Y-133748797D02*
X150369761Y-133789203D01*
X150369761Y-133789203D02*
X150167730Y-133910421D01*
X150167730Y-133910421D02*
X150046512Y-133950827D01*
X150046512Y-133950827D02*
X149965700Y-133950827D01*
X149965700Y-133950827D02*
X149844482Y-133910421D01*
X149844482Y-133910421D02*
X149763669Y-133829609D01*
X149763669Y-133829609D02*
X149723263Y-133708391D01*
X149723263Y-133708391D02*
X149723263Y-133627578D01*
X149723263Y-133627578D02*
X149763669Y-133506360D01*
X149763669Y-133506360D02*
X149965700Y-133304330D01*
X149965700Y-133304330D02*
X150127324Y-133223517D01*
X150329355Y-132940675D02*
X150814228Y-132455802D01*
X151420319Y-133546766D02*
X150571791Y-132698238D01*
X148441178Y-134357717D02*
X150574620Y-132224274D01*
D12*
X151332380Y-100404318D02*
X151332380Y-101432413D01*
X151332380Y-101432413D02*
X151392857Y-101553365D01*
X151392857Y-101553365D02*
X151453333Y-101613842D01*
X151453333Y-101613842D02*
X151574285Y-101674318D01*
X151574285Y-101674318D02*
X151816190Y-101674318D01*
X151816190Y-101674318D02*
X151937142Y-101613842D01*
X151937142Y-101613842D02*
X151997619Y-101553365D01*
X151997619Y-101553365D02*
X152058095Y-101432413D01*
X152058095Y-101432413D02*
X152058095Y-100404318D01*
X153328095Y-101674318D02*
X152602380Y-101674318D01*
X152965237Y-101674318D02*
X152965237Y-100404318D01*
X152965237Y-100404318D02*
X152844285Y-100585746D01*
X152844285Y-100585746D02*
X152723333Y-100706699D01*
X152723333Y-100706699D02*
X152602380Y-100767175D01*
D13*
X143360000Y-87480000D02*
X143360000Y-88860000D01*
X143360000Y-90130000D02*
X143360000Y-92780000D01*
X143360000Y-92780000D02*
X148660000Y-92780000D01*
X144740000Y-87480000D02*
X143360000Y-87480000D01*
X146010000Y-87480000D02*
X146010000Y-90130000D01*
X146010000Y-87480000D02*
X151200000Y-87480000D01*
X146010000Y-90130000D02*
X143360000Y-90130000D01*
X148660000Y-90240000D02*
X148660000Y-92780000D01*
X148660000Y-90240000D02*
X151200000Y-90240000D01*
X151200000Y-87480000D02*
X151200000Y-90240000D01*
D14*
X141320000Y-104185000D02*
X153320000Y-104185000D01*
X141320000Y-121885000D02*
X141320000Y-104185000D01*
X153320000Y-104185000D02*
X153320000Y-121885000D01*
X153320000Y-121885000D02*
X141320000Y-121885000D01*
X153570000Y-102535000D02*
X153570000Y-103835000D01*
D13*
X144665000Y-138540000D02*
X144665000Y-137160000D01*
X146045000Y-138540000D02*
X144665000Y-138540000D01*
X147315000Y-135780000D02*
X149965000Y-135780000D01*
X147315000Y-138540000D02*
X147315000Y-135780000D01*
X147315000Y-138540000D02*
X149965000Y-138540000D01*
X149965000Y-138540000D02*
X149965000Y-135780000D01*
%LPC*%
D15*
X144740000Y-88860000D03*
D16*
X147280000Y-88860000D03*
X149820000Y-88860000D03*
X144780000Y-91400000D03*
X147280000Y-91400000D03*
D17*
X153070000Y-103185000D03*
X152570000Y-103185000D03*
X152070000Y-103185000D03*
X151570000Y-103185000D03*
X151070000Y-103185000D03*
X150570000Y-103185000D03*
X150070000Y-103185000D03*
X149570000Y-103185000D03*
X149070000Y-103185000D03*
X148570000Y-103185000D03*
X148070000Y-103185000D03*
X147570000Y-103185000D03*
X147070000Y-103185000D03*
X146570000Y-103185000D03*
X146070000Y-103185000D03*
X145570000Y-103185000D03*
X145070000Y-103185000D03*
X144570000Y-103185000D03*
X144070000Y-103185000D03*
X143570000Y-103185000D03*
X143070000Y-103185000D03*
X142570000Y-103185000D03*
X142070000Y-103185000D03*
X141570000Y-103185000D03*
X141570000Y-122885000D03*
X142070000Y-122885000D03*
X142570000Y-122885000D03*
X143070000Y-122885000D03*
X143570000Y-122885000D03*
X144070000Y-122885000D03*
X144570000Y-122885000D03*
X145070000Y-122885000D03*
X145570000Y-122885000D03*
X146070000Y-122885000D03*
X146570000Y-122885000D03*
X147070000Y-122885000D03*
X147570000Y-122885000D03*
X148070000Y-122885000D03*
X148570000Y-122885000D03*
X149070000Y-122885000D03*
X149570000Y-122885000D03*
X150070000Y-122885000D03*
X150570000Y-122885000D03*
X151070000Y-122885000D03*
X151570000Y-122885000D03*
X152070000Y-122885000D03*
X152570000Y-122885000D03*
X153070000Y-122885000D03*
D15*
X146045000Y-137160000D03*
D16*
X148585000Y-137160000D03*
D15*
X139700000Y-88900000D03*
D16*
X139700000Y-91440000D03*
X139700000Y-93980000D03*
X139700000Y-96520000D03*
X139700000Y-99060000D03*
X139700000Y-101600000D03*
X139700000Y-104140000D03*
X139700000Y-106680000D03*
X139700000Y-109220000D03*
X139700000Y-111760000D03*
X139700000Y-114300000D03*
X139700000Y-116840000D03*
X139700000Y-119380000D03*
X139700000Y-121920000D03*
X139700000Y-124460000D03*
X139700000Y-127000000D03*
X139700000Y-129540000D03*
X139700000Y-132080000D03*
X139700000Y-134620000D03*
X139700000Y-137160000D03*
D15*
X154940000Y-137160000D03*
D16*
X154940000Y-134620000D03*
X154940000Y-132080000D03*
X154940000Y-129540000D03*
X154940000Y-127000000D03*
X154940000Y-124460000D03*
X154940000Y-121920000D03*
X154940000Y-119380000D03*
X154940000Y-116840000D03*
X154940000Y-114300000D03*
X154940000Y-111760000D03*
X154940000Y-109220000D03*
X154940000Y-106680000D03*
X154940000Y-104140000D03*
X154940000Y-101600000D03*
X154940000Y-99060000D03*
X154940000Y-96520000D03*
X154940000Y-93980000D03*
X154940000Y-91440000D03*
X154940000Y-88900000D03*
%LPD*%
M02*
